<?xml version="1.0" standalone="no"?><!DOCTYPE svg PUBLIC "-//W3C//DTD SVG 1.1//EN" "http://www.w3.org/Graphics/SVG/1.1/DTD/svg11.dtd"><svg t="1745472528611" class="icon" viewBox="0 0 1024 1024" version="1.1" xmlns="http://www.w3.org/2000/svg" p-id="9621" xmlns:xlink="http://www.w3.org/1999/xlink" width="200" height="200"><path d="M904.533333 119.466667c-22.755556 0-45.511111 11.377778-45.511111 34.133333v716.8c0 34.133333-34.133333 62.577778-68.266666 62.577778H187.733333c-39.822222 0-73.955556-34.133333-73.955555-62.577778v-51.2c0-34.133333 22.755556-51.2 62.577778-51.2H768c22.755556 0 34.133333-11.377778 34.133333-34.133333V113.777778c0-68.266667-56.888889-113.777778-142.222222-113.777778H182.044444C108.088889 0 28.444444 39.822222 28.444444 113.777778v796.444444c5.688889 56.888889 68.266667 102.4 136.533334 108.088889h642.844444c79.644444 0 142.222222-56.888889 142.222222-119.466667V153.6c0-11.377778-22.755556-34.133333-45.511111-34.133333zM113.777778 170.666667c0-45.511111 17.066667-85.333333 62.577778-85.333334h455.111111c51.2 0 79.644444 34.133333 79.644444 79.644445V682.666667c0 11.377778-11.377778 17.066667-22.755555 17.066666h-512c-51.2 0-62.577778-34.133333-62.577778-79.644444V170.666667z" p-id="9622" fill="#1296db"></path><path d="M722.488889 807.822222H199.111111c-17.066667 0-34.133333 17.066667-34.133333 39.822222 0 22.755556 11.377778 39.822222 34.133333 39.822223h517.688889c17.066667 0 34.133333-17.066667 34.133333-39.822223 0-22.755556-11.377778-39.822222-28.444444-39.822222z" p-id="9623" fill="#1296db"></path></svg>