<?xml version="1.0" encoding="UTF-8" standalone="no"?>
<!-- Created with Inkscape (http://www.inkscape.org/) -->

<svg width="100%" height="100%"
    viewBox="0 0 844.17293 813.79535"
    version="1.1" id="svg5"
    xml:space="preserve"
    xmlns="http://www.w3.org/2000/svg"
    xmlns:svg="http://www.w3.org/2000/svg">
    <defs id="defs2" />
    <g id="layer1"
        transform="translate(-166.7106,-6431.45)">
        <g id="notion-using-computer-2"
            transform="matrix(2,0,0,2,-394.08685,-88.124184)"
            style="stroke-width:0.5">
            <g id="g42808"
                transform="matrix(0.91786908,0,0,0.91786057,4078.5769,2840.8053)"
                style="stroke-width:0.544745">
                <path
                    d="m -3950.3987,617.58186 c 0,0 25.1148,0.58579 33.3644,-14.88845 8.2495,-15.47421 8.518,-12.00838 8.518,-12.00838 0,0 -2.0747,3.05091 9.0062,6.12622 11.0808,3.07533 20.8436,-3.88075 20.8436,-3.88075 0,0 6.4678,13.22877 6.7119,27.48261 0.2441,14.25385 -1.1227,17.52442 -1.1227,17.52442 0,0 1.7573,0.75663 11.1052,-0.78103 9.3479,-1.53765 28.9711,-10.91006 23.4063,-22.28384 -5.5648,-11.3738 -5.2475,-11.32499 -5.2475,-11.32499 0,0 17.7195,3.49023 6.0529,-15.20573 -11.6665,-18.69599 -25.6029,-15.76713 -25.6029,-15.76713 0,0 16.8895,-21.1123 -4.3445,-17.13392 -21.234,3.97841 -26.4571,4.07602 -27.8971,2.07463 -1.4401,-2.00139 -5.1987,-23.62626 -27.0919,-9.86055 -21.8931,13.76572 -32.0952,31.36337 -39.3441,40.02797 -7.2488,8.66457 -17.1093,11.44701 -21.2097,12.93585 -14.2366,6.77345 16.9753,47.64454 31.363,41.34596 2.3809,-0.42988 6.3703,-2.0746 4.5398,-2.92886 -2.8353,-2.90825 -4.1139,-7.80481 -8.2768,-9.70279 -8.5896,-3.91631 -11.811,-13.44518 -2.0107,-17.90188 5.3008,-1.04973 7.4318,14.10743 7.4318,14.10743 0,0 2.9044,5.71132 2.221,2.85565 -0.6833,-2.85565 -2.4162,-10.81244 -2.4162,-10.81244 z"
                    id="path42704"
                    stroke-width="1.15304"
                    stroke-linecap="round"
                    stroke-linejoin="round"
                    stroke="black" />
                <g id="path42706"
                    style="stroke-width:0.544745">
                    <path
                        d="m -3931.5414,613.33657 c 0.7688,0.26847 19.3425,3.34378 19.3425,3.34378"
                        id="path76637"
                        stroke-width="1.15304"
                        stroke-linecap="round"
                        stroke-linejoin="round"
                        stroke="black" />
                    <path
                        d="m -3931.1621,612.24805 a 1.1530401,1.1530401 0 0 0 -1.4688,0.70898 1.1530401,1.1530401 0 0 0 0.709,1.46875 c 0.2274,0.0794 0.2973,0.0811 0.4883,0.12109 0.191,0.0399 0.4355,0.0869 0.7305,0.14258 0.5899,0.11138 1.3814,0.2545 2.3086,0.41797 1.8543,0.32694 4.25,0.73725 6.6211,1.13867 4.7422,0.80284 9.3867,1.57227 9.3867,1.57227 a 1.1530401,1.1530401 0 0 0 1.3262,-0.94922 1.1530401,1.1530401 0 0 0 -0.9493,-1.32617 c 0,0 -4.642,-0.76838 -9.3789,-1.57031 -2.3684,-0.40097 -4.761,-0.81153 -6.6054,-1.13672 -0.9223,-0.1626 -1.7083,-0.30393 -2.2813,-0.41211 -0.2865,-0.0541 -0.52,-0.10016 -0.6855,-0.13477 -0.1655,-0.0346 -0.3325,-0.0869 -0.2012,-0.041 z"
                        id="path76639"
                        stroke-width="0.544745"
                        stroke-linecap="round"
                        stroke-linejoin="round"
                        stroke="black" />
                </g>
                <path
                    d="m -3884.5059,613.30859 c -3.4568,0.0446 -6.9173,0.57002 -10.33,1.16211 a 1.1531554,1.1531554 0 0 0 -0.8555,0.66602 c -5.0764,11.39261 -5.1722,20.32376 -3.1231,27.14648 2.0492,6.82273 6.198,11.49312 9.3399,14.55469 a 1.1530401,1.1530401 0 0 0 1.6308,-0.0195 1.1530401,1.1530401 0 0 0 -0.021,-1.63086 c -3.0284,-2.95096 -6.8541,-7.28847 -8.7403,-13.56836 -1.85,-6.15955 -1.8167,-14.26537 2.8067,-24.94922 6.5232,-1.10781 12.8289,-1.81582 18.7656,0.50977 a 1.1530401,1.1530401 0 0 0 1.4941,-0.65235 1.1530401,1.1530401 0 0 0 -0.6523,-1.49414 c -3.4037,-1.33333 -6.8577,-1.76921 -10.3145,-1.72461 z"
                    id="path42708"
                    stroke-width="0.544745"
                    stroke-linecap="round"
                    stroke-linejoin="round"
                    stroke="black" />
                <path
                    d="m -3883.6934,629.15625 a 1.1530401,1.1530401 0 0 0 -1.3984,0.83984 c -0.6764,2.71296 -1.2446,5.27196 -2.6504,6.76172 -1.4057,1.48977 -3.7518,2.32438 -8.9433,1.24805 a 1.1530401,1.1530401 0 0 0 -1.3633,0.89453 1.1530401,1.1530401 0 0 0 0.8945,1.36328 c 5.5879,1.15851 9.0498,0.23818 11.0898,-1.92383 2.0401,-2.162 2.5541,-5.15068 3.211,-7.78515 a 1.1530401,1.1530401 0 0 0 -0.8399,-1.39844 z"
                    id="path42710"
                    stroke-width="0.544745"
                    stroke-linecap="round"
                    stroke-linejoin="round"
                    stroke="black" />
                <path
                    d="m -3910.6992,631.6875 a 1.1530401,1.1530401 0 0 0 -1.2227,1.08008 c -0.2692,4.35353 -3.566,7.52189 -6.8066,8.01562 -1.6203,0.24687 -3.1927,-0.12025 -4.5508,-1.33398 -1.3581,-1.21373 -2.5286,-3.35203 -3.0195,-6.77539 a 1.1530401,1.1530401 0 0 0 -1.3067,-0.97656 1.1530401,1.1530401 0 0 0 -0.9765,1.30468 c 0.5452,3.80165 1.9002,6.49721 3.7675,8.16602 1.8674,1.6688 4.2191,2.23163 6.4317,1.89453 4.4251,-0.67421 8.4263,-4.7296 8.7617,-10.1543 a 1.1530401,1.1530401 0 0 0 -1.0781,-1.2207 z"
                    id="path42712"
                    stroke-width="0.544745"
                    stroke-linecap="round"
                    stroke-linejoin="round"
                    stroke="black" />
                <path
                    d="m -3871.7227,636.51172 a 1.1530401,1.1530401 0 0 0 -1.3066,0.97461 c -2.4646,16.9075 -7.9192,29.15714 -14.7207,37.08984 -6.8015,7.9327 -14.9085,11.56838 -22.9082,11.39063 -15.9993,-0.35551 -32.0544,-16.16139 -35.6133,-45.95703 a 1.1530401,1.1530401 0 0 0 -1.2812,-1.00782 1.1530401,1.1530401 0 0 0 -1.0078,1.28125 c 3.6448,30.51582 20.3762,47.59998 37.8515,47.98828 8.7377,0.19415 17.5416,-3.83581 24.709,-12.19531 7.1674,-8.35949 12.7403,-21.02757 15.252,-38.25781 a 1.1530401,1.1530401 0 0 0 -0.9747,-1.30664 z"
                    id="path42714"
                    stroke-width="0.544745"
                    stroke-linecap="round"
                    stroke-linejoin="round"
                    stroke="black" />
                <path
                    d="m -3916.3906,664.57617 a 1.1530401,1.1530401 0 0 0 -0.8614,0.19531 1.1530401,1.1530401 0 0 0 -0.2753,1.60743 c 2.6411,3.73648 5.4837,5.40285 8.2773,5.92578 2.7936,0.52292 5.4302,-0.01 7.8809,-0.27149 a 1.1530401,1.1530401 0 0 0 1.0253,-1.26758 1.1530401,1.1530401 0 0 0 -1.2695,-1.02539 c -2.5812,0.27578 -4.9746,0.71585 -7.2129,0.29688 -2.2383,-0.41897 -4.4276,-1.60809 -6.8183,-4.99024 a 1.1530401,1.1530401 0 0 0 -0.7461,-0.4707 z"
                    id="path42716"
                    stroke-width="0.544745"
                    stroke-linecap="round"
                    stroke-linejoin="round"
                    stroke="black" />
                <path
                    d="m -3895.1465,682.27734 c 0,0 -0.5526,0.10774 -1.1055,0.44922 -0.5528,0.34148 -1.2157,0.94216 -1.7636,1.90625 -1.0958,1.92819 -1.7531,5.22187 -0.8164,11.04883 0.9297,5.78365 2.43,9.81015 3.7187,12.4082 1.2887,2.59805 2.4375,3.84375 2.4375,3.84375 a 1.1530401,1.1530401 0 0 0 1.6289,0.0508 1.1530401,1.1530401 0 0 0 0.053,-1.6289 c 0,0 -0.8687,-0.90193 -2.0528,-3.28906 -1.184,-2.38714 -2.6131,-6.18426 -3.5078,-11.75 -0.8877,-5.52241 -0.1802,-8.269 0.5449,-9.54493 0.3626,-0.63796 0.7248,-0.9313 0.9688,-1.08203 0.244,-0.15072 0.2597,-0.13476 0.2597,-0.13476 a 1.1530401,1.1530401 0 0 0 0.9551,-1.32227 1.1530401,1.1530401 0 0 0 -1.3203,-0.95508 z"
                    id="path42718"
                    stroke-width="0.544745"
                    stroke-linecap="round"
                    stroke-linejoin="round"
                    stroke="black" />
                <path
                    d="m -3890.7461,685.95312 a 1.1530401,1.1530401 0 0 0 -1.2441,1.05665 1.1530401,1.1530401 0 0 0 1.0547,1.24218 c 7.2501,0.59423 12.8069,1.03947 17.6171,2.66602 4.8103,1.62655 8.9481,4.40201 13.5352,9.89648 a 1.1530401,1.1530401 0 0 0 1.623,0.14649 1.1530401,1.1530401 0 0 0 0.1465,-1.625 c -4.7839,-5.7302 -9.3698,-8.847 -14.5644,-10.60352 -5.1946,-1.75652 -10.9232,-2.18551 -18.168,-2.7793 z"
                    id="path42720"
                    stroke-width="0.544745"
                    stroke-linecap="round"
                    stroke-linejoin="round"
                    stroke="black" />
                <path
                    d="m -3945.834,686.61328 c -9.789,-0.65438 -18.3663,4.49174 -25.4043,12.96094 -8.0434,9.67909 -14.298,23.71937 -18.8281,38.97851 -4.5301,15.25914 -7.3176,31.73841 -8.3027,46.28516 -0.9852,14.54675 -0.2125,27.11459 2.5957,34.80078 a 1.1530401,1.1530401 0 0 0 1.4785,0.6875 1.1530401,1.1530401 0 0 0 0.6875,-1.47851 c -2.571,-7.03707 -3.4342,-19.48464 -2.461,-33.85547 0.9733,-14.37083 3.7384,-30.71112 8.2129,-45.78321 4.4746,-15.07208 10.6766,-28.87505 18.3926,-38.16015 7.716,-9.2851 16.7258,-14.03034 27.3731,-11.54688 1.5066,0.35142 2.1777,0.5783 2.3164,0.67578 0.069,0.0488 0.078,0.0518 0.1621,0.21289 0.084,0.16107 0.2038,0.47307 0.3711,0.92774 0.6692,1.81869 2.1184,5.61771 7.9179,13.51562 5.9851,8.15056 14.7024,11.19021 22.4336,11.82813 3.8656,0.31896 7.4991,0.0483 10.4961,-0.47461 2.997,-0.52288 5.3215,-1.26488 6.7422,-2.05078 1.6237,-0.89816 2.5073,-2.62605 3.0664,-4.53711 0.5592,-1.91106 0.7955,-4.0928 0.8828,-6.19336 0.087,-2.10056 0.02,-4.11491 -0.07,-5.64844 -0.045,-0.76676 -0.095,-1.41395 -0.1348,-1.88672 -0.04,-0.47277 -0.072,-0.90136 -0.068,-0.77734 a 1.1530401,1.1530401 0 0 0 -1.1856,-1.11914 1.1530401,1.1530401 0 0 0 -1.1191,1.18555 c 0.01,0.27808 0.035,0.44382 0.074,0.90429 0.039,0.46048 0.087,1.08679 0.1309,1.82813 0.087,1.48267 0.153,3.42879 0.07,5.41797 -0.083,1.98918 -0.3197,4.02488 -0.793,5.64257 -0.4733,1.6177 -1.1822,2.73093 -1.9687,3.16602 -0.9895,0.54734 -3.2061,1.30533 -6.0235,1.79688 -2.8174,0.49155 -6.2698,0.74763 -9.9101,0.44726 -7.2806,-0.60074 -15.2469,-3.38171 -20.7637,-10.89453 -5.7023,-7.76545 -6.951,-11.14748 -7.6133,-12.94727 -0.1655,-0.44994 -0.2934,-0.82036 -0.4883,-1.19531 -0.1948,-0.37495 -0.4935,-0.76281 -0.8808,-1.03515 -0.7746,-0.5447 -1.6052,-0.68202 -3.1192,-1.03516 -1.4469,-0.33751 -2.8711,-0.5491 -4.2695,-0.64258 z"
                    id="path42722"
                    stroke-width="0.544745"
                    stroke-linecap="round"
                    stroke-linejoin="round"
                    stroke="black" />
                <path
                    d="m -3948.4336,727.42578 a 1.1530401,1.1530401 0 0 0 -0.8984,1.36133 c 0,0 4.6985,23.10379 2.6699,41.19336 -2.06,18.36907 -3.5918,27.29492 -3.5918,27.29492 a 1.1530401,1.1530401 0 0 0 0.9414,1.33008 1.1530401,1.1530401 0 0 0 1.332,-0.94141 c 0,0 1.5446,-9.01309 3.6094,-27.42578 2.0962,-18.69214 -2.7012,-41.91406 -2.7012,-41.91406 a 1.1530401,1.1530401 0 0 0 -1.3613,-0.89844 z"
                    id="path42724"
                    stroke-width="0.544745"
                    stroke-linecap="round"
                    stroke-linejoin="round"
                    stroke="black" />
                <path
                    d="m -3958.0039,795.13867 c -4.5471,-0.24965 -8.9543,0.30788 -13.002,1.67188 -10.7936,3.63731 -18.9303,13.13693 -20.0214,27.86132 a 1.1530401,1.1530401 0 0 0 1.0644,1.23438 1.1530401,1.1530401 0 0 0 1.2363,-1.06445 c 1.0352,-13.96792 8.4669,-22.47916 18.4571,-25.84571 9.9901,-3.36654 22.6402,-1.46214 33.875,6.03516 a 1.1530401,1.1530401 0 0 0 1.5996,-0.31836 1.1530401,1.1530401 0 0 0 -0.3203,-1.59961 c -7.3429,-4.90009 -15.3102,-7.55851 -22.8887,-7.97461 z"
                    id="path42726"
                    stroke-width="0.544745"
                    stroke-linecap="round"
                    stroke-linejoin="round"
                    stroke="black" />
                <path
                    d="m -3918.8965,797.49609 c -3.3775,0.26494 -6.7306,1.15854 -9.7246,2.23047 -2.994,1.07193 -5.6414,2.34026 -7.6152,3.41016 -0.9869,0.53495 -1.8039,1.01929 -2.418,1.41015 -0.6141,0.39087 -0.934,0.57607 -1.2891,0.93555 a 1.1530401,1.1530401 0 0 0 0.01,1.63086 1.1530401,1.1530401 0 0 0 1.6309,-0.01 c -0.108,0.1093 0.3266,-0.25487 0.8867,-0.61133 0.56,-0.35646 1.3367,-0.81719 2.2793,-1.32813 1.8852,-1.02188 4.4369,-2.2431 7.2929,-3.26562 5.7121,-2.04504 12.5935,-3.22093 17.8399,-0.77149 11.2751,5.26422 18.5667,11.63134 21.3574,15.51563 2.7612,3.84312 2.9942,8.32617 2.9942,8.32617 a 1.1530401,1.1530401 0 0 0 1.205,1.09961 1.1530401,1.1530401 0 0 0 1.0996,-1.20508 c 0,0 -0.2071,-5.08664 -3.4257,-9.56641 -3.189,-4.43858 -10.6862,-10.85801 -22.2559,-16.25976 -3.0881,-1.44177 -6.4897,-1.80596 -9.8672,-1.54102 z"
                    id="path42728"
                    stroke-width="0.544745"
                    stroke-linecap="round"
                    stroke-linejoin="round"
                    stroke="black" />
                <path
                    d="m -3942.8184,822.21094 a 1.1530401,1.1530401 0 0 0 -1.4004,0.83593 1.1530401,1.1530401 0 0 0 0.836,1.4004 c 0,0 4.0137,1.01518 8.75,1.89843 4.7363,0.88326 10.0739,1.70313 13.3652,1.09571 a 1.1530401,1.1530401 0 0 0 0.9258,-1.34375 1.1530401,1.1530401 0 0 0 -1.3437,-0.92383 c -2.3955,0.4421 -7.8692,-0.22775 -12.5235,-1.09571 -4.6543,-0.86795 -8.6094,-1.86718 -8.6094,-1.86718 z"
                    id="path42730"
                    stroke-width="0.544745"
                    stroke-linecap="round"
                    stroke-linejoin="round"
                    stroke="black" />
                <path
                    d="m -3922.1699,819.11914 c -0.801,-0.0196 -1.4988,0.0829 -2.0469,0.19141 -0.5481,0.10849 -0.9977,0.21992 -1.0508,0.22656 a 1.1530401,1.1530401 0 0 0 -1.0019,1.28711 1.1530401,1.1530401 0 0 0 1.2871,1.00195 c 0.435,-0.0544 0.7629,-0.16485 1.2129,-0.2539 0.4499,-0.0891 0.9695,-0.16049 1.5429,-0.14649 1.1468,0.028 2.4998,0.35562 4.0313,1.77344 3.3563,3.10733 4.2969,4.99023 4.2969,4.99023 a 1.1530401,1.1530401 0 0 0 1.5527,0.49805 1.1530401,1.1530401 0 0 0 0.498,-1.55273 c 0,0 -1.2304,-2.33957 -4.7812,-5.62696 -1.9222,-1.77954 -3.939,-2.34955 -5.541,-2.38867 z"
                    id="path42732"
                    stroke-width="0.544745"
                    stroke-linecap="round"
                    stroke-linejoin="round"
                    stroke="black" />
                <path
                    d="m -3919.7832,812.2793 a 1.1530401,1.1530401 0 0 0 -1.1367,1.16797 1.1530401,1.1530401 0 0 0 1.1679,1.13867 c -0.014,1.9e-4 0.5305,0.0393 1.2188,0.19336 0.6883,0.15407 1.6009,0.41309 2.6465,0.8164 2.0911,0.80663 4.7153,2.19406 7.2265,4.4961 5.1986,4.76544 7.1094,7.72265 7.1094,7.72265 a 1.1530401,1.1530401 0 0 0 1.5957,0.33789 1.1530401,1.1530401 0 0 0 0.3379,-1.5957 c 0,0 -2.1392,-3.26619 -7.4844,-8.16602 -2.7606,-2.5306 -5.6407,-4.05453 -7.955,-4.94726 -1.1572,-0.44636 -2.1737,-0.73521 -2.9727,-0.91406 -0.799,-0.17886 -1.3007,-0.2563 -1.7539,-0.25 z"
                    id="path42734"
                    stroke-width="0.544745"
                    stroke-linecap="round"
                    stroke-linejoin="round"
                    stroke="black" />
                <path
                    d="m -3912.9727,806.13086 a 1.1530401,1.1530401 0 0 0 -1.4414,0.76172 1.1530401,1.1530401 0 0 0 0.7618,1.4414 c 0,0 9.2908,2.93262 14.7558,8.07422 5.6325,5.29906 7.9414,10.08399 7.9414,10.08399 a 1.1530401,1.1530401 0 0 0 1.5391,0.53515 1.1530401,1.1530401 0 0 0 0.5351,-1.54101 c 0,0 -2.5234,-5.19562 -8.4355,-10.75781 -6.0794,-5.71963 -15.6563,-8.59766 -15.6563,-8.59766 z"
                    id="path42736"
                    stroke-width="0.544745"
                    stroke-linecap="round"
                    stroke-linejoin="round"
                    stroke="black" />
                <path
                    d="m -4055.5449,824.38477 a 1.1530401,1.1530401 0 0 0 -1.1524,1.15429 1.1530401,1.1530401 0 0 0 1.1524,1.15235 h 122.4004 a 1.1530401,1.1530401 0 0 0 1.1523,-1.15235 1.1530401,1.1530401 0 0 0 -1.1523,-1.15429 z"
                    id="path42738"
                    stroke-width="0.544745"
                    stroke-linecap="round"
                    stroke-linejoin="round"
                    stroke="black" />
                <path
                    d="m -3698.8047,824.00586 -185.5254,0.12305 a 1.1530401,1.1530401 0 0 0 -1.1523,1.15429 1.1530401,1.1530401 0 0 0 1.1543,1.15235 l 185.5254,-0.12305 a 1.1530401,1.1530401 0 0 0 1.1523,-1.1543 1.1530401,1.1530401 0 0 0 -1.1543,-1.15234 z"
                    id="path42740"
                    stroke-width="0.544745"
                    stroke-linecap="round"
                    stroke-linejoin="round"
                    stroke="black" />
                <path
                    d="m -4055.0996,838.20898 a 1.1530401,1.1530401 0 0 0 -1.1543,1.15235 1.1530401,1.1530401 0 0 0 1.1543,1.15429 h 357.1738 a 1.1530401,1.1530401 0 0 0 1.1524,-1.15429 1.1530401,1.1530401 0 0 0 -1.1524,-1.15235 z"
                    id="path42742"
                    stroke-width="0.544745"
                    stroke-linecap="round"
                    stroke-linejoin="round"
                    stroke="black" />
                <path
                    d="m -3868.1152,718.85352 a 1.1530401,1.1530401 0 0 0 -0.7657,1.4414 c 0,0 1.0567,3.43568 2.1739,7.14063 1.1171,3.70494 2.3186,7.78589 2.5293,8.69531 a 1.1530401,1.1530401 0 0 0 1.3828,0.86328 1.1530401,1.1530401 0 0 0 0.8633,-1.38477 c -0.2897,-1.25062 -1.4492,-5.12803 -2.5684,-8.83984 -1.1192,-3.71181 -2.1758,-7.15039 -2.1758,-7.15039 a 1.1530401,1.1530401 0 0 0 -1.4394,-0.76562 z"
                    id="path42744"
                    stroke-width="0.544745"
                    stroke-linecap="round"
                    stroke-linejoin="round"
                    stroke="black" />
                <path
                    d="m -3855.248,765.89648 a 1.1530401,1.1530401 0 0 0 -0.9805,1.30274 c 1.7087,12.09484 3.1744,19.6099 4.8027,36.3418 a 1.1530401,1.1530401 0 0 0 1.2598,1.03515 1.1530401,1.1530401 0 0 0 1.0351,-1.25781 c -1.6348,-16.79845 -3.1108,-24.39651 -4.8125,-36.44141 a 1.1530401,1.1530401 0 0 0 -1.3046,-0.98047 z"
                    id="path42746"
                    stroke-width="0.544745"
                    stroke-linecap="round"
                    stroke-linejoin="round"
                    stroke="black" />
                <path
                    d="m -3831.6289,765.89844 a 1.1530401,1.1530401 0 0 0 -0.877,0.0879 1.1530401,1.1530401 0 0 0 -0.4707,1.56054 c -0.013,-0.0244 0.2207,0.52051 0.4668,1.2168 0.2462,0.69629 0.56,1.62921 0.916,2.71485 0.7121,2.17127 1.5933,4.96283 2.461,7.78906 0.8677,2.82622 1.7217,5.6874 2.3789,7.99609 0.5936,2.08519 0.9473,3.53462 1.0664,4.13867 -4.8743,6.6119 -13.7535,9.5093 -24.3555,10.95899 a 1.1530401,1.1530401 0 0 0 -0.9863,1.29687 1.1530401,1.1530401 0 0 0 1.2988,0.98633 c 11.0458,-1.51038 20.8463,-4.55011 26.2461,-12.29492 a 1.1531554,1.1531554 0 0 0 0.1953,-0.81641 c -0.1236,-0.90406 -0.5822,-2.56827 -1.2461,-4.90039 -0.6638,-2.33212 -1.5213,-5.20518 -2.3925,-8.04297 -0.8713,-2.83778 -1.7578,-5.63817 -2.4766,-7.83007 -0.3594,-1.09596 -0.6755,-2.03934 -0.9316,-2.76368 -0.2561,-0.72433 -0.398,-1.14746 -0.6094,-1.54101 a 1.1530401,1.1530401 0 0 0 -0.6836,-0.55664 z"
                    id="path42748"
                    stroke-width="0.544745"
                    stroke-linecap="round"
                    stroke-linejoin="round"
                    stroke="black" />
                <path
                    d="m -3850.3457,802.56836 a 1.1530401,1.1530401 0 0 0 -0.9258,1.3418 c -0.015,-0.081 0.04,0.44885 0.066,1.08398 0.027,0.63513 0.051,1.48665 0.076,2.47266 0.05,1.972 0.096,4.48847 0.1328,6.96679 0.075,4.95666 0.1191,9.75782 0.1191,9.75782 a 1.1530401,1.1530401 0 0 0 1.1641,1.14062 1.1530401,1.1530401 0 0 0 1.1426,-1.16406 c 0,0 -0.046,-4.80269 -0.1211,-9.76758 -0.037,-2.48244 -0.081,-5.00564 -0.1309,-6.99219 -0.025,-0.99327 -0.052,-1.8515 -0.08,-2.50976 -0.028,-0.65827 -0.029,-1.00601 -0.1016,-1.4043 a 1.1530401,1.1530401 0 0 0 -1.3418,-0.92578 z"
                    id="path42750"
                    stroke-width="0.544745"
                    stroke-linecap="round"
                    stroke-linejoin="round"
                    stroke="black" />
                <path
                    d="m -3896.543,804.875 a 1.1530401,1.1530401 0 0 0 -1.2734,1.01953 1.1530401,1.1530401 0 0 0 1.0195,1.27149 c 5.5398,0.61399 9.4712,2.8142 12.5,5.93359 3.0288,3.11939 5.1301,7.20014 6.7559,11.52344 a 1.1530401,1.1530401 0 0 0 1.4863,0.67187 1.1530401,1.1530401 0 0 0 0.6719,-1.48437 c -1.6871,-4.48637 -3.9047,-8.86294 -7.2598,-12.31836 -3.355,-3.45542 -7.8705,-5.94887 -13.9004,-6.61719 z"
                    id="path42752"
                    stroke-width="0.544745"
                    stroke-linecap="round"
                    stroke-linejoin="round"
                    stroke="black" />
                <path
                    d="m -3773.4141,819.81055 a 1.1530401,1.1530401 0 0 0 -1.2617,1.03515 1.1530401,1.1530401 0 0 0 1.0352,1.25977 c 3.297,0.32644 5.3316,-0.29122 7.8203,0.71875 2.4886,1.00997 5.7984,3.77458 11.2031,11.22265 2.5031,3.44951 3.1687,7.96822 2.375,13.15625 -0.7937,5.18804 -3.063,10.98318 -6.2969,16.73047 -6.4678,11.49459 -16.7939,22.79957 -26.4297,29.07422 -9.4614,6.16114 -20.6086,5.33442 -29.9375,1.35156 -9.3288,-3.98285 -16.6696,-11.23825 -18.3339,-17.10351 -10.2669,-36.18169 -40.8262,-53.30469 -40.8262,-53.30469 a 1.1530401,1.1530401 0 0 0 -1.5703,0.44141 1.1530401,1.1530401 0 0 0 0.4414,1.57031 c 0,0 29.7452,16.71425 39.7363,51.92383 1.9959,7.03358 9.8115,14.39396 19.6485,18.59375 9.8369,4.19978 21.8645,5.12388 32.0996,-1.54102 10.0607,-6.55135 20.5184,-18.03319 27.1816,-29.875 3.3316,-5.9209 5.7126,-11.93118 6.5664,-17.51172 0.8538,-5.58053 0.1628,-10.79144 -2.7891,-14.85937 -5.5053,-7.58678 -9.0365,-10.72155 -12.2011,-12.00586 -3.1647,-1.28431 -5.5952,-0.59321 -8.461,-0.87695 z"
                    id="path42754"
                    stroke-width="0.544745"
                    stroke-linecap="round"
                    stroke-linejoin="round"
                    stroke="black" />
                <path
                    d="m -3832.8574,798.23437 a 1.1530401,1.1530401 0 0 0 -1.3321,0.94141 c 0,0 -0.5383,3.12625 -0.9179,7.01563 -0.3797,3.88937 -0.6328,8.50969 0.047,11.81445 0.6315,3.07113 1.1993,4.91839 1.6308,6.03516 0.2158,0.55838 0.3961,0.93543 0.5391,1.1914 0.1429,0.25598 0.3144,0.4668 0.3144,0.4668 a 1.1530401,1.1530401 0 0 0 1.627,0.10351 1.1530401,1.1530401 0 0 0 0.1035,-1.62695 c 0,0 0.048,0.073 -0.031,-0.0684 -0.079,-0.1414 -0.2184,-0.42256 -0.4023,-0.89844 -0.3678,-0.95174 -0.9103,-2.6861 -1.5234,-5.66796 -0.5652,-2.74825 -0.3806,-7.32805 -0.01,-11.12696 0.3708,-3.7989 0.8945,-6.84765 0.8945,-6.84765 a 1.1530401,1.1530401 0 0 0 -0.9394,-1.33204 z"
                    id="path42756"
                    stroke-width="0.544745"
                    stroke-linecap="round"
                    stroke-linejoin="round"
                    stroke="black" />
                <path
                    d="m -3826.7324,814.76562 a 1.1531554,1.1531554 0 0 0 -1.1504,1.0918 l -0.4649,8.77539 a 1.1530401,1.1530401 0 0 0 1.0918,1.21289 1.1530401,1.1530401 0 0 0 1.211,-1.09179 l 0.4062,-7.68164 60.168,0.0117 -0.031,7.39649 a 1.1530401,1.1530401 0 0 0 1.1485,1.1582 1.1530401,1.1530401 0 0 0 1.1582,-1.14844 l 0.037,-8.55468 a 1.1531554,1.1531554 0 0 0 -1.1523,-1.15821 z"
                    id="path42758"
                    stroke-width="0.544745"
                    stroke-linecap="round"
                    stroke-linejoin="round"
                    stroke="black" />
                <path
                    d="m -3807.7051,815.17187 a 1.13402,1.13402 0 0 0 -1.1894,1.07618 l -0.4024,8.02734 a 1.13402,1.13402 0 0 0 1.0762,1.18945 1.13402,1.13402 0 0 0 1.1894,-1.07617 l 0.4004,-8.02734 a 1.13402,1.13402 0 0 0 -1.0742,-1.18946 z"
                    id="path42760"
                    stroke-width="0.544745"
                    stroke-linecap="round"
                    stroke-linejoin="round"
                    stroke="black" />
                <path
                    d="m -3800.0781,694.39453 a 1.1531554,1.1531554 0 0 0 -1.1446,1.01758 l -14.0117,119.23828 a 1.1530401,1.1530401 0 0 0 1.0098,1.2793 1.1530401,1.1530401 0 0 0 1.2812,-1.01172 l 13.8907,-118.2168 h 39.666 l -11.5801,114.88477 a 1.1530401,1.1530401 0 0 0 1.0313,1.26367 1.1530401,1.1530401 0 0 0 1.2636,-1.03125 l 11.709,-116.15625 a 1.1531554,1.1531554 0 0 0 -1.1465,-1.26758 z"
                    id="path42762"
                    stroke-width="0.544745"
                    stroke-linecap="round"
                    stroke-linejoin="round"
                    stroke="black" />
                <path
                    d="m -3793.1836,700.88672 a 1.1531554,1.1531554 0 0 0 -1.1465,1.02539 l -12.5566,113.39648 a 1.1530401,1.1530401 0 0 0 1.0195,1.27344 1.1530401,1.1530401 0 0 0 1.2734,-1.01953 l 12.4434,-112.36914 h 12.0625 a 1.1530401,1.1530401 0 0 0 1.1524,-1.1543 1.1530401,1.1530401 0 0 0 -1.1524,-1.15234 z"
                    id="path42764"
                    stroke-width="0.544745"
                    stroke-linecap="round"
                    stroke-linejoin="round"
                    stroke="black" />
                <path
                    d="m -3827.6925,824.5769 1.8428,-8.45716 18.4761,-0.17084 c 0,0 0.1098,9.66528 -0.659,9.65308 -0.7689,-0.0122 -19.6599,-1.02508 -19.6599,-1.02508 z"
                    id="path42766"
                    stroke-width="1.15304"
                    stroke-linecap="round"
                    stroke-linejoin="round"
                    stroke="black" />
                <path
                    d="m -3864.278,764.62788 8.1488,-105.25704 4.8812,0.70469 -10.0098,105.27721 z"
                    id="path42768"
                    stroke-width="1.15304"
                    stroke-linecap="round"
                    stroke-linejoin="round"
                    stroke="black" />
                <path
                    d="m -3767.3164,658.2832 a 1.1531554,1.1531554 0 0 0 -1.1543,1.08789 l -0.3359,5.91993 h -19.9434 l -0.043,-5.27735 a 1.1531554,1.1531554 0 0 0 -1.1562,-1.14258 l -64.6836,0.1211 a 1.1530401,1.1530401 0 0 0 -1.1504,1.15429 1.1530401,1.1530401 0 0 0 1.1543,1.15039 l 63.5391,-0.11718 0.043,5.27343 a 1.1531554,1.1531554 0 0 0 1.1524,1.14454 h 22.1777 a 1.1531554,1.1531554 0 0 0 1.1504,-1.08789 l 0.3359,-5.91602 61.252,0.18164 -11.7871,103.92188 -48.2403,0.6582 a 1.1530401,1.1530401 0 0 0 -1.1367,1.16992 1.1530401,1.1530401 0 0 0 1.168,1.13672 l 49.2558,-0.67383 a 1.1531554,1.1531554 0 0 0 1.129,-1.02148 l 12.0468,-106.21094 a 1.1531554,1.1531554 0 0 0 -1.1425,-1.28125 z"
                    id="path42770"
                    stroke-width="0.544745"
                    stroke-linecap="round"
                    stroke-linejoin="round"
                    stroke="black" />
                <path
                    d="m -3861.0527,763.57812 c -0.7989,0.008 -1.445,0.0219 -1.9278,0.043 -0.2414,0.0105 -0.4394,0.0224 -0.6113,0.0391 -0.1718,0.0167 -0.1965,-0.051 -0.623,0.14062 a 1.1530401,1.1530401 0 0 0 -0.5801,1.52344 1.1530401,1.1530401 0 0 0 1.5254,0.58008 c -0.3522,0.15821 -0.2011,0.0606 -0.1,0.0508 0.1014,-0.01 0.2724,-0.0217 0.4902,-0.0312 0.4355,-0.019 1.0665,-0.0329 1.8516,-0.041 1.57,-0.0161 3.7633,-0.0105 6.3632,0.0117 5.1999,0.0444 12.0299,0.15509 18.8223,0.28125 13.5849,0.25233 27.0215,0.57227 27.0215,0.57227 a 1.1530401,1.1530401 0 0 0 1.1797,-1.12696 1.1530401,1.1530401 0 0 0 -1.125,-1.17968 c 0,0 -13.4405,-0.31979 -27.0332,-0.57227 -6.7964,-0.12624 -13.6308,-0.23474 -18.8457,-0.2793 -2.6075,-0.0223 -4.8104,-0.0281 -6.4082,-0.0117 z"
                    id="path42772"
                    stroke-width="0.544745"
                    stroke-linecap="round"
                    stroke-linejoin="round"
                    stroke="black" />
                <path
                    d="m -3806.332,743.10742 c -17.6273,1.21115 -34.3784,5.67953 -49.4414,15.8125 a 1.1530401,1.1530401 0 0 0 -0.3125,1.60156 1.1530401,1.1530401 0 0 0 1.5996,0.3125 c 14.6672,-9.86671 30.9718,-14.23432 48.3125,-15.42578 a 1.1530401,1.1530401 0 0 0 1.0703,-1.22851 1.1530401,1.1530401 0 0 0 -1.2285,-1.07227 z"
                    id="path42774"
                    stroke-width="0.544745"
                    stroke-linecap="round"
                    stroke-linejoin="round"
                    stroke="black" />
                <path
                    d="m -3757.002,743.29492 c -1.724,-0.0128 -3.4089,0.10882 -5.0273,0.37891 a 1.1530401,1.1530401 0 0 0 -0.9473,1.32617 1.1530401,1.1530401 0 0 0 1.3282,0.94727 c 5.8844,-0.98204 13.0667,0.20423 19.7031,2.85546 6.6364,2.65124 12.7203,6.76289 16.4785,11.41016 a 1.1530401,1.1530401 0 0 0 1.623,0.17188 1.1530401,1.1530401 0 0 0 0.17,-1.6211 c -4.1003,-5.07022 -10.4719,-9.32739 -17.416,-12.10156 -5.2082,-2.08063 -10.7401,-3.32885 -15.9122,-3.36719 z"
                    id="path42776"
                    stroke-width="0.544745"
                    stroke-linecap="round"
                    stroke-linejoin="round"
                    stroke="black" />
                <path
                    d="m -3734.6504,695.3418 a 1.1530401,1.1530401 0 0 0 -1.2812,1.00781 l -4.961,41.80078 a 1.1530401,1.1530401 0 0 0 1.0078,1.28125 1.1530401,1.1530401 0 0 0 1.2813,-1.00977 l 4.9629,-41.79882 a 1.1530401,1.1530401 0 0 0 -1.0098,-1.28125 z"
                    id="path42778"
                    stroke-width="0.544745"
                    stroke-linecap="round"
                    stroke-linejoin="round"
                    stroke="black" />
                <path
                    d="m -3725.1289,694.66406 a 1.1530401,1.1530401 0 0 0 -1.2461,1.05274 l -3.666,43.87109 a 1.1530401,1.1530401 0 0 0 1.0527,1.24609 1.1530401,1.1530401 0 0 0 1.2442,-1.05273 l 3.6679,-43.87109 a 1.1530401,1.1530401 0 0 0 -1.0527,-1.2461 z"
                    id="path42780"
                    stroke-width="0.544745"
                    stroke-linecap="round"
                    stroke-linejoin="round"
                    stroke="black" />
                <path
                    d="m -3714.6992,695.13477 a 1.1530401,1.1530401 0 0 0 -1.2891,1 l -5.4023,42.58398 a 1.1530401,1.1530401 0 0 0 1,1.28906 1.1530401,1.1530401 0 0 0 1.289,-0.99804 l 5.4004,-42.58594 a 1.1530401,1.1530401 0 0 0 -0.998,-1.28906 z"
                    id="path42782"
                    stroke-width="0.544745"
                    stroke-linecap="round"
                    stroke-linejoin="round"
                    stroke="black" />
                <path
                    d="m -3822.1367,695.36914 a 1.1530401,1.1530401 0 0 0 -1.2149,1.08789 c 0,0 -0.5307,9.70828 -1.0839,19.51953 -0.2767,4.90563 -0.5589,9.83807 -0.7833,13.59375 -0.1121,1.87784 -0.21,3.46035 -0.2851,4.59766 -0.037,0.56865 -0.069,1.02709 -0.094,1.34961 -0.012,0.16126 -0.023,0.28887 -0.031,0.375 -0.01,0.0861 -0.033,0.19493 0,0.0527 a 1.1530401,1.1530401 0 0 0 0.8829,1.3711 1.1530401,1.1530401 0 0 0 1.371,-0.88282 c 0.042,-0.1945 0.033,-0.21235 0.043,-0.32226 0.01,-0.10991 0.022,-0.24688 0.035,-0.41602 0.026,-0.33827 0.058,-0.80174 0.096,-1.375 0.076,-1.14652 0.1748,-2.73294 0.2871,-4.61328 0.2246,-3.76068 0.5065,-8.69463 0.7832,-13.60156 0.5534,-9.81387 1.084,-19.52149 1.084,-19.52149 a 1.1530401,1.1530401 0 0 0 -1.0879,-1.21484 z"
                    id="path42784"
                    stroke-width="0.544745"
                    stroke-linecap="round"
                    stroke-linejoin="round"
                    stroke="black" />
                <path
                    d="m -3831.123,695.54297 a 1.1530401,1.1530401 0 0 0 -1.2364,1.06445 l -2.9687,39.91992 a 1.1530401,1.1530401 0 0 0 1.0644,1.23438 1.1530401,1.1530401 0 0 0 1.2364,-1.06445 l 2.9687,-39.91797 a 1.1530401,1.1530401 0 0 0 -1.0644,-1.23633 z"
                    id="path42786"
                    stroke-width="0.544745"
                    stroke-linecap="round"
                    stroke-linejoin="round"
                    stroke="black" />
                <path
                    d="m -3841.4824,693.73828 a 1.1530401,1.1530401 0 0 0 -1.2149,1.08789 c 0,0 -0.5791,10.37743 -1.1582,20.82227 -0.2895,5.22242 -0.5787,10.46161 -0.7968,14.42968 -0.1091,1.98404 -0.1995,3.65023 -0.2637,4.8379 -0.032,0.59383 -0.059,1.06723 -0.076,1.40234 -0.017,0.33511 -0.026,0.43087 -0.029,0.60156 a 1.1530401,1.1530401 0 0 0 1.1328,1.17383 1.1530401,1.1530401 0 0 0 1.1739,-1.13281 c 0,0.10274 0.01,-0.18886 0.025,-0.52149 0.017,-0.33262 0.044,-0.80724 0.076,-1.40039 0.064,-1.18629 0.1547,-2.85226 0.2637,-4.83594 0.2181,-3.96735 0.5073,-9.20549 0.7969,-14.42773 0.579,-10.44447 1.1582,-20.82226 1.1582,-20.82227 a 1.1530401,1.1530401 0 0 0 -1.0879,-1.21484 z"
                    id="path42788"
                    stroke-width="0.544745"
                    stroke-linecap="round"
                    stroke-linejoin="round"
                    stroke="black" />
                <path
                    d="m -3849.1406,665.20312 a 1.1530401,1.1530401 0 0 0 -0.6953,0.54493 1.1530401,1.1530401 0 0 0 0.4394,1.57031 c 20.6446,11.64181 42.0189,20.49279 65.1016,22.15039 23.0826,1.6576 47.8337,-3.9129 75.082,-20.92578 a 1.1530401,1.1530401 0 0 0 0.3672,-1.58789 1.1530401,1.1530401 0 0 0 -1.5879,-0.36719 c -26.909,16.80104 -51.0964,22.20294 -73.6953,20.58008 -22.5989,-1.62286 -43.648,-10.30465 -64.1348,-21.85742 a 1.1530401,1.1530401 0 0 0 -0.8769,-0.10743 z"
                    id="path42790"
                    stroke-width="0.544745"
                    stroke-linecap="round"
                    stroke-linejoin="round"
                    stroke="black" />
                <path
                    d="m -3794.5586,652.85156 a 1.1531554,1.1531554 0 0 0 -1.1562,1.15235 v 5.75781 a 1.1530401,1.1530401 0 0 0 1.1523,1.15234 1.1530401,1.1530401 0 0 0 1.1543,-1.15234 v -4.60156 l 25.7461,0.082 -0.166,3.83398 a 1.1530401,1.1530401 0 0 0 1.1015,1.20117 1.1530401,1.1530401 0 0 0 1.2012,-1.10156 l 0.2207,-5.0332 a 1.1531554,1.1531554 0 0 0 -1.1484,-1.20313 z"
                    id="path42792"
                    stroke-width="0.544745"
                    stroke-linecap="round"
                    stroke-linejoin="round"
                    stroke="black" />
                <path
                    d="m -3784.2578,637.66016 a 1.1531554,1.1531554 0 0 0 -1.1524,1.15234 v 14.66406 a 1.1530401,1.1530401 0 0 0 1.1524,1.15235 1.1530401,1.1530401 0 0 0 1.1523,-1.15235 V 639.9668 h 5.9356 v 13.60937 a 1.1530401,1.1530401 0 0 0 1.1523,1.1543 1.1530401,1.1530401 0 0 0 1.1524,-1.1543 V 638.8125 a 1.1531554,1.1531554 0 0 0 -1.1524,-1.15234 z"
                    id="path42794"
                    stroke-width="0.544745"
                    stroke-linecap="round"
                    stroke-linejoin="round"
                    stroke="black" />
                <path
                    d="m -3799.0977,631.95117 a 1.1531554,1.1531554 0 0 0 -1.1523,1.1543 v 12.35937 a 1.1531554,1.1531554 0 0 0 1.1523,1.15235 h 13.6075 a 1.1530401,1.1530401 0 0 0 1.1523,-1.15235 1.1530401,1.1530401 0 0 0 -1.1523,-1.15429 h -12.4551 v -10.05274 h 34.6387 v 9.78906 h -12.3399 a 1.1530401,1.1530401 0 0 0 -1.1523,1.15235 1.1530401,1.1530401 0 0 0 1.1523,1.15234 h 13.4922 a 1.1531554,1.1531554 0 0 0 1.1523,-1.15234 v -12.09375 a 1.1531554,1.1531554 0 0 0 -1.1523,-1.1543 z"
                    id="path42796"
                    stroke-width="0.544745"
                    stroke-linecap="round"
                    stroke-linejoin="round"
                    stroke="black" />
                <path
                    d="m -4050.5664,776.65661 c -0.06,0.62992 -1.0874,23.6063 0.7767,35.19019 0.7198,4.47276 3.978,12.9957 3.978,12.9957 h 33.4295 c 0.2354,0.0143 3.4579,-7.09038 4.4354,-13.40128 1.1276,-7.28038 2.0538,-34.1892 2.0538,-34.1892 z"
                    id="path42798"
                    stroke-width="1.15304"
                    stroke-linecap="round"
                    stroke-linejoin="round"
                    stroke="black" />
                <path
                    d="m -4050.7303,788.4701 c -12.9029,-2.71242 -11.6971,15.27041 1.3289,17.5692 l 0.4832,6.69631 c 0,0 -9.1451,-2.00087 -11.6666,-5.4796 -9.2457,-12.75572 -8.7895,-28.34512 12.0291,-24.71425"
                    id="path42800"
                    stroke-width="1.15304"
                    stroke-linecap="round"
                    stroke-linejoin="round"
                    stroke="black" />
                <path
                    d="m -4046.25,721.37305 a 1.1530401,1.1530401 0 0 0 -0.7598,1.44336 c 0,0 0.7413,2.39464 1.4668,5.40625 0.7256,3.01161 1.4147,6.67413 1.3555,8.91796 -0.086,3.26571 -1.4136,6.54016 -2.7461,9.94727 -1.3324,3.40711 -2.672,6.96158 -2.4375,10.82031 0.1171,1.92772 0.8994,4.10079 1.7129,5.97071 0.4067,0.93496 0.8242,1.78297 1.1875,2.45703 0.3633,0.67406 0.6045,1.11099 0.9258,1.49023 a 1.1530401,1.1530401 0 0 0 1.625,0.13281 1.1530401,1.1530401 0 0 0 0.1347,-1.625 c 0.011,0.0125 -0.324,-0.47901 -0.6543,-1.09179 -0.3302,-0.61278 -0.7261,-1.4112 -1.1054,-2.28321 -0.7587,-1.74401 -1.4424,-3.82447 -1.5254,-5.1914 -0.1963,-3.23083 0.9637,-6.46082 2.2851,-9.83985 1.3215,-3.37902 2.8012,-6.89211 2.9024,-10.72656 0.072,-2.74575 -0.6738,-6.43071 -1.418,-9.51953 -0.7441,-3.08882 -1.5058,-5.54687 -1.5058,-5.54687 a 1.1530401,1.1530401 0 0 0 -1.4434,-0.76172 z"
                    id="path42802"
                    stroke-width="0.544745"
                    stroke-linecap="round"
                    stroke-linejoin="round"
                    stroke="black" />
                <path
                    d="m -4031.0156,709.7207 a 1.1530401,1.1530401 0 0 0 -1.4981,0.64453 c 0,0 -0.2812,0.70685 -0.5664,1.59766 -0.2851,0.89081 -0.5963,1.92615 -0.6191,2.9082 a 1.1531554,1.1531554 0 0 0 0,0.002 c -0.1441,6.22585 3.446,11.59552 3.6933,16.88086 0.2981,6.36952 -2.3096,12.90983 -2.4687,19.90429 -0.057,2.4907 0.042,5.70059 0.248,8.54492 0.1032,1.42217 0.2341,2.7497 0.3887,3.85938 0.1547,1.10968 0.3012,1.95782 0.5781,2.64062 a 1.1530401,1.1530401 0 0 0 1.502,0.63477 1.1530401,1.1530401 0 0 0 0.6348,-1.50195 c -0.094,-0.23191 -0.2875,-1.05721 -0.4317,-2.0918 -0.1442,-1.03459 -0.2706,-2.32328 -0.3711,-3.70898 -0.201,-2.77142 -0.2984,-5.94044 -0.2441,-8.32422 0.1462,-6.42686 2.7982,-13.02385 2.4687,-20.06446 -0.2887,-6.17034 -3.8146,-11.4814 -3.6933,-16.7207 0.01,-0.43538 0.2509,-1.45311 0.5097,-2.26172 0.2589,-0.8086 0.5137,-1.44531 0.5137,-1.44531 a 1.1530401,1.1530401 0 0 0 -0.6445,-1.49805 z"
                    id="path42804"
                    stroke-width="0.544745"
                    stroke-linecap="round"
                    stroke-linejoin="round"
                    stroke="black" />
                <path
                    d="m -4015.5645,726.62695 a 1.1530401,1.1530401 0 0 0 -0.8105,1.41407 c 0,0 0.5294,1.94712 1.041,4.39257 0.5116,2.44546 0.9879,5.42054 0.9219,7.20508 -0.1054,2.85022 -1.3446,5.76145 -2.5449,8.80469 -1.2004,3.04323 -2.369,6.25024 -1.9356,9.71875 0.2779,2.22412 1.3551,4.54329 2.5332,6.55078 1.1781,2.00749 2.4242,3.64456 3.3281,4.51172 a 1.1530401,1.1530401 0 0 0 1.629,-0.0352 1.1530401,1.1530401 0 0 0 -0.033,-1.6289 c -0.5803,-0.55667 -1.8491,-2.16425 -2.9356,-4.01563 -1.0865,-1.85138 -2.0248,-4.00666 -2.2324,-5.66797 -0.3468,-2.77568 0.6108,-5.59372 1.791,-8.58593 1.1802,-2.99222 2.576,-6.12817 2.7031,-9.56641 0.083,-2.24922 -0.442,-5.24611 -0.9687,-7.76367 -0.5267,-2.51757 -1.0723,-4.52539 -1.0723,-4.52539 a 1.1530401,1.1530401 0 0 0 -1.4141,-0.8086 z"
                    id="path42806"
                    stroke-width="0.544745"
                    stroke-linecap="round"
                    stroke-linejoin="round"
                    stroke="black" />
            </g>
            <path
                d="m 295.67383,3340.0625 v 1.0586 75.6816 h 90.06836 v -76.7402 z m 2.11719,2.1172 H 383.625 v 72.5058 h -85.83398 z"
                id="rect42810"
                stroke-width="0.5"
                stroke="black" />
            <path
                d="m 308.75586,3365.252 a 1.0583349,1.0583349 0 0 0 -1.05859,1.0585 1.0583349,1.0583349 0 0 0 1.05859,1.0586 h 65.32422 a 1.0583349,1.0583349 0 0 0 1.05859,-1.0586 1.0583349,1.0583349 0 0 0 -1.05859,-1.0585 z"
                id="path42812"
                stroke-width="0.5"
                stroke-linecap="round"
                stroke-linejoin="round"
                stroke="black" />
            <path
                d="m 308.75586,3376.7598 a 1.0583349,1.0583349 0 0 0 -1.05859,1.0566 1.0583349,1.0583349 0 0 0 1.05859,1.0586 h 65.32422 a 1.0583349,1.0583349 0 0 0 1.05859,-1.0586 1.0583349,1.0583349 0 0 0 -1.05859,-1.0566 z"
                id="path42814"
                stroke-width="0.5"
                stroke-linecap="round"
                stroke-linejoin="round"
                stroke="black" />
            <path
                d="m 308.75586,3388.209 a 1.0583349,1.0583349 0 0 0 -1.05859,1.0566 1.0583349,1.0583349 0 0 0 1.05859,1.0586 h 65.32422 a 1.0583349,1.0583349 0 0 0 1.05859,-1.0586 1.0583349,1.0583349 0 0 0 -1.05859,-1.0566 z"
                id="path42816"
                stroke-width="0.5"
                stroke-linecap="round"
                stroke-linejoin="round"
                stroke="black" />
            <path
                d="m 308.60937,3399.5801 a 1.0583349,1.0583349 0 0 0 -1.05859,1.0586 1.0583349,1.0583349 0 0 0 1.05859,1.0586 h 56.27735 a 1.0583349,1.0583349 0 0 0 1.05859,-1.0586 1.0583349,1.0583349 0 0 0 -1.05859,-1.0586 z"
                id="path42818"
                stroke-width="0.5"
                stroke-linecap="round"
                stroke-linejoin="round"
                stroke="black" />
            <path
                d="m 395.30078,3430.9863 a 1.0583349,1.0583349 0 0 0 -0.67187,0.4512 c -0.90052,1.3553 -0.97595,2.8905 -0.73633,4.2461 0.23938,1.3543 0.76421,2.6032 1.16211,3.6602 0.68235,1.8242 2.10072,3.3412 3.83008,4.248 0.18358,0.6871 0.47412,1.3509 0.8789,1.9629 0.76399,1.3362 1.93038,2.5773 3.375,3.373 1.45737,0.8027 3.27002,1.1279 5.00195,0.3965 a 1.0583349,1.0583349 0 0 0 0.56446,-1.3867 1.0583349,1.0583349 0 0 0 -1.38672,-0.5625 c -1.05746,0.4465 -2.11172,0.2756 -3.1582,-0.3008 -1.04649,-0.5764 -2.00835,-1.5849 -2.58008,-2.5957 a 1.0584408,1.0584408 0 0 0 -0.041,-0.068 c -0.0153,-0.023 -0.007,-0.055 -0.0215,-0.078 0.61304,0.048 1.22532,0.1147 1.86133,-0.025 1.86853,-0.3206 3.22354,-1.7652 3.79101,-3.4101 0.57007,-1.6524 0.3396,-3.6919 -1.16992,-4.9981 a 1.0584408,1.0584408 0 0 0 -0.0312,-0.025 c -1.10069,-0.8837 -2.52494,-0.8287 -3.56641,-0.3457 -1.03476,0.48 -1.84139,1.2887 -2.39062,2.1329 -0.71835,0.9693 -1.09872,2.1091 -1.2461,3.2753 -0.74535,-0.6477 -1.38854,-1.4231 -1.72851,-2.332 a 1.0584408,1.0584408 0 0 0 -0.002,0 c -0.41516,-1.1031 -0.87496,-2.2482 -1.0586,-3.2871 -0.18363,-1.039 -0.12086,-1.8971 0.41602,-2.7051 a 1.0583349,1.0583349 0 0 0 -0.29688,-1.4688 1.0583349,1.0583349 0 0 0 -0.79492,-0.1543 z m 8.70703,6.2657 c 0.20507,0.01 0.39877,0.093 0.61719,0.2636 0.76353,0.6734 0.89338,1.6757 0.54297,2.6914 -0.35293,1.023 -1.19589,1.8644 -2.15625,2.0235 a 1.0584408,1.0584408 0 0 0 -0.0625,0.012 c -0.67967,0.1541 -1.36168,0.087 -2.02539,-0.09 -0.0859,-1.1625 0.0996,-2.3331 0.80469,-3.2675 a 1.0584408,1.0584408 0 0 0 0.0449,-0.062 c 0.34173,-0.5288 0.96122,-1.1161 1.51953,-1.375 0.27915,-0.1295 0.50335,-0.2011 0.71484,-0.1953 z"
                id="path42820"
                stroke-width="0.5"
                stroke-linecap="round"
                stroke-linejoin="round"
                stroke="black" />
            <path
                d="m 667.29492,3379.4785 a 1.0583349,1.0583349 0 0 0 -0.79492,0.1563 1.0583349,1.0583349 0 0 0 -0.29492,1.4668 c 0.53688,0.808 0.59965,1.6681 0.41601,2.707 -0.18363,1.0389 -0.64343,2.1821 -1.05859,3.2852 a 1.0584408,1.0584408 0 0 0 -0.002,0 c -0.3399,0.9087 -0.98338,1.6843 -1.72852,2.332 -0.14773,-1.1691 -0.53048,-2.3103 -1.25195,-3.2812 -0.54916,-0.8418 -1.35268,-1.6483 -2.38477,-2.127 -1.04146,-0.483 -2.46767,-0.538 -3.56836,0.3457 a 1.0584408,1.0584408 0 0 0 -0.0293,0.025 c -1.50953,1.3062 -1.74,3.3476 -1.16993,5 0.56748,1.6449 1.92248,3.0876 3.79102,3.4082 0.63601,0.1401 1.24829,0.073 1.86133,0.025 -0.0152,0.024 -0.006,0.057 -0.0215,0.08 a 1.0584408,1.0584408 0 0 0 -0.041,0.066 c -0.57174,1.0108 -1.5336,2.0193 -2.58008,2.5957 -1.04648,0.5764 -2.10074,0.7473 -3.1582,0.3008 a 1.0583349,1.0583349 0 0 0 -1.38672,0.5625 1.0583349,1.0583349 0 0 0 0.56445,1.3867 c 1.73194,0.7314 3.54459,0.4082 5.00195,-0.3945 1.44248,-0.7945 2.60704,-2.0352 3.3711,-3.3692 0.40693,-0.6139 0.69873,-1.279 0.88281,-1.9687 1.72863,-0.9066 3.14759,-2.4207 3.83008,-4.2442 v 0 c 0.39797,-1.0573 0.92261,-2.3072 1.16211,-3.6621 0.23961,-1.3556 0.16419,-2.8908 -0.73633,-4.2461 a 1.0583349,1.0583349 0 0 0 -0.67383,-0.4512 z m -8.70508,6.2656 c 0.2115,-0.01 0.43569,0.068 0.71485,0.1973 0.5583,0.259 1.1778,0.8443 1.51953,1.3731 a 1.0584408,1.0584408 0 0 0 0.043,0.062 c 0.70535,0.9348 0.89291,2.1064 0.80664,3.2695 -0.66369,0.1773 -1.34575,0.242 -2.02539,0.088 a 1.0584408,1.0584408 0 0 0 -0.0625,-0.012 c -0.96036,-0.1591 -1.80528,-1.0005 -2.15821,-2.0235 -0.35095,-1.0173 -0.21984,-2.0199 0.54688,-2.6933 0.21739,-0.1696 0.41095,-0.2562 0.61523,-0.2618 z"
                id="path42822"
                stroke-width="0.5"
                stroke-linecap="round"
                stroke-linejoin="round"
                stroke="black" />
            <path
                d="m 298.08203,3350.3945 a 1.0583349,1.0583349 0 0 0 -1.05859,1.0586 1.0583349,1.0583349 0 0 0 1.05859,1.0586 h 85.39063 a 1.0583349,1.0583349 0 0 0 1.05859,-1.0586 1.0583349,1.0583349 0 0 0 -1.05859,-1.0586 z"
                id="path42824"
                stroke-width="0.5"
                stroke-linecap="round"
                stroke-linejoin="round"
                stroke="black" />
            <path id="circle42826"
                d="m 303.96067,3346.0791 a 1.5916785,1.5916785 0 0 1 -1.59168,1.5917 1.5916785,1.5916785 0 0 1 -1.59168,-1.5917 1.5916785,1.5916785 0 0 1 1.59168,-1.5917 1.5916785,1.5916785 0 0 1 1.59168,1.5917 z"
                stroke-width="0.132291"
                stroke="black" />
            <path id="circle42828"
                d="m 309.65476,3346.0791 a 1.5916785,1.5916785 0 0 1 -1.59168,1.5917 1.5916785,1.5916785 0 0 1 -1.59168,-1.5917 1.5916785,1.5916785 0 0 1 1.59168,-1.5917 1.5916785,1.5916785 0 0 1 1.59168,1.5917 z"
                stroke-width="0.132291"
                stroke="black" />
            <path id="circle42830"
                d="m 315.34885,3346.0791 a 1.5916785,1.5916785 0 0 1 -1.59168,1.5917 1.5916785,1.5916785 0 0 1 -1.59168,-1.5917 1.5916785,1.5916785 0 0 1 1.59168,-1.5917 1.5916785,1.5916785 0 0 1 1.59168,1.5917 z"
                stroke-width="0.132291"
                stroke="black" />
            <path
                d="m 597.00586,3280.1465 v 1.0586 75.6797 h 90.06641 v -76.7383 z m 2.11523,2.1172 h 85.83399 v 72.5058 h -85.83399 z"
                id="rect42832"
                stroke-width="0.5"
                stroke="black" />
            <path
                d="m 641.19336,3305.334 a 1.0583349,1.0583349 0 0 0 -1.05859,1.0586 1.0583349,1.0583349 0 0 0 1.05859,1.0586 h 34.2168 a 1.0583349,1.0583349 0 0 0 1.05859,-1.0586 1.0583349,1.0583349 0 0 0 -1.05859,-1.0586 z"
                id="path42834"
                stroke-width="0.5"
                stroke-linecap="round"
                stroke-linejoin="round"
                stroke="black" />
            <path
                d="m 641.19336,3316.8418 a 1.0583349,1.0583349 0 0 0 -1.05859,1.0586 1.0583349,1.0583349 0 0 0 1.05859,1.0586 h 34.2168 a 1.0583349,1.0583349 0 0 0 1.05859,-1.0586 1.0583349,1.0583349 0 0 0 -1.05859,-1.0586 z"
                id="path42836"
                stroke-width="0.5"
                stroke-linecap="round"
                stroke-linejoin="round"
                stroke="black" />
            <path
                d="m 641.19336,3328.291 a 1.0583349,1.0583349 0 0 0 -1.05859,1.0586 1.0583349,1.0583349 0 0 0 1.05859,1.0586 h 34.2168 a 1.0583349,1.0583349 0 0 0 1.05859,-1.0586 1.0583349,1.0583349 0 0 0 -1.05859,-1.0586 z"
                id="path42838"
                stroke-width="0.5"
                stroke-linecap="round"
                stroke-linejoin="round"
                stroke="black" />
            <path
                d="m 641.11719,3339.6641 a 1.0583349,1.0583349 0 0 0 -1.0586,1.0586 1.0583349,1.0583349 0 0 0 1.0586,1.0586 h 29.47851 a 1.0583349,1.0583349 0 0 0 1.05664,-1.0586 1.0583349,1.0583349 0 0 0 -1.05664,-1.0586 z"
                id="path42840"
                stroke-width="0.5"
                stroke-linecap="round"
                stroke-linejoin="round"
                stroke="black" />
            <path
                d="m 599.41211,3290.4785 a 1.0583349,1.0583349 0 0 0 -1.05859,1.0567 1.0583349,1.0583349 0 0 0 1.05859,1.0586 h 85.39062 a 1.0583349,1.0583349 0 0 0 1.0586,-1.0586 1.0583349,1.0583349 0 0 0 -1.0586,-1.0567 z"
                id="path42842"
                stroke-width="0.5"
                stroke-linecap="round"
                stroke-linejoin="round"
                stroke="black" />
            <path id="circle42844"
                d="m 605.29151,3286.1624 a 1.5916785,1.5916785 0 0 1 -1.59168,1.5916 1.5916785,1.5916785 0 0 1 -1.59168,-1.5916 1.5916785,1.5916785 0 0 1 1.59168,-1.5917 1.5916785,1.5916785 0 0 1 1.59168,1.5917 z"
                stroke-width="0.132291"
                stroke="black" />
            <path id="circle42846"
                d="m 610.9856,3286.1624 a 1.5916785,1.5916785 0 0 1 -1.59168,1.5916 1.5916785,1.5916785 0 0 1 -1.59168,-1.5916 1.5916785,1.5916785 0 0 1 1.59168,-1.5917 1.5916785,1.5916785 0 0 1 1.59168,1.5917 z"
                stroke-width="0.132291"
                stroke="black" />
            <path id="circle42848"
                d="m 616.67969,3286.1624 a 1.5916785,1.5916785 0 0 1 -1.59168,1.5916 1.5916785,1.5916785 0 0 1 -1.59168,-1.5916 1.5916785,1.5916785 0 0 1 1.59168,-1.5917 1.5916785,1.5916785 0 0 1 1.59168,1.5917 z"
                stroke-width="0.132291"
                stroke="black" />
            <path
                d="m 618.86523,3307.8047 c -7.75133,0 -14.05857,6.3072 -14.05859,14.0586 2e-5,7.7513 6.30726,14.0586 14.05859,14.0586 7.75134,0 14.05663,-6.3073 14.05664,-14.0586 -10e-6,-7.7514 -6.3053,-14.0586 -14.05664,-14.0586 z m 0,2.1172 c 6.60741,0 11.94139,5.334 11.94141,11.9414 -2e-5,6.6074 -5.334,11.9414 -11.94141,11.9414 -6.6074,0 -11.94139,-5.334 -11.9414,-11.9414 1e-5,-6.6074 5.334,-11.9414 11.9414,-11.9414 z"
                id="circle42850"
                stroke-width="0.5"
                stroke="black" />
            <path
                d="m 681.75781,3259.7871 a 1.0583349,1.0583349 0 0 0 -1.0625,1.0527 l -0.0351,9.0684 a 1.0583349,1.0583349 0 0 0 1.05273,1.0625 1.0583349,1.0583349 0 0 0 1.0625,-1.0547 l 0.0371,-9.0664 a 1.0583349,1.0583349 0 0 0 -1.05469,-1.0625 z"
                id="path42852"
                stroke-width="0.5"
                stroke-linecap="round"
                stroke-linejoin="round"
                stroke="black" />
            <path
                d="m 697.56836,3265.9375 a 1.0583349,1.0583349 0 0 0 -0.75391,0.293 l -6.44336,6.1621 a 1.0583349,1.0583349 0 0 0 -0.0332,1.4961 1.0583349,1.0583349 0 0 0 1.49609,0.035 l 6.44336,-6.164 a 1.0583349,1.0583349 0 0 0 0.0332,-1.4961 1.0583349,1.0583349 0 0 0 -0.74219,-0.3262 z"
                id="path42854"
                stroke-width="0.5"
                stroke-linecap="round"
                stroke-linejoin="round"
                stroke="black" />
            <path
                d="m 693.97461,3281.7578 a 1.0583349,1.0583349 0 0 0 -1.27734,0.7793 1.0583349,1.0583349 0 0 0 0.77929,1.2774 l 7.70117,1.8671 a 1.0583349,1.0583349 0 0 0 1.27735,-0.7773 1.0583349,1.0583349 0 0 0 -0.7793,-1.2793 z"
                id="path42856"
                stroke-width="0.5"
                stroke-linecap="round"
                stroke-linejoin="round"
                stroke="black" />
            <path
                d="m 297.08203,3318.957 a 1.0583349,1.0583349 0 0 0 -0.71289,1.3164 l 3.23242,10.9219 a 1.0583349,1.0583349 0 0 0 1.31641,0.7129 1.0583349,1.0583349 0 0 0 0.71484,-1.3144 l -3.23437,-10.9219 a 1.0583349,1.0583349 0 0 0 -1.31641,-0.7149 z"
                id="path42858"
                stroke-width="0.5"
                stroke-linecap="round"
                stroke-linejoin="round"
                stroke="black" />
            <path
                d="m 284.71289,3327.1758 a 1.0583349,1.0583349 0 0 0 -0.74023,0.3301 1.0583349,1.0583349 0 0 0 0.0391,1.4961 l 6.78515,6.4433 a 1.0583349,1.0583349 0 0 0 1.4961,-0.039 1.0583349,1.0583349 0 0 0 -0.0391,-1.4961 l -6.78516,-6.4434 a 1.0583349,1.0583349 0 0 0 -0.75586,-0.291 z"
                id="path42860"
                stroke-width="0.5"
                stroke-linecap="round"
                stroke-linejoin="round"
                stroke="black" />
            <path
                d="m 289.28906,3344.082 -8.07812,1.9414 a 1.0583349,1.0583349 0 0 0 -0.78321,1.2754 1.0583349,1.0583349 0 0 0 1.27735,0.7832 l 8.07812,-1.9414 a 1.0583349,1.0583349 0 0 0 0.78125,-1.2754 1.0583349,1.0583349 0 0 0 -1.27539,-0.7832 z"
                id="path42862"
                stroke-width="0.5"
                stroke-linecap="round"
                stroke-linejoin="round"
                stroke="black" />
        </g>
    </g>
</svg>