<?xml version="1.0" encoding="UTF-8" standalone="no"?>
<!-- Created with Inkscape (http://www.inkscape.org/) -->

<svg width="100%" height="100%"
    viewBox="0 0 527.96333 644.87189"
    version="1.1" id="svg5"
    xml:space="preserve"
    xmlns="http://www.w3.org/2000/svg"
    xmlns:svg="http://www.w3.org/2000/svg">
    <defs id="defs2" />
    <g id="layer1"
        transform="translate(-1635.5661,-3860.0841)">
        <g id="notion-taking-photo-with-camera"
            transform="matrix(2,0,0,2,-394.08685,-88.124184)"
            style="stroke-width:0.5">
            <title id="title94608">
                notion-taking-photo-with-camera
            </title>
            <g id="g42023"
                transform="translate(5846.8413,1814.2651)"
                style="stroke-width:0.5">
                <g id="path41955"
                    style="stroke-width:0.5">
                    <path
                        d="m -4766.9616,220.05118 c 0,0 -9.6355,11.60916 -3.0764,20.89649 6.5591,9.28735 12.7409,7.40088 12.7409,7.40088 0,0 -7.662,7.42987 3.1634,13.00229 10.8255,5.57238 25.8302,-0.40635 30.0965,-9.05518 4.2663,-8.64884 4.9339,-12.74107 4.9339,-12.74107 0,0 -14.6951,3.75037 -13.2634,-8.06839 1.6596,-13.6999 14.0632,-12.43366 14.4243,-6.18188 0.3551,6.14699 3.2795,2.49597 3.2795,2.49597 0,0 0.1451,1.71236 7.9232,-2.11867 7.7781,-3.83104 19.213,-14.19223 19.7063,-16.54308 0.4934,-2.35087 3.3957,-1.59625 3.3957,-1.59625 0,0 14.018,2.37987 6.0657,-8.88104 -7.9522,-11.2609 -10.1579,-11.87039 -10.1579,-11.87039 0,0 14.3662,-9.60658 -2.1767,-18.86492 -15.8345,-8.86186 -18.8937,-0.1451 -18.8937,-0.1451 0,0 -18.197,-13.03131 -29.1097,-3.25058 -10.0297,8.98938 -5.4563,11.43504 -5.4563,11.43504 0,0 -16.775,-3.19255 -18.3713,6.12383 -1.5962,9.31638 0.5515,12.97329 0.5515,12.97329 0,0 -12.6539,-1.18996 -11.0286,11.406 1.6252,12.59597 5.2531,13.58276 5.2531,13.58276 z"
                        id="path75103"
                        stroke-width="1.05833"
                        stroke-linecap="round"
                        stroke-linejoin="round"
                        stroke="black" />
                    <path
                        d="m -4728.8555,159.86328 c -3.4329,0.17034 -6.8377,1.2582 -9.7617,3.87891 -5.1099,4.57988 -6.6971,7.59566 -6.8379,9.80859 -0.026,0.40702 0.05,0.74367 0.1192,1.08203 -1.6762,-0.20243 -3.9525,-0.38387 -6.7051,-0.15429 -2.2879,0.19081 -4.6696,0.67457 -6.6719,1.80078 -2.0023,1.12621 -3.6155,2.98773 -4.0683,5.63086 -0.8154,4.75877 -0.6823,8.12252 -0.3243,10.32812 0.1888,1.16322 0.3186,1.20833 0.5313,1.77149 -1.2622,0.0116 -3.0458,0.151 -5.1543,1.06054 -1.6335,0.70465 -3.2746,1.88339 -4.3652,3.77344 -1.0907,1.89005 -1.5983,4.44001 -1.17,7.75977 0.825,6.39362 2.1595,9.92601 3.3809,11.92968 0.5336,0.87541 1.0225,1.3602 1.4609,1.74414 -0.7369,0.97069 -2.2317,3.05037 -3.5234,6.35352 -1.6589,4.24189 -2.4973,9.91487 1.043,14.92773 3.3894,4.79923 6.7897,6.82767 9.3984,7.58789 0.8557,0.24936 1.4609,0.22422 2.123,0.25782 -0.5476,0.83831 -1.1443,1.84189 -1.4277,3.1289 -0.3238,1.47084 -0.2489,3.22282 0.6836,4.93946 0.9325,1.71664 2.6712,3.3582 5.5078,4.81836 5.7266,2.94774 12.4694,2.82143 18.3262,0.86914 5.8568,-1.95229 10.895,-5.71738 13.2031,-10.39649 4.3055,-8.72833 5.0293,-13.03906 5.0293,-13.03906 a 1.0584408,1.0584408 0 0 0 -1.3066,-1.19531 c 0,0 -3.5426,0.87141 -6.7442,0.37695 -1.6007,-0.24723 -3.0504,-0.82091 -4.0019,-1.88086 -0.9515,-1.05995 -1.5378,-2.66536 -1.2051,-5.41211 0.7915,-6.53358 3.9798,-9.13415 6.8398,-9.6582 1.4301,-0.26203 2.8023,0.0188 3.795,0.64648 0.9926,0.6277 1.6133,1.54689 1.6836,2.76367 0.094,1.62627 0.3273,2.68947 0.8183,3.48047 0.491,0.79101 1.4797,1.18743 2.2031,1.05274 0.7235,-0.13469 1.1993,-0.52066 1.5508,-0.83008 0.018,-0.0162 0.014,-0.0152 0.031,-0.0312 0.2734,0.0678 0.4877,0.2145 0.83,0.19726 1.3082,-0.0659 3.3456,-0.65923 7.293,-2.60351 4.0439,-1.99179 8.8687,-5.57075 12.8086,-8.97461 1.97,-1.70193 3.7105,-3.35667 5.0117,-4.75977 0.6506,-0.70154 1.1905,-1.3383 1.6035,-1.90625 0.4131,-0.56794 0.7197,-1.01523 0.8497,-1.63476 0.078,-0.37245 0.1951,-0.50214 0.3437,-0.61524 0.1486,-0.11309 0.3755,-0.19647 0.6445,-0.23242 0.538,-0.0719 1.1055,0.0586 1.1055,0.0586 a 1.0584408,1.0584408 0 0 0 0.09,0.0195 c 0,0 3.5886,0.69422 6.5176,-0.25391 1.4645,-0.47407 2.9188,-1.56904 3.1797,-3.38086 0.2609,-1.81182 -0.5274,-3.97983 -2.5898,-6.90039 -3.9975,-5.66076 -6.5641,-8.66804 -8.1739,-10.29297 -0.518,-0.52292 -0.8011,-0.72434 -1.1406,-1.0039 1.1774,-0.91129 3.1348,-2.60179 4.3789,-5.50782 0.8464,-1.97686 1.1276,-4.40925 0.021,-6.89648 -1.1061,-2.48723 -3.5088,-4.9631 -7.7695,-7.34766 -8.0717,-4.51733 -13.1502,-4.68108 -16.2852,-3.45703 -1.9643,0.767 -2.8994,1.88988 -3.4629,2.77735 -1.1513,-0.78074 -4.6367,-3.06597 -9.7793,-4.83594 -3.042,-1.04699 -6.5045,-1.79339 -9.9375,-1.62305 z m 0.1953,2.09766 c 3.0482,-0.13712 6.1815,0.5391 9.0528,1.52734 5.7426,1.97649 10.1914,5.15235 10.1914,5.15234 a 1.0584408,1.0584408 0 0 0 1.6152,-0.50976 c 0,0 0.5413,-1.69638 2.8946,-2.61524 2.3532,-0.91885 6.7195,-1.01053 14.4824,3.33399 4.0107,2.24461 6.0162,4.44147 6.8691,6.35937 0.8529,1.91791 0.6441,3.62302 -0.033,5.20508 -1.3547,3.16414 -4.7305,5.4961 -4.7305,5.4961 a 1.0584408,1.0584408 0 0 0 0.3067,1.90039 c 0,0 -0.1108,-0.041 -0.088,-0.0293 0.023,0.0117 0.097,0.0541 0.2285,0.14648 0.2623,0.18472 0.7458,0.57279 1.4863,1.32032 1.4811,1.49504 3.9946,4.4233 7.9493,10.02343 1.9136,2.7099 2.3535,4.46788 2.2226,5.37696 -0.1309,0.90908 -0.6904,1.33134 -1.7363,1.66992 -2.0919,0.67716 -5.5117,0.17969 -5.5117,0.17969 l 0.09,0.0195 c 0,0 -0.8834,-0.24594 -1.9199,-0.10742 -0.5183,0.0693 -1.1102,0.23794 -1.6445,0.64453 -0.5344,0.40659 -0.9643,1.0642 -1.1329,1.86718 0.01,-0.0318 -0.1531,0.35866 -0.4902,0.82227 -0.3371,0.46362 -0.831,1.05263 -1.4434,1.71289 -1.2246,1.32052 -2.921,2.93655 -4.8437,4.59766 -3.8454,3.3222 -8.6271,6.83848 -12.3613,8.67773 -3.8307,1.88675 -5.756,2.35297 -6.4649,2.38867 -0.3544,0.0178 -0.3497,-0.0614 -0.2148,0.0391 0.067,0.0502 0.1481,0.14125 0.1972,0.24218 0.049,0.10094 0.082,0.3086 0.082,0.3086 a 1.0584408,1.0584408 0 0 0 -1.8809,-0.57227 c 0,0 -0.128,0.15875 -0.3359,0.3418 -0.208,0.18305 -0.487,0.32625 -0.5391,0.33594 -0.052,0.01 0.1396,0.16538 -0.018,-0.0879 -0.1572,-0.25327 -0.4222,-1.03715 -0.5058,-2.48438 -0.1103,-1.9091 -1.1757,-3.49173 -2.6621,-4.43164 -1.4865,-0.93991 -3.3852,-1.29188 -5.3086,-0.93945 -3.8469,0.70486 -7.6924,4.32002 -8.5606,11.48632 -0.3831,3.16263 0.3313,5.5192 1.7325,7.08008 1.4011,1.56088 3.3579,2.26607 5.2519,2.5586 2.4127,0.37263 4.4286,0.13902 5.8672,-0.10743 -0.3706,1.49265 -1.2511,4.51345 -4.4199,10.9375 -1.9582,3.96972 -6.5561,7.51804 -11.9746,9.32422 -5.4185,1.80619 -11.5886,1.88245 -16.6875,-0.74218 -2.5761,-1.32605 -3.9417,-2.70357 -4.6172,-3.94727 -0.6756,-1.2437 -0.7151,-2.39143 -0.4766,-3.47461 0.477,-2.16636 2.1817,-3.88086 2.1817,-3.88086 a 1.0584408,1.0584408 0 0 0 -1.045,-1.77148 c 0,0 -1.1846,0.39767 -3.3066,-0.22071 -2.122,-0.61837 -5.092,-2.28922 -8.2617,-6.77734 -3.0188,-4.27446 -2.3199,-9.05103 -0.8008,-12.93555 1.5191,-3.88451 3.8281,-6.67578 3.8281,-6.67578 a 1.0584408,1.0584408 0 0 0 -0.5371,-1.69726 c 0,0 0.043,0.0443 -0.2129,-0.15821 -0.2559,-0.20255 -0.6783,-0.62009 -1.1777,-1.43945 -0.9989,-1.63871 -2.2916,-4.89727 -3.0918,-11.09961 -0.3843,-2.97822 0.081,-5.0022 0.9062,-6.43164 0.8249,-1.42944 2.0424,-2.31436 3.3692,-2.88672 2.6536,-1.14471 5.6054,-0.89844 5.6054,-0.89844 a 1.0584408,1.0584408 0 0 0 1.0118,-1.58789 c 0,0 -0.4254,-0.67501 -0.7422,-2.62695 -0.3168,-1.95194 -0.4606,-5.07522 0.3203,-9.63281 0.3453,-2.01506 1.4275,-3.24716 3.0195,-4.14258 1.592,-0.89542 3.7051,-1.36151 5.8106,-1.53711 4.2108,-0.35119 8.3007,0.41797 8.3007,0.41797 a 1.0584408,1.0584408 0 0 0 0.6973,-1.97461 c 0,0 -0.06,-0.018 -0.2051,-0.21484 -0.1448,-0.19686 -0.3114,-0.50224 -0.2714,-1.13086 0.08,-1.25725 1.2208,-3.9577 6.1406,-8.36719 2.5323,-2.26965 5.4948,-3.22031 8.5429,-3.35742 z"
                        id="path75105"
                        stroke-width="0.5"
                        stroke-linecap="round"
                        stroke-linejoin="round"
                        stroke="black" />
                </g>
                <path
                    d="m -4684.5332,207.96875 a 1.0583349,1.0583349 0 0 0 -1.498,0.0195 1.0583349,1.0583349 0 0 0 0.02,1.49609 c 0,0 6.5368,6.43959 6.6328,15.27344 0.05,4.64503 -0.1077,7.46496 0.064,9.94922 0.1722,2.48427 0.7074,4.60779 2.0625,7.54883 1.3078,2.83828 2.1434,4.98838 2.5137,6.35742 0.1512,0.55894 0.1747,0.87583 0.1875,1.11328 -0.6747,0.10589 -2.3137,0.34224 -4.1211,0.59375 -2.0317,0.28275 -3.9433,0.54297 -3.9433,0.54297 a 1.0584408,1.0584408 0 0 0 -0.8868,0.80469 c 0,0 -1.2082,5.06059 -5.1445,9.95312 -3.9363,4.89254 -10.4619,9.56766 -21.4844,8.81055 -8.7683,-0.60227 -13.4786,-2.53459 -15.9531,-4.21094 -1.2372,-0.83817 -1.9217,-1.61159 -2.2949,-2.14648 -0.3732,-0.53489 -0.4082,-0.72852 -0.4082,-0.72852 a 1.0583349,1.0583349 0 0 0 -1.2988,-0.74414 1.0583349,1.0583349 0 0 0 -0.7422,1.30078 c 0,0 0.1904,0.63394 0.7129,1.38282 0.5225,0.74887 1.4039,1.71409 2.8437,2.68945 2.8796,1.95071 7.9711,3.95041 16.9961,4.57031 11.6852,0.80263 19.025,-4.31033 23.2774,-9.5957 3.806,-4.73064 5.0475,-9.09813 5.3085,-10.07617 0.4796,-0.0656 1.6028,-0.21965 3.3086,-0.45703 2.0351,-0.28321 4.1164,-0.57445 4.7149,-0.68165 0.3908,-0.07 0.8001,-0.35909 1,-0.68554 0.1999,-0.32645 0.2534,-0.64252 0.2715,-0.94727 0.036,-0.60949 -0.085,-1.24355 -0.3008,-2.04101 -0.4315,-1.59493 -1.2995,-3.79766 -2.6328,-6.69141 -1.286,-2.79099 -1.7171,-4.52752 -1.875,-6.80664 -0.158,-2.27912 -0.01,-5.12583 -0.061,-9.82617 -0.1071,-9.85693 -7.2695,-16.76758 -7.2695,-16.76758 z"
                    id="path41957"
                    stroke-width="0.5"
                    stroke-linecap="round"
                    stroke-linejoin="round"
                    stroke="black" />
                <path
                    d="m -4686.6133,221.91797 c -2.9848,0.15235 -6.0614,1.06949 -8.7168,4.27148 a 1.0583349,1.0583349 0 0 0 0.1387,1.49024 1.0583349,1.0583349 0 0 0 1.4902,-0.13867 c 3.0551,-3.68385 6.1961,-3.70886 9.8828,-3.46485 a 1.0583349,1.0583349 0 0 0 1.125,-0.98633 1.0583349,1.0583349 0 0 0 -0.9863,-1.125 c -0.9556,-0.0632 -1.9386,-0.0977 -2.9336,-0.0469 z"
                    id="path41959"
                    stroke-width="0.5"
                    stroke-linecap="round"
                    stroke-linejoin="round"
                    stroke="black" />
                <path
                    d="m -4683.8906,232.48242 a 1.0583349,1.0583349 0 0 0 -0.8731,1.2168 c 0.8101,4.92142 -1.4054,7.3308 -3.291,7.64844 -0.9428,0.15882 -1.8577,-0.12675 -2.623,-1.05664 -0.7653,-0.92989 -1.3573,-2.5856 -1.2422,-5.13477 a 1.0583349,1.0583349 0 0 0 -1.0098,-1.10547 1.0583349,1.0583349 0 0 0 -1.1055,1.00977 c -0.1316,2.91627 0.5278,5.11994 1.7247,6.57422 1.1968,1.45427 2.9559,2.07702 4.6074,1.79882 3.3029,-0.5564 5.9617,-4.4013 5.0273,-10.07812 a 1.0583349,1.0583349 0 0 0 -1.2148,-0.87305 z"
                    id="path41961"
                    stroke-width="0.5"
                    stroke-linecap="round"
                    stroke-linejoin="round"
                    stroke="black" />
                <path
                    d="m -4701.5508,252.10156 a 1.0583349,1.0583349 0 0 0 -1.0625,1.05664 c -0.01,2.21464 0.3756,4.20658 1.6641,5.60938 1.2885,1.40279 3.3772,1.94181 6.0781,1.54883 a 1.0583349,1.0583349 0 0 0 0.8945,-1.19922 1.0583349,1.0583349 0 0 0 -1.1992,-0.89453 c -2.306,0.33551 -3.4875,-0.0949 -4.2148,-0.88672 -0.7273,-0.79182 -1.1102,-2.21977 -1.1055,-4.17383 a 1.0583349,1.0583349 0 0 0 -1.0547,-1.06055 z"
                    id="path41963"
                    stroke-width="0.5"
                    stroke-linecap="round"
                    stroke-linejoin="round"
                    stroke="black" />
                <path
                    d="m -4750.6953,268.76758 a 1.0583349,1.0583349 0 0 0 -0.8106,0.004 1.0583349,1.0583349 0 0 0 -0.5664,1.38477 c 0.138,0.32829 0.2862,0.53405 0.5274,0.90039 0.2412,0.36634 0.5556,0.82204 0.9277,1.34766 0.7443,1.05124 1.7176,2.37893 2.7637,3.76953 2.0922,2.7812 4.4497,5.78733 5.873,7.34765 a 1.0583349,1.0583349 0 0 0 1.4942,0.0684 1.0583349,1.0583349 0 0 0 0.068,-1.49609 c -1.2903,-1.41452 -3.6716,-4.43844 -5.7441,-7.19336 -1.0363,-1.37746 -2.0017,-2.69408 -2.7285,-3.7207 -0.3634,-0.51332 -0.667,-0.95338 -0.8867,-1.28711 -0.2198,-0.33373 -0.3766,-0.63265 -0.3438,-0.55469 a 1.0583349,1.0583349 0 0 0 -0.5742,-0.57031 z"
                    id="path41965"
                    stroke-width="0.5"
                    stroke-linecap="round"
                    stroke-linejoin="round"
                    stroke="black" />
                <path
                    d="m -4745.2715,281.14258 c -3.9866,-0.18789 -7.6681,0.21508 -10.8301,0.84765 -3.1619,0.63258 -5.8094,1.49665 -7.7382,2.23438 -1.9288,0.73773 -3.2158,1.38628 -3.3946,1.4707 a 1.0583349,1.0583349 0 0 0 -0.5058,1.41016 1.0583349,1.0583349 0 0 0 1.4101,0.5039 c 0.3437,-0.16229 1.4089,-0.70475 3.2481,-1.4082 1.8391,-0.70344 4.3748,-1.53024 7.3965,-2.13476 6.0433,-1.20904 14.0089,-1.5307 22.2968,1.74218 16.6522,6.57593 41.2762,13.97656 42.6953,14.40235 -1.0717,13.40625 -5.8207,25.86564 -11.2382,38.23828 -0.7225,-0.0726 -13.7132,-1.37215 -28.2207,-3.18164 -7.4526,-0.92955 -15.1094,-1.97091 -21.2969,-3.00196 -3.0938,-0.51552 -5.8209,-1.02863 -7.959,-1.51953 -2.1381,-0.49089 -3.7323,-1.00262 -4.3281,-1.32812 -6.5877,-3.59861 -6.9082,-3.7793 -6.9082,-3.7793 a 1.0583349,1.0583349 0 0 0 -1.4414,0.40039 1.0583349,1.0583349 0 0 0 0.4004,1.44141 c 0,0 0.347,0.19582 6.9355,3.79492 1.0512,0.57421 2.6604,1.02655 4.8672,1.5332 2.2067,0.50665 4.9666,1.02515 8.0859,1.54493 6.2387,1.03955 13.9142,2.08407 21.3828,3.01562 14.9373,1.86309 29.045,3.27539 29.045,3.27539 a 1.0584408,1.0584408 0 0 0 1.0742,-0.62695 c 5.6805,-12.91577 10.844,-26.08114 11.8262,-40.47852 a 1.0584408,1.0584408 0 0 0 -0.752,-1.08594 c 0,0 -26.4241,-7.9132 -43.3906,-14.61328 -4.3814,-1.7302 -8.6736,-2.50937 -12.6602,-2.69726 z"
                    id="path41967"
                    stroke-width="0.5"
                    stroke-linecap="round"
                    stroke-linejoin="round"
                    stroke="black" />
                <path
                    d="m -4653.7637,222.92383 c -0.7037,-0.02 -1.1706,0.31297 -1.6015,0.66797 -0.431,0.355 -0.8385,0.80383 -1.2578,1.33007 -0.8388,1.0525 -1.713,2.41505 -2.5489,3.83399 -1.6717,2.83788 -3.1437,5.82896 -3.5898,6.86719 -0.3357,0.78115 -0.4856,1.83002 -0.709,3.36132 -0.2234,1.53131 -0.4506,3.43388 -0.6758,5.44532 -0.4504,4.02287 -0.8954,8.49197 -1.2617,11.17578 -0.065,0.47878 -0.438,1.73988 -1.0488,3.36328 -0.6109,1.6234 -1.4565,3.66581 -2.4649,5.9668 -2.0166,4.60196 -4.6868,10.24583 -7.4726,15.75195 -2.7859,5.50612 -5.6903,10.87773 -8.1582,14.92383 -1.234,2.02305 -2.3611,3.71803 -3.2891,4.91015 -0.464,0.59607 -0.8806,1.06697 -1.2109,1.37891 -0.3304,0.31194 -0.5985,0.43959 -0.5703,0.43164 a 1.0583349,1.0583349 0 0 0 -0.7325,1.30469 1.0583349,1.0583349 0 0 0 1.3067,0.73242 c 0.5889,-0.16596 0.9992,-0.50485 1.4511,-0.93164 0.452,-0.42679 0.9195,-0.96675 1.4258,-1.61719 1.0127,-1.30087 2.1692,-3.04205 3.4278,-5.10547 2.5171,-4.12683 5.4355,-9.53069 8.2382,-15.07031 2.8028,-5.53962 5.4864,-11.21084 7.5235,-15.85937 1.0185,-2.32427 1.8745,-4.39254 2.5058,-6.07032 0.6314,-1.67777 1.0412,-2.9094 1.1661,-3.82422 0.3777,-2.76765 0.8193,-7.22338 1.2675,-11.22656 0.2241,-2.00159 0.4493,-3.88702 0.666,-5.37304 0.2168,-1.48603 0.4952,-2.68446 0.5586,-2.83204 0.352,-0.81925 1.8557,-3.88713 3.4707,-6.6289 0.8076,-1.37089 1.6534,-2.67695 2.3809,-3.58985 0.3638,-0.45644 0.7018,-0.81341 0.9473,-1.01562 0.2455,-0.20222 0.3875,-0.17814 0.1953,-0.18359 1.0427,0.0296 1.836,0.0783 2.3262,0.51562 0.4901,0.4373 1.0297,1.55068 0.8847,4.42383 -0.1503,2.97788 -0.4149,4.79995 -0.6308,5.84765 -0.216,1.04771 -0.3223,1.19727 -0.3223,1.19727 a 1.0584408,1.0584408 0 0 0 1.0625,1.54688 c 0,0 3.5245,-0.42796 7.1934,-0.85938 1.8344,-0.21571 3.7062,-0.43157 5.1875,-0.5957 1.4812,-0.16413 2.7013,-0.2772 2.7851,-0.2793 -0.073,0.002 0.381,0.0765 0.8594,0.26758 0.4784,0.19111 1.0524,0.46233 1.5937,0.73828 0.8661,0.44148 1.3471,0.7277 1.625,0.88867 -0.2526,0.35731 -1.5172,1.4124 -5.2851,2.56641 -7.9179,2.42505 -11.6094,4.24219 -11.6094,4.24219 a 1.0583349,1.0583349 0 0 0 -0.4805,1.41796 1.0583349,1.0583349 0 0 0 1.418,0.48047 c 0,0 3.4787,-1.72444 11.291,-4.11718 4.0288,-1.23391 5.7132,-2.27886 6.4883,-3.47266 0.3876,-0.5969 0.4559,-1.28732 0.3223,-1.76367 -0.1336,-0.47635 -0.4688,-0.80664 -0.4688,-0.80664 a 1.0584408,1.0584408 0 0 0 -0.1933,-0.14649 c 0,0 -0.9945,-0.58659 -2.1465,-1.17383 -0.576,-0.29361 -1.1923,-0.58968 -1.7696,-0.82031 -0.5773,-0.23062 -1.0442,-0.43233 -1.6972,-0.41601 -0.4966,0.0124 -1.4769,0.12591 -2.9668,0.29101 -1.49,0.1651 -3.3623,0.38165 -5.1992,0.59766 -2.8689,0.33734 -4.5426,0.54123 -5.6231,0.67187 0,-0.0181 0,-0.009 0.01,-0.0273 0.2447,-1.18707 0.5175,-3.10908 0.6719,-6.16797 0.1597,-3.16351 -0.3966,-5.04666 -1.5898,-6.11133 -1.1933,-1.06466 -2.6705,-1.02429 -3.6739,-1.05273 z"
                    id="path41969"
                    stroke-width="0.5"
                    stroke-linecap="round"
                    stroke-linejoin="round"
                    stroke="black" />
                <path
                    d="m -4633.168,241.13281 a 1.0583349,1.0583349 0 0 0 -0.5175,1.4043 c 0,0 0.4768,1.07476 0.3261,2.33203 -0.1507,1.25727 -0.7576,2.6793 -3.6582,3.68359 -6.3808,2.20936 -9.3926,3.36329 -9.3926,3.36329 a 1.0583349,1.0583349 0 0 0 -0.6093,1.36718 1.0583349,1.0583349 0 0 0 1.3672,0.60938 c 0,0 2.9681,-1.1377 9.3281,-3.33985 3.4699,-1.20143 4.8362,-3.5109 5.0664,-5.43164 0.2302,-1.92073 -0.5059,-3.4707 -0.5059,-3.4707 a 1.0583349,1.0583349 0 0 0 -1.4043,-0.51758 z"
                    id="path41971"
                    stroke-width="0.5"
                    stroke-linecap="round"
                    stroke-linejoin="round"
                    stroke="black" />
                <path
                    d="m -4633.8828,248.875 a 1.0583349,1.0583349 0 0 0 -1.2891,0.76172 c -0.1499,0.58562 -0.062,1.00135 -0.053,1.33398 0.01,0.33264 -0.01,0.57352 -0.1309,0.86133 -0.2491,0.57561 -1.1141,1.56447 -4.1289,2.75781 -6.2303,2.46622 -8.3418,2.89454 -8.3418,2.89453 a 1.0583349,1.0583349 0 0 0 -0.8222,1.25 1.0583349,1.0583349 0 0 0 1.25,0.82227 c 0,0 2.3859,-0.50132 8.6933,-2.99805 3.2542,-1.2881 4.7114,-2.54123 5.293,-3.88476 0.2908,-0.67177 0.318,-1.31056 0.3047,-1.76563 -0.013,-0.45507 -0.016,-0.73674 -0.014,-0.74609 a 1.0583349,1.0583349 0 0 0 -0.7617,-1.28711 z"
                    id="path41973"
                    stroke-width="0.5"
                    stroke-linecap="round"
                    stroke-linejoin="round"
                    stroke="black" />
                <path
                    d="m -4639.8145,255.70312 a 1.0583349,1.0583349 0 0 0 -1.2695,0.79493 c -0.097,0.42278 -0.4961,1.76022 -1.2793,2.99414 -0.7831,1.23391 -1.8993,2.34511 -3.5019,2.69531 -2.0964,0.4581 -3.4165,1.18967 -4.2227,1.86523 -0.4031,0.33779 -0.6763,0.66018 -0.8535,0.91602 -0.1772,0.25584 -0.2871,0.51562 -0.2871,0.51562 a 1.0584408,1.0584408 0 0 0 -0.061,0.25 c 0,0 -0.934,7.65715 -2.4941,16.58008 -1.5601,8.92294 -3.807,19.17825 -6.1836,23.98633 -2.0785,4.20498 -5.6633,8.38563 -9.2578,11.58399 -3.5945,3.19835 -7.3284,5.40629 -9.0918,5.77148 -9.6101,1.99018 -16.6992,0.85547 -16.6992,0.85547 a 1.0583349,1.0583349 0 0 0 -1.211,0.87695 1.0583349,1.0583349 0 0 0 0.8789,1.21289 c 0,0 7.4891,1.19207 17.461,-0.87304 2.6736,-0.55369 6.3148,-2.92189 10.0683,-6.26172 3.7536,-3.33984 7.4909,-7.65991 9.7481,-12.22657 2.6588,-5.37896 4.8023,-15.57633 6.373,-24.56054 1.551,-8.8707 2.4532,-16.28731 2.4766,-16.47852 0.01,-0.008 -0.01,0.0157 0.019,-0.0273 0.073,-0.10558 0.2155,-0.28454 0.4727,-0.5 0.5143,-0.43093 1.4928,-1.0199 3.3144,-1.41797 2.3155,-0.50599 3.8688,-2.10202 4.8379,-3.62891 0.9691,-1.52689 1.4051,-3.00324 1.5547,-3.65429 a 1.0583349,1.0583349 0 0 0 -0.793,-1.26954 z"
                    id="path41975"
                    stroke-width="0.5"
                    stroke-linecap="round"
                    stroke-linejoin="round"
                    stroke="black" />
                <path
                    d="m -4650.7793,222.61523 a 1.0583349,1.0583349 0 0 0 -1.0586,1.0586 1.0583349,1.0583349 0 0 0 1.0586,1.05664 h 5.0371 l 0.3809,1.22851 a 1.0584408,1.0584408 0 0 0 1.0097,0.7461 h 8.4395 l -0.1816,8.99023 a 1.0583349,1.0583349 0 0 0 1.0371,1.08008 1.0583349,1.0583349 0 0 0 1.08,-1.03711 l 0.2032,-10.07031 a 1.0584408,1.0584408 0 0 0 -1.0586,-1.08008 h -8.7383 l -0.3789,-1.22656 a 1.0584408,1.0584408 0 0 0 -1.0117,-0.7461 z"
                    id="path41977"
                    stroke-width="0.5"
                    stroke-linecap="round"
                    stroke-linejoin="round"
                    stroke="black" />
                <path
                    d="m -4633.1934,254.58984 a 1.0583349,1.0583349 0 0 0 -1.2968,0.74805 l -1.3535,5.05469 -6.5879,0.60937 a 1.0583349,1.0583349 0 0 0 -0.9571,1.15039 1.0583349,1.0583349 0 0 0 1.1524,0.95703 l 7.3203,-0.67578 a 1.0584408,1.0584408 0 0 0 0.9258,-0.78125 l 1.5449,-5.76562 a 1.0583349,1.0583349 0 0 0 -0.7481,-1.29688 z"
                    id="path41979"
                    stroke-width="0.5"
                    stroke-linecap="round"
                    stroke-linejoin="round"
                    stroke="black" />
                <path
                    d="m -4633.7285,229.90039 a 1.0583349,1.0583349 0 0 0 -1.0586,1.05664 1.0583349,1.0583349 0 0 0 1.0586,1.05859 h 13.9316 v 20.37696 h -13.25 a 1.0583349,1.0583349 0 0 0 -1.0586,1.05859 1.0583349,1.0583349 0 0 0 1.0586,1.0586 h 14.3086 a 1.0584408,1.0584408 0 0 0 1.0586,-1.0586 v -22.49414 a 1.0584408,1.0584408 0 0 0 -1.0586,-1.05664 z"
                    id="path41981"
                    stroke-width="0.5"
                    stroke-linecap="round"
                    stroke-linejoin="round"
                    stroke="black" />
                <path
                    d="m -4617.9549,234.17934 c 1.7704,-0.37729 23.5954,0 23.5954,0 v 15.80298 h -24.5677 z"
                    id="path41983"
                    stroke-width="1.05833"
                    stroke-linecap="round"
                    stroke-linejoin="round"
                    stroke="black" />
                <g id="path41985"
                    style="stroke-width:0.5">
                    <path
                        d="m -4586.5483,234.63628 14.9558,-8.63473"
                        id="path75163"
                        stroke-width="1.05833"
                        stroke-linecap="round"
                        stroke-linejoin="round"
                        stroke="black" />
                    <path
                        d="m -4572.1211,225.08594 -14.957,8.63476 a 1.0583349,1.0583349 0 0 0 -0.3867,1.44532 1.0583349,1.0583349 0 0 0 1.4453,0.38671 l 14.957,-8.63476 a 1.0583349,1.0583349 0 0 0 0.3867,-1.44531 1.0583349,1.0583349 0 0 0 -1.4453,-0.38672 z"
                        id="path75165"
                        stroke-width="0.5"
                        stroke-linecap="round"
                        stroke-linejoin="round"
                        stroke="black" />
                </g>
                <g id="path41987"
                    style="stroke-width:0.5">
                    <path
                        d="m -4585.3294,241.51473 h 16.2382"
                        id="path75169"
                        stroke-width="1.05833"
                        stroke-linecap="round"
                        stroke-linejoin="round"
                        stroke="black" />
                    <path
                        d="m -4585.3301,240.45703 a 1.0583349,1.0583349 0 0 0 -1.0586,1.05859 1.0583349,1.0583349 0 0 0 1.0586,1.05665 h 16.2383 a 1.0583349,1.0583349 0 0 0 1.0586,-1.05665 1.0583349,1.0583349 0 0 0 -1.0586,-1.05859 z"
                        id="path75171"
                        stroke-width="0.5"
                        stroke-linecap="round"
                        stroke-linejoin="round"
                        stroke="black" />
                </g>
                <g id="path41989"
                    style="stroke-width:0.5">
                    <path
                        d="m -4586.4177,249.03168 14.6854,8.77943"
                        id="path75175"
                        stroke-width="1.05833"
                        stroke-linecap="round"
                        stroke-linejoin="round"
                        stroke="black" />
                    <path
                        d="m -4586.6758,248.00586 a 1.0583349,1.0583349 0 0 0 -0.6504,0.48242 1.0583349,1.0583349 0 0 0 0.3653,1.45117 l 14.6855,8.7793 a 1.0583349,1.0583349 0 0 0 1.4512,-0.36523 1.0583349,1.0583349 0 0 0 -0.3653,-1.45118 l -14.6855,-8.77929 a 1.0583349,1.0583349 0 0 0 -0.8008,-0.11719 z"
                        id="path75177"
                        stroke-width="0.5"
                        stroke-linecap="round"
                        stroke-linejoin="round"
                        stroke="black" />
                </g>
                <path
                    d="m -4760.0156,265.04492 c 0,0 -7.6629,4.10945 -17.1582,14.99414 -9.4954,10.8847 -20.91,28.59405 -28.6934,55.89844 a 1.0583349,1.0583349 0 0 0 0.7266,1.30859 1.0583349,1.0583349 0 0 0 1.3086,-0.72851 c 7.7,-27.01201 18.9515,-44.4267 28.2519,-55.08789 9.3004,-10.6612 16.5625,-14.51758 16.5625,-14.51758 a 1.0583349,1.0583349 0 0 0 0.4356,-1.43359 1.0583349,1.0583349 0 0 0 -1.4336,-0.4336 z"
                    id="path41991"
                    stroke-width="0.5"
                    stroke-linecap="round"
                    stroke-linejoin="round"
                    stroke="black" />
                <path
                    d="m -4782.9199,287.90625 a 1.0583349,1.0583349 0 0 0 -1.4961,0.0391 c -23.8386,25.11006 -31.5142,34.66984 -44.0684,62.95899 a 1.0583349,1.0583349 0 0 0 0.5391,1.39648 1.0583349,1.0583349 0 0 0 1.3965,-0.53711 c 12.497,-28.1604 19.8568,-37.28022 43.6679,-62.36133 a 1.0583349,1.0583349 0 0 0 -0.039,-1.49609 z"
                    id="path41993"
                    stroke-width="0.5"
                    stroke-linecap="round"
                    stroke-linejoin="round"
                    stroke="black" />
                <path
                    d="m -4797.7324,335.69727 c -12.8598,1.34401 -23.5803,9.05004 -33.6485,18.28125 a 1.0584408,1.0584408 0 0 0 -0.3398,0.85156 c 0.4885,7.19099 3.0713,11.1935 6.459,13.35937 3.3877,2.16588 7.3793,2.54999 10.6699,3.16602 a 1.0584408,1.0584408 0 0 0 0.8477,-0.20899 c 7.4124,-5.82442 12.3364,-10.85133 15.1054,-16.28906 2.7691,-5.43773 3.2978,-11.23927 2.0586,-18.29101 a 1.0584408,1.0584408 0 0 0 -1.1523,-0.86914 z m -0.8106,2.27929 c 0.9493,6.23869 0.4256,11.19116 -1.9824,15.91992 -2.4982,4.9059 -7.1168,9.68326 -14.1855,15.28125 -3.2702,-0.59134 -6.7169,-1.04957 -9.4102,-2.77148 -2.7522,-1.75957 -4.8733,-4.84639 -5.4141,-11.21875 9.5363,-8.68654 19.4597,-15.66399 30.9922,-17.21094 z"
                    id="path41995"
                    stroke-width="0.5"
                    stroke-linecap="round"
                    stroke-linejoin="round"
                    stroke="black" />
                <path
                    d="m -4797.1172,335.44531 a 1.0583349,1.0583349 0 0 0 -0.5469,1.39453 c 6.2777,14.39991 6.3341,27.25778 7.8536,40.71485 l -30.6778,17.18945 a 1.0584408,1.0584408 0 0 0 -0.029,0.0234 c -0.031,-0.0177 0,0.005 -0.064,-0.0547 -0.3127,-0.27344 -0.8523,-1.00002 -1.4102,-2.04492 -1.1157,-2.08981 -2.4056,-5.44705 -3.5937,-9.4668 -2.3764,-8.03949 -4.3806,-18.77672 -4.3106,-27.85351 a 1.0583349,1.0583349 0 0 0 -1.0508,-1.06641 1.0583349,1.0583349 0 0 0 -1.0664,1.05078 c -0.072,9.3986 1.9693,20.25058 4.3985,28.46875 1.2145,4.10909 2.5186,7.5458 3.7558,9.86328 0.6186,1.15875 1.1943,2.03864 1.8848,2.64258 0.3453,0.30197 0.7418,0.56001 1.2656,0.62891 0.5238,0.0689 1.1211,-0.15917 1.4824,-0.51563 l -0.2265,0.16992 31.2871,-17.52929 a 1.0584408,1.0584408 0 0 0 0.5332,-1.04688 c -1.5823,-13.5538 -1.5179,-26.93994 -8.0918,-42.01953 a 1.0583349,1.0583349 0 0 0 -1.3926,-0.54883 z"
                    id="path41997"
                    stroke-width="0.5"
                    stroke-linecap="round"
                    stroke-linejoin="round"
                    stroke="black" />
                <path
                    d="m -4821.0442,395.63764 c 0,0 3.8745,2.62658 11.3333,3.32312 7.4588,0.69654 5.3254,-0.60722 7.7345,-1.68333 15.3729,-6.86682 25.7576,-17.13805 25.7576,-17.13805 l -13.1472,-1.81393 z"
                    id="path41999"
                    stroke-width="1.05833"
                    stroke-linecap="round"
                    stroke-linejoin="round"
                    stroke="black" />
                <path
                    d="m -4789.291,332.66992 c -2.6279,0.1437 -5.1492,0.86431 -7.457,2.4707 a 1.0583349,1.0583349 0 0 0 -0.2637,1.47461 1.0583349,1.0583349 0 0 0 1.4726,0.26368 c 3.7859,-2.63513 8.2892,-2.49164 13.295,-1.26954 7.5008,18.08054 5.0934,30.72578 4.5898,44.81055 a 1.0583349,1.0583349 0 0 0 1.0195,1.0957 1.0583349,1.0583349 0 0 0 1.0957,-1.01953 c 0.5012,-14.01765 3.0261,-27.38119 -4.9433,-46.21875 a 1.0584408,1.0584408 0 0 0 -0.711,-0.61328 c -2.7346,-0.7044 -5.4697,-1.13784 -8.0976,-0.99414 z"
                    id="path42001"
                    stroke-width="0.5"
                    stroke-linecap="round"
                    stroke-linejoin="round"
                    stroke="black" />
                <path
                    d="m -4763.1172,330.62305 a 1.0583349,1.0583349 0 0 0 -1.4961,0.0488 1.0583349,1.0583349 0 0 0 0.049,1.4961 c 0.038,0.0352 -0.024,-0.0254 -0.041,-0.13281 -0.017,-0.10742 0.024,-0.19522 0.012,-0.17383 -0.024,0.0428 -0.3151,0.35976 -0.8282,0.66601 -1.0261,0.6125 -2.8328,1.30003 -4.8125,1.83594 -1.9796,0.53591 -4.1535,0.9368 -5.9765,1.07813 -1.8231,0.14132 -3.3417,-0.10811 -3.6661,-0.3125 a 1.0583349,1.0583349 0 0 0 -1.4609,0.33203 1.0583349,1.0583349 0 0 0 0.332,1.45898 c 1.2774,0.80487 2.9602,0.78777 4.959,0.63281 1.9988,-0.15495 4.2681,-0.57875 6.3653,-1.14648 2.0972,-0.56773 4.003,-1.26216 5.3437,-2.0625 0.6704,-0.40017 1.2264,-0.79779 1.5899,-1.44531 0.1817,-0.32376 0.3004,-0.75064 0.2324,-1.1875 -0.068,-0.43687 -0.3122,-0.81714 -0.6016,-1.08789 z"
                    id="path42003"
                    stroke-width="0.5"
                    stroke-linecap="round"
                    stroke-linejoin="round"
                    stroke="black" />
                <path
                    d="m -4720.3281,336.66602 a 1.0583349,1.0583349 0 0 0 -0.6348,1.35546 c 0,0 1.1262,3.11239 2.7813,6.69922 1.655,3.58684 3.7552,7.63344 6.1269,9.76563 2.1085,1.8956 3.1065,2.64129 3.791,2.99804 0.3423,0.17838 0.6521,0.43239 1.3145,0.14649 0.3312,-0.14295 0.5838,-0.50996 0.6465,-0.75195 0.063,-0.24199 0.021,-0.46875 0.021,-0.46875 a 1.0583349,1.0583349 0 0 0 -1.0352,-0.82813 c -0.296,-0.15742 -1.286,-0.83752 -3.3242,-2.66992 -1.7943,-1.61314 -4.0061,-5.58219 -5.6192,-9.07813 -1.6131,-3.49593 -2.7129,-6.5332 -2.7129,-6.5332 a 1.0583349,1.0583349 0 0 0 -1.3554,-0.63476 z m 12.7461,18.98828 a 1.0583349,1.0583349 0 0 0 -0.7871,1.10351 c 0,0 -0.037,-0.20067 0.017,-0.41015 0.054,-0.20949 0.2849,-0.5395 0.5645,-0.66016 0.2285,-0.0986 0.118,-0.0401 0.2051,-0.0332 z"
                    id="path42005"
                    stroke-width="0.5"
                    stroke-linecap="round"
                    stroke-linejoin="round"
                    stroke="black" />
                <path
                    d="m -4801.8437,395.83398 a 1.0583349,1.0583349 0 0 0 -0.8165,1.25391 c 0.7399,3.49488 2.855,7.23396 4.8868,9.93164 1.0158,1.34884 1.9937,2.42305 2.8847,3.09961 0.4455,0.33828 0.8448,0.61726 1.459,0.6875 0.3071,0.0351 0.7141,-0.0201 1.043,-0.25391 0.3289,-0.23381 0.51,-0.58357 0.5898,-0.88476 a 1.0583349,1.0583349 0 0 0 -0.7519,-1.29297 1.0583349,1.0583349 0 0 0 -0.8633,0.18555 c -0.084,-0.0418 -0.057,-0.02 -0.1973,-0.12696 -0.6003,-0.45585 -1.5315,-1.43796 -2.4726,-2.6875 -1.8822,-2.49907 -3.8783,-6.12207 -4.5078,-9.0957 a 1.0583349,1.0583349 0 0 0 -1.2539,-0.81641 z"
                    id="path42007"
                    stroke-width="0.5"
                    stroke-linecap="round"
                    stroke-linejoin="round"
                    stroke="black" />
                <path
                    d="m -4705.7454,356.87079 c -31.8448,9.82114 -62.2679,23.58379 -87.0855,52.88603 l 32.9746,25.09287 -41.6572,14.49128 0.6157,12.71357 c 0,0 105.5345,11.92587 113.372,-6.18297 11.5333,-26.64824 -9.8609,-45.14913 -9.8609,-45.14913 3.5977,0.0198 6.848,-0.64242 9.707,-2.07275 4.5103,19.13035 9.2408,38.16387 16.8691,55.92334 0,0 11.5129,-0.16417 11.2461,-0.88246 -0.2668,-0.71829 11.4184,-81.99015 2.1342,-96.32463 -10.7137,-16.54163 -48.3151,-10.49515 -48.3151,-10.49515 z"
                    id="path42009"
                    stroke-width="1.05833"
                    stroke-linecap="round"
                    stroke-linejoin="round"
                    stroke="black" />
                <path
                    d="m -4801.0918,448.26758 c 0,0 -3.6447,0.1175 -7.3301,0.47851 -1.8427,0.18051 -3.6923,0.41843 -5.1543,0.75 -0.731,0.16579 -1.3611,0.34721 -1.8984,0.60352 -0.2686,0.12815 -0.5194,0.27148 -0.7559,0.49609 -0.2364,0.22462 -0.4797,0.57889 -0.5136,1.0293 -0.076,1.00741 -0.2764,4.63294 -0.1778,8.78906 0.099,4.15613 0.4577,8.78255 1.6817,11.94922 1.1218,2.90232 1.7941,4.60938 2.7539,5.83984 0.9597,1.23047 2.231,1.786 3.8926,2.19336 1.5179,0.37214 4.2547,1.2302 6.7402,1.58399 1.2427,0.17689 2.4278,0.24836 3.4961,-0.0156 0.5341,-0.13199 1.0544,-0.35866 1.4824,-0.75781 0.428,-0.39915 0.7219,-0.9755 0.8066,-1.5918 0.349,-2.53895 0.4497,-4.15228 0.2872,-5.34179 -0.081,-0.59476 -0.2344,-1.10376 -0.5274,-1.53711 -0.2929,-0.43336 -0.739,-0.74152 -1.1582,-0.88867 -0.8383,-0.29432 -1.5234,-0.19135 -2.1894,-0.25586 -0.6661,-0.0645 -1.2992,-0.20373 -2.0489,-0.75196 -3.9195,-2.86641 -4.491,-4.92011 -4.2949,-6.17773 0.098,-0.62881 0.4111,-1.14476 0.7754,-1.5332 0.3642,-0.38845 0.8373,-0.63389 0.8769,-0.64649 0.9934,-0.31536 4.2559,-0.73828 4.2559,-0.73828 a 1.0583349,1.0583349 0 0 0 0.9277,-1.17383 1.0583349,1.0583349 0 0 0 -1.1738,-0.92773 c 0,0 -3.058,0.31672 -4.6504,0.82226 -0.6068,0.19263 -1.1873,0.58145 -1.7812,1.21485 -0.594,0.63339 -1.1463,1.52766 -1.3223,2.65625 -0.352,2.25717 0.894,5.10871 5.1387,8.21289 1.1024,0.80625 2.2183,1.06579 3.0918,1.15039 0.8734,0.0846 1.5197,0.0855 1.6933,0.14648 0.087,0.0305 0.065,0.0157 0.1055,0.0762 0.041,0.0605 0.13,0.24692 0.1836,0.63868 0.1071,0.78351 0.053,2.30422 -0.2852,4.76757 -0.027,0.19721 -0.069,0.25231 -0.1543,0.33204 -0.086,0.0797 -0.2561,0.17815 -0.5468,0.25 -0.5815,0.14369 -1.5793,0.13263 -2.6895,-0.0254 -2.2203,-0.31605 -4.8721,-1.13525 -6.5351,-1.54297 -1.5194,-0.37248 -2.0856,-0.6177 -2.7266,-1.43946 -0.641,-0.82176 -1.3341,-2.41775 -2.4492,-5.30273 -1.0129,-2.62063 -1.4428,-7.1784 -1.5391,-11.23633 -0.093,-3.93134 0.093,-7.27531 0.166,-8.31055 0.033,-0.0199 0.025,-0.0186 0.076,-0.043 0.2826,-0.13482 0.8076,-0.30237 1.4551,-0.44922 1.295,-0.29371 3.0951,-0.53292 4.8926,-0.70899 3.5948,-0.35214 7.1933,-0.46875 7.1933,-0.46875 a 1.0583349,1.0583349 0 0 0 1.0235,-1.09375 1.0583349,1.0583349 0 0 0 -1.0938,-1.02148 z"
                    id="path42011"
                    stroke-width="0.5"
                    stroke-linecap="round"
                    stroke-linejoin="round"
                    stroke="black" />
                <path
                    d="m -4662.0312,458.98047 a 1.0583349,1.0583349 0 0 0 -1.004,1.10937 c 0,0 0.072,1.1342 0.7247,2.96289 0.6529,1.8287 1.8902,4.45155 4.2304,7.73633 2.5981,3.64675 7.2259,4.42888 11.3184,4.47656 2.0462,0.0238 4.0001,-0.13815 5.5801,-0.26562 1.5799,-0.12747 2.8972,-0.15561 3.1367,-0.0996 0.3329,0.0779 0.2663,0.0586 0.3281,0.2793 0.062,0.22069 0.059,0.72868 -0.049,1.33008 -0.1076,0.60139 -0.2919,1.28983 -0.4434,1.96484 -0.092,0.4117 -0.083,0.83223 -0.1152,1.24609 -0.1394,0.037 -0.2412,0.0732 -0.4942,0.11328 -0.7795,0.12341 -1.9991,0.22028 -3.4785,0.27344 -2.9588,0.10633 -6.984,0.047 -11.0488,-0.20117 -4.0648,-0.24817 -8.1798,-0.68845 -11.2988,-1.32031 -1.5595,-0.31594 -2.8724,-0.68378 -3.7637,-1.06641 -0.8913,-0.38263 -1.2253,-0.81958 -1.2168,-0.79101 -1.1409,-3.83927 0.7069,-8.84138 1.4844,-11.64844 a 1.0583349,1.0583349 0 0 0 -0.7383,-1.30078 1.0583349,1.0583349 0 0 0 -1.3027,0.73632 c -0.7004,2.52874 -2.9156,7.95425 -1.4707,12.81641 0.3317,1.11625 1.2888,1.6523 2.4082,2.13281 1.1193,0.48051 2.5371,0.8645 4.1796,1.19727 3.2852,0.66553 7.4613,1.10536 11.5899,1.35742 4.1286,0.25206 8.1984,0.31293 11.2539,0.20313 1.5277,-0.0549 2.7957,-0.15024 3.7344,-0.29883 0.4693,-0.0743 0.8478,-0.1513 1.207,-0.29297 0.1796,-0.0708 0.361,-0.1492 0.5723,-0.3418 0.2113,-0.19259 0.4716,-0.64306 0.4004,-1.09765 -0.02,-0.12469 0.026,-0.64628 0.1621,-1.25391 0.1364,-0.60763 0.3319,-1.32213 0.4629,-2.05469 0.131,-0.73255 0.2236,-1.48853 0,-2.27344 -0.2198,-0.7849 -0.9454,-1.55177 -1.8848,-1.77148 -1.0329,-0.24158 -2.2054,-0.077 -3.7891,0.0508 -1.5837,0.12778 -3.4676,0.28406 -5.3847,0.26172 -3.8342,-0.0447 -7.6409,-0.81309 -9.6192,-3.58984 -2.2361,-3.13871 -3.3793,-5.58432 -3.9629,-7.21875 -0.5835,-1.63444 -0.6035,-2.35742 -0.6035,-2.35743 a 1.0583349,1.0583349 0 0 0 -1.1093,-1.0039 z"
                    id="path42013"
                    stroke-width="0.5"
                    stroke-linecap="round"
                    stroke-linejoin="round"
                    stroke="black" />
                <path
                    d="m -4719.1172,274.92383 a 1.0583349,1.0583349 0 0 0 -0.7148,0.38281 1.0583349,1.0583349 0 0 0 0.1445,1.48828 c 0,0 7.1063,5.94817 15.6074,5.57617 6.8446,-0.29951 7.2111,-0.35769 7.5117,-0.38476 l -0.4375,11.08594 a 1.0583349,1.0583349 0 0 0 1.0157,1.0996 1.0583349,1.0583349 0 0 0 1.0996,-1.01562 l 0.4824,-12.24219 a 1.0584408,1.0584408 0 0 0 -1.1992,-1.08984 c 0,0 -0.5972,0.083 -8.5645,0.43164 -7.4444,0.32576 -14.1718,-5.0957 -14.1718,-5.0957 a 1.0583349,1.0583349 0 0 0 -0.7735,-0.23633 z"
                    id="path42015"
                    stroke-width="0.5"
                    stroke-linecap="round"
                    stroke-linejoin="round"
                    stroke="black" />
                <path
                    d="m -4654.8066,220.53906 c -1.9752,0.32143 -3.3119,0.66951 -4.75,2.01367 -1.4382,1.34417 -3.0567,3.54773 -6.4024,7.85157 -1.6782,2.15883 -2.6972,3.4902 -3.3242,4.53711 -0.6271,1.0469 -0.8643,1.97938 -0.7441,2.83203 0.2403,1.70529 1.206,2.76561 1.291,7.9414 0.087,5.27529 -0.1426,7.51846 -0.7676,9.27539 -0.625,1.75694 -1.7745,3.2696 -3.5938,6.86133 -1.6102,3.17891 -7.3078,9.55781 -12.5253,14.91602 -5.2176,5.35821 -9.9922,9.83984 -9.9922,9.83984 a 1.0583349,1.0583349 0 0 0 -0.047,1.49414 1.0583349,1.0583349 0 0 0 1.4961,0.0488 c 0,0 4.8022,-4.5082 10.0586,-9.90625 5.2563,-5.39805 10.9275,-11.54451 12.8984,-15.43555 1.7618,-3.47819 2.939,-4.9722 3.6992,-7.10937 0.7603,-2.13717 0.9765,-4.67453 0.8887,-10.01953 -0.089,-5.44452 -1.1969,-7.39505 -1.3105,-8.20117 -0.057,-0.40307 -0.043,-0.60199 0.4648,-1.44922 0.5075,-0.84723 1.5057,-2.17339 3.1777,-4.32422 3.3548,-4.31555 5.025,-6.52801 6.1778,-7.60547 1.1527,-1.07746 1.7102,-1.15593 3.6445,-1.4707 0.016,-0.003 0.01,-0.0255 0.1445,0.0859 0.1365,0.11149 0.3325,0.35605 0.4961,0.63477 0.3273,0.55743 0.5274,1.18359 0.5274,1.18359 a 1.0583349,1.0583349 0 0 0 1.3222,0.69922 1.0583349,1.0583349 0 0 0 0.7012,-1.32422 c 0,0 -0.2428,-0.8102 -0.7246,-1.63086 -0.2409,-0.41033 -0.5411,-0.84053 -0.9824,-1.20117 -0.4414,-0.36064 -1.1084,-0.65359 -1.8242,-0.53711 z"
                    id="path42017"
                    stroke-width="0.5"
                    stroke-linecap="round"
                    stroke-linejoin="round"
                    stroke="black" />
                <path id="circle42019"
                    d="m -4812.7511,362.27707 a 2.9603417,2.9603417 0 0 1 -2.9603,2.96034 2.9603417,2.9603417 0 0 1 -2.9604,-2.96034 2.9603417,2.9603417 0 0 1 2.9604,-2.96034 2.9603417,2.9603417 0 0 1 2.9603,2.96034 z"
                    stroke-width="0.104199"
                    stroke="black" />
                <path
                    d="m -4644.3973,225.49425 c 0.021,-0.25668 0.01,-9.6544 0,-13.27297 0,-0.77347 0.6249,-1.40049 1.3986,-1.40049 h 4.7503 a 1.4009546,1.4009546 0 0 1 1.401,1.40096 v 13.15964"
                    id="path42021"
                    stroke-width="1.05833"
                    stroke-linecap="round"
                    stroke-linejoin="round"
                    stroke="black" />
            </g>
        </g>
    </g>
</svg>