<?xml version="1.0" encoding="UTF-8" standalone="no"?>
<!-- Created with Inkscape (http://www.inkscape.org/) -->

<svg width="100%" height="100%"
    viewBox="0 0 639.69209 701.00519"
    version="1.1" id="svg5"
    xml:space="preserve"
    xmlns="http://www.w3.org/2000/svg"
    xmlns:svg="http://www.w3.org/2000/svg">
    <defs id="defs2" />
    <g id="layer1"
        transform="translate(-1556.18,-2587.0442)">
        <g id="notion-traveler-vlogging"
            transform="matrix(2,0,0,2,-394.08685,-88.124184)"
            style="stroke-width:0.5">
            <title id="title94602">
                notion-traveler-vlogging
            </title>
            <g id="g41367"
                transform="matrix(1.26495,0,0,1.26495,695.85345,591.69208)"
                style="stroke-width:0.5">
                <path
                    d="m 246.20226,611.56847 c 0.18459,-2.8775 -0.42553,-6.141 5.48987,-6.23488 1.98814,-10.63326 7.12074,-16.68038 15.93313,-13.7243 3.59334,-0.94114 7.03021,-2.36732 10.36738,2.16542 3.20563,-1.51795 6.20992,-0.93606 8.84214,3.52611 3.69293,-0.84407 7.32993,-1.48361 8.72071,6.09137 3.8946,-1.74087 6.93893,-1.95099 4.68034,11.10301 6.57936,-1.38533 8.59409,2.38893 8.66495,5.2248 0.35707,14.29034 -8.37057,14.6877 -18.23822,15.31744 l -2.54747,-8.83801 c -4.93837,0.12844 -9.47893,-1.20342 -13.3382,-5.03627 -1.34652,0.89256 -2.46293,2.26394 -5.10521,0.46019 -0.38878,7.53651 -2.04945,14.17971 -9.40295,16.82459 1.00059,1.92021 0.86592,3.70597 -0.21267,5.37996 -3.28634,2.31157 -7.01815,2.74307 -11.11147,1.64878 l -4.5035,-2.339 c -14.28754,-12.23906 -9.8517,-25.1696 1.76117,-31.56921 z"
                    id="path41167"
                    stroke-width="1.05833"
                    stroke-linecap="round"
                    stroke-linejoin="round"
                    stroke="black" />
                <path
                    d="m 288.50391,624.90625 a 1.0583349,1.0583349 0 0 0 -0.91797,1.18164 c 0.47265,3.73092 1.17471,7.10262 1.5,10.05273 0.64463,5.84637 0.37153,10.59777 -0.61133,14.13477 -0.98286,3.537 -2.63716,5.82015 -4.75391,6.99023 -2.11675,1.17009 -4.80828,1.30633 -8.12695,0.16797 -3.31867,-1.13835 -7.20323,-3.57392 -11.43555,-7.42187 a 1.0584408,1.0584408 0 0 0 -1.03515,-0.22461 c -2.59165,0.82692 -4.57756,0.88794 -5.79688,0.28125 -1.21931,-0.60669 -2.03199,-1.90084 -2.20312,-4.68945 a 1.0583349,1.0583349 0 0 0 -1.1211,-0.99024 1.0583349,1.0583349 0 0 0 -0.99218,1.1211 c 0.19636,3.19985 1.35508,5.44807 3.375,6.45312 1.86995,0.93043 4.20251,0.70634 6.78906,-0.041 4.20705,3.75074 8.15097,6.28519 11.73242,7.51368 3.71023,1.27266 7.10668,1.19334 9.83789,-0.31641 2.73122,-1.50974 4.68402,-4.37093 5.76953,-8.27734 1.08551,-3.90642 1.34299,-8.89827 0.67774,-14.93164 -0.34203,-3.10191 -1.04632,-6.46041 -1.50586,-10.08789 a 1.0583349,1.0583349 0 0 0 -1.18164,-0.91602 z"
                    id="path41169"
                    stroke-width="0.5"
                    stroke-linecap="round"
                    stroke-linejoin="round"
                    stroke="black" />
                <path
                    d="m 286.13086,627.21875 c -2.76946,0.54249 -4.77319,1.59 -6.08789,3 -1.31471,1.41 -1.88766,3.15881 -1.90039,4.875 -0.0255,3.43238 1.95574,6.78786 4.4707,8.68359 a 1.0583349,1.0583349 0 0 0 1.48242,-0.20703 1.0583349,1.0583349 0 0 0 -0.20898,-1.48242 c -1.94496,-1.46607 -3.64589,-4.42543 -3.62695,-6.97852 0.009,-1.27654 0.38997,-2.43706 1.33007,-3.44531 0.94011,-1.00825 2.49162,-1.88616 4.94727,-2.36719 a 1.0583349,1.0583349 0 0 0 0.83594,-1.24218 1.0583349,1.0583349 0 0 0 -1.24219,-0.83594 z"
                    id="path41171"
                    stroke-width="0.5"
                    stroke-linecap="round"
                    stroke-linejoin="round"
                    stroke="black" />
                <path
                    d="m 271.06445,629.53516 c -2.29736,0.0207 -4.63787,1.10366 -6.89258,2.22851 a 1.0583349,1.0583349 0 0 0 -0.4746,1.41992 1.0583349,1.0583349 0 0 0 1.41992,0.47461 c 2.92289,-1.45821 5.58074,-2.44585 7.51758,-1.75781 a 1.0583349,1.0583349 0 0 0 1.35156,-0.64258 1.0583349,1.0583349 0 0 0 -0.64258,-1.35156 c -0.75159,-0.267 -1.51351,-0.37798 -2.2793,-0.37109 z"
                    id="path41173"
                    stroke-width="0.5"
                    stroke-linecap="round"
                    stroke-linejoin="round"
                    stroke="black" />
                <path
                    d="m 270.20898,637.39062 a 1.0583349,1.0583349 0 0 0 -0.54492,1.39454 c 0.56526,1.29279 0.63175,2.23424 0.50586,2.84961 -0.12588,0.61537 -0.41341,0.93771 -0.76367,1.13476 -0.70052,0.39411 -1.6671,0.22577 -2.06445,-0.69141 a 1.0583349,1.0583349 0 0 0 -1.39063,-0.55078 1.0583349,1.0583349 0 0 0 -0.55078,1.39258 c 0.883,2.03816 3.30484,2.67318 5.04297,1.69531 0.86906,-0.48893 1.56324,-1.39548 1.80078,-2.55664 0.23754,-1.16116 0.0503,-2.54297 -0.64062,-4.12304 a 1.0583349,1.0583349 0 0 0 -1.39454,-0.54493 z"
                    id="path41175"
                    stroke-width="0.5"
                    stroke-linecap="round"
                    stroke-linejoin="round"
                    stroke="black" />
                <path
                    d="m 284.25195,633.67969 a 1.0583349,1.0583349 0 0 0 -0.48633,1.41601 c 0.59313,1.21106 0.67255,1.98632 0.62305,2.26172 -0.0495,0.2754 9.8e-4,0.19059 -0.23047,0.23242 -0.23145,0.0418 -0.74988,-0.0252 -1.26953,-0.27148 -0.51964,-0.24631 -1.0373,-0.64956 -1.36914,-1.08984 a 1.0583349,1.0583349 0 0 0 -1.48242,-0.20704 1.0583349,1.0583349 0 0 0 -0.20703,1.48243 c 0.57558,0.76368 1.33986,1.34144 2.15234,1.72656 0.81248,0.38511 1.67527,0.59966 2.55078,0.4414 0.87552,-0.15825 1.75701,-0.92429 1.93946,-1.93945 0.18244,-1.01516 -0.10486,-2.13942 -0.80469,-3.56836 a 1.0583349,1.0583349 0 0 0 -1.41602,-0.48437 z"
                    id="path41177"
                    stroke-width="0.5"
                    stroke-linecap="round"
                    stroke-linejoin="round"
                    stroke="black" />
                <path
                    d="m 283.44336,645.5332 a 1.0583349,1.0583349 0 0 0 -0.71484,1.31641 c 0.39551,1.33358 -0.22498,2.99887 -1.19336,3.75781 -0.4842,0.37947 -0.99608,0.5448 -1.57227,0.46485 -0.57618,-0.08 -1.28658,-0.42736 -2.08398,-1.36133 a 1.0583349,1.0583349 0 0 0 -1.49219,-0.11719 1.0583349,1.0583349 0 0 0 -0.11719,1.49219 c 1.04191,1.22035 2.21608,1.91936 3.40234,2.08398 1.18627,0.16462 2.31285,-0.22478 3.16993,-0.89648 1.71414,-1.34342 2.58862,-3.75949 1.91601,-6.02735 a 1.0583349,1.0583349 0 0 0 -1.31445,-0.71289 z"
                    id="path41179"
                    stroke-width="0.5"
                    stroke-linecap="round"
                    stroke-linejoin="round"
                    stroke="black" />
                <path
                    d="m 259.22266,641.31641 a 1.0583349,1.0583349 0 0 0 -0.40625,1.43945 l 2.29882,4.10742 a 1.0583349,1.0583349 0 0 0 1.43946,0.40625 1.0583349,1.0583349 0 0 0 0.40625,-1.43945 l -2.29883,-4.10742 a 1.0583349,1.0583349 0 0 0 -1.43945,-0.40625 z"
                    id="path41181"
                    stroke-width="0.5"
                    stroke-linecap="round"
                    stroke-linejoin="round"
                    stroke="black" />
                <path
                    d="m 291.04687,659.43164 a 1.0583349,1.0583349 0 0 0 -1.48632,0.17188 c 0,0 -2.13486,2.50669 -1.26563,5.42187 0.77038,2.58369 0.9036,4.39867 0.70508,5.31641 -0.0993,0.45886 -0.25028,0.66318 -0.37305,0.76367 -0.12276,0.10049 -0.26696,0.16251 -0.60351,0.14258 -0.6731,-0.0399 -1.97208,-0.59725 -3.48828,-1.77735 -1.51621,-1.1801 -3.27515,-2.93769 -5.10938,-5.20117 -1.47077,-1.81496 -3.31473,-2.54741 -4.97461,-2.5957 -1.65988,-0.0483 -3.12296,0.50469 -4.16992,1.03125 a 1.0583349,1.0583349 0 0 0 -0.4707,1.41992 1.0583349,1.0583349 0 0 0 1.42187,0.4707 c 0.85581,-0.43042 2.01769,-0.83781 3.15625,-0.80468 1.13857,0.0331 2.26711,0.42169 3.39258,1.81054 1.9126,2.36019 3.76155,4.22442 5.45312,5.54102 1.69158,1.3166 3.19904,2.13197 4.66407,2.21875 0.73251,0.0434 1.49091,-0.14292 2.07031,-0.61719 0.5794,-0.47427 0.92994,-1.17071 1.09961,-1.95508 0.33934,-1.56874 0.0765,-3.6082 -0.74609,-6.36719 -0.47226,-1.58381 0.89843,-3.5039 0.89843,-3.5039 a 1.0583349,1.0583349 0 0 0 -0.17383,-1.48633 z"
                    id="path41183"
                    stroke-width="0.5"
                    stroke-linecap="round"
                    stroke-linejoin="round"
                    stroke="black" />
                <path
                    d="m 270.03516,662.5 c -2.4839,0.19367 -4.39768,1.26669 -5.86133,2.66211 -1.46366,1.39542 -2.52369,3.09122 -3.51758,4.65234 a 1.0584408,1.0584408 0 0 0 0.56445,1.57422 c 4.61397,1.50872 7.17133,3.96724 8.20313,7.29883 1.0318,3.33159 0.48482,7.71081 -1.71094,12.9375 a 1.0583349,1.0583349 0 0 0 0.56641,1.38477 1.0583349,1.0583349 0 0 0 1.38476,-0.56641 c 2.30911,-5.49648 3.02894,-10.36046 1.78321,-14.38281 -1.12691,-3.63868 -3.98659,-6.38797 -8.25196,-8.11524 0.76815,-1.17147 1.51821,-2.37365 2.43946,-3.25195 1.13339,-1.08056 2.45625,-1.78669 4.2539,-2.00195 8.90313,5.79079 10.54611,12.70235 8.67774,19.17382 -1.89393,6.55999 -7.67649,12.63491 -13.72071,15.67579 a 1.0583349,1.0583349 0 0 0 -0.46875,1.42187 1.0583349,1.0583349 0 0 0 1.41992,0.46875 c 6.55922,-3.29997 12.6921,-9.66987 14.80274,-16.98047 2.11063,-7.3106 -0.11421,-15.58938 -9.91602,-21.79101 A 1.0584408,1.0584408 0 0 0 270.03516,662.5 Z"
                    id="path41185"
                    stroke-width="0.5"
                    stroke-linecap="round"
                    stroke-linejoin="round"
                    stroke="black" />
                <path
                    d="m 261.49414,669.4707 a 1.0583349,1.0583349 0 0 0 -0.76562,0.26758 c -1.14497,1.01915 -2.83403,3.05406 -4.86329,5.6582 -2.02925,2.60415 -4.34432,5.7396 -6.50976,8.78711 -2.16544,3.04752 -4.18053,6.00523 -5.61524,8.26368 -0.71735,1.12922 -1.28747,2.0784 -1.67187,2.80664 -0.1922,0.36411 -0.33757,0.66546 -0.44141,0.95898 -0.0519,0.14676 -0.0987,0.28537 -0.11914,0.49609 -0.0204,0.21073 -0.0575,0.64284 0.38867,1.0293 l -0.28906,-0.40625 c 1.8309,4.57522 4.78291,7.84505 8.55664,9.93555 3.77373,2.0905 8.33255,3.02031 13.44531,3.1289 a 1.0584408,1.0584408 0 0 0 1.07032,-0.91015 c 1.35249,-9.58212 1.97648,-19.68511 4.82422,-27.63867 a 1.0583349,1.0583349 0 0 0 -0.64063,-1.35157 1.0583349,1.0583349 0 0 0 -1.35351,0.63868 c -2.89814,8.09433 -3.55537,17.86227 -4.79688,27.03906 -4.45645,-0.19909 -8.38424,-1.01882 -11.52344,-2.75781 -3.30428,-1.83045 -5.82849,-4.5979 -7.50195,-8.63672 0.0542,-0.13076 0.11926,-0.28572 0.25195,-0.53711 0.33381,-0.63239 0.88691,-1.55669 1.58789,-2.66016 1.40198,-2.20693 3.40471,-5.14612 5.55469,-8.17187 2.14998,-3.02575 4.45061,-6.14307 6.45313,-8.71289 2.00251,-2.56983 3.76082,-4.63056 4.60156,-5.37891 a 1.0583349,1.0583349 0 0 0 0.0859,-1.49414 1.0583349,1.0583349 0 0 0 -0.72852,-0.35352 z"
                    id="path41187"
                    stroke-width="0.5"
                    stroke-linecap="round"
                    stroke-linejoin="round"
                    stroke="black" />
                <path
                    d="m 294.1543,661.47266 a 1.0583349,1.0583349 0 0 0 -0.48438,1.41601 c 7.65156,15.62462 17.09997,55.54393 21.30469,84.94336 -14.35017,8.11249 -27.68916,10.8709 -38.44727,11.08399 -10.40615,0.20611 -18.31428,-1.93726 -22.39843,-3.72657 l 5.80859,-45.40625 a 1.0583349,1.0583349 0 0 0 -0.91602,-1.18359 1.0583349,1.0583349 0 0 0 -1.18359,0.91601 l -5.91406,46.22657 a 1.0584408,1.0584408 0 0 0 0.59765,1.08984 c 4.2799,2.02695 12.80142,4.422 24.04883,4.19922 11.24742,-0.22278 25.18961,-3.09601 40.10742,-11.68359 a 1.0584408,1.0584408 0 0 0 0.51954,-1.06446 c -4.17795,-29.63781 -13.59421,-69.9212 -21.62696,-86.32422 a 1.0583349,1.0583349 0 0 0 -1.41601,-0.48632 z"
                    id="path41189"
                    stroke-width="0.5"
                    stroke-linecap="round"
                    stroke-linejoin="round"
                    stroke="black" />
                <path
                    d="m 305.27344,693.24805 c -1.90756,-0.33261 -3.95369,0.28781 -5.20899,2.05859 -0.77175,1.08867 -1.14673,2.67515 -1.3125,4.52148 -0.34607,-0.49162 -0.57048,-0.95191 -1.00586,-1.42382 -0.95993,-1.04051 -2.15988,-1.98906 -3.6582,-2.30274 -1.49832,-0.31368 -3.21808,0.1352 -4.78906,1.53516 -3.14555,2.8031 -4.07539,6.29696 -3.48438,9.62305 0.59102,3.32608 2.55875,6.50895 4.98633,9.26171 2.42759,2.75277 5.33113,5.0741 7.94727,6.60352 1.30806,0.76471 2.54086,1.33363 3.65234,1.65039 1.11148,0.31677 2.14049,0.45552 3.08398,-0.0488 a 1.0584408,1.0584408 0 0 0 0.36524,-0.32226 c 6.10686,-8.65915 3.41201,-20.51271 0.25,-30.43555 a 1.0584408,1.0584408 0 0 0 -0.82617,-0.7207 z m -0.98242,2.11718 c 2.95224,9.46037 5.00087,20.02995 0.0176,27.48047 -0.16934,0.0409 -0.57103,0.10835 -1.32812,-0.10742 -0.85837,-0.24463 -1.96617,-0.73915 -3.16406,-1.43945 -2.3958,-1.40061 -5.16559,-3.61256 -7.42774,-6.17774 -2.26215,-2.56517 -4.00259,-5.4861 -4.49023,-8.23047 -0.48765,-2.74436 0.13284,-5.28937 2.80859,-7.67382 1.20616,-1.07485 2.09374,-1.22361 2.94727,-1.04493 0.85353,0.17869 1.74981,0.81459 2.53711,1.66797 1.57459,1.70677 2.60156,4.09766 2.60156,4.09766 a 1.0584408,1.0584408 0 0 0 2.02734,-0.52344 c -0.38356,-3.56061 0.1671,-5.75116 0.97071,-6.88476 0.66142,-0.93303 1.51103,-1.19171 2.5,-1.16407 z"
                    id="path41191"
                    stroke-width="0.5"
                    stroke-linecap="round"
                    stroke-linejoin="round"
                    stroke="black" />
                <path
                    d="m 269.44922,654.86523 c -8.57194,0.4292 -14.53929,4.93655 -18.3711,11.5586 -3.8318,6.62205 -5.66832,15.32934 -6.44335,24.5332 a 1.0583349,1.0583349 0 0 0 0.96484,1.14453 1.0583349,1.0583349 0 0 0 1.14453,-0.96679 c 0.76068,-9.03337 2.59291,-17.47542 6.16602,-23.6504 3.5731,-6.17497 8.7457,-10.11036 16.64453,-10.50585 a 1.0583349,1.0583349 0 0 0 1.0039,-1.10938 1.0583349,1.0583349 0 0 0 -1.10937,-1.00391 z"
                    id="path41193"
                    stroke-width="0.5"
                    stroke-linecap="round"
                    stroke-linejoin="round"
                    stroke="black" />
                <path
                    d="m 249.47656,670.13672 c -2.87075,0.59972 -5.00461,2.30558 -6.5332,4.67773 -5.68537,8.82291 -5.15324,22.50976 -4.16797,30.53907 a 1.0583349,1.0583349 0 0 0 1.17969,0.92187 1.0583349,1.0583349 0 0 0 0.92187,-1.17969 c -0.95852,-7.81135 -1.24923,-21.22812 3.84571,-29.13476 1.30745,-2.02898 2.87065,-3.26795 5.1875,-3.75196 a 1.0583349,1.0583349 0 0 0 0.82031,-1.25195 1.0583349,1.0583349 0 0 0 -1.25391,-0.82031 z"
                    id="path41195"
                    stroke-width="0.5"
                    stroke-linecap="round"
                    stroke-linejoin="round"
                    stroke="black" />
                <path
                    d="m 243.625,698.43945 a 1.0583349,1.0583349 0 0 0 -1.43359,0.4336 c -1.42961,2.66698 -12.20518,22.97473 -15.18164,30.98242 -0.0508,0.0736 -1.46364,2.12112 -2.94727,4.39453 -0.75503,1.15695 -1.51391,2.35294 -2.10352,3.35156 -0.2948,0.49931 -0.54698,0.94811 -0.74023,1.33399 -0.19325,0.38587 -0.34808,0.60889 -0.4043,1.12109 -0.09,0.82016 0.0135,1.87345 0.33985,2.96289 0.32631,1.08944 0.86456,2.25492 2.0332,2.85938 0.98906,0.5116 1.94006,0.37634 2.32812,0.32617 0.19404,-0.0251 0.22606,-0.0122 0.19532,-0.0215 -0.0307,-0.009 -0.0257,-0.0423 0.10937,0.13086 0.45225,0.57991 0.95738,1.26165 1.63086,1.77149 0.33674,0.25491 0.74336,0.49774 1.29883,0.52343 0.55547,0.0257 1.16126,-0.28596 1.51172,-0.71679 0.0454,-0.0558 0.02,-0.0282 0.0566,-0.0703 0.20182,0.0767 0.46656,0.20501 1.29492,0.30664 1.23042,0.15095 2.27875,-0.28417 2.88086,-0.92383 0.60211,-0.63966 0.84104,-1.35252 1.02734,-1.76367 -0.009,0.0188 0.40073,-0.3399 1.01758,-0.84766 0.61685,-0.50776 1.38349,-1.37832 1.46094,-2.63672 0.0442,-0.7184 -0.0855,-1.54559 -0.2832,-2.53125 -0.19773,-0.98566 -0.47698,-2.08752 -0.78907,-3.14453 -0.31208,-1.05701 -0.65539,-2.06508 -0.99023,-2.87109 -0.16742,-0.40301 -0.3295,-0.75448 -0.50586,-1.0586 -0.0432,-0.0745 -0.15476,-0.13912 -0.19531,-0.21094 0.0464,-0.11123 0.071,-0.18728 0.16992,-0.375 0.31615,-0.6002 0.87512,-1.50149 1.59375,-2.57226 1.43726,-2.14153 3.52301,-4.9869 5.74805,-7.86133 2.22504,-2.87443 4.59161,-5.78359 6.59375,-8.06055 1.00106,-1.13847 1.91192,-2.12005 2.65625,-2.85156 0.74432,-0.73151 1.3887,-1.22318 1.54297,-1.30078 a 1.0583349,1.0583349 0 0 0 0.4707,-1.42187 1.0583349,1.0583349 0 0 0 -1.42188,-0.46875 c -0.66907,0.33658 -1.27135,0.8926 -2.07422,1.68164 -0.80286,0.78903 -1.73887,1.8016 -2.76171,2.96484 -2.04569,2.32649 -4.43287,5.25758 -6.67969,8.16016 -2.24683,2.90257 -4.3505,5.77101 -5.83203,7.97851 -0.74077,1.10375 -1.32471,2.03609 -1.70899,2.76563 -0.19213,0.36476 -0.33608,0.66728 -0.43164,0.99609 -0.0478,0.16441 -0.0954,0.33274 -0.0781,0.60156 0.0173,0.26883 0.2045,0.76842 0.6289,0.99024 -0.31676,-0.16556 -0.15325,-0.12646 -0.0527,0.0469 0.10052,0.17333 0.23779,0.45951 0.38281,0.8086 0.29004,0.69816 0.61803,1.65554 0.91406,2.6582 0.29604,1.00266 0.56252,2.05557 0.74414,2.96094 0.18163,0.90536 0.26332,1.70453 0.2461,1.98437 -0.0336,0.54627 -0.24964,0.76757 -0.69336,1.13281 -0.44372,0.36525 -1.17221,0.65985 -1.60156,1.60743 -0.23452,0.51756 -0.42633,0.96191 -0.63868,1.1875 -0.21234,0.22558 -0.36069,0.36388 -1.08203,0.27539 -0.86241,-0.10581 -0.9096,-0.2281 -1.46875,-0.36133 -0.27957,-0.0666 -0.91159,0.0364 -1.1914,0.2539 -0.21779,0.16926 -0.32433,0.32394 -0.45899,0.49415 -0.022,-0.0134 0.005,0.004 -0.0234,-0.0176 -0.29696,-0.2248 -0.79084,-0.81102 -1.23829,-1.38477 -0.31482,-0.40368 -0.72192,-0.721 -1.16601,-0.85547 -0.44409,-0.13447 -0.82517,-0.0857 -1.08008,-0.0527 -0.50982,0.0659 -0.60017,0.14284 -1.08398,-0.10742 -0.30427,-0.15738 -0.73707,-0.77982 -0.97852,-1.58594 -0.24145,-0.80612 -0.30426,-1.75522 -0.26367,-2.125 -0.0236,0.21471 0.0369,-0.092 0.19336,-0.4043 0.15642,-0.31234 0.38977,-0.73057 0.66992,-1.20508 0.56031,-0.94901 1.30915,-2.12713 2.05469,-3.26953 1.49106,-2.2848 2.96875,-4.42773 2.96875,-4.42773 a 1.0584408,1.0584408 0 0 0 0.12304,-0.23633 c 2.72412,-7.41225 13.71901,-28.24086 15.12891,-30.87109 a 1.0583349,1.0583349 0 0 0 -0.43164,-1.4336 z"
                    id="path41197"
                    stroke-width="0.5"
                    stroke-linecap="round"
                    stroke-linejoin="round"
                    stroke="black" />
                <path
                    d="m 246.99023,714.05469 a 1.0583349,1.0583349 0 0 0 -1.19921,0.89453 c 0,0 -0.50719,3.46202 -0.66211,7.38476 -0.0775,1.96137 -0.07,4.04033 0.14257,5.90235 0.21257,1.86202 0.57395,3.51449 1.51172,4.70312 3.1757,4.02521 8.73828,3.67383 8.73828,3.67383 a 1.0583349,1.0583349 0 0 0 1.00782,-1.10742 1.0583349,1.0583349 0 0 0 -1.10743,-1.00781 c 0,0 -4.6101,0.1284 -6.97656,-2.8711 -0.44777,-0.56755 -0.87752,-1.94205 -1.07031,-3.63086 -0.19279,-1.68881 -0.2057,-3.6851 -0.13086,-5.58007 0.14968,-3.78996 0.64063,-7.16211 0.64063,-7.16211 a 1.0583349,1.0583349 0 0 0 -0.89454,-1.19922 z"
                    id="path41199"
                    stroke-width="0.5"
                    stroke-linecap="round"
                    stroke-linejoin="round"
                    stroke="black" />
                <path
                    d="m 240.77734,721.02148 a 1.0583349,1.0583349 0 0 0 -0.9414,1.16407 c 0.21584,2.03236 0.71795,3.81616 1.65429,5.2539 0.93635,1.43775 2.33788,2.49346 4.11524,2.97071 a 1.0583349,1.0583349 0 0 0 1.29687,-0.74805 1.0583349,1.0583349 0 0 0 -0.74804,-1.29688 c -1.31822,-0.35395 -2.20706,-1.03046 -2.89063,-2.08007 -0.68357,-1.04962 -1.12956,-2.50774 -1.32226,-4.32227 a 1.0583349,1.0583349 0 0 0 -1.16407,-0.94141 z"
                    id="path41201"
                    stroke-width="0.5"
                    stroke-linecap="round"
                    stroke-linejoin="round"
                    stroke="black" />
                <path
                    d="m 252.76953,675.65039 a 1.0583349,1.0583349 0 0 0 -1.11914,0.99414 l -0.19531,3.30859 a 1.0583349,1.0583349 0 0 0 0.99414,1.11915 1.0583349,1.0583349 0 0 0 1.11914,-0.99415 l 0.19531,-3.30859 a 1.0583349,1.0583349 0 0 0 -0.99414,-1.11914 z"
                    id="path41203"
                    stroke-width="0.5"
                    stroke-linecap="round"
                    stroke-linejoin="round"
                    stroke="black" />
                <path
                    d="m 255.31641,667.54883 a 1.0583349,1.0583349 0 0 0 -1.35743,0.63086 l -1.55664,4.25976 a 1.0583349,1.0583349 0 0 0 0.63086,1.35742 1.0583349,1.0583349 0 0 0 1.35742,-0.63085 l 1.55665,-4.25977 a 1.0583349,1.0583349 0 0 0 -0.63086,-1.35742 z"
                    id="path41205"
                    stroke-width="0.5"
                    stroke-linecap="round"
                    stroke-linejoin="round"
                    stroke="black" />
                <path
                    d="m 259.8125,661.97656 a 1.0583349,1.0583349 0 0 0 -0.73047,0.35156 l -2.28125,2.5586 a 1.0583349,1.0583349 0 0 0 0.084,1.49414 1.0583349,1.0583349 0 0 0 1.49414,-0.0859 l 2.2832,-2.55664 a 1.0583349,1.0583349 0 0 0 -0.0859,-1.49414 1.0583349,1.0583349 0 0 0 -0.76367,-0.26758 z"
                    id="path41207"
                    stroke-width="0.5"
                    stroke-linecap="round"
                    stroke-linejoin="round"
                    stroke="black" />
                <path
                    d="m 267.66016,658.38477 -4.69922,1.47265 a 1.0583349,1.0583349 0 0 0 -0.69141,1.32617 1.0583349,1.0583349 0 0 0 1.32617,0.69336 l 4.69727,-1.47265 a 1.0583349,1.0583349 0 0 0 0.69336,-1.32618 1.0583349,1.0583349 0 0 0 -1.32617,-0.69335 z"
                    id="path41209"
                    stroke-width="0.5"
                    stroke-linecap="round"
                    stroke-linejoin="round"
                    stroke="black" />
                <path
                    d="m 292.99609,656.07227 c -0.66645,-0.0362 -1.33368,0.0431 -1.99414,0.25781 a 1.0583349,1.0583349 0 0 0 -0.67968,1.33398 1.0583349,1.0583349 0 0 0 1.33398,0.67969 c 1.63172,-0.53046 3.55456,0.21839 5.62109,2.24219 2.06654,2.0238 4.11033,5.24006 5.71289,9.04687 3.20512,7.61363 4.63192,17.57464 1.88868,25.19336 a 1.0583349,1.0583349 0 0 0 0.63671,1.35547 1.0583349,1.0583349 0 0 0 1.35352,-0.63672 c 3.01609,-8.3765 1.44271,-18.72803 -1.92773,-26.73437 -1.68522,-4.00318 -3.82175,-7.42333 -6.1836,-9.73633 -1.77138,-1.73475 -3.76236,-2.89349 -5.76172,-3.00195 z"
                    id="path41211"
                    stroke-width="0.5"
                    stroke-linecap="round"
                    stroke-linejoin="round"
                    stroke="black" />
                <path
                    d="m 295.10937,656.5918 a 1.0583349,1.0583349 0 0 0 -1.15429,0.95117 1.0583349,1.0583349 0 0 0 0.94922,1.15625 c 4.20385,0.40997 8.16764,4.56381 11.44726,11.32031 3.23286,6.66014 5.73384,15.69737 7.35547,25.36524 -1.6223,2.79661 -4.5506,3.85387 -6.63281,3.74804 a 1.0583349,1.0583349 0 0 0 -1.11133,1.00391 1.0583349,1.0583349 0 0 0 1.00391,1.11133 c 2.95549,0.15021 6.81117,-1.31318 8.81054,-5.14453 a 1.0584408,1.0584408 0 0 0 0.10743,-0.66211 c -1.64196,-9.96773 -4.20927,-19.30076 -7.62891,-26.34571 -3.41964,-7.04495 -7.74368,-11.97701 -13.14649,-12.5039 z"
                    id="path41213"
                    stroke-width="0.5"
                    stroke-linecap="round"
                    stroke-linejoin="round"
                    stroke="black" />
                <path
                    d="m 314.22852,695.39648 a 1.0583349,1.0583349 0 0 0 -0.78321,0.20704 1.0583349,1.0583349 0 0 0 -0.19726,1.48437 l 18.78711,24.56445 a 1.0584408,1.0584408 0 0 0 1.03711,0.39844 c 0,0 0.77212,-0.14418 1.64843,-0.17187 0.87632,-0.0277 1.78876,0.23033 1.84375,0.2832 0.12377,0.11899 0.43756,1.16386 0.44532,2.16601 0.008,1.00216 -0.1211,1.88672 -0.1211,1.88672 a 1.0583349,1.0583349 0 0 0 0.89063,1.20313 1.0583349,1.0583349 0 0 0 1.20117,-0.89063 c 0,0 0.15573,-1.0207 0.14648,-2.21484 -0.009,-1.19414 -0.0151,-2.63688 -1.0957,-3.67578 -1.01182,-0.97278 -2.30873,-0.90876 -3.37695,-0.875 -0.70051,0.0221 -0.94353,0.0826 -1.29493,0.13672 l -18.43164,-24.09571 a 1.0583349,1.0583349 0 0 0 -0.69921,-0.40625 z"
                    id="path41215"
                    stroke-width="0.5"
                    stroke-linecap="round"
                    stroke-linejoin="round"
                    stroke="black" />
                <path
                    d="m 310.83789,711.55859 a 1.0583349,1.0583349 0 0 0 -1.40039,0.53321 1.0583349,1.0583349 0 0 0 0.5332,1.39843 c -0.13116,-0.0588 0.0406,0.0222 0.17969,0.0996 0.13909,0.0774 0.33565,0.18867 0.57813,0.32618 0.48494,0.27501 1.15575,0.65833 1.94921,1.11328 1.58694,0.90989 3.66286,2.10582 5.72461,3.29492 3.7222,2.14675 6.71408,3.87594 7.39453,4.26953 -0.0473,0.13627 -0.089,0.10582 -0.11914,0.26367 -0.15905,0.83405 0.0755,2.04691 1.08985,3.00195 1.127,1.06113 2.65235,1.2811 3.87695,1.36133 1.2246,0.0802 2.23242,-0.0449 2.23242,-0.0449 a 1.0583349,1.0583349 0 0 0 0.92188,-1.17969 1.0583349,1.0583349 0 0 0 -1.17969,-0.92187 c 0,0 -0.82876,0.10114 -1.83594,0.0352 -1.00718,-0.066 -2.11124,-0.36429 -2.56445,-0.79101 -0.56592,-0.53285 -0.51419,-0.79543 -0.46289,-1.06445 0.0513,-0.26902 0.18359,-0.43946 0.18359,-0.43946 a 1.0584408,1.0584408 0 0 0 -0.28515,-1.59179 c 0,0 -4.06827,-2.3533 -8.19336,-4.73243 -2.06255,-1.18956 -4.1405,-2.38524 -5.73047,-3.29687 -0.79499,-0.45582 -1.46656,-0.84099 -1.95703,-1.11914 -0.24524,-0.13907 -0.44541,-0.25147 -0.59375,-0.33399 -0.14834,-0.0825 -0.15485,-0.0978 -0.3418,-0.18164 z"
                    id="path41217"
                    stroke-width="0.5"
                    stroke-linecap="round"
                    stroke-linejoin="round"
                    stroke="black" />
                <path
                    d="m 329.57031,729.61719 a 1.0583349,1.0583349 0 0 0 -1.03515,1.08203 c 0,0 0.0129,0.92017 0.36328,1.95117 0.35033,1.031 1.12165,2.34323 2.65625,2.80469 a 1.0583349,1.0583349 0 0 0 1.31836,-0.70899 1.0583349,1.0583349 0 0 0 -0.70703,-1.31836 c -0.66639,-0.20038 -1.03042,-0.77057 -1.26368,-1.45703 -0.23326,-0.68646 -0.25195,-1.31836 -0.25195,-1.31836 a 1.0583349,1.0583349 0 0 0 -1.08008,-1.03515 z"
                    id="path41219"
                    stroke-width="0.5"
                    stroke-linecap="round"
                    stroke-linejoin="round"
                    stroke="black" />
                <path
                    d="m 337.63086,731.12891 a 1.0583349,1.0583349 0 0 0 -1.4707,0.2832 c 0,0 -0.16491,0.24128 -0.43555,0.49609 -0.27064,0.25481 -0.60439,0.42305 -0.73242,0.42969 a 1.0583349,1.0583349 0 0 0 -1.00196,1.11133 1.0583349,1.0583349 0 0 0 1.11133,1.00195 c 0.95964,-0.0498 1.62146,-0.57567 2.07422,-1.00195 0.45277,-0.42629 0.73828,-0.85156 0.73828,-0.85156 a 1.0583349,1.0583349 0 0 0 -0.2832,-1.46875 z"
                    id="path41221"
                    stroke-width="0.5"
                    stroke-linecap="round"
                    stroke-linejoin="round"
                    stroke="black" />
                <path
                    d="m 340.13086,727.5 a 1.0583349,1.0583349 0 0 0 -0.76367,0.27344 l -1.28711,1.16992 a 1.0583349,1.0583349 0 0 0 -0.0723,1.49414 1.0583349,1.0583349 0 0 0 1.4961,0.0723 l 1.28711,-1.16993 a 1.0583349,1.0583349 0 0 0 0.0723,-1.49414 1.0583349,1.0583349 0 0 0 -0.73242,-0.3457 z"
                    id="path41223"
                    stroke-width="0.5"
                    stroke-linecap="round"
                    stroke-linejoin="round"
                    stroke="black" />
                <path
                    d="m 339.46875,722.32227 a 1.0583349,1.0583349 0 0 0 -1.37695,0.58398 1.0583349,1.0583349 0 0 0 0.58593,1.37891 c 0,0 0.5285,0.21735 1.00586,0.53906 0.23869,0.16085 0.45012,0.34868 0.54883,0.47461 0.0987,0.12593 0.0618,0.121 0.0703,0.0586 a 1.0583349,1.0583349 0 0 0 0.90625,1.18945 1.0583349,1.0583349 0 0 0 1.19141,-0.90625 c 0.0906,-0.66781 -0.18894,-1.24912 -0.50195,-1.64843 -0.31301,-0.39932 -0.68188,-0.68706 -1.03321,-0.92383 -0.70265,-0.47353 -1.39648,-0.74609 -1.39648,-0.74609 z"
                    id="path41225"
                    stroke-width="0.5"
                    stroke-linecap="round"
                    stroke-linejoin="round"
                    stroke="black" />
                <path
                    d="m 335.65234,727.33203 c -1.6909,0.53128 -3.154,1.71014 -3.91601,3.58594 a 1.0583349,1.0583349 0 0 0 0.58203,1.3789 1.0583349,1.0583349 0 0 0 1.37891,-0.58203 c 0.54318,-1.33711 1.36277,-1.97773 2.58984,-2.36328 a 1.0583349,1.0583349 0 0 0 0.69336,-1.32812 1.0583349,1.0583349 0 0 0 -1.32813,-0.69141 z"
                    id="path41227"
                    stroke-width="0.5"
                    stroke-linecap="round"
                    stroke-linejoin="round"
                    stroke="black" />
                <path
                    d="m 261.10862,758.47961 c -0.73123,1.98714 9.89756,22.69987 11.71065,21.44797 l -15.07726,67.4348 c 0,0 7.0525,4.42601 8.41656,3.97616 1.36406,-0.44987 23.95818,-42.40252 23.95818,-42.40252 0,0 25.51091,38.07809 25.72856,39.32608 0.21764,1.24799 0.29019,2.10418 1.94447,4.01968 1.65431,1.91551 9.54756,-2.3233 9.50492,-4.48402 -0.0365,-1.85206 -16.56005,-70.80159 -17.87792,-75.80797 2.92645,-4.22937 5.57745,-22.19704 4.86129,-22.34766 l -19.05336,7.56047 -21.79598,3.23606 z"
                    id="path41229"
                    stroke-width="1.05833"
                    stroke-linecap="round"
                    stroke-linejoin="round"
                    stroke="black" />
                <path
                    d="m 259.55664,846.14648 a 1.0583349,1.0583349 0 0 0 -1.44727,0.38282 l -4.07812,7.00195 a 1.0584408,1.0584408 0 0 0 0.36719,1.4375 c 0,0 3.38022,2.20764 4.23242,4.70508 0.5532,1.62127 1.25586,2.97963 1.98633,3.98047 0.36523,0.50042 0.73411,0.91283 1.13867,1.23242 0.40456,0.31958 0.86238,0.60272 1.50586,0.5664 0.0723,-0.004 1.14805,-0.0172 2.48633,-0.0195 1.33828,-0.002 3.04039,-10e-4 4.71484,0.002 3.34891,0.006 6.58594,0.0195 6.58594,0.0195 a 1.0584408,1.0584408 0 0 0 1.0625,-1.06446 c 0,0 0.1005,-3.51708 -2.72656,-4.82031 -1.90594,-0.8786 -4.42438,-1.70496 -6.5,-2.51562 -1.03782,-0.40533 -1.96532,-0.80792 -2.59961,-1.16992 -0.6343,-0.362 -0.85688,-0.75736 -0.81055,-0.58008 -0.26071,-0.99753 -0.17695,-2.5805 0.0195,-3.85938 0.19648,-1.27887 0.46875,-2.24609 0.46875,-2.24609 a 1.0583349,1.0583349 0 0 0 -0.73047,-1.30469 1.0583349,1.0583349 0 0 0 -1.30664,0.73047 c 0,0 -0.3083,1.08504 -0.52539,2.49805 -0.21708,1.413 -0.37946,3.1603 0.0273,4.71679 0.26025,0.99575 1.0015,1.4222 1.8086,1.88282 0.80709,0.46061 1.79822,0.88337 2.87695,1.30468 2.15746,0.84262 4.67096,1.67677 6.38477,2.4668 0.77123,0.35553 1.11028,1.14241 1.29297,1.83984 -0.91286,-0.003 -2.6153,-0.0105 -5.32227,-0.0156 -1.67584,-0.003 -3.38147,-0.004 -4.72461,-0.002 -1.34313,0.002 -2.22404,0.002 -2.60156,0.0234 0.19363,-0.0109 0.11165,0.0335 -0.0742,-0.11328 -0.18587,-0.14683 -0.45609,-0.43099 -0.74024,-0.82031 -0.56829,-0.77864 -1.20178,-1.97537 -1.69335,-3.41602 -0.98996,-2.90115 -3.26007,-4.52855 -4.29883,-5.20898 l 3.60156,-6.1875 a 1.0583349,1.0583349 0 0 0 -0.38086,-1.44727 z"
                    id="path41231"
                    stroke-width="0.5"
                    stroke-linecap="round"
                    stroke-linejoin="round"
                    stroke="black" />
                <path
                    d="m 325.88672,846.73242 a 1.0583349,1.0583349 0 0 0 -0.83399,1.24219 c 0,0 0.28646,1.45239 0.80274,3.18359 0.51627,1.7312 1.20641,3.73649 2.3125,5.08985 0.7445,0.91096 1.93776,1.10638 3.02734,0.98047 1.08958,-0.12592 2.23096,-0.53208 3.39844,-1.06055 2.33496,-1.05694 4.75076,-2.63439 6.33398,-3.74414 0.50815,-0.35618 0.64986,-0.30255 1.02735,-0.0957 0.37749,0.20685 0.88104,0.74842 1.30273,1.41211 0.6187,0.97378 0.81802,1.65088 1.01758,2.19922 -5.7024,2.69417 -11.28302,5.7844 -16.55859,8.50977 -0.51008,-0.34096 -1.67955,-1.20079 -2.16016,-2.86133 -0.71182,-2.45939 -1.81908,-4.96408 -2.75586,-6.92969 -0.46839,-0.9828 -0.89559,-1.83061 -1.20508,-2.45508 -0.15474,-0.31223 -0.28073,-0.57051 -0.36328,-0.75 -0.0825,-0.17948 -0.11937,-0.41088 -0.0742,-0.125 a 1.0583349,1.0583349 0 0 0 -1.21093,-0.88085 1.0583349,1.0583349 0 0 0 -0.87891,1.21093 c 0.0658,0.41679 0.13882,0.4592 0.24023,0.67969 0.10141,0.22049 0.23331,0.48727 0.39063,0.80469 0.31463,0.63484 0.73248,1.46693 1.18945,2.42578 0.91395,1.9177 1.97999,4.3451 2.63477,6.60742 0.87542,3.02465 3.58593,4.44531 3.58593,4.44531 a 1.0584408,1.0584408 0 0 0 0.98829,0.0117 c 5.79348,-2.97213 11.86951,-6.42055 18,-9.2539 a 1.0584408,1.0584408 0 0 0 0.56445,-1.2793 c 0,0 -0.57046,-1.84669 -1.61719,-3.49414 -0.52336,-0.82373 -1.1587,-1.63418 -2.07226,-2.13477 -0.91357,-0.50059 -2.21521,-0.51146 -3.25977,0.22071 -1.52218,1.06697 -3.88308,2.59216 -5.99219,3.54687 -1.05455,0.47736 -2.05005,0.8038 -2.76758,0.88672 -0.71752,0.0829 -0.99853,-0.0358 -1.14648,-0.2168 -0.67885,-0.83061 -1.43686,-2.72909 -1.92187,-4.35547 -0.48502,-1.62638 -0.75391,-2.98828 -0.75391,-2.98828 a 1.0583349,1.0583349 0 0 0 -1.24414,-0.83203 z"
                    id="path41233"
                    stroke-width="0.5"
                    stroke-linecap="round"
                    stroke-linejoin="round"
                    stroke="black" />
                <path id="circle41235"
                    d="m 292.4419,703.51105 a 1.1246393,1.1246393 0 0 1 -1.12464,1.12464 1.1246393,1.1246393 0 0 1 -1.12464,-1.12464 1.1246393,1.1246393 0 0 1 1.12464,-1.12464 1.1246393,1.1246393 0 0 1 1.12464,1.12464 z"
                    stroke-width="0.132291"
                    stroke="black" />
                <path id="circle41237"
                    d="m 296.09876,702.38641 a 1.1246393,1.1246393 0 0 1 -1.12464,1.12464 1.1246393,1.1246393 0 0 1 -1.12464,-1.12464 1.1246393,1.1246393 0 0 1 1.12464,-1.12464 1.1246393,1.1246393 0 0 1 1.12464,1.12464 z"
                    stroke-width="0.132291"
                    stroke="black" />
                <path id="circle41239"
                    d="m 293.78058,707.69403 a 1.1246393,1.1246393 0 0 1 -1.12464,1.12464 1.1246393,1.1246393 0 0 1 -1.12463,-1.12464 1.1246393,1.1246393 0 0 1 1.12463,-1.12464 1.1246393,1.1246393 0 0 1 1.12464,1.12464 z"
                    stroke-width="0.132291"
                    stroke="black" />
                <path id="circle41241"
                    d="m 294.03092,713.07416 a 1.1246393,1.1246393 0 0 1 -1.12464,1.12464 1.1246393,1.1246393 0 0 1 -1.12464,-1.12464 1.1246393,1.1246393 0 0 1 1.12464,-1.12464 1.1246393,1.1246393 0 0 1 1.12464,1.12464 z"
                    stroke-width="0.132291"
                    stroke="black" />
                <path id="circle41243"
                    d="m 298.13038,706.43152 a 1.1246393,1.1246393 0 0 1 -1.12464,1.12464 1.1246393,1.1246393 0 0 1 -1.12464,-1.12464 1.1246393,1.1246393 0 0 1 1.12464,-1.12464 1.1246393,1.1246393 0 0 1 1.12464,1.12464 z"
                    stroke-width="0.132291"
                    stroke="black" />
                <path id="circle41245"
                    d="m 297.23795,710.34961 a 1.1246393,1.1246393 0 0 1 -1.12464,1.12464 1.1246393,1.1246393 0 0 1 -1.12464,-1.12464 1.1246393,1.1246393 0 0 1 1.12464,-1.12464 1.1246393,1.1246393 0 0 1 1.12464,1.12464 z"
                    stroke-width="0.132291"
                    stroke="black" />
                <path id="circle41247"
                    d="m 296.90055,715.97278 a 1.1246393,1.1246393 0 0 1 -1.12464,1.12464 1.1246393,1.1246393 0 0 1 -1.12464,-1.12464 1.1246393,1.1246393 0 0 1 1.12464,-1.12464 1.1246393,1.1246393 0 0 1 1.12464,1.12464 z"
                    stroke-width="0.132291"
                    stroke="black" />
                <path id="circle41249"
                    d="m 298.52945,713.70898 a 1.1246393,1.1246393 0 0 1 -1.12463,1.12464 1.1246393,1.1246393 0 0 1 -1.12464,-1.12464 1.1246393,1.1246393 0 0 1 1.12464,-1.12463 1.1246393,1.1246393 0 0 1 1.12463,1.12463 z"
                    stroke-width="0.132291"
                    stroke="black" />
                <path id="circle41251"
                    d="m 300.51749,708.81494 a 1.1246393,1.1246393 0 0 1 -1.12464,1.12464 1.1246393,1.1246393 0 0 1 -1.12464,-1.12464 1.1246393,1.1246393 0 0 1 1.12464,-1.12464 1.1246393,1.1246393 0 0 1 1.12464,1.12464 z"
                    stroke-width="0.132291"
                    stroke="black" />
                <path id="circle41253"
                    d="m 303.82609,699.97021 a 1.1246393,1.1246393 0 0 1 -1.12464,1.12464 1.1246393,1.1246393 0 0 1 -1.12464,-1.12464 1.1246393,1.1246393 0 0 1 1.12464,-1.12463 1.1246393,1.1246393 0 0 1 1.12464,1.12463 z"
                    stroke-width="0.132291"
                    stroke="black" />
                <path id="circle41255"
                    d="m 301.45347,712.25415 a 1.1246393,1.1246393 0 0 1 -1.12464,1.12464 1.1246393,1.1246393 0 0 1 -1.12464,-1.12464 1.1246393,1.1246393 0 0 1 1.12464,-1.12464 1.1246393,1.1246393 0 0 1 1.12464,1.12464 z"
                    stroke-width="0.132291"
                    stroke="black" />
                <path id="circle41257"
                    d="m 303.39435,707.1026 a 1.1246393,1.1246393 0 0 1 -1.12464,1.12464 1.1246393,1.1246393 0 0 1 -1.12463,-1.12464 1.1246393,1.1246393 0 0 1 1.12463,-1.12464 1.1246393,1.1246393 0 0 1 1.12464,1.12464 z"
                    stroke-width="0.132291"
                    stroke="black" />
                <path id="circle41259"
                    d="m 305.29532,703.54364 a 1.1246393,1.1246393 0 0 1 -1.12464,1.12464 1.1246393,1.1246393 0 0 1 -1.12463,-1.12464 1.1246393,1.1246393 0 0 1 1.12463,-1.12464 1.1246393,1.1246393 0 0 1 1.12464,1.12464 z"
                    stroke-width="0.132291"
                    stroke="black" />
                <path id="circle41261"
                    d="m 307.03669,709.85974 a 1.1246393,1.1246393 0 0 1 -1.12464,1.12464 1.1246393,1.1246393 0 0 1 -1.12464,-1.12464 1.1246393,1.1246393 0 0 1 1.12464,-1.12464 1.1246393,1.1246393 0 0 1 1.12464,1.12464 z"
                    stroke-width="0.132291"
                    stroke="black" />
                <path id="circle41263"
                    d="m 304.59879,712.00745 a 1.1246393,1.1246393 0 0 1 -1.12464,1.12464 1.1246393,1.1246393 0 0 1 -1.12464,-1.12464 1.1246393,1.1246393 0 0 1 1.12464,-1.12464 1.1246393,1.1246393 0 0 1 1.12464,1.12464 z"
                    stroke-width="0.132291"
                    stroke="black" />
                <path id="circle41265"
                    d="m 303.85145,715.40674 a 1.1246393,1.1246393 0 0 1 -1.12464,1.12464 1.1246393,1.1246393 0 0 1 -1.12464,-1.12464 1.1246393,1.1246393 0 0 1 1.12464,-1.12464 1.1246393,1.1246393 0 0 1 1.12464,1.12464 z"
                    stroke-width="0.132291"
                    stroke="black" />
                <path id="circle41267"
                    d="m 300.86576,717.09735 a 1.1246393,1.1246393 0 0 1 -1.12464,1.12464 1.1246393,1.1246393 0 0 1 -1.12464,-1.12464 1.1246393,1.1246393 0 0 1 1.12464,-1.12464 1.1246393,1.1246393 0 0 1 1.12464,1.12464 z"
                    stroke-width="0.132291"
                    stroke="black" />
                <path id="circle41269"
                    d="m 303.82242,720.11932 a 1.1246393,1.1246393 0 0 1 -1.12464,1.12464 1.1246393,1.1246393 0 0 1 -1.12463,-1.12464 1.1246393,1.1246393 0 0 1 1.12463,-1.12464 1.1246393,1.1246393 0 0 1 1.12464,1.12464 z"
                    stroke-width="0.132291"
                    stroke="black" />
                <path id="circle41271"
                    d="m 306.51792,717.79749 a 1.1246393,1.1246393 0 0 1 -1.12464,1.12463 1.1246393,1.1246393 0 0 1 -1.12464,-1.12463 1.1246393,1.1246393 0 0 1 1.12464,-1.12464 1.1246393,1.1246393 0 0 1 1.12464,1.12464 z"
                    stroke-width="0.132291"
                    stroke="black" />
                <path id="circle41273"
                    d="m 308.01984,714.44531 a 1.1246393,1.1246393 0 0 1 -1.12464,1.12464 1.1246393,1.1246393 0 0 1 -1.12464,-1.12464 1.1246393,1.1246393 0 0 1 1.12464,-1.12464 1.1246393,1.1246393 0 0 1 1.12464,1.12464 z"
                    stroke-width="0.132291"
                    stroke="black" />
                <path
                    d="m 423.50391,654.07031 c -4.6551,-0.0161 -9.45376,0.77388 -14.28907,2.07813 -9.6706,2.6085 -19.541,7.27704 -28.89453,11.8457 a 1.0584408,1.0584408 0 0 0 -0.58398,0.80664 c -1.84274,13.23765 0.47673,24.9783 4.79492,35.89453 a 1.0584408,1.0584408 0 0 0 1.4043,0.58203 c 5.02186,-2.1636 9.25974,-5.5057 13.20507,-9.23437 l -7.39648,59.57031 a 1.0584408,1.0584408 0 0 0 0.86914,1.17188 c 19.27754,3.34502 40.60245,4.21464 62.63867,4.22265 a 1.0584408,1.0584408 0 0 0 1.0586,-1.08398 c 0,0 -0.58509,-23.71951 -3.22852,-48.38867 -1.32171,-12.33459 -3.15421,-24.90548 -5.70508,-34.91797 -1.27543,-5.00625 -2.72746,-9.37259 -4.41601,-12.7793 -1.68856,-3.40671 -3.59946,-5.91245 -6.03321,-7.00977 -4.25721,-1.91947 -8.76873,-2.74172 -13.42382,-2.75781 z m -0.0293,2.11524 c 4.40906,0.013 8.6314,0.79014 12.58398,2.57226 1.67116,0.75349 3.42362,2.82732 5.00586,6.01953 1.58224,3.19222 3.00874,7.44323 4.26172,12.36133 2.50596,9.8362 4.33653,22.34155 5.65235,34.6211 2.53469,23.65441 3.12843,45.47018 3.17187,47.11914 -21.21072,-0.0364 -41.67535,-0.92022 -60.17773,-4.03907 l 7.61132,-61.28515 c 2.81785,-2.83825 5.59206,-5.74733 8.37305,-8.53125 a 1.0583349,1.0583349 0 0 0 0,-1.4961 1.0583349,1.0583349 0 0 0 -1.49805,0 c -7.20001,7.20759 -13.74458,15.11892 -22.35351,19.22852 -3.87303,-10.18283 -5.89274,-20.97184 -4.3086,-33.11328 9.17307,-4.47365 18.7438,-8.96288 27.96875,-11.45117 4.70282,-1.26852 9.29993,-2.01885 13.70899,-2.00586 z"
                    id="path41275"
                    stroke-width="0.5"
                    stroke-linecap="round"
                    stroke-linejoin="round"
                    stroke="black" />
                <path
                    d="m 400.98633,694.89453 a 1.0583349,1.0583349 0 0 0 -1.34961,0.64649 1.0583349,1.0583349 0 0 0 0.64648,1.35156 l 46.2461,16.30469 a 1.0583349,1.0583349 0 0 0 1.34961,-0.64649 1.0583349,1.0583349 0 0 0 -0.64454,-1.34961 z"
                    id="path41277"
                    stroke-width="0.5"
                    stroke-linecap="round"
                    stroke-linejoin="round"
                    stroke="black" />
                <path
                    d="m 448.44145,747.2199 c -3.31168,-17.68754 -3.58283,-26.15374 -1.29291,-35.30868 2.28992,-9.15494 9.83367,-9.09466 17.27959,-5.27423 -11.18667,10.16938 -7.43309,25.90439 -3.66316,43.12767 -4.61961,2.27332 -10.2211,4.051 -12.32352,-2.54476 z"
                    id="path41279"
                    stroke-width="1.05833"
                    stroke-linecap="round"
                    stroke-linejoin="round"
                    stroke="black" />
                <path
                    d="m 463.97852,706.51367 a 1.0583349,1.0583349 0 0 0 -1.35547,0.63477 1.0583349,1.0583349 0 0 0 0.63281,1.35547 c 1.86697,0.67719 2.79233,1.72125 3.35742,3.37109 0.56509,1.64984 0.65522,3.94835 0.45313,6.77344 a 1.0583349,1.0583349 0 0 0 0.98046,1.13281 1.0583349,1.0583349 0 0 0 1.13086,-0.98047 c 0.2104,-2.9412 0.16766,-5.48151 -0.5625,-7.61328 -0.73015,-2.13177 -2.26307,-3.81285 -4.63671,-4.67383 z"
                    id="path41281"
                    stroke-width="0.5"
                    stroke-linecap="round"
                    stroke-linejoin="round"
                    stroke="black" />
                <path
                    d="m 467.73242,717.3418 -8.07617,4.36132 a 1.0584408,1.0584408 0 0 0 -0.01,0.0137 1.0583349,1.0583349 0 0 0 -0.0215,0.004 1.0583349,1.0583349 0 0 0 -0.0117,0.0469 1.0584408,1.0584408 0 0 0 -0.50391,0.74023 c -0.71955,5.99633 -1.36466,12.20489 0.95313,18.8418 a 1.0584408,1.0584408 0 0 0 0.48633,0.57617 c 0,0 1.4341,0.82748 3.24609,0.86328 0.906,0.0179 1.94702,-0.17423 2.89453,-0.80859 0.94751,-0.63437 1.75253,-1.68913 2.27735,-3.19727 1.76309,-5.06655 2.01716,-7.7612 2.05078,-8.1582 0.87348,-0.60559 1.68425,-1.47983 2.23633,-3.01563 0.70586,-1.96359 0.37477,-4.00215 -0.50391,-5.75781 -0.87868,-1.75566 -2.29135,-3.28072 -3.89648,-4.4375 a 1.0584408,1.0584408 0 0 0 -1.1211,-0.0723 z m 0.35547,2.21484 c 1.14764,0.92664 2.16849,2.04126 2.76953,3.24219 0.68766,1.37398 0.88506,2.7583 0.4043,4.0957 -0.64189,1.78563 -1.23574,2.18574 -1.91992,2.39063 -0.68419,0.20489 -1.68852,0.0686 -2.92383,0.14257 -0.81369,0.0487 -1.31684,-0.13922 -1.7832,-0.49218 -0.46637,-0.35297 -0.88872,-0.92457 -1.27149,-1.65821 -0.61716,-1.18287 -1.17187,-2.73665 -1.84766,-4.17382 z m -7.18164,7.38477 c 0.20005,0.47526 0.34036,0.85694 0.58008,1.3164 0.4632,0.88779 1.03768,1.73642 1.87109,2.36719 0.83342,0.63077 1.93441,0.99094 3.18555,0.91602 0.59981,-0.0359 1.43887,-0.0997 2.22461,-0.14844 -0.16346,1.11866 -0.52518,3.03527 -1.79883,6.69531 -0.40894,1.17515 -0.93465,1.78503 -1.45703,2.13477 -0.52238,0.34974 -1.0888,0.46277 -1.67578,0.45117 -0.98409,-0.0195 -1.62213,-0.36914 -1.89453,-0.5 -1.47727,-4.51577 -1.40951,-8.86608 -1.03516,-13.23242 z"
                    id="path41283"
                    stroke-width="0.5"
                    stroke-linecap="round"
                    stroke-linejoin="round"
                    stroke="black" />
                <path
                    d="m 466.34375,740.20117 a 1.0583349,1.0583349 0 0 0 -1.01367,1.10156 c 0.14472,3.41263 -0.28702,5.29719 -1.32617,6.33985 -1.03916,1.04266 -3.0524,1.57097 -6.63868,1.61719 a 1.0583349,1.0583349 0 0 0 -1.04492,1.07226 1.0583349,1.0583349 0 0 0 1.07227,1.04492 c 3.7696,-0.0486 6.41033,-0.5335 8.11133,-2.24023 1.70099,-1.70673 2.09476,-4.30763 1.9414,-7.92383 a 1.0583349,1.0583349 0 0 0 -1.10156,-1.01172 z"
                    id="path41285"
                    stroke-width="0.5"
                    stroke-linecap="round"
                    stroke-linejoin="round"
                    stroke="black" />
                <path
                    d="m 443.24219,667.2832 a 1.0583349,1.0583349 0 0 0 -0.41797,1.4375 l 21.76367,39.54688 a 1.0583349,1.0583349 0 0 0 1.4375,0.41797 1.0583349,1.0583349 0 0 0 0.41797,-1.4375 l -21.76367,-39.54688 a 1.0583349,1.0583349 0 0 0 -1.4375,-0.41797 z"
                    id="path41287"
                    stroke-width="0.5"
                    stroke-linecap="round"
                    stroke-linejoin="round"
                    stroke="black" />
                <path
                    d="m 398.49759,756.81657 -18.79822,99.73852 6.37209,0.31809 c 13.0855,-9.32967 22.06985,-24.77052 28.8438,-42.70696 l -1.5597,39.82358 10.96908,0.0616 c 14.69474,-29.851 22.40917,-62.87813 29.23372,-94.22824 -18.71391,1.02652 -37.08549,0.12563 -55.06077,-3.00654 z"
                    id="path41289"
                    stroke-width="1.05833"
                    stroke-linecap="round"
                    stroke-linejoin="round"
                    stroke="black" />
                <path
                    d="m 386.12305,855.13867 a 1.0583349,1.0583349 0 0 0 -1.08985,1.02539 l -0.21484,7.35742 h -16.54297 c -0.0382,-0.20849 -0.0709,-0.22937 -0.082,-0.50781 -0.0274,-0.68323 0.11252,-1.31622 0.48242,-1.63867 -0.1421,0.12387 0.13178,-0.063 0.53125,-0.17969 0.39947,-0.11664 0.95662,-0.24439 1.60156,-0.37695 1.28989,-0.26512 2.93706,-0.55151 4.57813,-0.88281 1.64107,-0.3313 3.27099,-0.70302 4.59375,-1.17774 0.66138,-0.23736 1.24697,-0.49476 1.74805,-0.83398 0.50107,-0.33923 0.98453,-0.79324 1.13085,-1.50391 a 1.0583349,1.0583349 0 0 0 -0.82226,-1.25 1.0583349,1.0583349 0 0 0 -1.25,0.82227 c 0.0214,-0.10378 0.0174,6.6e-4 -0.24414,0.17773 -0.26156,0.17707 -0.71404,0.39354 -1.27735,0.5957 -1.1266,0.40433 -2.6942,0.77216 -4.29687,1.09571 -1.60267,0.32354 -3.24473,0.6087 -4.58789,0.88476 -0.67158,0.13804 -1.26666,0.27171 -1.76758,0.41797 -0.50092,0.14627 -0.87739,0.22233 -1.32812,0.61524 -1.09062,0.9507 -1.24717,2.31896 -1.20704,3.31836 0.0401,0.9994 0.29883,1.80078 0.29883,1.80078 a 1.0584408,1.0584408 0 0 0 1.00977,0.73828 h 18.45898 a 1.0584408,1.0584408 0 0 0 1.0586,-1.02539 l 0.24609,-8.38477 a 1.0583349,1.0583349 0 0 0 -1.02734,-1.08789 z"
                    id="path41291"
                    stroke-width="0.5"
                    stroke-linecap="round"
                    stroke-linejoin="round"
                    stroke="black" />
                <path
                    d="m 421.48437,851.98242 a 1.0583349,1.0583349 0 0 0 -0.95312,1.15235 l 0.75195,7.93359 h -7.97656 c 0.0287,-0.54571 0.035,-0.87686 0.12305,-1.83984 0.0703,-0.76928 0.16181,-1.57169 0.27343,-2.22657 0.11163,-0.65487 0.30932,-1.21545 0.30665,-1.21093 0.3399,-0.57485 1.74804,-0.9961 1.74804,-0.9961 a 1.0583349,1.0583349 0 0 0 0.85547,-1.22851 1.0583349,1.0583349 0 0 0 -1.22851,-0.85352 c 0,0 -2.14166,0.21475 -3.19727,2 -0.35155,0.59452 -0.44336,1.18879 -0.57031,1.93359 -0.12695,0.74481 -0.2216,1.58671 -0.29492,2.38868 -0.14665,1.60394 -0.20508,3.05078 -0.20508,3.05078 a 1.0584408,1.0584408 0 0 0 1.05859,1.09961 h 10.27149 A 1.0584408,1.0584408 0 0 0 423.5,862.02734 l -0.86133,-9.09179 a 1.0583349,1.0583349 0 0 0 -1.1543,-0.95313 z"
                    id="path41293"
                    stroke-width="0.5"
                    stroke-linecap="round"
                    stroke-linejoin="round"
                    stroke="black" />
                <path
                    d="m 389.06836,631.21289 c -0.48093,-0.15528 -1.0795,-0.0934 -1.60742,0.16797 -0.52792,0.26135 -1.03026,0.69038 -1.58985,1.3418 -1.21027,1.40891 -2.07667,3.58312 -2.71679,5.73242 -0.64013,2.14929 -1.03235,4.1407 -0.92188,5.50781 0.0192,0.23718 -0.0119,0.25747 -0.10742,0.35742 -0.0956,0.1 -0.31704,0.23225 -0.59766,0.32422 -0.18858,0.0618 -0.22802,0.0373 -0.41015,0.0664 l -1.64063,-7.20313 a 1.0584408,1.0584408 0 0 0 -1.69726,-0.58789 c 0,0 -0.95777,0.77106 -1.95703,1.83008 -0.99927,1.05902 -2.13194,2.33189 -2.34571,3.91992 -0.11301,0.8395 0.0866,1.6612 0.37891,2.56836 0.2923,0.90716 0.7083,1.88087 1.16992,2.85938 0.92325,1.957 2.03574,3.93591 2.67578,5.16601 -0.0273,-0.0525 0.0926,0.39498 0.0566,1.04688 -0.036,0.6519 -0.1592,1.52709 -0.34961,2.53711 -0.38082,2.02004 -1.02784,4.58742 -1.74218,7.24804 -1.42869,5.32125 -3.12116,10.92815 -3.53321,13.8125 -0.40048,2.80337 -0.32088,6.31567 0.27735,9.44336 0.59822,3.1277 1.59689,5.96488 3.79101,7.16992 1.73606,0.95346 3.20934,1.32166 4.26953,1.4375 1.0602,0.11585 1.80274,-0.041 1.80274,-0.041 a 1.0583349,1.0583349 0 0 0 0.79492,-1.26953 1.0583349,1.0583349 0 0 0 -1.26953,-0.79297 c 0,0 -0.30317,0.0849 -1.09766,-0.002 -0.79449,-0.0868 -1.98429,-0.36579 -3.48047,-1.1875 -1.0381,-0.57014 -2.18398,-2.84356 -2.73242,-5.71094 -0.54844,-2.86739 -0.61861,-6.23419 -0.25976,-8.7461 0.34727,-2.43092 2.0412,-8.20383 3.48046,-13.56445 0.71963,-2.68031 1.37836,-5.2795 1.7793,-7.40625 0.20047,-1.06337 0.33836,-2.00651 0.38281,-2.8125 0.0445,-0.80599 0.0627,-1.4551 -0.29297,-2.13867 -0.67337,-1.29415 -1.76111,-3.23165 -2.63867,-5.0918 -0.43877,-0.93007 -0.82327,-1.83877 -1.07031,-2.60547 -0.24704,-0.76669 -0.32557,-1.40905 -0.29492,-1.63672 0.0735,-0.54628 0.90031,-1.8081 1.78906,-2.75 0.23348,-0.24744 0.24468,-0.22441 0.45899,-0.42968 l 1.44726,6.36133 a 1.0584408,1.0584408 0 0 0 1.0293,0.82421 c 0,0 0.91393,0.0161 1.88672,-0.30273 0.48639,-0.15942 1.02178,-0.4035 1.4707,-0.87305 0.44892,-0.46955 0.75042,-1.21154 0.6875,-1.99023 -0.0537,-0.6646 0.24608,-2.74073 0.83984,-4.73438 0.46951,-1.57642 1.16316,-2.86114 1.8125,-3.91992 -0.39791,1.2931 -0.60461,2.85794 0.2461,4.42188 1.78651,3.28432 0.60977,6.85337 -0.83789,10.33593 -0.9044,2.17568 -1.17364,6.09521 -1.35352,9.69532 -0.17987,3.6001 -0.17383,6.75 -0.17383,6.75 a 1.0583349,1.0583349 0 0 0 1.06055,1.05664 1.0583349,1.0583349 0 0 0 1.05664,-1.06055 c 0,0 -0.005,-3.1041 0.17188,-6.64062 0.17669,-3.53653 0.63045,-7.63413 1.19335,-8.98829 1.48698,-3.57715 3.01908,-7.97237 0.74219,-12.1582 -0.59939,-1.10191 -0.39758,-2.30499 0.0215,-3.34375 0.41907,-1.03876 1.00586,-1.75976 1.00586,-1.75976 a 1.0584408,1.0584408 0 0 0 0.17382,-1.04297 c 0,0 -0.27252,-0.88084 -1.23437,-1.19141 z"
                    id="path41295"
                    stroke-width="0.5"
                    stroke-linecap="round"
                    stroke-linejoin="round"
                    stroke="black" />
                <path
                    d="m 379.07031,614.65234 a 1.0584408,1.0584408 0 0 0 -1.05859,1.04297 l -0.31641,21.66211 a 1.0583349,1.0583349 0 0 0 1.04102,1.07422 1.0583349,1.0583349 0 0 0 1.07422,-1.04297 l 0.30273,-20.61914 h 1.11719 l 0.93945,26.86914 a 1.0583349,1.0583349 0 0 0 1.09375,1.01953 1.0583349,1.0583349 0 0 0 1.02149,-1.09375 l -0.97657,-27.89062 a 1.0584408,1.0584408 0 0 0 -1.05664,-1.02149 z"
                    id="path41297"
                    stroke-width="0.5"
                    stroke-linecap="round"
                    stroke-linejoin="round"
                    stroke="black" />
                <path
                    d="m 381.88867,614.79297 a 1.0583349,1.0583349 0 0 0 -0.60742,0.53515 1.0583349,1.0583349 0 0 0 0.48437,1.41602 l 4.72657,2.3125 0.44726,13.07813 a 1.0583349,1.0583349 0 0 0 1.09571,1.02148 1.0583349,1.0583349 0 0 0 1.02148,-1.09375 l -0.4707,-13.71289 a 1.0584408,1.0584408 0 0 0 -0.59375,-0.91406 l -5.29492,-2.5918 a 1.0583349,1.0583349 0 0 0 -0.8086,-0.0508 z"
                    id="path41299"
                    stroke-width="0.5"
                    stroke-linecap="round"
                    stroke-linejoin="round"
                    stroke="black" />
                <path
                    d="m 357.82031,605.55078 a 1.0583349,1.0583349 0 0 0 -0.74804,0.31055 1.0583349,1.0583349 0 0 0 0,1.49609 l 11.25,11.25195 a 1.0583349,1.0583349 0 0 0 1.49804,0 1.0583349,1.0583349 0 0 0 0,-1.49609 l -11.25195,-11.25195 a 1.0583349,1.0583349 0 0 0 -0.74805,-0.31055 z"
                    id="path41301"
                    stroke-width="0.5"
                    stroke-linecap="round"
                    stroke-linejoin="round"
                    stroke="black" />
                <path
                    d="m 353.18164,622.67773 a 1.0583349,1.0583349 0 0 0 -1.05859,1.0586 1.0583349,1.0583349 0 0 0 1.05859,1.05859 h 12.16016 a 1.0583349,1.0583349 0 0 0 1.05859,-1.05859 1.0583349,1.0583349 0 0 0 -1.05859,-1.0586 z"
                    id="path41303"
                    stroke-width="0.5"
                    stroke-linecap="round"
                    stroke-linejoin="round"
                    stroke="black" />
                <path
                    d="m 366.56055,631.95898 a 1.0583349,1.0583349 0 0 0 -0.80469,0.10547 l -7.72656,4.46094 a 1.0583349,1.0583349 0 0 0 -0.38672,1.44531 1.0583349,1.0583349 0 0 0 1.44531,0.38867 l 7.72656,-4.46093 a 1.0583349,1.0583349 0 0 0 0.38867,-1.44727 1.0583349,1.0583349 0 0 0 -0.64257,-0.49219 z"
                    id="path41305"
                    stroke-width="0.5"
                    stroke-linecap="round"
                    stroke-linejoin="round"
                    stroke="black" />
                <path
                    d="m 399.20898,616.23633 a 1.0583349,1.0583349 0 0 0 -1.43164,0.43945 c 0,0 -0.90229,1.69479 -1.75976,3.81445 -0.85747,2.11966 -1.74302,4.59703 -1.51758,6.68164 0.12738,1.17783 0.52719,1.9854 0.99805,2.63086 -0.0743,0.0271 -0.0716,0.003 -0.14649,0.0332 -0.68773,0.27398 -1.41868,0.671 -2.02148,1.30468 -0.6028,0.63369 -1.05069,1.53733 -1.08789,2.59766 -0.0736,2.09886 1.40345,3.47471 2.68164,4.16602 0.80654,0.43621 1.12025,0.44797 1.59961,0.56836 l -0.44141,5.75976 a 1.0584408,1.0584408 0 0 0 -0.002,0.0469 c 0,0 -0.0606,1.83618 0.0742,3.89843 0.0674,1.03113 0.18147,2.12077 0.38867,3.10547 0.2072,0.98471 0.44637,1.86753 1.08984,2.57227 1.06464,1.16605 3.05513,2.10429 5.48438,2.27148 2.42925,0.16719 5.30151,-0.62876 7.48437,-3.28125 4.0207,-4.88569 8.77149,-12.53515 8.77149,-12.53515 a 1.0583349,1.0583349 0 0 0 -0.33789,-1.45703 1.0583349,1.0583349 0 0 0 -1.45899,0.33789 c 0,0 -4.75984,7.63088 -8.60937,12.30859 -1.75224,2.12921 -3.81059,2.64406 -5.70508,2.51367 -1.89449,-0.13038 -3.62072,-1.09798 -4.06445,-1.58398 -0.11073,-0.12127 -0.40829,-0.75629 -0.58204,-1.58203 -0.17374,-0.82575 -0.2862,-1.8388 -0.34961,-2.8086 -0.12614,-1.92934 -0.0709,-3.65544 -0.0703,-3.67383 l 0.5,-6.52343 a 1.0584408,1.0584408 0 0 0 -0.875,-1.12305 c 0,0 -0.96844,-0.17808 -1.88867,-0.67578 -0.92023,-0.49771 -1.61345,-1.11247 -1.57422,-2.23047 0.0192,-0.54811 0.19963,-0.88892 0.50781,-1.21289 0.30819,-0.32397 0.77084,-0.60016 1.26954,-0.79883 0.99738,-0.39734 2.03125,-0.46875 2.03125,-0.46875 a 1.0586127,1.0586127 0 0 0 -0.0918,-2.11523 c 0,0 -0.19452,0.0185 -0.52735,-0.20313 -0.33282,-0.22164 -0.79157,-0.66491 -0.94335,-2.06836 -0.12856,-1.1887 0.56573,-3.65483 1.37695,-5.66015 0.81122,-2.00533 1.66601,-3.61719 1.66601,-3.61719 a 1.0583349,1.0583349 0 0 0 -0.4375,-1.43164 z"
                    id="path41307"
                    stroke-width="0.5"
                    stroke-linecap="round"
                    stroke-linejoin="round"
                    stroke="black" />
                <path
                    d="m 403.88477,640.16992 a 1.0583349,1.0583349 0 0 0 -1.33204,0.6836 c -0.38925,1.21112 -0.91485,2.02114 -1.56054,2.43554 -0.6457,0.4144 -1.51807,0.57053 -3.01563,0.14453 a 1.0583349,1.0583349 0 0 0 -1.30859,0.72852 1.0583349,1.0583349 0 0 0 0.72851,1.30664 c 1.8733,0.53288 3.50692,0.39309 4.74024,-0.39844 1.23332,-0.79153 1.95896,-2.09767 2.43164,-3.56836 a 1.0583349,1.0583349 0 0 0 -0.68359,-1.33203 z"
                    id="path41309"
                    stroke-width="0.5"
                    stroke-linecap="round"
                    stroke-linejoin="round"
                    stroke="black" />
                <path id="ellipse41311"
                    d="m 401.94458,628.39502 a 1.1902807,2.0394068 0 0 1 -1.19028,2.03941 1.1902807,2.0394068 0 0 1 -1.19028,-2.03941 1.1902807,2.0394068 0 0 1 1.19028,-2.03941 1.1902807,2.0394068 0 0 1 1.19028,2.03941 z"
                    stroke-width="0.132291"
                    stroke="black" />
                <path
                    d="m 402.07227,621.85156 c -1.30527,-0.26779 -2.59401,0.29624 -3.85938,1.29102 a 1.0583349,1.0583349 0 0 0 -0.17773,1.48633 1.0583349,1.0583349 0 0 0 1.48437,0.17773 c 1.03136,-0.8108 1.66823,-0.97692 2.12695,-0.88281 0.45873,0.0941 1.0768,0.55386 1.83008,1.72656 a 1.0583349,1.0583349 0 0 0 1.46094,0.31836 1.0583349,1.0583349 0 0 0 0.31836,-1.46289 c -0.8938,-1.39146 -1.87832,-2.38651 -3.18359,-2.6543 z"
                    id="path41313"
                    stroke-width="0.5"
                    stroke-linecap="round"
                    stroke-linejoin="round"
                    stroke="black" />
                <path
                    d="m 398.67132,616.82296 c 8.44672,1.31468 9.62408,8.50525 11.37438,15.2327 0,0 1.19118,0.81441 1.50628,-0.54984 0.57103,-2.47226 0.80787,-7.66972 3.88588,-6.44312 4.77651,1.90346 5.45377,7.98833 3.07319,9.57879 -1.45132,0.96963 -4.91652,1.76401 -6.26312,2.61295 -0.86219,0.54355 0.004,1.39403 0.004,1.39403 l 5.5153,-0.52332 c -0.0215,-0.0591 -2.33543,9.29766 0.72342,11.94398 3.05885,2.64632 11.33946,1.4281 12.17472,-3.30922 0.83526,-4.73732 3.95379,-2.69725 8.54744,-5.71032 3.13054,-2.05339 4.67903,-8.12686 4.48922,-9.53775 -0.18981,-1.41092 -8.43702,-1.97339 -13.69515,-4.74126 -19.3,-10.15948 -27.13215,-23.89415 -27.13215,-23.89415 0,0 -11.82584,5.14596 -8.94249,9.51722 2.88335,4.37127 4.73919,4.42931 4.73919,4.42931 z"
                    id="path41315"
                    stroke-width="1.05833"
                    stroke-linecap="round"
                    stroke-linejoin="round"
                    stroke="black" />
                <path
                    d="m 411.33984,589.66992 c -2.79188,0.0904 -5.33255,0.91103 -7.11523,2.87695 -1.79723,1.98198 -2.55973,4.37902 -2.43945,6.85157 0.12027,2.47255 1.06761,5.02024 2.56445,7.5625 2.99369,5.08451 8.21752,10.20128 14.10156,14.5332 5.88405,4.33192 12.42019,7.86342 18.12305,9.64648 2.85143,0.89154 5.49683,1.35287 7.79883,1.21094 2.30199,-0.14193 4.33058,-0.93531 5.60351,-2.59961 1.00183,-1.30984 1.27953,-3.0226 1.125,-4.86718 -0.15453,-1.84459 -0.73954,-3.87415 -1.61523,-5.99805 -1.75138,-4.24781 -4.68517,-8.87469 -7.95313,-12.82031 a 1.0583349,1.0583349 0 0 0 -1.49023,-0.14063 1.0583349,1.0583349 0 0 0 -0.14063,1.49024 c 3.14478,3.7969 5.98809,8.30242 7.62696,12.27734 0.81943,1.98746 1.33519,3.84295 1.46289,5.36719 0.12769,1.52423 -0.13024,2.66488 -0.69727,3.40625 -0.81803,1.06954 -2.14017,1.65356 -4.05273,1.77148 -1.91256,0.11792 -4.34551,-0.27819 -7.03516,-1.11914 -5.37929,-1.6819 -11.78029,-5.1177 -17.50195,-9.33008 -5.72167,-4.21237 -10.77234,-9.21656 -13.53125,-13.90234 -1.37946,-2.34289 -2.17827,-4.59325 -2.27539,-6.58985 -0.0971,-1.99659 0.45318,-3.73861 1.89453,-5.32812 1.73606,-1.91451 4.64476,-2.48328 8.15039,-2.06055 3.50563,0.42273 7.47757,1.84563 10.93555,3.61719 a 1.0583349,1.0583349 0 0 0 1.42578,-0.45898 1.0583349,1.0583349 0 0 0 -0.45899,-1.42383 c -3.63044,-1.85992 -7.77933,-3.36914 -11.65039,-3.83594 -0.96776,-0.1167 -1.92484,-0.16684 -2.85547,-0.13672 z"
                    id="path41317"
                    stroke-width="0.5"
                    stroke-linecap="round"
                    stroke-linejoin="round"
                    stroke="black" />
                <path
                    d="m 424.94727,593.57617 c -1.02767,-0.0869 -2.03311,-0.0743 -3.00391,0.041 -3.88321,0.46129 -7.22781,2.74027 -8.4375,6.79883 -0.36833,1.23575 -0.12762,2.54179 0.4375,3.78515 0.56511,1.24336 1.46171,2.46947 2.58008,3.67969 2.23674,2.42045 5.37369,4.77245 8.65234,6.67187 3.27865,1.89943 6.67784,3.34314 9.54297,3.85743 1.43256,0.25714 2.74268,0.29749 3.89258,-0.0606 1.1499,-0.35805 2.13416,-1.24662 2.48242,-2.48047 2.14764,-7.60885 0.0989,-14.57062 -6.77344,-18.95312 -3.02117,-1.92662 -6.29006,-3.07931 -9.37304,-3.33985 z m -0.17969,2.11524 c 2.68775,0.23458 5.65803,1.25028 8.41406,3.00781 6.20893,3.95945 7.84629,9.60969 5.875,16.59375 -0.1666,0.59026 -0.43392,0.83579 -1.07422,1.03515 -0.64029,0.19937 -1.65801,0.22091 -2.88867,0 -2.46132,-0.4418 -5.73129,-1.79439 -8.85742,-3.60546 -3.12614,-1.81107 -6.13023,-4.08477 -8.15821,-6.2793 -1.01398,-1.09726 -1.7802,-2.17575 -2.20898,-3.11914 -0.42878,-0.94339 -0.51253,-1.70567 -0.33398,-2.30469 0.97779,-3.28052 3.39727,-4.91364 6.65625,-5.30078 0.81474,-0.0968 1.68025,-0.10554 2.57617,-0.0273 z"
                    id="path41319"
                    stroke-width="0.5"
                    stroke-linecap="round"
                    stroke-linejoin="round"
                    stroke="black" />
                <path
                    d="m 406.7967,594.76254 c 2.08195,-1.2726 7.08107,-0.88234 9.30539,-0.0326 -2.18998,0.73961 -7.17125,1.00643 -9.30539,0.0326 z"
                    id="path41321"
                    stroke-width="1.05833"
                    stroke-linecap="round"
                    stroke-linejoin="round"
                    stroke="black" />
                <path
                    d="m 404.69256,598.10381 c 2.08195,-1.2726 7.08107,-0.88234 9.30539,-0.0326 -2.18998,0.73961 -7.17125,1.00643 -9.30539,0.0326 z"
                    id="path41323"
                    stroke-width="1.05833"
                    stroke-linecap="round"
                    stroke-linejoin="round"
                    stroke="black" />
                <path
                    d="m 405.44351,602.09447 c 1.64527,-1.2726 5.59585,-0.88234 7.35363,-0.0326 -1.73064,0.73961 -5.66712,1.00643 -7.35363,0.0326 z"
                    id="path41325"
                    stroke-width="1.05833"
                    stroke-linecap="round"
                    stroke-linejoin="round"
                    stroke="black" />
                <path
                    d="m 406.51372,605.54457 c 1.64527,-1.2726 5.59585,-0.88234 7.35363,-0.0326 -1.73064,0.73961 -5.66712,1.00643 -7.35363,0.0326 z"
                    id="path41327"
                    stroke-width="1.05833"
                    stroke-linecap="round"
                    stroke-linejoin="round"
                    stroke="black" />
                <path
                    d="m 409.36156,609.64044 c 1.64527,-1.2726 5.59585,-0.88234 7.35363,-0.0326 -1.73064,0.73961 -5.66712,1.00643 -7.35363,0.0326 z"
                    id="path41329"
                    stroke-width="1.05833"
                    stroke-linecap="round"
                    stroke-linejoin="round"
                    stroke="black" />
                <path
                    d="m 413.72221,613.58756 c 1.64527,-1.2726 5.59585,-0.88234 7.35363,-0.0326 -1.73064,0.73961 -5.66712,1.00643 -7.35363,0.0326 z"
                    id="path41331"
                    stroke-width="1.05833"
                    stroke-linecap="round"
                    stroke-linejoin="round"
                    stroke="black" />
                <path
                    d="m 418.62338,617.53331 c 1.80598,-1.57533 6.14246,-1.09224 8.07194,-0.0403 -1.89969,0.91555 -6.22069,1.24584 -8.07194,0.0403 z"
                    id="path41333"
                    stroke-width="1.05833"
                    stroke-linecap="round"
                    stroke-linejoin="round"
                    stroke="black" />
                <path
                    d="m 425.04466,620.62865 c 1.77108,-1.73466 6.02375,-1.2027 7.91594,-0.0444 -1.86298,1.00815 -6.10047,1.37185 -7.91594,0.0444 z"
                    id="path41335"
                    stroke-width="1.05833"
                    stroke-linecap="round"
                    stroke-linejoin="round"
                    stroke="black" />
                <path
                    d="m 429.35814,624.26762 c 1.64527,-1.51478 5.59585,-1.05026 7.35363,-0.0388 -1.73064,0.88036 -5.66712,1.19796 -7.35363,0.0388 z"
                    id="path41337"
                    stroke-width="1.05833"
                    stroke-linecap="round"
                    stroke-linejoin="round"
                    stroke="black" />
                <path
                    d="m 438.50751,627.69355 c 1.97806,-1.55621 6.72772,-1.07898 8.84105,-0.0399 -2.08069,0.90444 -6.81341,1.23072 -8.84105,0.0399 z"
                    id="path41339"
                    stroke-width="1.05833"
                    stroke-linecap="round"
                    stroke-linejoin="round"
                    stroke="black" />
                <path
                    d="m 439.02267,623.97415 c 1.64527,-1.2726 5.59585,-0.88234 7.35363,-0.0326 -1.73064,0.73961 -5.66712,1.00643 -7.35363,0.0326 z"
                    id="path41341"
                    stroke-width="1.05833"
                    stroke-linecap="round"
                    stroke-linejoin="round"
                    stroke="black" />
                <path
                    d="m 435.33316,620.5313 c 1.64527,-1.2726 5.59585,-0.88234 7.35363,-0.0326 -1.73064,0.73961 -5.66712,1.00643 -7.35363,0.0326 z"
                    id="path41343"
                    stroke-width="1.05833"
                    stroke-linecap="round"
                    stroke-linejoin="round"
                    stroke="black" />
                <path
                    d="m 444.08349,620.12498 c 1.26541,-1.2726 4.30387,-0.88234 5.65581,-0.0326 -1.33106,0.73961 -4.35868,1.00643 -5.65581,0.0326 z"
                    id="path41345"
                    stroke-width="1.05833"
                    stroke-linecap="round"
                    stroke-linejoin="round"
                    stroke="black" />
                <path
                    d="m 419.6392,604.27844 c 1.64527,-1.2726 5.59585,-0.88234 7.35363,-0.0326 -1.73064,0.73961 -5.66712,1.00643 -7.35363,0.0326 z"
                    id="path41347"
                    stroke-width="1.05833"
                    stroke-linecap="round"
                    stroke-linejoin="round"
                    stroke="black" />
                <path
                    d="m 416.00774,601.3834 c 1.64527,-1.2726 5.59585,-0.88234 7.35363,-0.0326 -1.73064,0.73961 -5.66712,1.00643 -7.35363,0.0326 z"
                    id="path41349"
                    stroke-width="1.05833"
                    stroke-linecap="round"
                    stroke-linejoin="round"
                    stroke="black" />
                <path
                    d="m 427.45717,601.35438 c 1.64527,-1.2726 5.59585,-0.88234 7.35363,-0.0326 -1.73064,0.73961 -5.66712,1.00643 -7.35363,0.0326 z"
                    id="path41351"
                    stroke-width="1.05833"
                    stroke-linecap="round"
                    stroke-linejoin="round"
                    stroke="black" />
                <path
                    d="m 421.4894,598.04576 c 1.64527,-1.2726 5.59585,-0.88234 7.35363,-0.0326 -1.73064,0.73961 -5.66712,1.00643 -7.35363,0.0326 z"
                    id="path41353"
                    stroke-width="1.05833"
                    stroke-linecap="round"
                    stroke-linejoin="round"
                    stroke="black" />
                <path
                    d="m 430.34496,605.06205 c 1.64527,-1.2726 5.59585,-0.88234 7.35363,-0.0326 -1.73064,0.73961 -5.66712,1.00643 -7.35363,0.0326 z"
                    id="path41355"
                    stroke-width="1.05833"
                    stroke-linecap="round"
                    stroke-linejoin="round"
                    stroke="black" />
                <path
                    d="m 420.84003,608.17113 c 1.64527,-1.2726 5.59585,-0.88234 7.35363,-0.0326 -1.73064,0.73961 -5.66712,1.00643 -7.35363,0.0326 z"
                    id="path41357"
                    stroke-width="1.05833"
                    stroke-linecap="round"
                    stroke-linejoin="round"
                    stroke="black" />
                <path
                    d="m 431.49497,608.6754 c 1.64527,-1.2726 5.59585,-0.88234 7.35363,-0.0326 -1.73064,0.73961 -5.66712,1.00643 -7.35363,0.0326 z"
                    id="path41359"
                    stroke-width="1.05833"
                    stroke-linecap="round"
                    stroke-linejoin="round"
                    stroke="black" />
                <path
                    d="m 433.45038,613.77619 c 1.64527,-1.2726 5.59585,-0.88234 7.35363,-0.0326 -1.73064,0.73961 -5.66712,1.00643 -7.35363,0.0326 z"
                    id="path41361"
                    stroke-width="1.05833"
                    stroke-linecap="round"
                    stroke-linejoin="round"
                    stroke="black" />
                <path
                    d="m 426.32168,611.75909 c 1.64527,-1.2726 5.59585,-0.88234 7.35363,-0.0326 -1.73064,0.73961 -5.66712,1.00643 -7.35363,0.0326 z"
                    id="path41363"
                    stroke-width="1.05833"
                    stroke-linecap="round"
                    stroke-linejoin="round"
                    stroke="black" />
                <path
                    d="m 441.69275,616.46446 c 1.26541,-1.2726 4.30387,-0.88234 5.65581,-0.0326 -1.33106,0.73961 -4.35868,1.00643 -5.65581,0.0326 z"
                    id="path41365"
                    stroke-width="1.05833"
                    stroke-linecap="round"
                    stroke-linejoin="round"
                    stroke="black" />
            </g>
            <path
                d="m 1175.8134,1370.9427 2.8225,0.094 2.0606,34.6027 -2.8515,2.0606 c 0,0 -2.7934,-7.6185 -2.7354,-8.4675 0.058,-0.8489 0.6023,-27.6443 0.6023,-27.6443 z"
                id="path41563"
                stroke="none"
                stroke-width="1.05833"
                stroke-linecap="round"
                stroke-linejoin="round" />
        </g>
    </g>
</svg>