<?xml version="1.0" encoding="UTF-8" standalone="no"?>
<!-- Created with Inkscape (http://www.inkscape.org/) -->

<svg width="100%" height="100%"
    viewBox="0 0 737.85622 772.73005"
    version="1.1" id="svg5"
    xml:space="preserve"
    xmlns="http://www.w3.org/2000/svg"
    xmlns:svg="http://www.w3.org/2000/svg">
    <defs id="defs2" />
    <g id="layer1"
        transform="translate(-1507.0974,-7791.7635)">
        <g id="notion-endrose-product"
            transform="matrix(2,0,0,2,-394.08685,-88.124184)"
            style="stroke-width:0.5">
            <title id="title94624">
                notion-endrose-product
            </title>
            <g id="g43129"
                transform="translate(4246.5464,3390.4394)"
                style="stroke-width:0.5">
                <path
                    d="m -2950.3125,675.70508 a 1.0584408,1.0584408 0 0 0 -1.0586,1.05859 v 21.41211 h -28.7422 v -20.44531 a 1.0584408,1.0584408 0 0 0 -1.1972,-1.04883 l -4.3848,0.58789 a 1.0584408,1.0584408 0 0 0 -0.918,1.04883 v 27.47461 a 1.0584408,1.0584408 0 0 0 1.0586,1.05859 h 40.2461 a 1.0584408,1.0584408 0 0 0 1.0586,-1.05859 v -29.0293 a 1.0584408,1.0584408 0 0 0 -1.0586,-1.05859 z m 1.0586,2.11719 h 2.8867 v 26.9121 h -38.1289 v -25.49023 l 2.2676,-0.30469 v 20.29492 a 1.0584408,1.0584408 0 0 0 1.0566,1.0586 h 30.8594 a 1.0584408,1.0584408 0 0 0 1.0586,-1.0586 z"
                    id="path43097"
                    stroke-width="0.5"
                    stroke-linecap="round"
                    stroke-linejoin="round"
                    stroke="black" />
                <path
                    d="m -2972.9883,705.21875 a 1.0583349,1.0583349 0 0 0 -0.748,1.29687 l 1.166,4.35547 a 1.0584408,1.0584408 0 0 0 0.998,0.78516 l 10.9571,0.26758 a 1.0584408,1.0584408 0 0 0 1.0722,-0.89844 l 0.6953,-4.54687 a 1.0583349,1.0583349 0 0 0 -0.8847,-1.20704 1.0583349,1.0583349 0 0 0 -1.2071,0.88672 l -0.5546,3.62696 -9.2364,-0.22657 -0.9609,-3.58984 a 1.0583349,1.0583349 0 0 0 -1.2969,-0.75 z"
                    id="path43099"
                    stroke-width="0.5"
                    stroke-linecap="round"
                    stroke-linejoin="round"
                    stroke="black" />
                <path
                    d="m -2973.7988,711.09766 a 1.0583349,1.0583349 0 0 0 -1.2051,0.88867 l -32.5137,215.24804 a 1.0583349,1.0583349 0 0 0 0.8887,1.20508 1.0583349,1.0583349 0 0 0 1.2031,-0.88867 l 32.5156,-215.24805 a 1.0583349,1.0583349 0 0 0 -0.8886,-1.20507 z"
                    id="path43101"
                    stroke-width="0.5"
                    stroke-linecap="round"
                    stroke-linejoin="round"
                    stroke="black" />
                <path
                    d="m -2968.6406,714.91797 a 1.0584408,1.0584408 0 0 0 -1.0469,0.90039 l -31.4102,209.3457 a 1.0583349,1.0583349 0 0 0 0.8887,1.20508 1.0583349,1.0583349 0 0 0 1.2031,-0.89062 l 31.2754,-208.44532 h 4.6817 l 26.4258,204.04102 a 1.0583349,1.0583349 0 0 0 1.1835,0.91406 1.0583349,1.0583349 0 0 0 0.9141,-1.18555 l -26.543,-204.96289 a 1.0584408,1.0584408 0 0 0 -1.0488,-0.92187 z"
                    id="path43103"
                    stroke-width="0.5"
                    stroke-linecap="round"
                    stroke-linejoin="round"
                    stroke="black" />
                <path
                    d="m -2958.0723,711.29492 a 1.0583349,1.0583349 0 0 0 -0.9941,1.11914 c 0.013,0.22287 0.046,0.44831 0.1074,0.92774 0.062,0.47942 0.1498,1.14082 0.2637,1.97656 0.2278,1.67148 0.5575,4.03686 0.9726,6.99414 0.8303,5.91456 2.0072,14.20309 3.4141,24.06836 2.8138,19.73053 6.5493,45.76488 10.2793,71.70898 7.46,51.88822 14.8984,103.41407 14.8984,103.41407 a 1.0583349,1.0583349 0 0 0 1.1973,0.89648 1.0583349,1.0583349 0 0 0 0.8965,-1.19922 c 0,0 -7.4386,-51.5247 -14.8984,-103.41211 -3.73,-25.9437 -7.4639,-51.97806 -10.2774,-71.70703 -1.4068,-9.86448 -2.5842,-18.15286 -3.4141,-24.06445 -0.4149,-2.9558 -0.7436,-5.31825 -0.9707,-6.98438 -0.1135,-0.83306 -0.2009,-1.49232 -0.2617,-1.96289 -0.061,-0.47056 -0.096,-0.8229 -0.094,-0.78125 a 1.0583349,1.0583349 0 0 0 -1.1192,-0.99414 z"
                    id="path43105"
                    stroke-width="0.5"
                    stroke-linecap="round"
                    stroke-linejoin="round"
                    stroke="black" />
                <path
                    d="m -2973.7207,710.58789 a 1.0583349,1.0583349 0 0 0 -1.0684,1.04688 1.0583349,1.0583349 0 0 0 1.0469,1.07031 l 15.291,0.1582 a 1.0583349,1.0583349 0 0 0 1.0703,-1.04687 1.0583349,1.0583349 0 0 0 -1.0488,-1.07032 z"
                    id="path43107"
                    stroke-width="0.5"
                    stroke-linecap="round"
                    stroke-linejoin="round"
                    stroke="black" />
                <path
                    d="m -2981.2051,622.10352 a 1.0584408,1.0584408 0 0 0 -1.0586,1.05859 v 54.03516 a 1.0583349,1.0583349 0 0 0 1.0586,1.05859 1.0583349,1.0583349 0 0 0 1.0586,-1.05859 v -52.97852 h 29.1797 l -0.5273,53.0918 a 1.0583349,1.0583349 0 0 0 1.0488,1.06836 1.0583349,1.0583349 0 0 0 1.0683,-1.04688 l 0.5372,-54.16016 a 1.0584408,1.0584408 0 0 0 -1.0586,-1.06835 z"
                    id="path43109"
                    stroke-width="0.5"
                    stroke-linecap="round"
                    stroke-linejoin="round"
                    stroke="black" />
                <path
                    d="m -2981.3416,622.31511 -3.5218,0.82875 0.4142,54.46802 2.8131,-0.53501 z"
                    id="path43111"
                    stroke-width="1.05833"
                    stroke-linecap="round"
                    stroke-linejoin="round"
                    stroke="black" />
                <path id="circle43113"
                    d="m -2971.9038,631.96588 a 2.0654676,2.0654676 0 0 1 -2.0654,2.06547 2.0654676,2.0654676 0 0 1 -2.0655,-2.06547 2.0654676,2.0654676 0 0 1 2.0655,-2.06547 2.0654676,2.0654676 0 0 1 2.0654,2.06547 z"
                    stroke-width="0.132291"
                    stroke="black" />
                <path id="circle43115"
                    d="m -2972.1052,638.00061 a 2.0654676,2.0654676 0 0 1 -2.0655,2.06547 2.0654676,2.0654676 0 0 1 -2.0654,-2.06547 2.0654676,2.0654676 0 0 1 2.0654,-2.06547 2.0654676,2.0654676 0 0 1 2.0655,2.06547 z"
                    stroke-width="0.132291"
                    stroke="black" />
                <path id="circle43117"
                    d="m -2965.7473,634.5592 a 2.0654676,2.0654676 0 0 1 -2.0654,2.06547 2.0654676,2.0654676 0 0 1 -2.0655,-2.06547 2.0654676,2.0654676 0 0 1 2.0655,-2.06546 2.0654676,2.0654676 0 0 1 2.0654,2.06546 z"
                    stroke-width="0.132291"
                    stroke="black" />
                <path
                    d="m -2974.7695,626.25586 c -2.3519,0 -4.2793,1.92546 -4.2793,4.27734 v 8.88867 c 0,2.35189 1.9274,4.27735 4.2793,4.27735 h 7.8496 c 2.3519,0 4.2773,-1.92546 4.2773,-4.27735 v -8.88867 c 0,-2.35188 -1.9254,-4.27734 -4.2773,-4.27734 z m 0,2.11523 h 7.8496 c 1.2159,0 2.1621,0.94622 2.1621,2.16211 v 8.88867 c 0,1.21588 -0.9462,2.16016 -2.1621,2.16016 h -7.8496 c -1.2159,0 -2.1621,-0.94428 -2.1621,-2.16016 v -8.88867 c 0,-1.21589 0.9462,-2.16211 2.1621,-2.16211 z"
                    id="rect43119"
                    stroke-width="0.5"
                    stroke="black" />
                <path
                    d="m -2995.3184,645.48828 a 1.0583349,1.0583349 0 0 0 -0.8066,0.0742 l -12.166,6.40234 a 1.0583349,1.0583349 0 0 0 -0.4434,1.42969 1.0583349,1.0583349 0 0 0 1.4297,0.44336 l 12.166,-6.40234 a 1.0583349,1.0583349 0 0 0 0.4434,-1.42969 1.0583349,1.0583349 0 0 0 -0.6231,-0.51758 z"
                    id="path43121"
                    stroke-width="0.5"
                    stroke-linecap="round"
                    stroke-linejoin="round"
                    stroke="black" />
                <path
                    d="m -3009.0918,628.41797 a 1.0583349,1.0583349 0 0 0 -1.2031,0.89062 1.0583349,1.0583349 0 0 0 0.8906,1.20313 l 12.4258,1.8457 a 1.0583349,1.0583349 0 0 0 1.2031,-0.89062 1.0583349,1.0583349 0 0 0 -0.8906,-1.20313 z"
                    id="path43123"
                    stroke-width="0.5"
                    stroke-linecap="round"
                    stroke-linejoin="round"
                    stroke="black" />
                <path
                    d="m -3001.5879,607.27344 a 1.0583349,1.0583349 0 0 0 -1.4609,0.32617 1.0583349,1.0583349 0 0 0 0.3261,1.46094 l 11.8926,7.54297 a 1.0583349,1.0583349 0 0 0 1.461,-0.32813 1.0583349,1.0583349 0 0 0 -0.3282,-1.45898 z"
                    id="path43125"
                    stroke-width="0.5"
                    stroke-linecap="round"
                    stroke-linejoin="round"
                    stroke="black" />
                <path
                    d="m -2984.4293,677.36539 -5.0157,-0.41492 0.2319,28.87382 4.0881,0.89089 -0.5369,-27.61687 z"
                    id="path43127"
                    stroke-width="1.05833"
                    stroke-linecap="round"
                    stroke-linejoin="round"
                    stroke="black" />
            </g>
            <path
                d="m 1011.9414,4102.3105 c -1.1081,0.1317 -2.4314,0.5002 -3.957,1.0372 -3.0513,1.0739 -6.8777,2.8398 -10.74026,4.8808 -3.86259,2.0411 -7.75218,4.353 -10.89453,6.5215 -3.14235,2.1685 -5.51652,4.0492 -6.51563,5.8535 -3.2222,5.8192 -9.65575,15.3219 -15.43945,32.4629 -5.7837,17.141 -10.94627,41.9622 -11.83203,78.6856 a 1.0583349,1.0583349 0 0 0 1.03125,1.0839 1.0583349,1.0583349 0 0 0 1.08398,-1.0332 c 0.88154,-36.5481 6.01482,-61.1443 11.72266,-78.0605 5.70784,-16.9162 11.96162,-26.1075 15.28711,-32.1133 0.53149,-0.9598 2.81649,-3.0328 5.86523,-5.1367 3.04875,-2.1039 6.88231,-4.386 10.67969,-6.3926 3.79738,-2.0066 7.56908,-3.74 10.45508,-4.7559 1.443,-0.5079 2.6725,-0.8328 3.5039,-0.9316 0.3926,-0.047 0.6719,-0.032 0.8281,-0.01 2.2467,12.0482 7.0367,27.6035 19.9239,34.295 a 1.0583349,1.0583349 0 0 0 1.4277,-0.4532 1.0583349,1.0583349 0 0 0 -0.4531,-1.4257 c -12.0157,-6.2389 -16.7492,-21.3605 -18.9219,-33.25 a 1.0584408,1.0584408 0 0 0 -0.1504,-0.3809 c -0.3263,-0.5107 -0.8667,-0.7621 -1.3574,-0.8613 -0.4908,-0.099 -0.9928,-0.085 -1.5469,-0.02 z"
                id="path43131"
                stroke-width="0.5"
                stroke-linecap="round"
                stroke-linejoin="round"
                stroke="black" />
            <path
                d="m 993.13281,4150.1621 a 1.0583349,1.0583349 0 0 0 -0.75195,1.293 c 4.21415,15.9641 5.79316,35.6488 4.94531,50.584 a 1.0583349,1.0583349 0 0 0 0.9961,1.1171 1.0583349,1.0583349 0 0 0 1.11718,-0.998 c 0.86215,-15.1872 -0.72168,-34.9906 -5.01172,-51.2422 a 1.0583349,1.0583349 0 0 0 -1.29492,-0.7539 z"
                id="path43133"
                stroke-width="0.5"
                stroke-linecap="round"
                stroke-linejoin="round"
                stroke="black" />
            <path
                d="m 1045.1074,4146.6523 c -1.2571,0.076 -2.5318,0.9198 -3.5058,2.2813 -2.4134,3.3735 -4.7247,8.9554 -12.6817,21.7305 -4.0079,6.4348 -6.4474,11.0157 -7.8437,14.3125 -1.3964,3.2968 -1.8202,5.2907 -1.4942,6.8007 a 1.0583349,1.0583349 0 0 0 1.2578,0.8125 1.0583349,1.0583349 0 0 0 0.8125,-1.2578 c -0.1376,-0.6377 0.048,-2.4008 1.3731,-5.5293 1.325,-3.1284 3.7183,-7.6406 7.6914,-14.0195 8.0052,-12.8525 10.479,-18.6447 12.6055,-21.6172 0.9712,-1.3576 1.8107,-1.5221 2.2656,-1.3476 0.4549,0.1744 1.0799,0.9529 1.0156,2.8183 -0.062,1.7998 -1.1331,5.5846 -2.209,8.7578 -1.0758,3.1732 -2.1347,5.8243 -2.1347,5.8242 a 1.0583349,1.0583349 0 0 0 0.5898,1.375 1.0583349,1.0583349 0 0 0 1.375,-0.5898 c 0,0 1.0775,-2.696 2.1738,-5.9297 1.0964,-3.2337 2.236,-6.9182 2.3204,-9.3652 0.082,-2.3815 -0.7595,-4.2484 -2.3731,-4.8672 -0.4034,-0.1547 -0.8192,-0.2149 -1.2383,-0.1895 z"
                id="path43135"
                stroke-width="0.5"
                stroke-linecap="round"
                stroke-linejoin="round"
                stroke="black" />
            <path
                d="m 1079.1016,4142.2246 a 1.0583349,1.0583349 0 0 0 -1.4961,0.022 c -7.9579,8.1935 -17.6795,14.6821 -27.6778,20.9785 a 1.0583349,1.0583349 0 0 0 -0.332,1.4609 1.0583349,1.0583349 0 0 0 1.459,0.3321 c 10.0289,-6.3158 19.8999,-12.8847 28.0683,-21.2949 a 1.0583349,1.0583349 0 0 0 -0.021,-1.4981 z"
                id="path43137"
                stroke-width="0.5"
                stroke-linecap="round"
                stroke-linejoin="round"
                stroke="black" />
            <path
                d="m 1088.8652,4143.0527 a 1.0583349,1.0583349 0 0 0 -0.7187,0.3731 1.0583349,1.0583349 0 0 0 -0.1992,0.6308 c 2e-4,0 0,-0.01 0,-0.01 0.022,-0.1218 0.035,-0.1067 0.012,-0.062 -0.047,0.088 -0.2019,0.3231 -0.4297,0.6152 -0.4557,0.5841 -1.2096,1.435 -2.1641,2.4395 -1.9089,2.009 -4.6309,4.6526 -7.5703,7.3105 -2.9394,2.6579 -6.1003,5.3353 -8.8808,7.4199 -2.7806,2.0846 -5.2981,3.5613 -6.4161,3.8242 a 1.0583349,1.0583349 0 0 0 -0.7871,1.2735 1.0583349,1.0583349 0 0 0 1.2715,0.7871 c 1.9338,-0.4549 4.341,-2.0472 7.2012,-4.1914 2.8601,-2.1443 6.0567,-4.8532 9.0312,-7.543 2.9746,-2.6897 5.7231,-5.3565 7.6856,-7.4219 0.9812,-1.0326 1.7636,-1.9095 2.2988,-2.5957 0.2676,-0.343 0.4726,-0.6286 0.6309,-0.9277 0.079,-0.1495 0.1536,-0.2965 0.1992,-0.543 0.046,-0.2465 0.03,-0.7848 -0.3867,-1.1347 a 1.0583349,1.0583349 0 0 0 -0.7735,-0.2442 z"
                id="path43139"
                stroke-width="0.5"
                stroke-linecap="round"
                stroke-linejoin="round"
                stroke="black" />
            <path
                d="m 1099.9043,4147.0527 a 1.0583349,1.0583349 0 0 0 -0.7598,0.2832 c -9.6113,8.9693 -20.0745,19.1892 -30.9062,25.1778 a 1.0583349,1.0583349 0 0 0 -0.4141,1.4375 1.0583349,1.0583349 0 0 0 1.4375,0.414 c 11.2157,-6.2008 21.7445,-16.5391 31.3281,-25.4824 a 1.0583349,1.0583349 0 0 0 0.051,-1.4941 1.0583349,1.0583349 0 0 0 -0.7363,-0.336 z"
                id="path43141"
                stroke-width="0.5"
                stroke-linecap="round"
                stroke-linejoin="round"
                stroke="black" />
            <path
                d="m 1097.3086,4159.7832 a 1.0583349,1.0583349 0 0 0 -1.4922,0.1191 c -6.1693,7.2412 -14.5595,13.9619 -23.5351,19.3223 a 1.0583349,1.0583349 0 0 0 -0.3653,1.4512 1.0583349,1.0583349 0 0 0 1.4512,0.3652 c 9.1449,-5.4615 17.6968,-12.2962 24.0605,-19.7656 a 1.0583349,1.0583349 0 0 0 -0.1191,-1.4922 z"
                id="path43143"
                stroke-width="0.5"
                stroke-linecap="round"
                stroke-linejoin="round"
                stroke="black" />
            <path
                d="m 1097.6895,4168.7227 a 1.0583349,1.0583349 0 0 0 -1.4961,0.041 c 0,0 -7.9068,8.3442 -20.3321,19.8925 -6.0087,5.5848 -15.2391,9.4354 -22.955,11.8282 -7.716,2.3927 -13.877,3.3515 -13.877,3.3515 a 1.0583349,1.0583349 0 0 0 -0.8848,1.209 1.0583349,1.0583349 0 0 0 1.209,0.8828 c 0,0 6.3117,-0.9819 14.1797,-3.4218 7.868,-2.44 17.3308,-6.3145 23.7695,-12.2989 12.4698,-11.5896 20.4278,-19.9882 20.4278,-19.9883 a 1.0583349,1.0583349 0 0 0 -0.041,-1.496 z"
                id="path43145"
                stroke-width="0.5"
                stroke-linecap="round"
                stroke-linejoin="round"
                stroke="black" />
            <path
                d="m 1015.9258,4194.6152 c -2.0634,1.306 -14.786,9.9703 -27.16408,17.8164 -6.19892,3.9293 -13.72018,8.6896 -20.13672,13.6075 -6.41654,4.9178 -11.76913,9.91 -13.58008,14.7929 -1.65399,4.4597 -3.01593,8.4831 -3.77734,11.836 -0.76142,3.3528 -1.02826,6.0445 -0.004,8.0293 0.46706,0.9049 1.26095,1.2289 2.28125,1.6269 1.0203,0.398 2.32424,0.7458 3.8711,1.041 3.09371,0.5905 7.14873,0.9576 11.57617,0.877 8.85488,-0.1612 19.21554,-2.0733 26.07617,-7.9356 6.66093,-5.6917 16.47303,-16.619 24.67963,-26.164 8.2067,-9.5451 14.7754,-17.6895 14.7754,-17.6895 a 1.0583349,1.0583349 0 0 0 -0.1601,-1.4883 1.0583349,1.0583349 0 0 0 -1.4883,0.1602 c 0,0 -6.5498,8.1216 -14.7324,17.6387 -8.1826,9.517 -18.03,20.4467 -24.45118,25.9336 -6.22156,5.3162 -16.16658,7.2736 -24.73829,7.4297 -4.28585,0.078 -8.22413,-0.2852 -11.14062,-0.8418 -1.45824,-0.2784 -2.66461,-0.6078 -3.5,-0.9336 -0.83539,-0.3259 -1.24453,-0.7734 -1.16797,-0.625 -0.53765,-1.0418 -0.53378,-3.4138 0.1875,-6.5899 0.72129,-3.1761 2.05627,-7.1457 3.69727,-11.5703 1.48395,-4.0012 6.57722,-9.0148 12.88281,-13.8477 6.30559,-4.8328 13.78266,-9.5682 19.98242,-13.498 12.41926,-7.8722 25.37096,-16.6835 27.16406,-17.8184 a 1.0583349,1.0583349 0 0 0 0.3281,-1.4589 1.0583349,1.0583349 0 0 0 -1.4609,-0.3282 z"
                id="path43147"
                stroke-width="0.5"
                stroke-linecap="round"
                stroke-linejoin="round"
                stroke="black" />
            <path
                d="m 1066.4727,4098.8965 a 1.0583349,1.0583349 0 0 0 -1.1016,1.0137 1.0583349,1.0583349 0 0 0 1.0156,1.1015 c 25.0683,1.0297 39.8932,11.2016 50.0488,26.7559 10.1557,15.5543 15.5104,36.589 21.0411,59.0605 a 1.0583349,1.0583349 0 0 0 1.2793,0.7754 1.0583349,1.0583349 0 0 0 0.7754,-1.2812 c -5.5328,-22.48 -10.877,-43.7148 -21.3223,-59.7129 -10.4454,-15.9981 -26.1242,-26.6608 -51.7363,-27.7129 z"
                id="path43149"
                stroke-width="0.5"
                stroke-linecap="round"
                stroke-linejoin="round"
                stroke="black" />
            <path
                d="m 1100.6621,4175.9238 a 1.0583349,1.0583349 0 0 0 -0.8223,1.25 c 0,0 1.2095,5.867 8.5098,32.4317 7.1875,26.1541 20.7029,92.3279 20.9981,93.7734 -1.9502,1.003 -33.6642,17.0682 -74.7813,20.3379 -41.1765,3.2743 -64.92234,-11.003 -66.25781,-11.8262 l 0.64649,-32.2558 a 1.0583349,1.0583349 0 0 0 -1.03711,-1.0801 1.0583349,1.0583349 0 0 0 -1.07813,1.0371 l -0.66015,32.9062 a 1.0584408,1.0584408 0 0 0 0.49218,0.9141 c 0,0 25.11053,15.8295 68.06253,12.4141 42.9052,-3.412 76.3125,-20.9121 76.3125,-20.9121 a 1.0584408,1.0584408 0 0 0 0.5449,-1.1504 c 0,0 -13.8719,-68.0487 -21.2012,-94.7188 -7.295,-26.5456 -8.4765,-32.2988 -8.4765,-32.2988 a 1.0583349,1.0583349 0 0 0 -1.252,-0.8223 z"
                id="path43151"
                stroke-width="0.5"
                stroke-linecap="round"
                stroke-linejoin="round"
                stroke="black" />
            <path
                d="m 1175.6328,4175.6699 a 1.0583349,1.0583349 0 0 0 -0.7519,1.293 c -0.1302,-0.4899 -0.02,-0.429 -0.016,-0.4453 0,-0.016 0,0.012 -0.016,0.055 -0.029,0.085 -0.088,0.2406 -0.168,0.4414 -0.1609,0.4016 -0.4134,0.9938 -0.7421,1.7383 -0.6575,1.4889 -1.6222,3.5958 -2.8145,6.1269 -2.3846,5.0623 -5.679,11.8244 -9.252,18.791 -3.5729,6.9667 -7.4261,14.1393 -10.9257,20.0137 -3.4996,5.8744 -6.7473,10.4986 -8.6739,12.1172 -3.2612,2.7399 -7.4604,3.1447 -11.4238,2.2461 -3.9633,-0.8986 -7.6096,-3.1625 -9.4023,-5.3926 -1.8144,-2.257 -3.1738,-5.9899 -3.8575,-9.7188 -0.6836,-3.7289 -0.6926,-7.4898 -0.1191,-9.6543 0.4839,-1.8258 3.2838,-4.3375 6.0566,-6.1445 2.7729,-1.807 5.3985,-3.0273 5.3985,-3.0273 a 1.0583349,1.0583349 0 0 0 0.5156,-1.4043 1.0583349,1.0583349 0 0 0 -1.4062,-0.5156 c 0,0 -2.7441,1.2709 -5.6641,3.1738 -2.9201,1.9029 -6.1356,4.3194 -6.9453,7.375 -0.72,2.717 -0.6439,6.6207 0.082,10.5801 0.7259,3.9593 2.1008,7.94 4.2891,10.6621 2.2099,2.749 6.1647,5.1288 10.584,6.1308 4.4192,1.002 9.3836,0.5622 13.2539,-2.6894 2.4881,-2.0904 5.5933,-6.7163 9.1308,-12.6543 3.5376,-5.9381 7.4064,-13.1392 10.9922,-20.1309 3.5858,-6.9916 6.8862,-13.771 9.2813,-18.8555 1.1975,-2.5422 2.1672,-4.6593 2.8359,-6.1738 0.3343,-0.7572 0.5939,-1.3636 0.7715,-1.8066 0.089,-0.2215 0.1569,-0.3996 0.209,-0.5547 0.026,-0.078 0.047,-0.1474 0.068,-0.2363 0.021,-0.089 0.1384,-0.076 0,-0.5899 a 1.0583349,1.0583349 0 0 0 -1.293,-0.75 z"
                id="path43153"
                stroke-width="0.5"
                stroke-linecap="round"
                stroke-linejoin="round"
                stroke="black" />
            <path
                d="m 1179.041,4116.7949 c -0.6427,-0.016 -1.3199,0.3455 -1.6816,0.8301 -0.7236,0.9692 -0.794,2.1586 -0.8809,3.7383 -0.1738,3.1594 0.035,7.8872 -0.4824,13.5195 -0.5077,5.5254 -2.4026,10.1078 -4.3965,13.6172 -1.9939,3.5094 -4.0424,5.8782 -4.9961,7.1895 -0.2846,0.3913 -1.7582,1.9629 -3.7344,3.955 -1.9761,1.9922 -4.5239,4.5114 -7.2246,7.209 -5.4012,5.3952 -11.4033,11.4772 -14.7754,15.5586 -3.4656,4.1947 -7.3202,11.7766 -10.4355,18.6328 -1.5577,3.4281 -2.9172,6.6649 -3.9141,9.1778 -0.4984,1.2564 -0.9056,2.3327 -1.2031,3.166 -0.2975,0.8333 -0.4777,1.3459 -0.5605,1.7988 a 1.0583349,1.0583349 0 0 0 0.8496,1.2305 1.0583349,1.0583349 0 0 0 1.2324,-0.8496 c 0.01,-0.047 0.1851,-0.6691 0.4707,-1.4688 0.2855,-0.7997 0.6861,-1.8565 1.1777,-3.0957 0.9832,-2.4784 2.333,-5.6883 3.875,-9.082 3.0841,-6.7875 6.9901,-14.3512 10.1387,-18.1621 3.2422,-3.9243 9.2479,-10.0215 14.6406,-15.4082 2.6964,-2.6934 5.2428,-5.213 7.2305,-7.2168 1.9877,-2.0038 3.3493,-3.3844 3.9434,-4.2012 0.8036,-1.105 3.0265,-3.6899 5.1269,-7.3867 2.1004,-3.6968 4.1222,-8.5735 4.6641,-14.4707 0.532,-5.7904 0.3245,-10.6533 0.4863,-13.5957 0.08,-1.4457 0.354,-2.3889 0.4551,-2.545 0.066,0.01 0.2787,0.053 0.664,0.295 1.618,1.0136 3.0964,3.6682 3.9922,6.3965 0.8958,2.7282 1.232,5.6281 1.1328,6.4707 -0.096,0.8143 -0.1267,2.5851 -0.1543,5.0293 -0.027,2.4441 -0.037,5.4621 -0.037,8.4023 0,5.8804 0.037,11.4492 0.037,11.4492 a 1.0583349,1.0583349 0 0 0 1.0645,1.0508 1.0583349,1.0583349 0 0 0 1.0527,-1.0664 c 0,0 -0.037,-5.562 -0.037,-11.4336 0,-2.9358 0.01,-5.9492 0.037,-8.3789 0.027,-2.4297 0.088,-4.3742 0.1387,-4.8047 0.1938,-1.6469 -0.2513,-4.4203 -1.2227,-7.3789 -0.9713,-2.9586 -2.4471,-6.0046 -4.8808,-7.5293 -0.5937,-0.3719 -1.1502,-0.6266 -1.793,-0.6426 z"
                id="path43155"
                stroke-width="0.5"
                stroke-linecap="round"
                stroke-linejoin="round"
                stroke="black" />
            <path
                d="m 1232.8926,4145.6621 c -3.8383,0.095 -8.3228,2.123 -12.0957,4.3164 -1.8865,1.0967 -3.5817,2.2425 -4.8906,3.2461 -1.309,1.0037 -2.1813,1.698 -2.6758,2.5606 -0.05,0.087 -0.5583,0.5902 -1.502,1.0253 -0.9436,0.4352 -2.301,0.8665 -4.0312,1.1739 -3.4605,0.6148 -8.4172,0.745 -14.7149,-0.3946 -6.6023,-1.1947 -10.6746,0.039 -13.209,1.7579 -1.2672,0.8593 -2.1427,1.8222 -2.7714,2.5703 -0.6288,0.748 -1.1852,1.2374 -1.0079,1.1601 a 1.0583349,1.0583349 0 0 0 -0.5488,1.3926 1.0583349,1.0583349 0 0 0 1.3926,0.5488 c 0.9339,-0.4067 1.2016,-1.0483 1.7832,-1.7402 0.5816,-0.692 1.3036,-1.477 2.3398,-2.1797 2.0725,-1.4054 5.4331,-2.5517 11.6446,-1.4277 6.516,1.1791 11.7111,1.063 15.4629,0.3965 1.8758,-0.3333 3.3899,-0.8005 4.5468,-1.334 1.1569,-0.5335 1.9785,-1.0687 2.4532,-1.8965 0.03,-0.053 0.8994,-0.9938 2.125,-1.9336 1.2255,-0.9398 2.8579,-2.0446 4.666,-3.0957 3.6162,-2.1023 7.9926,-3.955 11.0859,-4.0313 a 1.0583349,1.0583349 0 0 0 1.0313,-1.0839 1.0583349,1.0583349 0 0 0 -1.084,-1.0313 z"
                id="path43157"
                stroke-width="0.5"
                stroke-linecap="round"
                stroke-linejoin="round"
                stroke="black" />
            <path
                d="m 1069.4609,4106.5449 a 1.0583349,1.0583349 0 0 0 -0.8027,0.1133 1.0583349,1.0583349 0 0 0 -0.373,1.4492 c 0,0 0.852,1.42 1.7949,4.9297 0.9428,3.5097 1.9283,9.0292 2.0371,16.9785 0.052,3.7993 -1.0437,6.397 -2.6895,8.293 -1.6457,1.896 -3.8993,3.096 -6.2187,3.834 -4.6389,1.4758 -9.3906,1.0586 -9.3906,1.0586 a 1.0583349,1.0583349 0 0 0 -1.1504,0.957 1.0583349,1.0583349 0 0 0 0.957,1.1504 c 0,0 5.0843,0.4856 10.2266,-1.1504 2.5711,-0.818 5.1948,-2.1787 7.1757,-4.4609 1.981,-2.2822 3.263,-5.4802 3.2051,-9.711 -0.1109,-8.1106 -1.116,-13.8076 -2.1074,-17.498 -0.9914,-3.6904 -2.0176,-5.4551 -2.0176,-5.4551 a 1.0583349,1.0583349 0 0 0 -0.6465,-0.4883 z"
                id="path43159"
                stroke-width="0.5"
                stroke-linecap="round"
                stroke-linejoin="round"
                stroke="black" />
            <path
                d="m 1059.4453,4089.5762 a 1.0583349,1.0583349 0 0 0 -1.4629,0.3125 c -1.219,1.8847 -1.5207,4.5587 -1.4883,7.6113 0.032,3.0526 0.4594,6.4909 1.0235,9.7988 0.5641,3.308 1.2657,6.4826 1.8554,8.9746 0.5898,2.4921 1.0821,4.3797 1.1719,4.8243 a 1.0583349,1.0583349 0 0 0 1.2481,0.8261 1.0583349,1.0583349 0 0 0 0.8261,-1.2461 c -0.142,-0.7026 -0.6019,-2.4243 -1.1855,-4.8906 -0.5836,-2.4663 -1.2772,-5.6016 -1.8301,-8.8437 -0.5529,-3.2422 -0.9637,-6.595 -0.9941,-9.4649 -0.031,-2.8698 0.3803,-5.2488 1.1504,-6.4394 a 1.0583349,1.0583349 0 0 0 -0.3145,-1.4629 z"
                id="path43161"
                stroke-width="0.5"
                stroke-linecap="round"
                stroke-linejoin="round"
                stroke="black" />
            <path
                d="m 1083.541,4013.2227 a 1.0583349,1.0583349 0 0 0 -0.9472,1.1582 c 2.6852,27.0876 -9.6115,60.4598 -25.0411,75.5312 -3.8574,3.7679 -7.8886,6.3836 -11.8632,7.5352 -3.9746,1.1516 -7.8818,0.887 -11.7442,-1.1621 -7.7247,-4.0983 -15.3113,-15.6789 -20.8828,-37.9668 a 1.0583349,1.0583349 0 0 0 -1.2832,-0.7696 1.0583349,1.0583349 0 0 0 -0.7695,1.2832 c 5.6382,22.5551 13.288,34.7303 21.9433,39.3223 4.3277,2.296 8.8979,2.6087 13.3242,1.3262 4.4263,-1.2825 8.7207,-4.1132 12.754,-8.0528 16.1328,-15.7583 28.4315,-49.3779 25.6679,-77.2558 a 1.0583349,1.0583349 0 0 0 -1.1582,-0.9492 z"
                id="path43163"
                stroke-width="0.5"
                stroke-linecap="round"
                stroke-linejoin="round"
                stroke="black" />
            <path
                d="m 1239.6641,4147.7031 a 1.0583349,1.0583349 0 0 0 -0.7852,0.1992 c 0,0 -6.9325,5.1953 -14.7715,10.8516 -7.839,5.6563 -16.696,11.8215 -20.1094,13.5606 -1.5581,0.7938 -4.5759,1.4307 -8.1035,1.8125 -3.5275,0.3817 -7.5943,0.5489 -11.4375,0.6015 -7.6862,0.1052 -14.4746,-0.25 -14.4746,-0.25 a 1.0583349,1.0583349 0 0 0 -1.1113,1.002 1.0583349,1.0583349 0 0 0 1.0019,1.1113 c 0,0 6.8447,0.3602 14.6133,0.2539 3.8843,-0.053 8.0012,-0.222 11.6348,-0.6152 3.6336,-0.3933 6.7546,-0.9699 8.8379,-2.0313 3.8696,-1.9715 12.5292,-8.0588 20.3867,-13.7285 7.8575,-5.6696 14.8027,-10.873 14.8027,-10.873 a 1.0583349,1.0583349 0 0 0 0.211,-1.4825 1.0583349,1.0583349 0 0 0 -0.6953,-0.4121 z"
                id="path43165"
                stroke-width="0.5"
                stroke-linecap="round"
                stroke-linejoin="round"
                stroke="black" />
            <path
                d="m 1244.8887,4133.416 c -2.0859,0.076 -5.1465,0.3119 -9.0489,0.9492 -4.171,0.6812 -9.5165,3.3882 -13.9394,5.9121 -4.4229,2.524 -7.8711,4.8907 -7.8711,4.8907 a 1.0583349,1.0583349 0 0 0 -0.2754,1.4707 1.0583349,1.0583349 0 0 0 1.4707,0.2734 c 0,0 3.3846,-2.3182 7.7246,-4.7949 4.34,-2.4767 9.6871,-5.0854 13.2305,-5.6641 7.6242,-1.2451 11.7441,-0.9199 11.7441,-0.9199 a 1.0583349,1.0583349 0 0 0 1.1367,-0.9746 1.0583349,1.0583349 0 0 0 -0.9746,-1.1367 c 0,0 -1.1113,-0.082 -3.1972,-0.01 z"
                id="path43167"
                stroke-width="0.5"
                stroke-linecap="round"
                stroke-linejoin="round"
                stroke="black" />
            <path
                d="m 1247.291,4123.791 c -2.6046,-0.038 -6.4905,0.2028 -11.6894,1.2969 -10.7598,2.2643 -20.9746,12.4648 -20.9746,12.4648 a 1.0583349,1.0583349 0 0 0 -0.014,1.4981 1.0583349,1.0583349 0 0 0 1.498,0.012 c 0,0 10.1826,-9.8519 19.9258,-11.9023 5.0525,-1.0633 8.7792,-1.2895 11.2227,-1.254 2.4434,0.036 3.5293,0.3125 3.5293,0.3125 a 1.0583349,1.0583349 0 0 0 1.2812,-0.7734 1.0583349,1.0583349 0 0 0 -0.7754,-1.2812 c 0,0 -1.3993,-0.3352 -4.0039,-0.3731 z"
                id="path43169"
                stroke-width="0.5"
                stroke-linecap="round"
                stroke-linejoin="round"
                stroke="black" />
            <path
                d="m 1232.2793,4119.8945 c -3.4618,-0.3858 -7.2811,2.1419 -10.7363,4.7344 -1.7277,1.2963 -3.3393,2.6475 -4.6582,3.7578 -1.319,1.1103 -2.411,2.007 -2.8125,2.2539 a 1.0583349,1.0583349 0 0 0 -0.3477,1.4571 1.0583349,1.0583349 0 0 0 1.457,0.3476 c 0.7634,-0.4693 1.7503,-1.3315 3.0664,-2.4394 1.3162,-1.108 2.8965,-2.4341 4.5645,-3.6856 3.3359,-2.503 7.1198,-4.5577 9.2324,-4.3223 2.6012,0.29 3.5023,1.06 3.8457,1.5586 0.3435,0.4986 0.252,0.75 0.252,0.75 a 1.0583349,1.0583349 0 0 0 0.8457,1.2344 1.0583349,1.0583349 0 0 0 1.2344,-0.8437 c 0,0 0.1861,-1.2162 -0.5879,-2.3399 -0.7741,-1.1236 -2.3822,-2.1315 -5.3555,-2.4629 z"
                id="path43171"
                stroke-width="0.5"
                stroke-linecap="round"
                stroke-linejoin="round"
                stroke="black" />
            <path
                d="m 1191.8945,4106.1836 a 1.0584408,1.0584408 0 0 0 -0.6425,0.2168 l -4.0665,3.0996 c -1.3444,1.0252 -2.2191,2.7448 -2.2558,4.4355 -0.054,2.4729 -0.1422,6.568 -0.2129,10.1387 -0.035,1.7854 -0.067,3.4392 -0.088,4.6953 -0.02,1.2562 -0.035,2.0046 -0.021,2.3535 a 1.0583349,1.0583349 0 0 0 1.0996,1.0157 1.0583349,1.0583349 0 0 0 1.0157,-1.0977 c -10e-4,-0.023 0,-0.9848 0.023,-2.2363 0.02,-1.2515 0.051,-2.9035 0.086,-4.6875 0.071,-3.5681 0.1593,-7.6626 0.2129,-10.1348 0.017,-0.7958 0.7901,-2.3156 1.4239,-2.7988 l 3.7832,-2.8848 h 13.8203 l 4.4511,2.5723 c 0.881,0.5086 1.4219,1.4437 1.4219,2.4609 v 43.1758 a 1.0583349,1.0583349 0 0 0 1.0586,1.0586 1.0583349,1.0583349 0 0 0 1.0586,-1.0586 v -43.1758 c 0,-1.77 -0.9475,-3.4099 -2.4805,-4.2949 l -4.6972,-2.7129 a 1.0584408,1.0584408 0 0 0 -0.5293,-0.1406 z"
                id="path43173"
                stroke-width="0.5"
                stroke-linecap="round"
                stroke-linejoin="round"
                stroke="black" />
            <path
                d="m 1212.6289,4115.5098 c -8.4536,3.1095 -17.005,3.9383 -26.2285,0.02 a 1.0583349,1.0583349 0 0 0 -1.3867,0.5605 1.0583349,1.0583349 0 0 0 0.5605,1.3887 c 9.7617,4.1474 19.0054,3.249 27.7852,0.019 a 1.0583349,1.0583349 0 0 0 0.6269,-1.3593 1.0583349,1.0583349 0 0 0 -1.3574,-0.6289 z"
                id="path43175"
                stroke-width="0.5"
                stroke-linecap="round"
                stroke-linejoin="round"
                stroke="black" />
            <path
                d="m 1185.4961,4137.0918 a 1.0583349,1.0583349 0 0 0 -0.5859,0.5586 1.0583349,1.0583349 0 0 0 0.539,1.3965 c 9.425,4.1816 18.7301,4.0021 27.6602,0 a 1.0583349,1.0583349 0 0 0 0.5332,-1.3984 1.0583349,1.0583349 0 0 0 -1.3985,-0.5313 c -8.4584,3.7926 -16.9977,3.9644 -25.9375,0 a 1.0583349,1.0583349 0 0 0 -0.8105,-0.021 z"
                id="path43177"
                stroke-width="0.5"
                stroke-linecap="round"
                stroke-linejoin="round"
                stroke="black" />
            <path
                d="m 1194.5137,4091.9414 c -1.9112,0 -3.4824,1.5713 -3.4824,3.4824 v 11.4141 a 1.0583349,1.0583349 0 0 0 1.0585,1.0586 1.0583349,1.0583349 0 0 0 1.0567,-1.0586 v -11.4141 c 0,-0.7672 0.6,-1.3652 1.3672,-1.3652 h 10.1738 c 0.7672,0 1.3652,0.598 1.3652,1.3652 v 11.4766 a 1.0583349,1.0583349 0 0 0 1.0586,1.0586 1.0583349,1.0583349 0 0 0 1.0586,-1.0586 v -11.4766 c 0,-1.9111 -1.5713,-3.4824 -3.4824,-3.4824 z"
                id="path43179"
                stroke-width="0.5"
                stroke-linecap="round"
                stroke-linejoin="round"
                stroke="black" />
            <path
                d="m 1075.3867,4086.0332 a 1.0583349,1.0583349 0 0 0 -1.4297,0.4434 1.0583349,1.0583349 0 0 0 0.4434,1.4297 l 9.3711,4.9355 a 1.0583349,1.0583349 0 0 0 1.4297,-0.4434 1.0583349,1.0583349 0 0 0 -0.4434,-1.4296 z"
                id="path43181"
                stroke-width="0.5"
                stroke-linecap="round"
                stroke-linejoin="round"
                stroke="black" />
            <path
                d="m 1081.5215,4078.6621 a 1.0583349,1.0583349 0 0 0 -1.2324,0.8496 1.0583349,1.0583349 0 0 0 0.8496,1.2324 l 13.3242,2.4512 a 1.0583349,1.0583349 0 0 0 1.2324,-0.8496 1.0583349,1.0583349 0 0 0 -0.8496,-1.2324 z"
                id="path43183"
                stroke-width="0.5"
                stroke-linecap="round"
                stroke-linejoin="round"
                stroke="black" />
            <path
                d="m 1096.8164,4068.5918 -14.6523,1.8652 a 1.0583349,1.0583349 0 0 0 -0.9161,1.1817 1.0583349,1.0583349 0 0 0 1.1817,0.9179 l 14.6523,-1.8652 a 1.0583349,1.0583349 0 0 0 0.918,-1.1836 1.0583349,1.0583349 0 0 0 -1.1836,-0.916 z"
                id="path43185"
                stroke-width="0.5"
                stroke-linecap="round"
                stroke-linejoin="round"
                stroke="black" />
            <path
                d="m 1039.4238,4024.9395 a 1.0583349,1.0583349 0 0 0 -0.8125,1.2578 c 1.2881,6.0013 1.0048,10.9494 -0.1054,14.4785 -1.1103,3.5291 -3.0296,5.5574 -4.8536,6.0722 -1.8239,0.5149 -3.8289,-0.2203 -5.7441,-3.121 -1.9152,-2.9008 -3.5201,-7.9498 -3.9805,-15.4571 a 1.0583349,1.0583349 0 0 0 -1.1211,-0.9902 1.0583349,1.0583349 0 0 0 -0.9921,1.1211 c 0.4749,7.7451 2.0959,13.1142 4.3261,16.4922 2.2303,3.3779 5.2921,4.7814 8.0879,3.9922 2.7959,-0.7893 5.0489,-3.5078 6.2969,-7.4747 1.248,-3.9668 1.5074,-9.2631 0.1562,-15.5585 a 1.0583349,1.0583349 0 0 0 -1.2578,-0.8125 z"
                id="path43187"
                stroke-width="0.5"
                stroke-linecap="round"
                stroke-linejoin="round"
                stroke="black" />
            <path
                d="m 1072.9863,4007.2773 c -6.1811,-0.1781 -11.0183,1.9866 -14.2968,5.6055 -3.2786,3.6189 -5.0093,8.6178 -5.3262,14.0879 -0.6339,10.9402 4.3386,23.8903 14.6308,32.1875 a 1.0583349,1.0583349 0 0 0 1.4883,-0.1602 1.0583349,1.0583349 0 0 0 -0.1601,-1.4882 c -9.709,-7.8271 -14.4367,-20.2176 -13.8457,-30.416 0.2954,-5.0993 1.9073,-9.6188 4.7812,-12.7911 2.874,-3.1723 7.0009,-5.0715 12.668,-4.9082 a 1.0583349,1.0583349 0 0 0 1.0879,-1.0273 1.0583349,1.0583349 0 0 0 -1.0274,-1.0899 z"
                id="path43189"
                stroke-width="0.5"
                stroke-linecap="round"
                stroke-linejoin="round"
                stroke="black" />
            <path
                d="m 1032.7949,4067.5781 c -0.273,-0.033 -0.6565,0.072 -0.8847,0.2676 -0.2283,0.1958 -0.3158,0.4024 -0.3653,0.5566 -0.198,0.6168 -0.069,0.8955 0.025,1.3555 0.1879,0.92 0.6167,2.1753 1.2871,3.582 1.3409,2.8134 3.6108,6.2125 7.0274,7.6778 3.8223,1.6394 7.1158,0.9328 9.33,-0.2071 2.2143,-1.1398 3.4786,-2.7285 3.4786,-2.7285 a 1.0583349,1.0583349 0 0 0 -0.168,-1.4863 1.0583349,1.0583349 0 0 0 -1.4863,0.166 c 0,0 -0.9897,1.2377 -2.793,2.166 -1.8033,0.9284 -4.2916,1.5315 -7.5254,0.1446 -2.5993,-1.1148 -4.7385,-4.0941 -5.9531,-6.6426 -0.3465,-0.7269 -0.4465,-1.1835 -0.6426,-1.7656 0.7851,0.2982 1.7085,0.5688 2.748,0.8164 2.1311,0.5074 4.7049,0.9232 7.2051,1.2129 2.5002,0.2896 4.9163,0.4515 6.7481,0.4375 0.9159,-0.01 1.6761,-0.052 2.2988,-0.1758 0.3114,-0.062 0.5868,-0.13 0.8965,-0.3125 0.1548,-0.091 0.3296,-0.2161 0.4805,-0.4395 0.1508,-0.2234 0.2451,-0.5669 0.2089,-0.8633 a 1.0583349,1.0583349 0 0 0 -1.1777,-0.9218 1.0583349,1.0583349 0 0 0 -0.9238,1.1777 c -0.024,-0.1951 0.047,-0.4425 0.1386,-0.5781 0.092,-0.1356 0.1711,-0.1807 0.1993,-0.1973 0.056,-0.033 -0.051,0.022 -0.2364,0.059 -0.3708,0.074 -1.0556,0.1283 -1.9004,0.1348 -1.6894,0.013 -4.054,-0.1418 -6.4882,-0.4239 -2.4343,-0.282 -4.9494,-0.6913 -6.959,-1.1699 -1.0048,-0.2392 -1.884,-0.4972 -2.5449,-0.7519 -0.661,-0.2548 -1.1027,-0.5497 -1.1641,-0.6153 -0.1599,-0.1705 -0.3132,-0.4088 -0.8594,-0.4746 z"
                id="path43191"
                stroke-width="0.5"
                stroke-linecap="round"
                stroke-linejoin="round"
                stroke="black" />
            <path
                d="m 1070.4238,4026.043 a 1.0583349,1.0583349 0 0 0 -1.1621,0.9453 c -0.409,3.9625 -0.6222,7.9821 -1.9336,10.7363 -0.6557,1.3771 -1.5402,2.4361 -2.8867,3.168 -1.3465,0.7319 -3.2064,1.1441 -5.8418,1.0078 a 1.0583349,1.0583349 0 0 0 -1.1113,1.0019 1.0583349,1.0583349 0 0 0 1.0019,1.1114 c 2.9077,0.1504 5.1896,-0.2978 6.9629,-1.2617 1.7734,-0.964 2.9871,-2.4369 3.7871,-4.1172 1.6001,-3.3607 1.7273,-7.5569 2.127,-11.4297 a 1.0583349,1.0583349 0 0 0 -0.9434,-1.1621 z"
                id="path43193"
                stroke-width="0.5"
                stroke-linecap="round"
                stroke-linejoin="round"
                stroke="black" />
            <path
                d="m 1028.2676,4008.8184 c -3.5015,0.063 -7.0744,1.1258 -10.668,3.6718 a 1.0583349,1.0583349 0 0 0 -0.2519,1.4746 1.0583349,1.0583349 0 0 0 1.4746,0.252 c 6.5805,-4.6623 12.5697,-3.8867 18.8261,-1.1367 a 1.0583349,1.0583349 0 0 0 1.3965,-0.543 1.0583349,1.0583349 0 0 0 -0.5449,-1.3945 c -3.3026,-1.4516 -6.731,-2.3876 -10.2324,-2.3242 z"
                id="path43195"
                stroke-width="0.5"
                stroke-linecap="round"
                stroke-linejoin="round"
                stroke="black" />
            <path
                d="m 1003.1195,4031.1951 5.4968,19.8042 1.7604,-0.535 -2.9857,-19.5539 c 0,0 6.3856,-2.7269 10.0271,-11.1836 3.6415,-8.4567 3.9348,-14.3936 3.9348,-14.3936 0,0 7.1278,3.3136 13.0129,-4.1421 5.8851,-7.4557 5.7815,-8.2668 5.7815,-8.2668 0,0 0.9838,5.9887 9.3195,4.1593 8.3358,-1.8294 13.6859,-5.8334 13.6859,-5.8334 0,0 -1.2598,9.4059 7.9561,14.9632 9.216,5.5572 11.96,5.9369 11.96,5.9369 0,0 1.6741,9.4922 1.4667,10.9937 -0.207,1.5015 -2.14,15.015 -2.14,15.015 l -4.0384,17.1032 -3.8314,12.0983 -0.7076,2.1573 c 0,0 7.5592,0.2761 11.4941,-8.1806 3.9349,-8.4567 3.8831,-23.834 3.8831,-23.834 0,0 16.2709,-10.7246 18.3457,-29.3741 1.6227,-14.5857 -3.2105,-24.2096 -5.8678,-30.4959 -4.8151,-11.3907 -14.3936,-11.7186 -14.3936,-11.7186 -4.0432,-16.9624 -20.8867,-16.9459 -27.0826,-15.2004 0,0 -2.0815,-14.1945 -28.1484,-9.9927 -6.0135,0.9693 -14.6351,10.9419 -14.6351,10.9419 -15.9455,-3.1045 -24.2707,1.4822 -27.2164,22.1428 0,0 -11.028,-6.5065 -14.2899,15.6017 -3.5823,24.2804 4.9532,26.2848 4.9532,26.2848 -13.4682,3.187 -2.2267,29.4251 6.2302,21.9529 -5.9609,10.2064 5.2554,31.6138 16.5853,35.0176 8.6637,2.468 12.8057,-0.7939 12.8057,-0.7939 l -4.6425,-15.2048 c 0,0 -7.8525,2.002 -13.1681,-6.8171 -8.129,-13.487 -6.2131,-19.7438 -0.5696,-19.7093 1.696,0.097 3.1895,-0.5219 5.0181,1.057 z"
                id="path43197"
                stroke="none"
                stroke-width="1.05833"
                stroke-linecap="round"
                stroke-linejoin="round" />
            <path
                d="m 1185.9416,4137.2968 0.2243,-20.4859 c 0,0 6.6617,1.8121 7.8008,2.0365 1.139,0.2244 10.4759,0.052 10.4759,0.052 l 7.4385,-2.4334 c 0,0 1.9155,3.7452 1.8983,4.8496 -0.018,1.1046 -0.8284,17.3103 -0.8284,17.3103 l -9.5094,2.5718 c 0,0 -7.3003,0.086 -8.8709,-0.1728 -1.5706,-0.2587 -8.6291,-3.7277 -8.6291,-3.7277 z"
                id="path43201"
                stroke="none"
                stroke-width="1.05833"
                stroke-linecap="round"
                stroke-linejoin="round" />
            <path
                d="m 987.78275,4276.7446 c 45.80215,3.9315 96.68825,2.0721 133.02745,-25.8188 l -11.9084,-42.7667 c -27.7601,6.574 -55.6433,17.9098 -83.1506,14.7045 0,0 -23.8511,25.9567 -27.85505,29.7881 -4.0039,3.8314 -11.149,7.4904 -11.149,7.4904 z"
                id="path43205"
                stroke="none"
                stroke-width="1.05833"
                stroke-linecap="round"
                stroke-linejoin="round" />
        </g>
    </g>
</svg>