<?xml version="1.0" encoding="UTF-8" standalone="no"?>
<!-- Created with Inkscape (http://www.inkscape.org/) -->

<svg width="100%" height="100%"
    viewBox="0 0 599.59022 703.92859"
    version="1.1" id="svg5"
    xml:space="preserve"
    xmlns="http://www.w3.org/2000/svg"
    xmlns:svg="http://www.w3.org/2000/svg">
    <defs id="defs2" />
    <g id="layer1"
        transform="translate(-1565.0965,-6511.3709)">
        <g id="g78444"
            transform="matrix(2,0,0,2,-394.08685,-88.124184)"
            style="stroke-width:0.5">
            <path
                d="m 1027.1289,3435.0176 a 1.0584408,1.0584408 0 0 0 -1.0586,1.0586 v 16.6855 h -18.8008 v -14.5859 a 1.0584408,1.0584408 0 0 0 -1.0586,-1.0586 h -5.1972 a 1.0584408,1.0584408 0 0 0 -1.05862,1.0586 v 19.8926 a 1.0584408,1.0584408 0 0 0 1.05862,1.0566 h 31.3613 a 1.0584408,1.0584408 0 0 0 1.0586,-1.0547 l 0.049,-21.9922 a 1.0584408,1.0584408 0 0 0 -1.0586,-1.0605 z m 1.0586,2.1172 h 3.1777 l -0.045,19.875 h -29.25 v -17.7754 h 3.082 v 14.5859 a 1.0584408,1.0584408 0 0 0 1.0586,1.0586 h 20.918 a 1.0584408,1.0584408 0 0 0 1.0586,-1.0586 z"
                id="path42864"
                stroke-width="0.5"
                stroke-linecap="round"
                stroke-linejoin="round"
                stroke="black" />
            <path
                d="m 1032.4247,3434.9966 c 1.3727,0.2561 2.591,0.9591 3.6546,2.1101 l -0.045,22.0192 -3.4058,0.041 z"
                id="path42866"
                stroke="none"
                stroke-width="1.05833"
                stroke-linecap="round"
                stroke-linejoin="round" />
            <path
                d="m 1022.0898,3456.9922 a 1.0583349,1.0583349 0 0 0 -0.748,1.2969 l 0.9297,3.4726 h -8.6289 l 0.8476,-3.166 a 1.0583349,1.0583349 0 0 0 -0.748,-1.2969 1.0583349,1.0583349 0 0 0 -1.2969,0.7481 l -1.2051,4.5 a 1.0584408,1.0584408 0 0 0 1.0235,1.332 h 11.3867 a 1.0584408,1.0584408 0 0 0 1.0234,-1.332 l -1.289,-4.8067 a 1.0583349,1.0583349 0 0 0 -1.295,-0.748 z"
                id="path42868"
                stroke-width="0.5"
                stroke-linecap="round"
                stroke-linejoin="round"
                stroke="black" />
            <path
                d="m 1017.7695,3462.457 a 1.0583349,1.0583349 0 0 0 -0.916,1.1836 l 23.9688,187.1465 a 1.0583349,1.0583349 0 0 0 1.1855,0.916 1.0583349,1.0583349 0 0 0 0.9141,-1.1855 l -23.9688,-187.1446 a 1.0583349,1.0583349 0 0 0 -1.1836,-0.916 z"
                id="path42870"
                stroke-width="0.5"
                stroke-linecap="round"
                stroke-linejoin="round"
                stroke="black" />
            <path
                d="m 1023.127,3461.7695 a 1.0583349,1.0583349 0 0 0 -0.8946,1.1993 l 27.3535,187.6875 a 1.0583349,1.0583349 0 0 0 1.2012,0.8945 1.0583349,1.0583349 0 0 0 0.8945,-1.2012 l -27.3554,-187.6855 a 1.0583349,1.0583349 0 0 0 -1.1992,-0.8946 z"
                id="path42872"
                stroke-width="0.5"
                stroke-linecap="round"
                stroke-linejoin="round"
                stroke="black" />
            <path
                d="m 1017.7969,3463.2207 a 1.0583349,1.0583349 0 0 0 -1.2071,0.8828 l -28.21675,182.4414 a 1.0583349,1.0583349 0 0 0 0.88281,1.2071 1.0583349,1.0583349 0 0 0 1.20898,-0.8848 l 28.21676,-182.4395 a 1.0583349,1.0583349 0 0 0 -0.8847,-1.207 z"
                id="path42874"
                stroke-width="0.5"
                stroke-linecap="round"
                stroke-linejoin="round"
                stroke="black" />
            <path
                d="m 1012.7266,3462.4805 a 1.0583349,1.0583349 0 0 0 -1.2246,0.8613 l -31.89458,183.373 a 1.0583349,1.0583349 0 0 0 0.86133,1.2247 1.0583349,1.0583349 0 0 0 1.22461,-0.8614 l 31.89454,-183.373 a 1.0583349,1.0583349 0 0 0 -0.8613,-1.2246 z"
                id="path42876"
                stroke-width="0.5"
                stroke-linecap="round"
                stroke-linejoin="round"
                stroke="black" />
            <path
                d="m 1006.1699,3404.0684 a 1.0584408,1.0584408 0 0 0 -1.0586,1.0586 v 32.6679 a 1.0583349,1.0583349 0 0 0 1.0586,1.0586 1.0583349,1.0583349 0 0 0 1.0586,-1.0586 v -31.6094 h 17.543 v 46.877 a 1.0583349,1.0583349 0 0 0 1.0586,1.0586 1.0583349,1.0583349 0 0 0 1.0566,-1.0586 v -47.9355 a 1.0584408,1.0584408 0 0 0 -1.0566,-1.0586 z"
                id="path42878"
                stroke-width="0.5"
                stroke-linecap="round"
                stroke-linejoin="round"
                stroke="black" />
            <path
                d="m 1026.3113,3404.144 3.3798,1.2172 v 30.5916 l -3.0015,-0.061 z"
                id="path42880"
                stroke="none"
                stroke-width="1.05833"
                stroke-linecap="round"
                stroke-linejoin="round" />
            <path id="circle42882"
                d="m 1012.893,3411.7112 a 1.5864509,1.5864509 0 0 1 -1.5864,1.5864 1.5864509,1.5864509 0 0 1 -1.5865,-1.5864 1.5864509,1.5864509 0 0 1 1.5865,-1.5865 1.5864509,1.5864509 0 0 1 1.5864,1.5865 z"
                stroke-width="1.05833"
                stroke="black" />
            <path id="circle42884"
                d="m 1012.893,3416.9709 a 1.5864509,1.5864509 0 0 1 -1.5864,1.5865 1.5864509,1.5864509 0 0 1 -1.5865,-1.5865 1.5864509,1.5864509 0 0 1 1.5865,-1.5864 1.5864509,1.5864509 0 0 1 1.5864,1.5864 z"
                stroke-width="1.05833"
                stroke="black" />
            <path id="circle42886"
                d="m 1016.8897,3414.2373 a 1.5864509,1.5864509 0 0 1 -1.5865,1.5865 1.5864509,1.5864509 0 0 1 -1.5864,-1.5865 1.5864509,1.5864509 0 0 1 1.5864,-1.5864 1.5864509,1.5864509 0 0 1 1.5865,1.5864 z"
                stroke-width="1.05833"
                stroke="black" />
            <g id="path42888"
                style="stroke-width:0.5">
                <path
                    d="m 1036.9034,3401.5821 6.7852,-6.7852"
                    id="path76969"
                    stroke-width="1.05833"
                    stroke-linecap="round"
                    stroke-linejoin="round"
                    stroke="black" />
                <path
                    d="m 1042.9395,3394.0488 -6.7852,6.7852 a 1.0583349,1.0583349 0 0 0 0,1.4961 1.0583349,1.0583349 0 0 0 1.498,0 l 6.7852,-6.7852 a 1.0583349,1.0583349 0 0 0 0,-1.4961 1.0583349,1.0583349 0 0 0 -1.498,0 z"
                    id="path76971"
                    stroke-width="0.5"
                    stroke-linecap="round"
                    stroke-linejoin="round"
                    stroke="black" />
            </g>
            <g id="path42890"
                style="stroke-width:0.5">
                <path
                    d="m 1036.9156,3413.2488 h 6.2299"
                    id="path76975"
                    stroke-width="1.05833"
                    stroke-linecap="round"
                    stroke-linejoin="round"
                    stroke="black" />
                <path
                    d="m 1036.916,3412.1914 a 1.0583349,1.0583349 0 0 0 -1.0586,1.0566 1.0583349,1.0583349 0 0 0 1.0586,1.0586 h 6.2285 a 1.0583349,1.0583349 0 0 0 1.0586,-1.0586 1.0583349,1.0583349 0 0 0 -1.0586,-1.0566 z"
                    id="path76977"
                    stroke-width="0.5"
                    stroke-linecap="round"
                    stroke-linejoin="round"
                    stroke="black" />
            </g>
            <g id="path42892"
                style="stroke-width:0.5">
                <path
                    d="m 1035.8539,3425.5989 7.0536,4.6313"
                    id="path76981"
                    stroke-width="1.05833"
                    stroke-linecap="round"
                    stroke-linejoin="round"
                    stroke="black" />
                <path
                    d="m 1035.6387,3424.5625 a 1.0583349,1.0583349 0 0 0 -0.6699,0.4551 1.0583349,1.0583349 0 0 0 0.3046,1.4668 l 7.0528,4.6308 a 1.0583349,1.0583349 0 0 0 1.4668,-0.3047 1.0583349,1.0583349 0 0 0 -0.3047,-1.4648 l -7.0528,-4.6309 a 1.0583349,1.0583349 0 0 0 -0.7968,-0.1523 z"
                    id="path76983"
                    stroke-width="0.5"
                    stroke-linecap="round"
                    stroke-linejoin="round"
                    stroke="black" />
            </g>
            <path
                d="m 1131.3633,3460.3438 a 1.0584408,1.0584408 0 0 0 -0.7149,0.1152 c -19.5503,10.8933 -32.089,32.0415 -40.0898,56.0898 -8.0008,24.0484 -11.4759,51.0577 -12.7559,73.9141 a 1.0583349,1.0583349 0 0 0 0.9981,1.1152 1.0583349,1.0583349 0 0 0 1.1152,-0.9961 c 1.2732,-22.7354 4.7417,-49.5936 12.6504,-73.3652 7.6826,-23.092 19.598,-43.1342 37.5645,-53.9023 -0.016,9.1288 0.901,17.4607 4.3242,24.0625 3.6698,7.0774 10.2608,12.0801 21.0273,13.7382 a 1.0583349,1.0583349 0 0 0 1.2071,-0.8847 1.0583349,1.0583349 0 0 0 -0.8848,-1.2071 c -10.2748,-1.5824 -16.0818,-6.0854 -19.4707,-12.6211 -3.3889,-6.5357 -4.2681,-15.2348 -4.1113,-25.0019 a 1.0584408,1.0584408 0 0 0 -0.8594,-1.0566 z"
                id="path42894"
                stroke-width="0.5"
                stroke-linecap="round"
                stroke-linejoin="round"
                stroke="black" />
            <path
                d="m 1125.6641,3463.9805 a 1.0583349,1.0583349 0 0 0 -1.1661,0.9375 c -1.1832,10.9428 -0.3519,20.7816 3.3848,28.7226 3.7367,7.9411 10.4287,13.9143 20.5977,16.9844 a 1.0583349,1.0583349 0 0 0 1.3183,-0.707 1.0583349,1.0583349 0 0 0 -0.707,-1.3203 c -9.6948,-2.927 -15.7927,-8.4208 -19.293,-15.8594 -3.5002,-7.4387 -4.3543,-16.8907 -3.1972,-27.5918 a 1.0583349,1.0583349 0 0 0 -0.9375,-1.166 z"
                id="path42896"
                stroke-width="0.5"
                stroke-linecap="round"
                stroke-linejoin="round"
                stroke="black" />
            <path
                d="m 1180.1973,3457.7227 a 1.0584408,1.0584408 0 0 0 -1.5996,1.2128 c 3.1851,9.4594 4.6205,18.6711 1.8125,27.5821 a 1.0583349,1.0583349 0 0 0 0.6914,1.3281 1.0583349,1.0583349 0 0 0 1.3281,-0.6914 c 2.6622,-8.4484 1.629,-17.0614 -0.8984,-25.6621 6.5273,5.8663 8.1346,14.1491 6.6757,24.3516 a 1.0583349,1.0583349 0 0 0 0.8985,1.1992 1.0583349,1.0583349 0 0 0 1.1972,-0.8985 c 1.6953,-11.8557 -0.7251,-22.0309 -10.1054,-28.4218 z"
                id="path42898"
                stroke-width="0.5"
                stroke-linecap="round"
                stroke-linejoin="round"
                stroke="black" />
            <path
                d="m 1179.5879,3456.8145 a 1.0583349,1.0583349 0 0 0 -1.1836,0.9179 1.0583349,1.0583349 0 0 0 0.918,1.1817 c 11.4847,1.4594 20.0011,7.2493 25.9238,14.0683 5.9227,6.819 9.208,14.6975 10.1172,20.0469 a 1.0583349,1.0583349 0 0 0 1.2207,0.8672 1.0583349,1.0583349 0 0 0 0.8672,-1.2207 c -0.9912,-5.8319 -4.413,-13.9502 -10.6074,-21.082 -6.1945,-7.1319 -15.2048,-13.248 -27.2559,-14.7793 z"
                id="path42900"
                stroke-width="0.5"
                stroke-linecap="round"
                stroke-linejoin="round"
                stroke="black" />
            <path
                d="m 1205.4414,3373.8652 a 1.0583349,1.0583349 0 0 0 -1.0215,1.0957 c 1.6334,47.1196 -12.992,66.2687 -27.8242,73.9239 -14.8322,7.6552 -30.1113,3.7929 -30.1113,3.7929 a 1.0583349,1.0583349 0 0 0 -1.2871,0.7637 1.0583349,1.0583349 0 0 0 0.7656,1.2871 c 0,0 15.9876,4.0968 31.6035,-3.9629 15.6159,-8.0596 30.6181,-28.2983 28.9688,-75.8789 a 1.0583349,1.0583349 0 0 0 -1.0938,-1.0215 z"
                id="path42903"
                stroke-width="0.5"
                stroke-linecap="round"
                stroke-linejoin="round"
                stroke="black" />
            <path
                d="m 1180.5176,3374.5977 c -3.2353,0.2814 -6.0485,1.2394 -8.4375,2.7226 -4.778,2.9664 -7.7934,7.9376 -9.3672,13.4395 -1.5739,5.5018 -1.7291,11.5642 -0.7207,16.9257 1.0084,5.3616 3.1543,10.0531 6.4629,12.7266 a 1.0583349,1.0583349 0 0 0 1.4883,-0.1582 1.0583349,1.0583349 0 0 0 -0.1563,-1.4883 c -2.6957,-2.1782 -4.7678,-6.4356 -5.7148,-11.4707 -0.947,-5.035 -0.7942,-10.8144 0.6757,-15.9531 1.47,-5.1387 4.234,-9.6056 8.4493,-12.2227 4.2153,-2.617 9.9474,-3.4802 17.6836,-1.1562 a 1.0583349,1.0583349 0 0 0 1.3183,-0.709 1.0583349,1.0583349 0 0 0 -0.709,-1.3184 c -4.0785,-1.2252 -7.7373,-1.6193 -10.9726,-1.3378 z"
                id="path42905"
                stroke-width="0.5"
                stroke-linecap="round"
                stroke-linejoin="round"
                stroke="black" />
            <path
                d="m 1134.9746,3377.1621 a 1.0583349,1.0583349 0 0 0 -1.2148,0.877 1.0583349,1.0583349 0 0 0 0.8769,1.2129 l 12.6172,2.0371 a 1.0583349,1.0583349 0 0 0 1.2149,-0.875 1.0583349,1.0583349 0 0 0 -0.877,-1.2149 z"
                id="path42907"
                stroke-width="0.5"
                stroke-linecap="round"
                stroke-linejoin="round"
                stroke="black" />
            <path
                d="m 1109.6046,3390.7401 c 19.3532,-2.959 39.1046,-16.3278 46.4588,-32.4495 14.2547,15.4959 37.0537,22.488 50.5713,16.719 -9.6121,-71.3496 -107.8865,-49.832 -97.0301,15.7305 z"
                id="path42909"
                stroke="none"
                stroke-width="1.05833"
                stroke-linecap="round"
                stroke-linejoin="round" />
            <path id="ellipse42911"
                d="m 1180.5172,3398.7183 a 4.0027542,7.1330295 0 0 1 -4.0028,7.133 4.0027542,7.1330295 0 0 1 -4.0027,-7.133 4.0027542,7.1330295 0 0 1 4.0027,-7.1331 4.0027542,7.1330295 0 0 1 4.0028,7.1331 z"
                stroke-width="0.132291"
                stroke="black" />
            <path id="ellipse42913"
                d="m 1146.4571,3398.7183 a 4.0027542,7.1330295 0 0 1 -4.0028,7.133 4.0027542,7.1330295 0 0 1 -4.0027,-7.133 4.0027542,7.1330295 0 0 1 4.0027,-7.1331 4.0027542,7.1330295 0 0 1 4.0028,7.1331 z"
                stroke-width="0.132291"
                stroke="black" />
            <path
                d="m 1159.791,3320.6836 c -3.1081,0.2126 -6.2129,0.6903 -9.2793,1.4121 -24.2626,5.7114 -46.2052,26.724 -48.7637,53.5684 -0.8648,0.088 -2.2692,0.3143 -4.0781,1.2988 -2.565,1.396 -5.3296,4.2787 -6.0722,9.5996 -0.7259,5.2013 -0.2144,10.8362 1.0195,15.4238 0.6169,2.2939 1.413,4.3256 2.3652,5.9278 0.9522,1.6022 2.0545,2.8309 3.4883,3.3144 1.0866,0.3665 1.8804,0.556 2.5195,0.6231 0.6392,0.067 1.1581,0.04 1.6465,-0.2559 0.4884,-0.2957 0.7264,-0.9251 0.7188,-1.2969 -0.01,-0.3717 -0.1485,-0.6484 -0.1485,-0.6484 l 0.096,0.3457 -1.998,-19.7441 0.9473,-0.045 2.4472,22.1602 a 1.0584408,1.0584408 0 0 0 0.5821,0.832 c 1.813,0.9025 3.5637,1.3319 5.2265,1.1543 1.6628,-0.1776 3.1859,-0.9912 4.4297,-2.3359 a 1.0584408,1.0584408 0 0 0 0.2402,-1.0117 c -2.3546,-8.1711 -4.1169,-16.3169 -3.5625,-24.6289 a 1.0583349,1.0583349 0 0 0 -0.9843,-1.127 1.0583349,1.0583349 0 0 0 -1.127,0.9863 c -0.5643,8.4593 1.1925,16.6248 3.4766,24.6641 -0.8412,0.7764 -1.7078,1.242 -2.6973,1.3476 -1.011,0.108 -2.2111,-0.1683 -3.5488,-0.7558 l -2.4883,-22.5059 a 1.0584408,1.0584408 0 0 0 -1.1016,-0.9394 l -3.0566,0.1426 a 1.0584408,1.0584408 0 0 0 -1.002,1.164 l 2.0625,20.377 c -0.4006,-0.047 -1.0379,-0.1827 -2.0019,-0.5078 -0.647,-0.2182 -1.5311,-1.0232 -2.3438,-2.3907 -0.8127,-1.3674 -1.5616,-3.2416 -2.1406,-5.3945 -1.158,-4.3057 -1.6462,-9.7275 -0.9687,-14.582 0.6608,-4.7349 2.9006,-6.899 4.9882,-8.0352 2.0876,-1.1362 3.9746,-1.1465 3.9747,-1.1465 a 1.0584408,1.0584408 0 0 0 1.0507,-0.9746 c 2.0661,-26.2134 23.6179,-46.9707 47.2891,-52.5429 11.8356,-2.7862 24.1553,-1.7859 34.8555,4.1523 10.7002,5.9382 19.8378,16.8247 25.2441,34.0527 a 1.0584408,1.0584408 0 0 0 1.0781,0.7403 c 0,0 2.8375,-0.1752 5.8594,0.6679 3.0219,0.8432 6.0261,2.5523 6.8633,6.4668 0.3816,1.7846 0.7699,6.2023 0.6465,10.6094 -0.1235,4.4071 -0.8588,8.9175 -2.1348,10.7969 -1.8968,2.7936 -4.4924,3.5108 -5.8691,3.7929 l 1.3945,-24.1894 a 1.0584408,1.0584408 0 0 0 -1.0508,-1.1191 l -3.0644,-0.012 a 1.0584408,1.0584408 0 0 0 -1.0625,1.0489 c 0,0 -0.052,5.1727 -0.2891,10.7207 -0.1185,2.774 -0.2841,5.6414 -0.5098,7.9843 -0.2256,2.343 -0.6199,4.2984 -0.791,4.6504 -0.5264,1.0831 -1.8131,1.6552 -3.1328,1.9102 -1.3197,0.2549 -2.4863,0.1699 -2.4863,0.1699 a 1.0583349,1.0583349 0 0 0 -1.1348,0.9766 1.0583349,1.0583349 0 0 0 0.9746,1.1347 c 0,0 1.4153,0.1125 3.0488,-0.2031 1.6336,-0.3156 3.6725,-1.0825 4.6348,-3.0625 0.5733,-1.1795 0.7622,-2.9646 0.9942,-5.373 0.2319,-2.4085 0.3981,-5.3023 0.5175,-8.0977 0.2156,-5.0454 0.2515,-8.864 0.2618,-9.7383 h 0.9121 l -1.4121,24.5118 a 1.0584408,1.0584408 0 0 0 1.1523,1.1152 c 0,0 5.5547,-0.4556 8.6641,-5.0352 1.8585,-2.7374 2.3702,-7.365 2.498,-11.9277 0.1278,-4.5627 -0.2284,-8.9463 -0.6914,-11.1113 -1.0328,-4.8293 -4.9413,-7.1072 -8.3652,-8.0625 -2.7245,-0.7602 -4.8218,-0.7598 -5.7481,-0.7364 -5.5669,-17.2029 -14.9224,-28.4016 -25.9746,-34.5351 -8.4113,-4.6679 -17.7634,-6.4131 -27.0879,-5.7754 z"
                id="path42915"
                stroke-width="0.5"
                stroke-linecap="round"
                stroke-linejoin="round"
                stroke="black" />
            <path
                d="m 1110.2227,3385.041 a 1.0583349,1.0583349 0 0 0 -0.8399,1.2383 c 0.2855,1.4871 0.4578,4.6685 0.8574,8.7148 0.3996,4.0464 1.0441,9.0139 2.3555,14.334 2.6227,10.6403 7.9262,22.7287 19.2637,31.5996 a 1.0583349,1.0583349 0 0 0 1.4844,-0.1816 1.0583349,1.0583349 0 0 0 -0.1817,-1.4863 c -10.855,-8.4934 -15.9563,-20.0802 -18.5098,-30.4395 -1.2767,-5.1796 -1.9123,-10.0424 -2.3066,-14.0351 -0.3943,-3.9928 -0.5306,-7.0593 -0.8848,-8.9043 a 1.0583349,1.0583349 0 0 0 -1.2382,-0.8399 z"
                id="path42917"
                stroke-width="0.5"
                stroke-linecap="round"
                stroke-linejoin="round"
                stroke="black" />
            <path
                d="m 1112.9922,3306.4258 c -1.648,-0.1745 -3.2745,0.052 -4.8008,0.8301 -3.0659,1.5622 -4.1952,5.1085 -4.3223,9.1347 -0.127,4.0262 0.7006,8.7354 1.8399,13.2676 2.2785,9.0644 5.8457,17.4219 5.8457,17.4219 a 1.0583349,1.0583349 0 0 0 1.3887,0.5586 1.0583349,1.0583349 0 0 0 0.5586,-1.3887 c 0,0 -3.5142,-8.2518 -5.7403,-17.1074 -1.113,-4.4278 -1.8934,-9.0071 -1.7773,-12.6856 0.116,-3.6785 1.081,-6.2529 3.1679,-7.3164 2.2703,-1.1568 4.9093,-0.7354 7.8125,0.7461 2.9033,1.4816 5.9389,4.0118 8.6543,6.7324 5.431,5.4413 9.584,11.5879 9.584,11.5879 a 1.0583349,1.0583349 0 0 0 1.4707,0.2852 1.0583349,1.0583349 0 0 0 0.2852,-1.4688 c 0,0 -4.2297,-6.2755 -9.8418,-11.8984 -2.8061,-2.8114 -5.9555,-5.4727 -9.1895,-7.123 -1.617,-0.8252 -3.2875,-1.4017 -4.9355,-1.5762 z"
                id="path42919"
                stroke-width="0.5"
                stroke-linecap="round"
                stroke-linejoin="round"
                stroke="black" />
            <path
                d="m 1203.7383,3299.7637 c -2.429,-0.1558 -4.8805,0.8279 -7.1328,2.3828 -3.0032,2.0732 -5.8055,5.1897 -8.2559,8.4258 -4.9008,6.472 -8.3711,13.4765 -8.3711,13.4765 a 1.0583349,1.0583349 0 0 0 0.4785,1.418 1.0583349,1.0583349 0 0 0 1.418,-0.4785 c 0,0 3.4152,-6.8699 8.1621,-13.1387 2.3735,-3.1344 5.0835,-6.1053 7.7715,-7.9609 2.688,-1.8557 5.1988,-2.5685 7.541,-1.6094 1.1734,0.4805 2.0427,1.3635 2.7188,2.6855 0.676,1.3221 1.1189,3.0739 1.3379,5.0997 0.4379,4.0516 -0.014,9.1739 -0.8321,14.1621 -1.6372,9.9764 -4.7051,19.416 -4.7051,19.416 a 1.0583349,1.0583349 0 0 0 0.6797,1.334 1.0583349,1.0583349 0 0 0 1.334,-0.6797 c 0,0 3.1103,-9.5441 4.7813,-19.7266 0.8355,-5.0912 1.3221,-10.3428 0.8476,-14.7324 -0.2372,-2.1948 -0.7126,-4.1817 -1.5586,-5.8359 -0.8459,-1.6543 -2.1035,-2.9867 -3.8008,-3.6817 -0.7965,-0.3262 -1.6044,-0.5047 -2.414,-0.5566 z"
                id="path42921"
                stroke-width="0.5"
                stroke-linecap="round"
                stroke-linejoin="round"
                stroke="black" />
            <path
                d="m 1115.709,3317.3672 c -0.4889,0.077 -0.9694,0.2395 -1.4336,0.5039 -2.0015,1.1401 -2.6524,3.4383 -2.5918,5.8164 0.061,2.3781 0.7551,5.0305 1.6309,7.5566 1.7515,5.0523 4.2812,9.5997 4.2812,9.5997 a 1.0583349,1.0583349 0 0 0 1.4375,0.4121 1.0583349,1.0583349 0 0 0 0.4121,-1.4395 c 0,0 -2.4575,-4.439 -4.1308,-9.2656 -0.8367,-2.4134 -1.4648,-4.9235 -1.5157,-6.918 -0.051,-1.9945 0.3974,-3.2804 1.5235,-3.9219 0.993,-0.5656 2.1228,-0.3344 3.5996,0.6172 1.4768,0.9516 3.0884,2.5996 4.5273,4.3692 2.8779,3.5391 5.0918,7.5195 5.0918,7.5195 a 1.0583349,1.0583349 0 0 0 1.4395,0.4121 1.0583349,1.0583349 0 0 0 0.4121,-1.4394 c 0,0 -2.2692,-4.1 -5.3008,-7.8282 -1.5158,-1.8641 -3.2156,-3.6476 -5.0234,-4.8125 -1.3559,-0.8737 -2.8926,-1.4127 -4.3594,-1.1816 z"
                id="path42923"
                stroke-width="0.5"
                stroke-linecap="round"
                stroke-linejoin="round"
                stroke="black" />
            <path
                d="m 1201.4746,3312.0098 c -1.4668,-0.2312 -3.0035,0.3079 -4.3594,1.1816 -1.8078,1.1649 -3.5076,2.9484 -5.0234,4.8125 -3.0316,3.7282 -5.3008,7.8281 -5.3008,7.8281 a 1.0583349,1.0583349 0 0 0 0.4121,1.4395 1.0583349,1.0583349 0 0 0 1.4375,-0.4121 c 0,0 2.2159,-3.9804 5.0938,-7.5196 1.4389,-1.7695 3.0505,-3.4175 4.5273,-4.3691 1.4768,-0.9516 2.6066,-1.1828 3.5996,-0.6172 1.1261,0.6415 1.5724,1.9274 1.5215,3.9219 -0.051,1.9945 -0.677,4.5046 -1.5137,6.918 -1.6733,4.8266 -4.1328,9.2656 -4.1328,9.2656 a 1.0583349,1.0583349 0 0 0 0.4121,1.4394 1.0583349,1.0583349 0 0 0 1.4395,-0.4121 c 0,0 2.5297,-4.5473 4.2812,-9.5996 0.8758,-2.5261 1.5703,-5.1785 1.6309,-7.5566 0.061,-2.3782 -0.5903,-4.6763 -2.5918,-5.8164 -0.4642,-0.2644 -0.9447,-0.4269 -1.4336,-0.5039 z"
                id="path42925"
                stroke-width="0.5"
                stroke-linecap="round"
                stroke-linejoin="round"
                stroke="black" />
            <path
                d="m 1127.6504,3328.7617 -10.7988,7.5781 a 1.0583349,1.0583349 0 0 0 -0.2598,1.4747 1.0583349,1.0583349 0 0 0 1.4746,0.2578 l 10.8008,-7.5782 a 1.0583349,1.0583349 0 0 0 0.2578,-1.4746 1.0583349,1.0583349 0 0 0 -1.4746,-0.2578 z"
                id="path42927"
                stroke-width="0.5"
                stroke-linecap="round"
                stroke-linejoin="round"
                stroke="black" />
            <path
                d="m 1126.1445,3325.4648 a 1.0583349,1.0583349 0 0 0 -0.8007,0.1211 l -10.4825,6.334 a 1.0583349,1.0583349 0 0 0 -0.3593,1.4531 1.0583349,1.0583349 0 0 0 1.4531,0.3575 l 10.4844,-6.3321 a 1.0583349,1.0583349 0 0 0 0.3574,-1.4531 1.0583349,1.0583349 0 0 0 -0.6524,-0.4805 z"
                id="path42929"
                stroke-width="0.5"
                stroke-linecap="round"
                stroke-linejoin="round"
                stroke="black" />
            <path
                d="m 1123.8086,3322.3887 a 1.0583349,1.0583349 0 0 0 -0.8047,0.088 l -9.5547,5.2226 a 1.0583349,1.0583349 0 0 0 -0.4219,1.4356 1.0583349,1.0583349 0 0 0 1.4375,0.4218 l 9.5547,-5.2246 a 1.0583349,1.0583349 0 0 0 0.42,-1.4355 1.0583349,1.0583349 0 0 0 -0.6309,-0.5078 z"
                id="path42931"
                stroke-width="0.5"
                stroke-linecap="round"
                stroke-linejoin="round"
                stroke="black" />
            <path
                d="m 1120.1094,3320.209 -7.3828,3.123 a 1.0583349,1.0583349 0 0 0 -0.5625,1.3887 1.0583349,1.0583349 0 0 0 1.3867,0.5606 l 7.3828,-3.1231 a 1.0583349,1.0583349 0 0 0 0.5625,-1.3867 1.0583349,1.0583349 0 0 0 -1.3867,-0.5625 z"
                id="path42933"
                stroke-width="0.5"
                stroke-linecap="round"
                stroke-linejoin="round"
                stroke="black" />
            <path
                d="m 1189.3398,3324.168 a 1.0583349,1.0583349 0 0 0 -1.4726,0.2715 1.0583349,1.0583349 0 0 0 0.2715,1.4726 l 10.6054,7.2969 a 1.0583349,1.0583349 0 0 0 1.4727,-0.2715 1.0583349,1.0583349 0 0 0 -0.2734,-1.4727 z"
                id="path42935"
                stroke-width="0.5"
                stroke-linecap="round"
                stroke-linejoin="round"
                stroke="black" />
            <path
                d="m 1191.9414,3320.5625 a 1.0583349,1.0583349 0 0 0 -1.4785,0.2246 1.0583349,1.0583349 0 0 0 0.2226,1.4805 l 10.1661,7.4922 a 1.0583349,1.0583349 0 0 0 1.4804,-0.2227 1.0583349,1.0583349 0 0 0 -0.2246,-1.4805 z"
                id="path42937"
                stroke-width="0.5"
                stroke-linecap="round"
                stroke-linejoin="round"
                stroke="black" />
            <path
                d="m 1193.3535,3317.3223 a 1.0583349,1.0583349 0 0 0 -0.6836,0.4336 1.0583349,1.0583349 0 0 0 0.2559,1.4746 l 9.2383,6.5039 a 1.0583349,1.0583349 0 0 0 1.4746,-0.2559 1.0583349,1.0583349 0 0 0 -0.2559,-1.4746 l -9.2383,-6.5059 a 1.0583349,1.0583349 0 0 0 -0.791,-0.1757 z"
                id="path42939"
                stroke-width="0.5"
                stroke-linecap="round"
                stroke-linejoin="round"
                stroke="black" />
            <path
                d="m 1196.5137,3314.1055 a 1.0583349,1.0583349 0 0 0 -0.6973,0.4101 1.0583349,1.0583349 0 0 0 0.2051,1.4824 l 7.1758,5.4317 a 1.0583349,1.0583349 0 0 0 1.4824,-0.2051 1.0583349,1.0583349 0 0 0 -0.2051,-1.4824 l -7.1758,-5.4317 a 1.0583349,1.0583349 0 0 0 -0.7851,-0.205 z"
                id="path42941"
                stroke-width="0.5"
                stroke-linecap="round"
                stroke-linejoin="round"
                stroke="black" />
            <path
                d="m 1107.9648,3413.0859 a 1.0583349,1.0583349 0 0 0 -1.125,0.9864 c 0,0 -0.31,4.7291 0.7129,10.3359 1.023,5.6068 3.3702,12.2317 8.9395,15.9102 8.6509,5.7138 15.75,6.9433 15.75,6.9433 a 1.0583349,1.0583349 0 0 0 1.2226,-0.8652 1.0583349,1.0583349 0 0 0 -0.8652,-1.2207 c 0,0 -6.6144,-1.1231 -14.9414,-6.6231 -4.8098,-3.1768 -7.0517,-9.199 -8.0234,-14.5254 -0.9718,-5.3264 -0.6836,-9.8164 -0.6836,-9.8164 a 1.0583349,1.0583349 0 0 0 -0.9864,-1.125 z"
                id="path42943"
                stroke-width="0.5"
                stroke-linecap="round"
                stroke-linejoin="round"
                stroke="black" />
            <path
                d="m 1112.0469,3412.4805 a 1.0583349,1.0583349 0 0 0 -1.1426,0.9687 c 0,0 -1.3365,14.627 7.7988,22.5801 6.5322,5.6868 14.2539,6.873 14.2539,6.873 a 1.0583349,1.0583349 0 0 0 1.209,-0.8828 1.0583349,1.0583349 0 0 0 -0.8828,-1.209 c 0,0 -7.1707,-1.1371 -13.1894,-6.3769 -8.0639,-7.0203 -7.0801,-20.8106 -7.0801,-20.8106 a 1.0583349,1.0583349 0 0 0 -0.9668,-1.1425 z"
                id="path42945"
                stroke-width="0.5"
                stroke-linecap="round"
                stroke-linejoin="round"
                stroke="black" />
            <path
                d="m 1139.5723,3438.3086 c -2.2553,0 -4.3156,0.6204 -5.8711,1.6953 -1.5556,1.0749 -2.6387,2.676 -2.6387,4.5117 0,1.8357 1.0831,3.4369 2.6387,4.5117 1.5555,1.0749 3.6158,1.6954 5.8711,1.6954 2.2552,0 4.3135,-0.6205 5.8691,-1.6954 1.5556,-1.0748 2.6406,-2.676 2.6406,-4.5117 10e-5,-1.8357 -1.085,-3.4368 -2.6406,-4.5117 -1.5556,-1.0749 -3.6138,-1.6953 -5.8691,-1.6953 z m 0,2.1172 c 1.86,0 3.5247,0.5317 4.666,1.3203 1.1413,0.7886 1.7266,1.7616 1.7265,2.7695 0,1.0079 -0.5852,1.9809 -1.7265,2.7696 -1.1413,0.7886 -2.806,1.3203 -4.666,1.3203 -1.8601,0 -3.5267,-0.5317 -4.668,-1.3203 -1.1413,-0.7887 -1.7266,-1.7617 -1.7266,-2.7696 0,-1.0079 0.5853,-1.9809 1.7266,-2.7695 1.1413,-0.7886 2.8079,-1.3203 4.668,-1.3203 z"
                id="ellipse42947"
                stroke-width="0.5"
                stroke="black" />
            <path
                d="m 1111.905,3412.7193 c 0,0 0.3661,6.529 0.5125,8.2131 0.1465,1.6841 2.0746,9.7751 4.137,11.9595 2.0624,2.1845 13.1432,8.2009 13.1432,8.2009 l 2.6482,-0.4027 c 0,0 -11.9717,-13.8756 -13.253,-16.3041 -1.2814,-2.4285 -5.2964,-12.3257 -5.2964,-12.3257 z"
                id="path42949"
                stroke="none"
                stroke-width="1.05833"
                stroke-linecap="round"
                stroke-linejoin="round" />
            <path
                d="m 1108.8053,3428.2179 c 0,0 -27.4022,-9.6813 -28.8378,-40.3507 -1.379,-29.4596 16.3405,-44.3847 21.6124,-48.9976 5.2719,-4.613 6.2726,-5.0768 6.2726,-5.0768 l 5.1987,13.5217 -5.2963,9.6287 -4.9669,19.6966 -7.6516,3.173 -2.941,10.1412 2.3064,14.4247 3.3072,5.4185 4.3566,0.4027 -1.745,-21.1367 3.1241,0.1708 2.5261,23.1259 1.6596,1.4888 z"
                id="path42951"
                stroke="none"
                stroke-width="1.05833"
                stroke-linecap="round"
                stroke-linejoin="round" />
            <path
                d="m 1129.2361,3317.637 c 15.9574,-12.0993 32.8339,-12.9993 58.9673,-6.1507 l -7.3221,13.0336 -17.7683,-2.8679 -15.2666,2.038 c 0,0 -11.2517,5.2476 -11.7642,4.4543 -0.5125,-0.7932 -6.8461,-10.5073 -6.8461,-10.5073 z"
                id="path42953"
                stroke="none"
                stroke-width="1.05833"
                stroke-linecap="round"
                stroke-linejoin="round" />
            <path
                d="m 1204.7635,3344.2043 c 0.3296,-0.8298 3.4293,-10.251 3.7099,-12.0694 0.2807,-1.8183 2.6604,-12.5697 2.6604,-12.5697 48.9112,32.0987 25.6721,92.816 -10.8608,99.9882 l 5.1376,-21.991 c 0,0 5.2963,0.4028 6.8096,-1.2325 1.5132,-1.6353 2.0989,-8.0911 2.1966,-8.8477 0.098,-0.7566 0.537,-16.0844 0.537,-16.0844 l 3.002,0.2319 -0.7688,24.871 c 0,0 7.5418,-4.3078 7.9689,-5.3452 0.4271,-1.0373 1.2936,-13.1677 1.44,-14.4125 0.1465,-1.2447 -1.6963,-10.8124 -1.6963,-10.8124 l -6.6509,-3.7953 -6.0163,-0.6468 z"
                id="path42955"
                stroke="none"
                stroke-width="1.05833"
                stroke-linecap="round"
                stroke-linejoin="round" />
            <path
                d="m 1153.5176,3430.8203 a 1.0584408,1.0584408 0 0 0 -1.4278,1.0684 c 0,0 0.2211,3.4641 2.2227,6.4336 1.0008,1.4847 2.4935,2.8714 4.6055,3.5332 2.1119,0.6617 4.7752,0.5829 8.0586,-0.6055 a 1.0583349,1.0583349 0 0 0 0.6347,-1.3535 1.0583349,1.0583349 0 0 0 -1.3535,-0.6367 c -2.971,1.0753 -5.1201,1.0734 -6.707,0.5761 -1.5869,-0.4972 -2.6786,-1.5048 -3.4824,-2.6972 -0.9366,-1.3895 -1.3549,-2.7981 -1.5918,-3.8965 4.5485,1.4722 8.8841,2.0844 12.9316,1.6211 a 1.0583349,1.0583349 0 0 0 0.9316,-1.1719 1.0583349,1.0583349 0 0 0 -1.1718,-0.9297 c -4.2039,0.4812 -8.7178,-0.085 -13.6504,-1.9414 z"
                id="path42957"
                stroke-width="0.5"
                stroke-linecap="round"
                stroke-linejoin="round"
                stroke="black" />
            <path
                d="m 1170.4082,3451.4863 a 1.0583349,1.0583349 0 0 0 -1.2285,0.8535 c -2.4462,13.5705 -1.8637,21.1903 -0.5742,25.5372 0.6447,2.1734 1.4753,3.5268 2.1953,4.3515 0.36,0.4124 0.69,0.6916 0.9492,0.8731 0.2592,0.1814 0.5156,0.2949 0.5156,0.2949 a 1.0583349,1.0583349 0 0 0 1.377,-0.586 1.0583349,1.0583349 0 0 0 -0.586,-1.3789 c 0,0 0.029,0.02 -0.092,-0.064 -0.1209,-0.085 -0.322,-0.2449 -0.5703,-0.5293 -0.4965,-0.5688 -1.1872,-1.6344 -1.7597,-3.5645 -1.1451,-3.8601 -1.784,-11.1835 0.6269,-24.5586 a 1.0583349,1.0583349 0 0 0 -0.8535,-1.2285 z"
                id="path42959"
                stroke-width="0.5"
                stroke-linecap="round"
                stroke-linejoin="round"
                stroke="black" />
            <path
                d="m 1133.9219,3517.5742 c -1.7501,-0.1348 -3.3436,-0.056 -4.8926,0.3321 -3.098,0.7753 -5.8395,2.7758 -9.1113,6.3906 -5.4845,6.0594 -8.6023,9.0439 -10.6973,11.9531 -2.0949,2.9092 -3.0549,5.6991 -4.0957,10.9277 -2.0224,10.1602 -2.2235,18.1419 -2.2344,18.6036 -4.1417,7.4058 -11.2544,16.669 -16.8476,26.1933 -5.6337,9.5931 -9.811,19.5147 -7.4571,28.3184 a 1.0584408,1.0584408 0 0 0 0.01,0.023 c 1.6144,5.5536 6.013,10.7684 13.4824,12.1563 5.248,1.4195 9.5998,0.9992 13.0449,-0.7989 3.4572,-1.8043 5.9452,-4.9289 7.6836,-8.666 3.4769,-7.4742 4.0941,-17.4908 3.4707,-25.7051 a 1.0584408,1.0584408 0 0 0 0,-0.029 c -1.0162,-9.8477 -1.0683,-22.2148 -1.0683,-22.2148 a 1.0583349,1.0583349 0 0 0 -1.0625,-1.0547 1.0583349,1.0583349 0 0 0 -1.0528,1.0625 c 0,0 0.045,12.3817 1.0762,22.3965 0.605,7.9725 -0.072,17.7576 -3.2793,24.6523 -1.6036,3.4474 -3.8064,6.1485 -6.7441,7.6817 -2.9377,1.5332 -6.6691,1.9585 -11.5606,0.625 a 1.0584408,1.0584408 0 0 0 -0.088,-0.02 c -6.709,-1.2334 -10.4258,-5.7409 -11.8613,-10.6699 -2.0767,-7.7933 1.7054,-17.2608 7.2402,-26.6855 5.538,-9.4301 12.7192,-18.7334 16.9864,-26.416 a 1.0584408,1.0584408 0 0 0 0.1328,-0.4922 c 0,0 0.1696,-8.284 2.2129,-18.5489 1.0216,-5.1322 1.8281,-7.4517 3.7363,-10.1015 1.9082,-2.6499 5.0301,-5.6742 10.5488,-11.7715 3.1396,-3.4687 5.4989,-5.1177 8.0567,-5.7578 2.5577,-0.6401 5.4927,-0.2821 9.7675,0.6348 a 1.0583349,1.0583349 0 0 0 1.2579,-0.8125 1.0583349,1.0583349 0 0 0 -0.8125,-1.2559 c -2.1768,-0.4669 -4.084,-0.8164 -5.834,-0.9512 z"
                id="path42961"
                stroke-width="0.5"
                stroke-linecap="round"
                stroke-linejoin="round"
                stroke="black" />
            <path
                d="m 1126.9277,3540.2773 c -2.41,-0.059 -5.2012,0.5756 -7.7031,1.2422 -3.3358,0.8888 -6.084,1.9414 -6.084,1.9414 a 1.0583349,1.0583349 0 0 0 -0.6113,1.3672 1.0583349,1.0583349 0 0 0 1.3672,0.6094 c 0,0 2.6595,-1.0168 5.873,-1.873 3.2136,-0.8563 7.0552,-1.4444 8.836,-0.9356 8.3559,2.3875 8.7518,9.0737 9.9355,12.3066 a 1.0583349,1.0583349 0 0 0 1.3574,0.629 1.0583349,1.0583349 0 0 0 0.6309,-1.3575 c -0.8701,-2.3762 -1.9409,-10.9267 -11.3438,-13.6132 -0.694,-0.1984 -1.4544,-0.2967 -2.2578,-0.3165 z"
                id="path42963"
                stroke-width="0.5"
                stroke-linecap="round"
                stroke-linejoin="round"
                stroke="black" />
            <g id="g42975"
                transform="translate(4592.8215,2764.2379)"
                style="stroke-width:0.5">
                <path
                    d="m -3468.5742,782.25977 c -3.0027,0.14839 -6.075,1.32663 -8.9317,3.30273 a 1.0583349,1.0583349 0 0 0 -0.2695,1.47266 1.0583349,1.0583349 0 0 0 1.4727,0.26757 c 3.4622,-2.39504 7.0965,-3.37963 10.2968,-2.76171 3.2003,0.61791 6.0851,2.79691 8.1602,7.20117 a 1.0583349,1.0583349 0 0 0 1.4102,0.50781 1.0583349,1.0583349 0 0 0 0.5058,-1.4082 c -2.2899,-4.86016 -5.7767,-7.62608 -9.6758,-8.37891 -0.9747,-0.18821 -1.9678,-0.25259 -2.9687,-0.20312 z"
                    id="path42965"
                    stroke-width="0.5"
                    stroke-linecap="round"
                    stroke-linejoin="round"
                    stroke="black" />
                <g id="g42973"
                    style="stroke-width:0.5">
                    <path
                        d="m -3467.8887,787.6543 c -3.7467,-0.37417 -7.602,1.50945 -11.3672,4.42773 a 1.0583349,1.0583349 0 0 0 -0.1894,1.48438 1.0583349,1.0583349 0 0 0 1.4844,0.1875 c 3.5525,-2.75342 6.9833,-4.28155 9.8613,-3.99414 2.878,0.28741 5.518,2.2684 7.7695,7.38281 a 1.0583349,1.0583349 0 0 0 1.3946,0.54297 1.0583349,1.0583349 0 0 0 0.5429,-1.39453 c -2.4254,-5.5095 -5.7493,-8.26255 -9.4961,-8.63672 z"
                        id="path42967"
                        stroke-width="0.5"
                        stroke-linecap="round"
                        stroke-linejoin="round"
                        stroke="black" />
                    <path
                        d="m -3468.8535,792.62109 c -3.7082,-0.23598 -7.3523,1.99224 -10.3594,5.01953 a 1.0583349,1.0583349 0 0 0 0.01,1.4961 1.0583349,1.0583349 0 0 0 1.4961,-0.004 c 2.7592,-2.77783 5.9851,-4.57265 8.7226,-4.39844 2.7376,0.17422 5.3743,2.13153 7.334,7.87696 a 1.0583349,1.0583349 0 0 0 1.3438,0.6582 1.0583349,1.0583349 0 0 0 0.6601,-1.3418 c -2.1091,-6.18362 -5.4949,-9.07065 -9.2031,-9.30664 z"
                        id="path42969"
                        stroke-width="0.5"
                        stroke-linecap="round"
                        stroke-linejoin="round"
                        stroke="black" />
                    <path
                        d="m -3480.3555,809.98254 c 2.8217,3.50348 11.2697,8.67243 12.8833,7.90442 1.6137,-0.76803 6.4806,-8.19783 5.8852,-13.03884 -0.1892,-1.53849 -2.2808,-6.96212 -6.7394,-7.12779 -8.443,-0.31373 -16.7997,5.50223 -12.0291,12.26221 z"
                        id="path42971"
                        stroke-width="1.05833"
                        stroke-linecap="round"
                        stroke-linejoin="round"
                        stroke="black" />
                </g>
            </g>
            <path id="path42977"
                d="m 1141.0625,3519.5455 c 0,0 -0.1985,4.1075 -1.234,5.4105 -1.0355,1.303 -4.444,-0.3884 -8.7499,0.5953 -4.306,0.9837 -14.7903,14.1864 -15.2735,15.3773 l -2.175,3.1327 c 0,0 9.8306,-4.4468 14.782,-3.1755 6.7668,1.737 8.1954,8.0116 11.2526,14.566 7.8797,0.2592 17.4483,0.1788 34.7968,-0.051 -3.147,-4.855 1.043,-8.795 2.6453,-12.746 0.6558,-1.9243 4.9421,-5.2451 10.6888,-5.4637 5.6619,-0.2153 13.365,2.9311 13.365,2.9311 -6.2083,-9.8922 -12.3204,-15.2806 -24.9426,-14.812 -4.2597,-0.021 -3.869,-5.6157 -3.869,-5.6157 z m 4.6674,2.1533 h 22.4229 c 0.9959,0 1.7973,0.802 1.7973,1.7978 v 1.927 c 0,0.9958 -0.8014,1.7974 -1.7973,1.7974 h -22.4229 c -0.9958,0 -1.7973,-0.8016 -1.7973,-1.7974 v -1.927 c 0,-0.9958 0.8015,-1.7978 1.7973,-1.7978 z m 33.2032,5.8798 c 1.737,-0.011 3.7025,0.1133 4.9475,0.6196 2.1544,0.8761 5.2296,4.6193 5.2296,4.6193 l -1.7265,0.3783 c 0,0 -2.3437,-2.6633 -3.9357,-3.283 -2.5274,-0.9838 -8.1276,-0.384 -8.1276,-0.384 l -0.031,-1.7513 c 0,0 1.675,-0.1865 3.6437,-0.1989 z m -43.5648,0.6816 c 2.1159,-0.01 3.9941,0.1989 3.9941,0.1989 l -0.031,1.7513 c 0,0 -5.5997,-0.5993 -8.1271,0.3845 -1.592,0.6197 -3.9357,3.2825 -3.9357,3.2825 l -1.7265,-0.3783 c 0,0 3.0747,-3.7432 5.2291,-4.6193 1.162,-0.4726 2.9515,-0.6121 4.5972,-0.6196 z"
                stroke="none"
                stroke-width="1.05833"
                stroke-linecap="round"
                stroke-linejoin="round" />
            <g id="g42989"
                transform="matrix(-1,0,0,1,-2278.6239,2760.9917)"
                style="stroke-width:0.5">
                <path
                    d="m -3468.5742,782.25977 c -3.0027,0.14839 -6.075,1.32663 -8.9317,3.30273 a 1.0583349,1.0583349 0 0 0 -0.2695,1.47266 1.0583349,1.0583349 0 0 0 1.4727,0.26757 c 3.4622,-2.39504 7.0965,-3.37963 10.2968,-2.76171 3.2003,0.61791 6.0851,2.79691 8.1602,7.20117 a 1.0583349,1.0583349 0 0 0 1.4102,0.50781 1.0583349,1.0583349 0 0 0 0.5058,-1.4082 c -2.2899,-4.86016 -5.7767,-7.62608 -9.6758,-8.37891 -0.9747,-0.18821 -1.9678,-0.25259 -2.9687,-0.20312 z"
                    id="path42979"
                    stroke-width="0.5"
                    stroke-linecap="round"
                    stroke-linejoin="round"
                    stroke="black" />
                <g id="g42987"
                    style="stroke-width:0.5">
                    <path
                        d="m -3467.8887,787.6543 c -3.7467,-0.37417 -7.602,1.50945 -11.3672,4.42773 a 1.0583349,1.0583349 0 0 0 -0.1894,1.48438 1.0583349,1.0583349 0 0 0 1.4844,0.1875 c 3.5525,-2.75342 6.9833,-4.28155 9.8613,-3.99414 2.878,0.28741 5.518,2.2684 7.7695,7.38281 a 1.0583349,1.0583349 0 0 0 1.3946,0.54297 1.0583349,1.0583349 0 0 0 0.5429,-1.39453 c -2.4254,-5.5095 -5.7493,-8.26255 -9.4961,-8.63672 z"
                        id="path42981"
                        stroke-width="0.5"
                        stroke-linecap="round"
                        stroke-linejoin="round"
                        stroke="black" />
                    <path
                        d="m -3468.8535,792.62109 c -3.7082,-0.23598 -7.3523,1.99224 -10.3594,5.01953 a 1.0583349,1.0583349 0 0 0 0.01,1.4961 1.0583349,1.0583349 0 0 0 1.4961,-0.004 c 2.7592,-2.77783 5.9851,-4.57265 8.7226,-4.39844 2.7376,0.17422 5.3743,2.13153 7.334,7.87696 a 1.0583349,1.0583349 0 0 0 1.3438,0.6582 1.0583349,1.0583349 0 0 0 0.6601,-1.3418 c -2.1091,-6.18362 -5.4949,-9.07065 -9.2031,-9.30664 z"
                        id="path42983"
                        stroke-width="0.5"
                        stroke-linecap="round"
                        stroke-linejoin="round"
                        stroke="black" />
                    <path
                        d="m -3480.3555,809.98254 c 2.8217,3.50348 11.2697,8.67243 12.8833,7.90442 1.6137,-0.76803 6.4806,-8.19783 5.8852,-13.03884 -0.1892,-1.53849 -2.2808,-6.96212 -6.7394,-7.12779 -8.443,-0.31373 -16.7997,5.50223 -12.0291,12.26221 z"
                        id="path42985"
                        stroke-width="1.05833"
                        stroke-linecap="round"
                        stroke-linejoin="round"
                        stroke="black" />
                </g>
            </g>
            <path
                d="m 1187.1738,3536.3848 c -0.8033,0.02 -1.5637,0.1161 -2.2578,0.3144 -4.7463,1.3561 -7.9427,4.6063 -9.8203,8.0899 -1.8775,3.4836 -2.5099,7.179 -2.1191,9.8437 a 1.0583349,1.0583349 0 0 0 1.2011,0.8945 1.0583349,1.0583349 0 0 0 0.8926,-1.2011 c -0.2969,-2.0252 0.2228,-5.4423 1.8887,-8.5332 1.6659,-3.091 4.404,-5.8777 8.5371,-7.0586 1.7808,-0.5088 5.6224,0.081 8.8359,0.9375 3.2136,0.8562 5.8731,1.873 5.8731,1.873 a 1.0583349,1.0583349 0 0 0 1.3672,-0.6094 1.0583349,1.0583349 0 0 0 -0.6114,-1.3671 c 0,0 -2.7481,-1.0526 -6.0839,-1.9414 -2.5019,-0.6667 -5.2932,-1.3016 -7.7032,-1.2422 z"
                id="path42991"
                stroke-width="0.5"
                stroke-linecap="round"
                stroke-linejoin="round"
                stroke="black" />
            <path
                d="m 1184.2773,3517.541 c -3.64,-0.5197 -6.9257,0.3246 -10.2597,1.2285 a 1.0583349,1.0583349 0 0 0 -0.7442,1.2989 1.0583349,1.0583349 0 0 0 1.2989,0.7441 c 3.3112,-0.8978 6.2631,-1.6246 9.4062,-1.1758 3.1431,0.4488 6.5837,2.0587 10.8926,6.1387 5.9508,5.6347 9.0222,8.6174 10.8027,11.3418 1.7805,2.7243 2.3973,5.3058 3.4258,10.4726 2.0433,10.2649 2.2129,18.5489 2.2129,18.5489 a 1.0584408,1.0584408 0 0 0 0.1328,0.4922 c 4.2671,7.6826 11.4484,16.9859 16.9863,26.416 5.5349,9.4247 9.3169,18.8922 7.2403,26.6855 -1.4355,4.929 -5.1543,9.4365 -11.8633,10.6699 a 1.0584408,1.0584408 0 0 0 -0.086,0.02 c -4.8915,1.3335 -8.6249,0.9082 -11.5625,-0.625 -2.9377,-1.5332 -5.1405,-4.2343 -6.7442,-7.6817 -3.2073,-6.8947 -3.8843,-16.6798 -3.2793,-24.6523 1.0445,-10.1756 -0.6855,-26.793 -0.6855,-26.793 a 1.0583349,1.0583349 0 0 0 -1.1602,-0.9453 1.0583349,1.0583349 0 0 0 -0.9453,1.1621 c 0,0 1.684,16.6927 0.6836,26.3867 a 1.0584408,1.0584408 0 0 0 0,0.029 c -0.6233,8.2143 -0.01,18.2309 3.4707,25.7051 1.7385,3.7371 4.2265,6.8617 7.6836,8.666 3.4443,1.7976 7.795,2.219 13.0411,0.8008 7.4709,-1.3871 11.8698,-6.604 13.4843,-12.1582 a 1.0584408,1.0584408 0 0 0 0.01,-0.023 c 2.354,-8.8037 -1.8253,-18.7253 -7.4589,-28.3184 -5.5933,-9.5243 -12.7059,-18.7875 -16.8477,-26.1933 -0.011,-0.4617 -0.21,-8.4434 -2.2324,-18.6036 -1.0339,-5.194 -1.7336,-8.1633 -3.7305,-11.2187 -1.9969,-3.0554 -5.1637,-6.0817 -11.1191,-11.7207 -4.5189,-4.2788 -8.4088,-6.1775 -12.0489,-6.6973 z"
                id="path42993"
                stroke-width="0.5"
                stroke-linecap="round"
                stroke-linejoin="round"
                stroke="black" />
            <path
                d="m 1156.0918,3514.2422 c -2.1636,0.5322 -3.6166,2.6846 -4.0859,5.0703 a 1.0583349,1.0583349 0 0 0 0.8339,1.2441 1.0583349,1.0583349 0 0 0 1.2422,-0.8339 c 0.344,-1.7486 1.5731,-3.192 2.5157,-3.4239 0.4713,-0.1159 0.8884,-0.066 1.4668,0.416 0.5783,0.4822 1.2658,1.4688 1.8515,3.1504 a 1.0583349,1.0583349 0 0 0 1.3477,0.6524 1.0583349,1.0583349 0 0 0 0.6504,-1.3477 c -0.6666,-1.9137 -1.489,-3.2421 -2.4942,-4.0801 -1.0052,-0.8379 -2.2463,-1.1137 -3.3281,-0.8476 z"
                id="path42995"
                stroke-width="0.5"
                stroke-linecap="round"
                stroke-linejoin="round"
                stroke="black" />
            <path
                d="m 1186.166,3490.9473 c -10.6058,-0.474 -17.8198,3.5341 -22.4648,8.3632 -3.0967,3.2195 -5.0762,6.7681 -6.2891,9.5606 -0.6064,1.3962 -1.0213,2.6032 -1.2871,3.4941 -0.1329,0.4455 -0.2286,0.8125 -0.293,1.0879 -0.032,0.1377 -0.056,0.2522 -0.074,0.3496 -0.018,0.097 -0.039,0.095 -0.039,0.3399 a 1.0583349,1.0583349 0 0 0 1.0585,1.0566 1.0583349,1.0583349 0 0 0 1.0586,-1.0566 c 0,0.2027 -0.01,0.1003 0,0.047 0.01,-0.053 0.028,-0.1425 0.055,-0.2559 0.053,-0.2268 0.1383,-0.5555 0.2598,-0.9629 0.243,-0.8148 0.6301,-1.9456 1.1992,-3.2559 1.1382,-2.6205 3.0036,-5.9523 5.8731,-8.9355 5.7389,-5.9663 15.4023,-10.6859 32.1015,-5.6992 11.7738,3.5158 19.5916,9.1013 25.0059,16.1308 5.4143,7.0295 8.4269,15.5506 10.3789,24.9532 3.904,18.805 3.491,41.0531 10.0781,61.2656 a 1.0584408,1.0584408 0 0 0 0.062,0.1543 c 3.9116,7.6368 7.791,12.5279 13.2578,15.4082 5.4668,2.8802 12.3532,3.7057 22.2305,3.6074 a 1.0583349,1.0583349 0 0 0 1.0488,-1.0703 1.0583349,1.0583349 0 0 0 -1.0683,-1.0469 c -9.7475,0.097 -16.2629,-0.7491 -21.2246,-3.3633 -4.9437,-2.6046 -8.5131,-7.0151 -12.3184,-14.4257 -6.4092,-19.7289 -6.0228,-41.8298 -9.9941,-60.959 -1.9884,-9.5774 -5.0886,-18.4311 -10.7754,-25.8145 -5.6869,-7.3834 -13.9571,-13.2502 -26.0762,-16.8691 -4.3191,-1.2898 -8.2323,-1.9455 -11.7676,-2.1035 z"
                id="path42997"
                stroke-width="0.5"
                stroke-linecap="round"
                stroke-linejoin="round"
                stroke="black" />
            <path
                d="m 1181.8574,3498.4355 a 1.0583349,1.0583349 0 0 0 -0.6816,0.4395 c -3.8629,5.5724 -9.1633,7.1111 -14.9004,8.5332 a 1.0583349,1.0583349 0 0 0 -0.7715,1.2813 1.0583349,1.0583349 0 0 0 1.2813,0.7734 c 5.7924,-1.4359 11.8491,-3.2062 16.1308,-9.3828 a 1.0583349,1.0583349 0 0 0 -0.2676,-1.4727 1.0583349,1.0583349 0 0 0 -0.791,-0.1719 z"
                id="path42999"
                stroke-width="0.5"
                stroke-linecap="round"
                stroke-linejoin="round"
                stroke="black" />
            <path
                d="m 1057.8555,3631.3594 a 1.0583349,1.0583349 0 0 0 -1.0586,1.0586 1.0583349,1.0583349 0 0 0 1.0586,1.0586 h 218.1465 a 1.0583349,1.0583349 0 0 0 1.0566,-1.0586 1.0583349,1.0583349 0 0 0 -1.0566,-1.0586 z"
                id="path43001"
                stroke-width="0.5"
                stroke-linecap="round"
                stroke-linejoin="round"
                stroke="black" />
            <path
                d="m 1057.8555,3642.7148 a 1.0583349,1.0583349 0 0 0 -1.0586,1.0586 1.0583349,1.0583349 0 0 0 1.0586,1.0586 h 218.1465 a 1.0583349,1.0583349 0 0 0 1.0566,-1.0586 1.0583349,1.0583349 0 0 0 -1.0566,-1.0586 z"
                id="path43003"
                stroke-width="0.5"
                stroke-linecap="round"
                stroke-linejoin="round"
                stroke="black" />
        </g>
    </g>
</svg>