<?xml version="1.0" encoding="UTF-8" standalone="no"?>
<!-- Created with Inkscape (http://www.inkscape.org/) -->

<svg width="100%" height="100%"
    viewBox="0 0 610.74574 712.24494"
    version="1.1" id="svg5"
    xml:space="preserve"
    xmlns="http://www.w3.org/2000/svg"
    xmlns:svg="http://www.w3.org/2000/svg">
    <defs id="defs2" />
    <g id="layer1"
        transform="translate(-2808.5112,-1379.476)">
        <g id="notion-explaining-content-creator"
            transform="matrix(2,0,0,2,2435.541,1176.4858)"
            style="stroke-width:0.5">
            <title id="title94598">
                notion-explaining-content-creator
            </title>
            <path
                d="m 247.71094,258.70898 a 1.0583349,1.0583349 0 0 0 -0.7793,0.22266 c -27.11982,21.60151 -47.49221,56.36476 -60.41211,105.71094 a 1.0584408,1.0584408 0 0 0 0.33399,1.07031 c 17.42716,14.99908 34.03669,16.10345 49.85546,11.08984 a 1.0583349,1.0583349 0 0 0 0.68946,-1.32812 1.0583349,1.0583349 0 0 0 -1.32813,-0.68945 c -15.1787,4.81074 -30.54641,3.89854 -47.30859,-10.27149 12.85176,-48.68685 32.95701,-82.79151 59.49023,-103.92578 a 1.0583349,1.0583349 0 0 0 0.16797,-1.48828 1.0583349,1.0583349 0 0 0 -0.70898,-0.39063 z"
                id="path40670"
                stroke-width="0.5"
                stroke-linecap="round"
                stroke-linejoin="round"
                stroke="black" />
            <path
                d="m 241.60156,304.53906 a 1.0583349,1.0583349 0 0 0 -1.07812,1.03711 l -2.95313,144.9336 a 1.0584408,1.0584408 0 0 0 0.66211,1.00195 c 29.76057,12.02609 72.20946,6.75945 130.79883,-20.01367 a 1.0583349,1.0583349 0 0 0 0.52148,-1.40235 1.0583349,1.0583349 0 0 0 -1.40234,-0.52343 c -57.90125,26.45868 -99.56,31.54228 -128.44727,20.1914 l 2.93555,-144.14453 a 1.0583349,1.0583349 0 0 0 -1.03711,-1.08008 z"
                id="path40672"
                stroke-width="0.5"
                stroke-linecap="round"
                stroke-linejoin="round"
                stroke="black" />
            <path
                d="m 339.43555,285.09961 a 1.0583349,1.0583349 0 0 0 -1.36719,0.60937 c 0,0 -0.97585,2.54458 -1.95508,5.52539 -0.97922,2.98082 -1.99423,6.26581 -2.00586,8.37305 -0.004,0.66799 0.12729,1.5777 0.35352,2.89453 0.22622,1.31684 0.55516,2.99518 0.97461,4.99024 0.83889,3.99012 2.03687,9.24251 3.47461,15.32226 2.87546,12.15952 6.71177,27.62415 10.54882,42.8418 7.67411,30.4353 15.35352,59.88281 15.35352,59.88281 a 1.0583349,1.0583349 0 0 0 1.29102,0.75781 1.0583349,1.0583349 0 0 0 0.75585,-1.29101 c 0,0 -7.67625,-29.44262 -15.34765,-59.86719 -3.8357,-15.21228 -7.67008,-30.67016 -10.54102,-42.81055 -1.43547,-6.07019 -2.6305,-11.31229 -3.46289,-15.27148 -0.41619,-1.97959 -0.74204,-3.63991 -0.96094,-4.91406 -0.21889,-1.27415 -0.32401,-2.20647 -0.32226,-2.52344 0.007,-1.32261 0.93786,-4.80055 1.89844,-7.72461 0.96058,-2.92406 1.92187,-5.42773 1.92187,-5.42773 a 1.0583349,1.0583349 0 0 0 -0.60937,-1.36719 z"
                id="path40674"
                stroke-width="0.5"
                stroke-linecap="round"
                stroke-linejoin="round"
                stroke="black" />
            <path
                d="m 304.10742,165.11719 a 1.0583349,1.0583349 0 0 0 -0.50781,1.4082 c 10.0636,21.39808 13.93319,39.0473 12.99414,52.60938 -0.93905,13.56207 -6.59288,23.01098 -15.73828,28.42578 -3.68303,2.18064 -8.28863,2.3647 -13.3418,1.16015 -5.05317,-1.20455 -10.493,-3.801 -15.63672,-7.00195 -10.28743,-6.4019 -19.44833,-15.34224 -22.21484,-19.82227 a 1.0584408,1.0584408 0 0 0 -1.88867,0.17969 c 0,0 -0.19555,0.57866 -1.11133,1.39063 -0.91578,0.81197 -2.50893,1.76176 -5.30274,2.11523 -2.4805,0.31384 -5.29578,-1.21945 -7.83789,-3.83594 -2.5421,-2.61649 -4.74267,-6.23128 -6.01757,-9.56836 -1.2166,-3.18445 -0.37734,-4.62046 0.66992,-5.58593 1.04726,-0.96548 2.42578,-1.26953 2.42578,-1.26953 a 1.0583349,1.0583349 0 0 0 0.82812,-1.24805 1.0583349,1.0583349 0 0 0 -1.24609,-0.82813 c 0,0 -1.88751,0.35652 -3.44141,1.78907 -1.55389,1.43255 -2.65186,4.13191 -1.21289,7.89843 1.38067,3.61391 3.68576,7.41464 6.47657,10.28711 2.7908,2.87247 6.13747,4.90169 9.62109,4.46094 3.17032,-0.40111 5.21119,-1.54183 6.43945,-2.63086 0.49564,-0.43945 0.41458,-0.52016 0.67969,-0.89648 3.67645,5.23173 12.14187,13.22002 22.01367,19.36328 5.27491,3.28259 10.88169,5.97832 16.26563,7.26172 5.38394,1.28339 10.60741,1.15107 14.91015,-1.39649 9.75279,-5.77441 15.79618,-16.01589 16.77149,-30.10156 0.9753,-14.08567 -3.02436,-32.04236 -13.18946,-53.65625 a 1.0583349,1.0583349 0 0 0 -1.4082,-0.50781 z"
                id="path40676"
                stroke-width="0.5"
                stroke-linecap="round"
                stroke-linejoin="round"
                stroke="black" />
            <path
                d="m 303.79883,165.72656 c -0.002,6.6e-4 -0.0197,0.006 -0.043,0.0117 -0.0464,0.0117 -0.1215,0.0306 -0.2168,0.0547 -0.1906,0.0482 -0.46721,0.11873 -0.81445,0.21484 -0.69448,0.19223 -1.67065,0.48398 -2.82227,0.88867 -2.30322,0.80939 -5.30671,2.07178 -8.16601,3.9336 -2.8593,1.86181 -5.59078,4.33015 -7.25781,7.58789 -1.66703,3.25774 -2.209,7.30127 -0.76954,12.02539 3.24951,10.66442 8.62717,15.26072 13.25782,17.02734 4.63064,1.76663 8.50781,0.72266 8.50781,0.72266 a 1.0583349,1.0583349 0 0 0 0.74219,-1.29883 1.0583349,1.0583349 0 0 0 -1.29883,-0.74414 c 0,0 -3.18051,0.87618 -7.19727,-0.65625 -4.01676,-1.53242 -8.87655,-5.45374 -11.98828,-15.66602 -1.3015,-4.27134 -0.80465,-7.64195 0.63086,-10.44726 1.43552,-2.80531 3.87097,-5.04766 6.52734,-6.77734 2.65638,-1.72969 5.51768,-2.93951 7.7129,-3.71094 1.0976,-0.38572 2.0283,-0.66183 2.68554,-0.84375 0.32862,-0.091 0.58905,-0.15945 0.76953,-0.20508 0.0903,-0.0228 0.16004,-0.0395 0.21289,-0.0527 0.0264,-0.007 0.0479,-0.0111 0.0723,-0.0176 0.0122,-0.003 0.0238,-0.007 0.0469,-0.0137 0.0115,-0.003 0.0256,-0.008 0.0527,-0.0176 0.0272,-0.01 0.20077,-0.0955 0.20117,-0.0957 a 1.0583349,1.0583349 0 0 0 0.35156,-1.45507 1.0583349,1.0583349 0 0 0 -1.45312,-0.35157 c -4e-4,2.5e-4 0.1724,-0.085 0.19726,-0.0937 0.0249,-0.009 0.0352,-0.0113 0.043,-0.0137 0.0155,-0.005 0.0169,-0.006 0.0156,-0.006 z"
                id="path40678"
                stroke-width="0.5"
                stroke-linecap="round"
                stroke-linejoin="round"
                stroke="black" />
            <path
                d="m 296.27539,181.92187 a 1.0583349,1.0583349 0 0 0 -0.38086,1.44727 c 0,0 1.03769,1.79451 1.59375,3.91797 0.27803,1.06173 0.42248,2.18834 0.29688,3.15039 -0.12561,0.96205 -0.47253,1.73549 -1.2461,2.35547 -1.41018,1.13019 -2.65492,1.4588 -3.8164,1.41211 -1.16148,-0.0467 -2.27405,-0.50738 -3.25586,-1.14453 -1.96362,-1.2743 -3.27539,-3.17188 -3.27539,-3.17188 a 1.0583349,1.0583349 0 0 0 -1.47071,-0.2793 1.0583349,1.0583349 0 0 0 -0.27929,1.46875 c 0,0 1.47254,2.2 3.87304,3.75782 1.20026,0.77891 2.66547,1.41769 4.32422,1.48437 1.65875,0.0667 3.47831,-0.47737 5.22461,-1.87695 1.23626,-0.9908 1.84371,-2.37083 2.02149,-3.73242 0.17777,-1.3616 -0.0272,-2.72791 -0.34961,-3.95899 -0.64476,-2.46216 -1.8125,-4.44922 -1.8125,-4.44922 a 1.0583349,1.0583349 0 0 0 -1.44727,-0.38086 z"
                id="path40680"
                stroke-width="0.5"
                stroke-linecap="round"
                stroke-linejoin="round"
                stroke="black" />
            <path
                d="m 277.80664,192.78711 a 1.0583349,1.0583349 0 0 0 -0.80859,0.0449 1.0583349,1.0583349 0 0 0 -0.4961,1.41211 c 0,0 1.05324,2.20835 1.35157,4.8418 0.29832,2.63344 -0.0776,5.43009 -2.88672,7.1914 -3.09586,1.94107 -5.49456,1.22742 -7.39063,0.043 -1.89606,-1.18444 -3.05469,-2.875 -3.05469,-2.875 a 1.0583349,1.0583349 0 0 0 -1.4707,-0.2832 1.0583349,1.0583349 0 0 0 -0.2832,1.4707 c 0,0 1.3548,2.02522 3.6875,3.48242 2.3327,1.45721 5.87817,2.31166 9.63672,-0.0449 3.62183,-2.27086 4.2091,-6.16997 3.86328,-9.22265 -0.34582,-3.05268 -1.54492,-5.52149 -1.54492,-5.52149 a 1.0583349,1.0583349 0 0 0 -0.60352,-0.53906 z"
                id="path40682"
                stroke-width="0.5"
                stroke-linecap="round"
                stroke-linejoin="round"
                stroke="black" />
            <path
                d="m 304.36133,214.04883 a 1.0583349,1.0583349 0 0 0 -0.6875,0.42773 c -2.33611,3.26641 -4.86504,6.04084 -7.8086,7.83985 -2.94355,1.799 -6.29094,2.66585 -10.5039,2.11132 a 1.0584408,1.0584408 0 0 0 -1,1.66407 c 0,0 2.03888,2.88496 5.02929,5.12304 1.49521,1.11904 3.2458,2.10087 5.18165,2.43946 1.93584,0.33858 4.07309,-0.0394 5.98632,-1.53516 3.52388,-2.75505 4.86718,-5.2322 5.23047,-7.125 0.18165,-0.9464 0.11583,-1.73003 -0.01,-2.28711 -0.1256,-0.55708 -0.35157,-0.96484 -0.35157,-0.96484 a 1.0583349,1.0583349 0 0 0 -1.44726,-0.38086 1.0583349,1.0583349 0 0 0 -0.38086,1.44726 c 0,0 0.0446,0.0584 0.11328,0.36328 0.0687,0.30486 0.12167,0.77976 -0.002,1.42383 -0.24724,1.28815 -1.2086,3.31577 -4.45703,5.85547 -1.47292,1.15157 -2.86419,1.37119 -4.31641,1.11719 -1.45222,-0.254 -2.95016,-1.05407 -4.2793,-2.04883 -1.23972,-0.92783 -2.26468,-1.98394 -3.0625,-2.86719 3.56322,0.0249 6.68585,-0.88697 9.37305,-2.52929 3.30585,-2.02043 6.00049,-5.02295 8.42578,-8.41407 a 1.0583349,1.0583349 0 0 0 -0.24414,-1.47656 1.0583349,1.0583349 0 0 0 -0.78906,-0.18359 z"
                id="path40684"
                stroke-width="0.5"
                stroke-linecap="round"
                stroke-linejoin="round"
                stroke="black" />
            <path
                d="m 267.19531,182.67969 c -7.47565,1.2374 -13.94979,6.59046 -19.59765,15.07031 a 1.0583349,1.0583349 0 0 0 0.29296,1.4668 1.0583349,1.0583349 0 0 0 1.46875,-0.29297 c 5.46253,-8.20159 11.48299,-13.04551 18.18165,-14.1543 a 1.0583349,1.0583349 0 0 0 0.87109,-1.21875 1.0583349,1.0583349 0 0 0 -1.2168,-0.87109 z"
                id="path40686"
                stroke-width="0.5"
                stroke-linecap="round"
                stroke-linejoin="round"
                stroke="black" />
            <path
                d="m 232.99406,206.12464 10.20973,12.03635 2.36003,-1.86753 -2.48316,-3.8582 c 0,0 11.59499,-19.44491 9.28624,-33.82079 -2.30876,-14.37589 -2.39083,-13.82179 -2.39083,-13.82179 0,0 9.69146,2.66822 21.58904,1.32337 14.97928,-1.69319 33.63383,-8.2914 42.85081,-18.2176 17.0654,-18.37854 9.7928,-22.12148 9.7928,-22.12148 0,0 -3.02361,6.45137 -8.75643,5.64205 -8.75159,-1.2355 -44.78949,-49.588116 -75.0185,-20.77885 -19.22921,18.32608 -15.85186,30.03155 -15.85075,30.03699 -17.87787,6.40329 -26.56362,18.15763 -29.89356,32.38389 -5.28442,26.11464 5.44869,47.67278 26.18623,51.8696 11.58702,2.34495 10.37394,-4.07369 10.37394,-4.07369 l -5.78725,-9.53261 0.71829,-4.80222 4.60721,-1.94963 z"
                id="path40688"
                stroke-width="1.05833"
                stroke-linecap="round"
                stroke-linejoin="round"
                stroke="black" />
            <path
                d="m 220.89416,137.70674 c 0,0 -2.66841,-6.217 -2.31851,-9.0964 0.34989,-2.87941 0.98157,-1.95369 0.98157,-1.95369 0,0 -0.37556,1.96162 1.52915,6.57206 1.90462,4.61045 5.23439,8.92045 5.23439,8.92045 l -2.9279,1.07561 c -5.46726,-8.67579 -14.1044,-2.43668 -15.20426,-4.1311 -0.60213,-1.3784 2.69126,-2.18804 6.85836,-2.32284 3.59161,-0.11619 6.81508,2.70481 6.81508,2.70481 z"
                id="path40690"
                stroke-width="6.4215"
                stroke-linecap="round"
                stroke-linejoin="round"
                stroke="black" />
            <g id="path40692"
                style="stroke-width:0.5">
                <path
                    d="m 324.02469,180.83461 12.85708,-13.54473"
                    id="path72655"
                    stroke-width="1.05833"
                    stroke-linecap="round"
                    stroke-linejoin="round"
                    stroke="black" />
                <path
                    d="m 336.85352,166.23242 a 1.0583349,1.0583349 0 0 0 -0.74024,0.32813 l -12.85547,13.54492 a 1.0583349,1.0583349 0 0 0 0.0391,1.49609 1.0583349,1.0583349 0 0 0 1.4961,-0.0391 l 12.85547,-13.54492 a 1.0583349,1.0583349 0 0 0 -0.0371,-1.4961 1.0583349,1.0583349 0 0 0 -0.75781,-0.28906 z"
                    id="path72657"
                    stroke-width="0.5"
                    stroke-linecap="round"
                    stroke-linejoin="round"
                    stroke="black" />
            </g>
            <g id="path40694"
                style="stroke-width:0.5">
                <path
                    d="m 331.49472,199.3868 c 0.7901,-0.66698 15.17608,-6.12592 15.17608,-6.12592"
                    id="path72661"
                    stroke-width="1.05833"
                    stroke-linecap="round"
                    stroke-linejoin="round"
                    stroke="black" />
                <path
                    d="m 346.29492,192.27148 c 0,0 -3.60059,1.36561 -7.30273,2.81641 -1.85107,0.7254 -3.72732,1.47144 -5.19922,2.08203 -0.73595,0.3053 -1.36932,0.57704 -1.85742,0.79883 -0.24405,0.11089 -0.45085,0.20913 -0.625,0.29883 -0.17416,0.0897 -0.28219,0.12832 -0.49805,0.31054 a 1.0583349,1.0583349 0 0 0 -0.12695,1.49219 1.0583349,1.0583349 0 0 0 1.49218,0.125 c -0.11709,0.0988 -0.0218,0.0167 0.10157,-0.0469 0.12338,-0.0635 0.30632,-0.14975 0.53125,-0.25196 0.44986,-0.20441 1.07108,-0.47121 1.79492,-0.77148 1.44768,-0.60054 3.31597,-1.3437 5.16015,-2.06641 3.68838,-1.4454 7.28125,-2.80859 7.28125,-2.80859 a 1.0583349,1.0583349 0 0 0 0.61329,-1.36523 1.0583349,1.0583349 0 0 0 -1.36524,-0.61329 z"
                    id="path72663"
                    stroke-width="0.5"
                    stroke-linecap="round"
                    stroke-linejoin="round"
                    stroke="black" />
            </g>
            <g id="path40696"
                style="stroke-width:0.5">
                <path
                    d="m 333.15699,220.15539 15.67889,3.13992"
                    id="path72667"
                    stroke-width="1.05833"
                    stroke-linecap="round"
                    stroke-linejoin="round"
                    stroke="black" />
                <path
                    d="m 333.36523,219.11719 a 1.0583349,1.0583349 0 0 0 -1.24609,0.83008 1.0583349,1.0583349 0 0 0 0.83008,1.24609 l 15.67969,3.14062 a 1.0583349,1.0583349 0 0 0 1.24414,-0.83007 1.0583349,1.0583349 0 0 0 -0.83008,-1.2461 z"
                    id="path72669"
                    stroke-width="0.5"
                    stroke-linecap="round"
                    stroke-linejoin="round"
                    stroke="black" />
            </g>
            <path
                d="m 322.35352,251.4043 a 1.0583349,1.0583349 0 0 0 -1.46094,0.32812 1.0583349,1.0583349 0 0 0 0.32617,1.45899 c 0.38071,0.24153 0.6097,0.2812 1.02344,0.41992 0.41374,0.13871 0.93843,0.30633 1.56445,0.51953 1.25204,0.4264 2.90731,1.03223 4.78516,1.91016 3.75568,1.75584 8.39429,4.59574 12.4375,9.22656 1.91541,2.19377 4.31521,6.62999 6.70312,11.95508 2.38791,5.32508 4.80715,11.56292 6.9668,17.50586 4.3193,11.88587 7.60156,22.58789 7.60156,22.58789 a 1.0583349,1.0583349 0 0 0 1.32227,0.70117 1.0583349,1.0583349 0 0 0 0.70117,-1.32227 c 0,0 -3.29569,-10.7438 -7.63672,-22.68945 -2.17051,-5.97283 -4.60147,-12.24741 -7.02344,-17.64844 -2.42196,-5.40103 -4.79043,-9.90476 -7.04101,-12.48242 -4.28876,-4.91205 -9.19212,-7.90674 -13.13477,-9.75 -1.97132,-0.92163 -3.70699,-1.5577 -5,-1.99805 -0.6465,-0.22017 -1.18272,-0.39088 -1.57226,-0.52148 -0.38955,-0.1306 -0.70465,-0.29135 -0.5625,-0.20117 z"
                id="path40698"
                stroke-width="0.5"
                stroke-linecap="round"
                stroke-linejoin="round"
                stroke="black" />
            <path
                d="m 362.05078,332.49023 a 1.0583349,1.0583349 0 0 0 -0.79883,0.13672 1.0583349,1.0583349 0 0 0 -0.44336,0.80078 c -0.013,0.0155 -0.0252,0.0405 -0.12109,0.13477 -0.25617,0.25195 -0.77103,0.64824 -1.42969,1.08008 -1.31732,0.86368 -3.2322,1.91437 -5.2207,2.88281 -1.9885,0.96844 -4.06048,1.86011 -5.69141,2.42578 -0.81546,0.28284 -1.5247,0.48307 -2.01758,0.57227 -0.49287,0.0892 -0.77585,-0.11852 -0.41406,0.13476 a 1.0583349,1.0583349 0 0 0 -1.47461,0.26172 1.0583349,1.0583349 0 0 0 0.25977,1.47266 c 0.76552,0.53591 1.32993,0.33521 2.00586,0.21289 0.67592,-0.12232 1.45652,-0.34996 2.33398,-0.6543 1.75493,-0.60868 3.87759,-1.52592 5.92578,-2.52344 2.0482,-0.99751 4.01239,-2.06975 5.45508,-3.01562 0.72135,-0.47294 1.30675,-0.90388 1.75,-1.33984 0.22163,-0.21799 0.41609,-0.42933 0.57227,-0.74024 0.15617,-0.31091 0.27261,-0.89381 -0.0293,-1.37305 a 1.0583349,1.0583349 0 0 0 -0.66211,-0.46875 z"
                id="path40700"
                stroke-width="0.5"
                stroke-linecap="round"
                stroke-linejoin="round"
                stroke="black" />
            <path
                d="m 438.36719,221.87695 c -0.36572,0.13964 -0.45102,0.28436 -0.5586,0.4043 -0.21516,0.23988 -0.36883,0.48673 -0.5625,0.80273 -0.38732,0.63201 -0.86217,1.50295 -1.40039,2.4668 -1.07643,1.9277 -2.44772,4.23749 -3.46484,5.28516 -4.41273,4.54526 -11.85002,6.27982 -16.6543,11.66992 -1.72803,1.93875 -3.39207,5.07093 -4.69726,7.77148 -1.264,2.61532 -2.0875,4.66455 -2.14258,4.80078 -0.0799,0.10072 -10.52289,13.25793 -21.54688,27.56055 -5.53304,7.17863 -11.19227,14.61846 -15.72461,20.79492 -4.53233,6.17646 -7.89113,10.96924 -9.01757,13.31641 -1.87723,3.91158 -1.94494,10.54888 -1.67188,16.43359 0.13653,2.94236 0.38536,5.67189 0.61719,7.70118 0.11591,1.01464 0.22601,1.8545 0.31836,2.46289 0.0462,0.30419 0.0881,0.54878 0.125,0.74023 0.0184,0.0957 0.0345,0.17711 0.0547,0.25781 0.0201,0.0807 -0.0402,0.0725 0.15625,0.39258 a 1.0583349,1.0583349 0 0 0 1.45507,0.34766 1.0583349,1.0583349 0 0 0 0.34961,-1.45508 c 0.18035,0.29383 0.0984,0.21979 0.0937,0.20117 -0.005,-0.0186 -0.0172,-0.0717 -0.0312,-0.14453 -0.0281,-0.14561 -0.0659,-0.37189 -0.10937,-0.6582 -0.0869,-0.57263 -0.19514,-1.39167 -0.3086,-2.38477 -0.2269,-1.9862 -0.47361,-4.67482 -0.60742,-7.55859 -0.26762,-5.76755 0.0209,-12.40702 1.4668,-15.41992 0.87857,-1.83068 4.30158,-6.82592 8.81641,-12.97852 4.51482,-6.1526 10.16603,-13.58466 15.69335,-20.75586 11.05466,-14.34241 21.61133,-27.64453 21.61133,-27.64453 a 1.0584408,1.0584408 0 0 0 0.15235,-0.26172 c 0,0 0.88451,-2.19681 2.15625,-4.82812 1.27173,-2.63132 2.96697,-5.70787 4.37109,-7.28321 4.19644,-4.70814 11.58381,-6.44309 16.59375,-11.60351 1.39153,-1.43333 2.70503,-3.78022 3.79297,-5.72852 0.3774,-0.67586 0.65347,-1.15739 0.94141,-1.66016 0.38142,0.75968 0.87397,1.69341 1.05859,2.19336 0.31462,0.85197 0.39808,1.44431 0.30469,2.53125 -0.16632,1.9356 -1.74125,5.06637 -3.31446,7.56055 -0.7866,1.24709 -1.56405,2.35501 -2.13867,3.14649 -0.2873,0.39573 -0.52369,0.7123 -0.6875,0.92968 -0.0152,0.0202 -0.0212,0.0284 -0.0351,0.0469 -0.33564,0.0897 -3.39527,0.90595 -6.68555,1.82617 -1.7331,0.48471 -3.43545,0.9736 -4.66406,1.35156 -0.61431,0.18899 -1.10353,0.34652 -1.45313,0.47852 -0.1748,0.066 -0.28529,0.0961 -0.49805,0.22851 -0.0532,0.0331 -0.11471,0.0707 -0.21484,0.16993 -0.10013,0.0992 -0.32607,0.28657 -0.32422,0.77343 0.002,0.48686 0.41679,0.87123 0.61328,0.96485 0.19649,0.0936 0.29332,0.0949 0.3711,0.10351 0.45601,0.0507 0.48038,-0.0171 0.71679,-0.0605 0.23641,-0.0435 0.52735,-0.1057 0.87891,-0.18555 0.70312,-0.1597 1.63884,-0.38974 2.73437,-0.66797 2.19107,-0.55647 5.01644,-1.30629 7.8125,-2.05859 5.59213,-1.5046 11.06641,-3.02149 11.06641,-3.02149 a 1.0584408,1.0584408 0 0 0 0.37891,-0.19336 l 18.52148,-14.8164 a 1.0583349,1.0583349 0 0 0 0.16602,-1.48829 1.0583349,1.0583349 0 0 0 -1.48828,-0.16406 L 443.40234,239.25 c -0.12631,0.035 -3.86164,1.05433 -6.81445,1.86133 0.55427,-0.77518 1.18709,-1.66734 1.88477,-2.77344 1.63993,-2.59996 3.3953,-5.74767 3.63281,-8.51172 0.11162,-1.29904 -0.0247,-2.35927 -0.42578,-3.44531 -0.40106,-1.08604 -1.01751,-2.20136 -1.89844,-3.95313 -0.0887,-0.17641 -0.28838,-0.42957 -0.60156,-0.55078 -0.31318,-0.1212 -0.62964,-0.0698 -0.8125,0 z"
                id="path40702"
                stroke-width="0.5"
                stroke-linecap="round"
                stroke-linejoin="round"
                stroke="black" />
            <path
                d="m 420.08008,264.39648 a 1.0583349,1.0583349 0 0 0 -1.46485,0.3086 c -6.12715,9.40112 -12.45546,17.44427 -16.81836,29.10156 -3.67244,9.81248 -8.25218,23.422 -13.08984,35.24805 -2.41883,5.91302 -4.9045,11.37947 -7.34961,15.67383 -2.44511,4.29435 -4.90767,7.39407 -6.94336,8.58398 -9.18193,5.36709 -18.14415,4.32576 -25.81445,-2.79492 a 1.0583349,1.0583349 0 0 0 -1.49609,0.0547 1.0583349,1.0583349 0 0 0 0.0566,1.49609 c 8.21684,7.62807 18.49643,8.81573 28.32226,3.07226 2.71626,-1.58772 5.19307,-4.93622 7.71485,-9.36523 2.52177,-4.429 5.03085,-9.96029 7.46875,-15.91992 4.87578,-11.91925 9.46366,-25.55713 13.11328,-35.3086 4.23913,-11.32662 10.4209,-19.19035 16.60937,-28.68554 a 1.0583349,1.0583349 0 0 0 -0.30859,-1.46485 z"
                id="path40704"
                stroke-width="0.5"
                stroke-linecap="round"
                stroke-linejoin="round"
                stroke="black" />
            <path
                d="m 436.69141,254.05859 c -6.91066,-0.40253 -13.8671,2.05489 -20.69922,6.19336 a 1.0583349,1.0583349 0 0 0 -0.35547,1.45313 1.0583349,1.0583349 0 0 0 1.45312,0.35742 c 10.58131,-6.40949 20.68444,-8.49805 30.83203,-2.14258 a 1.0583349,1.0583349 0 0 0 1.45899,-0.33594 1.0583349,1.0583349 0 0 0 -0.33594,-1.45898 c -4.07773,-2.55389 -8.20712,-3.82489 -12.35351,-4.06641 z"
                id="path40706"
                stroke-width="0.5"
                stroke-linecap="round"
                stroke-linejoin="round"
                stroke="black" />
            <path
                d="m 477.75977,256.25 c -6.75404,0.0892 -12.81824,2.65732 -17.80665,5.4043 -3.3256,1.83132 -6.19681,3.75142 -8.47656,5.08984 -1.13987,0.66921 -2.13568,1.18988 -2.91797,1.48242 -0.78228,0.29255 -1.31395,0.31955 -1.54297,0.25 -9.39941,-2.8543 -19.11986,-2.55817 -28.85742,-1.37304 a 1.0583349,1.0583349 0 0 0 -0.92383,1.17968 1.0583349,1.0583349 0 0 0 1.17969,0.92188 c 9.61114,-1.16974 19.01518,-1.42738 27.98633,1.29687 0.94865,0.28808 1.90694,0.0785 2.90039,-0.29297 0.99346,-0.37151 2.06099,-0.9429 3.24609,-1.63867 2.37022,-1.39153 5.19945,-3.28281 8.42774,-5.06054 6.45658,-3.55547 14.4153,-6.62184 23.23437,-4.38477 a 1.0583349,1.0583349 0 0 0 1.28711,-0.76563 1.0583349,1.0583349 0 0 0 -0.76562,-1.2871 c -2.39009,-0.60628 -4.71936,-0.852 -6.9707,-0.82227 z"
                id="path40708"
                stroke-width="0.5"
                stroke-linecap="round"
                stroke-linejoin="round"
                stroke="black" />
            <path
                d="m 480.0332,246.25 c -7.49207,0.35353 -14.85845,2.96286 -22.125,6.0625 a 1.0583349,1.0583349 0 0 0 -0.55664,1.38867 1.0583349,1.0583349 0 0 0 1.38867,0.5586 c 9.5792,-4.08614 19.02568,-7.13994 28.45899,-5.4629 a 1.0583349,1.0583349 0 0 0 1.22656,-0.85546 1.0583349,1.0583349 0 0 0 -0.85742,-1.22852 c -2.52633,-0.44913 -5.0378,-0.58073 -7.53516,-0.46289 z"
                id="path40710"
                stroke-width="0.5"
                stroke-linecap="round"
                stroke-linejoin="round"
                stroke="black" />
            <path
                d="m 490.76562,234.72266 c -12.95615,0.43475 -25.56902,5.17578 -38.00585,11.57812 a 1.0583349,1.0583349 0 0 0 -0.45508,1.42578 1.0583349,1.0583349 0 0 0 1.42383,0.45703 c 12.2965,-6.3301 24.62194,-10.92674 37.10742,-11.3457 a 1.0583349,1.0583349 0 0 0 1.02148,-1.0918 1.0583349,1.0583349 0 0 0 -1.0918,-1.02343 z"
                id="path40712"
                stroke-width="0.5"
                stroke-linecap="round"
                stroke-linejoin="round"
                stroke="black" />
            <path
                d="m 478.88086,225.31836 c -10.44319,2.7846 -19.35817,8.05465 -27.90625,14.52344 a 1.0583349,1.0583349 0 0 0 -0.20508,1.48242 1.0583349,1.0583349 0 0 0 1.48242,0.20508 c 8.42462,-6.37536 17.08501,-11.47539 27.17578,-14.16602 a 1.0583349,1.0583349 0 0 0 0.75,-1.29492 1.0583349,1.0583349 0 0 0 -1.29687,-0.75 z"
                id="path40714"
                stroke-width="0.5"
                stroke-linecap="round"
                stroke-linejoin="round"
                stroke="black" />
            <path
                d="m 218.17187,377.48242 a 1.0583349,1.0583349 0 0 0 -1.03125,1.08399 l 1.79883,70.35546 a 1.0583349,1.0583349 0 0 0 1.08399,1.03125 1.0583349,1.0583349 0 0 0 1.03125,-1.08398 l -1.79688,-70.35547 a 1.0583349,1.0583349 0 0 0 -1.08594,-1.03125 z"
                id="path40716"
                stroke-width="0.5"
                stroke-linecap="round"
                stroke-linejoin="round"
                stroke="black" />
            <path
                d="m 259.28247,244.43615 c 0,0 -6.10351,10.14095 -6.93642,15.84653 0.71823,35.87492 2.23652,45.68063 11.05762,108.29913 -0.1451,1.04484 7.85064,4.96295 9.92574,3.81653 2.07513,-1.14641 9.2147,-8.01034 8.37303,-10.09999 -0.84164,-2.08965 10.15794,1.72688 10.15794,1.72688 0.41342,-15.70202 4.18629,-46.96729 -10.07086,-57.9153 0.17436,-0.009 -11.00073,-1.11996 -18.70506,-11.27542 -6.84927,-9.02836 -5.12252,-12.82815 -5.12252,-12.82815 0,0 4.52752,8.852 7.74903,11.7543 3.22152,2.90229 23.95816,11.91393 27.76011,12.40731 3.80199,0.49339 17.28306,-0.95778 22.12981,-8.40215 4.84674,-7.44437 8.57614,-11.6527 8.30045,-20.69336 -1.13813,-17.59036 -9.84606,-36.2717 -19.99657,-30.43056 0,0 3.64376,2.71226 3.54076,7.09611 -1.17717,50.10289 -37.62109,23.29294 -46.69742,1.79943 -1.32922,-3.48784 -1.46564,-11.10129 -1.46564,-11.10129 z"
                id="path40718"
                stroke-width="1.05833"
                stroke-linecap="round"
                stroke-linejoin="round"
                stroke="black" />
            <path
                d="m 308.66406,252.48828 a 1.0583349,1.0583349 0 0 0 -1.20508,0.88867 c -1.04394,6.89017 -3.75725,11.25505 -7.34765,13.875 -3.5904,2.61996 -8.14753,3.52125 -12.9961,3.1543 -9.69713,-0.73391 -20.40371,-6.68593 -25.5039,-13.21289 a 1.0583349,1.0583349 0 0 0 -1.48633,-0.18164 1.0583349,1.0583349 0 0 0 -0.18164,1.48437 c 5.58569,7.14828 16.5917,13.23287 27.01172,14.02149 5.21001,0.39431 10.31225,-0.57063 14.40429,-3.55664 4.09205,-2.98601 7.08501,-7.96519 8.19141,-15.26758 a 1.0583349,1.0583349 0 0 0 -0.88672,-1.20508 z"
                id="path40720"
                stroke-width="0.5"
                stroke-linecap="round"
                stroke-linejoin="round"
                stroke="black" />
            <path
                d="m 268.57202,236.03258 c -0.87771,0.95344 0.10422,2.63259 1.33503,1.82845 0.50427,-0.32947 0.36174,-1.25866 -0.0435,-1.61078 -0.322,-0.27977 -0.92977,-0.20998 -1.29151,-0.21767 z"
                id="path40722"
                stroke-width="1.05833"
                stroke-linecap="round"
                stroke-linejoin="round"
                stroke="black" />
            <path
                d="m 277.19174,237.85377 c -0.0774,0.44744 -0.42431,0.93088 -0.23217,1.34231 0.12748,0.273 0.63768,0.23583 0.89969,0.0871 0.0961,-0.0546 0.44514,-1.23885 0.0363,-1.33505 -0.2304,-0.0542 -0.46919,-0.0629 -0.7038,-0.0943 z"
                id="path40724"
                stroke-width="1.05833"
                stroke-linecap="round"
                stroke-linejoin="round"
                stroke="black" />
            <path
                d="m 277.06115,242.49744 c 0.45648,3.79993 1.34829,0.51947 1.13913,0.19591 -0.20918,-0.32356 -0.75943,-0.13061 -1.13913,-0.19591 z"
                id="path40726"
                stroke-width="1.05833"
                stroke-linecap="round"
                stroke-linejoin="round"
                stroke="black" />
            <path
                d="m 281.13155,243.57129 c 0.12819,0.6772 -0.0355,1.48522 0.38457,2.03161 1.00359,1.30526 1.27302,-2.61727 0.36277,-2.35086 -0.25998,0.0761 -0.49821,0.21283 -0.74734,0.31925 z"
                id="path40728"
                stroke-width="1.05833"
                stroke-linecap="round"
                stroke-linejoin="round"
                stroke="black" />
            <path
                d="m 284.66506,240.9302 c 0.0784,0.23847 0.28226,2.68417 1.45113,1.42213 0.37513,-0.40505 -0.18637,-2.2104 -0.81264,-1.93728 -0.25066,0.10931 -0.42566,0.34344 -0.63849,0.51515 z"
                id="path40730"
                stroke-width="1.05833"
                stroke-linecap="round"
                stroke-linejoin="round"
                stroke="black" />
            <path
                d="m 289.02571,240.82137 c 0.01,0.67478 -0.32811,1.45174 0.029,2.02435 0.2242,0.3595 0.88701,0.23979 1.26973,0.058 0.26289,-0.12485 0.24159,-0.53216 0.31925,-0.81264 0.3775,-1.36323 -0.68316,-1.48716 -1.61801,-1.26975 z"
                id="path40732"
                stroke-width="1.05833"
                stroke-linecap="round"
                stroke-linejoin="round"
                stroke="black" />
            <path
                d="m 290.64372,245.49406 c 0.1693,0.75702 -0.0511,1.73327 0.50789,2.27105 0.30933,0.29755 0.67344,-0.58606 0.82717,-0.98678 0.0859,-0.22401 -0.0931,-0.47346 -0.1814,-0.69655 -0.22103,-0.55861 -0.62468,-0.52646 -1.15366,-0.58772 z"
                id="path40734"
                stroke-width="1.05833"
                stroke-linecap="round"
                stroke-linejoin="round"
                stroke="black" />
            <path
                d="m 296.6514,244.69593 c -0.0822,0.66027 -0.50755,1.36871 -0.2467,1.98081 0.15449,0.36251 0.78796,0.28494 1.16819,0.1814 0.24876,-0.0677 0.38288,-0.37707 0.45709,-0.62399 0.31613,-1.05187 -0.66979,-1.31438 -1.37858,-1.53822 z"
                id="path40736"
                stroke-width="1.05833"
                stroke-linecap="round"
                stroke-linejoin="round"
                stroke="black" />
            <path
                d="m 297.02869,239.28315 c -1.64666,1.81805 0.76465,3.03276 1.43664,1.37859 0.27641,-0.68045 0.0665,-1.20566 -0.47162,-1.56724 -0.0747,-0.0502 -0.14385,-0.15513 -0.2322,-0.13786 -0.26244,0.0513 -0.48853,0.21767 -0.73282,0.32651 z"
                id="path40738"
                stroke-width="1.05833"
                stroke-linecap="round"
                stroke-linejoin="round"
                stroke="black" />
            <path
                d="m 302.04961,241.51792 c 0.0468,0.81147 -0.45947,2.55292 1.14642,2.11868 0.64669,-0.17488 0.69728,-1.91517 -0.0436,-2.24928 -0.35359,-0.15947 -0.77658,0.0419 -1.10284,0.1306 z"
                id="path40740"
                stroke-width="1.05833"
                stroke-linecap="round"
                stroke-linejoin="round"
                stroke="black" />
            <path
                d="m 303.33387,236.42439 c -0.029,0.76669 -0.34964,1.57916 -0.0871,2.30007 0.42534,1.16782 1.51492,-0.81228 1.61076,-1.34957 0.13369,-0.74967 -1.15708,-0.89261 -1.52369,-0.9505 z"
                id="path40742"
                stroke-width="1.05833"
                stroke-linecap="round"
                stroke-linejoin="round"
                stroke="black" />
            <path
                d="m 308.32577,233.80507 c -0.0145,0.72073 -0.36325,1.5161 -0.0435,2.16221 0.16108,0.3255 0.78451,0.14818 1.08833,-0.0508 0.32412,-0.21224 0.409,-0.6628 0.55145,-1.02306 0.27966,-0.70716 -0.01,-0.69309 -0.61672,-1.11013 -0.0767,-0.0527 -0.16092,-0.11816 -0.25397,-0.11609 -0.24612,0.005 -0.48371,0.0919 -0.72554,0.13786 z"
                id="path40744"
                stroke-width="1.05833"
                stroke-linecap="round"
                stroke-linejoin="round"
                stroke="black" />
            <path
                d="m 311.6706,228.37052 c -1.6524,0.28922 -0.40756,3.03413 0.78362,1.61077 0.14139,-0.16893 0.14293,-0.41676 0.21767,-0.62399 0.3215,-0.8914 -0.21643,-0.92864 -1.00129,-0.98678 z"
                id="path40746"
                stroke-width="1.05833"
                stroke-linecap="round"
                stroke-linejoin="round"
                stroke="black" />
            <path
                d="m 311.04664,221.13655 c 0.1983,0.64093 0.17518,1.39941 0.59494,1.92277 0.68292,0.85143 0.52895,-1.02325 0.44987,-1.29152 -0.15243,-0.51693 -0.60632,-0.51371 -1.04481,-0.63125 z"
                id="path40748"
                stroke-width="1.05833"
                stroke-linecap="round"
                stroke-linejoin="round"
                stroke="black" />
            <path
                d="m 314.46405,222.653 c -2.00906,0.14797 -1.27098,3.30799 0.27569,2.77169 0.74203,-0.25729 1.42116,-1.5199 0.83439,-2.24202 -0.28657,-0.35271 -0.68953,-0.41284 -1.11008,-0.52967 z"
                id="path40750"
                stroke-width="1.05833"
                stroke-linecap="round"
                stroke-linejoin="round"
                stroke="black" />
            <path
                d="m 314.68897,217.32729 c -0.14997,0.43534 -0.6178,0.8773 -0.44987,1.30603 0.44815,1.14406 3.13605,-0.62079 1.32778,-1.64705 -0.34522,-0.19593 -0.34602,0.057 -0.87791,0.34102 z"
                id="path40752"
                stroke-width="1.05833"
                stroke-linecap="round"
                stroke-linejoin="round"
                stroke="black" />
            <path
                d="m 310.92329,214.20732 c 0.0822,0.65544 -0.14031,1.43097 0.2467,1.96631 0.19677,0.27221 0.70466,-0.078 0.96498,-0.29023 0.77547,-0.63232 0.53568,-1.56199 -0.20317,-1.93728 -0.0669,-0.034 -0.13779,-0.0986 -0.2104,-0.0798 -0.28006,0.0725 -0.53207,0.22735 -0.79811,0.34102 z"
                id="path40754"
                stroke-width="1.05833"
                stroke-linecap="round"
                stroke-linejoin="round"
                stroke="black" />
            <path
                d="m 313.24509,207.70618 c -1.55226,1.4087 0.44664,2.93428 1.19718,1.50919 0.19706,-0.37415 -0.0611,-1.55772 -0.55142,-1.56724 -0.21608,-0.004 -0.4305,0.0387 -0.64576,0.058 z"
                id="path40756"
                stroke-width="1.05833"
                stroke-linecap="round"
                stroke-linejoin="round"
                stroke="black" />
            <path
                d="m 272.54474,239.71883 c -0.24165,0.22839 -0.24845,0.17201 -0.34103,0.4172 -0.22431,0.59414 0.27771,1.0929 0.79087,0.59497 0.1688,-0.16379 0.26249,-0.44017 0.312,-0.6639 0.13671,-0.6177 -0.36727,-0.46241 -0.76184,-0.34827 z"
                id="path40758"
                stroke-width="1.05833"
                stroke-linecap="round"
                stroke-linejoin="round"
                stroke="black" />
            <path
                d="m 398.40625,113.01172 c -13.51946,0.47023 -22.85419,3.6989 -29.20703,8.36719 -6.35284,4.66828 -9.66814,10.76025 -11.2207,16.72851 -2.87001,11.03267 0.0441,21.33705 0.51757,22.89649 -0.33297,0.37081 -1.71637,1.91036 -3.35547,3.76171 -0.91311,1.03136 -1.80423,2.04463 -2.42968,2.7754 -0.31273,0.36538 -0.55441,0.65519 -0.71875,0.86523 -0.0822,0.10502 -0.12123,0.12739 -0.23633,0.3457 -0.0288,0.0546 -0.0803,0.0941 -0.11914,0.35352 -0.01,0.0649 -0.006,0.26288 -0.006,0.26367 8e-5,7.9e-4 0.14031,0.43306 0.14062,0.43359 3.2e-4,5.4e-4 0.43696,0.41184 0.4375,0.41211 5.5e-4,2.8e-4 0.45429,0.11327 0.45508,0.11328 7.9e-4,2e-5 0.20377,-0.0138 0.26953,-0.0293 0.0658,-0.0155 0.11193,-0.0316 0.15039,-0.0469 0.0769,-0.0306 0.12136,-0.0556 0.15625,-0.0762 0.0698,-0.0411 0.10325,-0.0676 0.13477,-0.0918 -0.14734,0.11318 0.10968,-0.0573 0.40234,-0.18554 0.29267,-0.12826 0.69462,-0.29214 1.16016,-0.47461 0.93108,-0.36496 2.12057,-0.80562 3.28906,-1.23047 2.337,-0.84971 4.58985,-1.63281 4.58985,-1.63281 a 1.0583349,1.0583349 0 0 0 0.65039,-1.34766 1.0583349,1.0583349 0 0 0 -1.34571,-0.65234 c 0,0 -2.26231,0.78637 -4.61718,1.64257 -0.42426,0.15426 -0.78522,0.29648 -1.20313,0.45118 0.15784,-0.17883 0.26321,-0.30491 0.42383,-0.48633 1.81901,-2.05457 3.72852,-4.17969 3.72851,-4.17969 a 1.0584408,1.0584408 0 0 0 0.22071,-1.0332 c 0,0 -3.56113,-11.11018 -0.64649,-22.31446 1.45733,-5.60213 4.49292,-11.19839 10.42383,-15.55664 5.93092,-4.35824 14.81186,-7.4973 28.0293,-7.95703 13.15519,-0.45756 21.58967,5.80461 26.41797,14.40039 4.8283,8.59579 5.89263,19.58431 3.86718,28.17188 -3.94306,16.71795 -19.92085,22.66991 -19.96289,22.68555 -8.49018,2.67823 -16.38248,3.64935 -23.75781,2.06835 -7.38571,-1.58322 -14.30984,-5.71065 -20.91992,-13.45507 a 1.0583349,1.0583349 0 0 0 -1.49219,-0.11719 1.0583349,1.0583349 0 0 0 -0.11719,1.49219 c 6.84509,8.01975 14.22406,12.46314 22.08594,14.14843 7.86188,1.6853 16.15033,0.62708 24.87305,-2.1289 a 1.0584408,1.0584408 0 0 0 0.0488,-0.0176 c 0,0 17.08656,-6.31356 21.30273,-24.18945 2.15443,-9.13443 1.05486,-20.55015 -4.08203,-29.69532 -5.13689,-9.14517 -14.46897,-15.9609 -28.33789,-15.47851 z m -46.07813,55.26562 c -0.0766,0.0455 -0.14896,0.0554 -0.24218,0.12696 0.009,-0.007 0.0244,-0.02 0.0801,-0.0527 0.0279,-0.0164 0.0649,-0.0379 0.13671,-0.0664 0.006,-0.002 0.0185,-0.005 0.0254,-0.008 z"
                id="path40760"
                stroke-width="0.5"
                stroke-linecap="round"
                stroke-linejoin="round"
                stroke="black" />
            <path
                d="m 394.80469,131.44336 c -0.44711,-0.10653 -1.0061,-0.0458 -1.48438,0.1875 -0.60519,0.29523 -0.93999,0.78552 -1.18359,1.23047 -0.2436,0.44495 -0.41095,0.89071 -0.57422,1.27734 -0.16327,0.38663 -0.32472,0.70979 -0.45117,0.875 -0.12645,0.16521 -0.13636,0.15377 -0.1875,0.16016 -0.39442,0.0493 -1.01546,-0.21722 -1.85938,-0.63867 -0.84391,-0.42145 -1.95499,-0.9762 -3.27929,-0.67774 -1.3055,0.29422 -2.13894,1.19863 -2.85938,1.83789 -0.72044,0.63927 -1.21673,0.94396 -1.5625,0.91211 -0.59296,-0.0546 -1.70677,-0.48262 -2.33203,-0.85937 -0.24832,-0.14963 -0.61227,-0.51266 -1.24219,-0.80274 -0.71028,-0.32717 -1.34806,-0.25746 -1.75781,-0.25195 h -0.002 c -0.97837,0.0123 -1.81626,0.25745 -2.41993,0.76758 -0.6041,0.5105 -0.92101,1.11473 -1.33398,1.79492 -0.38262,0.63019 -0.56716,1.26378 -0.78711,1.75 -0.20387,0.45067 -0.38898,0.66124 -0.55273,0.76172 -0.0936,-0.026 -0.24867,-0.0841 -0.43555,-0.18164 -0.40422,-0.21102 -0.80974,-0.53377 -1.4082,-0.75391 -1.52204,-0.55984 -3.06707,-0.0427 -3.94922,0.97461 -0.88216,1.0173 -1.25281,2.42801 -1.06641,3.8418 a 1.0583349,1.0583349 0 0 0 1.1875,0.91015 1.0583349,1.0583349 0 0 0 0.91211,-1.1875 c -0.11116,-0.84311 0.15509,-1.7034 0.56641,-2.17773 0.41132,-0.47433 0.81426,-0.67105 1.61914,-0.375 0.0498,0.0183 0.59515,0.34957 1.16015,0.64453 0.28251,0.14748 0.59107,0.29307 0.96289,0.38086 0.37183,0.0878 0.85441,0.12067 1.33204,-0.11133 0.87848,-0.4267 1.3093,-1.20745 1.60156,-1.85351 0.29226,-0.64607 0.49676,-1.2434 0.66797,-1.52539 0.42425,-0.69878 0.6945,-1.11162 0.89062,-1.27735 0.19612,-0.16573 0.3719,-0.25699 1.08008,-0.26562 0.50619,-0.007 0.70457,-0.009 0.84766,0.0566 0.19552,0.09 0.50893,0.37627 1.03515,0.69336 0.88404,0.53267 2.06141,1.04661 3.23047,1.15429 1.40008,0.12896 2.38734,-0.75175 3.16016,-1.4375 0.77282,-0.68574 1.4426,-1.24789 1.91992,-1.35547 0.49626,-0.11184 1.0674,0.10548 1.86914,0.50586 0.80174,0.40039 1.78961,1.00555 3.06836,0.84571 0.70481,-0.0881 1.26345,-0.52836 1.60352,-0.97266 0.34006,-0.44429 0.54215,-0.91044 0.72265,-1.33789 0.18051,-0.42744 0.33634,-0.82072 0.48047,-1.08398 0.14413,-0.26326 0.26072,-0.34903 0.25391,-0.34571 0.11652,-0.0568 0.06,-0.0323 0.0645,-0.0312 0.004,0.001 0.0972,0.0375 0.26367,0.1543 0.33301,0.23368 1.03196,0.85365 2.0586,0.73633 0.25114,-0.0287 0.25817,-0.054 0.34179,-0.0801 0.0836,-0.0261 0.17253,-0.0552 0.26758,-0.0859 0.19011,-0.0615 0.40736,-0.12891 0.58203,-0.16992 0.12011,-0.0282 0.11587,-0.0279 0.125,-0.0332 a 1.0583349,1.0583349 0 0 0 0.13672,0.23633 1.0583349,1.0583349 0 0 0 1.29492,-0.74805 c 0.0731,-0.27401 0.0742,-0.73962 -0.18945,-1.0957 -0.26362,-0.35609 -0.61616,-0.45907 -0.84375,-0.4961 -0.45518,-0.0741 -0.7226,0.01 -1.00586,0.0762 -0.28326,0.0665 -0.5476,0.15069 -0.75195,0.2168 -0.0882,0.0286 -0.15769,0.0489 -0.21289,0.0664 -0.0707,0.005 -0.14035,-0.0414 -0.58789,-0.35547 -0.22978,-0.16123 -0.53923,-0.37394 -0.98633,-0.48047 z m 2.5332,1.52148 a 1.0583349,1.0583349 0 0 0 0.56445,0.97461 c -0.10855,-0.0289 -0.25263,-0.0509 -0.41015,-0.26367 -0.19813,-0.26762 -0.1821,-0.6067 -0.1543,-0.71094 z"
                id="path40762"
                stroke-width="0.5"
                stroke-linecap="round"
                stroke-linejoin="round"
                stroke="black" />
            <path
                d="m 416.16797,136.61523 c -0.43823,-0.0182 -0.92227,0.1258 -1.33594,0.39258 -0.92273,0.59509 -1.60893,1.4897 -2.33594,2.24805 -0.72701,0.75835 -1.45134,1.30711 -1.91406,1.39844 -0.61871,0.12211 -1.19663,-0.29169 -2.14258,-0.93946 -0.47297,-0.32388 -1.00876,-0.68508 -1.70117,-0.8789 -0.69241,-0.19382 -1.55331,-0.15173 -2.34375,0.2539 -1.08009,0.55427 -1.83216,1.39103 -2.48437,1.93555 -2.3208,1.93757 -4.39891,3.83377 -7.00977,4.7832 -1.67421,0.60883 -3.12308,-0.18215 -5.30273,-0.74804 -1.40216,-0.36408 -2.78561,-0.14034 -3.91211,0.0176 -2.92823,0.41048 -5.14558,2.68451 -6.79493,4.41016 -0.83142,0.86988 -1.50105,1.78163 -2.19726,2.28711 -0.56139,0.40759 -1.45767,0.56792 -2.51758,0.57031 -1.05991,0.002 -2.21219,-0.14649 -3.2832,-0.10547 -1.54436,0.0592 -2.04162,-0.18263 -2.93555,0.23438 -0.44696,0.2085 -0.72295,0.58947 -0.91016,0.90039 -0.1872,0.31092 -0.36324,0.65258 -0.67773,1.16406 a 1.0583349,1.0583349 0 0 0 0.34766,1.45703 1.0583349,1.0583349 0 0 0 1.45507,-0.34765 c 0.34894,-0.5675 0.56362,-0.97264 0.68946,-1.18164 0.12583,-0.209 0.0858,-0.11881 -0.01,-0.0742 -0.19117,0.0892 0.47894,0.0259 2.12305,-0.0371 0.78499,-0.0301 1.96743,0.11022 3.20703,0.10742 1.2396,-0.003 2.6065,-0.14014 3.75586,-0.97461 1.0906,-0.79182 1.80509,-1.82845 2.48242,-2.53711 1.60265,-1.67679 3.61851,-3.50538 5.5586,-3.77734 1.12219,-0.15731 2.25934,-0.27959 3.08789,-0.0645 1.86312,0.48372 3.99216,1.62273 6.55859,0.68946 3.11096,-1.1313 5.37688,-3.25882 7.64258,-5.15039 0.79976,-0.66772 1.47919,-1.36142 2.09179,-1.67578 0.36181,-0.18568 0.53267,-0.1749 0.8086,-0.0977 0.27592,0.0772 0.64434,0.29022 1.07617,0.58594 0.86367,0.59142 2.08902,1.59892 3.74805,1.27148 1.31779,-0.26009 2.23184,-1.17581 3.0332,-2.01172 0.80136,-0.83591 1.53494,-1.66585 1.95313,-1.93554 0.12814,-0.0827 0.10914,-0.0544 0.10156,-0.0547 -0.008,-3.2e-4 0.0453,0.005 0.19336,0.0762 0.29603,0.14295 0.95897,0.5905 1.88867,0.50195 a 1.0583349,1.0583349 0 0 0 0.95312,-1.15234 1.0583349,1.0583349 0 0 0 -1.15234,-0.95313 c -0.15348,0.0146 -0.27846,-0.0656 -0.76953,-0.30273 -0.24554,-0.11856 -0.58716,-0.2669 -1.02539,-0.28516 z"
                id="path40764"
                stroke-width="0.5"
                stroke-linecap="round"
                stroke-linejoin="round"
                stroke="black" />
            <path
                d="m 394.49219,158.42969 a 1.0583349,1.0583349 0 0 0 -0.81055,0.0137 c -0.94999,0.41164 -1.45917,0.6595 -2.25,0.63086 -0.55062,-0.0199 -1.11821,-0.1777 -1.82031,-0.3125 -0.7021,-0.1348 -1.56606,-0.22359 -2.50586,0.0606 -1.58815,0.48015 -2.52977,1.68699 -3.34961,2.64843 -0.81985,0.96145 -1.49449,1.67307 -2.36524,1.88086 -0.52845,0.12611 -1.36654,-0.25015 -2.51562,-0.54883 -2.06231,-0.53603 -2.54241,-0.58709 -4.90039,-0.084 -2.3488,0.50115 -2.51471,0.7996 -4.28711,2.04883 a 1.0583349,1.0583349 0 0 0 -0.25586,1.47461 1.0583349,1.0583349 0 0 0 1.47461,0.25586 c 1.88333,-1.32742 1.24734,-1.22585 3.51172,-1.70899 2.34011,-0.49929 1.83886,-0.47942 3.92383,0.0625 0.77543,0.20156 2.00658,0.92431 3.53906,0.5586 1.64759,-0.39318 2.65212,-1.58812 3.48633,-2.56641 0.83421,-0.97829 1.52039,-1.7448 2.35156,-1.99609 0.5016,-0.15166 0.92078,-0.1179 1.49414,-0.008 0.57336,0.11008 1.27379,0.31814 2.14258,0.34961 1.30244,0.0472 2.2601,-0.41129 3.16797,-0.80468 a 1.0583349,1.0583349 0 0 0 0.55078,-1.39063 1.0583349,1.0583349 0 0 0 -0.58203,-0.56445 z"
                id="path40766"
                stroke-width="0.5"
                stroke-linecap="round"
                stroke-linejoin="round"
                stroke="black" />
            <path
                d="m 420.70898,163.63672 c -1.26922,0.76156 -2.02156,1.41558 -3.07421,1.48437 -0.25133,0.0164 -0.7368,-0.10663 -1.36329,-0.23047 -0.62649,-0.12383 -1.50855,-0.21832 -2.33398,0.2754 -0.64023,0.38294 -1.12471,0.93348 -1.62891,1.5 -0.5042,0.56651 -0.9869,1.15198 -1.29882,1.47656 -0.42198,0.43908 -0.58593,0.68086 -0.61133,0.69531 0.10212,-0.0581 -0.0969,0.005 -0.37696,-0.0293 -0.76518,-0.0923 -1.24708,-0.60784 -2.33007,-1.24609 -1.51,-0.88989 -3.43262,-1.41606 -5.29297,-1.03711 -1.42239,0.28974 -2.28923,1.15617 -3.05078,1.59961 -0.27482,0.16002 -0.86744,0.28529 -1.44336,0.92187 -1.42744,1.57772 -2.12296,3.11617 -3.55469,3.58399 -0.39498,0.12906 -0.98903,0.0859 -1.76367,0.0703 -1.19614,-0.0242 -2.42597,-0.43543 -3.7793,-0.86719 -1.35333,-0.43176 -2.84213,-0.88323 -4.52344,-0.75195 -1.41594,0.11057 -2.16196,0.21096 -2.88086,0.5332 -0.7189,0.32225 -1.20028,0.72588 -2.39453,1.44141 a 1.0583349,1.0583349 0 0 0 -0.36328,1.45117 1.0583349,1.0583349 0 0 0 1.45117,0.36524 c 1.26606,-0.75855 1.79704,-1.15815 2.17188,-1.32618 0.37484,-0.16802 0.80604,-0.24625 2.17969,-0.35351 1.19995,-0.0937 2.39767,0.23736 3.71679,0.6582 1.31913,0.42085 2.74893,0.93387 4.37891,0.9668 0.63251,0.0128 1.49335,0.14103 2.46289,-0.17578 2.42482,-0.79232 3.35889,-2.94908 4.46875,-4.17578 0.13981,-0.15454 0.32881,-0.15925 0.9375,-0.51368 1.05248,-0.61283 1.70975,-1.21123 2.4082,-1.35351 1.16056,-0.23641 2.67644,0.1268 3.79688,0.78711 0.78982,0.46547 1.63842,1.34096 3.15039,1.52344 0.37108,0.0448 0.97882,0.16386 1.67578,-0.23243 0.70097,-0.39859 0.9481,-0.92079 1.0918,-1.07031 0.4207,-0.43776 0.88814,-1.01226 1.35351,-1.53515 0.46538,-0.5229 0.9701,-0.99018 1.13672,-1.08985 0.16705,-0.0999 0.36449,-0.10882 0.83594,-0.0156 0.47145,0.0932 1.1018,0.31846 1.91015,0.26562 1.81167,-0.1184 2.96157,-1.1398 4.02735,-1.7793 A 1.0583349,1.0583349 0 0 0 422.16016,164 a 1.0583349,1.0583349 0 0 0 -1.45118,-0.36328 z"
                id="path40768"
                stroke-width="0.5"
                stroke-linecap="round"
                stroke-linejoin="round"
                stroke="black" />
        </g>
    </g>
</svg>