<?xml version="1.0" standalone="no"?><!DOCTYPE svg PUBLIC "-//W3C//DTD SVG 1.1//EN" "http://www.w3.org/Graphics/SVG/1.1/DTD/svg11.dtd"><svg t="1745475320641" class="icon" viewBox="0 0 1024 1024" version="1.1" xmlns="http://www.w3.org/2000/svg" p-id="9552" xmlns:xlink="http://www.w3.org/1999/xlink" width="200" height="200"><path d="M1019.814714 292.411989c1.116076 0.418529 1.813624 0.976567 2.9297 1.255586l0.558038-4.185286-3.487738 2.9297z m-1016.326976-0.697548L0 289.20327l0.837057 3.348229c0.697548-0.279019 1.813624-0.418529 2.650681-0.837058z m973.916077 50.920981c-8.649591 0-16.880654 3.348229-23.158583 9.20763l-223.354769 200.893733-181.641417-363.701363c-9.626158-12.555858-24.972207-19.531335-40.876294-18.275749-15.764578 1.255586-29.99455 10.463215-37.528065 24.414169L292.411989 552.876294 62.360763 345.146594c-5.022343-2.790191-10.602725-4.185286-16.322616-4.185286-18.415259 0-33.20327 14.92752-33.20327 33.20327 0 0.976567 23.437602 178.990736 70.452316 534.182016 0-2.092643-0.13951-4.045777-0.418528-6.277929 4.324796 36.411989 28.599455 67.522616 62.918801 80.497003-2.9297-1.116076-5.859401-1.953134-8.92861-2.511172 71.428883 26.785831 211.775477 44.224523 373.32752 42.689918 162.389101-1.395095 303.851771-21.484469 376.257221-49.804904-2.650681 0.418529-5.440872 1.255586-8.510082 2.371662 34.319346-13.113896 58.594005-44.085014 62.918801-80.636513-0.418529 4.045777-0.558038 7.952044-0.279019 11.997821l70.591826-529.159673c-0.279019-19.810354-15.20654-34.877384-33.761308-34.877385z m0 0" p-id="9553" ></path></svg>
