<?xml version="1.0" standalone="no"?><!DOCTYPE svg PUBLIC "-//W3C//DTD SVG 1.1//EN" "http://www.w3.org/Graphics/SVG/1.1/DTD/svg11.dtd"><svg t="1745473040953" class="icon" viewBox="0 0 1024 1024" version="1.1" xmlns="http://www.w3.org/2000/svg" p-id="14330" xmlns:xlink="http://www.w3.org/1999/xlink" width="200" height="200"><path d="M512 0C229.333333 0 0 229.333333 0 512s229.333333 512 512 512 512-229.333333 512-512S794.666667 0 512 0z m32.768 175.146667c7.808 0 15.488 2.261333 22.4 6.698666 5.333333 3.541333 12.245333 7.893333 32.213333 49.237334 13.226667-3.754667 19.968-1.792 23.509334-0.810667 8.704 2.389333 15.616 8.106667 19.754666 16 20.352 39.125333 23.125333 108.928 14.250667 153.813333-10.282667 52.565333-32.213333 86.570667-48.256 109.909334 13.824 14.037333 33.194667 38.357333 47.658667 77.866666 11.861333 33.024 13.226667 63.061333 11.648 85.973334a235.093333 235.093333 0 0 0 25.685333-14.037334c25.301333-15.616 63.445333-39.125333 108.928-39.722666 30.464-0.384 54.144 18.986667 57.728 47.061333a52.48 52.48 0 0 1-40.32 58.112c-27.690667 6.741333-40.533333 11.861333-77.696 35.968-52.565333 34.005333-108.330667 52.992-128.512 59.306667a71.936 71.936 0 0 1-30.037333 14.634666c-31.445333 7.722667-139.349333 13.44-147.882667 13.44h-1.962667c-33.408 0-51.797333-10.282667-61.866666-20.949333-28.074667 14.037333-64.426667 8.106667-90.538667-5.717333a45.994667 45.994667 0 0 1-24.746667-49.194667 53.034667 53.034667 0 0 1-6.528-8.32c-6.912-10.666667-22.528-39.936-19.370666-83.029333 2.389333-30.848 23.722667-58.325333 37.546666-72.96a235.605333 235.605333 0 0 1 17.408-96.256c13.056-31.018667 37.76-57.514667 56.32-74.112-13.653333-22.912-27.477333-58.325333-14.037333-94.293334 9.685333-25.685333 17.578667-39.936 34.986667-46.08h-0.213334c8.490667-3.157333 16.597333-6.528 20.736-11.050666a145.834667 145.834667 0 0 1 98.048-47.061334c1.578667-3.968 3.370667-7.893333 5.333334-12.074666 13.226667-28.074667 27.264-43.904 43.690666-49.834667a40.106667 40.106667 0 0 1 13.994667-2.56z m0.256 29.866666c-21.632 0.682667-42.709333 64.810667-42.709333 64.810667s-54.186667-8.704-96.682667 37.162667c-8.490667 9.301333-19.968 14.250667-31.829333 18.773333-3.370667 1.194667-7.509333 0.981333-17.792 28.672-15.829333 42.282667 26.666667 89.344 26.666666 89.344s-50.602667 35.797333-69.376 80.256c-20.736 48.810667-14.421333 96.469333-14.421333 96.469333s-35.968 31.232-38.357333 63.445334c-2.176 28.288 5.930667 51.2 14.634666 64.64 9.685333 14.634667 21.76 7.509333 21.76 7.509333s-23.936 27.861333-1.578666 39.722667c20.352 10.666667 54.741333 16.810667 72.96-1.578667 13.226667-13.226667 15.829333-42.709333 20.736-54.741333 1.194667-2.773333 5.12 4.736 8.917333 8.490666 4.138667 3.968 11.264 8.32 11.264 8.32s-32.213333 13.824-18.986667 45.482667c4.352 10.496 19.968 17.194667 45.482667 16.981333 9.472-0.213333 113.664-5.930667 141.354667-12.629333 16-3.754667 21.546667-12.074667 21.546666-12.074667s66.816-18.389333 127.914667-57.898666c39.125333-25.514667 55.168-32.426667 86.784-39.936 26.112-6.314667 24.32-46.848-10.282667-46.250667-35.797333 0.384-67.2 18.773333-93.696 35.2-49.621333 30.634667-74.325333 28.672-74.325333 28.672l-0.768-1.365333c-3.370667-5.546667 15.829333-55.168-5.717333-114.261334-23.338667-64.64-60.288-80.256-57.344-85.205333 12.672-21.333333 44.288-55.338667 56.917333-118.613333 7.509333-38.357333 5.546667-101.418667-11.477333-134.442667-3.157333-6.144-31.232 10.282667-31.232 10.282667s-26.282667-58.496-33.621334-63.274667a11.562667 11.562667 0 0 0-6.698666-1.962667z" p-id="14331" fill="#1296db"></path></svg>