<?xml version="1.0" standalone="no"?><!DOCTYPE svg PUBLIC "-//W3C//DTD SVG 1.1//EN" "http://www.w3.org/Graphics/SVG/1.1/DTD/svg11.dtd"><svg t="1745472034835" class="icon" viewBox="0 0 1024 1024" version="1.1" xmlns="http://www.w3.org/2000/svg" p-id="4516" xmlns:xlink="http://www.w3.org/1999/xlink" width="200" height="200"><path d="M686.06 764.4c-5.559-0.316-14.886-0.668-24.176-1.464-3.74-0.32-5.786 0.315-7.541 4.124-12.109 26.282-26.983 50.857-46.588 72.317-16.257 17.8-34.794 32.472-57.76 40.774-33.567 12.133-65.214 7.178-95-11.451-27.49-17.2-47.19-41.778-63.9-69.039a319.707 319.707 0 0 1-17.761-33.47c-1.209-2.628-2.5-3.677-5.521-3.38a294.859 294.859 0 0 1-61.861-0.145c-29.981-3.362-58.5-11.07-83.286-29.221-16.226-11.883-28.368-27.045-35.607-45.914-1.16-3.023-2.631-4.559-6.1-5.359-29.019-6.7-48.745-31.23-48.842-60.237-0.1-29.055 19.551-53.676 48.418-60.633a56.578 56.578 0 0 1 18.846-1.329c2.309 0.226 3.579-0.279 4.67-2.454a290.89 290.89 0 0 1 23.066-37.915c1.874-2.638 1.716-4.3-0.086-6.868-16.682-23.822-30.682-49.065-39.474-76.926-7.988-25.313-11.437-51.058-4.941-77.237 7.8-31.435 27.074-54.011 55.311-69.185 21.73-11.678 45.244-17.236 69.619-19.724a301.494 301.494 0 0 1 59.871-0.03c3.532 0.343 5.441-0.571 6.736-3.977 1.53-4.022 5.069-7.751 5.209-11.7 0.135-3.818-4.968-6.072-7.348-9.4-15.271-21.367-17.69-44.124-5.276-67.168 12.325-22.877 32.6-33.532 58.587-32.437 12.614 0.532 23.987 5.168 33.939 13.01 1.951 1.538 3.324 2.29 6.062 0.946 41.187-20.213 80.008-14.776 116.449 11.683 26.841 19.488 45.827 45.705 61.746 74.346 3.712 6.679 7.225 13.492 10.4 20.441 1.535 3.364 3.245 4.6 7.065 4.232 25.145-2.417 50.27-2.136 75.2 2.189 31.056 5.388 59.794 15.965 82.485 39.052 18.017 18.331 27.366 40.638 29.284 66.1 0.255 3.38 1.525 4.805 4.358 6.188a61.87 61.87 0 0 1 32.533 72.133c-7.65 28.257-35.08 48.092-64.476 44.91-8.845-0.958-12.95 1.57-16.948 8.465-4.545 7.838-4.958 7.589 0.128 15.114 18.574 27.481 33.728 56.566 41.03 89.2 5.442 24.325 5.854 48.591-2.942 72.323-11.135 30.039-32.867 49.851-61.627 62.577-28.722 12.711-59.157 16.279-93.951 16.539zM344.066 516.252a725.851 725.851 0 0 0 5.834 90.7 8.662 8.662 0 0 0 3.859 6.493c6.217 4.475 12.509 8.869 18.459 13.68 3.48 2.814 5.151 2.362 7.99-1.165 16.056-19.946 37.084-28.066 62.073-22.641 38.771 8.417 59.073 48.944 43.46 85.422-1.169 2.732-1.2 3.906 1.779 5.062a115.21 115.21 0 0 1 15.929 7.087c7.2 4.146 13.529 3.291 21 0.032A723.333 723.333 0 0 0 674.4 613.137a9.014 9.014 0 0 0 3.989-6.942c1.026-11.273 2.667-22.495 3.537-33.778a705.317 705.317 0 0 0-3.7-146.628 8.443 8.443 0 0 0-3.5-6.185 708.3 708.3 0 0 0-157.29-90.887 8.509 8.509 0 0 0-7.131 0.018 709.093 709.093 0 0 0-156.892 90.576 7.9 7.9 0 0 0-3.351 5.743 730.925 730.925 0 0 0-5.996 91.198zM635.34 760.531c-0.516-0.355-0.633-0.5-0.769-0.52-40.425-6.239-79.531-17.315-117.594-32.171a8.323 8.323 0 0 0-6.6 0.194 565.911 565.911 0 0 1-86.264 26.19c-10.3 2.206-20.678 4.034-31.519 6.132 2.533 4.981 4.774 9.595 7.2 14.112 14.275 26.629 31.32 51.069 55.314 70.041 35.84 28.339 76.069 29.621 113.412 3.305 23.223-16.365 39.8-38.569 54.016-62.732a226.525 226.525 0 0 0 12.804-24.551zM337.26 288.885c-26.3-0.571-52.207 2.136-76.858 12.027-21.937 8.8-40.188 22.133-51.316 43.671-10.811 20.924-11.747 43.072-7.434 65.684 6.065 31.8 20.8 59.793 38.472 86.472 1.77 2.672 2.616 1.89 4.214-0.093 25.1-31.147 53.784-58.672 84.9-83.721a7.85 7.85 0 0 0 3.148-5.3c6.316-39.343 15.685-77.9 30.193-115.093 1.082-2.774 0.382-3.658-2.34-3.654q-11.489 0.022-22.979 0.007z m448.561 244.03c-26.04 32.668-55.275 60.784-86.972 86.4a7.872 7.872 0 0 0-2.892 5.46c-6.193 39.174-15.4 77.581-29.8 114.616-1.3 3.338-0.746 4.176 2.8 4.34 14.321 0.659 28.637 1 42.938-0.143 22.361-1.793 44.215-5.931 64.463-16.037 33.882-16.911 52.3-43.927 51.868-82.362-0.478-42.275-19.752-77.583-42.405-112.274zM635.148 272.423a261.048 261.048 0 0 0-12.725-24.24c-14.857-25.183-32.255-48.207-56.958-64.663-26.912-17.927-55.454-22.189-85.835-9.411-3.264 1.373-4.305 2.484-2.61 6.31 10.637 24 7.957 46.825-9.165 66.634-17.263 19.973-39.625 26.077-65.05 18.625-5.141-1.507-7.238-0.374-8.583 4.121-0.258 0.863-1.291 1.606-0.491 2.792 39.88 6.065 78.484 17.137 116.134 31.651a10.078 10.078 0 0 0 7.989 0.016c37.805-14.569 76.566-25.685 117.294-31.835zM337.063 743.652c7.325 0 14.651-0.034 21.976 0.016 3.03 0.021 4.565-0.3 3.069-4.14-14.378-36.873-23.547-75.128-29.767-114.138a9 9 0 0 0-3.5-6.172c-30.967-24.947-59.517-52.363-84.476-83.391-2.092-2.6-2.931-2.095-4.493 0.312q-8.426 12.98-16.083 26.419c-1.79 3.15-1.04 4.175 1.733 5.911 22.085 13.817 32.865 34.021 30.009 59.8-3.024 27.291-18.956 45.1-45.249 53.164-3.788 1.162-3.391 2.289-2.021 5.021 9.5 18.952 24.553 32.072 43.331 41.185 26.996 13.103 55.961 16.384 85.471 16.013z m448.343-244.688c6.71-7.064 6.71-7.064 0.1-12.548A62.066 62.066 0 0 1 823.625 376.7c1.637-0.057 4.773 1.569 4.151-2.664-1.81-12.309-5.335-24.012-11.959-34.634-13.474-21.608-33.749-33.969-57.3-41.675-29.462-9.64-59.817-10.605-90.425-8.922-3.212 0.177-3.426 1.224-2.344 4.009 14.4 37.051 23.755 75.44 30.035 114.618a9.052 9.052 0 0 0 3.567 6.147q22.775 18.366 43.753 38.772a532.485 532.485 0 0 1 42.303 46.613zM541.477 715.17a10.022 10.022 0 0 0 1.549 0.958 525.9 525.9 0 0 0 97.435 24.56c2.848 0.431 4.068-0.463 5.1-3.154 3.966-10.393 7.791-20.83 11.134-31.439a542.616 542.616 0 0 0 16.494-67.062 742.478 742.478 0 0 1-131.712 76.137zM328.122 592.836a734.253 734.253 0 0 1-0.026-152.377 14.173 14.173 0 0 0-1.932 1.042 529.653 529.653 0 0 0-69.83 71.994c-1.958 2.463-1.291 3.783 0.335 5.836a504.2 504.2 0 0 0 49.414 53.6c6.86 6.469 13.989 12.651 22.039 19.905z m344.227-199.989c0.2-0.717 0.389-1.024 0.339-1.286a531.648 531.648 0 0 0-27.511-96.725c-1.232-3.126-2.916-3.353-5.662-2.914-16.431 2.623-32.758 5.755-48.87 9.922a503.038 503.038 0 0 0-49.6 15.266 740.959 740.959 0 0 1 131.304 75.737z m-317.059 0.1a741.666 741.666 0 0 1 130.83-75.571c-0.441-0.378-0.646-0.674-0.922-0.774a514.657 514.657 0 0 0-97.979-24.828c-2.377-0.363-3.23 0.7-3.984 2.61a526.3 526.3 0 0 0-27.945 98.561z m344.917 198.822c1.26-0.88 1.826-1.206 2.313-1.625a529.225 529.225 0 0 0 69.038-71.3c2.107-2.642 0.882-3.963-0.617-5.862a476.357 476.357 0 0 0-37.566-42.075c-10.451-10.423-21.167-20.576-33.315-30.575a729.76 729.76 0 0 1 0.147 151.437z m166.882-153.283a41.985 41.985 0 1 0-41.621 42.224 42.055 42.055 0 0 0 41.621-42.224zM194.167 663.709a41.985 41.985 0 1 0-42.048-41.8 42.051 42.051 0 0 0 42.048 41.8z m234.878 42.008a41.993 41.993 0 1 0-41.934-41.927 42.053 42.053 0 0 0 41.934 41.927z m-49.934-499a41.993 41.993 0 1 0 41.874-41.988 42.054 42.054 0 0 0-41.874 41.99zM486.664 715.41c-4.281-2-7.829-3.452-11.164-5.287-2.558-1.408-4.188-1.036-6.48 0.883a61.63 61.63 0 0 1-90.52-11.627c-9.428-13.291-12.981-28.186-10.731-44.461 0.3-2.167 2.35-4.838-0.441-6.877-3.089-2.257-6.257-4.4-9.379-6.616-0.7-0.495-1.482-1.065-2.26-0.575-0.847 0.534-0.3 1.356-0.138 2.174 6.442 31.969 14.857 63.365 26.766 93.778 1.219 3.113 2.558 4.385 6.143 3.77 14.912-2.557 29.793-5.235 44.478-8.9a527.884 527.884 0 0 0 53.726-16.262z" fill="#343741" p-id="4517"></path><path d="M344.073 516.25a729.585 729.585 0 0 1 5.985-91.2 7.9 7.9 0 0 1 3.351-5.743A709.093 709.093 0 0 1 510.3 328.735a8.509 8.509 0 0 1 7.131-0.018 708.3 708.3 0 0 1 157.29 90.883 8.443 8.443 0 0 1 3.5 6.185 705.317 705.317 0 0 1 3.7 146.628c-0.87 11.283-2.511 22.5-3.537 33.778a9.014 9.014 0 0 1-3.989 6.942 723.333 723.333 0 0 1-149.953 87.788c-7.468 3.26-13.8 4.114-21-0.032a115.21 115.21 0 0 0-15.929-7.087c-2.976-1.156-2.949-2.33-1.779-5.062 15.613-36.479-4.689-77.005-43.46-85.422-24.988-5.425-46.016 2.7-62.073 22.641-2.839 3.527-4.509 3.979-7.99 1.165-5.951-4.811-12.243-9.205-18.459-13.68a8.662 8.662 0 0 1-3.859-6.493 724.529 724.529 0 0 1-5.82-90.701zM513.45 606.7c49.423 0.486 90.138-39.642 90.633-89.325 0.492-49.414-39.646-90.139-89.326-90.633-49.417-0.491-90.145 39.65-90.633 89.326-0.484 49.432 39.648 90.147 89.326 90.632zM635.34 760.531a226.525 226.525 0 0 1-12.811 24.551c-14.214 24.163-30.792 46.367-54.016 62.732-37.343 26.315-77.572 25.034-113.412-3.305-23.994-18.972-41.039-43.411-55.314-70.041-2.421-4.517-4.662-9.131-7.2-14.112 10.841-2.1 21.22-3.926 31.519-6.132a565.911 565.911 0 0 0 86.264-26.19 8.323 8.323 0 0 1 6.6-0.194c38.062 14.856 77.169 25.931 117.594 32.171 0.143 0.021 0.26 0.165 0.776 0.52zM337.26 288.885h22.98c2.722 0 3.422 0.88 2.34 3.654-14.509 37.193-23.877 75.75-30.193 115.093a7.85 7.85 0 0 1-3.148 5.3c-31.116 25.049-59.8 52.574-84.9 83.721-1.6 1.983-2.444 2.765-4.214 0.093-17.668-26.679-32.407-54.672-38.472-86.472-4.313-22.611-3.377-44.759 7.434-65.684 11.128-21.538 29.379-34.869 51.316-43.671 24.651-9.898 50.562-12.605 76.857-12.034zM785.821 532.915c22.653 34.69 41.927 70 42.4 112.275 0.435 38.435-17.986 65.451-51.868 82.362-20.247 10.106-42.1 14.244-64.463 16.037-14.3 1.147-28.617 0.8-42.938 0.143-3.548-0.163-4.1-1-2.8-4.34 14.4-37.035 23.609-75.442 29.8-114.616a7.872 7.872 0 0 1 2.892-5.46c31.703-25.616 60.937-53.733 86.977-86.401zM635.148 272.423c-40.727 6.15-79.488 17.266-117.293 31.835a10.078 10.078 0 0 1-7.989-0.016c-37.65-14.514-76.254-25.586-116.134-31.651-0.8-1.186 0.232-1.929 0.491-2.792 1.345-4.494 3.441-5.628 8.583-4.121 25.425 7.452 47.787 1.347 65.05-18.625 17.122-19.809 19.8-42.629 9.165-66.634-1.7-3.826-0.654-4.937 2.61-6.31 30.381-12.778 58.923-8.515 85.835 9.411 24.7 16.456 42.1 39.475 56.958 64.663a261.048 261.048 0 0 1 12.724 24.24zM337.063 743.652c-29.51 0.371-58.474-2.91-85.467-16.011-18.778-9.114-33.828-22.233-43.331-41.185-1.37-2.732-1.767-3.859 2.021-5.021 26.294-8.064 42.225-25.873 45.249-53.164 2.857-25.781-7.923-45.986-30.009-59.8-2.774-1.735-3.524-2.761-1.733-5.911q7.651-13.46 16.083-26.419c1.562-2.406 2.4-2.912 4.493-0.312 24.959 31.028 53.509 58.444 84.476 83.391a9 9 0 0 1 3.5 6.172c6.22 39.006 15.389 77.265 29.767 114.139 1.5 3.836-0.039 4.161-3.069 4.14-7.33-0.053-14.655-0.019-21.98-0.019zM785.406 498.964a532.485 532.485 0 0 0-42.3-46.608q-20.938-20.456-43.756-38.772a9.052 9.052 0 0 1-3.567-6.147c-6.28-39.178-15.637-77.568-30.035-114.618-1.082-2.785-0.868-3.833 2.344-4.009 30.608-1.683 60.963-0.718 90.425 8.922 23.55 7.706 43.825 20.068 57.3 41.675 6.624 10.622 10.149 22.325 11.959 34.634 0.622 4.232-2.514 2.607-4.151 2.664A62.066 62.066 0 0 0 785.5 486.416c6.616 5.484 6.616 5.484-0.094 12.548zM541.477 715.17a742.478 742.478 0 0 0 131.707-76.138 542.616 542.616 0 0 1-16.494 67.062c-3.343 10.609-7.168 21.046-11.134 31.439-1.027 2.691-2.248 3.585-5.1 3.154a525.9 525.9 0 0 1-97.435-24.56 10.022 10.022 0 0 1-1.544-0.957zM328.122 592.836c-8.049-7.254-15.179-13.438-22.039-19.908a504.2 504.2 0 0 1-49.414-53.6c-1.627-2.053-2.293-3.373-0.335-5.836a529.653 529.653 0 0 1 69.83-71.994 14.173 14.173 0 0 1 1.932-1.042 734.253 734.253 0 0 0 0.026 152.38zM672.349 392.847a740.959 740.959 0 0 0-131.3-75.737 503.038 503.038 0 0 1 49.6-15.266c16.112-4.167 32.439-7.3 48.87-9.922 2.746-0.438 4.431-0.211 5.662 2.914a531.648 531.648 0 0 1 27.511 96.725c0.045 0.262-0.146 0.569-0.343 1.286zM355.29 392.945a526.3 526.3 0 0 1 27.945-98.562c0.754-1.91 1.607-2.974 3.984-2.61A514.657 514.657 0 0 1 485.2 316.6c0.276 0.1 0.481 0.4 0.922 0.774a741.666 741.666 0 0 0-130.832 75.571zM700.207 591.769a729.76 729.76 0 0 0-0.147-151.433c12.148 10 22.864 20.152 33.315 30.575a476.357 476.357 0 0 1 37.566 42.075c1.5 1.9 2.725 3.22 0.617 5.862a529.225 529.225 0 0 1-69.038 71.3c-0.487 0.415-1.053 0.742-2.313 1.621z" fill="#FEFEFE" p-id="4518"></path><path d="M867.089 438.486a41.985 41.985 0 1 1-42.1-41.746 42.057 42.057 0 0 1 42.1 41.746zM194.167 663.709a41.985 41.985 0 1 1 41.922-41.923 42.061 42.061 0 0 1-41.922 41.923z" fill="#FEE180" p-id="4519"></path><path d="M429.045 705.717a41.993 41.993 0 1 1 42.055-41.809 42.033 42.033 0 0 1-42.055 41.809zM379.111 206.719a41.993 41.993 0 1 1 41.863 42 42.05 42.05 0 0 1-41.863-42z" fill="#717B9A" p-id="4520"></path><path d="M486.664 715.41a527.884 527.884 0 0 1-53.728 16.261c-14.685 3.666-29.566 6.344-44.478 8.9-3.585 0.615-4.924-0.658-6.143-3.77-11.909-30.413-20.324-61.809-26.766-93.778-0.165-0.818-0.708-1.64 0.138-2.174 0.778-0.49 1.562 0.08 2.26 0.575 3.122 2.212 6.29 4.36 9.379 6.616 2.791 2.039 0.741 4.71 0.441 6.877-2.25 16.275 1.3 31.17 10.731 44.461a61.63 61.63 0 0 0 90.521 11.628c2.292-1.92 3.922-2.291 6.48-0.883 3.336 1.836 6.884 3.286 11.165 5.287z" fill="#FEFEFE" p-id="4521"></path><path d="M513.45 606.7c-49.678-0.488-89.81-41.207-89.325-90.633 0.487-49.676 41.215-89.817 90.633-89.326 49.68 0.494 89.818 41.219 89.326 90.633-0.496 49.687-41.212 89.815-90.634 89.326z m0.724-19.994a69.985 69.985 0 1 0-70.055-69.791 70.178 70.178 0 0 0 70.055 69.794z" fill="#343741" p-id="4522"></path><path d="M514.174 586.709a69.985 69.985 0 1 1 69.915-69.93 70.183 70.183 0 0 1-69.915 69.93z" fill="#F5715A" p-id="4523"></path></svg>