<?xml version="1.0" encoding="UTF-8" standalone="no"?>
<!-- Created with Inkscape (http://www.inkscape.org/) -->

<svg width="100%" height="100%"
    viewBox="0 0 627.53279 866.15149"
    version="1.1" id="svg5"
    xml:space="preserve"
    xmlns="http://www.w3.org/2000/svg"
    xmlns:svg="http://www.w3.org/2000/svg">
    <defs id="defs2" />
    <g id="layer1"
        transform="translate(-344.02245,-7738.8567)">
        <g id="notion-singing-live-streaming"
            transform="matrix(2,0,0,2,-394.08685,-88.124184)"
            style="stroke-width:0.5">
            <title id="title94622">
                notion-singing-live-streaming
            </title>
            <path
                d="m 427.9473,4033.58 -1.8061,-13.7413 c 27.8576,-2.4664 36.725,-11.7269 52.4751,-31.5831 0,0 5.6868,16.597 20.9412,18.7692 15.2544,2.1723 31.8755,6.59 41.5651,-4.1248 9.6896,-10.7148 10.8367,-19.4038 10.8367,-19.4038 0,0 -20.99,4.2713 -28.4586,-17.2315 -7.9803,-21.249 -5.8796,-33.2198 -33.2423,-35.2686 0,0 -8.4937,-23.0405 -26.2619,-16.2552 -12.4658,4.7603 -11.7886,11.4958 -11.7886,11.4958 0,0 -5.2232,-14.1318 -19.8186,3.8075 -11.8969,14.6227 -6.663,17.9882 -6.663,17.9882 0,0 -19.2235,-15.0732 -28.605,17.4756 -4.869,16.8929 2.0989,24.4561 2.0989,24.4561 0,0 -10.1206,-0.9641 -11.276,17.7197 -1.1346,18.3481 11.6422,24.0168 11.6422,24.0168 0,0 -5.5933,8.7361 -0.2929,18.0736 5.2539,9.2556 8.7744,14.205 27.9216,12.1914 9.4839,-0.9974 10.7879,-4.9302 10.7879,-4.9302 l -5.9065,-15.3278 c 0,0 -4.7969,6.6624 -12.4476,-0.024 -9.3135,-8.14 -12.9471,-15.81 -6.8217,-18.4885 4.035,-1.7645 11.1503,3.3003 11.2516,9.1132 0.073,4.2 3.8685,1.272 3.8685,1.272 z"
                id="path43005"
                stroke="none"
                stroke-width="1.05833"
                stroke-linecap="round"
                stroke-linejoin="round" />
            <path
                d="m 507.02734,3999.0703 a 1.0583349,1.0583349 0 0 0 -0.85156,1.2305 c 0,0 1.80806,9.9157 2.48633,20.2715 0.60055,9.1686 0.12669,19.6783 -1.44141,29.1328 -1.5681,9.4545 -4.26849,17.8634 -7.89453,22.7539 -3.38687,4.5679 -7.37449,8.8587 -12.58789,11.5976 -5.2134,2.739 -11.66854,3.9749 -20.21484,2.3321 -3.95787,-0.7608 -8.1259,-3.7807 -12.0625,-8.002 -3.93661,-4.2213 -7.64076,-9.6 -10.81055,-14.8867 -6.33957,-10.5734 -10.54297,-20.75 -10.54297,-20.75 a 1.0583349,1.0583349 0 0 0 -1.38281,-0.5742 1.0583349,1.0583349 0 0 0 -0.57422,1.3808 c 0,0 4.25018,10.2981 10.68555,21.0313 3.21768,5.3666 6.98056,10.8504 11.07617,15.2422 4.09561,4.3918 8.52451,7.7358 13.21094,8.6367 8.93847,1.7182 15.97514,0.4178 21.59961,-2.5371 5.62446,-2.9549 9.82091,-7.5149 13.30273,-12.2109 4.00806,-5.4058 6.68506,-14.0324 8.2832,-23.668 1.59815,-9.6356 2.07895,-20.2714 1.4668,-29.6172 -0.68853,-10.5124 -2.51758,-20.5137 -2.51758,-20.5137 a 1.0583349,1.0583349 0 0 0 -1.23047,-0.8496 z"
                id="path43007"
                stroke-width="0.5"
                stroke-linecap="round"
                stroke-linejoin="round"
                stroke="black" />
            <path
                d="m 465.14844,4019.6875 a 1.0583349,1.0583349 0 0 0 -0.75196,1.2949 c 1.37946,5.2015 -1.92544,10.5727 -6.22656,12.3242 -2.15056,0.8758 -4.48185,0.8861 -6.74609,-0.4121 -2.26425,-1.2982 -4.50982,-3.9858 -6.17774,-8.7168 a 1.0583349,1.0583349 0 0 0 -1.35156,-0.6445 1.0583349,1.0583349 0 0 0 -0.64648,1.3496 c 1.78257,5.0562 4.29241,8.2267 7.12304,9.8496 2.83063,1.6229 5.93326,1.6174 8.59571,0.5332 5.32489,-2.1684 9.156,-8.4935 7.47656,-14.8261 a 1.0583349,1.0583349 0 0 0 -1.29492,-0.752 z"
                id="path43009"
                stroke-width="0.5"
                stroke-linecap="round"
                stroke-linejoin="round"
                stroke="black" />
            <path
                d="m 489.75,3999.4395 a 1.0583349,1.0583349 0 0 0 -1.4375,0.4199 c -4.99317,9.1127 -7.5195,17.7039 -6.56836,25.582 0.95114,7.8781 5.4421,14.9331 14.06641,20.7734 a 1.0583349,1.0583349 0 0 0 1.4707,-0.2832 1.0583349,1.0583349 0 0 0 -0.2832,-1.4707 c -8.25788,-5.5922 -12.27707,-12.0236 -13.15235,-19.2734 -0.87528,-7.2498 1.4565,-15.4287 6.32422,-24.3125 a 1.0583349,1.0583349 0 0 0 -0.41992,-1.4355 z"
                id="path43011"
                stroke-width="0.5"
                stroke-linecap="round"
                stroke-linejoin="round"
                stroke="black" />
            <path
                d="m 498.40039,4014.2168 a 1.0583349,1.0583349 0 0 0 -0.81055,0.025 1.0583349,1.0583349 0 0 0 -0.52539,1.4023 c 1.1641,2.5656 0.67646,6.0712 -1.29687,8.5918 -1.97333,2.5206 -5.31048,4.1295 -10.17188,2.9629 a 1.0583349,1.0583349 0 0 0 -1.27734,0.7813 1.0583349,1.0583349 0 0 0 0.7832,1.2773 c 5.5323,1.3276 9.88749,-0.5943 12.33203,-3.7168 2.44454,-3.1225 3.1007,-7.3728 1.5586,-10.7715 a 1.0583349,1.0583349 0 0 0 -0.5918,-0.5527 z"
                id="path43013"
                stroke-width="0.5"
                stroke-linecap="round"
                stroke-linejoin="round"
                stroke="black" />
            <path
                d="m 485.44141,4058.7695 -20.94141,1.793 a 1.0584408,1.0584408 0 0 0 -0.86719,1.5039 c 2.96837,6.3207 6.2631,10.3067 10.28321,11.2793 2.01005,0.4863 4.13093,0.1362 6.20312,-0.9824 2.07219,-1.1187 4.13135,-2.9787 6.24609,-5.5879 a 1.0583349,1.0583349 0 0 0 -0.15429,-1.4902 1.0583349,1.0583349 0 0 0 -1.49024,0.1562 c -1.9995,2.4671 -3.88891,4.1328 -5.60742,5.0606 -1.7185,0.9277 -3.22901,1.1432 -4.70117,0.7871 -2.69545,-0.6522 -5.48643,-3.6165 -8.12891,-8.7539 l 19.33789,-1.6582 a 1.0583349,1.0583349 0 0 0 0.96485,-1.1446 1.0583349,1.0583349 0 0 0 -1.14453,-0.9629 z"
                id="path43015"
                stroke-width="0.5"
                stroke-linecap="round"
                stroke-linejoin="round"
                stroke="black" />
            <path
                d="m 489.48437,4082.1367 c -7.89777,7.233 -13.32243,17.9835 -11.95117,29.4336 a 1.0583349,1.0583349 0 0 0 1.17774,0.9258 1.0583349,1.0583349 0 0 0 0.92383,-1.1777 c -1.27394,-10.6375 3.79628,-20.768 11.27929,-27.6211 a 1.0583349,1.0583349 0 0 0 0.0664,-1.4961 1.0583349,1.0583349 0 0 0 -1.4961,-0.064 z"
                id="path43017"
                stroke-width="0.5"
                stroke-linecap="round"
                stroke-linejoin="round"
                stroke="black" />
            <path
                d="m 494.39062,4093.9121 a 1.0584408,1.0584408 0 0 0 -1.15039,0.5274 l -10.13086,18.5878 a 1.0584408,1.0584408 0 0 0 0.29493,1.3536 l 12.26953,9.1972 a 1.0584408,1.0584408 0 0 0 1.6914,-0.9277 l -2.14062,-27.7852 a 1.0584408,1.0584408 0 0 0 -0.83399,-0.9531 z m -1.00195,4.6777 1.68555,21.8946 -9.66797,-7.25 z"
                id="path43019"
                stroke-width="0.5"
                stroke-linecap="round"
                stroke-linejoin="round"
                stroke="black" />
            <path
                d="m 451.99023,4096.4824 a 1.0584408,1.0584408 0 0 0 -0.34375,1.2383 c -0.003,-0.01 0.24494,0.7299 0.55664,1.7207 0.31171,0.9908 0.73127,2.3394 1.21875,3.9219 0.97498,3.165 2.22694,7.2656 3.4629,11.3262 2.47191,8.1211 4.8789,16.08 4.8789,16.08 a 1.0584408,1.0584408 0 0 0 1.92578,0.2305 l 10.19922,-17.3965 a 1.0584408,1.0584408 0 0 0 -0.26562,-1.373 l -20.34766,-15.7403 a 1.0584408,1.0584408 0 0 0 -1.28516,-0.01 z m 2.67969,3.7617 16.92188,13.0918 -8.50586,14.5078 c -0.55169,-1.8232 -2.06091,-6.8169 -4.17774,-13.7714 -1.23631,-4.0618 -2.48853,-8.1627 -3.46484,-11.3321 -0.30958,-1.005 -0.52861,-1.7093 -0.77344,-2.4961 z"
                id="path43021"
                stroke-width="0.5"
                stroke-linecap="round"
                stroke-linejoin="round"
                stroke="black" />
            <path
                d="m 472.37695,4113.8359 a 1.0583349,1.0583349 0 0 0 -0.80859,0.045 1.0583349,1.0583349 0 0 0 -0.49414,1.4121 c -0.046,-0.096 0.17253,0.4547 0.40234,1.1211 0.22982,0.6663 0.5361,1.5719 0.88867,2.6308 0.70516,2.1178 1.60227,4.8523 2.48438,7.5567 1.76422,5.4086 3.46875,10.6953 3.46875,10.6953 a 1.0584408,1.0584408 0 0 0 2.01562,-0.01 l 6.58985,-20.8555 a 1.0583349,1.0583349 0 0 0 -0.68946,-1.3281 1.0583349,1.0583349 0 0 0 -1.32812,0.6895 l -5.59375,17.7051 c -0.60755,-1.8799 -1.20436,-3.7343 -2.45117,-7.5567 -0.88281,-2.7065 -1.78053,-5.4427 -2.48828,-7.5683 -0.35388,-1.0629 -0.66021,-1.973 -0.89453,-2.6524 -0.23433,-0.6794 -0.33308,-1.0069 -0.49805,-1.3496 a 1.0583349,1.0583349 0 0 0 -0.60352,-0.5391 z"
                id="path43023"
                stroke-width="0.5"
                stroke-linecap="round"
                stroke-linejoin="round"
                stroke="black" />
            <path
                d="m 479.39062,4134.377 a 1.0583349,1.0583349 0 0 0 -1.08203,1.0332 l -0.81836,35.2324 a 1.0583349,1.0583349 0 0 0 1.03321,1.082 1.0583349,1.0583349 0 0 0 1.08398,-1.0332 l 0.81641,-35.2324 a 1.0583349,1.0583349 0 0 0 -1.03321,-1.082 z"
                id="path43025"
                stroke-width="0.5"
                stroke-linecap="round"
                stroke-linejoin="round"
                stroke="black" />
            <path id="circle43027"
                d="m 490.6097,4144.7655 a 3.8196964,3.8196964 0 0 1 -3.8197,3.8197 3.8196964,3.8196964 0 0 1 -3.8197,-3.8197 3.8196964,3.8196964 0 0 1 3.8197,-3.8197 3.8196964,3.8196964 0 0 1 3.8197,3.8197 z"
                stroke-width="0.132291"
                stroke="black" />
            <path id="circle43029"
                d="m 490.6097,4158.6289 a 3.8196964,3.8196964 0 0 1 -3.8197,3.8197 3.8196964,3.8196964 0 0 1 -3.8197,-3.8197 3.8196964,3.8196964 0 0 1 3.8197,-3.8197 3.8196964,3.8196964 0 0 1 3.8197,3.8197 z"
                stroke-width="0.132291"
                stroke="black" />
            <path
                d="m 408.04492,4112.4629 a 1.0583349,1.0583349 0 0 0 -1.46875,0.2891 c -24.87989,37.0942 -33.26667,78.3476 -37.51562,118.5351 a 1.0583349,1.0583349 0 0 0 0.9414,1.1641 1.0583349,1.0583349 0 0 0 1.16211,-0.9414 c 4.23424,-40.0484 12.57187,-80.9041 37.16992,-117.5782 a 1.0583349,1.0583349 0 0 0 -0.28906,-1.4687 z"
                id="path43031"
                stroke-width="0.5"
                stroke-linecap="round"
                stroke-linejoin="round"
                stroke="black" />
            <path
                d="m 402.85937,4259.3164 a 1.0583349,1.0583349 0 0 0 -1.23828,0.8418 c -1.10681,5.8219 -2.14899,15.5871 -2.75976,23.8691 -0.30539,4.1411 -0.50165,7.9009 -0.53711,10.6153 -0.0177,1.3572 0.002,2.4454 0.0781,3.2383 0.038,0.3964 0.0769,0.7037 0.19141,1.0371 0.0573,0.1666 0.10967,0.3581 0.36914,0.6035 0.25947,0.2454 0.94868,0.3776 1.30859,0.2012 l -0.86328,0.031 c 19.97367,8.1064 38.20438,6.663 59.67188,5.3711 a 1.0583349,1.0583349 0 0 0 0.99414,-1.1191 1.0583349,1.0583349 0 0 0 -1.1211,-0.9942 c -21.36228,1.2856 -39.06589,2.6497 -58.4082,-5.0996 -0.0155,-0.093 -0.0222,-0.099 -0.0351,-0.2344 -0.0611,-0.6368 -0.0876,-1.689 -0.0703,-3.0078 0.0345,-2.6376 0.22792,-6.3731 0.53125,-10.4863 0.60668,-8.2265 1.65959,-17.9979 2.73047,-23.6309 a 1.0583349,1.0583349 0 0 0 -0.8418,-1.2363 z"
                id="path43033"
                stroke-width="0.5"
                stroke-linecap="round"
                stroke-linejoin="round"
                stroke="black" />
            <path
                d="m 527.72852,4193.4707 a 1.0583349,1.0583349 0 0 0 -1.01368,1.1016 c 0.24834,6.0338 5.14124,93.9128 5.22657,95.4453 -0.58901,0.1913 -9.33869,3.0415 -23.61914,7.1015 -14.53225,4.1316 -34.69727,4.4024 -34.69727,4.4024 a 1.0583349,1.0583349 0 0 0 -1.04688,1.0722 1.0583349,1.0583349 0 0 0 1.07227,1.045 c 0,0 20.25182,-0.2178 35.25195,-4.4825 14.78323,-4.2029 24.46875,-7.3593 24.46875,-7.3593 a 1.0584408,1.0584408 0 0 0 0.72852,-1.0645 c 0,0 -5.03183,-90.4705 -5.26953,-96.2461 a 1.0583349,1.0583349 0 0 0 -1.10156,-1.0156 z"
                id="path43035"
                stroke-width="0.5"
                stroke-linecap="round"
                stroke-linejoin="round"
                stroke="black" />
            <path
                d="m 417.80078,4086.3965 a 1.0583349,1.0583349 0 0 0 -1.43164,0.4414 c 0,0 -0.58275,1.1282 -1.13086,3.3555 -0.5481,2.2272 -1.10204,5.6289 -1.16406,10.4023 -0.11966,9.2167 -3.09362,57.1324 -3.0957,57.166 -7e-5,0 -0.0116,0.2499 -0.28516,1.2813 -0.27435,1.0344 -0.80308,2.7667 -1.80859,5.4824 -2.01103,5.4314 -5.9288,14.7956 -13.52149,30.4199 -15.2948,31.4737 -15.9707,56.1074 -15.9707,56.1074 a 1.0583349,1.0583349 0 0 0 1.02929,1.086 1.0583349,1.0583349 0 0 0 1.0879,-1.0293 c 0,0 0.64144,-24.1318 15.75781,-55.2383 7.6129,-15.6659 11.55495,-25.0838 13.60156,-30.6113 1.02331,-2.7638 1.57222,-4.5543 1.86914,-5.6739 0.29692,-1.1195 0.34961,-1.6543 0.34961,-1.6543 a 1.0584408,1.0584408 0 0 0 0.002,-0.021 c 0,0 2.97727,-47.7135 3.10157,-57.2872 0.0601,-4.6233 0.59404,-7.8614 1.10156,-9.9238 0.50752,-2.0623 0.94922,-2.873 0.94922,-2.873 a 1.0583349,1.0583349 0 0 0 -0.44141,-1.4297 z"
                id="path43037"
                stroke-width="0.5"
                stroke-linecap="round"
                stroke-linejoin="round"
                stroke="black" />
            <path
                d="m 429.63672,4081.3242 a 1.0583349,1.0583349 0 0 0 -1.27735,0.7793 c 0,0 -2.03898,8.3725 -4.11132,17.0801 -1.03618,4.3538 -2.08142,8.7911 -2.88477,12.3105 -0.40167,1.7597 -0.74164,3.2894 -0.99219,4.4688 -0.25054,1.1794 -0.40774,1.9433 -0.45703,2.4316 a 1.0583349,1.0583349 0 0 0 0.94727,1.1582 1.0583349,1.0583349 0 0 0 1.1582,-0.9453 c 0.0178,-0.1767 0.17522,-1.0439 0.42188,-2.2051 0.24665,-1.1611 0.586,-2.6837 0.98632,-4.4375 0.80065,-3.5075 1.84355,-7.9406 2.87891,-12.291 2.07073,-8.7008 4.10938,-17.0703 4.10938,-17.0703 a 1.0583349,1.0583349 0 0 0 -0.7793,-1.2793 z"
                id="path43039"
                stroke-width="0.5"
                stroke-linecap="round"
                stroke-linejoin="round"
                stroke="black" />
            <path
                d="m 442.40625,4088.1914 a 1.0583349,1.0583349 0 0 0 -0.60156,0.543 c 0,0 -3.37098,7.1339 -6.78711,14.7363 -1.70807,3.8012 -3.42703,7.7199 -4.7461,10.9336 -0.65953,1.6068 -1.21803,3.037 -1.6289,4.1992 -0.41087,1.1622 -0.68188,1.9867 -0.74805,2.7051 a 1.0583349,1.0583349 0 0 0 0.95703,1.1504 1.0583349,1.0583349 0 0 0 1.15039,-0.957 c 0.0193,-0.2092 0.24345,-1.0865 0.63477,-2.1934 0.39132,-1.1069 0.94216,-2.5141 1.59375,-4.1016 1.30317,-3.1749 3.01593,-7.0796 4.71875,-10.8691 3.40563,-7.579 6.76953,-14.6992 6.76953,-14.6992 a 1.0583349,1.0583349 0 0 0 -0.50391,-1.4082 1.0583349,1.0583349 0 0 0 -0.80859,-0.039 z"
                id="path43041"
                stroke-width="0.5"
                stroke-linecap="round"
                stroke-linejoin="round"
                stroke="black" />
            <path
                d="m 448.30273,4107.5977 a 1.0583349,1.0583349 0 0 0 -0.63281,0.5039 c 0,0 -2.75453,4.9705 -5.61914,10.2539 -1.4323,2.6417 -2.89263,5.3625 -4.05273,7.584 -1.1601,2.2214 -1.98366,3.8219 -2.28711,4.6816 a 1.0583349,1.0583349 0 0 0 0.64648,1.3496 1.0583349,1.0583349 0 0 0 1.34961,-0.6465 c 0.1359,-0.385 1.01703,-2.2023 2.16797,-4.4062 1.15094,-2.2039 2.6077,-4.9164 4.03711,-7.5528 2.85881,-5.2727 5.60937,-10.2363 5.60937,-10.2363 a 1.0583349,1.0583349 0 0 0 -0.41406,-1.4394 1.0583349,1.0583349 0 0 0 -0.80469,-0.092 z"
                id="path43043"
                stroke-width="0.5"
                stroke-linecap="round"
                stroke-linejoin="round"
                stroke="black" />
            <path
                d="m 447.86133,4121.4531 a 1.0583349,1.0583349 0 0 0 -1.3418,0.6602 c -0.95898,2.8205 -2.65828,4.5458 -4.36914,7.2597 -1.71086,2.714 -3.28885,6.3486 -3.73828,12.6778 -0.43503,6.1271 -1.3961,12.1537 -3.00781,16.9355 -1.61171,4.7818 -3.88352,8.225 -6.65235,9.4883 -3.33067,1.5197 -5.33525,3.1986 -6.50976,4.5371 -1.17452,1.3385 -1.55274,2.4551 -1.55274,2.4551 a 1.0584408,1.0584408 0 0 0 -0.0371,0.1582 c 0,0 -7.6392,50.1334 -9.19726,58.9668 -1.55749,8.8299 -4.72422,14.6633 -8.88281,18.418 -4.15859,3.7546 -9.36432,5.485 -15.19141,5.9004 a 1.0583349,1.0583349 0 0 0 -0.98047,1.1308 1.0583349,1.0583349 0 0 0 1.13086,0.9805 c 6.1567,-0.4389 11.88591,-2.3106 16.45898,-6.4395 4.57308,-4.1289 7.93342,-10.4628 9.54883,-19.6211 1.58655,-8.9949 9.15139,-58.6605 9.18555,-58.8847 0.005,-0.017 0.15634,-0.5819 1.10937,-1.668 0.96721,-1.1022 2.70846,-2.5986 5.79688,-4.0078 3.65026,-1.6655 6.07779,-5.6901 7.7793,-10.7383 1.70151,-5.0482 2.66971,-11.2136 3.11328,-17.4609 0.42927,-6.0453 1.84001,-9.1961 3.41797,-11.6992 1.57796,-2.5032 3.46642,-4.4258 4.58203,-7.7071 a 1.0583349,1.0583349 0 0 0 -0.66211,-1.3418 z"
                id="path43045"
                stroke-width="0.5"
                stroke-linecap="round"
                stroke-linejoin="round"
                stroke="black" />
            <path
                d="m 405.19727,4130.2656 c -1.31943,0.2885 -2.30079,1.0293 -2.30079,1.0293 a 1.0584408,1.0584408 0 0 0 -0.34179,1.2969 c 0,0 1.72373,3.7545 4.10156,11.3008 1.11464,3.5373 1.42829,9.4827 1.41016,14.459 -0.0181,4.9762 -0.33399,9.0097 -0.33399,9.0097 a 1.0583349,1.0583349 0 0 0 0.97461,1.1387 1.0583349,1.0583349 0 0 0 1.13672,-0.9727 c 0,0 0.31945,-4.1067 0.33789,-9.1679 0.0184,-5.0613 -0.2286,-11.0502 -1.50586,-15.1035 -2.00504,-6.3632 -3.32882,-9.4947 -3.79883,-10.5762 0.28319,-0.1497 0.3766,-0.2594 0.77149,-0.3457 0.38673,-0.085 0.73645,-0.079 1.01172,0.029 0.27527,0.1083 0.54827,0.3044 0.83007,0.9004 a 1.0583349,1.0583349 0 0 0 1.40821,0.5039 1.0583349,1.0583349 0 0 0 0.50586,-1.4102 c -0.4626,-0.9783 -1.18004,-1.6525 -1.96875,-1.9629 -0.78872,-0.3104 -1.57857,-0.2731 -2.23828,-0.1289 z"
                id="path43047"
                stroke-width="0.5"
                stroke-linecap="round"
                stroke-linejoin="round"
                stroke="black" />
            <path
                d="m 520.25195,4177.957 a 1.0583349,1.0583349 0 0 0 -1.14648,0.9629 c -0.65283,7.5423 -2.98459,34.4762 -24.50391,57.5567 a 1.0584408,1.0584408 0 0 0 -0.0137,0.014 c -25.8628,28.7368 -33.46246,55.4899 -29.40625,92.5215 a 1.0583349,1.0583349 0 0 0 1.16602,0.9356 1.0583349,1.0583349 0 0 0 0.9375,-1.1661 c -4.01359,-36.6425 3.3098,-62.4667 28.87695,-90.875 l -0.0137,0.014 c 22.02823,-23.6263 24.41363,-51.2768 25.0664,-58.8183 a 1.0583349,1.0583349 0 0 0 -0.96289,-1.1446 z"
                id="path43049"
                stroke-width="0.5"
                stroke-linecap="round"
                stroke-linejoin="round"
                stroke="black" />
            <path
                d="m 534.51953,4109.7383 a 1.0583349,1.0583349 0 0 0 -0.89062,1.2031 c 0.17473,1.1729 -0.15701,3.0764 -0.6543,5.1406 -0.49729,2.0643 -1.12833,4.3022 -1.37305,6.4043 -0.56545,4.8574 0.33261,7.9102 2.44531,11.3731 2.11271,3.4629 5.37024,7.4612 9.79297,14.9375 8.81465,14.9006 24.42682,50.2759 31.07422,77.5937 1.63741,6.729 1.39382,11.7695 0.0937,15.5313 -1.30006,3.7617 -3.64985,6.2931 -6.43945,8.0273 -5.5792,3.4684 -13.06545,3.5485 -16.11524,2.9297 -1.34357,-0.2726 -2.72185,-1.256 -4.08789,-3.0156 -1.36603,-1.7597 -2.68531,-4.2589 -3.90039,-7.334 -2.43016,-6.1503 -4.46275,-14.5921 -6.0664,-24.1289 -1.59965,-9.513 -2.99138,-23.4136 -3.97266,-35.1035 -0.49064,-5.845 -0.87986,-11.1404 -1.14258,-15.0684 -0.13135,-1.964 -0.23152,-3.5859 -0.29687,-4.7617 -0.0653,-1.1759 -0.0896,-2.0281 -0.0898,-2.0195 a 1.0583349,1.0583349 0 0 0 -1.02343,-1.0918 1.0583349,1.0583349 0 0 0 -1.0918,1.0234 c -0.0125,0.393 0.0258,1.0176 0.0918,2.2051 0.066,1.1874 0.16706,2.815 0.29882,4.7851 0.26354,3.9403 0.65278,9.2472 1.14454,15.1055 0.98352,11.7166 2.37199,25.6287 3.99414,35.2754 1.61814,9.623 3.66108,18.1677 6.18554,24.5566 1.26223,3.1945 2.64167,5.8542 4.19532,7.8555 1.55364,2.0013 3.31722,3.3802 5.34179,3.791 3.68651,0.748 11.39416,0.6834 17.65235,-3.207 3.12909,-1.9452 5.85823,-4.8966 7.32226,-9.1328 1.46404,-4.2362 1.66923,-9.7104 -0.0371,-16.7227 -6.72758,-27.6473 -22.30626,-62.9539 -31.30859,-78.1719 -4.48586,-7.5829 -7.82445,-11.7139 -9.80664,-14.9628 -1.98219,-3.249 -2.67794,-5.4917 -2.15039,-10.0235 0.21548,-1.851 0.81641,-4.0383 1.32617,-6.1543 0.50976,-2.116 0.95968,-4.1484 0.69141,-5.9492 a 1.0583349,1.0583349 0 0 0 -1.20313,-0.8906 z"
                id="path43051"
                stroke-width="0.5"
                stroke-linecap="round"
                stroke-linejoin="round"
                stroke="black" />
            <path
                d="m 442.71875,4088.1348 a 1.0583349,1.0583349 0 0 0 -0.57617,1.3808 c 0,0 -0.0202,-0.08 0.0215,0.1367 0.0417,0.2164 0.10691,0.6306 0.17578,1.334 0.13776,1.4069 0.29413,3.975 0.34571,8.5117 0.0981,8.6357 -5.79883,19.209 -5.79883,19.209 a 1.0583349,1.0583349 0 0 0 0.39648,1.4434 1.0583349,1.0583349 0 0 0 1.44336,-0.3984 c 0,0 6.18314,-10.6879 6.07422,-20.2774 -0.052,-4.5757 -0.20652,-7.1941 -0.35351,-8.6953 -0.0735,-0.7506 -0.14449,-1.2227 -0.20313,-1.5273 -0.0586,-0.3046 -0.14453,-0.5411 -0.14453,-0.5411 a 1.0583349,1.0583349 0 0 0 -1.38086,-0.5761 z"
                id="path43053"
                stroke-width="0.5"
                stroke-linecap="round"
                stroke-linejoin="round"
                stroke="black" />
            <path
                d="m 519.19727,4075.291 a 1.0583349,1.0583349 0 0 0 -0.66602,0.459 1.0583349,1.0583349 0 0 0 0.31445,1.4648 l 10.5293,6.7989 a 1.0583349,1.0583349 0 0 0 1.46289,-0.3145 1.0583349,1.0583349 0 0 0 -0.31445,-1.4629 l -10.5293,-6.8008 a 1.0583349,1.0583349 0 0 0 -0.79687,-0.1445 z"
                id="path43055"
                stroke-width="0.5"
                stroke-linecap="round"
                stroke-linejoin="round"
                stroke="black" />
            <path
                d="m 530.55859,4064.3457 -11.99414,0.9141 a 1.0583349,1.0583349 0 0 0 -0.97461,1.1367 1.0583349,1.0583349 0 0 0 1.13477,0.9746 l 11.99414,-0.916 a 1.0583349,1.0583349 0 0 0 0.97461,-1.1348 1.0583349,1.0583349 0 0 0 -1.13477,-0.9746 z"
                id="path43057"
                stroke-width="0.5"
                stroke-linecap="round"
                stroke-linejoin="round"
                stroke="black" />
            <path
                d="m 527.63086,4042.4043 -11.97656,11.4082 a 1.0583349,1.0583349 0 0 0 -0.0371,1.4961 1.0583349,1.0583349 0 0 0 1.49609,0.037 l 11.97656,-11.4082 a 1.0583349,1.0583349 0 0 0 0.0371,-1.4961 1.0583349,1.0583349 0 0 0 -1.49609,-0.037 z"
                id="path43059"
                stroke-width="0.5"
                stroke-linecap="round"
                stroke-linejoin="round"
                stroke="black" />
            <path
                d="m 532.55664,4112.3242 a 1.0583349,1.0583349 0 0 0 -1.49219,0.1113 c -6.82865,7.9185 -3.32226,16.7559 -3.32226,16.7559 a 1.0583349,1.0583349 0 0 0 1.3789,0.5801 1.0583349,1.0583349 0 0 0 0.58203,-1.3789 c 0,0 -3.13464,-7.5035 2.9629,-14.5742 a 1.0583349,1.0583349 0 0 0 -0.10938,-1.4942 z"
                id="path43061"
                stroke-width="0.5"
                stroke-linecap="round"
                stroke-linejoin="round"
                stroke="black" />
            <path
                d="m 513.60937,4125.9277 c -2.09678,0.045 -3.94752,0.2815 -5.26171,1.3086 -1.89802,1.4834 -3.15265,2.4952 -3.9336,3.5801 -0.78095,1.0849 -0.89992,2.449 -0.38672,3.6113 0.49769,1.127 1.21181,1.785 1.86328,2.084 0.65148,0.299 1.31836,0.2246 1.31836,0.2246 a 1.0583349,1.0583349 0 0 0 0.88282,-1.207 1.0583349,1.0583349 0 0 0 -1.20703,-0.8848 c 0,0 0.0548,0.02 -0.11133,-0.057 -0.16615,-0.076 -0.47638,-0.2633 -0.8086,-1.0156 -0.3166,-0.7171 -0.31916,-0.8436 0.16602,-1.5176 0.48518,-0.674 1.64665,-1.6866 3.51953,-3.1504 0.57121,-0.4464 2.09643,-0.8207 4.00391,-0.8613 1.90748,-0.041 4.18144,0.1717 6.3457,0.4785 4.32853,0.6135 8.21094,1.5937 8.21094,1.5937 a 1.0583349,1.0583349 0 0 0 1.28515,-0.7675 1.0583349,1.0583349 0 0 0 -0.76757,-1.2852 c 0,0 -3.96753,-1.004 -8.43165,-1.6367 -2.23205,-0.3164 -4.59071,-0.5427 -6.6875,-0.4981 z"
                id="path43063"
                stroke-width="0.5"
                stroke-linecap="round"
                stroke-linejoin="round"
                stroke="black" />
            <path
                d="m 503.60742,4136.9727 c 0,0 -0.91897,0.3093 -1.67383,1.1035 -0.37742,0.397 -0.73743,0.9559 -0.84179,1.664 -0.10437,0.7082 0.0741,1.5076 0.54101,2.2774 1.7515,2.8878 4.84571,2.707 4.84571,2.707 a 1.0583349,1.0583349 0 0 0 0.94921,-1.1562 1.0583349,1.0583349 0 0 0 -1.15625,-0.9493 c 0,0 -1.62837,0.2822 -2.83007,-1.6992 -0.27142,-0.4475 -0.28192,-0.6943 -0.25586,-0.8711 0.0261,-0.1768 0.11563,-0.3414 0.28125,-0.5156 0.33124,-0.3485 0.86914,-0.5723 0.86914,-0.5723 a 1.0583349,1.0583349 0 0 0 0.6289,-1.3593 1.0583349,1.0583349 0 0 0 -1.35742,-0.6289 z"
                id="path43065"
                stroke-width="0.5"
                stroke-linecap="round"
                stroke-linejoin="round"
                stroke="black" />
            <path
                d="m 502.36719,4145.3984 c 0,0 -1.06174,0.2069 -1.75196,1.1817 -0.34511,0.4874 -0.56705,1.1874 -0.50195,1.9668 0.0651,0.7794 0.37976,1.6287 0.99024,2.6054 2.56545,4.1049 7.65625,3.336 7.65625,3.336 a 1.0583349,1.0583349 0 0 0 0.88867,-1.2051 1.0583349,1.0583349 0 0 0 -1.20313,-0.8887 c 0,0 -3.71913,0.5613 -5.54687,-2.3633 -0.48787,-0.7805 -0.64819,-1.3297 -0.67578,-1.6601 -0.0276,-0.3304 0.0387,-0.4528 0.11914,-0.5664 0.16095,-0.2273 0.5,-0.3438 0.5,-0.3438 a 1.0583349,1.0583349 0 0 0 0.79297,-1.2695 1.0583349,1.0583349 0 0 0 -1.26758,-0.793 z"
                id="path43067"
                stroke-width="0.5"
                stroke-linecap="round"
                stroke-linejoin="round"
                stroke="black" />
            <path
                d="m 504.92969,4155.2246 c 0,0 -1.09531,0.4461 -1.78125,1.5684 -0.68594,1.1222 -0.72183,2.9958 0.81445,4.9179 1.26006,1.5765 3.56538,1.9661 6.33594,2.2032 2.77055,0.237 6.06454,0.1474 9.24804,-0.068 6.36701,-0.4316 12.29493,-1.3848 12.29493,-1.3848 a 1.0583349,1.0583349 0 0 0 0.87695,-1.2129 1.0583349,1.0583349 0 0 0 -1.21289,-0.8769 c 0,0 -5.85616,0.9399 -12.10156,1.3633 -3.12271,0.2117 -6.34244,0.2912 -8.92383,0.07 -2.58139,-0.2209 -4.46585,-0.9163 -4.86524,-1.416 -1.18501,-1.4827 -0.93829,-2.0372 -0.66015,-2.4922 0.27813,-0.4551 0.82812,-0.7363 0.82812,-0.7363 a 1.0583349,1.0583349 0 0 0 0.54102,-1.3946 1.0583349,1.0583349 0 0 0 -1.39453,-0.541 z"
                id="path43069"
                stroke-width="0.5"
                stroke-linecap="round"
                stroke-linejoin="round"
                stroke="black" />
            <path
                d="m 511.0673,4163.4548 c 0.1098,0.3966 2.3369,7.9446 2.3369,7.9446 4.3494,1.2232 8.7125,1.3624 13.0944,0 l 1.9404,-8.9148 z"
                id="path43071"
                stroke="none"
                stroke-width="1.05833"
                stroke-linecap="round"
                stroke-linejoin="round" />
            <path
                d="m 519.99023,4167.0586 c -3.69057,0 -6.79687,2.7714 -6.79687,6.2871 0,3.5157 3.1063,6.2871 6.79687,6.2871 3.69058,0 6.79883,-2.7714 6.79883,-6.2871 0,-3.5157 -3.10825,-6.2871 -6.79883,-6.2871 z m 0,2.1172 c 2.64821,0 4.68164,1.9096 4.68164,4.1699 0,2.2603 -2.03343,4.1699 -4.68164,4.1699 -2.6482,0 -4.67968,-1.9096 -4.67968,-4.1699 0,-2.2603 2.03148,-4.1699 4.67968,-4.1699 z"
                id="ellipse43073"
                stroke-width="0.5"
                stroke="black" />
            <path
                d="m 510.53906,4115.7773 c -2.0858,0 -3.79687,1.7111 -3.79687,3.7969 0,2.0858 1.71102,3.7988 3.79687,3.7988 h 14.75977 c 2.08585,0 3.79883,-1.713 3.79883,-3.7988 0,-2.0858 -1.71303,-3.7969 -3.79883,-3.7969 z m 0,2.1172 h 14.75977 c 0.94979,0 1.68164,0.7299 1.68164,1.6797 0,0.9498 -0.7319,1.6817 -1.68164,1.6817 h -14.75977 c -0.94974,0 -1.68164,-0.7319 -1.68164,-1.6817 0,-0.9498 0.73185,-1.6797 1.68164,-1.6797 z"
                id="rect43075"
                stroke-width="0.5"
                stroke="black" />
            <path
                d="m 508.4893,4122.2721 0.244,5.6625 c 0,0 7.3893,-1.7329 12.0693,-0.5064 4.68,1.2265 7.5113,1.3729 7.5113,1.3729 0,0 -1.2814,-3.893 -0.8604,-5.6076 0.421,-1.7146 -4.021,-0.8237 -4.021,-0.8237 z"
                id="path43077"
                stroke="none"
                stroke-width="1.05833"
                stroke-linecap="round"
                stroke-linejoin="round" />
            <g id="path43079"
                style="stroke-width:0.5">
                <path
                    d="m 518.2032,4087.8152 0.4272,28.8921"
                    id="path77309"
                    stroke-width="1.05833"
                    stroke-linecap="round"
                    stroke-linejoin="round"
                    stroke="black" />
                <path
                    d="m 518.1875,4086.7578 a 1.0583349,1.0583349 0 0 0 -1.04297,1.0723 l 0.42774,28.8926 a 1.0583349,1.0583349 0 0 0 1.07421,1.0429 1.0583349,1.0583349 0 0 0 1.04297,-1.0742 l -0.42773,-28.8926 a 1.0583349,1.0583349 0 0 0 -1.07422,-1.041 z"
                    id="path77311"
                    stroke-width="0.5"
                    stroke-linecap="round"
                    stroke-linejoin="round"
                    stroke="black" />
            </g>
            <path
                d="m 519.57617,4091.832 c -5.0823,0.1663 -10.50108,1.8219 -15.41797,5.2227 a 1.0583349,1.0583349 0 0 0 -0.26758,1.4726 1.0583349,1.0583349 0 0 0 1.47266,0.2696 c 9.1606,-6.336 20.12982,-6.0018 26.38672,-1.5293 a 1.0583349,1.0583349 0 0 0 1.47656,-0.2461 1.0583349,1.0583349 0 0 0 -0.24609,-1.4766 c -3.57574,-2.5559 -8.322,-3.8792 -13.4043,-3.7129 z"
                id="path43081"
                stroke-width="0.5"
                stroke-linecap="round"
                stroke-linejoin="round"
                stroke="black" />
            <path
                d="m 523.02734,4098.7344 c -1.41055,-0.073 -2.85648,-0.054 -4.30664,0.043 -5.80061,0.3894 -11.68647,2.0672 -15.67383,4.67 a 1.0583349,1.0583349 0 0 0 -0.30664,1.4648 1.0583349,1.0583349 0 0 0 1.46485,0.3066 c 3.52513,-2.301 9.17415,-3.962 14.65625,-4.33 5.4821,-0.368 10.77088,0.592 13.66211,3 a 1.0583349,1.0583349 0 0 0 1.49023,-0.1348 1.0583349,1.0583349 0 0 0 -0.13476,-1.4922 c -2.71183,-2.2585 -6.61992,-3.3076 -10.85157,-3.5273 z"
                id="path43083"
                stroke-width="0.5"
                stroke-linecap="round"
                stroke-linejoin="round"
                stroke="black" />
            <path
                d="m 518.86719,4105.6445 c -5.50296,0.042 -11.14714,1.8568 -14.20899,6.0371 a 1.0583349,1.0583349 0 0 0 0.22852,1.4805 1.0583349,1.0583349 0 0 0 1.47851,-0.2285 c 2.48625,-3.3945 7.47991,-5.1338 12.51758,-5.1719 5.03768,-0.038 9.9876,1.6668 12.24024,4.4336 a 1.0583349,1.0583349 0 0 0 1.49023,0.1524 1.0583349,1.0583349 0 0 0 0.15234,-1.4883 c -2.90225,-3.5648 -8.39547,-5.2565 -13.89843,-5.2149 z"
                id="path43085"
                stroke-width="0.5"
                stroke-linecap="round"
                stroke-linejoin="round"
                stroke="black" />
            <path
                d="m 513.77148,4087.9023 c -4.2545,3.9712 -5.25194,9.9487 -4.98828,15.461 0.26367,5.5123 1.77766,10.637 2.86914,13.3047 a 1.0583349,1.0583349 0 0 0 1.38086,0.58 1.0583349,1.0583349 0 0 0 0.57813,-1.3808 c -0.98761,-2.4138 -2.46501,-7.4231 -2.71289,-12.6055 -0.24789,-5.1824 0.72342,-10.4588 4.3164,-13.8125 a 1.0583349,1.0583349 0 0 0 0.0527,-1.4961 1.0583349,1.0583349 0 0 0 -1.4961,-0.051 z"
                id="path43087"
                stroke-width="0.5"
                stroke-linecap="round"
                stroke-linejoin="round"
                stroke="black" />
            <path
                d="m 522.2793,4087.6094 a 1.0583349,1.0583349 0 0 0 -1.4961,0.076 1.0583349,1.0583349 0 0 0 0.0781,1.4961 c 4.09096,3.6882 5.50069,9.2271 5.45703,14.459 -0.0437,5.232 -1.65392,10.151 -3.02344,11.9961 a 1.0583349,1.0583349 0 0 0 0.21875,1.4805 1.0583349,1.0583349 0 0 0 1.48047,-0.2188 c 1.89938,-2.5589 3.39447,-7.6158 3.44141,-13.2402 0.0469,-5.6244 -1.46612,-11.8204 -6.15625,-16.0488 z"
                id="path43089"
                stroke-width="0.5"
                stroke-linecap="round"
                stroke-linejoin="round"
                stroke="black" />
            <path
                d="m 518.68945,4086.6348 c -9.1965,0 -16.60351,7.9674 -16.60351,17.6836 0,5.6303 1.41762,8.8087 5.87304,13.789 a 1.0583349,1.0583349 0 0 0 1.49414,0.084 1.0583349,1.0583349 0 0 0 0.082,-1.4941 c -4.32697,-4.8367 -5.33204,-7.0607 -5.33204,-12.3789 0,-8.6466 6.51325,-15.5664 14.48633,-15.5664 3.99457,0 8.60805,1.7057 11.44141,5.4316 2.83336,3.7259 4.05585,9.5413 1.0293,18.2187 a 1.0583349,1.0583349 0 0 0 0.65039,1.3477 1.0583349,1.0583349 0 0 0 1.34765,-0.6504 c 3.18504,-9.1318 1.96438,-15.847 -1.34375,-20.1973 -3.30813,-4.3502 -8.53477,-6.2675 -13.125,-6.2675 z"
                id="path43091"
                stroke-width="0.5"
                stroke-linecap="round"
                stroke="black" />
            <path id="path43093"
                d="m 605.7639,3957.2089 -21.1424,5.6653 v 18.8624 a 6.4800463,4.9546781 0 0 0 -4.7475,-1.5824 6.4800463,4.9546781 0 0 0 -6.4797,4.9548 6.4800463,4.9546781 0 0 0 6.4797,4.9547 6.4800463,4.9546781 0 0 0 6.4254,-4.331 l 0.062,0.1328 v -13.0493 l 17.7488,-4.7553 v 12.4303 a 5.3939409,4.1242361 0 0 0 -3.3191,-0.8734 5.3939409,4.1242361 0 0 0 -5.394,4.1238 5.3939409,4.1242361 0 0 0 5.394,4.1243 5.3939409,4.1242361 0 0 0 5.3939,-4.1243 5.3939409,4.1242361 0 0 0 -0.4211,-1.5973 z"
                stroke-width="0.132291"
                stroke="black" />
            <path id="path43095"
                d="m 629.18104,3969.7197 c -0.53269,0.01 -1.2017,0.2243 -2.05514,0.7209 -4.55194,2.6482 -5.43022,3.2216 -5.43022,3.2216 0.25705,1.0504 0.31635,19.4406 0.32509,22.6564 a 4.2309766,5.5335431 53.701946 0 0 -5.19767,1.1054 4.2309766,5.5335431 53.701946 0 0 -1.9549,6.6859 4.2309766,5.5335431 53.701946 0 0 6.96439,0.1338 4.2309766,5.5335431 53.701946 0 0 2.10842,-6.4564 l 8e-5,-17.3644 c 0,0 2.09909,-3.2827 4.16144,-2.1233 2.06243,1.1593 4.67411,4.0026 6.28486,1.989 1.61098,-2.0136 1.92812,-6.5164 1.92812,-6.5164 0,0 -2.59925,5.5892 -3.96622,2.4406 -1.11038,-2.5582 -0.85991,-6.5184 -3.16825,-6.4931 z"
                stroke-width="0.132291"
                stroke="black" />
            <g id="g66080"
                transform="translate(3609.8472,3418.1151)"
                style="stroke-width:0.5">
                <path
                    d="m -2950.3125,675.70508 a 1.0584408,1.0584408 0 0 0 -1.0586,1.05859 v 21.41211 h -28.7422 v -20.44531 a 1.0584408,1.0584408 0 0 0 -1.1972,-1.04883 l -4.3848,0.58789 a 1.0584408,1.0584408 0 0 0 -0.918,1.04883 v 27.47461 a 1.0584408,1.0584408 0 0 0 1.0586,1.05859 h 40.2461 a 1.0584408,1.0584408 0 0 0 1.0586,-1.05859 v -29.0293 a 1.0584408,1.0584408 0 0 0 -1.0586,-1.05859 z m 1.0586,2.11719 h 2.8867 v 26.9121 h -38.1289 v -25.49023 l 2.2676,-0.30469 v 20.29492 a 1.0584408,1.0584408 0 0 0 1.0566,1.0586 h 30.8594 a 1.0584408,1.0584408 0 0 0 1.0586,-1.0586 z"
                    id="path66048"
                    stroke-width="0.5"
                    stroke-linecap="round"
                    stroke-linejoin="round"
                    stroke="black" />
                <path
                    d="m -2972.9883,705.21875 a 1.0583349,1.0583349 0 0 0 -0.748,1.29687 l 1.166,4.35547 a 1.0584408,1.0584408 0 0 0 0.998,0.78516 l 10.9571,0.26758 a 1.0584408,1.0584408 0 0 0 1.0722,-0.89844 l 0.6953,-4.54687 a 1.0583349,1.0583349 0 0 0 -0.8847,-1.20704 1.0583349,1.0583349 0 0 0 -1.2071,0.88672 l -0.5546,3.62696 -9.2364,-0.22657 -0.9609,-3.58984 a 1.0583349,1.0583349 0 0 0 -1.2969,-0.75 z"
                    id="path66050"
                    stroke-width="0.5"
                    stroke-linecap="round"
                    stroke-linejoin="round"
                    stroke="black" />
                <path
                    d="m -2973.7988,711.09766 a 1.0583349,1.0583349 0 0 0 -1.2051,0.88867 l -32.5137,215.24804 a 1.0583349,1.0583349 0 0 0 0.8887,1.20508 1.0583349,1.0583349 0 0 0 1.2031,-0.88867 l 32.5156,-215.24805 a 1.0583349,1.0583349 0 0 0 -0.8886,-1.20507 z"
                    id="path66052"
                    stroke-width="0.5"
                    stroke-linecap="round"
                    stroke-linejoin="round"
                    stroke="black" />
                <path
                    d="m -2968.6406,714.91797 a 1.0584408,1.0584408 0 0 0 -1.0469,0.90039 l -31.4102,209.3457 a 1.0583349,1.0583349 0 0 0 0.8887,1.20508 1.0583349,1.0583349 0 0 0 1.2031,-0.89062 l 31.2754,-208.44532 h 4.6817 l 26.4258,204.04102 a 1.0583349,1.0583349 0 0 0 1.1835,0.91406 1.0583349,1.0583349 0 0 0 0.9141,-1.18555 l -26.543,-204.96289 a 1.0584408,1.0584408 0 0 0 -1.0488,-0.92187 z"
                    id="path66054"
                    stroke-width="0.5"
                    stroke-linecap="round"
                    stroke-linejoin="round"
                    stroke="black" />
                <path
                    d="m -2958.0723,711.29492 a 1.0583349,1.0583349 0 0 0 -0.9941,1.11914 c 0.013,0.22287 0.046,0.44831 0.1074,0.92774 0.062,0.47942 0.1498,1.14082 0.2637,1.97656 0.2278,1.67148 0.5575,4.03686 0.9726,6.99414 0.8303,5.91456 2.0072,14.20309 3.4141,24.06836 2.8138,19.73053 6.5493,45.76488 10.2793,71.70898 7.46,51.88822 14.8984,103.41407 14.8984,103.41407 a 1.0583349,1.0583349 0 0 0 1.1973,0.89648 1.0583349,1.0583349 0 0 0 0.8965,-1.19922 c 0,0 -7.4386,-51.5247 -14.8984,-103.41211 -3.73,-25.9437 -7.4639,-51.97806 -10.2774,-71.70703 -1.4068,-9.86448 -2.5842,-18.15286 -3.4141,-24.06445 -0.4149,-2.9558 -0.7436,-5.31825 -0.9707,-6.98438 -0.1135,-0.83306 -0.2009,-1.49232 -0.2617,-1.96289 -0.061,-0.47056 -0.096,-0.8229 -0.094,-0.78125 a 1.0583349,1.0583349 0 0 0 -1.1192,-0.99414 z"
                    id="path66056"
                    stroke-width="0.5"
                    stroke-linecap="round"
                    stroke-linejoin="round"
                    stroke="black" />
                <path
                    d="m -2973.7207,710.58789 a 1.0583349,1.0583349 0 0 0 -1.0684,1.04688 1.0583349,1.0583349 0 0 0 1.0469,1.07031 l 15.291,0.1582 a 1.0583349,1.0583349 0 0 0 1.0703,-1.04687 1.0583349,1.0583349 0 0 0 -1.0488,-1.07032 z"
                    id="path66058"
                    stroke-width="0.5"
                    stroke-linecap="round"
                    stroke-linejoin="round"
                    stroke="black" />
                <path
                    d="m -2981.2051,622.10352 a 1.0584408,1.0584408 0 0 0 -1.0586,1.05859 v 54.03516 a 1.0583349,1.0583349 0 0 0 1.0586,1.05859 1.0583349,1.0583349 0 0 0 1.0586,-1.05859 v -52.97852 h 29.1797 l -0.5273,53.0918 a 1.0583349,1.0583349 0 0 0 1.0488,1.06836 1.0583349,1.0583349 0 0 0 1.0683,-1.04688 l 0.5372,-54.16016 a 1.0584408,1.0584408 0 0 0 -1.0586,-1.06835 z"
                    id="path66060"
                    stroke-width="0.5"
                    stroke-linecap="round"
                    stroke-linejoin="round"
                    stroke="black" />
                <path
                    d="m -2981.3416,622.31511 -3.5218,0.82875 0.4142,54.46802 2.8131,-0.53501 z"
                    id="path66062"
                    stroke-width="1.05833"
                    stroke-linecap="round"
                    stroke-linejoin="round"
                    stroke="black" />
                <path id="path66064"
                    d="m -2971.9038,631.96588 a 2.0654676,2.0654676 0 0 1 -2.0654,2.06547 2.0654676,2.0654676 0 0 1 -2.0655,-2.06547 2.0654676,2.0654676 0 0 1 2.0655,-2.06547 2.0654676,2.0654676 0 0 1 2.0654,2.06547 z"
                    stroke-width="0.132291"
                    stroke="black" />
                <path id="path66066"
                    d="m -2972.1052,638.00061 a 2.0654676,2.0654676 0 0 1 -2.0655,2.06547 2.0654676,2.0654676 0 0 1 -2.0654,-2.06547 2.0654676,2.0654676 0 0 1 2.0654,-2.06547 2.0654676,2.0654676 0 0 1 2.0655,2.06547 z"
                    stroke-width="0.132291"
                    stroke="black" />
                <path id="path66068"
                    d="m -2965.7473,634.5592 a 2.0654676,2.0654676 0 0 1 -2.0654,2.06547 2.0654676,2.0654676 0 0 1 -2.0655,-2.06547 2.0654676,2.0654676 0 0 1 2.0655,-2.06546 2.0654676,2.0654676 0 0 1 2.0654,2.06546 z"
                    stroke-width="0.132291"
                    stroke="black" />
                <path
                    d="m -2974.7695,626.25586 c -2.3519,0 -4.2793,1.92546 -4.2793,4.27734 v 8.88867 c 0,2.35189 1.9274,4.27735 4.2793,4.27735 h 7.8496 c 2.3519,0 4.2773,-1.92546 4.2773,-4.27735 v -8.88867 c 0,-2.35188 -1.9254,-4.27734 -4.2773,-4.27734 z m 0,2.11523 h 7.8496 c 1.2159,0 2.1621,0.94622 2.1621,2.16211 v 8.88867 c 0,1.21588 -0.9462,2.16016 -2.1621,2.16016 h -7.8496 c -1.2159,0 -2.1621,-0.94428 -2.1621,-2.16016 v -8.88867 c 0,-1.21589 0.9462,-2.16211 2.1621,-2.16211 z"
                    id="path66070"
                    stroke-width="0.5"
                    stroke="black" />
                <path
                    d="m -2995.3184,645.48828 a 1.0583349,1.0583349 0 0 0 -0.8066,0.0742 l -12.166,6.40234 a 1.0583349,1.0583349 0 0 0 -0.4434,1.42969 1.0583349,1.0583349 0 0 0 1.4297,0.44336 l 12.166,-6.40234 a 1.0583349,1.0583349 0 0 0 0.4434,-1.42969 1.0583349,1.0583349 0 0 0 -0.6231,-0.51758 z"
                    id="path66072"
                    stroke-width="0.5"
                    stroke-linecap="round"
                    stroke-linejoin="round"
                    stroke="black" />
                <path
                    d="m -3009.0918,628.41797 a 1.0583349,1.0583349 0 0 0 -1.2031,0.89062 1.0583349,1.0583349 0 0 0 0.8906,1.20313 l 12.4258,1.8457 a 1.0583349,1.0583349 0 0 0 1.2031,-0.89062 1.0583349,1.0583349 0 0 0 -0.8906,-1.20313 z"
                    id="path66074"
                    stroke-width="0.5"
                    stroke-linecap="round"
                    stroke-linejoin="round"
                    stroke="black" />
                <path
                    d="m -3001.5879,607.27344 a 1.0583349,1.0583349 0 0 0 -1.4609,0.32617 1.0583349,1.0583349 0 0 0 0.3261,1.46094 l 11.8926,7.54297 a 1.0583349,1.0583349 0 0 0 1.461,-0.32813 1.0583349,1.0583349 0 0 0 -0.3282,-1.45898 z"
                    id="path66076"
                    stroke-width="0.5"
                    stroke-linecap="round"
                    stroke-linejoin="round"
                    stroke="black" />
                <path
                    d="m -2984.4293,677.36539 -5.0157,-0.41492 0.2319,28.87382 4.0881,0.89089 -0.5369,-27.61687 z"
                    id="path66078"
                    stroke-width="1.05833"
                    stroke-linecap="round"
                    stroke-linejoin="round"
                    stroke="black" />
            </g>
        </g>
    </g>
</svg>