<?xml version="1.0" encoding="UTF-8" standalone="no"?>
<!-- Created with Inkscape (http://www.inkscape.org/) -->

<svg width="100%" height="100%"
    viewBox="0 0 448.72096 687.67084"
    version="1.1" id="svg5"
    xml:space="preserve"
    xmlns="http://www.w3.org/2000/svg"
    xmlns:svg="http://www.w3.org/2000/svg">
    <defs id="defs2" />
    <g id="layer1"
        transform="translate(-2899.7039,-5167.4633)">
        <g id="notion-selfie-in-front-camera"
            transform="matrix(2,0,0,2,-394.08685,-88.124184)"
            style="stroke-width:0.5">
            <title id="title94616">
                notion-selfie-in-front-camera
            </title>
            <g id="g42514"
                transform="translate(4389.0186,2551.5056)"
                style="stroke-width:0.5">
                <path
                    d="m -2633.5705,116.4109 c -5.1814,34.09281 -41.0551,59.39054 -72.7303,50.75171 -14.858,-4.72014 -18.7777,-6.3209 -19.2497,-10.32275 -0.472,-4.00185 14.0849,-16.62715 19.2702,-26.1249 5.7281,-10.49209 4.5931,-24.78834 12.7648,-33.512973 9.9416,-10.614383 28.0127,-19.208882 39.6692,-18.162244 11.6565,1.046639 19.6807,13.27793 19.6807,13.27793 0,0 0.2667,-5.294763 -2.1549,-9.296612 -2.4216,-4.001849 -0.472,-9.912271 1.7034,-4.658572 2.1754,5.253726 2.2574,13.277956 2.4626,11.574595 0.2053,-1.703335 2.6474,-13.64734 5.0074,-12.210785 2.36,1.436581 3.7966,3.570896 1.2929,8.988795 -2.5037,5.417873 15.9337,-11.80056 29.9828,-4.986946 34.473,11.564455 26.4295,41.767602 41.0441,62.264762 5.6231,7.28543 16.151,10.50742 12.2107,19.04471 -1.3788,2.98742 -27.2328,7.26488 -37.4938,4.4328 -26.5511,-3.26654 -48.5423,-22.06935 -53.4601,-51.05952 z"
                    id="path42422"
                    stroke-width="1.05833"
                    stroke-linecap="round"
                    stroke-linejoin="round"
                    stroke="black" />
                <path
                    d="m -2698.3516,166.58789 a 1.0583349,1.0583349 0 0 0 -1.1211,0.99219 c 0,0 -0.2942,4.96737 1.4903,11.68554 0.8773,3.30309 1.8699,6.67646 3.1738,9.46875 1.304,2.7923 2.9202,5.10047 5.3145,5.94922 1.8727,0.66393 3.0358,1.28844 3.7089,1.72266 0.5378,0.34686 0.5761,0.41928 0.627,0.47461 0.062,0.32995 1.1209,5.93132 2.6406,12.8125 1.5637,7.08045 3.5016,15.07925 5.2285,19.16992 3.4267,8.11702 11.3243,15.24805 11.3243,15.24805 a 1.0583349,1.0583349 0 0 0 1.4941,-0.0664 1.0583349,1.0583349 0 0 0 -0.068,-1.49609 c 0,0 -7.6584,-7.06893 -10.7988,-14.50781 -1.5566,-3.6873 -3.5576,-11.7587 -5.1133,-18.80274 -1.5556,-7.04403 -2.7031,-13.12109 -2.7031,-13.12109 a 1.0584408,1.0584408 0 0 0 -0.2344,-0.49024 c 0,0 -0.4199,-0.46454 -1.25,-1 -0.8301,-0.53545 -2.1426,-1.2264 -4.1484,-1.9375 -1.4844,-0.52622 -2.9038,-2.28045 -4.1035,-4.84961 -1.1998,-2.56915 -2.178,-5.85509 -3.0449,-9.11914 -1.7043,-6.41605 -1.4239,-11.01367 -1.4239,-11.01367 a 1.0583349,1.0583349 0 0 0 -0.9922,-1.11914 z"
                    id="path42424"
                    stroke-width="0.5"
                    stroke-linecap="round"
                    stroke-linejoin="round"
                    stroke="black" />
                <path
                    d="m -2585.6674,166.65905 c 0.1231,1.66233 -0.7183,21.87681 -0.7183,21.87681 0,0 2.4627,0.18471 2.832,-1.78543 0.3694,-1.97017 4.2686,-20.64547 4.2686,-20.64547 z"
                    id="path42426"
                    stroke-width="1.05833"
                    stroke-linecap="round"
                    stroke-linejoin="round"
                    stroke="black" />
                <path
                    d="m -2571.3418,167.27344 a 1.0583349,1.0583349 0 0 0 -1.1934,0.90234 c -0.053,0.38689 -0.021,0.67994 0.01,1.13086 0.031,0.45092 0.08,1.0041 0.1348,1.63867 0.1097,1.26915 0.24,2.86573 0.289,4.54883 0.098,3.36621 -0.2324,7.08931 -1.4082,8.94531 -1.1389,1.79797 -4.7054,3.76223 -7.9843,5.24805 -1.6395,0.74291 -3.197,1.39663 -4.3848,1.98633 -0.5939,0.29485 -1.0932,0.56729 -1.5078,0.8789 -0.2073,0.15581 -0.3979,0.31809 -0.5723,0.55664 -0.1744,0.23856 -0.3527,0.6114 -0.2988,1.05469 -0.027,-0.22121 -0.01,0.0234 -0.049,0.28125 -0.042,0.25786 -0.1141,0.62477 -0.211,1.07227 -0.1937,0.895 -0.4876,2.11946 -0.8515,3.56836 -0.728,2.89779 -1.7382,6.69607 -2.8145,10.64258 -2.1526,7.89301 -4.5723,16.39689 -5.5156,19.48046 -0.8734,2.85489 -3.1249,6.04029 -5.1699,8.44922 -2.0451,2.40893 -3.8477,4.04688 -3.8477,4.04688 a 1.0583349,1.0583349 0 0 0 -0.072,1.49609 1.0583349,1.0583349 0 0 0 1.4961,0.0703 c 0,0 1.9008,-1.72575 4.0371,-4.24218 2.1364,-2.51643 4.5449,-5.81731 5.5801,-9.20118 0.9652,-3.15518 3.3781,-11.63379 5.5352,-19.54296 1.0785,-3.95459 2.0919,-7.76075 2.8261,-10.6836 0.3672,-1.46142 0.6626,-2.70042 0.8653,-3.63672 0.1013,-0.46814 0.1803,-0.85956 0.2324,-1.17773 0.029,-0.17534 0.02,-0.33942 0.033,-0.48438 0.023,-0.0219 0.014,-0.0181 0.068,-0.0586 0.2122,-0.15952 0.6368,-0.40528 1.1777,-0.67383 1.0818,-0.5371 2.6441,-1.19729 4.3164,-1.95508 3.3446,-1.51556 7.1663,-3.30553 8.9004,-6.04296 1.6974,-2.67944 1.8384,-6.63186 1.7363,-10.14063 -0.051,-1.75438 -0.1885,-3.39431 -0.2988,-4.66992 -0.055,-0.63781 -0.1027,-1.18408 -0.1309,-1.59766 -0.028,-0.41358 -0.016,-0.75066 -0.023,-0.69726 a 1.0583349,1.0583349 0 0 0 -0.9043,-1.19336 z"
                    id="path42428"
                    stroke-width="0.5"
                    stroke-linecap="round"
                    stroke-linejoin="round"
                    stroke="black" />
                <path
                    d="m -2689.1809,167.0695 c 0,1.90857 2.6064,20.00927 2.6064,20.00927 0,0 1.847,1.37499 1.7033,-0.12313 -0.1437,-1.49813 0.513,-20.39919 0.513,-20.39919 z"
                    id="path42430"
                    stroke-width="1.05833"
                    stroke-linecap="round"
                    stroke-linejoin="round"
                    stroke="black" />
                <path
                    d="m -2703.6978,165.24771 c -0.3797,0.79013 -9.7378,13.20614 -2.6166,23.79565 4.6014,6.84254 6.9878,5.48973 6.9878,5.48973 0,0 -6.2592,3.72479 -2.555,11.56431 3.7042,7.83955 8.5783,7.93189 8.5783,7.93189 0,0 -3.9288,5.60712 -0.9236,9.38897 5.7551,7.24225 5.736,7.31621 10.887,6.96733 5.1511,-0.34888 6.2182,-2.02147 6.2182,-2.02147 0,0 -2.4318,-10.32272 -2.5242,-11.08205 -0.092,-0.75933 -4.9253,-21.5587 -4.9253,-21.5587 0,0 -6.6492,-2.59606 -7.2033,-3.41696 -0.5541,-0.82089 -5.1305,-11.71826 -5.5409,-13.70891 -0.4105,-1.99067 -0.9133,-11.79007 -0.9133,-11.79007 z"
                    id="path42432"
                    stroke-width="1.05833"
                    stroke-linecap="round"
                    stroke-linejoin="round"
                    stroke="black" />
                <path
                    d="m -2568.3033,166.36619 c 0.8106,1.16977 4.8905,1.71855 6.1977,7.71638 1.1271,5.17135 0.3078,15.81246 -3.2938,18.57272 -3.6016,2.76027 -6.8852,6.22851 -5.7154,8.5065 1.1697,2.27798 2.0419,9.86098 -1.1083,13.45238 -3.1501,3.59141 -7.8291,4.24813 -7.8291,4.24813 0,0 0.3476,7.59327 -1.3853,10.76396 -2.7704,5.06901 -7.4495,6.64924 -11.1332,4.86378 -3.6837,-1.78543 -4.166,-1.78543 -4.0428,-3.06808 0.1231,-1.28265 6.9365,-24.98593 7.0185,-25.70422 0.082,-0.71826 3.0476,-11.5951 3.0476,-11.5951 l 12.2619,-7.02892 c 0,0 2.986,-5.78728 3.1399,-6.76209 0.1539,-0.9748 -0.092,-14.32459 -0.092,-14.32459 z"
                    id="path42434"
                    stroke-width="1.05833"
                    stroke-linecap="round"
                    stroke-linejoin="round"
                    stroke="black" />
                <g id="path42436"
                    style="stroke-width:0.5">
                    <path
                        d="m -2656.448,149.59586 9.7951,2.62456"
                        id="path76163"
                        stroke-width="1.05833"
                        stroke-linecap="round"
                        stroke-linejoin="round"
                        stroke="black" />
                    <path
                        d="m -2656.1738,148.57422 a 1.0583349,1.0583349 0 0 0 -1.2969,0.74805 1.0583349,1.0583349 0 0 0 0.748,1.29492 l 9.795,2.625 a 1.0583349,1.0583349 0 0 0 1.2968,-0.74805 1.0583349,1.0583349 0 0 0 -0.748,-1.29687 z"
                        id="path76165"
                        stroke-width="0.5"
                        stroke-linecap="round"
                        stroke-linejoin="round"
                        stroke="black" />
                </g>
                <path
                    d="m -2614.7578,148.20898 c -10.388,6.549 -13.9461,15.07832 -14.1641,23.05274 -0.2179,7.97442 2.7674,15.38606 5.1289,20.17578 a 1.0583349,1.0583349 0 0 0 1.418,0.48047 1.0583349,1.0583349 0 0 0 0.4805,-1.41797 c -2.2891,-4.64284 -5.1126,-11.77413 -4.9102,-19.17969 0.2024,-7.40556 3.2945,-15.09272 13.1758,-21.32226 a 1.0583349,1.0583349 0 0 0 0.332,-1.45899 1.0583349,1.0583349 0 0 0 -1.4609,-0.33008 z"
                    id="path42438"
                    stroke-width="0.5"
                    stroke-linecap="round"
                    stroke-linejoin="round"
                    stroke="black" />
                <path
                    d="m -2595.998,166.68945 a 1.0583349,1.0583349 0 0 0 -1.0704,1.04688 c -0.086,7.27122 -4.8241,11.03805 -9.2812,11.23828 -2.2286,0.10011 -4.3712,-0.68624 -5.9453,-2.46094 -1.5741,-1.77469 -2.617,-4.59348 -2.3906,-8.70703 a 1.0583349,1.0583349 0 0 0 -0.9981,-1.11523 1.0583349,1.0583349 0 0 0 -1.1152,0.99804 c -0.2492,4.52807 0.912,7.9648 2.9199,10.22852 2.0079,2.26372 4.8245,3.29768 7.625,3.17187 5.6009,-0.2516 11.2058,-5.1254 11.3027,-13.33007 a 1.0583349,1.0583349 0 0 0 -1.0468,-1.07032 z"
                    id="path42440"
                    stroke-width="0.5"
                    stroke-linecap="round"
                    stroke-linejoin="round"
                    stroke="black" />
                <path
                    d="m -2647.6543,166.71094 a 1.0583349,1.0583349 0 0 0 -1.0488,1.06836 c 0.052,5.11141 -1.1823,8.80006 -2.9727,11.16406 -1.7904,2.364 -4.1085,3.44188 -6.4922,3.41016 -4.7674,-0.0635 -10.1135,-4.74433 -10.9336,-14.67188 a 1.0583349,1.0583349 0 0 0 -1.1425,-0.96875 1.0583349,1.0583349 0 0 0 -0.9668,1.14258 c 0.8788,10.64001 6.8955,16.53186 13.0136,16.61328 3.0591,0.0407 6.064,-1.41583 8.209,-4.24805 2.145,-2.83221 3.4581,-7.0008 3.4024,-12.46289 a 1.0583349,1.0583349 0 0 0 -1.0684,-1.04687 z"
                    id="path42442"
                    stroke-width="0.5"
                    stroke-linecap="round"
                    stroke-linejoin="round"
                    stroke="black" />
                <path
                    d="m -2663.5742,190.1875 a 1.0584408,1.0584408 0 0 0 -1.0586,1.07031 l 0.7949,65.23633 a 1.0583349,1.0583349 0 0 0 1.0703,1.04492 1.0583349,1.0583349 0 0 0 1.0469,-1.07226 l -0.7813,-64.16407 h 55 l -1.5429,109.82422 -46.1426,1.20703 a 1.0583349,1.0583349 0 0 0 -1.0313,1.08594 1.0583349,1.0583349 0 0 0 1.086,1.0293 l 47.1582,-1.23242 a 1.0584408,1.0584408 0 0 0 1.0312,-1.04297 l 1.5743,-111.91406 a 1.0584408,1.0584408 0 0 0 -1.0586,-1.07227 z"
                    id="path42444"
                    stroke-width="0.5"
                    stroke-linecap="round"
                    stroke-linejoin="round"
                    stroke="black" />
                <path
                    d="m -2633.7012,236.85937 c -0.4696,0.0821 -0.6066,0.20381 -0.9511,0.38282 -0.3446,0.17901 -0.7699,0.4187 -1.2754,0.71484 -1.0112,0.59228 -2.3406,1.4108 -3.8848,2.38281 -3.0885,1.94403 -7.0311,4.49983 -10.9199,7.04688 -7.7777,5.09409 -15.336,10.14844 -15.336,10.14844 a 1.0583349,1.0583349 0 0 0 -0.291,1.46875 1.0583349,1.0583349 0 0 0 1.4688,0.29101 c 0,0 7.5498,-5.04992 15.3164,-10.13672 3.8833,-2.5434 7.8208,-5.09633 10.8887,-7.02734 1.5339,-0.96551 2.8527,-1.77635 3.8281,-2.34766 0.4876,-0.28565 0.8899,-0.51156 1.1797,-0.66211 0.1885,-0.098 0.1794,-0.0945 0.2226,-0.11523 0.04,0.042 0.073,0.0667 0.1426,0.18555 0.2078,0.35228 0.4364,1.00319 0.582,1.69336 0.1457,0.69017 0.2229,1.42975 0.2227,1.99218 -1e-4,0.28122 -0.021,0.52086 -0.047,0.66016 -0.026,0.1393 -0.1067,0.16634 0.064,-0.0195 -0.2384,0.25896 -0.3701,0.47581 -0.6563,0.88867 -0.2862,0.41286 -0.6556,0.95434 -1.0957,1.5918 -0.8801,1.27491 -2.0407,2.93142 -3.3437,4.65625 -2.6061,3.44964 -5.8691,7.18447 -8.2793,8.59179 -2.7747,1.62014 -4.0246,2.61285 -4.6817,3.36524 -0.3285,0.37619 -0.5347,0.70965 -0.6015,1.125 -0.034,0.20767 -0.019,0.43406 0.047,0.6289 0.066,0.19485 0.2676,0.44336 0.2676,0.44336 a 1.0584408,1.0584408 0 0 0 1.3535,0.13086 c 0,0 6.4046,-4.38094 13.1348,-9.24023 3.3651,-2.42965 6.8113,-4.97924 9.5898,-7.16992 1.3893,-1.09535 2.6124,-2.10006 3.5821,-2.96485 0.9697,-0.86479 1.6729,-1.54494 2.1152,-2.20312 1.2017,-1.78817 2.3067,-2.71537 3.0723,-3.19922 0.611,-0.38621 0.7516,-0.38461 0.8554,-0.40625 0.1634,0.0522 0.6,0.16076 0.9024,0.61328 0.1787,0.26738 0.313,0.61304 0.2246,1.2832 -0.088,0.67017 -0.4409,1.6621 -1.3242,3 -1.7682,2.67803 -7.1663,8.99806 -12.3653,14.70508 -2.5994,2.85351 -5.1628,5.57382 -7.2246,7.66406 -0.2161,0.21907 -0.3521,0.33837 -0.5566,0.54297 -3.1867,2.56705 -5.9784,4.81942 -6.9688,5.61524 -1.1356,0.87737 -1.9341,1.55484 -1.9648,1.58203 -6e-4,5.5e-4 -0.037,0.0293 -0.037,0.0293 a 1.0584408,1.0584408 0 0 0 1.3613,1.62109 c 0,0 0.037,-0.0312 0.037,-0.0312 0,0 0.019,-0.0136 0.02,-0.0137 0.02,-0.0177 2.7009,-2.35965 5.0918,-3.73242 0.525,-0.30149 1.0459,-0.76568 1.8007,-1.4629 0.5715,-0.52789 1.3178,-1.27424 2.0625,-2.01757 1.6733,-1.34795 1.8063,-1.44966 3.6465,-2.93555 3.1944,-2.57933 6.4184,-5.18991 8.9063,-7.21875 1.2439,-1.01442 2.3041,-1.8844 3.0859,-2.5332 0.7818,-0.6488 1.1806,-0.96299 1.4766,-1.26758 0.7657,-0.78793 1.3534,-1.12422 1.666,-1.2168 0.3126,-0.0926 0.3163,-0.0479 0.4082,0.0254 0.092,0.0733 0.2437,0.29838 0.3262,0.60352 0.082,0.30513 0.092,0.6715 0.057,0.8789 0.028,-0.16422 2e-4,-0.0114 -0.088,0.16016 -0.088,0.17153 -0.2278,0.41485 -0.4062,0.70703 -0.357,0.58437 -0.8707,1.36543 -1.4903,2.26953 -1.2391,1.80821 -2.9011,4.11523 -4.625,6.44532 -1.7238,2.33008 -3.5108,4.68509 -5.0039,6.5996 -1.4931,1.91452 -2.7332,3.42695 -3.2012,3.91211 -3.861,4.00328 -11.3891,9.95648 -11.4121,9.97461 0,10e-6 -0.01,0.006 -0.01,0.006 0,1e-5 0,0.004 0,0.004 a 1.0584408,1.0584408 0 0 0 1.3066,1.66406 c 0,0 0,-0.002 0,-0.002 0,0 0.012,-0.01 0.012,-0.01 0.015,-0.012 4.6682,-3.64695 9.5313,-7.05273 2.4355,-1.7057 4.9242,-3.35105 6.8594,-4.42969 0.9675,-0.53932 1.8043,-0.93509 2.3613,-1.11914 0.1625,-0.0537 0.2205,-0.0554 0.3203,-0.0742 0.058,0.11906 0.1396,0.20904 0.1289,0.43555 -0.016,0.34825 -0.1584,0.86064 -0.4434,1.45703 -0.5699,1.19278 -1.6794,2.69471 -2.9746,4.1875 -2.5903,2.98559 -5.8676,5.93819 -7.2558,7.38281 -0.8022,0.8348 -2.7763,2.35812 -5.1895,4.04297 -2.4132,1.68485 -5.2947,3.57728 -8.0605,5.34766 -5.4461,3.48601 -10.2805,6.3998 -10.4336,6.49218 l -8.0196,1.30665 c -10.6939,-6.86892 -17.1395,-16.65329 -22.748,-27.20313 a 1.0584408,1.0584408 0 0 0 -0.021,-0.0234 c 0.01,-0.11412 0.035,-0.34494 0.1211,-0.67578 0.1857,-0.71337 0.5724,-1.77885 1.1055,-3.03906 1.0662,-2.52042 2.7166,-5.84972 4.5586,-9.20117 1.842,-3.35145 3.8783,-6.73219 5.709,-9.37305 0.9153,-1.32043 1.7808,-2.45738 2.5273,-3.29883 0.7465,-0.84144 1.4224,-1.37869 1.6855,-1.49804 2.1045,-0.95445 4.382,-2.91901 6.2325,-4.66016 1.8505,-1.74115 3.2324,-3.26953 3.2324,-3.26953 a 1.0583349,1.0583349 0 0 0 -0.076,-1.49414 1.0583349,1.0583349 0 0 0 -1.4961,0.0762 c 0,0 -1.3265,1.46895 -3.1093,3.14648 -1.7829,1.67754 -4.0641,3.5524 -5.6583,4.27539 -0.8444,0.38298 -1.559,1.08001 -2.3925,2.01954 -0.8335,0.93952 -1.7368,2.13031 -2.6836,3.49609 -1.8936,2.73156 -3.9567,6.15906 -5.8262,9.56055 -1.8695,3.40148 -3.5416,6.77067 -4.6523,9.39648 -0.5554,1.31291 -0.9714,2.43212 -1.2051,3.33008 -0.1169,0.44898 -0.1938,0.83706 -0.1992,1.23437 -0.01,0.39732 0.026,0.99711 0.6523,1.39063 l -0.3711,-0.39844 c 5.7234,10.766 12.4358,21.05564 23.7754,28.2207 a 1.0584408,1.0584408 0 0 0 0.7344,0.15039 l 8.6777,-1.41601 a 1.0584408,1.0584408 0 0 0 0.375,-0.13867 c 0,0 5.0862,-3.06592 10.6465,-6.625 2.7801,-1.77954 5.679,-3.68271 8.1309,-5.39453 2.4518,-1.71182 4.4265,-3.1874 5.5058,-4.31055 1.2221,-1.27175 4.6127,-4.33319 7.3281,-7.46289 1.3577,-1.56485 2.5617,-3.14795 3.2852,-4.66211 0.3617,-0.75708 0.6122,-1.50204 0.6484,-2.26953 0.036,-0.76749 -0.1941,-1.58889 -0.75,-2.19727 -0.3867,-0.42325 -0.914,-0.51519 -1.3144,-0.50586 -0.4004,0.009 -0.7673,0.10133 -1.1641,0.23242 -0.7935,0.2622 -1.6991,0.7055 -2.7285,1.2793 -0.7057,0.39336 -1.621,1.06112 -2.4141,1.5586 0.6301,-0.75715 1.1156,-1.30096 2.0293,-2.47266 1.5073,-1.93265 3.3011,-4.30059 5.0352,-6.64453 1.7341,-2.34394 3.4064,-4.66209 4.6699,-6.50586 0.6318,-0.92189 1.1602,-1.72385 1.5508,-2.36328 0.1953,-0.31972 0.3558,-0.59726 0.4824,-0.84375 0.1266,-0.2465 0.2292,-0.4081 0.291,-0.76758 0.099,-0.57364 0.065,-1.18164 -0.1,-1.79102 -0.1646,-0.60937 -0.4634,-1.23836 -1.0488,-1.70507 -0.5854,-0.46672 -1.4864,-0.65028 -2.3301,-0.4004 -0.8437,0.24989 -1.6637,0.82651 -2.582,1.77149 0.056,-0.0574 -0.5394,0.47166 -1.3125,1.11328 -0.7731,0.64162 -1.8289,1.50914 -3.0703,2.52148 -0.2484,0.20254 -0.6282,0.5071 -0.8906,0.72071 4.3532,-4.87137 8.5011,-9.71052 10.1855,-12.26172 1.0021,-1.51774 1.5121,-2.78092 1.6582,-3.88867 0.1461,-1.10775 -0.1131,-2.06098 -0.5645,-2.73633 -0.9026,-1.35071 -2.3964,-1.62109 -2.3964,-1.62109 a 1.0584408,1.0584408 0 0 0 -0.3809,-0.008 c 0,0 -0.8458,0.15861 -1.8711,0.80664 -1.0253,0.64804 -2.3503,1.80143 -3.6992,3.8086 -0.1953,0.29065 -0.8496,0.98794 -1.7676,1.80664 -0.918,0.81869 -2.1139,1.80186 -3.4824,2.88086 -2.7371,2.158 -6.1662,4.69546 -9.5176,7.11523 0,0.003 -0.01,0.002 -0.01,0.006 0.5603,-0.70048 1.173,-1.36456 1.6973,-2.05859 1.3314,-1.76236 2.509,-3.44296 3.3965,-4.72852 0.4437,-0.64278 0.8154,-1.18644 1.0937,-1.58789 0.2784,-0.40144 0.5342,-0.72886 0.4727,-0.66211 0.3481,-0.37807 0.3982,-0.70161 0.459,-1.0293 0.061,-0.32768 0.082,-0.67052 0.082,-1.04296 2e-4,-0.74488 -0.091,-1.59636 -0.2676,-2.43164 -0.1762,-0.83529 -0.4231,-1.64353 -0.8281,-2.33008 -0.2025,-0.34328 -0.4461,-0.66783 -0.8086,-0.92578 -0.3625,-0.25795 -0.8961,-0.42088 -1.4043,-0.33204 z"
                    id="path42446"
                    stroke-width="0.5"
                    stroke-linecap="round"
                    stroke-linejoin="round"
                    stroke="black" />
                <path
                    d="m -2678.1074,252.82227 c 0,0 -10.854,1.51642 -13.2129,10.80664 -2.2656,8.92249 1.4629,14.875 1.4629,14.875 a 1.0583349,1.0583349 0 0 0 1.4629,0.32421 1.0583349,1.0583349 0 0 0 0.3222,-1.46093 c 0,0 -3.2761,-5.02977 -1.1972,-13.2168 1.9854,-7.81927 11.4629,-9.23242 11.4629,-9.23242 a 1.0583349,1.0583349 0 0 0 0.8984,-1.19922 1.0583349,1.0583349 0 0 0 -1.1992,-0.89648 z"
                    id="path42448"
                    stroke-width="0.5"
                    stroke-linecap="round"
                    stroke-linejoin="round"
                    stroke="black" />
                <path
                    d="m -2691.3438,272.44727 a 1.0583349,1.0583349 0 0 0 -0.8046,0.10546 c -5.2293,3.0166 -10.2907,6.03052 -14.336,10.92774 -4.0453,4.89721 -7.0074,11.64295 -8.164,21.91797 a 1.0584408,1.0584408 0 0 0 0.166,0.69726 c 0,0 3.8509,5.87898 9.6289,11.61524 5.778,5.73625 13.5281,11.49427 21.6406,10.85156 15.6547,-1.24026 26.4121,-14.49219 26.4121,-14.49219 a 1.0584408,1.0584408 0 0 0 -0.039,-1.38672 l -6.8204,-7.44336 a 1.0583349,1.0583349 0 0 0 -1.4961,-0.0645 1.0583349,1.0583349 0 0 0 -0.064,1.49414 l 6.1602,6.72461 c -1.5608,1.77974 -11.003,12.00172 -24.3184,13.05664 -6.9832,0.55323 -14.3837,-4.68398 -19.9824,-10.24219 -5.3463,-5.30758 -8.7998,-10.47237 -9.1192,-10.95312 1.1539,-9.74074 3.9173,-15.93443 7.6289,-20.42774 3.764,-4.55661 8.5513,-7.43564 13.7618,-10.4414 a 1.0583349,1.0583349 0 0 0 0.3886,-1.44727 1.0583349,1.0583349 0 0 0 -0.6426,-0.49218 z"
                    id="path42450"
                    stroke-width="0.5"
                    stroke-linecap="round"
                    stroke-linejoin="round"
                    stroke="black" />
                <path
                    d="m -2682.0254,247.22461 c 0,0 -2.4755,0.566 -6.0156,2.51758 -3.5402,1.95158 -8.2247,5.30805 -12.8613,10.92187 -4.761,5.7643 -5.1839,11.98216 -4.3008,16.82617 0.4415,2.42201 1.1966,4.51638 1.8828,6.10547 0.6862,1.58909 1.3532,2.79132 1.4355,2.97852 a 1.0583349,1.0583349 0 0 0 1.3946,0.54297 1.0583349,1.0583349 0 0 0 0.5429,-1.39453 c -0.2532,-0.57553 -0.788,-1.479 -1.4297,-2.96485 -0.6416,-1.48584 -1.3405,-3.43458 -1.7441,-5.64844 -0.8071,-4.4277 -0.4791,-9.8523 3.8516,-15.0957 4.4549,-5.39384 8.9165,-8.57837 12.25,-10.41601 3.3334,-1.83765 5.459,-2.3086 5.459,-2.3086 a 1.0583349,1.0583349 0 0 0 0.7988,-1.26562 1.0583349,1.0583349 0 0 0 -1.2637,-0.79883 z"
                    id="path42452"
                    stroke-width="0.5"
                    stroke-linecap="round"
                    stroke-linejoin="round"
                    stroke="black" />
                <path
                    d="m -2632.5508,303.66211 a 1.0583349,1.0583349 0 0 0 -1.1504,0.95703 c -0.69,7.57083 -4.286,18.02275 -9.6836,24.76367 -5.2858,-6.20168 -8.6549,-14.88313 -11.205,-24.63086 a 1.0583349,1.0583349 0 0 0 -1.293,-0.75586 1.0583349,1.0583349 0 0 0 -0.7559,1.29297 c 2.7239,10.41183 6.302,19.92269 12.5137,26.60352 a 1.0584408,1.0584408 0 0 0 1.5703,-0.0215 c 6.3239,-7.18673 10.1926,-18.63033 10.9609,-27.06054 a 1.0583349,1.0583349 0 0 0 -0.957,-1.14844 z"
                    id="path42454"
                    stroke-width="0.5"
                    stroke-linecap="round"
                    stroke-linejoin="round"
                    stroke="black" />
                <path
                    d="m -2610.6953,302.58594 a 1.0583349,1.0583349 0 0 0 -1.4434,0.39843 c 0,0 -8.0622,14.19169 -12.664,20.82422 -2.2557,3.25098 -6.5344,7.97686 -10.8594,11.5293 -2.1625,1.77622 -4.3442,3.26307 -6.2442,4.14063 -1.8999,0.87755 -3.4507,1.08337 -4.4003,0.69726 -1.077,-0.43787 -2.9455,-1.90431 -4.918,-3.83984 -1.9726,-1.93553 -4.1178,-4.3367 -6.0918,-6.66992 -3.948,-4.66645 -7.2109,-9.0586 -7.2109,-9.0586 a 1.0583349,1.0583349 0 0 0 -1.4805,-0.21875 1.0583349,1.0583349 0 0 0 -0.2188,1.48047 c 0,0 3.2954,4.43676 7.295,9.16406 1.9997,2.36366 4.1757,4.80207 6.2246,6.8125 2.0489,2.01044 3.9041,3.59811 5.6035,4.28907 1.8266,0.74273 3.924,0.26323 6.084,-0.73438 2.1599,-0.99761 4.449,-2.576 6.7011,-4.42578 4.5042,-3.69957 8.8357,-8.47357 11.2539,-11.95899 4.746,-6.84029 12.7676,-20.98632 12.7676,-20.98632 a 1.0583349,1.0583349 0 0 0 -0.3984,-1.44336 z"
                    id="path42456"
                    stroke-width="0.5"
                    stroke-linecap="round"
                    stroke-linejoin="round"
                    stroke="black" />
                <path
                    d="m -2603.0234,261.85937 a 1.0583349,1.0583349 0 0 0 -0.6914,0.42383 1.0583349,1.0583349 0 0 0 0.2324,1.47852 c 0,0 -0.092,-0.0814 -0.086,-0.0742 0.01,0.007 0.046,0.054 0.1114,0.15625 0.1314,0.20443 0.3663,0.63366 0.6582,1.41797 0.5837,1.56863 1.3955,4.5477 2.1758,9.96094 0.7431,5.15588 -0.913,9.59858 -2.8575,13 -0.9722,1.7007 -2.0131,3.13104 -2.8515,4.24609 -0.4192,0.55752 -0.7881,1.03436 -1.0821,1.44531 -0.294,0.41095 -0.5236,0.68226 -0.6718,1.19531 a 1.0583349,1.0583349 0 0 0 0.7226,1.31055 1.0583349,1.0583349 0 0 0 1.3106,-0.72265 c -0.035,0.12253 0.1039,-0.19291 0.3613,-0.55274 0.2574,-0.35983 0.6234,-0.83584 1.0508,-1.4043 0.8548,-1.1369 1.9547,-2.64523 2.9961,-4.46679 2.0826,-3.64313 3.9483,-8.58518 3.1172,-14.35157 -0.7941,-5.50901 -1.6251,-8.6141 -2.2891,-10.39843 -0.332,-0.89217 -0.6232,-1.45589 -0.8613,-1.82617 -0.1191,-0.18515 -0.2252,-0.32024 -0.3184,-0.42383 -0.093,-0.10359 -0.2402,-0.22266 -0.2402,-0.22266 a 1.0583349,1.0583349 0 0 0 -0.7871,-0.19141 z"
                    id="path42458"
                    stroke-width="0.5"
                    stroke-linecap="round"
                    stroke-linejoin="round"
                    stroke="black" />
                <path
                    d="m -2600.6016,256.125 a 1.0583349,1.0583349 0 0 0 -1.0195,1.09375 1.0583349,1.0583349 0 0 0 1.0938,1.02148 c -0.04,10e-4 0.3023,0.0121 0.7246,0.0684 0.4223,0.0563 0.9856,0.15035 1.6406,0.29688 1.31,0.29305 2.9838,0.79457 4.6445,1.5957 3.3154,1.59936 6.5097,4.28285 7.1406,9.04102 2.3633,41.67673 -19.3976,69.93693 -56.9218,81.93945 -14.9114,-5.98014 -27.7527,-11.34846 -37.17,-24.36328 a 1.0583349,1.0583349 0 0 0 -1.4785,-0.23828 1.0583349,1.0583349 0 0 0 -0.2363,1.47851 c 9.877,13.65019 23.387,19.19781 38.4766,25.2461 a 1.0584408,1.0584408 0 0 0 0.7129,0.0254 c 38.458,-12.16486 61.1665,-41.62877 58.7285,-84.26172 a 1.0584408,1.0584408 0 0 0 -0.01,-0.0762 c -0.7319,-5.61094 -4.6256,-8.91302 -8.3243,-10.69727 -1.8493,-0.89212 -3.6669,-1.43296 -5.1015,-1.7539 -0.7173,-0.16048 -1.3383,-0.2673 -1.8242,-0.33204 -0.486,-0.0647 -0.7753,-0.0945 -1.0782,-0.084 z"
                    id="path42460"
                    stroke-width="0.5"
                    stroke-linecap="round"
                    stroke-linejoin="round"
                    stroke="black" />
                <path
                    d="m -2711.5156,272.44336 c 0,0 -16.7776,14.05157 -21.5157,36.125 -4.6485,21.6569 -7.8742,35.96553 -8.5878,50.71875 -0.3542,7.32073 -0.5987,13.31596 -0.4688,17.92383 0.1299,4.60786 0.523,7.81911 1.9473,9.80078 0.7394,1.0288 2.0422,2.04772 3.7246,3.15625 1.6823,1.10853 3.7252,2.24414 5.834,3.20508 2.1087,0.96094 4.2765,1.74723 6.2402,2.14257 1.9637,0.39535 3.7703,0.47531 5.1777,-0.41796 1.3445,-0.85332 3.0455,-2.81644 5.2637,-5.49024 2.2182,-2.6738 4.7954,-5.99336 7.2695,-9.25781 2.4741,-3.26445 4.8428,-6.47312 6.6348,-8.91602 0.896,-1.22144 1.6479,-2.25137 2.1953,-3 0.5474,-0.74862 0.9617,-1.3006 0.9395,-1.27343 0.1708,-0.20882 0.3403,-0.4624 0.6347,-0.91407 0.2945,-0.45167 0.6742,-1.05704 1.1153,-1.79297 0.8822,-1.47185 2.0073,-3.46492 3.1562,-5.78125 2.2978,-4.63265 4.7025,-10.53971 5.418,-16.1875 1.3732,-10.84005 2.5058,-14.25195 2.5058,-14.25195 a 1.0583349,1.0583349 0 0 0 -0.6757,-1.33594 1.0583349,1.0583349 0 0 0 -1.336,0.67579 c 0,0 -1.2089,3.71527 -2.5937,14.64648 -0.6636,5.23786 -2.976,10.99775 -5.2149,15.51172 -1.1194,2.25698 -2.2178,4.20597 -3.0742,5.63476 -0.4282,0.7144 -0.7967,1.29886 -1.0742,1.72461 -0.2775,0.42576 -0.5042,0.73793 -0.498,0.73047 -0.187,0.22853 -0.4633,0.61515 -1.0118,1.36524 -0.5484,0.75008 -1.299,1.777 -2.1933,2.99609 -1.7886,2.43818 -4.1515,5.63986 -6.6153,8.89063 -2.4637,3.25076 -5.0279,6.55224 -7.2109,9.18359 -2.183,2.63135 -4.1432,4.65714 -4.7695,5.05469 -0.5635,0.3576 -1.9044,0.47727 -3.625,0.13086 -1.7207,-0.34641 -3.774,-1.08226 -5.7793,-1.9961 -2.0054,-0.91384 -3.971,-2.00523 -5.5489,-3.04492 -1.5778,-1.03969 -2.7866,-2.08979 -3.1699,-2.62305 -0.8211,-1.14248 -1.4244,-4.1442 -1.5508,-8.625 -0.1263,-4.48079 0.1132,-10.45029 0.4668,-17.76172 0.702,-14.51104 3.8945,-28.71091 8.545,-50.37695 4.5611,-21.24944 20.8066,-34.94922 20.8066,-34.94922 a 1.0583349,1.0583349 0 0 0 0.1289,-1.49023 1.0583349,1.0583349 0 0 0 -1.4902,-0.13086 z"
                    id="path42462"
                    stroke-width="0.5"
                    stroke-linecap="round"
                    stroke-linejoin="round"
                    stroke="black" />
                <path
                    d="m -2710.6094,308.65234 a 1.0583349,1.0583349 0 0 0 -0.7148,0.38282 c -13.5018,16.45118 -22.6288,34.22585 -26.2696,57.7207 a 1.0583349,1.0583349 0 0 0 0.8829,1.20703 1.0583349,1.0583349 0 0 0 1.2089,-0.88281 c 3.5838,-23.12706 12.4892,-40.46698 25.8145,-56.70313 a 1.0583349,1.0583349 0 0 0 -0.1465,-1.48828 1.0583349,1.0583349 0 0 0 -0.7754,-0.23633 z"
                    id="path42464"
                    stroke-width="0.5"
                    stroke-linecap="round"
                    stroke-linejoin="round"
                    stroke="black" />
                <path
                    d="m -2710.2852,247.0625 -10.166,7.28711 a 1.0583349,1.0583349 0 0 0 -0.2422,1.47656 1.0583349,1.0583349 0 0 0 1.4766,0.24414 l 10.1641,-7.28711 a 1.0583349,1.0583349 0 0 0 0.2441,-1.47656 1.0583349,1.0583349 0 0 0 -1.4766,-0.24414 z"
                    id="path42466"
                    stroke-width="0.5"
                    stroke-linecap="round"
                    stroke-linejoin="round"
                    stroke="black" />
                <path
                    d="m -2721.8184,224.70312 a 1.0583349,1.0583349 0 0 0 -1.0879,1.0293 1.0583349,1.0583349 0 0 0 1.0293,1.08789 l 9.8985,0.26758 a 1.0583349,1.0583349 0 0 0 1.0859,-1.0293 1.0583349,1.0583349 0 0 0 -1.0293,-1.08593 z"
                    id="path42468"
                    stroke-width="0.5"
                    stroke-linecap="round"
                    stroke-linejoin="round"
                    stroke="black" />
                <path
                    d="m -2717.9199,196.94727 a 1.0583349,1.0583349 0 0 0 -0.7071,0.39453 1.0583349,1.0583349 0 0 0 0.1758,1.48828 l 7.4805,5.90625 a 1.0583349,1.0583349 0 0 0 1.4863,-0.17578 1.0583349,1.0583349 0 0 0 -0.1758,-1.48633 l -7.4804,-5.90625 a 1.0583349,1.0583349 0 0 0 -0.7793,-0.2207 z"
                    id="path42470"
                    stroke-width="0.5"
                    stroke-linecap="round"
                    stroke-linejoin="round"
                    stroke="black" />
                <path
                    d="m -2532.2559,188 c -0.6477,0.003 -1.2042,0.32428 -1.623,0.71875 -0.8375,0.78895 -1.3982,1.95527 -1.9707,3.44727 -1.1451,2.98399 -2.1528,7.28711 -3.0957,11.76171 -0.943,4.47461 -1.8102,9.10669 -2.6055,12.61914 -0.3976,1.75623 -0.7814,3.23863 -1.1269,4.23829 -0.1728,0.49983 -0.341,0.88095 -0.4571,1.07812 -0.116,0.19718 -0.1977,0.0742 0.2032,0.004 -0.9908,0.17362 -1.2062,0.13411 -1.6817,-0.39844 -0.4755,-0.53255 -1.0873,-1.83722 -1.8359,-4.06836 -1.4973,-4.46227 -3.7025,-12.53107 -8.7051,-26.06445 a 1.0584408,1.0584408 0 0 0 -0.5684,-0.60352 c 0,0 -1.114,-0.50547 -2.5,-0.49414 -1.386,0.0113 -3.2357,0.73405 -4.0683,2.80078 -0.3427,0.8507 -0.2871,1.72053 -0.2227,3.00977 0.064,1.28923 0.2302,2.89604 0.4668,4.72265 0.4733,3.65323 1.2294,8.17446 2.0274,12.58789 1.596,8.82688 3.3613,17.22266 3.3613,17.22266 a 1.0583349,1.0583349 0 0 0 1.2539,0.81641 1.0583349,1.0583349 0 0 0 0.8184,-1.25196 c 0,0 -1.7605,-8.37498 -3.3496,-17.16406 -0.7946,-4.39454 -1.5469,-8.89355 -2.0118,-12.48242 -0.2324,-1.79443 -0.3934,-3.36253 -0.4531,-4.55664 -0.06,-1.19411 0.075,-2.11583 0.074,-2.11328 0.5342,-1.32588 1.2658,-1.46764 2.1192,-1.47461 0.6517,-0.005 0.998,0.15316 1.25,0.24219 4.8081,13.07294 6.9849,20.95558 8.5019,25.47656 0.771,2.29771 1.3478,3.78117 2.2617,4.80469 0.914,1.02351 2.2884,1.30684 3.627,1.07226 0.7442,-0.13041 1.0151,-0.60464 1.2559,-1.01367 0.2408,-0.40903 0.4344,-0.88706 0.6328,-1.46094 0.3967,-1.14775 0.7861,-2.67105 1.1914,-4.46094 0.8105,-3.57976 1.6752,-8.2083 2.6113,-12.65039 0.9361,-4.44208 1.9543,-8.71137 3.002,-11.4414 0.5238,-1.36502 1.1004,-2.3412 1.4453,-2.66602 0.1724,-0.1624 0.2177,-0.1408 0.1836,-0.14062 -0.031,1.6e-4 0.021,0.002 0.1718,0.14258 -0.1284,-0.13307 -0.026,-0.0397 0.037,0.20898 0.065,0.25544 0.1307,0.6507 0.1817,1.13672 0.102,0.97204 0.1538,2.31904 0.1621,3.88867 0.017,3.13926 -0.1376,7.1817 -0.3516,11.16406 -0.428,7.96473 -1.0918,15.69336 -1.0918,15.69336 a 1.0583349,1.0583349 0 0 0 0.9629,1.14649 1.0583349,1.0583349 0 0 0 1.1446,-0.96485 c 0,0 0.6673,-7.75299 1.0976,-15.76172 0.2152,-4.00436 0.3725,-8.07134 0.3555,-11.28906 -0.01,-1.60886 -0.059,-3.00154 -0.1738,-4.09765 -0.058,-0.54806 -0.1298,-1.0204 -0.2344,-1.4336 -0.1046,-0.4132 -0.1877,-0.77487 -0.5703,-1.16992 a 1.0584408,1.0584408 0 0 0 -0.016,-0.0156 c -0.4477,-0.44224 -1.0397,-0.76904 -1.6875,-0.76562 z"
                    id="path42472"
                    stroke-width="0.5"
                    stroke-linecap="round"
                    stroke-linejoin="round"
                    stroke="black" />
                <path
                    d="m -2528.7656,221.61328 c -0.9454,-0.15004 -1.9087,-0.16195 -2.8106,0.0586 -0.9004,0.22019 -1.3171,0.81647 -1.832,1.52735 -0.5149,0.71087 -1.0363,1.61964 -1.582,2.68164 -1.0915,2.12399 -2.2614,4.855 -3.3653,7.61133 -1.1039,2.75633 -2.1396,5.53417 -2.9433,7.72461 -0.8038,2.19043 -1.4245,3.90072 -1.5274,4.13672 a 1.0583349,1.0583349 0 0 0 0.5469,1.39257 1.0583349,1.0583349 0 0 0 1.3926,-0.54687 c 0.251,-0.57555 0.7755,-2.07005 1.5762,-4.25195 0.8006,-2.18191 1.8287,-4.94335 2.9199,-7.66797 1.0912,-2.72463 2.2486,-5.41627 3.2832,-7.42969 0.5173,-1.00671 1.0069,-1.84604 1.414,-2.4082 0.4072,-0.56217 0.8229,-0.76419 0.6211,-0.71485 0.991,-0.24232 2.8403,0.0716 4.2364,0.62305 0.698,0.27571 1.2971,0.60738 1.6093,0.84766 0.01,0.005 0,0.003 0.01,0.008 -0.101,0.20599 -0.1735,0.34358 -0.3457,0.70703 -0.2873,0.60629 -0.6681,1.41804 -1.1152,2.37305 -0.8943,1.91001 -2.0517,4.38843 -3.2403,6.90234 -1.1885,2.51391 -2.4087,5.06405 -3.4238,7.11133 -1.0151,2.04727 -1.9065,3.69011 -2.1348,4.00586 -0.5412,0.74888 -1.9994,1.60013 -3.3183,2.13867 -1.319,0.53854 -2.4492,0.82227 -2.4492,0.82226 a 1.0583349,1.0583349 0 0 0 -0.7735,1.28125 1.0583349,1.0583349 0 0 0 1.2832,0.77149 c 0,0 1.2675,-0.3127 2.7403,-0.91406 1.4728,-0.60136 3.2003,-1.43337 4.2324,-2.86133 0.5434,-0.75182 1.2903,-2.23533 2.3164,-4.30469 1.0261,-2.06935 2.2501,-4.62675 3.4414,-7.14648 1.1913,-2.51974 2.3506,-4.99962 3.2441,-6.90821 0.4468,-0.95429 0.8273,-1.76574 1.1114,-2.36523 0.284,-0.59949 0.5099,-1.05453 0.5078,-1.05078 0.2849,-0.50733 0.141,-1.13502 -0.062,-1.47266 -0.2036,-0.33763 -0.451,-0.55882 -0.7324,-0.77539 -0.5629,-0.43314 -1.2889,-0.80919 -2.1231,-1.13867 -0.8341,-0.32948 -1.7617,-0.61754 -2.707,-0.76758 z"
                    id="path42474"
                    stroke-width="0.5"
                    stroke-linecap="round"
                    stroke-linejoin="round"
                    stroke="black" />
                <path
                    d="m -2526.8867,231.4375 a 1.0583349,1.0583349 0 0 0 -1.2891,0.76172 1.0583349,1.0583349 0 0 0 0.7617,1.28711 c 1.0364,0.26695 2.497,0.36639 3.6114,0.74609 0.5572,0.18985 0.9763,0.44199 1.1757,0.66797 0.1995,0.22598 0.2859,0.38538 0.1954,0.88867 -0.2409,1.33812 -1.4244,5.58458 -3.2735,9.6211 -1.8491,4.03651 -4.4737,7.85008 -7.0215,8.82421 -0.6725,0.25716 -1.9246,-0.0697 -3.0058,-0.64648 -1.0813,-0.57673 -1.9043,-1.26367 -1.9043,-1.26367 a 1.0583349,1.0583349 0 0 0 -1.4903,0.13086 1.0583349,1.0583349 0 0 0 0.129,1.49023 c 0,0 0.9655,0.81423 2.2695,1.50977 1.304,0.69554 3.0361,1.41415 4.7578,0.75586 3.6761,-1.40557 6.2544,-5.68958 8.1914,-9.91797 1.937,-4.2284 3.1214,-8.41612 3.4297,-10.12891 0.184,-1.02216 -0.1121,-2.01181 -0.6895,-2.66601 -0.5774,-0.65421 -1.3299,-1.01395 -2.08,-1.26953 -1.5003,-0.51117 -3.1931,-0.64305 -3.7676,-0.79102 z"
                    id="path42476"
                    stroke-width="0.5"
                    stroke-linecap="round"
                    stroke-linejoin="round"
                    stroke="black" />
                <path
                    d="m -2552.1133,231.0957 c -4.3121,-0.0216 -8.5459,0.27623 -10.168,0.55469 a 1.0583349,1.0583349 0 0 0 -0.8632,1.22266 1.0583349,1.0583349 0 0 0 1.2226,0.86523 c 1.2214,-0.20967 5.5971,-0.54647 9.7969,-0.52539 2.0999,0.0105 4.1844,0.10647 5.8477,0.32813 1.6632,0.22165 2.9276,0.69935 3.1367,0.88867 2.2848,2.06888 3.0176,4.01367 3.0176,4.01367 a 1.0583349,1.0583349 0 0 0 1.3671,0.60937 1.0583349,1.0583349 0 0 0 0.6094,-1.36718 c 0,0 -0.9513,-2.45103 -3.5723,-4.82422 -1.0173,-0.92122 -2.4683,-1.17664 -4.2792,-1.41797 -1.811,-0.24133 -3.9592,-0.33684 -6.1153,-0.34766 z"
                    id="path42478"
                    stroke-width="0.5"
                    stroke-linecap="round"
                    stroke-linejoin="round"
                    stroke="black" />
                <path
                    d="m -2562.248,234.24023 a 1.0583349,1.0583349 0 0 0 -1.3965,0.54102 c 0,0 -1.7153,4.07127 0.8828,8.83008 0.8342,1.52806 2.5119,2.29533 4.3828,2.79101 1.8709,0.49569 4.0305,0.70008 6.1016,0.76953 4.142,0.13891 7.9492,-0.2832 7.9492,-0.2832 a 1.0583349,1.0583349 0 0 0 0.9375,-1.16601 1.0583349,1.0583349 0 0 0 -1.168,-0.9375 c 0,0 -3.6915,0.40411 -7.6465,0.27148 -1.9775,-0.0663 -4.0169,-0.27357 -5.6308,-0.70117 -1.614,-0.4276 -2.7067,-1.09532 -3.0684,-1.75781 -2.1857,-4.00339 -0.8027,-6.96289 -0.8027,-6.96289 a 1.0583349,1.0583349 0 0 0 -0.541,-1.39454 z"
                    id="path42480"
                    stroke-width="0.5"
                    stroke-linecap="round"
                    stroke-linejoin="round"
                    stroke="black" />
                <path
                    d="m -2556.4629,245.2832 a 1.0583349,1.0583349 0 0 0 -0.957,1.15235 c -0.01,-0.0805 -0.035,0.10368 -0.1446,0.51562 -0.1094,0.41194 -0.2193,1.02996 -0.1152,1.76953 0.2082,1.47915 1.1526,3.37269 3.8203,6.35352 5.5081,6.15456 12.8282,6.11133 12.8281,6.11133 a 1.0583349,1.0583349 0 0 0 1.0508,-1.06446 1.0583349,1.0583349 0 0 0 -1.0664,-1.05078 c 0,0 -6.3469,0.0551 -11.2363,-5.4082 -2.531,-2.82808 -3.1857,-4.41814 -3.3008,-5.23633 -0.058,-0.40909 -0.01,-0.64411 0.066,-0.92969 0.076,-0.28557 0.2615,-0.64451 0.2051,-1.25586 a 1.0583349,1.0583349 0 0 0 -1.1504,-0.95703 z"
                    id="path42482"
                    stroke-width="0.5"
                    stroke-linecap="round"
                    stroke-linejoin="round"
                    stroke="black" />
                <path
                    d="m -2524.9941,247.1543 a 1.0584408,1.0584408 0 0 0 -0.4512,1.38672 c 0,0 2.2151,5.03483 0.2148,8.10546 -1.0163,1.56015 -4.6423,5.02537 -8.4883,7.58985 -1.9229,1.28224 -3.9184,2.36962 -5.664,2.97656 -1.7456,0.60694 -3.1878,0.68339 -4.0449,0.28906 -4.6722,-2.14941 -10.127,-8.07226 -10.127,-8.07226 a 1.0584408,1.0584408 0 0 0 -1.7773,0.34375 c 0,0 -0.8566,2.31148 -1.4844,5.3789 -0.6278,3.06742 -1.0746,6.91497 -0.1113,10.20899 0.927,3.16998 3.0434,7.2786 5.5761,10.88476 2.5328,3.60616 5.3694,6.72798 8.3203,7.67969 1.654,0.53342 3.7479,0.21115 6.1758,-0.44531 2.428,-0.65646 5.1431,-1.72426 7.7227,-3.00781 2.5795,-1.28356 5.0158,-2.77733 6.8789,-4.33008 1.8631,-1.55276 3.2717,-3.12725 3.3867,-4.99805 0.1565,-2.54581 0.5733,-7.20076 0.8477,-11.64648 0.1371,-2.22287 0.2378,-4.39535 0.2539,-6.24805 0.016,-1.8527 -0.03,-3.34398 -0.2852,-4.41797 -0.4716,-1.98476 -1.8447,-4.69961 -3.1094,-7.04492 -1.2646,-2.34531 -2.4257,-4.25391 -2.4257,-4.25391 a 1.0584408,1.0584408 0 0 0 -1.4082,-0.3789 z m 2.707,7.28711 c 0.9079,1.81094 1.9171,3.79231 2.1758,4.88086 0.1536,0.64672 0.246,2.12122 0.2304,3.91015 -0.015,1.78894 -0.116,3.93424 -0.2519,6.13672 -0.2718,4.40496 -0.6869,9.03017 -0.8477,11.64648 -0.044,0.71028 -0.951,2.10329 -2.6269,3.5 -1.6759,1.39672 -4.0002,2.83516 -6.4668,4.0625 -2.4666,1.22735 -5.0819,2.25047 -7.334,2.85938 -2.2521,0.60891 -4.1879,0.72637 -4.9746,0.47266 -1.9304,-0.62257 -4.8236,-3.44553 -7.2363,-6.88086 -2.4128,-3.43534 -4.4593,-7.46412 -5.2774,-10.26172 -0.7818,-2.67355 -0.4417,-6.28881 0.1524,-9.19141 0.4001,-1.9553 0.6613,-2.56418 0.9414,-3.41406 1.5347,1.61733 5.1401,5.26043 9.4902,7.26172 1.6629,0.76502 3.6184,0.48481 5.625,-0.21289 2.0066,-0.6977 4.1192,-1.86372 6.1426,-3.21289 4.0467,-2.69834 7.6635,-6.01089 9.0879,-8.19727 0.7002,-1.07499 1.0334,-2.22884 1.1699,-3.35937 z"
                    id="path42484"
                    stroke-width="0.5"
                    stroke-linecap="round"
                    stroke-linejoin="round"
                    stroke="black" />
                <path
                    d="m -2554.1738,280.92969 a 1.0583349,1.0583349 0 0 0 -1.0078,1.10547 c -0.01,-0.20852 0,-0.0734 -0.022,0.0488 -0.024,0.12222 -0.065,0.30693 -0.1211,0.53907 -0.1117,0.46427 -0.2827,1.12104 -0.502,1.93554 -0.4385,1.62902 -1.072,3.89582 -1.8359,6.61524 -1.5278,5.43884 -3.5769,12.69165 -5.6367,20.32812 -2.0599,7.63647 -4.1307,15.65623 -5.7071,22.64649 -1.5763,6.99025 -2.6654,12.90248 -2.7363,16.54883 -0.2714,13.95425 2.5352,24.56445 2.5352,24.56445 a 1.0583349,1.0583349 0 0 0 1.2949,0.7539 1.0583349,1.0583349 0 0 0 0.7519,-1.29492 c 0,0 -2.7323,-10.33204 -2.4668,-23.98242 0.063,-3.25481 1.1203,-9.18404 2.6856,-16.125 1.5652,-6.94096 3.6318,-14.93942 5.6875,-22.56055 2.0557,-7.62112 4.1004,-14.86517 5.6289,-20.30664 0.7642,-2.72073 1.3983,-4.98934 1.8418,-6.63672 0.2217,-0.82368 0.3955,-1.49093 0.5156,-1.99023 0.06,-0.24965 0.1068,-0.45665 0.1406,-0.63086 0.034,-0.17421 0.075,-0.24039 0.061,-0.54883 a 1.0583349,1.0583349 0 0 0 -1.1074,-1.00976 z"
                    id="path42486"
                    stroke-width="0.5"
                    stroke-linecap="round"
                    stroke-linejoin="round"
                    stroke="black" />
                <path
                    d="m -2525.8809,286.74219 a 1.0583349,1.0583349 0 0 0 -0.582,1.3789 c -0.03,-0.0743 0.1569,0.51161 0.3516,1.26172 0.1947,0.75011 0.4504,1.78044 0.7402,3.02344 0.5797,2.486 1.3014,5.82387 1.9902,9.50195 1.3777,7.35617 2.6071,16.11088 2.3086,22.01953 -1.0438,20.6695 -3.8,42.8867 -15.2558,59.76563 -2.0217,2.97878 -4.5892,6.27931 -7.4746,8.7168 -2.8855,2.43748 -6.0252,3.97408 -9.2832,3.70898 -5.5228,-0.44938 -10.3603,-4.32515 -14.459,-9.34375 -4.0988,-5.0186 -7.4015,-11.09713 -9.9141,-15.62109 -4.9136,-8.84702 -8.164,-20.96875 -8.164,-20.96875 a 1.0583349,1.0583349 0 0 0 -1.295,-0.75 1.0583349,1.0583349 0 0 0 -0.75,1.29492 c 0,0 3.2418,12.23685 8.3594,21.45117 2.5031,4.50673 5.8483,10.69749 10.1231,15.93164 4.2747,5.23415 9.5353,9.5951 15.9277,10.11524 4.0212,0.32719 7.6912,-1.55783 10.8203,-4.20118 3.1291,-2.64334 5.7816,-6.08226 7.8613,-9.14648 11.85,-17.45975 14.5679,-40.06929 15.6172,-60.84766 0.3181,-6.29808 -0.9488,-15.08591 -2.3398,-22.51367 -0.6956,-3.71388 -1.4254,-7.07903 -2.0117,-9.59375 -0.2932,-1.25736 -0.5513,-2.30122 -0.752,-3.07422 -0.2007,-0.773 -0.2903,-1.16015 -0.4395,-1.52734 a 1.0583349,1.0583349 0 0 0 -1.3789,-0.58203 z"
                    id="path42488"
                    stroke-width="0.5"
                    stroke-linecap="round"
                    stroke-linejoin="round"
                    stroke="black" />
                <path
                    d="m -2581.916,311.70312 a 1.0583349,1.0583349 0 0 0 -1.3711,0.59961 c -0.1344,0.34382 -0.2089,0.67912 -0.3789,1.35938 -0.17,0.68026 -0.3876,1.59692 -0.6367,2.69922 -0.4982,2.20459 -1.1216,5.15065 -1.7305,8.40234 -1.2178,6.50339 -2.3833,14.1994 -2.3535,19.7207 0.062,11.44377 2.6581,27.87229 5.3535,41.63672 1.3477,6.88222 2.7211,13.09025 3.8203,17.65625 0.5496,2.28301 1.0307,4.15306 1.4082,5.50196 0.1887,0.67445 0.3508,1.2179 0.4883,1.6289 0.069,0.2055 0.1301,0.37688 0.1934,0.5293 0.063,0.15242 0.063,0.24647 0.2949,0.51367 a 1.0583349,1.0583349 0 0 0 1.4922,0.10547 1.0583349,1.0583349 0 0 0 0.1054,-1.49219 c 0.1717,0.1978 0.095,0.13967 0.062,0.0625 -0.032,-0.0772 -0.083,-0.21399 -0.1425,-0.39062 -0.1182,-0.35326 -0.274,-0.87312 -0.4571,-1.52735 -0.3661,-1.30845 -0.8412,-3.16193 -1.3867,-5.42773 -1.091,-4.53161 -2.461,-10.71481 -3.8027,-17.56641 -2.6834,-13.70318 -5.2545,-30.11038 -5.3145,-41.24218 -0.028,-5.20707 1.1116,-12.87405 2.3184,-19.31836 0.6034,-3.22216 1.2224,-6.14683 1.7148,-8.32618 0.2463,-1.08967 0.4624,-1.9937 0.627,-2.65234 0.1646,-0.65863 0.3255,-1.17994 0.2949,-1.10156 a 1.0583349,1.0583349 0 0 0 -0.5996,-1.3711 z"
                    id="path42490"
                    stroke-width="0.5"
                    stroke-linecap="round"
                    stroke-linejoin="round"
                    stroke="black" />
                <path
                    d="m -2578.207,274.47461 a 1.0583349,1.0583349 0 0 0 -0.6348,0.50391 1.0583349,1.0583349 0 0 0 0.4102,1.43945 c 1.5638,0.87129 9.618,5.87687 16.9199,14.99219 a 1.0583349,1.0583349 0 0 0 1.4883,0.16406 1.0583349,1.0583349 0 0 0 0.164,-1.48828 c -7.5377,-9.40978 -15.6898,-14.48509 -17.5429,-15.51758 a 1.0583349,1.0583349 0 0 0 -0.8047,-0.0937 z"
                    id="path42492"
                    stroke-width="0.5"
                    stroke-linecap="round"
                    stroke-linejoin="round"
                    stroke="black" />
                <path
                    d="m -2698.1797,367.00195 a 1.0583349,1.0583349 0 0 0 -1.1777,0.92383 c -0.037,0.30699 -0.5129,3.77537 -1.1856,8.63281 -0.6726,4.85745 -1.5513,11.18337 -2.4238,17.45899 -1.7451,12.55124 -3.4648,24.90039 -3.4648,24.90039 a 1.0583349,1.0583349 0 0 0 0.9003,1.19531 1.0583349,1.0583349 0 0 0 1.1954,-0.90234 c 0,0 1.7197,-12.35071 3.4648,-24.90235 0.8726,-6.27581 1.753,-12.60276 2.4258,-17.46093 0.6728,-4.85818 1.129,-8.16952 1.1894,-8.66797 a 1.0583349,1.0583349 0 0 0 -0.9238,-1.17774 z"
                    id="path42494"
                    stroke-width="0.5"
                    stroke-linecap="round"
                    stroke-linejoin="round"
                    stroke="black" />
                <path
                    d="m -2642.7598,351.61914 a 1.0583349,1.0583349 0 0 0 -1.0293,1.08594 l 1.7325,64.28906 a 1.0583349,1.0583349 0 0 0 1.0859,1.0293 1.0583349,1.0583349 0 0 0 1.0293,-1.08594 l -1.7324,-64.28906 a 1.0583349,1.0583349 0 0 0 -1.086,-1.0293 z"
                    id="path42496"
                    stroke-width="0.5"
                    stroke-linecap="round"
                    stroke-linejoin="round"
                    stroke="black" />
                <path
                    d="m -2630.918,354.86328 c -3.0522,0 -5.5488,2.49857 -5.5488,5.55078 0,3.05222 2.4966,5.54883 5.5488,5.54883 3.0523,0 5.5489,-2.49661 5.5489,-5.54883 0,-3.05221 -2.4967,-5.55078 -5.5489,-5.55078 z m 0,2.11719 c 1.9083,0 3.4317,1.52531 3.4317,3.43359 0,1.90829 -1.5234,3.43164 -3.4317,3.43164 -1.9083,0 -3.4336,-1.52335 -3.4336,-3.43164 0,-1.90828 1.5253,-3.43359 3.4336,-3.43359 z"
                    id="circle42498"
                    stroke-width="0.5"
                    stroke="black" />
                <path
                    d="m -2630.918,381.27344 c -3.0522,0 -5.5488,2.49661 -5.5488,5.54883 0,3.05222 2.4966,5.54882 5.5488,5.54882 3.0523,0 5.5489,-2.4966 5.5489,-5.54882 0,-3.05222 -2.4967,-5.54883 -5.5489,-5.54883 z m 0,2.11523 c 1.9083,0 3.4317,1.52531 3.4317,3.4336 0,1.90829 -1.5234,3.43163 -3.4317,3.43164 -1.9083,-1e-5 -3.4336,-1.52335 -3.4336,-3.43164 0,-1.90829 1.5253,-3.4336 3.4336,-3.4336 z"
                    id="circle42500"
                    stroke-width="0.5"
                    stroke="black" />
                <path
                    d="m -2630.8945,408.92578 c -3.0523,0 -5.5489,2.49856 -5.5489,5.55078 0,3.05222 2.4967,5.54883 5.5489,5.54883 3.0522,0 5.5488,-2.49661 5.5488,-5.54883 0,-3.05222 -2.4966,-5.55078 -5.5488,-5.55078 z m 0,2.11719 c 1.9083,0 3.4336,1.5253 3.4336,3.43359 0,1.90829 -1.5253,3.43164 -3.4336,3.43164 -1.9083,0 -3.4317,-1.52335 -3.4317,-3.43164 0,-1.90829 1.5234,-3.43359 3.4317,-3.43359 z"
                    id="circle42502"
                    stroke-width="0.5"
                    stroke="black" />
                <path
                    d="m -2712.488,304.65675 c -2.8897,-11.22599 12.2695,-26.79729 21.314,-31.4451 l 3.9695,6.09227 c 0,0 7.4901,13.85863 8.6982,15.36014 1.2081,1.50148 11.3905,9.18153 12.4605,10.04447 1.07,0.86291 7.145,7.04149 7.145,7.04149 l -0.7767,4.05574 c -5.7416,7.26947 -13.295,10.9658 -22.3495,11.70133 l -8.8881,-1.13908 c 0,0 -9.3195,-5.81613 -10.6829,-6.73084 -1.3634,-0.9147 -8.6292,-8.30136 -9.3368,-10.09624 -0.7076,-1.79491 -1.5532,-4.88418 -1.5532,-4.88418 z"
                    id="path42504"
                    stroke-width="1.05833"
                    stroke-linecap="round"
                    stroke-linejoin="round"
                    stroke="black" />
                <path
                    d="m -2554.2806,261.21695 c -0.2416,1.07003 -2.1746,5.97144 -2.1918,8.1633 -0.017,2.19183 0.4141,4.57351 0.5177,5.97146 0.1036,1.39793 2.7614,6.52373 2.7614,6.52373 l 9.9063,11.33887 13.565,-3.14105 8.9053,-5.93693 2.002,-7.73184 0.1899,-14.9977 -2.002,-6.98971 -2.3126,-4.95321 c 0,0 0.3451,6.1613 -1.0183,7.71456 -1.3634,1.55329 -10.355,8.8709 -10.355,8.8709 l -7.9043,2.93397 -8.4394,-5.16031 z"
                    id="path42506"
                    stroke-width="1.05833"
                    stroke-linecap="round"
                    stroke-linejoin="round"
                    stroke="black" />
                <path id="circle42508"
                    d="m -2649.8931,202.37491 a 3.4430554,3.4430554 0 0 1 -3.4431,3.44305 3.4430554,3.4430554 0 0 1 -3.443,-3.44305 3.4430554,3.4430554 0 0 1 3.443,-3.44306 3.4430554,3.4430554 0 0 1 3.4431,3.44306 z"
                    stroke-width="0.132291"
                    stroke="black" />
                <path id="circle42510"
                    d="m -2649.8931,215.18077 a 3.4430554,3.4430554 0 0 1 -3.4431,3.44306 3.4430554,3.4430554 0 0 1 -3.443,-3.44306 3.4430554,3.4430554 0 0 1 3.443,-3.44305 3.4430554,3.4430554 0 0 1 3.4431,3.44305 z"
                    stroke-width="0.132291"
                    stroke="black" />
                <path id="circle42512"
                    d="m -2640.263,208.48444 a 3.4430554,3.4430554 0 0 1 -3.4431,3.44305 3.4430554,3.4430554 0 0 1 -3.443,-3.44305 3.4430554,3.4430554 0 0 1 3.443,-3.44306 3.4430554,3.4430554 0 0 1 3.4431,3.44306 z"
                    stroke-width="0.132291"
                    stroke="black" />
            </g>
        </g>
    </g>
</svg>