<?xml version="1.0" encoding="UTF-8" standalone="no"?>
<!-- Created with Inkscape (http://www.inkscape.org/) -->

<svg width="100%" height="100%"
    viewBox="0 0 756.81362 638.26844"
    version="1.1" id="svg5"
    xml:space="preserve"
    xmlns="http://www.w3.org/2000/svg"
    xmlns:svg="http://www.w3.org/2000/svg">
    <defs id="defs2" />
    <g id="layer1"
        transform="translate(-250.23811,-5223.7637)">
        <g id="notion-influencer-in-studio"
            transform="matrix(2,0,0,2,-394.08685,-88.124184)"
            style="stroke-width:0.5">
            <title id="title94612">
                notion-influencer-in-studio
            </title>
            <g id="g42320"
                transform="translate(4016.9379,2565.4927)"
                style="stroke-width:0.5">
                <path
                    d="m -3688.1113,104.36133 c -2.5206,-0.12377 -4.4766,1.09765 -4.4766,1.09765 a 1.0584408,1.0584408 0 0 0 -0.5039,0.89649 l -1.6836,281.17383 a 1.0583349,1.0583349 0 0 0 1.0508,1.06445 1.0583349,1.0583349 0 0 0 1.0664,-1.05273 l 1.6777,-280.47071 c 0.6206,-0.31718 2.4586,-1.15879 4.6153,-0.13086 0.2931,0.13973 0.5812,0.29741 0.7461,0.43555 0.1648,0.13814 0.1739,0.18422 0.1777,0.22852 0.3008,3.4938 0.1719,10.06836 0.1719,10.06836 a 1.0583349,1.0583349 0 0 0 1.0351,1.08007 1.0583349,1.0583349 0 0 0 1.0801,-1.03515 c 0,0 0.1463,-6.53115 -0.1777,-10.29492 -0.064,-0.74478 -0.5042,-1.31308 -0.9278,-1.66797 -0.4235,-0.3549 -0.8632,-0.56635 -1.1953,-0.72461 -0.914,-0.43569 -1.816,-0.62672 -2.6562,-0.66797 z"
                    id="path42176"
                    stroke-width="0.5"
                    stroke-linecap="round"
                    stroke-linejoin="round"
                    stroke="black" />
                <path
                    d="m -3684.9688,117.14453 c 0,0 -0.7846,0.70427 -1.541,1.99219 -0.7563,1.28791 -1.5451,3.22156 -1.7343,5.80078 -0.3736,5.08975 0.8216,8.42985 2.1836,10.47656 0.9407,1.41373 1.8063,2.06765 2.373,2.4375 l 0.6953,251.42774 a 1.0583349,1.0583349 0 0 0 1.0606,1.05664 1.0583349,1.0583349 0 0 0 1.0566,-1.0625 l -0.6973,-251.97657 a 1.0584408,1.0584408 0 0 0 -0.6054,-0.95507 c 0,0 -1.0243,-0.45133 -2.1211,-2.09961 -1.0969,-1.64828 -2.1789,-4.45102 -1.834,-9.15039 0.1636,-2.22971 0.8333,-3.83412 1.4492,-4.88282 0.6159,-1.04869 1.1152,-1.47851 1.1152,-1.47851 a 1.0583349,1.0583349 0 0 0 0.094,-1.49414 1.0583349,1.0583349 0 0 0 -1.4942,-0.0918 z"
                    id="path42178"
                    stroke-width="0.5"
                    stroke-linecap="round"
                    stroke-linejoin="round"
                    stroke="black" />
                <path
                    d="m -3677.6523,115.51563 -5.9434,0.96679 a 1.0583349,1.0583349 0 0 0 -0.875,1.21289 1.0583349,1.0583349 0 0 0 1.2148,0.875 l 3.3809,-0.55078 c -0.4368,0.57438 -0.525,0.56229 -1.0254,1.38281 -1.2902,2.11545 -2.5927,4.93925 -2.3574,7.89258 0.4033,5.06191 0.1426,9.91406 0.1426,9.91406 a 1.0583349,1.0583349 0 0 0 1,1.11524 1.0583349,1.0583349 0 0 0 1.1132,-1 c 0,0 0.273,-4.95695 -0.1445,-10.19727 -0.1751,-2.19778 0.8823,-4.70072 2.0547,-6.62304 1.1724,-1.92233 2.3828,-3.22266 2.3828,-3.22266 a 1.0584408,1.0584408 0 0 0 -0.9433,-1.76562 z"
                    id="path42180"
                    stroke-width="0.5"
                    stroke-linecap="round"
                    stroke-linejoin="round"
                    stroke="black" />
                <path
                    d="m -3674.3223,114.98242 c -1.306,-0.01 -2.6596,0.1774 -4.0254,0.82031 a 1.0583349,1.0583349 0 0 0 -0.5058,1.40821 1.0583349,1.0583349 0 0 0 1.4082,0.50781 c 1.6023,-0.75423 3.3093,-0.63057 5.1387,-0.41602 l -9.334,19.86329 a 1.0583349,1.0583349 0 0 0 0.5078,1.4082 1.0583349,1.0583349 0 0 0 1.4062,-0.50781 l 9.9746,-21.22071 a 1.0584408,1.0584408 0 0 0 -0.8281,-1.5 c -1.177,-0.14507 -2.4361,-0.35336 -3.7422,-0.36328 z"
                    id="path42182"
                    stroke-width="0.5"
                    stroke-linecap="round"
                    stroke-linejoin="round"
                    stroke="black" />
                <path
                    d="m -3663.0449,105.07227 c -0.5778,0.15683 -0.8225,0.42323 -1.1875,0.75 -0.365,0.32676 -0.7619,0.73669 -1.1934,1.21289 -0.863,0.95239 -1.8586,2.16794 -2.8301,3.41015 -0.9714,1.24222 -1.9163,2.50857 -2.6699,3.54883 -0.7535,1.04026 -1.2846,1.79869 -1.541,2.24024 a 1.0583349,1.0583349 0 0 0 0.3848,1.44531 1.0583349,1.0583349 0 0 0 1.4453,-0.38281 c 0.113,-0.19465 0.6857,-1.04153 1.4238,-2.06055 0.7382,-1.01903 1.6726,-2.26843 2.625,-3.48633 0.9525,-1.2179 1.9274,-2.40669 2.7305,-3.29297 0.4015,-0.44314 0.7609,-0.8111 1.0351,-1.05664 0.2282,-0.2043 0.3309,-0.24362 0.2754,-0.23828 0,-6.5e-4 0,5.7e-4 0,0 0.1425,0.0319 0.3745,0.0997 0.6601,0.19922 0.5729,0.1995 1.364,0.52156 2.2774,0.92187 1.8267,0.80064 4.1557,1.91611 6.4414,3.04493 4.5714,2.25762 8.9707,4.56835 8.9707,4.56835 a 1.0583349,1.0583349 0 0 0 1.4297,-0.44531 1.0583349,1.0583349 0 0 0 -0.4453,-1.42969 c 0,0 -4.4157,-2.31716 -9.0176,-4.58984 -2.301,-1.13634 -4.6467,-2.26082 -6.5293,-3.08594 -0.9413,-0.41256 -1.7635,-0.75039 -2.4297,-0.98242 -0.3331,-0.11601 -0.6248,-0.20658 -0.8984,-0.26758 -0.2737,-0.061 -0.4818,-0.15295 -0.959,-0.0234 z"
                    id="path42184"
                    stroke-width="0.5"
                    stroke-linecap="round"
                    stroke-linejoin="round"
                    stroke="black" />
                <path
                    d="m -3680.8379,136.96094 a 1.0583349,1.0583349 0 0 0 -0.6875,0.42968 1.0583349,1.0583349 0 0 0 0.2481,1.47657 c 0,0 5.8656,4.18247 11.9003,8.46484 3.0174,2.14119 6.077,4.30607 8.4688,5.98828 1.1959,0.84111 2.2232,1.56107 2.998,2.09766 0.7749,0.53659 1.2313,0.85502 1.5196,1.02539 a 1.0583349,1.0583349 0 0 0 1.4492,-0.37305 1.0583349,1.0583349 0 0 0 -0.3711,-1.44922 c -0.05,-0.0297 -0.6254,-0.41206 -1.3926,-0.94336 -0.7672,-0.53129 -1.7927,-1.2484 -2.9863,-2.08789 -2.3872,-1.67896 -5.4448,-3.84409 -8.4609,-5.98437 -6.0323,-4.28056 -11.8965,-8.46094 -11.8965,-8.46094 a 1.0583349,1.0583349 0 0 0 -0.7891,-0.18359 z"
                    id="path42186"
                    stroke-width="0.5"
                    stroke-linecap="round"
                    stroke-linejoin="round"
                    stroke="black" />
                <path
                    d="m -3636.2871,101.85938 a 1.0584408,1.0584408 0 0 0 -1.1817,0.56445 l -20.8515,42.25586 a 1.0584408,1.0584408 0 0 0 -0.035,0.85742 l 4.3926,11.10156 a 1.0584408,1.0584408 0 0 0 1.9356,0.0762 l 16.7656,-34.33398 a 1.0584408,1.0584408 0 0 0 0.1074,-0.48242 l -0.3066,-19.02344 a 1.0584408,1.0584408 0 0 0 -0.8262,-1.01562 z m -1.2207,5.42578 0.2324,14.39453 -15.6016,31.94922 -3.3359,-8.4336 z"
                    id="path42188"
                    stroke-width="0.5"
                    stroke-linecap="round"
                    stroke-linejoin="round"
                    stroke="black" />
                <path
                    d="m -3635.1738,121.76758 a 1.0583349,1.0583349 0 0 0 -1.4746,0.25976 1.0583349,1.0583349 0 0 0 0.2597,1.47461 l 12.6524,8.85157 c 0.012,0.68831 0.053,4.28751 -0.7637,9.23437 -0.8985,5.44156 -2.8479,11.9487 -6.7871,16.24609 -7.0798,7.72347 -9.901,10.07888 -10.7559,10.76563 l -9.7617,-12.94531 a 1.0583349,1.0583349 0 0 0 -1.4824,-0.20899 1.0583349,1.0583349 0 0 0 -0.209,1.48242 l 10.4473,13.85352 a 1.0584408,1.0584408 0 0 0 1.4746,0.21289 c 0,0 3.4648,-2.58541 11.8476,-11.73047 4.4133,-4.81453 6.3834,-11.67934 7.3164,-17.33008 0.9331,-5.65074 0.8008,-10.15625 0.8008,-10.15625 a 1.0584408,1.0584408 0 0 0 -0.4511,-0.83593 z"
                    id="path42190"
                    stroke-width="0.5"
                    stroke-linecap="round"
                    stroke-linejoin="round"
                    stroke="black" />
                <path
                    d="m -3614.2871,110.37695 -22.0606,9.625 a 1.0583349,1.0583349 0 0 0 -0.5468,1.39258 1.0583349,1.0583349 0 0 0 1.3925,0.54688 l 21.4512,-9.35743 13.711,11.85547 -21.6602,7.28907 a 1.0583349,1.0583349 0 0 0 -0.666,1.33984 1.0583349,1.0583349 0 0 0 1.3418,0.66601 l 23.416,-7.88085 a 1.0584408,1.0584408 0 0 0 0.3535,-1.80274 l -15.6172,-13.5039 a 1.0584408,1.0584408 0 0 0 -1.1152,-0.16993 z"
                    id="path42192"
                    stroke-width="0.5"
                    stroke-linecap="round"
                    stroke-linejoin="round"
                    stroke="black" />
                <path
                    d="m -3622.6582,132.06445 a 1.0583349,1.0583349 0 0 0 -0.6309,0.50782 1.0583349,1.0583349 0 0 0 0.4219,1.4375 l 21.9981,12.01171 -21.6329,39.99219 -18.9472,-17.36914 a 1.0583349,1.0583349 0 0 0 -1.4942,0.0664 1.0583349,1.0583349 0 0 0 0.064,1.49414 l 19.9473,18.28515 a 1.0584408,1.0584408 0 0 0 1.6464,-0.27539 l 22.7793,-42.11328 a 1.0584408,1.0584408 0 0 0 -0.4238,-1.43164 l -22.9238,-12.51953 a 1.0583349,1.0583349 0 0 0 -0.8047,-0.0859 z"
                    id="path42194"
                    stroke-width="0.5"
                    stroke-linecap="round"
                    stroke-linejoin="round"
                    stroke="black" />
                <path
                    d="m -3654.1855,155.06836 a 1.0583349,1.0583349 0 0 0 -1.0821,1.0332 l -0.5137,22.18555 a 1.0584408,1.0584408 0 0 0 0.2461,0.70312 l 16.7676,20.05079 a 1.0584408,1.0584408 0 0 0 1.8555,-0.85157 l -4.6992,-28.48437 a 1.0583349,1.0583349 0 0 0 -1.2168,-0.87305 1.0583349,1.0583349 0 0 0 -0.8731,1.2168 l 4.0703,24.66211 -14.0254,-16.77344 0.504,-21.78711 a 1.0583349,1.0583349 0 0 0 -1.0332,-1.08203 z"
                    id="path42196"
                    stroke-width="0.5"
                    stroke-linecap="round"
                    stroke-linejoin="round"
                    stroke="black" />
                <path
                    d="m -3680.2321,138.10816 c 0,0 -0.021,10.97944 8.2704,17.48504 8.2909,6.50557 17.1154,10.30221 17.1154,10.30221 l 0.2668,-9.3582 z"
                    id="path42198"
                    stroke-width="1.05833"
                    stroke-linecap="round"
                    stroke-linejoin="round"
                    stroke="black" />
                <path
                    d="m -3630.8086,132.91016 a 1.0583349,1.0583349 0 0 0 -0.9219,1.17968 c 0.7544,6.15117 0,11.14214 -2.2129,15.02539 -2.2147,3.88326 -5.9093,6.73781 -11.3379,8.55079 a 1.0583349,1.0583349 0 0 0 -0.6679,1.33984 1.0583349,1.0583349 0 0 0 1.3398,0.66797 c 5.7944,-1.93515 10.0049,-5.12983 12.5039,-9.51172 2.4991,-4.38189 3.2687,-9.87177 2.4766,-16.33008 a 1.0583349,1.0583349 0 0 0 -1.1797,-0.92187 z"
                    id="path42200"
                    stroke-width="0.5"
                    stroke-linecap="round"
                    stroke-linejoin="round"
                    stroke="black" />
                <path
                    d="m -3639.4023,139 c -1.9253,0.70458 -3.2639,2.35057 -4.1075,4.18945 -0.8436,1.83888 -1.2229,3.91237 -1.1289,5.76758 0.024,0.48255 0.1428,0.97206 0.4082,1.46094 0.2655,0.48888 0.8098,1.10594 1.6602,1.09765 2.4166,-0.0241 4.3877,-1.82363 5.6484,-3.95117 1.2608,-2.12754 1.9148,-4.70719 1.2051,-6.92187 -0.2655,-0.82851 -0.9216,-1.29168 -1.5742,-1.55274 -0.6526,-0.26106 -1.373,-0.36003 -2.1113,-0.0898 z m 0.7265,1.98828 c 0.048,-0.0174 0.3552,-0.0294 0.5996,0.0684 0.2444,0.0978 0.3539,0.26402 0.3438,0.23242 0.4246,1.3251 0.01,3.47376 -1.0117,5.19727 -0.9722,1.64053 -2.3936,2.71639 -3.6504,2.83398 -0.061,-0.14851 -0.1252,-0.3591 -0.1309,-0.4707 -0.075,-1.47416 0.2525,-3.27997 0.9395,-4.77734 0.6869,-1.49738 1.7047,-2.64284 2.9101,-3.08399 z"
                    id="path42202"
                    stroke-width="0.5"
                    stroke-linecap="round"
                    stroke-linejoin="round"
                    stroke="black" />
                <path
                    d="m -3629.5488,192.31836 a 1.0583349,1.0583349 0 0 0 -0.8106,0.01 1.0583349,1.0583349 0 0 0 -0.5547,1.39063 c 0,-0.006 0.2002,0.50396 0.4766,1.21289 0.2764,0.70893 0.6558,1.68232 1.1016,2.83203 0.8914,2.29942 2.0507,5.30051 3.2011,8.27735 2.3009,5.95366 4.5625,11.8164 4.5625,11.8164 a 1.0583349,1.0583349 0 0 0 1.3692,0.60742 1.0583349,1.0583349 0 0 0 0.6074,-1.36914 c 0,0 -2.2633,-5.86396 -4.5645,-11.81836 -1.1505,-2.97719 -2.3111,-5.97656 -3.2031,-8.27734 -0.446,-1.15039 -0.8241,-2.12653 -1.1015,-2.83789 -0.2774,-0.71136 -0.4246,-1.09206 -0.504,-1.27734 a 1.0583349,1.0583349 0 0 0 -0.58,-0.56641 z"
                    id="path42204"
                    stroke-width="0.5"
                    stroke-linecap="round"
                    stroke-linejoin="round"
                    stroke="black" />
                <path
                    d="m -3611.9316,186.2207 a 1.0583349,1.0583349 0 0 0 0,1.4961 l 11.7187,11.78906 a 1.0583349,1.0583349 0 0 0 1.4961,0.006 1.0583349,1.0583349 0 0 0 0,-1.49805 l -11.7168,-11.78906 a 1.0583349,1.0583349 0 0 0 -1.498,-0.004 z"
                    id="path42206"
                    stroke-width="0.5"
                    stroke-linecap="round"
                    stroke-linejoin="round"
                    stroke="black" />
                <path
                    d="m -3600.8027,167.65234 a 1.0583349,1.0583349 0 0 0 -0.6641,0.46289 1.0583349,1.0583349 0 0 0 0.3223,1.46094 l 11.914,7.60352 a 1.0583349,1.0583349 0 0 0 1.461,-0.32227 1.0583349,1.0583349 0 0 0 -0.3223,-1.46094 l -11.9141,-7.60351 a 1.0583349,1.0583349 0 0 0 -0.7968,-0.14063 z"
                    id="path42208"
                    stroke-width="0.5"
                    stroke-linecap="round"
                    stroke-linejoin="round"
                    stroke="black" />
                <path
                    d="m -3593.5957,147.91016 a 1.0583349,1.0583349 0 0 0 -1.166,0.9375 1.0583349,1.0583349 0 0 0 0.9375,1.16796 l 11.8613,1.29297 a 1.0583349,1.0583349 0 0 0 1.166,-0.9375 1.0583349,1.0583349 0 0 0 -0.9375,-1.16797 z"
                    id="path42210"
                    stroke-width="0.5"
                    stroke-linecap="round"
                    stroke-linejoin="round"
                    stroke="black" />
                <path
                    d="m -3578.7676,127.76172 -20.6972,5.13086 a 1.0583349,1.0583349 0 0 0 -0.7735,1.2832 1.0583349,1.0583349 0 0 0 1.2832,0.77149 l 20.6953,-5.13086 a 1.0583349,1.0583349 0 0 0 0.7735,-1.28125 1.0583349,1.0583349 0 0 0 -1.2813,-0.77344 z"
                    id="path42212"
                    stroke-width="0.5"
                    stroke-linecap="round"
                    stroke-linejoin="round"
                    stroke="black" />
                <path
                    d="m -3550.513,121.41174 c 0,0 -27.951,11.33858 -26.4119,38.18177 1.5391,26.8432 3.9313,29.50868 7.8907,36.42713 1.9086,3.33488 6.314,6.81055 16.2945,9.3992 2.1979,0.57005 2.2391,-4.16948 2.2677,-3.55033 0,0 -5.4178,0.50278 -9.9634,-3.58115 -6.6532,-5.9774 -9.2965,-13.67812 -7.8497,-19.13708 1.4468,-5.45894 3.6734,-10.38429 6.3413,-10.24062 2.6679,0.14364 4.4123,5.42814 4.8945,8.21917 0.4823,2.79104 2.514,19.51673 2.514,19.51673 0,0 2.9244,0.31811 2.7602,-0.83114 -0.1642,-1.14924 -0.7388,-30.06521 -0.7388,-30.06521 3e-4,6.6e-4 14.1679,0.54096 21.1993,-0.16417 13.0133,-1.30501 24.365,-4.31612 35.6264,-22.09229 0,0 6.1669,7.11098 7.2854,11.59511 1.1184,4.48413 2.791,22.21541 3.9915,22.13334 1.2005,-0.0821 10.733,3.80688 16.746,-9.23504 6.013,-13.04195 6.1464,-47.57261 -16.4224,-68.312536 -14.4157,-13.247559 -36.1292,-11.52328 -50.782,0.697756 -9.2854,7.7444 -15.6433,21.03936 -15.6433,21.03936 z"
                    id="path42214"
                    stroke-width="1.05833"
                    stroke-linecap="round"
                    stroke-linejoin="round"
                    stroke="black" />
                <path
                    d="m -3550.1825,122.12465 c -1.5905,-1.53916 -7.7574,-4.80222 -10.651,-9.80967 -2.8936,-5.00745 -5.3152,-12.816184 -2.1343,-9.30688 3.1809,3.50933 5.3759,2.8804 9.5839,10.36378 1.5226,2.70788 3.2014,8.75277 3.2014,8.75277 z"
                    id="path42216"
                    stroke-width="1.05833"
                    stroke-linecap="round"
                    stroke-linejoin="round"
                    stroke="black" />
                <path
                    d="m -3526.9297,168.50195 c -1.8397,-0.0156 -3.6656,0.11191 -5.4531,0.48047 -3.5751,0.73713 -6.9934,2.47941 -9.9004,5.87305 a 1.0583349,1.0583349 0 0 0 0.1152,1.49219 1.0583349,1.0583349 0 0 0 1.4922,-0.11524 c 2.6133,-3.05068 5.5185,-4.51748 8.7207,-5.17773 3.2023,-0.66025 6.7107,-0.47043 10.3379,-0.0703 a 1.0583349,1.0583349 0 0 0 1.168,-0.9375 1.0583349,1.0583349 0 0 0 -0.9375,-1.16796 c -1.8497,-0.20404 -3.7032,-0.36136 -5.543,-0.37696 z"
                    id="path42218"
                    stroke-width="0.5"
                    stroke-linecap="round"
                    stroke-linejoin="round"
                    stroke="black" />
                <path
                    d="m -3498.8184,168.16797 c -2.1657,0.2029 -4.1185,0.91985 -5.7949,2.03711 -3.3528,2.23451 -5.5916,5.96727 -6.625,10.15234 -2.0668,8.37015 0.6852,18.82665 9.8555,23.3086 a 1.0583349,1.0583349 0 0 0 1.416,-0.48438 1.0583349,1.0583349 0 0 0 -0.4863,-1.41602 c -8.1492,-3.98289 -10.5952,-13.34879 -8.7305,-20.90039 0.9324,-3.77579 2.94,-7.02956 5.7441,-8.89843 2.8042,-1.86888 6.4121,-2.455 10.9571,-0.76563 a 1.0583349,1.0583349 0 0 0 1.3594,-0.62305 1.0583349,1.0583349 0 0 0 -0.6231,-1.36132 c -2.5278,-0.93961 -4.9065,-1.25173 -7.0723,-1.04883 z"
                    id="path42220"
                    stroke-width="0.5"
                    stroke-linecap="round"
                    stroke-linejoin="round"
                    stroke="black" />
                <path
                    d="m -3506.7988,209.10547 c -0.673,0.0611 -16.1309,1.33203 -16.1309,1.33203 a 1.0584408,1.0584408 0 0 0 -0.9492,1.26758 c 0.1176,0.57266 0.637,3.20548 1.959,5.56445 0.661,1.17949 1.5323,2.32053 2.7461,3.07617 1.2138,0.75564 2.7972,1.05086 4.5058,0.55664 2.9503,-0.85334 4.4214,-1.46291 5.25,-1.93164 0.4144,-0.23436 0.6764,-0.42821 0.8848,-0.67968 0.1042,-0.12574 0.1955,-0.27158 0.2539,-0.44727 0.029,-0.0879 0.049,-0.18342 0.057,-0.2793 0.01,-0.0959 -0.014,-0.27929 -0.014,-0.27929 a 1.0583349,1.0583349 0 0 0 -1.2325,-0.85157 1.0583349,1.0583349 0 0 0 -0.6933,0.50586 c 0.052,-0.0623 -0.017,0.0313 -0.2969,0.18946 -0.5591,0.31625 -1.929,0.91074 -4.7969,1.74023 -1.2003,0.34721 -2.0284,0.16051 -2.8007,-0.32031 -0.7724,-0.48083 -1.4633,-1.32884 -2.0157,-2.31446 -0.7758,-1.38435 -1.1778,-2.76188 -1.4375,-3.79101 2.0084,-0.16505 14.0651,-1.15439 14.9024,-1.23047 a 1.0583349,1.0583349 0 0 0 0.959,-1.15039 1.0583349,1.0583349 0 0 0 -1.1504,-0.95703 z m -3.3633,7.83594 a 1.0583349,1.0583349 0 0 0 -0.1563,0.72461 c 0,0 -0.022,-0.17929 -0.016,-0.26368 0.01,-0.0844 0.025,-0.16192 0.047,-0.22656 0.043,-0.12844 0.099,-0.20286 0.125,-0.23437 z"
                    id="path42222"
                    stroke-width="0.5"
                    stroke-linecap="round"
                    stroke-linejoin="round"
                    stroke="black" />
                <path
                    d="m -3484.0742,174.84961 a 1.0583349,1.0583349 0 0 0 -1.0078,1.10547 c 1.5718,34.1337 -12.0713,52.74117 -27.1973,56.84961 -7.563,2.05422 -15.5613,0.54128 -22.4844,-4.57422 -6.9231,-5.1155 -12.7645,-13.86486 -15.7929,-26.31445 a 1.0583349,1.0583349 0 0 0 -1.2774,-0.7793 1.0583349,1.0583349 0 0 0 -0.7793,1.2793 c 3.1225,12.8359 9.1988,22.05487 16.5918,27.51757 7.393,5.46271 16.1116,7.13731 24.2969,4.91407 16.3706,-4.4465 30.3553,-24.25414 28.7558,-58.98829 a 1.0583349,1.0583349 0 0 0 -1.1054,-1.00976 z"
                    id="path42224"
                    stroke-width="0.5"
                    stroke-linecap="round"
                    stroke-linejoin="round"
                    stroke="black" />
                <path
                    d="m -3508.8555,238.26172 a 1.0583349,1.0583349 0 0 0 -1.3379,0.66992 c -1.5705,4.71154 -1.2462,10.42773 -0.4433,15.23047 0.4014,2.40137 0.9299,4.57143 1.4316,6.26758 0.5017,1.69615 0.8989,2.82222 1.336,3.52734 a 1.0583349,1.0583349 0 0 0 1.457,0.3418 1.0583349,1.0583349 0 0 0 0.3418,-1.45703 c -0.1071,-0.17284 -0.6286,-1.39926 -1.1055,-3.01172 -0.4769,-1.61247 -0.9873,-3.70803 -1.373,-6.01563 -0.7716,-4.61519 -1.012,-10.08694 0.3633,-14.21289 a 1.0583349,1.0583349 0 0 0 -0.67,-1.33984 z"
                    id="path42226"
                    stroke-width="0.5"
                    stroke-linecap="round"
                    stroke-linejoin="round"
                    stroke="black" />
                <path
                    d="m -3488.5605,231.38086 c -1.1477,0.0468 -1.8223,0.24023 -1.8223,0.24023 a 1.0583349,1.0583349 0 0 0 -0.709,1.31836 1.0583349,1.0583349 0 0 0 1.3184,0.70899 c 0,0 1.9582,-0.62601 5.2441,0.39453 3.2859,1.02054 7.8112,3.72677 12.5234,10.75976 9.5297,14.22281 19.127,36.89844 19.127,36.89844 a 1.0583349,1.0583349 0 0 0 1.3867,0.56445 1.0583349,1.0583349 0 0 0 0.5645,-1.38671 c 0,0 -9.5789,-22.71501 -19.3203,-37.25391 -4.9233,-7.34786 -9.8733,-10.4292 -13.6543,-11.60352 -1.8906,-0.58715 -3.5106,-0.68739 -4.6582,-0.64062 z"
                    id="path42228"
                    stroke-width="0.5"
                    stroke-linecap="round"
                    stroke-linejoin="round"
                    stroke="black" />
                <path
                    d="m -3481.9824,256.07812 a 1.0583349,1.0583349 0 0 0 -0.7539,1.29297 c 0,0 22.1685,84.42842 27.1445,112.19336 2.5012,13.95616 3.6413,21.60808 4.1543,25.75 0.2565,2.07096 0.3572,3.2666 0.3926,3.92188 0.035,0.65528 0.021,0.63867 0.021,0.63867 a 1.0583349,1.0583349 0 0 0 0.8769,1.21094 1.0583349,1.0583349 0 0 0 1.2129,-0.87891 c 0,0 0.041,-0.35673 0,-1.08594 -0.04,-0.7292 -0.1439,-1.9635 -0.4043,-4.0664 -0.521,-4.2058 -1.6667,-11.88487 -4.1719,-25.86328 -5.0368,-28.10415 -27.1817,-112.35938 -27.1817,-112.35938 a 1.0583349,1.0583349 0 0 0 -1.2929,-0.75391 z"
                    id="path42230"
                    stroke-width="0.5"
                    stroke-linecap="round"
                    stroke-linejoin="round"
                    stroke="black" />
                <path
                    d="m -3559.3965,265.71094 a 1.0583349,1.0583349 0 0 0 -1.373,0.5957 c -0.1182,0.29873 -0.1104,0.39834 -0.1465,0.62891 -0.036,0.23056 -0.074,0.51933 -0.1153,0.87304 -0.083,0.70743 -0.1789,1.6735 -0.289,2.87305 -0.2203,2.39911 -0.4947,5.73042 -0.8067,9.73633 -0.6239,8.01183 -1.4017,18.71439 -2.2089,29.98047 -1.6145,22.53215 -3.3481,47.3303 -4.209,57.29297 -1.7207,19.90989 -3.1297,33.16571 -3.1387,33.25 -0.012,0.0434 -0.055,0.075 -0.061,0.11718 -0.029,0.24205 0.024,0.42282 0.074,0.54493 0.1996,0.4884 0.3365,0.47 0.4609,0.56445 0.2489,0.18889 0.5327,0.34792 0.9473,0.55273 0.8292,0.40964 2.1277,0.94347 3.9824,1.54492 3.7093,1.20291 9.6271,2.66063 18.2207,3.7461 17.1872,2.17094 45.0707,2.85381 87.3125,-3.00391 a 1.0583349,1.0583349 0 0 0 0.9023,-1.19336 1.0583349,1.0583349 0 0 0 -1.1933,-0.90429 c -42.0941,5.83723 -69.7963,5.14217 -86.7559,3 -8.4797,-1.07109 -14.2765,-2.50453 -17.834,-3.65821 -1.7787,-0.57683 -3.0021,-1.08627 -3.6972,-1.42968 -0.1208,-0.0597 -0.1223,-0.0679 -0.211,-0.11719 0.047,-0.44354 1.3992,-13.17838 3.0977,-32.83203 0.8659,-10.01963 2.5986,-34.79271 4.2129,-57.32227 0.8071,-11.26478 1.5858,-21.96672 2.209,-29.96875 0.3116,-4.00101 0.5841,-7.32682 0.8027,-9.70703 0.1093,-1.1901 0.2043,-2.14478 0.2832,-2.82031 0.04,-0.33777 0.077,-0.60675 0.1055,-0.79102 0.029,-0.18427 0.093,-0.35688 0.023,-0.17969 a 1.0583349,1.0583349 0 0 0 -0.5957,-1.37304 z m -10.2539,135.61718 c -0.033,0.22709 -0.1673,0.48309 -0.3262,0.62696 -0.3256,0.29484 -0.5351,0.25877 -0.6308,0.26172 a 1.0584408,1.0584408 0 0 0 0.957,-0.88868 z"
                    id="path42232"
                    stroke-width="0.5"
                    stroke-linecap="round"
                    stroke-linejoin="round"
                    stroke="black" />
                <path
                    d="m -3450.2656,189.98828 a 1.0583349,1.0583349 0 0 0 -1.1055,1.00977 c 0,0 -0.5425,11.83571 2.2578,25.44336 0.6823,3.31563 0.8512,5.42315 0.7637,6.60156 -0.044,0.58921 -0.1555,0.93569 -0.2246,1.0664 -0.069,0.13072 -0.025,0.0494 0.027,0.0352 0.1045,-0.0284 -0.2528,-0.0702 -0.5996,-0.32031 -0.3468,-0.2501 -0.6152,-0.53516 -0.6152,-0.53516 a 1.0584408,1.0584408 0 0 0 -0.031,-0.0332 c 0,0 -2.7495,-2.74654 -5.8554,-5.71875 -1.553,-1.4861 -3.196,-3.02722 -4.6348,-4.31836 -1.4388,-1.29114 -2.6271,-2.30966 -3.4805,-2.85156 -0.8328,-0.52887 -1.6613,-0.80683 -2.4629,-0.79492 -0.8016,0.0119 -1.577,0.36106 -2.0644,0.96093 -0.9749,1.19975 -0.7846,2.99723 0.3027,4.66992 1.7316,2.66372 4.8779,5.56873 6.8535,15.09375 a 1.0584408,1.0584408 0 0 0 0.3555,0.59571 c 3.8065,3.1948 9.0326,6.43254 12.2344,11.45312 3.2018,5.02059 4.5543,11.80472 0.3242,22.60547 a 1.0584408,1.0584408 0 0 0 -0.035,0.10352 c -2.1201,7.63068 -5.4745,19.10206 -8.2968,28.82617 -1.4112,4.86205 -2.6899,9.28784 -3.6153,12.58398 -0.4627,1.64808 -0.8372,3.01254 -1.0976,4.01563 -0.1303,0.50154 -0.2311,0.91138 -0.3028,1.23047 -0.072,0.31909 -0.1336,0.41369 -0.1269,0.82422 a 1.0583349,1.0583349 0 0 0 1.0762,1.04101 1.0583349,1.0583349 0 0 0 1.041,-1.07617 c 0,0.24891 0.012,-0.0456 0.074,-0.32422 0.062,-0.27864 0.1602,-0.67532 0.2871,-1.16406 0.2538,-0.97748 0.6252,-2.33334 1.0859,-3.97461 0.9216,-3.28254 2.1987,-7.70601 3.6094,-12.56641 2.8214,-9.72078 6.1769,-21.19118 8.3047,-28.84961 l -0.033,0.10157 c 4.4004,-11.23574 3.0236,-18.97016 -0.5117,-24.51368 -3.4679,-5.43787 -8.8121,-8.76835 -12.4141,-11.74609 -2.0687,-9.54316 -5.6073,-13.21154 -7.039,-15.41406 -0.7754,-1.1927 -0.6068,-1.96855 -0.4336,-2.18164 0.086,-0.10655 0.1806,-0.17369 0.4531,-0.17774 0.2725,-0.004 0.7239,0.101 1.2969,0.46485 0.5524,0.35081 1.7906,1.37286 3.2011,2.63867 1.4106,1.2658 3.0407,2.79664 4.584,4.27344 3.0698,2.93757 5.7654,5.62681 5.7949,5.65625 0,0 0.3858,0.42329 0.9336,0.81836 0.5479,0.39507 1.3261,0.93461 2.3926,0.64453 0.5333,-0.14505 1.0154,-0.56812 1.2891,-1.08594 0.2736,-0.51782 0.4076,-1.1274 0.4648,-1.89844 0.1145,-1.54207 -0.1,-3.77181 -0.8027,-7.1875 -2.7407,-13.31758 -2.2168,-24.91992 -2.2168,-24.91992 a 1.0583349,1.0583349 0 0 0 -1.0078,-1.10547 z"
                    id="path42234"
                    stroke-width="0.5"
                    stroke-linecap="round"
                    stroke-linejoin="round"
                    stroke="black" />
                <path
                    d="m -3442.1699,182.74414 a 1.0583349,1.0583349 0 0 0 -1.0762,1.04102 l -0.4297,26.80273 a 1.0583349,1.0583349 0 0 0 1.041,1.07422 1.0583349,1.0583349 0 0 0 1.0743,-1.04102 l 0.4316,-26.80273 a 1.0583349,1.0583349 0 0 0 -1.041,-1.07422 z"
                    id="path42236"
                    stroke-width="0.5"
                    stroke-linecap="round"
                    stroke-linejoin="round"
                    stroke="black" />
                <path
                    d="m -3434.2461,176.46484 a 1.0583349,1.0583349 0 0 0 -1.0156,1.09961 c 0,0 0.281,7.19131 0.5605,14.73438 0.2795,7.54306 0.5557,15.56027 0.5469,16.79883 a 1.0583349,1.0583349 0 0 0 1.0508,1.0664 1.0583349,1.0583349 0 0 0 1.0664,-1.05078 c 0.011,-1.57301 -0.2692,-9.34661 -0.5488,-16.89258 -0.2796,-7.54596 -0.5606,-14.74023 -0.5606,-14.74023 a 1.0583349,1.0583349 0 0 0 -1.0996,-1.01563 z"
                    id="path42238"
                    stroke-width="0.5"
                    stroke-linecap="round"
                    stroke-linejoin="round"
                    stroke="black" />
                <path
                    d="m -3425.834,181.24609 a 1.0583349,1.0583349 0 0 0 -1.0566,1.06055 c 0,0 0.017,6.55187 0.043,13.26367 0.013,3.3559 0.028,6.75099 0.045,9.38867 0.01,1.31884 0.018,2.44955 0.027,3.29102 0.01,0.84147 0.014,1.33042 0.031,1.60156 a 1.0583349,1.0583349 0 0 0 1.125,0.98828 1.0583349,1.0583349 0 0 0 0.9882,-1.125 c 0,-0.047 -0.018,-0.65497 -0.027,-1.49023 -0.01,-0.83526 -0.019,-1.96231 -0.027,-3.2793 -0.017,-2.63398 -0.034,-6.02792 -0.047,-9.38281 -0.026,-6.70978 -0.041,-13.26172 -0.041,-13.26172 a 1.0583349,1.0583349 0 0 0 -1.0606,-1.05469 z"
                    id="path42240"
                    stroke-width="0.5"
                    stroke-linecap="round"
                    stroke-linejoin="round"
                    stroke="black" />
                <path
                    d="m -3419.0605,193.04687 a 1.0583349,1.0583349 0 0 0 -1.1172,0.9961 c 0,0 -1.0868,18.9207 -1.4571,31.09961 -0.1811,5.95645 -1.2839,9.76887 -2.209,12.93359 -0.925,3.16473 -1.7192,5.80059 -0.9882,9.00586 l -0.018,-0.375 c -2.8895,21.63608 -0.3942,40.19844 -1.1895,55.36914 -0.7934,15.13691 -4.6403,26.74632 -20.3007,35.45703 -5.5806,1.72894 -9.0067,0.99322 -11.0645,-0.0742 -2.0712,-1.07441 -2.7441,-2.42382 -2.7441,-2.42382 a 1.0583349,1.0583349 0 0 0 -1.4278,-0.45118 1.0583349,1.0583349 0 0 0 -0.4511,1.42774 c 0,0 1.0612,1.98409 3.6484,3.32617 2.5872,1.34208 6.7214,2.09197 12.7734,0.19141 a 1.0584408,1.0584408 0 0 0 0.1953,-0.084 c 16.3324,-9.04043 20.6726,-21.77009 21.4844,-37.25781 0.8119,-15.48772 -1.6714,-33.88228 1.1758,-55.20117 a 1.0584408,1.0584408 0 0 0 -0.018,-0.375 c -0.6029,-2.64357 0.028,-4.76987 0.9551,-7.94141 0.9271,-3.17153 2.1047,-7.27013 2.293,-13.46289 0.3685,-12.11948 1.455,-31.04297 1.455,-31.04297 a 1.0583349,1.0583349 0 0 0 -0.996,-1.11719 z"
                    id="path42242"
                    stroke-width="0.5"
                    stroke-linecap="round"
                    stroke-linejoin="round"
                    stroke="black" />
                <path
                    d="m -3553.4551,227.91992 c -9.2753,3.32144 -20.075,12.84185 -28.9941,26.72656 -8.9192,13.88472 -15.9098,32.16131 -17.2442,53.0293 a 1.0584408,1.0584408 0 0 0 0.8633,1.10742 l 32.0977,5.95117 a 1.0584408,1.0584408 0 0 0 1.1679,-0.63085 l 3.4278,-8.16797 a 1.0583349,1.0583349 0 0 0 -0.5664,-1.38477 1.0583349,1.0583349 0 0 0 -1.3848,0.56641 l -3.0976,7.38086 -30.3028,-5.61719 c 1.4567,-20.08447 8.2204,-37.70198 16.8203,-51.08984 8.7343,-13.59697 19.3834,-22.81724 27.9278,-25.87696 a 1.0583349,1.0583349 0 0 0 0.6386,-1.35351 1.0583349,1.0583349 0 0 0 -1.3535,-0.64063 z"
                    id="path42244"
                    stroke-width="0.5"
                    stroke-linecap="round"
                    stroke-linejoin="round"
                    stroke="black" />
                <path
                    d="m -3548.5605,232.30859 a 1.0583349,1.0583349 0 0 0 -0.6543,1.34571 c 5.5186,15.94463 11.6834,25.28245 18.4121,30.36132 6.7286,5.07888 13.9788,5.75614 21.1777,4.56836 a 1.0583349,1.0583349 0 0 0 0.873,-1.21679 1.0583349,1.0583349 0 0 0 -1.2168,-0.8711 c -6.8569,1.13136 -13.3328,0.52932 -19.5585,-4.16992 -6.2258,-4.69923 -12.2431,-13.63883 -17.6856,-29.36328 a 1.0583349,1.0583349 0 0 0 -1.3476,-0.6543 z"
                    id="path42246"
                    stroke-width="0.5"
                    stroke-linecap="round"
                    stroke-linejoin="round"
                    stroke="black" />
                <path
                    d="m -3594.3008,307.22461 a 1.0583349,1.0583349 0 0 0 -1.1601,0.94336 l -6.4043,61.77148 a 1.0583349,1.0583349 0 0 0 0.9433,1.16211 1.0583349,1.0583349 0 0 0 1.1621,-0.94336 l 6.4043,-61.77148 a 1.0583349,1.0583349 0 0 0 -0.9453,-1.16211 z"
                    id="path42248"
                    stroke-width="0.5"
                    stroke-linecap="round"
                    stroke-linejoin="round"
                    stroke="black" />
                <path
                    d="m -3569.0039,312.96094 a 1.0583349,1.0583349 0 0 0 -1.2266,0.85742 c 0,-0.0208 -0.092,0.38143 -0.2383,0.9043 -0.1466,0.52286 -0.3525,1.23608 -0.6093,2.10937 -0.5138,1.74658 -1.2301,4.13276 -2.0782,6.9375 -1.696,5.60949 -3.9225,12.89468 -6.1386,20.11524 -4.4323,14.44111 -8.8203,28.62109 -8.8203,28.62109 a 1.0583349,1.0583349 0 0 0 0.6992,1.32422 1.0583349,1.0583349 0 0 0 1.3242,-0.69727 c 0,0 4.3871,-14.18292 8.8203,-28.62695 2.2166,-7.22201 4.4448,-14.50811 6.1426,-20.12305 0.8489,-2.80746 1.5635,-5.19696 2.0801,-6.95312 0.2582,-0.87808 0.4682,-1.5987 0.6191,-2.13672 0.1509,-0.53802 0.2353,-0.82497 0.2852,-1.10742 a 1.0583349,1.0583349 0 0 0 -0.8594,-1.22461 z"
                    id="path42250"
                    stroke-width="0.5"
                    stroke-linecap="round"
                    stroke-linejoin="round"
                    stroke="black" />
                <path id="ellipse42252"
                    d="m -3525.6165,186.3644 a 3.5297816,4.8022213 0 0 1 -3.5297,4.80222 3.5297816,4.8022213 0 0 1 -3.5298,-4.80222 3.5297816,4.8022213 0 0 1 3.5298,-4.80223 3.5297816,4.8022213 0 0 1 3.5297,4.80223 z"
                    stroke-width="0.132291"
                    stroke="black" />
                <path id="ellipse42254"
                    d="m -3496.824,182.82423 a 3.4990184,4.7714396 0 0 1 -3.499,4.77144 3.4990184,4.7714396 0 0 1 -3.499,-4.77144 3.4990184,4.7714396 0 0 1 3.499,-4.77144 3.4990184,4.7714396 0 0 1 3.499,4.77144 z"
                    stroke-width="0.132291"
                    stroke="black" />
                <g id="path42256"
                    style="stroke-width:0.5">
                    <path
                        d="m -3400.1457,278.92501 c 1.3955,-0.0616 12.0875,0.57463 12.0875,0.57463 l -0.4926,22.5335 h 34.5798 v -20.97381 l 6.5892,1.76559 v 28.19702 h -53.4001 z"
                        id="path75863"
                        stroke-width="1.05833"
                        stroke-linecap="round"
                        stroke-linejoin="round"
                        stroke="black" />
                    <path
                        d="m -3400.1914,277.86719 a 1.0584408,1.0584408 0 0 0 -1.0117,1.03711 L -3401.8398,311 a 1.0584408,1.0584408 0 0 0 1.0585,1.08008 h 53.4004 a 1.0584408,1.0584408 0 0 0 1.0567,-1.0586 v -28.19726 a 1.0584408,1.0584408 0 0 0 -0.7832,-1.02149 l -6.5899,-1.76562 a 1.0584408,1.0584408 0 0 0 -1.332,1.02148 v 19.91602 h -32.4395 L -3387,279.52344 a 1.0584408,1.0584408 0 0 0 -0.9961,-1.08008 c 0,0 -2.6738,-0.15897 -5.5254,-0.31055 -1.4258,-0.0758 -2.8963,-0.1499 -4.1015,-0.20117 -1.2053,-0.0513 -2.0799,-0.086 -2.5684,-0.0645 z m 1.082,2.14258 c 0.4417,0.01 0.6991,0.007 1.3965,0.0371 1.192,0.0507 2.6565,0.12366 4.0781,0.19922 2.3186,0.12325 3.7617,0.21071 4.4961,0.25391 l -0.4707,21.50977 a 1.0584408,1.0584408 0 0 0 1.0586,1.08203 h 34.5801 a 1.0584408,1.0584408 0 0 0 1.0586,-1.0586 v -19.59375 l 4.4726,1.19727 v 26.32617 h -51.2636 z"
                        id="path75865"
                        stroke-width="0.5"
                        stroke-linecap="round"
                        stroke-linejoin="round"
                        stroke="black" />
                </g>
                <path
                    d="m -3395.75,211.27148 a 1.0584408,1.0584408 0 0 0 -1.0625,1.05664 l -0.1641,67.25196 a 1.0583349,1.0583349 0 0 0 1.0567,1.06054 1.0583349,1.0583349 0 0 0 1.0605,-1.05664 l 0.1621,-66.1914 40.4493,0.11523 0.1015,67.30664 a 1.0583349,1.0583349 0 0 0 1.0586,1.05664 1.0583349,1.0583349 0 0 0 1.0586,-1.06054 l -0.1035,-68.35938 a 1.0584408,1.0584408 0 0 0 -1.0547,-1.05664 z"
                    id="path42258"
                    stroke-width="0.5"
                    stroke-linecap="round"
                    stroke-linejoin="round"
                    stroke="black" />
                <path
                    d="m -3387.1523,212.27734 a 1.0583349,1.0583349 0 0 0 -1.0821,1.03321 c -0.01,0.33231 0,1.78002 0,4.29101 0,2.511 0.01,6.0005 0.017,10.13672 0.017,8.27245 0.044,19.13504 0.072,29.94141 0.056,21.61274 0.1172,43.00195 0.1172,43.00195 a 1.0583349,1.0583349 0 0 0 1.0625,1.05469 1.0583349,1.0583349 0 0 0 1.0547,-1.06055 c 0,0 -0.061,-21.38958 -0.1172,-43.00195 -0.028,-10.80619 -0.057,-21.66772 -0.074,-29.93946 -0.01,-4.13586 -0.015,-7.62509 -0.018,-10.13476 0,-2.50968 0,-4.12618 0,-4.24024 a 1.0583349,1.0583349 0 0 0 -1.0351,-1.08203 z"
                    id="path42260"
                    stroke-width="0.5"
                    stroke-linecap="round"
                    stroke-linejoin="round"
                    stroke="black" />
                <path
                    d="m -3369.2734,225.11914 c -2.6886,1e-5 -4.8926,2.20203 -4.8926,4.89063 0,2.68859 2.204,4.89256 4.8926,4.89257 2.6886,-1e-5 4.8906,-2.20398 4.8906,-4.89257 0,-2.6886 -2.202,-4.89062 -4.8906,-4.89063 z m 0,2.11719 c 1.5446,0 2.7734,1.22877 2.7734,2.77344 0,1.54466 -1.2288,2.77538 -2.7734,2.77539 -1.5447,-1e-5 -2.7754,-1.23073 -2.7754,-2.77539 0,-1.54467 1.2307,-2.77344 2.7754,-2.77344 z"
                    id="circle42262"
                    stroke-width="0.5"
                    stroke="black" />
                <path
                    d="m -3378.9102,217.55664 c -2.6886,1e-5 -4.8906,2.20203 -4.8906,4.89063 0,2.68859 2.202,4.89256 4.8906,4.89257 2.6886,-1e-5 4.8907,-2.20398 4.8907,-4.89257 0,-2.6886 -2.2021,-4.89062 -4.8907,-4.89063 z m 0,2.11719 c 1.5447,0 2.7754,1.22877 2.7754,2.77344 0,1.54466 -1.2307,2.77538 -2.7754,2.77539 -1.5446,-1e-5 -2.7734,-1.23073 -2.7734,-2.77539 0,-1.54467 1.2288,-2.77344 2.7734,-2.77344 z"
                    id="circle42264"
                    stroke-width="0.5"
                    stroke="black" />
                <path
                    d="m -3378.9102,233.38086 c -2.6886,10e-6 -4.8906,2.20203 -4.8906,4.89062 0,2.6886 2.202,4.89062 4.8906,4.89063 2.6886,-1e-5 4.8907,-2.20203 4.8907,-4.89063 0,-2.68859 -2.2021,-4.89061 -4.8907,-4.89062 z m 0,2.11523 c 1.5447,1e-5 2.7754,1.23073 2.7754,2.77539 0,1.54467 -1.2307,2.77344 -2.7754,2.77344 -1.5446,0 -2.7734,-1.22877 -2.7734,-2.77344 0,-1.54466 1.2288,-2.77538 2.7734,-2.77539 z"
                    id="circle42266"
                    stroke-width="0.5"
                    stroke="black" />
                <path
                    d="m -3371.8047,309.82031 a 1.0583349,1.0583349 0 0 0 -0.8086,0.0605 1.0583349,1.0583349 0 0 0 -0.4668,1.42187 l 45.3633,89.79688 a 1.0583349,1.0583349 0 0 0 1.4219,0.46875 1.0583349,1.0583349 0 0 0 0.4668,-1.42188 l -45.3633,-89.79687 a 1.0583349,1.0583349 0 0 0 -0.6133,-0.5293 z"
                    id="path42268"
                    stroke-width="0.5"
                    stroke-linecap="round"
                    stroke-linejoin="round"
                    stroke="black" />
                <path
                    d="m -3362.8926,308.74023 a 1.0583349,1.0583349 0 0 0 -0.5898,1.375 c 0.1131,0.28277 0.3252,0.72373 0.707,1.51563 0.3818,0.7919 0.91,1.87224 1.5625,3.20117 1.3051,2.65787 3.1105,6.30931 5.2481,10.61719 4.2751,8.61575 9.8764,19.85595 15.4453,31.01562 11.1378,22.31936 22.1445,44.3125 22.1445,44.3125 a 1.0583349,1.0583349 0 0 0 1.4219,0.47266 1.0583349,1.0583349 0 0 0 0.4726,-1.41992 c 0,0 -11.0074,-21.99266 -22.1445,-44.31055 -5.5685,-11.15894 -11.1696,-22.39874 -15.4434,-31.01172 -2.1369,-4.30648 -3.9415,-7.9565 -5.2441,-10.60937 -0.6513,-1.32644 -1.1768,-2.40384 -1.5547,-3.1875 -0.3779,-0.78367 -0.6329,-1.33712 -0.6504,-1.38086 a 1.0583349,1.0583349 0 0 0 -1.375,-0.58985 z"
                    id="path42270"
                    stroke-width="0.5"
                    stroke-linecap="round"
                    stroke-linejoin="round"
                    stroke="black" />
                <path
                    d="m -3373.3926,311.04687 a 1.0583349,1.0583349 0 0 0 -1.1328,0.97852 c 1e-4,-9.2e-4 -0.1373,0.6768 -0.3965,1.55664 -0.2592,0.87985 -0.6343,2.0637 -1.1094,3.49805 -0.95,2.86869 -2.2957,6.74356 -3.9003,11.27148 -3.2094,9.05584 -7.4612,20.72936 -11.7032,32.26758 -8.484,23.07643 -16.9277,45.61133 -16.9277,45.61133 a 1.0583349,1.0583349 0 0 0 0.6191,1.36133 1.0583349,1.0583349 0 0 0 1.3633,-0.61914 c 0,0 8.4447,-22.53852 16.9317,-45.62305 4.2434,-11.54226 8.4982,-23.22022 11.7129,-32.29102 1.6073,-4.53539 2.9535,-8.41809 3.9121,-11.3125 0.4792,-1.4472 0.862,-2.64552 1.1328,-3.56445 0.2707,-0.91893 0.4366,-1.45685 0.4765,-2.00195 a 1.0583349,1.0583349 0 0 0 -0.9785,-1.13282 z"
                    id="path42272"
                    stroke-width="0.5"
                    stroke-linecap="round"
                    stroke-linejoin="round"
                    stroke="black" />
                <path
                    d="m -3378.7891,309.85937 a 1.0583349,1.0583349 0 0 0 -1.1621,0.94532 c 0,-0.0191 -0.1547,0.66035 -0.4414,1.53515 -0.2866,0.87481 -0.7001,2.05463 -1.2207,3.48633 -1.0411,2.8634 -2.5096,6.738 -4.2597,11.26953 -3.5004,9.06307 -8.1305,20.75867 -12.7461,32.32422 -9.2313,23.1311 -18.4082,45.73828 -18.4082,45.73828 a 1.0583349,1.0583349 0 0 0 0.582,1.37891 1.0583349,1.0583349 0 0 0 1.3789,-0.58203 c 0,0 9.1797,-22.61131 18.4141,-45.75 4.6171,-11.56935 9.248,-23.2705 12.7539,-32.34766 1.7529,-4.53858 3.2234,-8.4208 4.2734,-11.30859 0.525,-1.4439 0.9452,-2.63851 1.2441,-3.55078 0.299,-0.91228 0.4788,-1.43138 0.5352,-1.97657 a 1.0583349,1.0583349 0 0 0 -0.9434,-1.16211 z"
                    id="path42274"
                    stroke-width="0.5"
                    stroke-linecap="round"
                    stroke-linejoin="round"
                    stroke="black" />
                <path
                    d="m -3371.5996,312.36328 a 1.0583349,1.0583349 0 0 0 -0.8848,1.20508 l 13.9004,90.95898 a 1.0583349,1.0583349 0 0 0 1.207,0.88672 1.0583349,1.0583349 0 0 0 0.8868,-1.20703 L -3370.3926,313.25 a 1.0583349,1.0583349 0 0 0 -1.207,-0.88672 z"
                    id="path42276"
                    stroke-width="0.5"
                    stroke-linecap="round"
                    stroke-linejoin="round"
                    stroke="black" />
                <path
                    d="m -3359.0625,335.90039 a 1.0583349,1.0583349 0 0 0 -0.8848,1.20703 c 0.2274,1.47746 3.0799,18.03484 5.9024,34.40039 2.8225,16.36555 5.5937,32.40039 5.5937,32.40039 a 1.0583349,1.0583349 0 0 0 1.2227,0.86328 1.0583349,1.0583349 0 0 0 0.8633,-1.22265 c 0,0 -2.7714,-16.03535 -5.5938,-32.40039 -2.8224,-16.36505 -5.7174,-33.19968 -5.8965,-34.36328 a 1.0583349,1.0583349 0 0 0 -1.207,-0.88477 z"
                    id="path42278"
                    stroke-width="0.5"
                    stroke-linecap="round"
                    stroke-linejoin="round"
                    stroke="black" />
                <path id="ellipse42280"
                    d="m -3544.3162,205.08046 a 1.1302927,1.3236921 0 0 1 -1.1303,1.32369 1.1302927,1.3236921 0 0 1 -1.1303,-1.32369 1.1302927,1.3236921 0 0 1 1.1303,-1.32369 1.1302927,1.3236921 0 0 1 1.1303,1.32369 z"
                    stroke-width="0.0911545"
                    stroke="black" />
                <path id="ellipse42282"
                    d="m -3540.6082,211.36029 a 1.2091507,1.4160432 0 0 1 -1.2092,1.41604 1.2091507,1.4160432 0 0 1 -1.2091,-1.41604 1.2091507,1.4160432 0 0 1 1.2091,-1.41604 1.2091507,1.4160432 0 0 1 1.2092,1.41604 z"
                    stroke-width="0.097514"
                    stroke="black" />
                <path id="ellipse42284"
                    d="m -3536.4012,218.88171 a 1.2091507,1.4160432 0 0 1 -1.2092,1.41605 1.2091507,1.4160432 0 0 1 -1.2091,-1.41605 1.2091507,1.4160432 0 0 1 1.2091,-1.41604 1.2091507,1.4160432 0 0 1 1.2092,1.41604 z"
                    stroke-width="0.097514"
                    stroke="black" />
                <path id="ellipse42286"
                    d="m -3532.9842,214.91064 a 1.2091507,1.4160432 0 0 1 -1.2092,1.41605 1.2091507,1.4160432 0 0 1 -1.2091,-1.41605 1.2091507,1.4160432 0 0 1 1.2091,-1.41604 1.2091507,1.4160432 0 0 1 1.2092,1.41604 z"
                    stroke-width="0.097514"
                    stroke="black" />
                <path id="ellipse42288"
                    d="m -3530.0291,226.03374 a 1.2091507,1.4160432 0 0 1 -1.2092,1.41604 1.2091507,1.4160432 0 0 1 -1.2091,-1.41604 1.2091507,1.4160432 0 0 1 1.2091,-1.41605 1.2091507,1.4160432 0 0 1 1.2092,1.41605 z"
                    stroke-width="0.097514"
                    stroke="black" />
                <path id="ellipse42290"
                    d="m -3528.8184,220.96472 a 1.2091507,1.4160432 0 0 1 -1.2092,1.41604 1.2091507,1.4160432 0 0 1 -1.2091,-1.41604 1.2091507,1.4160432 0 0 1 1.2091,-1.41604 1.2091507,1.4160432 0 0 1 1.2092,1.41604 z"
                    stroke-width="0.097514"
                    stroke="black" />
                <path id="ellipse42292"
                    d="m -3523.2569,223.28375 a 1.2091507,1.4160432 0 0 1 -1.2092,1.41605 1.2091507,1.4160432 0 0 1 -1.2091,-1.41605 1.2091507,1.4160432 0 0 1 1.2091,-1.41604 1.2091507,1.4160432 0 0 1 1.2092,1.41604 z"
                    stroke-width="0.097514"
                    stroke="black" />
                <path id="ellipse42294"
                    d="m -3524.3446,229.06079 a 1.2091507,1.4160432 0 0 1 -1.2091,1.41604 1.2091507,1.4160432 0 0 1 -1.2092,-1.41604 1.2091507,1.4160432 0 0 1 1.2092,-1.41604 1.2091507,1.4160432 0 0 1 1.2091,1.41604 z"
                    stroke-width="0.097514"
                    stroke="black" />
                <path id="ellipse42296"
                    d="m -3517.7159,225.50017 a 1.2091507,1.4160432 0 0 1 -1.2091,1.41604 1.2091507,1.4160432 0 0 1 -1.2092,-1.41604 1.2091507,1.4160432 0 0 1 1.2092,-1.41605 1.2091507,1.4160432 0 0 1 1.2091,1.41605 z"
                    stroke-width="0.097514"
                    stroke="black" />
                <path id="ellipse42298"
                    d="m -3517.9212,230.58971 a 1.2091507,1.4160432 0 0 1 -1.2092,1.41604 1.2091507,1.4160432 0 0 1 -1.2091,-1.41604 1.2091507,1.4160432 0 0 1 1.2091,-1.41605 1.2091507,1.4160432 0 0 1 1.2092,1.41605 z"
                    stroke-width="0.097514"
                    stroke="black" />
                <path id="ellipse42300"
                    d="m -3512.4725,225.82852 a 1.2091507,1.4160432 0 0 1 -1.2091,1.41604 1.2091507,1.4160432 0 0 1 -1.2092,-1.41604 1.2091507,1.4160432 0 0 1 1.2092,-1.41604 1.2091507,1.4160432 0 0 1 1.2091,1.41604 z"
                    stroke-width="0.097514"
                    stroke="black" />
                <path id="ellipse42302"
                    d="m -3511.9698,230.35368 a 1.2091507,1.4160432 0 0 1 -1.2092,1.41605 1.2091507,1.4160432 0 0 1 -1.2091,-1.41605 1.2091507,1.4160432 0 0 1 1.2091,-1.41604 1.2091507,1.4160432 0 0 1 1.2092,1.41604 z"
                    stroke-width="0.097514"
                    stroke="black" />
                <path id="ellipse42304"
                    d="m -3506.0081,224.36118 a 1.2091507,1.4160432 0 0 1 -1.2092,1.41604 1.2091507,1.4160432 0 0 1 -1.2091,-1.41604 1.2091507,1.4160432 0 0 1 1.2091,-1.41605 1.2091507,1.4160432 0 0 1 1.2092,1.41605 z"
                    stroke-width="0.097514"
                    stroke="black" />
                <path id="ellipse42306"
                    d="m -3506.2647,229.37891 a 1.2091507,1.4160432 0 0 1 -1.2092,1.41604 1.2091507,1.4160432 0 0 1 -1.2091,-1.41604 1.2091507,1.4160432 0 0 1 1.2091,-1.41605 1.2091507,1.4160432 0 0 1 1.2092,1.41605 z"
                    stroke-width="0.097514"
                    stroke="black" />
                <path id="ellipse42308"
                    d="m -3499.4307,219.51791 a 1.2091507,1.4160432 0 0 1 -1.2092,1.41605 1.2091507,1.4160432 0 0 1 -1.2091,-1.41605 1.2091507,1.4160432 0 0 1 1.2091,-1.41604 1.2091507,1.4160432 0 0 1 1.2092,1.41604 z"
                    stroke-width="0.097514"
                    stroke="black" />
                <path id="ellipse42310"
                    d="m -3500.1387,224.98711 a 1.2091507,1.4160432 0 0 1 -1.2092,1.41604 1.2091507,1.4160432 0 0 1 -1.2092,-1.41604 1.2091507,1.4160432 0 0 1 1.2092,-1.41605 1.2091507,1.4160432 0 0 1 1.2092,1.41605 z"
                    stroke-width="0.097514"
                    stroke="black" />
                <path id="ellipse42312"
                    d="m -3495.5726,214.89012 a 1.2091507,1.4160432 0 0 1 -1.2091,1.41604 1.2091507,1.4160432 0 0 1 -1.2092,-1.41604 1.2091507,1.4160432 0 0 1 1.2092,-1.41604 1.2091507,1.4160432 0 0 1 1.2091,1.41604 z"
                    stroke-width="0.097514"
                    stroke="black" />
                <path id="ellipse42314"
                    d="m -3494.6903,221.28282 a 1.2091507,1.4160432 0 0 1 -1.2091,1.41604 1.2091507,1.4160432 0 0 1 -1.2092,-1.41604 1.2091507,1.4160432 0 0 1 1.2092,-1.41604 1.2091507,1.4160432 0 0 1 1.2091,1.41604 z"
                    stroke-width="0.097514"
                    stroke="black" />
                <path id="ellipse42316"
                    d="m -3491.971,209.64667 a 1.2091507,1.4160432 0 0 1 -1.2092,1.41604 1.2091507,1.4160432 0 0 1 -1.2091,-1.41604 1.2091507,1.4160432 0 0 1 1.2091,-1.41605 1.2091507,1.4160432 0 0 1 1.2092,1.41605 z"
                    stroke-width="0.097514"
                    stroke="black" />
                <path id="ellipse42318"
                    d="m -3491.2323,215.21848 a 1.2091507,1.4160432 0 0 1 -1.2091,1.41604 1.2091507,1.4160432 0 0 1 -1.2092,-1.41604 1.2091507,1.4160432 0 0 1 1.2092,-1.41605 1.2091507,1.4160432 0 0 1 1.2091,1.41605 z"
                    stroke-width="0.097514"
                    stroke="black" />
            </g>
        </g>
    </g>
</svg>