<?xml version="1.0" encoding="UTF-8" standalone="no"?>
<!-- Created with Inkscape (http://www.inkscape.org/) -->

<svg width="100%" height="100%"
    viewBox="0 0 438.02278 742.6001"
    version="1.1" id="svg5"
    xml:space="preserve"
    xmlns="http://www.w3.org/2000/svg"
    xmlns:svg="http://www.w3.org/2000/svg">
    <defs id="defs2" />
    <g id="layer1"
        transform="translate(-1738.3829,-115.20794)">
        <g id="notion-selfie-content-creator"
            transform="matrix(2,0,0,2,697.92035,-51.512363)"
            style="stroke-width:0.5">
            <title id="title88217">
                notion-selfie-content-creator
            </title>
            <path
                d="m 573.1219,94.319722 c -34.20995,-0.571499 -37.55899,42.403878 -18.11604,49.959148 1.40043,0.54418 -0.53435,-8.87402 3.15264,-9.73025 2.84311,-0.66025 3.61987,9.92312 5.14736,10.86236 0.52289,0.32152 1.18553,0.40845 1.93516,0.33118 0.59149,-0.061 1.3405,-4.64893 2.85786,-4.35862 1.60793,0.30765 0.84326,3.39205 1.30318,2.96217 1.36313,-1.27407 3.36832,-1.78178 4.70064,-2.46037 7.04884,-3.59018 9.83772,-15.14468 12.26803,-23.06299 0,0 10.7707,8.80258 20.26504,10.51356 6.00765,1.08264 18.36407,-0.5732 18.28425,-1.03031 -0.0798,-0.45711 -3.63494,-1.46877 -4.26631,-5.86264 -3.7402,-26.028977 -16.41324,-55.520265 -47.53181,-28.123238 z"
                id="path40800"
                stroke-width="1.05833"
                stroke-linecap="round"
                stroke-linejoin="round"
                stroke="black" />
            <path
                d="m 558.16797,133.97852 c -1.59065,0.0874 -2.90414,1.18087 -3.54883,2.80859 -0.64469,1.62772 -0.89015,3.81929 -0.96875,6.80273 -0.0533,2.02209 0.22216,3.74446 1.06055,5.29297 0.83838,1.54852 2.18642,2.86312 4.12109,4.2461 a 1.0583349,1.0583349 0 0 0 1.47656,-0.2461 1.0583349,1.0583349 0 0 0 -0.24414,-1.47656 c -1.79617,-1.28397 -2.86835,-2.37901 -3.49218,-3.53125 -0.62384,-1.15224 -0.85231,-2.42303 -0.80469,-4.23047 0.076,-2.88295 0.35964,-4.91501 0.82031,-6.07812 0.46067,-1.16312 0.82797,-1.42695 1.69531,-1.47461 0.58268,-0.032 0.99636,0.10904 1.45508,0.53711 0.45872,0.42806 0.93453,1.20208 1.31641,2.38867 0.76375,2.37318 1.13039,6.32536 0.86914,11.93359 a 1.0583349,1.0583349 0 0 0 1.00976,1.10742 1.0583349,1.0583349 0 0 0 1.10547,-1.00781 c 0.26746,-5.74152 -0.0636,-9.86312 -0.9707,-12.68164 -0.45354,-1.40926 -1.05636,-2.51224 -1.88672,-3.28711 -0.83036,-0.77487 -1.91773,-1.16374 -3.01367,-1.10351 z"
                id="path40802"
                stroke-width="0.5"
                stroke-linecap="round"
                stroke-linejoin="round"
                stroke="black" />
            <path
                d="m 566.79492,140.55078 c -0.68099,0.26526 -1.24264,0.90583 -1.49805,1.70899 -0.20552,0.64631 -6.57152,18.00466 -8.51953,21.26171 a 1.0583349,1.0583349 0 0 0 0.36524,1.45118 1.0583349,1.0583349 0 0 0 1.45117,-0.36524 c 2.51049,-4.19752 8.24537,-20.21033 8.7207,-21.70508 0.10882,-0.34219 0.1844,-0.35411 0.24805,-0.3789 0.0637,-0.0248 0.21999,-0.0361 0.42578,0.043 0.20579,0.0791 0.42671,0.24757 0.53516,0.38867 0.10845,0.14109 0.084,0.18962 0.0937,0.14648 l -6.76953,29.83594 a 1.0583349,1.0583349 0 0 0 0.79882,1.26562 1.0583349,1.0583349 0 0 0 1.26563,-0.79882 l 6.76953,-29.83399 c 0.16718,-0.73684 -0.10509,-1.41591 -0.48047,-1.90429 -0.37538,-0.48838 -0.8744,-0.85177 -1.45312,-1.07422 -0.57872,-0.22246 -1.27214,-0.30628 -1.95313,-0.041 z"
                id="path40804"
                stroke-width="0.5"
                stroke-linecap="round"
                stroke-linejoin="round"
                stroke="black" />
            <path
                d="m 543.35352,141.58398 c -0.89756,0.18655 -1.56319,0.98913 -1.78711,1.80469 -0.22393,0.81556 -0.19828,1.71303 -0.0625,2.74805 0.27154,2.07003 1.05108,4.69272 2.08007,7.61328 2.058,5.84112 5.13558,12.8269 7.24024,18.01758 a 1.0583349,1.0583349 0 0 0 1.37695,0.58398 1.0583349,1.0583349 0 0 0 0.58399,-1.3789 c -2.12574,-5.24267 -5.19128,-12.21012 -7.20508,-17.92579 -1.0069,-2.85783 -1.74445,-5.41614 -1.97656,-7.18554 -0.11606,-0.8847 -0.09,-1.57017 0.004,-1.91211 0.0939,-0.34194 0.0635,-0.26922 0.17774,-0.29297 0.23399,-0.0486 0.44844,-0.0209 0.78515,0.16406 0.33671,0.18494 0.75762,0.54387 1.19922,1.06446 0.88319,1.04118 1.84397,2.69912 2.78711,4.63671 1.88629,3.8752 3.73649,8.85753 5.51367,12.66407 a 1.0583349,1.0583349 0 0 0 1.40625,0.51172 1.0583349,1.0583349 0 0 0 0.51172,-1.40625 c -1.71473,-3.67279 -3.57024,-8.67063 -5.5293,-12.69532 -0.97952,-2.01234 -1.97674,-3.78398 -3.07617,-5.08008 -0.54971,-0.64804 -1.12692,-1.18496 -1.79297,-1.55078 -0.66604,-0.36581 -1.4585,-0.54252 -2.23632,-0.38086 z"
                id="path40806"
                stroke-width="0.5"
                stroke-linecap="round"
                stroke-linejoin="round"
                stroke="black" />
            <path
                d="m 545.73047,161.54883 c -0.70002,0.0929 -1.43075,0.39279 -2.07031,1.01172 -0.7002,0.6776 -1.15941,1.48128 -1.21289,2.33789 -0.0535,0.85661 0.16456,1.62698 0.4121,2.73437 0.31181,1.39486 1.15433,2.83326 1.91211,4.01758 0.75779,1.18433 1.45313,2.08203 1.45313,2.08203 a 1.0583349,1.0583349 0 0 0 1.48633,0.1875 1.0583349,1.0583349 0 0 0 0.1875,-1.48437 c 0,0 -0.64085,-0.82724 -1.34375,-1.92578 -0.7029,-1.09855 -1.44395,-2.50175 -1.63086,-3.3379 -0.25117,-1.12361 -0.38606,-1.80901 -0.36524,-2.14257 0.0208,-0.33356 0.0624,-0.45387 0.57227,-0.94727 0.70653,-0.68374 1.14223,-0.56198 1.69141,-0.33984 0.54917,0.22213 0.9707,0.63476 0.9707,0.63476 a 1.0583349,1.0583349 0 0 0 1.49609,0.0234 1.0583349,1.0583349 0 0 0 0.0234,-1.49609 c 0,0 -0.66411,-0.70711 -1.69727,-1.125 -0.51657,-0.20895 -1.18475,-0.32337 -1.88476,-0.23047 z"
                id="path40808"
                stroke-width="0.5"
                stroke-linecap="round"
                stroke-linejoin="round"
                stroke="black" />
            <path
                d="m 541.9668,164.72656 c -0.84748,-0.0969 -1.70766,0.0616 -2.43946,0.39063 -1.46359,0.65802 -2.71418,2.01975 -2.55664,3.73828 0.0886,0.96644 0.56254,1.91179 1.19922,3.17187 0.63668,1.26009 1.46097,2.70455 2.30469,4.0918 0.84372,1.38725 1.70438,2.71315 2.41992,3.73242 0.35777,0.50964 0.67916,0.94002 0.95508,1.27735 0.13796,0.16866 0.26297,0.31313 0.39258,0.44336 0.1296,0.13023 0.20657,0.25173 0.54297,0.39843 1.20244,0.5244 2.47109,0.14955 3.58984,-0.47265 1.11875,-0.62221 2.14425,-1.573 2.75977,-2.77149 a 1.0583349,1.0583349 0 0 0 -0.45899,-1.42578 1.0583349,1.0583349 0 0 0 -1.42383,0.45899 c -0.3717,0.72374 -1.13306,1.45865 -1.90625,1.88867 -0.74772,0.41586 -1.42081,0.44957 -1.6582,0.36914 -0.0538,-0.0576 -0.11438,-0.12241 -0.20117,-0.22852 -0.22095,-0.27011 -0.52031,-0.67131 -0.85938,-1.15429 -0.67812,-0.96598 -1.52142,-2.26511 -2.34375,-3.61719 -0.82233,-1.35208 -1.6242,-2.76088 -2.22265,-3.94531 -0.59846,-1.18444 -0.97011,-2.27578 -0.98243,-2.41016 -0.0443,-0.48308 0.46465,-1.23141 1.31836,-1.61524 0.85372,-0.38382 1.75303,-0.37729 2.42383,0.30665 a 1.0583349,1.0583349 0 0 0 1.4961,0.0137 1.0583349,1.0583349 0 0 0 0.0156,-1.4961 c -0.68147,-0.69481 -1.51776,-1.04759 -2.36523,-1.14453 z"
                id="path40810"
                stroke-width="0.5"
                stroke-linecap="round"
                stroke-linejoin="round"
                stroke="black" />
            <path
                d="m 554.02734,171.3125 c -2.46399,-0.0312 -4.79441,0.26076 -6.5664,1.04687 -0.886,0.39306 -1.6571,0.92026 -2.16211,1.69141 -0.50501,0.77115 -0.65351,1.78915 -0.375,2.76563 0.11206,0.3929 0.39227,0.73648 0.68359,0.93554 0.29133,0.19907 0.58276,0.29356 0.86914,0.35938 0.57277,0.13164 1.16087,0.14488 1.80078,0.1582 1.27983,0.0266 2.74888,0.0256 3.93946,0.36524 2.1325,0.60837 5.66211,2.48046 5.66211,2.48046 a 1.0583349,1.0583349 0 0 0 1.43359,-0.42968 1.0583349,1.0583349 0 0 0 -0.42969,-1.4336 c 0,0 -3.48136,-1.90929 -6.08594,-2.65234 -1.60784,-0.45869 -3.25493,-0.41992 -4.4746,-0.44531 -0.59768,-0.0125 -1.08646,-0.0476 -1.34375,-0.10352 -0.0573,-0.33613 -0.065,-0.60044 0.0918,-0.83984 0.1914,-0.29227 0.60422,-0.62953 1.25,-0.91602 1.29158,-0.57298 3.41475,-0.89395 5.67969,-0.86523 2.26494,0.0287 4.68539,0.38617 6.63867,1.00781 1.95328,0.62164 3.37713,1.5623 3.8125,2.34375 0.3019,0.54188 0.16303,2.15656 -0.76172,4.14844 -0.92474,1.99188 -2.4698,4.30033 -4.22265,6.36328 -1.75285,2.06294 -3.7261,3.88981 -5.42383,4.95898 -0.84887,0.53459 -1.62834,0.87287 -2.21875,0.99024 -0.59041,0.11736 -0.92624,0.0432 -1.1875,-0.14453 a 1.0583349,1.0583349 0 0 0 -1.47656,0.24218 1.0583349,1.0583349 0 0 0 0.24218,1.47657 c 0.8262,0.59378 1.864,0.69516 2.83594,0.50195 0.97194,-0.19321 1.94222,-0.65105 2.93359,-1.27539 1.98276,-1.24868 4.05104,-3.19319 5.90821,-5.37891 1.85717,-2.18572 3.49053,-4.60432 4.52929,-6.84179 1.03877,-2.23748 1.64858,-4.35423 0.69141,-6.07227 -0.91976,-1.6509 -2.81335,-2.62795 -5.01953,-3.33008 -2.20618,-0.70213 -4.78991,-1.07618 -7.25391,-1.10742 z"
                id="path40812"
                stroke-width="0.5"
                stroke-linecap="round"
                stroke-linejoin="round"
                stroke="black" />
            <path
                d="m 554.90039,178.57617 a 1.0583349,1.0583349 0 0 0 -0.97266,1.13672 c 0.17638,2.2738 -1.09661,4.46946 -2.80468,5.6582 a 1.0583349,1.0583349 0 0 0 -0.26368,1.47461 1.0583349,1.0583349 0 0 0 1.47266,0.26367 c 2.29188,-1.59503 3.94803,-4.42843 3.70508,-7.56054 a 1.0583349,1.0583349 0 0 0 -1.13672,-0.97266 z"
                id="path40814"
                stroke-width="0.5"
                stroke-linecap="round"
                stroke-linejoin="round"
                stroke="black" />
            <path
                d="m 541.41211,174.41016 a 1.0583349,1.0583349 0 0 0 -1.35742,0.6289 c -1.92911,5.25098 -0.68749,10.40989 2.90625,17.73047 a 1.0583349,1.0583349 0 0 0 1.41601,0.48242 1.0583349,1.0583349 0 0 0 0.48242,-1.41601 c -3.50935,-7.14871 -4.49768,-11.49534 -2.81835,-16.06641 a 1.0583349,1.0583349 0 0 0 -0.62891,-1.35937 z"
                id="path40816"
                stroke-width="0.5"
                stroke-linecap="round"
                stroke-linejoin="round"
                stroke="black" />
            <path
                d="m 537.23437,182.22656 c 0,0 -9.41971,7.6039 -13.65039,21.94336 -0.96726,3.27843 -1.20248,7.93874 -1.23632,11.75781 -0.0169,1.90954 0.0233,3.59797 0.0684,4.76758 0.0226,0.58481 0.0454,1.03881 0.0644,1.33203 0.01,0.14662 0.0171,0.24173 0.0273,0.33399 0.003,0.0231 0.005,0.0457 0.0117,0.0879 0.004,0.0211 0.007,0.0448 0.0215,0.10156 0.007,0.0284 0.0427,0.13226 0.043,0.13281 2.3e-4,5.5e-4 0.30839,0.41976 0.3086,0.41993 2e-4,1.6e-4 1.48028,-0.1326 1.48047,-0.13282 1.8e-4,-2.1e-4 0.21468,-0.40955 0.21484,-0.41015 3.3e-4,-0.001 0.0305,-0.15857 0.0332,-0.18946 0.005,-0.0618 0.006,-0.0825 0.006,-0.10742 a 1.0583349,1.0583349 0 0 0 -0.10547,-0.41015 c 0.003,0.005 0.0235,0.0332 0.0234,0.0332 -2.2e-4,-5.5e-4 0.0361,0.10241 0.043,0.1289 0.0138,0.053 0.0172,0.0716 0.0195,0.0859 0.005,0.0287 0.004,0.0296 0.004,0.0273 -10e-4,-0.009 -0.0109,-0.10775 -0.0195,-0.24024 -0.0172,-0.26497 -0.0386,-0.70568 -0.0606,-1.27539 -0.0439,-1.13942 -0.0849,-2.79925 -0.0684,-4.66797 0.0331,-3.73744 0.31651,-8.35139 1.15039,-11.17773 4.04792,-13.72001 12.94922,-20.89453 12.94922,-20.89453 a 1.0583349,1.0583349 0 0 0 0.16016,-1.48828 1.0583349,1.0583349 0 0 0 -1.48829,-0.15821 z m -13.00195,39.24219 c 5e-5,0 0.006,0 0.006,0 -10e-6,-1e-5 0.0187,0.0255 0.0215,0.0293 a 1.0583349,1.0583349 0 0 0 -0.0273,-0.0293 z m -1.0293,0.0937 a 1.0583349,1.0583349 0 0 0 -0.69335,0.67773 c 10e-6,-0.001 -5.4e-4,-0.004 0.004,-0.0547 0.002,-0.0253 0.0316,-0.17895 0.0312,-0.17774 -1.6e-4,6.1e-4 0.21308,-0.40646 0.21289,-0.40625 -5e-5,7e-5 0.25817,-0.0222 0.44531,-0.0391 z"
                id="path40818"
                stroke-width="0.5"
                stroke-linecap="round"
                stroke-linejoin="round"
                stroke="black" />
            <path
                d="m 540.54883,189.55664 a 1.0583349,1.0583349 0 0 0 -1.44727,0.37891 c -4.87134,8.32661 -12.45592,21.19728 -15.5625,29.60547 -1.3655,3.69583 -2.46363,7.95731 -2.98437,11.70507 -0.26037,1.87388 -0.37857,3.61741 -0.29883,5.12305 0.0797,1.50564 0.3189,2.7853 1.00391,3.77539 1.44948,2.09506 4.15517,2.51931 6.61914,2.41016 2.46397,-0.10915 4.80422,-0.74938 6.16992,-1.4375 1.47716,-0.7443 3.35509,-2.54602 5.40039,-5.33789 2.0453,-2.79187 4.14849,-6.55214 5.58984,-11.08203 2.5865,-8.12888 4.11005,-18.90551 8.33399,-29.90625 a 1.0583349,1.0583349 0 0 0 -0.60743,-1.36915 1.0583349,1.0583349 0 0 0 -1.36718,0.60938 c -4.32786,11.2714 -5.8835,22.18699 -8.37696,30.02344 -1.36343,4.28504 -3.36134,7.85462 -5.27929,10.47265 -1.91795,2.61804 -3.86441,4.30711 -4.64649,4.70118 -0.91463,0.46085 -3.18139,1.11662 -5.31054,1.21093 -2.12915,0.0943 -4.00317,-0.36973 -4.78516,-1.5 -0.2818,-0.40731 -0.56166,-1.37708 -0.63086,-2.68359 -0.0692,-1.30651 0.0339,-2.93847 0.28125,-4.71875 0.49473,-3.56056 1.5636,-7.71957 2.87305,-11.26367 2.95915,-8.00916 10.53093,-20.93751 15.40429,-29.26758 a 1.0583349,1.0583349 0 0 0 -0.3789,-1.44922 z"
                id="path40820"
                stroke-width="0.5"
                stroke-linecap="round"
                stroke-linejoin="round"
                stroke="black" />
            <path
                d="m 616.32031,181.17578 a 1.0583349,1.0583349 0 0 0 -0.68359,1.33203 c 12.74826,39.64305 14.43727,45.32756 12.3789,84.21485 -33.02965,16.10442 -67.74051,14.85889 -92.57226,1.21289 3.34923,-14.8033 6.63527,-21.74956 9.49805,-28.5586 2.92124,-6.94811 5.37349,-13.85196 6.77539,-28.64062 a 1.0583349,1.0583349 0 0 0 -0.95313,-1.1543 1.0583349,1.0583349 0 0 0 -1.1543,0.95508 c -1.3861,14.62202 -3.72648,21.13942 -6.61914,28.01953 -2.89265,6.88011 -6.36377,14.13367 -9.81836,29.73047 a 1.0584408,1.0584408 0 0 0 0.51368,1.15234 c 25.70702,14.47237 61.75987,15.76526 95.83398,-1.0625 a 1.0584408,1.0584408 0 0 0 0.58789,-0.89258 c 2.12648,-39.67176 0.37799,-45.71216 -12.45703,-85.625 a 1.0583349,1.0583349 0 0 0 -1.33008,-0.68359 z"
                id="path40822"
                stroke-width="0.5"
                stroke-linecap="round"
                stroke-linejoin="round"
                stroke="black" />
            <path
                d="m 721,112.29688 a 1.0584408,1.0584408 0 0 0 -0.58594,0.92382 c 0,0 -0.0936,2.32208 -0.4082,3.38672 -0.31775,1.07547 -1.17642,2.27013 -5.00195,6.48438 -2.11806,2.33329 -2.34474,4.71846 -1.89844,6.38281 0.32755,1.22151 0.86056,1.93085 1.18359,2.31445 -0.19531,0.23257 -0.58955,0.60864 -1.20703,1.05664 -1.33411,0.96794 -3.45258,2.20306 -5.85742,3.48633 -4.80968,2.56654 -10.79434,5.35773 -14.44141,7.0625 -26.83303,12.54277 -61.60067,25.34854 -84.3457,23.27539 a 1.0583349,1.0583349 0 0 0 -1.15039,0.95703 1.0583349,1.0583349 0 0 0 0.95703,1.15039 c 23.71,2.16111 58.47235,-10.86123 85.43555,-23.46484 3.64539,-1.70399 9.65091,-4.50382 14.54101,-7.11328 2.44506,-1.30473 4.60568,-2.5539 6.10352,-3.64063 0.74892,-0.54336 1.33223,-1.02579 1.75,-1.57812 0.20888,-0.27617 0.39817,-0.57838 0.45898,-1.01172 0.0608,-0.43334 -0.13273,-1.00612 -0.46484,-1.31641 l 0.0254,0.0254 c 0,0 -0.65282,-0.66118 -0.94531,-1.75195 -0.29249,-1.09077 -0.29771,-2.51779 1.42187,-4.41211 3.84976,-4.24094 4.98224,-5.67317 5.46485,-7.30664 0.22255,-0.75328 0.15921,-1.06143 0.22656,-1.80469 0.28753,0.36428 0.65205,0.83096 0.64648,0.79493 -0.005,-0.0329 0.008,0.74325 -0.0566,1.60351 -0.0649,0.86026 -0.17157,1.93214 -0.29297,2.99805 -0.1214,1.0659 -0.25854,2.12928 -0.38086,2.98047 -0.12231,0.85118 -0.26043,1.57709 -0.27539,1.6289 -0.13312,0.46116 -0.0847,0.68553 -0.0644,1.06641 0.0203,0.38087 0.0652,0.83236 0.125,1.33984 0.11952,1.01496 0.30371,2.24778 0.49609,3.44922 0.31324,1.95617 0.54,3.17924 0.6543,3.80664 -0.8964,0.28388 -3.7072,1.14381 -5.63086,2.15039 -3.49334,1.82796 -6.93433,5.12419 -10.55273,8.63867 -3.6184,3.51449 -7.39651,7.25424 -11.3418,9.97266 -14.89678,10.26432 -30.18164,17.04688 -30.18164,17.04688 a 1.0583349,1.0583349 0 0 0 -0.53711,1.39648 1.0583349,1.0583349 0 0 0 1.39648,0.53906 c 0,0 15.42854,-6.83939 30.52344,-17.24023 4.16966,-2.87302 8.00846,-6.69212 11.61524,-10.19531 3.60677,-3.5032 6.99978,-6.68263 10.05859,-8.28321 1.77977,-0.93129 6.1582,-2.33984 6.1582,-2.33984 a 1.0584408,1.0584408 0 0 0 0.72266,-1.20117 c 0,0 -0.41524,-2.25389 -0.79492,-4.625 -0.18984,-1.18556 -0.3711,-2.40136 -0.48438,-3.36328 -0.0566,-0.48096 -0.0971,-0.9005 -0.11328,-1.20508 -0.0162,-0.30458 0.0457,-0.57951 -0.0156,-0.36719 0.1287,-0.44585 0.2117,-1.03592 0.33789,-1.91406 0.12619,-0.87814 0.26313,-1.95788 0.38672,-3.04297 0.12358,-1.08509 0.2346,-2.17376 0.30273,-3.07617 0.0681,-0.90242 0.12942,-1.4906 0.0371,-2.08789 -0.18288,-1.18335 -0.97788,-1.82299 -1.63281,-2.43164 -0.65494,-0.60866 -1.27735,-1.05664 -1.27735,-1.05664 A 1.0584408,1.0584408 0 0 0 721,112.29688 Z"
                id="path40824"
                stroke-width="0.5"
                stroke-linecap="round"
                stroke-linejoin="round"
                stroke="black" />
            <path
                d="m 663.18164,156.00977 a 1.0583349,1.0583349 0 0 0 -1.34961,0.64453 c -2.88048,8.15056 0.4175,14.28879 3.32227,20.17382 a 1.0583349,1.0583349 0 0 0 1.41601,0.48047 1.0583349,1.0583349 0 0 0 0.48242,-1.41601 c -2.92984,-5.93584 -5.83008,-11.16081 -3.22461,-18.53321 a 1.0583349,1.0583349 0 0 0 -0.64648,-1.3496 z"
                id="path40826"
                stroke-width="0.5"
                stroke-linecap="round"
                stroke-linejoin="round"
                stroke="black" />
            <path
                d="m 668.96484,171.5293 a 1.0583349,1.0583349 0 0 0 -1.14648,0.96289 l -0.46875,5.38476 c -13.238,10.54366 -27.92492,17.59691 -45.44141,19.1211 a 1.0583349,1.0583349 0 0 0 -0.96093,1.14648 1.0583349,1.0583349 0 0 0 1.14453,0.96289 c 18.1293,-1.57751 33.36682,-8.94258 46.93164,-19.82812 a 1.0584408,1.0584408 0 0 0 0.39062,-0.73438 l 0.51367,-5.86914 a 1.0583349,1.0583349 0 0 0 -0.96289,-1.14648 z"
                id="path40828"
                stroke-width="0.5"
                stroke-linecap="round"
                stroke-linejoin="round"
                stroke="black" />
            <path
                d="m 724.01562,101.79688 -4.5996,1.07226 a 0.52921795,0.52921795 0 0 0 -0.40235,0.60352 c 0,0 0.35238,2.13053 0.70117,4.33203 0.1744,1.10075 0.3477,2.21853 0.47461,3.09375 0.0635,0.43761 0.11603,0.81515 0.15039,1.0957 0.0344,0.28055 0.0417,0.53628 0.0469,0.45508 a 0.52916503,0.52916503 0 0 0 0.49414,0.5625 0.52916503,0.52916503 0 0 0 0.56055,-0.49414 c 0.0143,-0.22269 -0.0147,-0.35793 -0.0508,-0.65235 -0.0361,-0.29441 -0.0883,-0.67526 -0.15234,-1.11718 -0.12816,-0.88385 -0.30178,-2.0062 -0.47656,-3.10938 -0.31008,-1.95709 -0.55812,-3.44515 -0.625,-3.84961 l 3.55078,-0.83008 4.31055,32.9336 -2.82422,0.72265 -0.41602,-0.80664 a 0.52916503,0.52916503 0 0 0 -0.71289,-0.22851 0.52916503,0.52916503 0 0 0 -0.22656,0.71289 l 0.60937,1.18164 a 0.52921795,0.52921795 0 0 0 0.60157,0.27148 l 3.68554,-0.94336 a 0.52921795,0.52921795 0 0 0 0.39258,-0.58203 l -4.44726,-33.97851 a 0.52921795,0.52921795 0 0 0 -0.64454,-0.44531 z"
                id="path40830"
                stroke-width="0.5"
                stroke-linecap="round"
                stroke-linejoin="round"
                stroke="black" />
            <path
                d="m 726.30664,98.166016 -8.56055,1.761718 a 0.52921795,0.52921795 0 0 0 -0.41601,0.603516 c 0,0 0.55453,3.4602 1.14062,7.03125 0.29305,1.78553 0.59468,3.59899 0.83789,5.02148 0.12161,0.71125 0.22755,1.3237 0.3125,1.78907 0.085,0.46536 0.13686,0.74602 0.18946,0.93164 a 0.52916503,0.52916503 0 0 0 0.65234,0.36523 0.52916503,0.52916503 0 0 0 0.36523,-0.65234 c -0.009,-0.0321 -0.0823,-0.3756 -0.16601,-0.83399 -0.0837,-0.45838 -0.18932,-1.06828 -0.31055,-1.77734 -0.24246,-1.41813 -0.54309,-3.22938 -0.83594,-5.01367 -0.54404,-3.31484 -0.98969,-6.08793 -1.06054,-6.5293 l 7.50976,-1.548827 5.56836,40.546877 c -0.38007,0.0918 -1.60478,0.39403 -3.21093,0.70898 -0.91929,0.18027 -1.83975,0.3372 -2.50977,0.4043 -0.2927,0.0293 -0.50675,0.0317 -0.66211,0.0254 -0.12325,-1.02438 -0.49023,-3.87891 -0.49023,-3.87891 a 0.52916503,0.52916503 0 0 0 -0.5918,-0.45703 0.52916503,0.52916503 0 0 0 -0.45703,0.59375 c 0,0 0.45061,3.50096 0.52734,4.17774 0.0314,0.27706 0.26244,0.46416 0.41211,0.52929 0.14967,0.0651 0.27565,0.082 0.41211,0.0937 0.27292,0.0234 0.58513,0.006 0.95313,-0.0312 0.73599,-0.0737 1.67392,-0.23649 2.60937,-0.41992 1.87089,-0.36686 3.72461,-0.82031 3.72461,-0.82031 a 0.52921795,0.52921795 0 0 0 0.39844,-0.58594 L 726.9375,98.611328 a 0.52921795,0.52921795 0 0 0 -0.63086,-0.445312 z"
                id="path40832"
                stroke-width="0.5"
                stroke-linecap="round"
                stroke-linejoin="round"
                stroke="black" />
            <path
                d="m 726.64258,98.085937 a 0.52916503,0.52916503 0 0 0 -0.59375,0.455079 0.52916503,0.52916503 0 0 0 0.45508,0.59375 c 0.40994,0.05406 1.14577,0.07315 1.82812,0.08594 0.43337,0.0081 0.57865,0.0062 0.8125,0.0078 l 5.02539,40.210934 -2.09375,0.36328 a 0.52916503,0.52916503 0 0 0 -0.42969,0.61133 0.52916503,0.52916503 0 0 0 0.61133,0.43164 l 2.58985,-0.44922 a 0.52921795,0.52921795 0 0 0 0.43554,-0.58789 l -5.14453,-41.169918 a 0.52921795,0.52921795 0 0 0 -0.52344,-0.462891 c 0,0 -0.59103,-0.0011 -1.26367,-0.01367 -0.67263,-0.01261 -1.45866,-0.04316 -1.70898,-0.07617 z"
                id="path40834"
                stroke-width="0.5"
                stroke-linecap="round"
                stroke-linejoin="round"
                stroke="black" />
            <path
                d="m 703.26367,99.753906 a 1.0583349,1.0583349 0 0 0 -1.49414,0.0957 1.0583349,1.0583349 0 0 0 0.0957,1.494144 c 0,0 2.3967,2.10463 4.85547,4.28711 1.22939,1.09124 2.47551,2.20197 3.44141,3.07617 0.48295,0.4371 0.89589,0.81592 1.19922,1.09961 0.30333,0.28369 0.56464,0.56798 0.47851,0.46094 a 1.0583349,1.0583349 0 0 0 1.48828,0.16015 1.0583349,1.0583349 0 0 0 0.16016,-1.48828 c -0.2131,-0.26485 -0.3632,-0.38187 -0.68164,-0.67968 -0.31844,-0.29782 -0.73689,-0.68164 -1.22461,-1.12305 -0.97543,-0.88282 -2.22299,-1.9962 -3.45508,-3.08984 -2.46418,-2.18729 -4.86328,-4.292977 -4.86328,-4.292977 z"
                id="path40836"
                stroke-width="0.5"
                stroke-linecap="round"
                stroke-linejoin="round"
                stroke="black" />
            <path
                d="m 708.63867,113.5293 a 1.0583349,1.0583349 0 0 0 -1.16992,0.93359 1.0583349,1.0583349 0 0 0 0.93555,1.16992 c 0,0 1.0082,0.11305 2.08203,0.22852 1.07383,0.11547 2.0848,0.22907 2.5332,0.24805 a 1.0583349,1.0583349 0 0 0 1.10156,-1.01172 1.0583349,1.0583349 0 0 0 -1.01367,-1.10352 c -0.0667,-0.003 -1.32614,-0.12339 -2.39453,-0.23828 -1.06839,-0.11489 -2.07422,-0.22656 -2.07422,-0.22656 z"
                id="path40838"
                stroke-width="0.5"
                stroke-linecap="round"
                stroke-linejoin="round"
                stroke="black" />
            <path
                d="m 711.98047,119.61328 -4.04883,0.76953 a 1.0583349,1.0583349 0 0 0 -0.8418,1.23828 1.0583349,1.0583349 0 0 0 1.23633,0.8418 l 4.04883,-0.76953 a 1.0583349,1.0583349 0 0 0 0.84375,-1.23633 1.0583349,1.0583349 0 0 0 -1.23828,-0.84375 z"
                id="path40840"
                stroke-width="0.5"
                stroke-linecap="round"
                stroke-linejoin="round"
                stroke="black" />
            <path
                d="m 720.98828,140.48437 a 1.0583349,1.0583349 0 0 0 -1.45312,0.36133 l -2.95899,4.91797 a 1.0583349,1.0583349 0 0 0 0.35938,1.45313 1.0583349,1.0583349 0 0 0 1.45312,-0.36133 l 2.96094,-4.91992 a 1.0583349,1.0583349 0 0 0 -0.36133,-1.45118 z"
                id="path40842"
                stroke-width="0.5"
                stroke-linecap="round"
                stroke-linejoin="round"
                stroke="black" />
            <path
                d="m 735.00977,113.77148 c -0.40602,-0.01 -0.68637,0.0806 -0.84766,0.10157 a 0.79382936,0.79382936 0 0 0 -0.69141,0.78711 l 0.37696,-0.67578 c -0.46105,0.28464 -1.17041,0.52629 -1.80274,1.13476 -0.58385,0.56185 -0.59231,1.30424 -0.52734,1.91406 0.065,0.60982 0.24356,1.16802 0.42383,1.58008 0.21076,0.48183 0.57426,0.64265 0.90625,0.85938 -0.83025,1.37234 -0.64526,3.11436 -0.10157,4.36914 0.17661,0.40758 0.4477,0.65084 0.72266,0.86328 0.26046,0.20123 0.52808,0.34974 0.80664,0.45703 -0.43778,0.70358 -0.98526,1.52292 -0.89648,2.67773 0.0374,0.48672 0.23135,0.90828 0.49218,1.27735 0.22106,0.31278 0.52785,0.55557 0.875,0.7539 -0.26806,0.36998 -0.49808,0.75542 -0.64843,1.07422 -0.19157,0.40612 -0.50644,1.0137 -0.33204,1.78906 0.11449,0.509 0.3764,0.88783 0.6836,1.2793 0.3072,0.39148 0.56454,0.76077 1.17578,0.95117 0.44843,0.13971 0.76753,0.0608 0.95703,0.0391 0.0868,-0.009 0.37995,0.068 0.82813,-0.25196 0.49593,-0.35426 0.87275,-0.86553 1.15039,-1.44922 0.27764,-0.58368 0.46867,-1.24941 0.28906,-1.95507 -0.11179,-0.4389 -0.32035,-0.72844 -0.43359,-0.92774 -0.11298,-0.19879 -0.23964,-0.37137 -0.37305,-0.57422 0.10762,-0.0742 0.11182,-0.0234 0.24219,-0.16406 0.49635,-0.53552 0.76748,-1.22501 0.88867,-1.93359 0.12119,-0.70858 0.0941,-1.44548 -0.17578,-2.11133 -0.2883,-0.7113 -0.85949,-1.15663 -1.49414,-1.42188 0.56526,-1.1173 0.74654,-2.55869 0.20117,-3.80078 -0.34587,-0.78771 -0.89591,-1.53981 -1.75781,-2.0039 -0.11208,-0.0604 -0.1468,-0.0658 -0.19727,-0.082 0.20003,-0.451 0.37192,-0.92356 0.44336,-1.46094 0.0896,-0.67396 0.11491,-1.34695 -0.10547,-1.97656 -0.0181,-0.0517 -0.0761,-0.22551 -0.16797,-0.41602 -0.046,-0.0953 -0.0983,-0.1965 -0.19531,-0.32031 -0.097,-0.12381 -0.25358,-0.36879 -0.71289,-0.38086 a 0.79382936,0.79382936 0 0 0 -0.002,-0.002 z m -0.41993,1.64258 c 1.5e-4,4.1e-4 -1.4e-4,0.002 0,0.002 0.0599,0.17101 0.0986,0.72068 0.0293,1.24218 -0.0693,0.52151 -0.24476,1.05671 -0.34961,1.23438 0.0396,-0.067 -0.1176,0.0925 -0.27344,0.4043 -0.0285,0.0569 0.0254,0.10346 0.0137,0.16601 -0.37729,-0.20573 -0.53733,-0.30628 -0.61524,-0.48437 -0.11323,-0.25884 -0.2576,-0.72629 -0.29883,-1.11329 -0.0412,-0.38699 0.0616,-0.61195 0.0508,-0.60156 0.28106,-0.27045 0.81606,-0.50456 1.39258,-0.84179 0.0213,-0.003 0.0312,-0.005 0.0508,-0.008 z m -0.86914,3.25782 c -0.0141,0.009 -0.0667,0.0617 -0.0859,0.0723 0.0148,-0.0149 0.0237,-0.0252 0.0332,-0.0332 0.0205,-0.0173 0.0366,-0.0278 0.0527,-0.0391 z m 1.15235,1.01953 c 0.079,0.0302 0.16379,0.0619 0.22461,0.084 0.0922,0.0335 0.20457,0.0899 0.0957,0.0312 0.49256,0.26522 0.80518,0.66894 1.05859,1.24609 0.28361,0.64592 0.18612,1.77827 -0.16797,2.4668 0.0441,-0.0857 -0.0499,0.056 -0.15429,0.1543 -0.0522,0.0492 -0.10627,0.0965 -0.16016,0.14648 -0.002,0.001 -0.004,0.002 -0.006,0.004 -0.0336,-0.0141 -0.0774,-0.0505 -0.10742,-0.0605 -0.20657,-0.0694 -0.35717,-0.0773 -0.49609,-0.0859 -0.13893,-0.009 -0.26105,-0.008 -0.34375,-0.01 -0.0916,-0.0394 -0.24463,-0.11651 -0.37696,-0.21875 -0.14829,-0.11457 -0.24854,-0.26196 -0.23828,-0.23828 -0.35725,-0.82449 -0.4092,-2.31517 0.006,-2.96485 0.002,-0.003 0.0955,-0.0577 0.41016,-0.26757 v 0.002 c 0.0212,-0.0141 0.0458,-0.0327 0.0742,-0.0566 0.0284,-0.024 0.0973,-0.0973 0.0976,-0.0977 2.3e-4,-2.7e-4 0.0516,-0.0835 0.084,-0.13476 z m 1.17968,5.61132 c 0.0423,0.007 0.12819,0.0505 0.15625,0.0547 0.13948,0.021 0.24356,0.0953 -0.0137,-0.0332 0.137,0.0685 0.33259,0.19472 0.62305,0.29883 0.56481,0.20248 0.50757,0.1144 0.70898,0.61133 0.11883,0.29315 0.16168,0.78045 0.082,1.24609 -0.0796,0.46564 -0.28189,0.90037 -0.48828,1.12305 0.0134,-0.0145 -0.21444,0.0697 -0.5625,0.3496 -0.11615,-0.0918 -0.18267,-0.1185 -0.24804,-0.14843 -0.13273,-0.0608 -0.25229,-0.10076 -0.375,-0.14063 -0.12272,-0.0399 -0.24202,-0.0755 -0.33203,-0.10156 -0.0271,-0.008 -0.0438,-0.0136 -0.0645,-0.0195 -0.087,-0.0433 -0.24961,-0.16991 -0.37109,-0.3418 -0.12614,-0.17847 -0.20001,-0.39093 -0.20703,-0.48242 -0.0498,-0.64758 0.30942,-1.14136 0.81054,-1.97656 -0.068,0.11336 0.066,-0.0638 0.20118,-0.22852 0.0303,-0.0369 0.0409,-0.16795 0.0801,-0.21094 z m 0.41797,5.00586 c 0.0542,0.0949 0.10634,0.1907 0.16602,0.28516 0.1871,0.29613 0.44028,0.68301 0.39844,0.60937 0.14805,0.26057 0.25733,0.45857 0.27734,0.53711 0.0338,0.13273 -0.0103,0.51234 -0.18555,0.88086 -0.17529,0.36852 -0.46917,0.71681 -0.63867,0.83789 0.21569,-0.15398 0.0991,-0.0541 -0.0859,-0.0332 -0.19974,0.0229 -0.37179,0.003 -0.30468,0.0234 0.15647,0.0487 -0.1899,-0.14778 -0.40039,-0.41602 -0.2105,-0.26824 -0.38178,-0.64188 -0.38282,-0.64648 -0.016,-0.0713 0.0586,-0.42423 0.21875,-0.76367 a 0.79382936,0.79382936 0 0 0 0,-0.002 c 0.1935,-0.41027 0.3631,-0.74856 0.56055,-0.96679 -0.0108,0.0119 0.2197,-0.21771 0.37695,-0.34571 z"
                id="path40844"
                stroke-width="0.5"
                stroke-linecap="round"
                stroke-linejoin="round"
                stroke="black" />
            <path
                d="m 609.87109,127.38281 a 0.79374999,0.79374999 0 0 0 -0.70703,0.87305 c 0,0 1.18214,11.27667 -0.8457,23.83984 -1.50767,9.3405 -8.85212,17.36339 -17.03711,19.92578 -4.0925,1.2812 -8.36624,1.21762 -12.28906,-0.65625 -3.92282,-1.87387 -7.53513,-5.57656 -10.22071,-11.74218 a 0.79374999,0.79374999 0 0 0 -1.04492,-0.41211 0.79374999,0.79374999 0 0 0 -0.41015,1.04492 c 2.80146,6.43168 6.67539,10.47895 10.99218,12.54101 4.3168,2.06207 9.03708,2.12089 13.44727,0.74024 8.82038,-2.76131 16.51594,-11.19464 18.12891,-21.1875 2.06711,-12.80646 0.85742,-24.25977 0.85742,-24.25977 a 0.79374999,0.79374999 0 0 0 -0.8711,-0.70703 z"
                id="path40846"
                stroke-width="0.5"
                stroke-linecap="round"
                stroke-linejoin="round"
                stroke="black" />
            <path
                d="m 585.99219,130.13672 c 0.0587,-0.008 -0.13047,0.0104 -0.33789,0.0195 -0.20743,0.009 -0.48667,0.0187 -0.81055,0.0293 -0.64776,0.0213 -1.47586,0.0449 -2.29102,0.0664 -1.6303,0.0429 -3.20898,0.0781 -3.20898,0.0781 a 0.79374999,0.79374999 0 0 0 -0.77539,0.8125 0.79374999,0.79374999 0 0 0 0.8125,0.77539 c 0,0 1.58086,-0.0351 3.21484,-0.0781 0.817,-0.0215 1.64652,-0.0449 2.30078,-0.0664 0.32714,-0.0108 0.61034,-0.0217 0.82813,-0.0312 0.21778,-0.01 0.31792,-0.009 0.48047,-0.0312 a 0.79374999,0.79374999 0 0 0 0.67969,-0.89258 0.79374999,0.79374999 0 0 0 -0.89258,-0.68164 z"
                id="path40848"
                stroke-width="0.5"
                stroke-linecap="round"
                stroke-linejoin="round"
                stroke="black" />
            <path
                d="m 600.80273,130.43945 c -1.4668,0.17918 -2.72369,0.60472 -3.77539,1.23633 -2.10339,1.26322 -3.31449,3.33231 -3.75,5.61133 -0.87102,4.55803 1.13262,10.04893 4.95313,13.20117 a 0.79374999,0.79374999 0 0 0 1.11719,-0.10742 0.79374999,0.79374999 0 0 0 -0.10743,-1.11719 c -3.31573,-2.73576 -5.14215,-7.81848 -4.40429,-11.67969 0.36893,-1.9306 1.3216,-3.53419 3.00781,-4.54687 1.68621,-1.01268 4.17786,-1.45492 7.70117,-0.79492 a 0.79374999,0.79374999 0 0 0 0.92774,-0.63282 0.79374999,0.79374999 0 0 0 -0.63477,-0.92578 c -1.89201,-0.35442 -3.56835,-0.42331 -5.03516,-0.24414 z"
                id="path40850"
                stroke-width="0.5"
                stroke-linecap="round"
                stroke-linejoin="round"
                stroke="black" />
            <path
                d="m 596.40625,156.14258 c -4.22574,1.92275 -8.66166,1.66821 -13.27148,0.96289 a 0.79382936,0.79382936 0 0 0 -0.84766,1.10156 c 1.07417,2.47613 2.23623,4.20002 3.48242,5.33594 1.24619,1.13592 2.6019,1.66642 3.91016,1.68555 2.61651,0.0383 4.83984,-1.79365 6.41992,-3.74415 a 0.79374999,0.79374999 0 0 0 -0.11719,-1.11718 0.79374999,0.79374999 0 0 0 -1.11719,0.11718 c -1.41714,1.74937 -3.33848,3.18487 -5.16211,3.15821 -0.91181,-0.0133 -1.85059,-0.34858 -2.86523,-1.27344 -0.80481,-0.73359 -1.63709,-1.98729 -2.45508,-3.58398 4.22801,0.54756 8.51287,0.69868 12.67969,-1.19727 a 0.79374999,0.79374999 0 0 0 0.39453,-1.05273 0.79374999,0.79374999 0 0 0 -1.05078,-0.39258 z"
                id="path40852"
                stroke-width="0.5"
                stroke-linecap="round"
                stroke-linejoin="round"
                stroke="black" />
            <path
                d="m 599.65326,136.11637 c -0.67207,0.81503 -0.78814,1.65837 -0.92861,2.65251 -0.1017,0.71961 -0.0996,1.46123 0.25652,2.10867 0.50908,0.92561 2.04832,1.20426 2.60117,0.15392 0.47826,-0.90863 0.62055,-1.90782 0.58489,-2.92443 -0.0314,-0.89567 -0.32677,-2.33932 -1.4468,-2.37546 -0.13409,-0.004 -0.46855,-0.0722 -0.59002,0.0154 -0.16314,0.11765 -0.31811,0.24626 -0.47715,0.3694 z"
                id="path40854"
                stroke-width="0.79375"
                stroke-linecap="round"
                stroke-linejoin="round"
                stroke="black" />
            <path
                d="m 580.5164,137.20405 c -0.67207,0.81503 -0.78814,1.65837 -0.92861,2.65251 -0.1017,0.71961 -0.0996,1.46123 0.25652,2.10867 0.50908,0.92561 2.04832,1.20426 2.60117,0.15392 0.47826,-0.90863 0.62055,-1.90782 0.58489,-2.92443 -0.0314,-0.89567 -0.32677,-2.33932 -1.4468,-2.37546 -0.13409,-0.004 -0.46855,-0.0722 -0.59002,0.0154 -0.16314,0.11765 -0.31811,0.24626 -0.47715,0.3694 z"
                id="path40856"
                stroke-width="0.79375"
                stroke-linecap="round"
                stroke-linejoin="round"
                stroke="black" />
            <path
                d="m 568.18555,168.46484 a 0.79382936,0.79382936 0 0 0 -0.57227,0.85547 c 1.55868,13.10423 5.51243,24.45112 13.64844,32.59571 a 0.79382936,0.79382936 0 0 0 1.21875,-0.11719 c 1.50033,-2.22254 3.29191,-3.07054 5.39258,-3.41016 2.10066,-0.33962 4.49659,-0.0941 6.92578,0.0137 a 0.79382936,0.79382936 0 0 0 0.43945,-1.47656 c -11.4861,-6.7918 -20.47298,-15.83369 -26.11719,-28.03125 a 0.79382936,0.79382936 0 0 0 -0.93554,-0.42969 z m 1.77929,5.13086 c 5.34627,9.58864 12.85284,17.16536 22.08789,23.07813 -1.48153,-0.0686 -2.9706,-0.0881 -4.43359,0.14844 -2.09947,0.33942 -4.07087,1.42865 -5.71094,3.375 -6.52333,-6.8111 -10.12986,-15.96614 -11.94336,-26.60157 z"
                id="path40858"
                stroke-width="0.5"
                stroke-linecap="round"
                stroke-linejoin="round"
                stroke="black" />
            <path
                d="m 602.40625,170.24609 a 0.79382936,0.79382936 0 0 0 -0.49023,0.82227 c 1.07555,9.72878 -2.62948,18.15937 -6.89844,26.60351 a 0.79382936,0.79382936 0 0 0 1.01367,1.0918 c 1.8606,-0.77062 3.6542,-1.51792 5.16211,-1.53906 1.50791,-0.0211 2.7807,0.51464 4.08008,2.70898 a 0.79382936,0.79382936 0 0 0 1.46679,-0.28125 c 1.62597,-10.24804 3.12427,-20.7332 -3.4082,-29.15625 a 0.79382936,0.79382936 0 0 0 -0.92578,-0.25 z m 1.08008,3.41797 c 4.09615,7.01001 3.25867,15.41543 1.91015,24.14258 -1.29203,-1.36778 -2.72793,-2.18897 -4.22656,-2.16797 -1.31945,0.0185 -2.60013,0.43535 -3.86133,0.91992 3.52086,-7.13524 6.37165,-14.56914 6.17774,-22.89453 z"
                id="path40860"
                stroke-width="0.5"
                stroke-linecap="round"
                stroke-linejoin="round"
                stroke="black" />
            <path
                d="m 599.96875,166.94727 c -2.07739,1.83788 -3.50145,2.87287 -4.38086,4.28515 -0.87941,1.41228 -1.01763,3.08264 -0.62305,5.72656 a 0.79374999,0.79374999 0 0 0 0.90235,0.66797 0.79374999,0.79374999 0 0 0 0.66797,-0.90234 c -0.37402,-2.50614 -0.23656,-3.62944 0.40039,-4.65234 0.63695,-1.02291 1.96997,-2.06353 4.08593,-3.93555 a 0.79374999,0.79374999 0 0 0 0.0684,-1.1211 0.79374999,0.79374999 0 0 0 -1.12109,-0.0684 z"
                id="path40862"
                stroke-width="0.5"
                stroke-linecap="round"
                stroke-linejoin="round"
                stroke="black" />
            <path
                d="m 602.22852,172.96289 a 0.79374999,0.79374999 0 0 0 -0.49024,0.35938 c -3.05854,5.01298 -8.1452,7.08925 -13.36328,7.4082 -5.21808,0.31895 -10.52446,-1.19792 -13.62695,-3.25 a 0.79374999,0.79374999 0 0 0 -1.09961,0.22461 0.79374999,0.79374999 0 0 0 0.22461,1.09961 c 3.48537,2.30533 9.01854,3.8509 14.59961,3.50976 5.58107,-0.34114 11.25417,-2.64761 14.62109,-8.16601 a 0.79374999,0.79374999 0 0 0 -0.26563,-1.0918 0.79374999,0.79374999 0 0 0 -0.5996,-0.0937 z"
                id="path40864"
                stroke-width="0.5"
                stroke-linecap="round"
                stroke-linejoin="round"
                stroke="black" />
            <path id="circle40866"
                d="m 585.00765,184.77357 a 1.2390366,1.2390366 0 0 1 -1.23903,1.23904 1.2390366,1.2390366 0 0 1 -1.23904,-1.23904 1.2390366,1.2390366 0 0 1 1.23904,-1.23903 1.2390366,1.2390366 0 0 1 1.23903,1.23903 z"
                stroke-width="0.132291"
                stroke="black" />
            <path id="circle40868"
                d="m 590.7384,184.93004 a 1.2210628,1.2210628 0 0 1 -1.22107,1.22106 1.2210628,1.2210628 0 0 1 -1.22106,-1.22106 1.2210628,1.2210628 0 0 1 1.22106,-1.22106 1.2210628,1.2210628 0 0 1 1.22107,1.22106 z"
                stroke-width="0.132291"
                stroke="black" />
            <path id="circle40870"
                d="m 588.92224,189.11404 a 0.95172197,0.95172197 0 0 1 -0.95172,0.95173 0.95172197,0.95172197 0 0 1 -0.95172,-0.95173 0.95172197,0.95172197 0 0 1 0.95172,-0.95172 0.95172197,0.95172197 0 0 1 0.95172,0.95172 z"
                stroke-width="0.123627"
                stroke="black" />
            <path id="circle40872"
                d="m 591.50797,191.28171 a 0.92862332,0.92862332 0 0 1 -0.92862,0.92862 0.92862332,0.92862332 0 0 1 -0.92863,-0.92862 0.92862332,0.92862332 0 0 1 0.92863,-0.92863 0.92862332,0.92862332 0 0 1 0.92862,0.92863 z"
                stroke-width="0.132291"
                stroke="black" />
            <path id="circle40874"
                d="m 593.52428,188.07254 a 1.0132909,1.0132909 0 0 1 -1.01329,1.01329 1.0132909,1.0132909 0 0 1 -1.01329,-1.01329 1.0132909,1.0132909 0 0 1 1.01329,-1.01329 1.0132909,1.0132909 0 0 1 1.01329,1.01329 z"
                stroke-width="0.132291"
                stroke="black" />
            <path id="circle40876"
                d="m 595.37127,184.10916 a 1.1082054,1.1082054 0 0 1 -1.10821,1.10821 1.1082054,1.1082054 0 0 1 -1.1082,-1.10821 1.1082054,1.1082054 0 0 1 1.1082,-1.1082 1.1082054,1.1082054 0 0 1 1.10821,1.1082 z"
                stroke-width="0.132291"
                stroke="black" />
            <path id="circle40878"
                d="m 599.21404,182.72903 a 1.1082054,1.1082054 0 0 1 -1.10821,1.10821 1.1082054,1.1082054 0 0 1 -1.1082,-1.10821 1.1082054,1.1082054 0 0 1 1.1082,-1.1082 1.1082054,1.1082054 0 0 1 1.10821,1.1082 z"
                stroke-width="0.132291"
                stroke="black" />
            <path id="circle40880"
                d="m 598.96266,186.62572 a 0.97224486,0.97224486 0 0 1 -0.97224,0.97224 0.97224486,0.97224486 0 0 1 -0.97225,-0.97224 0.97224486,0.97224486 0 0 1 0.97225,-0.97225 0.97224486,0.97224486 0 0 1 0.97224,0.97225 z"
                stroke-width="0.132291"
                stroke="black" />
            <path id="circle40882"
                d="m 597.06948,189.32697 a 1.1646304,1.1646304 0 0 1 -1.16463,1.16463 1.1646304,1.1646304 0 0 1 -1.16463,-1.16463 1.1646304,1.1646304 0 0 1 1.16463,-1.16464 1.1646304,1.1646304 0 0 1 1.16463,1.16464 z"
                stroke-width="0.132291"
                stroke="black" />
            <path id="circle40884"
                d="m 595.53029,192.93376 a 1.1594986,1.1594986 0 0 1 -1.1595,1.1595 1.1594986,1.1594986 0 0 1 -1.1595,-1.1595 1.1594986,1.1594986 0 0 1 1.1595,-1.1595 1.1594986,1.1594986 0 0 1 1.1595,1.1595 z"
                stroke-width="0.132291"
                stroke="black" />
            <path id="circle40886"
                d="m 600.47614,180.14066 a 0.62848836,0.62848836 0 0 1 -0.62848,0.62848 0.62848836,0.62848836 0 0 1 -0.62849,-0.62848 0.62848836,0.62848836 0 0 1 0.62849,-0.62849 0.62848836,0.62848836 0 0 1 0.62848,0.62849 z"
                stroke-width="0.132291"
                stroke="black" />
            <path id="circle40888"
                d="m 580.19004,182.8573 a 0.66183883,0.66183883 0 0 1 -0.66184,0.66184 0.66183883,0.66183883 0 0 1 -0.66184,-0.66184 0.66183883,0.66183883 0 0 1 0.66184,-0.66184 0.66183883,0.66183883 0 0 1 0.66184,0.66184 z"
                stroke-width="0.132291"
                stroke="black" />
            <path id="circle40890"
                d="m 585.96189,187.11569 a 0.56436545,0.56436545 0 0 1 -0.56437,0.56437 0.56436545,0.56436545 0 0 1 -0.56436,-0.56437 0.56436545,0.56436545 0 0 1 0.56436,-0.56436 0.56436545,0.56436545 0 0 1 0.56437,0.56436 z"
                stroke-width="0.132291"
                stroke="black" />
            <path id="circle40892"
                d="m 595.29429,195.61705 a 0.48740542,0.48740542 0 0 1 -0.48741,0.48741 0.48740542,0.48740542 0 0 1 -0.4874,-0.48741 0.48740542,0.48740542 0 0 1 0.4874,-0.48741 0.48740542,0.48740542 0 0 1 0.48741,0.48741 z"
                stroke-width="0.132291"
                stroke="black" />
            <g id="path40894"
                style="stroke-width:0.5">
                <path
                    d="m 595.16045,197.84601 c 0.12697,0.33376 0.96136,23.95844 0.96136,23.95844"
                    id="path73077"
                    stroke-width="0.79375"
                    stroke-linecap="round"
                    stroke-linejoin="round"
                    stroke="black" />
                <path
                    d="m 594.87891,197.10352 a 0.79374999,0.79374999 0 0 0 -0.46094,1.02539 c -0.0607,-0.1597 -0.0367,-0.1359 -0.0371,-0.13868 -3.9e-4,-0.003 0.002,0.0109 0.004,0.0312 0.004,0.0408 0.009,0.11164 0.0156,0.20313 0.0125,0.18299 0.0276,0.45048 0.0449,0.78711 0.0347,0.67326 0.077,1.62231 0.125,2.75195 0.096,2.25928 0.21396,5.24349 0.32617,8.2168 0.22443,5.94661 0.43164,11.85156 0.43164,11.85156 a 0.79374999,0.79374999 0 0 0 0.82227,0.76563 0.79374999,0.79374999 0 0 0 0.76563,-0.82032 c 0,0 -0.20908,-5.90826 -0.4336,-11.85742 -0.11226,-2.97457 -0.22803,-5.95844 -0.32422,-8.22265 -0.0481,-1.13211 -0.0917,-2.08499 -0.12695,-2.76758 -0.0176,-0.3413 -0.0332,-0.61471 -0.0469,-0.81446 -0.007,-0.0999 -0.0129,-0.17986 -0.0195,-0.24804 -0.003,-0.0341 -0.007,-0.064 -0.0117,-0.0996 -0.005,-0.0356 0.0139,-0.033 -0.0508,-0.20313 a 0.79374999,0.79374999 0 0 0 -1.02343,-0.46093 z"
                    id="path73079"
                    stroke-width="0.5"
                    stroke-linecap="round"
                    stroke-linejoin="round"
                    stroke="black" />
            </g>
            <path
                d="m 600.20508,200.73047 c -1.36091,0 -2.47657,1.11565 -2.47656,2.47656 -10e-6,1.36091 1.11565,2.47461 2.47656,2.47461 1.3609,-10e-6 2.47461,-1.1137 2.47461,-2.47461 0,-1.3609 -1.11371,-2.47656 -2.47461,-2.47656 z m 0,1.05859 c 0.78894,1e-5 1.41797,0.62903 1.41797,1.41797 0,0.78894 -0.62903,1.41601 -1.41797,1.41602 -0.78895,0 -1.41797,-0.62707 -1.41797,-1.41602 0,-0.78894 0.62902,-1.41797 1.41797,-1.41797 z"
                id="circle40896"
                stroke-width="0.5"
                stroke="black" />
            <path
                d="m 601.18359,211.94531 c -1.18359,0 -2.15625,0.97071 -2.15625,2.1543 10e-6,1.18359 0.97266,2.1543 2.15625,2.1543 1.18359,-1e-5 2.1543,-0.97072 2.1543,-2.1543 0,-1.18359 -0.97071,-2.15429 -2.1543,-2.1543 z m 0,1.05664 c 0.61163,1e-5 1.09571,0.48603 1.09571,1.09766 -1e-5,0.61162 -0.48408,1.0957 -1.09571,1.0957 -0.61162,0 -1.09765,-0.48407 -1.09765,-1.0957 0,-0.61163 0.48602,-1.09766 1.09765,-1.09766 z"
                id="circle40898"
                stroke-width="0.5"
                stroke="black" />
            <path
                d="m 540.46854,270.95484 c -9.3263,19.04434 -2.02564,176.05015 2.82971,171.5488 8.53892,-2.82409 21.87701,1.83987 23.82877,-1.68932 11.64912,-24.59535 14.96328,-78.21675 17.3168,-105.32304 0,0 4.37636,75.977 7.93167,91.64469 3.5553,15.66769 4.44046,14.35186 4.44046,14.35186 6.65277,-0.84593 22.84177,-1.40962 24.18501,-4.05651 15.73345,-38.43512 2.09209,-126.38291 5.66478,-168.55162 l -9.94027,4.16479 -18.54541,5.36925 -18.02307,1.82845 -17.50063,-1.33506 -14.84508,-4.10675 z"
                id="path40900"
                stroke-width="0.529165"
                stroke-linecap="round"
                stroke-linejoin="round"
                stroke="black" />
            <path
                d="m 551.99219,440.29687 a 1.0583349,1.0583349 0 0 0 -1.07617,1.03907 l -0.19922,11.12695 -12.11719,0.0762 c 0.002,-0.0583 -0.003,-0.0481 0,-0.10937 0.0264,-0.61681 0.15277,-1.36329 0.2832,-1.63867 -0.11698,0.24698 0.20578,-0.1831 0.72461,-0.49024 0.51884,-0.30714 1.21326,-0.64888 1.89649,-0.95703 1.36644,-0.61631 2.68164,-1.10547 2.68164,-1.10547 a 1.0584408,1.0584408 0 0 0 0.68945,-1.0332 l -0.20313,-5.19531 a 1.0583349,1.0583349 0 0 0 -1.09765,-1.01563 1.0583349,1.0583349 0 0 0 -1.01758,1.09961 l 0.17383,4.45703 c -0.45833,0.17522 -1.01941,0.37696 -2.09766,0.86328 -0.72438,0.32672 -1.47065,0.68866 -2.10547,1.06446 -0.63481,0.37579 -1.17846,0.60784 -1.55664,1.40625 -0.39195,0.8275 -0.45466,1.7131 -0.48633,2.45312 -0.0317,0.74002 0.008,1.33594 0.008,1.33594 a 1.0584408,1.0584408 0 0 0 1.0625,0.98633 l 14.20703,-0.0859 a 1.0584408,1.0584408 0 0 0 1.05273,-1.03906 l 0.2168,-12.16211 a 1.0583349,1.0583349 0 0 0 -1.03906,-1.07618 z"
                id="path40902"
                stroke-width="0.5"
                stroke-linecap="round"
                stroke-linejoin="round"
                stroke="black" />
            <path
                d="m 604.53516,435.51953 a 1.0583349,1.0583349 0 0 0 -0.80274,1.26172 c 0,0 0.30752,1.38679 0.85156,3.00391 0.54405,1.61711 1.23906,3.46528 2.44922,4.63671 0.7075,0.68488 1.7014,1.12486 2.94532,1.63282 1.24391,0.50796 2.70652,1.00883 4.15234,1.47461 1.44582,0.46578 2.87341,0.89553 4.02148,1.24804 1.14808,0.35251 2.09201,0.67205 2.25977,0.75 -0.0236,-0.011 0.1536,0.12815 0.30664,0.49219 0.15304,0.36404 0.28196,0.88408 0.36719,1.40039 0.0789,0.47832 0.059,0.56941 0.084,0.9336 l -23.0957,-0.35938 -0.14453,-10.625 a 1.0583349,1.0583349 0 0 0 -1.07227,-1.04297 1.0583349,1.0583349 0 0 0 -1.04492,1.07227 l 0.16016,11.65234 a 1.0584408,1.0584408 0 0 0 1.04101,1.04492 l 25.29492,0.39063 a 1.0584408,1.0584408 0 0 0 1.07422,-1.06446 c 0,0 -0.006,-1.11454 -0.20898,-2.3457 -0.10161,-0.61558 -0.24745,-1.26692 -0.50391,-1.87695 -0.25645,-0.61004 -0.62325,-1.24705 -1.36523,-1.5918 -0.55057,-0.25582 -1.37383,-0.49813 -2.53125,-0.85351 -1.15742,-0.35538 -2.57398,-0.78077 -3.99414,-1.23829 -1.42017,-0.45751 -2.84607,-0.9479 -4.00196,-1.41992 -1.15589,-0.47201 -2.07203,-1.00028 -2.27148,-1.19336 -0.60376,-0.58444 -1.41164,-2.2918 -1.91602,-3.79101 -0.50437,-1.49922 -0.79101,-2.78906 -0.79101,-2.78906 a 1.0583349,1.0583349 0 0 0 -1.26367,-0.80274 z"
                id="path40904"
                stroke-width="0.5"
                stroke-linecap="round"
                stroke-linejoin="round"
                stroke="black" />
        </g>
    </g>
</svg>