<?xml version="1.0" encoding="UTF-8" standalone="no"?>
<!-- Created with Inkscape (http://www.inkscape.org/) -->

<svg width="100%" height="100%"
    viewBox="0 0 605.64912 703.71381"
    version="1.1" id="svg5"
    xml:space="preserve"
    xmlns="http://www.w3.org/2000/svg"
    xmlns:svg="http://www.w3.org/2000/svg">
    <defs id="defs2" />
    <g id="layer1"
        transform="translate(-2799.2882,-6446.1647)">
        <g id="notion-podcast-talking"
            transform="matrix(2,0,0,2,-394.08685,-88.124184)"
            style="stroke-width:0.5">
            <title id="title94620">
                notion-podcast-talking
            </title>
            <path
                d="m 1612.4199,3343.7651 c -12.1541,13.164 -16.0892,31.497 -15.7074,51.4042 0.3818,19.9072 10.608,27.9519 13.7985,27.9791 3.1906,0.028 16.7436,-7.9629 17.5618,-12.667 0.37,-2.1279 3.2348,-0.03 6.4357,-2.7951 3.6296,-3.136 1.5816,-8.1538 1.5816,-8.1538 0,0 -3.213,-2.9518 -6.4629,-9.1764 -1.8274,-3.4998 -1.718,-10.9489 -4.1723,-11.0853 -2.4543,-0.1363 -5.8701,-0.099 -7.4992,-3.7905 -2.5365,-5.7481 3.1358,-6.5463 4.145,-5.6995 l 1.0089,4.8814 c 0,0 0.8182,-5.4814 3.0543,-5.8904 2.2361,-0.4091 13.1011,-4.7057 19.9069,-8.631 6.5721,-3.7905 9.7081,-8.7673 9.7081,-8.7673 l 3.9814,5.2904 c 0,0 2.8088,5.1268 3.5178,6.9539 0.709,1.8271 1.9343,9.5045 1.6362,14.2895 -0.4296,6.8951 0.256,14.799 -4.895,20.139 -2.285,2.3688 -7.1173,5.754 -7.1173,5.754 l 3.1633,1.977 c 2.0063,-1.9842 5.8108,-3.305 8.9035,-2.8906 2.2839,0.3061 3.6815,3.9542 5.7812,3.7906 2.0998,-0.1636 7.581,-2.7816 7.1174,-8.0174 -0.4636,-5.2359 -8.1264,-16.7712 -8.0718,-22.3616 2.4145,-29.2497 -8.4172,-41.8053 -23.8338,-45.7864 -12.9333,-3.0133 -25.3868,4.4204 -33.5419,13.2532 z"
                id="path42516"
                stroke="none"
                stroke-width="0.836135"
                stroke-linecap="round"
                stroke-linejoin="round" />
            <path
                d="m 1662.0449,3402.3555 c -2.2589,-0.061 -4.3902,0.5081 -6.1894,1.9316 a 0.83613503,0.83613503 0 0 0 -0.1387,1.1738 0.83613503,0.83613503 0 0 0 1.1758,0.1387 c 2.9283,-2.3168 7.0789,-1.9346 11.3887,0.1152 4.3097,2.0499 8.6257,5.7534 11.5058,9.6465 2.6541,3.5877 5.7118,9.8833 8.0625,15.2422 2.3508,5.3589 4.0176,9.793 4.0176,9.793 a 0.83613503,0.83613503 0 0 0 1.0762,0.4883 0.83613503,0.83613503 0 0 0 0.4882,-1.0762 c 0,0 -1.6805,-4.4716 -4.0507,-9.875 -2.3703,-5.4034 -5.4071,-11.7261 -8.2481,-15.5664 -3.0511,-4.1243 -7.5136,-7.965 -12.1328,-10.1621 -2.3096,-1.0986 -4.6961,-1.7889 -6.9551,-1.8496 z"
                id="path42518"
                stroke-width="0.5"
                stroke-linecap="round"
                stroke-linejoin="round"
                stroke="black" />
            <path
                d="m 1613.959,3419.9863 a 0.83613503,0.83613503 0 0 0 -0.5391,0.3438 c -1.0904,1.5596 -9.1405,13.198 -9.8027,29.4746 -0.2112,5.1901 0.7851,11.4004 0.7851,11.4004 a 0.83613503,0.83613503 0 0 0 0.9571,0.6933 0.83613503,0.83613503 0 0 0 0.6953,-0.957 c 0,0 -0.9678,-6.1499 -0.7676,-11.0684 0.6412,-15.7587 8.4399,-27.062 9.5039,-28.5839 a 0.83613503,0.83613503 0 0 0 -0.207,-1.1641 0.83613503,0.83613503 0 0 0 -0.625,-0.1387 z"
                id="path42520"
                stroke-width="0.5"
                stroke-linecap="round"
                stroke-linejoin="round"
                stroke="black" />
            <path
                d="m 1628.3398,3426.1758 a 0.83613503,0.83613503 0 0 0 -1.0156,0.6055 c -0.061,0.2417 -0.068,0.4214 -0.092,0.7285 -0.024,0.307 -0.045,0.6979 -0.066,1.166 -0.042,0.9362 -0.081,2.1784 -0.1172,3.6269 -0.072,2.8971 -0.1319,6.6123 -0.1797,10.2793 -0.09,6.9352 -0.1298,12.9744 -0.1347,13.6895 -0.651,-0.01 -2.9336,-0.05 -6.3965,0.3262 -3.9197,0.4263 -8.4453,1.2533 -11.0957,3.4043 -0.9174,0.7444 -2.3659,2.0268 -3.2871,3.414 -0.4606,0.6936 -0.8286,1.426 -0.7891,2.2617 0.04,0.8357 0.677,1.6358 1.6172,1.9981 1.6279,0.6272 3.6323,0.9148 5.2695,0.9238 0.8187,0 1.5317,-0.053 2.127,-0.2285 0.2976,-0.088 0.5784,-0.1941 0.8457,-0.4473 0.2673,-0.2532 0.454,-0.7949 0.3301,-1.2031 a 0.83613503,0.83613503 0 0 0 -1.043,-0.5566 0.83613503,0.83613503 0 0 0 -0.5098,0.5722 c -0.025,0.013 -0.01,0.01 -0.096,0.031 -0.3105,0.092 -0.9277,0.1641 -1.6465,0.1601 -1.4374,-0.01 -3.3312,-0.2944 -4.6757,-0.8125 -0.546,-0.2103 -0.5385,-0.2981 -0.5489,-0.5175 -0.01,-0.2195 0.1492,-0.71 0.5118,-1.2559 0.725,-1.0919 2.1071,-2.3576 2.9492,-3.041 2.0475,-1.6617 6.4181,-2.6275 10.2207,-3.041 3.8026,-0.4136 7.0312,-0.3594 7.0312,-0.3594 a 0.83621864,0.83621864 0 0 0 0.8496,-0.8301 c 0,0 0.049,-7.1397 0.1446,-14.4668 0.048,-3.6635 0.1063,-7.3732 0.1777,-10.2578 0.036,-1.4423 0.074,-2.6801 0.1152,-3.5957 0.021,-0.4578 0.043,-0.8356 0.064,-1.1133 0.021,-0.2776 0.058,-0.4979 0.045,-0.4453 a 0.83613503,0.83613503 0 0 0 -0.6055,-1.0156 z"
                id="path42522"
                stroke-width="0.5"
                stroke-linecap="round"
                stroke-linejoin="round"
                stroke="black" />
            <path
                d="m 1614.6583,3467.5457 -0.7134,-8.3399 c 0,0 -3.7506,-0.5592 -4.7243,0.8292 -0.9737,1.3883 -3.3166,5.4184 -3.3166,5.4184 l 1.8415,1.9862 z"
                id="path42524"
                stroke="none"
                stroke-width="0.836135"
                stroke-linecap="round"
                stroke-linejoin="round" />
            <path
                d="m 1657.2793,3409.125 a 0.83613503,0.83613503 0 0 0 -0.3945,1.1152 c 0,0 2.3064,4.8904 2.6679,10.0821 0.083,1.196 -0.1744,1.9648 -0.6152,2.5351 -0.4408,0.5703 -1.1154,0.9732 -1.9961,1.2383 -1.7614,0.5302 -4.2537,0.4235 -6.3379,0.1777 -1.7772,-0.2095 -4.5397,-1.7988 -7.0312,-3.9668 -2.4915,-2.1679 -4.7661,-4.8962 -5.8828,-7.1523 a 0.83613503,0.83613503 0 0 0 -1.1211,-0.3789 0.83613503,0.83613503 0 0 0 -0.3789,1.1211 c 1.2742,2.5743 3.6547,5.383 6.2851,7.6719 2.6305,2.2888 5.457,4.0734 7.9317,4.3652 2.1677,0.2556 4.8048,0.4291 7.0156,-0.2363 1.1054,-0.3327 2.1273,-0.8947 2.8398,-1.8164 0.7125,-0.9218 1.0637,-2.1722 0.959,-3.6758 -0.3904,-5.6067 -2.8262,-10.6836 -2.8262,-10.6836 a 0.83613503,0.83613503 0 0 0 -1.1152,-0.3965 z"
                id="path42526"
                stroke-width="0.5"
                stroke-linecap="round"
                stroke-linejoin="round"
                stroke="black" />
            <path
                d="m 1653.0293,3403.666 a 0.83613503,0.83613503 0 0 0 -0.9531,0.7012 c -0.066,0.4304 -0.3556,1.8364 -0.4219,3.4941 -0.066,1.6578 0.071,3.63 0.9219,5.3907 0.7907,1.6368 1.5567,2.636 2.1562,3.2382 0.2998,0.3012 0.5571,0.5015 0.7539,0.6328 0.1969,0.1313 0.3848,0.2149 0.3848,0.2149 a 0.83613503,0.83613503 0 0 0 1.0879,-0.4629 0.83613503,0.83613503 0 0 0 -0.4629,-1.0898 c 0,0 0.02,0.015 -0.082,-0.053 -0.1018,-0.068 -0.2736,-0.1963 -0.4981,-0.4219 -0.449,-0.451 -1.111,-1.2885 -1.834,-2.7851 -0.6632,-1.3729 -0.8159,-3.0941 -0.7558,-4.5977 0.06,-1.5036 0.3136,-2.7267 0.4023,-3.3086 a 0.83613503,0.83613503 0 0 0 -0.6992,-0.9531 z"
                id="path42528"
                stroke-width="0.5"
                stroke-linecap="round"
                stroke-linejoin="round"
                stroke="black" />
            <path
                d="m 1635.5625,3399.0391 a 0.83613503,0.83613503 0 0 0 -1.1836,0.012 0.83613503,0.83613503 0 0 0 0.014,1.1836 c 4.1001,4.0085 10.311,7.4128 19.3457,4.7051 a 0.83613503,0.83613503 0 0 0 0.5625,-1.0411 0.83613503,0.83613503 0 0 0 -1.041,-0.5605 c -8.478,2.5409 -13.8452,-0.5328 -17.6973,-4.2988 z"
                id="path42530"
                stroke-width="0.5"
                stroke-linecap="round"
                stroke-linejoin="round"
                stroke="black" />
            <path
                d="m 1657.1074,3358.5742 c -3.3008,-0.249 -5.8587,0.8709 -7.4687,2.8028 -1.6101,1.9318 -2.287,4.5844 -2.2129,7.3847 0.1481,5.6006 3.2814,11.9521 8.9629,14.8692 a 0.83613503,0.83613503 0 0 0 1.1269,-0.3614 0.83613503,0.83613503 0 0 0 -0.3633,-1.125 c -5.0134,-2.574 -7.9224,-8.4282 -8.0546,-13.4277 -0.066,-2.4997 0.555,-4.7444 1.8261,-6.2695 1.2711,-1.5252 3.1765,-2.4224 6.0567,-2.2051 a 0.83613503,0.83613503 0 0 0 0.8965,-0.7715 0.83613503,0.83613503 0 0 0 -0.7696,-0.8965 z"
                id="path42532"
                stroke-width="0.5"
                stroke-linecap="round"
                stroke-linejoin="round"
                stroke="black" />
            <path
                d="m 1642.9102,3388.9258 a 0.83621864,0.83621864 0 0 0 -0.5098,0.1289 c 0,0 -0.837,0.5192 -1.1328,1.5644 -0.2958,1.0453 0.053,2.5059 1.6543,4.0625 3.2477,3.1576 7.1562,2.0118 7.1562,2.0118 a 0.83613503,0.83613503 0 0 0 0.5508,-1.045 0.83613503,0.83613503 0 0 0 -1.0469,-0.5507 c 0,0 -2.8516,0.9539 -5.4941,-1.6153 -1.344,-1.3066 -1.3242,-2.0081 -1.2109,-2.4082 0.084,-0.2962 0.219,-0.3715 0.3125,-0.4512 l 6.8808,0.502 a 0.83613503,0.83613503 0 0 0 0.8945,-0.7715 0.83613503,0.83613503 0 0 0 -0.7734,-0.8965 z"
                id="path42534"
                stroke-width="0.5"
                stroke-linecap="round"
                stroke-linejoin="round"
                stroke="black" />
            <path id="ellipse42536"
                d="m 1640.6817,3373.009 a 1.4793836,3.1292474 0 0 1 -1.4794,3.1293 1.4793836,3.1292474 0 0 1 -1.4794,-3.1293 1.4793836,3.1292474 0 0 1 1.4794,-3.1292 1.4793836,3.1292474 0 0 1 1.4794,3.1292 z"
                stroke-width="0.104516"
                stroke="black" />
            <path id="ellipse42538"
                d="m 1655.121,3371.448 a 1.4316672,2.9042666 0 0 1 -1.4317,2.9043 1.4316672,2.9042666 0 0 1 -1.4316,-2.9043 1.4316672,2.9042666 0 0 1 1.4316,-2.9043 1.4316672,2.9042666 0 0 1 1.4317,2.9043 z"
                stroke-width="0.104516"
                stroke="black" />
            <path
                d="m 1670.4316,3424.0547 a 0.83613503,0.83613503 0 0 0 -0.6406,0.021 0.83613503,0.83613503 0 0 0 -0.414,1.1074 c 6.5176,14.3075 8.8705,27.3446 10.6484,41.8066 a 0.83613503,0.83613503 0 0 0 0.9316,0.7266 0.83613503,0.83613503 0 0 0 0.7285,-0.9316 c -1.7848,-14.5188 -4.1733,-27.7765 -10.7871,-42.295 a 0.83613503,0.83613503 0 0 0 -0.4668,-0.4355 z"
                id="path42540"
                stroke-width="0.5"
                stroke-linecap="round"
                stroke-linejoin="round"
                stroke="black" />
            <path
                d="m 1713.5977,3417.4434 a 0.83613503,0.83613503 0 0 0 -0.9004,0.7656 c 0.01,-0.1122 -0.093,0.2851 -0.3399,0.7461 -0.2471,0.4609 -0.6154,1.0689 -1.0781,1.7793 -0.9254,1.4208 -2.226,3.253 -3.7207,5.248 -2.9895,3.99 -6.7622,8.6415 -9.9023,12.0586 -6.6083,7.1911 -6.4239,17.1719 -6.4239,17.1719 a 0.83613503,0.83613503 0 0 0 0.8477,0.8242 0.83613503,0.83613503 0 0 0 0.8242,-0.8476 c 0,0 -0.088,-9.408 5.9844,-16.0157 3.2,-3.4822 6.9877,-8.1586 10.0078,-12.1894 1.51,-2.0154 2.8257,-3.8657 3.7832,-5.336 0.4788,-0.7351 0.8684,-1.3745 1.1523,-1.9043 0.284,-0.5297 0.4881,-0.8669 0.5313,-1.3984 a 0.83613503,0.83613503 0 0 0 -0.7656,-0.9023 z"
                id="path42542"
                stroke-width="0.5"
                stroke-linecap="round"
                stroke-linejoin="round"
                stroke="black" />
            <path
                d="m 1720.9355,3399.416 c -0.1338,0.012 -0.2757,0.051 -0.4179,0.1133 -0.2844,0.1252 -0.5745,0.3421 -0.918,0.7168 -0.687,0.7495 -1.6098,2.1517 -2.918,5.0312 -1.3269,2.9208 -1.8469,5.3647 -2.0312,7.0899 -0.1843,1.7252 -0.023,2.7949 -0.023,2.7949 a 0.83613503,0.83613503 0 0 0 0.955,0.6953 0.83613503,0.83613503 0 0 0 0.6973,-0.9551 c 0,0 -0.1336,-0.7965 0.033,-2.3574 0.1668,-1.5608 0.6426,-3.8228 1.8926,-6.5742 1.2498,-2.751 2.1076,-3.9939 2.5879,-4.5273 0.4573,0.6592 1.2005,2.0255 0.164,4.4062 -0.8818,2.0256 -1.1247,3.0562 -1.0683,3.8262 0.028,0.385 0.1706,0.7541 0.4414,0.9883 0.1354,0.117 0.2893,0.1877 0.416,0.2226 0.1266,0.035 0.2949,0.035 0.2949,0.035 a 0.83613503,0.83613503 0 0 0 0.8008,-0.8692 0.83613503,0.83613503 0 0 0 -0.2637,-0.5703 c -0.01,-0.2243 0.096,-1.0907 0.9121,-2.9648 1.6985,-3.9013 -0.8125,-6.8262 -0.8125,-6.8262 a 0.83621864,0.83621864 0 0 0 -0.3886,-0.2422 c 0,0 -0.2197,-0.045 -0.3536,-0.033 z m 0.037,9.836 c 0,0 0.1381,0 0.2168,0.023 0.079,0.022 0.1658,0.064 0.2343,0.123 0.024,0.021 0.01,0.01 0.024,0.027 a 0.83613503,0.83613503 0 0 0 -0.4746,-0.1738 z"
                id="path42544"
                stroke-width="0.5"
                stroke-linecap="round"
                stroke-linejoin="round"
                stroke="black" />
            <path
                d="m 1732.7227,3395.5488 a 0.83613503,0.83613503 0 0 0 -1.1368,0.3262 c 0,0 -1.5795,2.854 -3.3613,5.8418 -0.8909,1.4939 -1.8337,3.0223 -2.6445,4.2305 -0.4054,0.6041 -0.7786,1.1289 -1.0879,1.5215 -0.3093,0.3925 -0.5923,0.6614 -0.625,0.6835 -0.561,0.3795 -1.8468,0.6351 -3.3047,1.1407 -1.4579,0.5055 -3.1137,1.3642 -4.3379,3.1836 -1.1062,1.6438 -1.614,2.4515 -1.8613,2.8828 -0.1237,0.2156 -0.1807,0.3173 -0.2363,0.4765 -0.028,0.08 -0.1175,0.1393 -0.031,0.5059 0.011,0.046 0.051,0.1519 0.051,0.1523 2e-4,5e-4 0.1033,0.1716 0.1035,0.1719 4e-4,6e-4 0.3609,0.2674 0.3613,0.2676 5e-4,2e-4 0.3454,0.055 0.3457,0.055 3e-4,0 0.2032,-0.037 0.2032,-0.037 a 0.83613503,0.83613503 0 0 0 0.5449,-0.5684 c -2e-4,5e-4 10e-5,0.01 0,0.01 -0.024,0.068 0.01,-0.019 0.1094,-0.1973 0.2042,-0.3561 0.7009,-1.1527 1.7968,-2.7812 0.9778,-1.4532 2.2085,-2.09 3.4981,-2.5372 1.2895,-0.4471 2.6113,-0.604 3.6933,-1.3359 0.3781,-0.2557 0.652,-0.5866 1.0039,-1.0332 0.3519,-0.4465 0.7421,-0.9991 1.1622,-1.625 0.84,-1.2518 1.7918,-2.7963 2.6914,-4.3047 1.799,-3.0167 3.3886,-5.8887 3.3886,-5.8887 a 0.83613503,0.83613503 0 0 0 -0.3261,-1.1367 z m -17.8536,19.7696 c -3e-4,0 0.3423,0.055 0.3418,0.055 -4e-4,-10e-5 0.3599,0.2662 0.3594,0.2657 -2e-4,-3e-4 0.1018,0.1703 0.1016,0.1699 -10e-5,-3e-4 0.017,0.052 0.031,0.094 a 0.83613503,0.83613503 0 0 0 -1.0371,-0.5468 c 0,0 0.2034,-0.037 0.2031,-0.037 z m 0.8418,0.6074 c 0,0.014 0.01,0.023 0.012,0.033 0.023,0.097 -0.01,0.061 0,0.1172 a 0.83613503,0.83613503 0 0 0 -0.01,-0.1504 z"
                id="path42546"
                stroke-width="0.5"
                stroke-linecap="round"
                stroke-linejoin="round"
                stroke="black" />
            <path
                d="m 1737.3184,3394.125 a 0.83613503,0.83613503 0 0 0 -0.545,0.3359 l -8.3242,11.5157 a 0.83613503,0.83613503 0 0 0 0.1875,1.166 0.83613503,0.83613503 0 0 0 1.168,-0.1875 l 8.3242,-11.5137 a 0.83613503,0.83613503 0 0 0 -0.1875,-1.168 0.83613503,0.83613503 0 0 0 -0.623,-0.1484 z"
                id="path42548"
                stroke-width="0.5"
                stroke-linecap="round"
                stroke-linejoin="round"
                stroke="black" />
            <path
                d="m 1738.248,3399.1914 a 0.83613503,0.83613503 0 0 0 -0.5605,0.3066 l -7.0703,8.7754 a 0.83613503,0.83613503 0 0 0 0.1269,1.1758 0.83613503,0.83613503 0 0 0 1.1758,-0.1269 l 7.0684,-8.7754 a 0.83613503,0.83613503 0 0 0 -0.125,-1.1758 0.83613503,0.83613503 0 0 0 -0.6153,-0.1797 z"
                id="path42550"
                stroke-width="0.5"
                stroke-linecap="round"
                stroke-linejoin="round"
                stroke="black" />
            <path
                d="m 1740.3672,3402.4336 a 0.83613503,0.83613503 0 0 0 -1.1524,0.2559 c 0,0 -6.388,10.0465 -7.457,11.7109 -0.08,0.1237 -0.6741,0.6165 -1.5039,1.0684 -0.8298,0.4518 -1.8909,0.9376 -2.9687,1.4179 -1.0779,0.4804 -2.1731,0.9572 -3.1036,1.4141 -0.9304,0.4568 -1.675,0.8331 -2.1972,1.3926 -1.5166,1.625 -2.0371,3.6914 -2.0371,3.6914 a 0.83621864,0.83621864 0 0 0 -0.014,0.059 c 0,0 -2.1933,11.6701 -6.6738,22.6484 -2.2403,5.4891 -5.0618,10.7952 -8.3789,14.3359 -3.3172,3.5408 -6.9691,5.3052 -11.2852,4.1036 a 0.83613503,0.83613503 0 0 0 -1.0293,0.582 0.83613503,0.83613503 0 0 0 0.5801,1.0293 c 4.9779,1.3859 9.395,-0.7722 12.9551,-4.5723 3.5601,-3.8001 6.4246,-9.2532 8.707,-14.8457 4.5459,-11.1385 6.7376,-22.8149 6.7559,-22.9121 0,0 0.4867,-1.74 1.6425,-2.9785 0.1459,-0.1563 0.8348,-0.603 1.711,-1.0332 0.8762,-0.4303 1.9621,-0.9024 3.0488,-1.3867 1.0867,-0.4843 2.1739,-0.98 3.0859,-1.4766 0.9121,-0.4966 1.6522,-0.9199 2.1114,-1.6348 1.0852,-1.6897 7.4609,-11.7148 7.4609,-11.7148 a 0.83613503,0.83613503 0 0 0 -0.2578,-1.1543 z"
                id="path42552"
                stroke-width="0.5"
                stroke-linecap="round"
                stroke-linejoin="round"
                stroke="black" />
            <path
                d="m 1691.3418,3448.0117 c 0,0 -1.7722,1.4063 -3.6719,3.2305 -1.8996,1.8242 -3.9572,3.9566 -4.5644,5.9863 -0.013,0.042 -0.017,0.066 -0.029,0.1074 a 0.83613503,0.83613503 0 0 0 -0.012,0.012 c -4e-4,0.01 0,0.011 0,0.018 -0.4641,1.5355 -0.9143,2.7985 -1.0547,3.9746 -0.1453,1.2167 0.1397,2.446 1.0976,3.4004 1.1979,1.1936 3.1042,1.2588 4.7969,1.1465 0.8464,-0.056 1.6445,-0.1867 2.2969,-0.3554 0.3262,-0.084 0.6146,-0.1768 0.8691,-0.2872 0.2546,-0.1103 0.4783,-0.1873 0.7266,-0.5097 a 0.83621864,0.83621864 0 0 0 -0.8594,-1.3223 c 0.2816,-0.068 0.3317,-0.01 0.3672,0 0.035,0.01 0.033,0.012 0.019,0.01 -0.026,-0.011 -0.1015,-0.049 -0.1992,-0.1035 -0.1953,-0.1083 -0.4864,-0.2845 -0.8262,-0.5079 -0.6796,-0.4466 -1.5678,-1.0827 -2.4336,-1.7832 -0.8658,-0.7004 -1.7108,-1.4718 -2.3027,-2.1601 -0.5433,-0.6318 -0.7302,-1.1392 -0.7637,-1.3106 0.4498,-1.2524 2.2491,-3.3996 4.0254,-5.1054 1.8346,-1.7618 3.5528,-3.127 3.5528,-3.127 a 0.83613503,0.83613503 0 0 0 0.1367,-1.1738 0.83613503,0.83613503 0 0 0 -1.1758,-0.1348 z m -7.1875,11.7461 c 0.054,0.065 0.088,0.132 0.1445,0.1973 0.7001,0.8141 1.6044,1.6268 2.5196,2.3672 0.8231,0.6659 1.6197,1.2285 2.3086,1.6914 -0.4255,0.08 -0.834,0.1721 -1.3301,0.2051 -1.4847,0.099 -3.0453,-0.2032 -3.5059,-0.6622 -0.6257,-0.6234 -0.7264,-1.1047 -0.6172,-2.0195 0.051,-0.425 0.3171,-1.1993 0.4805,-1.7793 z"
                id="path42554"
                stroke-width="0.5"
                stroke-linecap="round"
                stroke-linejoin="round"
                stroke="black" />
            <path
                d="m 1682.781,3460.5082 c -0.075,0.4295 0.2591,3.5178 0.2591,3.5178 0,0 7.1242,1.0431 6.4561,0.2523 -0.6681,-0.7908 -4.9972,-6.5312 -4.9972,-6.5312 z"
                id="path42556"
                stroke="none"
                stroke-width="0.836135"
                stroke-linecap="round"
                stroke-linejoin="round" />
            <path
                d="m 1728.7012,3411.9336 c -3.7693,-0.081 -7.4715,1.2239 -10.3907,5.373 a 0.83613503,0.83613503 0 0 0 0.2032,1.1641 0.83613503,0.83613503 0 0 0 1.164,-0.2031 c 2.6453,-3.7599 5.596,-4.7347 8.9883,-4.6621 a 0.83613503,0.83613503 0 0 0 0.8535,-0.8184 0.83613503,0.83613503 0 0 0 -0.8183,-0.8535 z"
                id="path42558"
                stroke-width="0.5"
                stroke-linecap="round"
                stroke-linejoin="round"
                stroke="black" />
            <path
                d="m 1627.9453,3461.0859 a 0.83613503,0.83613503 0 0 0 -0.7988,0.8711 0.83613503,0.83613503 0 0 0 0.8691,0.8008 c 0,0 14.5924,-0.557 24.5723,3.9649 5.166,2.3407 8.401,3.4748 10.375,4.0273 0.987,0.2762 1.6604,0.4068 2.1035,0.4688 0.4431,0.062 0.7305,0.051 0.7305,0.051 a 0.83621864,0.83621864 0 0 0 0.1875,-0.035 c 3.0981,-0.9638 6.503,-2.0888 9.7109,-2.6192 3.1942,-0.528 6.1453,-0.4478 8.4414,0.8106 3.692,2.716 5.3963,4.6973 6.6406,7.2226 1.2534,2.5436 2.4258,6.4707 2.4258,6.4707 a 0.83613503,0.83613503 0 0 0 1.0391,0.5645 0.83613503,0.83613503 0 0 0 0.5644,-1.0391 c 0,0 -1.1602,-3.9579 -2.5293,-6.7363 -1.3702,-2.7807 -3.3459,-5.0463 -7.207,-7.8769 a 0.83621864,0.83621864 0 0 0 -0.09,-0.059 c -2.7997,-1.5507 -6.1655,-1.5688 -9.5586,-1.0079 -3.3467,0.5533 -6.7565,1.6819 -9.8008,2.6309 -0.012,0 -0.023,0.01 -0.3242,-0.033 -0.3517,-0.049 -0.9536,-0.1638 -1.8828,-0.4238 -1.8584,-0.5201 -5.0251,-1.6234 -10.1368,-3.9395 -10.5755,-4.7917 -25.332,-4.1133 -25.332,-4.1133 z"
                id="path42560"
                stroke-width="0.5"
                stroke-linecap="round"
                stroke-linejoin="round"
                stroke="black" />
            <path
                d="m 1685.5117,3473.5918 a 0.83613503,0.83613503 0 0 0 -0.5722,0.2852 0.83613503,0.83613503 0 0 0 0.08,1.1796 c 2.217,1.9355 4.1492,4.2015 6.291,9.5723 a 0.83613503,0.83613503 0 0 0 1.086,0.4668 0.83613503,0.83613503 0 0 0 0.4668,-1.0859 c -2.2126,-5.5482 -4.393,-8.1602 -6.7442,-10.2129 a 0.83613503,0.83613503 0 0 0 -0.6074,-0.2051 z"
                id="path42562"
                stroke-width="0.5"
                stroke-linecap="round"
                stroke-linejoin="round"
                stroke="black" />
            <path
                d="m 1683.1309,3475.5234 a 0.83613503,0.83613503 0 0 0 -0.1,1.1778 c 0,0 1.0019,1.1904 2.082,2.6035 1.08,1.4131 2.2491,3.1657 2.4609,3.7754 0.6525,1.8785 1.7539,4.5195 1.7539,4.5195 a 0.83613503,0.83613503 0 0 0 1.0938,0.4512 0.83613503,0.83613503 0 0 0 0.4511,-1.0938 c 0,0 -1.0986,-2.6404 -1.7187,-4.4257 -0.4245,-1.2223 -1.6024,-2.7918 -2.7109,-4.2422 -1.1086,-1.4504 -2.1348,-2.6661 -2.1348,-2.6661 a 0.83613503,0.83613503 0 0 0 -1.1777,-0.1 z"
                id="path42564"
                stroke-width="0.5"
                stroke-linecap="round"
                stroke-linejoin="round"
                stroke="black" />
            <path
                d="m 1681.1328,3476.9395 a 0.83613503,0.83613503 0 0 0 -0.6094,0.1972 0.83613503,0.83613503 0 0 0 -0.094,1.1778 c 0,0 1.1881,1.3931 2.4824,3.0898 1.2943,1.6967 2.6999,3.7814 3.0449,4.7559 a 0.83613503,0.83613503 0 0 0 1.0664,0.5097 0.83613503,0.83613503 0 0 0 0.5098,-1.0683 c -0.5324,-1.5035 -1.9652,-3.4729 -3.291,-5.211 -1.3258,-1.738 -2.5391,-3.1601 -2.5391,-3.1601 a 0.83613503,0.83613503 0 0 0 -0.5703,-0.291 z"
                id="path42566"
                stroke-width="0.5"
                stroke-linecap="round"
                stroke-linejoin="round"
                stroke="black" />
            <path
                d="m 1615.0469,3467.1934 a 0.83613503,0.83613503 0 0 0 -0.4883,1.0761 c 0.097,0.258 0.2062,0.4094 0.3594,0.6309 0.1532,0.2215 0.3461,0.4775 0.5722,0.7617 0.4522,0.5684 1.039,1.2525 1.6875,1.957 1.2675,1.377 2.719,2.7844 3.9532,3.5782 4.6515,4.7437 12.5982,4.9406 21.2129,4.4941 8.6497,-0.4483 18.0957,-1.5898 25.7441,-0.068 2.684,0.534 5.0433,0.1545 6.9023,-0.037 0.9296,-0.096 1.7319,-0.1417 2.3711,-0.051 0.6392,0.091 1.1003,0.2849 1.5313,0.7168 a 0.83621864,0.83621864 0 0 0 0.045,0.041 c 0.8892,0.7718 2.227,2.6404 3.2578,4.2793 0.5154,0.8194 0.9669,1.5889 1.2871,2.1543 0.1601,0.2826 0.2869,0.5151 0.3711,0.6738 0.042,0.079 0.073,0.1405 0.09,0.1738 0.01,0.017 0.013,0.028 0.01,0.02 0,0 -0.01,-0.013 -0.016,-0.041 0,-0.014 -0.011,-0.032 -0.02,-0.068 0,-0.018 -0.011,-0.042 -0.016,-0.076 0,-0.034 -0.01,-0.1547 -0.01,-0.1543 a 0.83613503,0.83613503 0 0 0 0.8028,0.8691 0.83613503,0.83613503 0 0 0 0.8691,-0.8007 c 0,-4e-4 0,-0.1211 -0.01,-0.1563 -0.01,-0.035 -0.011,-0.06 -0.016,-0.08 -0.01,-0.04 -0.017,-0.062 -0.023,-0.08 -0.013,-0.037 -0.02,-0.054 -0.027,-0.072 -0.015,-0.036 -0.03,-0.063 -0.045,-0.094 -0.03,-0.062 -0.066,-0.1335 -0.1133,-0.2226 -0.095,-0.1783 -0.2284,-0.4215 -0.3945,-0.7149 -0.3323,-0.5866 -0.7963,-1.3732 -1.3281,-2.2187 -1.056,-1.6789 -2.3321,-3.5503 -3.5508,-4.6191 -0.7031,-0.6973 -1.5755,-1.0574 -2.4629,-1.1836 -0.8936,-0.1272 -1.8119,-0.059 -2.7773,0.041 -1.9309,0.199 -4.0548,0.5299 -6.4043,0.062 -8.0579,-1.603 -17.5939,-0.4067 -26.1563,0.037 -8.5624,0.4437 -16.0168,0.077 -19.9902,-4.0313 a 0.83621864,0.83621864 0 0 0 -0.1582,-0.1289 c -0.9313,-0.581 -2.454,-2.0201 -3.7012,-3.375 -0.6236,-0.6774 -1.1897,-1.3376 -1.6094,-1.8652 -0.2098,-0.2638 -0.3825,-0.4964 -0.5039,-0.6719 -0.1213,-0.1754 -0.1943,-0.3308 -0.1699,-0.2656 a 0.83613503,0.83613503 0 0 0 -1.0781,-0.4902 z"
                id="path42568"
                stroke-width="0.5"
                stroke-linecap="round"
                stroke-linejoin="round"
                stroke="black" />
            <path
                d="m 1624.4717,3476.7504 c 0,0 -0.9159,5.004 -0.2025,9.2655 2.5937,13.9307 15.8914,24.5909 29.5796,26.1379 5.2642,0.3279 4.2518,0.6171 4.2518,0.6171 0,0 -5.9132,45.2393 -5.0648,52.721 0.8484,7.4817 2.9084,7.7403 3.5384,8.6484 2.035,2.9333 46.5407,1.4107 45.4781,-0.6364 11.5484,-21.2216 28.3622,-74.5201 9.4566,-91.4914 -13.7292,-8.1084 -22.2907,-9.962 -22.2907,-9.962 1.1895,3.2613 6.2046,10.7911 3.9053,13.7472 -1.2623,-0.2126 -1.4258,1.811 -1.8866,2.2888 -2.2089,2.2901 -3.0632,-0.4797 -5.5378,-0.9447 l -0.8533,-0.593 -5.3075,-7.2262 -10.162,-0.4821 -9.2171,-0.2507 -30.3509,-0.1928 z"
                id="path42570"
                stroke="none"
                stroke-width="0.836135"
                stroke-linecap="round"
                stroke-linejoin="round" />
            <path
                d="m 1618.3906,3477.7695 a 0.83613503,0.83613503 0 0 0 -0.6875,0.961 c 2.522,15.2785 6.9671,23.4192 12.961,28.4238 5.9939,5.0046 13.3659,6.8142 21.6269,9.7773 a 0.83613503,0.83613503 0 0 0 1.0703,-0.5039 0.83613503,0.83613503 0 0 0 -0.5058,-1.0703 c -8.3508,-2.9953 -15.4969,-4.7904 -21.1211,-9.4863 -5.6242,-4.6959 -9.8965,-12.3492 -12.3828,-27.4121 a 0.83613503,0.83613503 0 0 0 -0.961,-0.6895 z"
                id="path42572"
                stroke-width="0.5"
                stroke-linecap="round"
                stroke-linejoin="round"
                stroke="black" />
            <path
                d="m 1631.3945,3506.1348 a 0.83613503,0.83613503 0 0 0 -0.8984,0.7715 l -7.166,94.498 a 0.83613503,0.83613503 0 0 0 0.7695,0.8984 0.83613503,0.83613503 0 0 0 0.8965,-0.7714 l 7.168,-94.5 a 0.83613503,0.83613503 0 0 0 -0.7696,-0.8965 z"
                id="path42574"
                stroke-width="0.5"
                stroke-linecap="round"
                stroke-linejoin="round"
                stroke="black" />
            <path
                d="m 1627.1738,3501.4824 a 0.83613503,0.83613503 0 0 0 -0.9121,0.7539 l -9.5449,100.6797 a 0.83613503,0.83613503 0 0 0 0.7539,0.9121 0.83613503,0.83613503 0 0 0 0.9121,-0.7539 l 9.5449,-100.6816 a 0.83613503,0.83613503 0 0 0 -0.7539,-0.9102 z"
                id="path42576"
                stroke-width="0.5"
                stroke-linecap="round"
                stroke-linejoin="round"
                stroke="black" />
            <path
                d="m 1682.9902,3573.0508 a 0.83613503,0.83613503 0 0 0 -0.7714,0.8965 l 1.8535,24.8164 a 0.83613503,0.83613503 0 0 0 0.8965,0.7715 0.83613503,0.83613503 0 0 0 0.7714,-0.8965 l -1.8535,-24.8164 a 0.83613503,0.83613503 0 0 0 -0.8965,-0.7715 z"
                id="path42578"
                stroke-width="0.5"
                stroke-linecap="round"
                stroke-linejoin="round"
                stroke="black" />
            <path
                d="m 1690.1426,3572.3145 a 0.83613503,0.83613503 0 0 0 -0.7656,0.9023 l 2.291,28.0059 a 0.83613503,0.83613503 0 0 0 0.9023,0.7656 0.83613503,0.83613503 0 0 0 0.7637,-0.9024 l -2.291,-28.0058 a 0.83613503,0.83613503 0 0 0 -0.9004,-0.7656 z"
                id="path42580"
                stroke-width="0.5"
                stroke-linecap="round"
                stroke-linejoin="round"
                stroke="black" />
            <path
                d="m 1669.3965,3571.4375 a 0.83613503,0.83613503 0 0 0 -1.1582,0.2461 c 0,0 -1.0889,1.6736 -2.1778,3.8809 -1.0888,2.2072 -2.2172,4.9278 -2.2246,7.3027 -0.01,2.3951 1.2478,4.4092 2.42,6.1484 1.1721,1.7393 2.2267,3.2698 2.3007,4.3301 0.014,0.1964 -0.013,0.1806 -0.021,0.1895 -0.01,0.01 -0.094,0.075 -0.3262,0.1035 -0.4651,0.058 -1.3788,-0.084 -2.375,-0.4219 -1.9925,-0.6765 -4.3974,-2.1106 -5.3926,-3.2266 -2.1814,-2.4463 -2.9701,-5.677 -3.2383,-10.1015 -0.1282,-2.1165 0.2883,-3.5222 0.709,-4.3965 0.4207,-0.8743 0.7832,-1.1602 0.7832,-1.1602 a 0.83613503,0.83613503 0 0 0 0.098,-1.1797 0.83613503,0.83613503 0 0 0 -1.1797,-0.096 c 0,0 -0.6666,0.5858 -1.207,1.709 -0.5405,1.1232 -1.0175,2.8415 -0.8731,5.2246 0.2772,4.5745 1.124,8.2692 3.6602,11.1133 1.3637,1.5293 3.8487,2.9318 6.1035,3.6973 1.1273,0.3827 2.1773,0.6127 3.1191,0.4961 0.4709,-0.058 0.9494,-0.2174 1.3164,-0.5938 0.3671,-0.3763 0.5296,-0.9381 0.4922,-1.4746 -0.1306,-1.8713 -1.4431,-3.4565 -2.582,-5.1465 -1.139,-1.6899 -2.1406,-3.4181 -2.1348,-5.209 0.01,-1.811 1.011,-4.4566 2.0527,-6.5683 1.0418,-2.1117 2.0801,-3.709 2.0801,-3.709 a 0.83613503,0.83613503 0 0 0 -0.2441,-1.1582 z"
                id="path42582"
                stroke-width="0.5"
                stroke-linecap="round"
                stroke-linejoin="round"
                stroke="black" />
            <path
                d="m 1700.1914,3570.2988 a 0.83613503,0.83613503 0 0 0 -0.75,0.9141 c 0,0 0.1854,1.9058 0.8438,4.0937 0.6583,2.188 1.7524,4.7482 3.8984,6.0196 1.847,1.0942 3.5479,1.8977 4.8477,2.6543 1.2997,0.7565 2.1395,1.4526 2.4746,2.2129 0.122,0.2769 0.1067,0.5277 -0.057,0.8398 -0.1634,0.3121 -0.5013,0.652 -0.9785,0.8926 -0.9543,0.4811 -2.4137,0.5872 -3.9961,-0.416 -1.9271,-1.2218 -4.1553,-1.9576 -5.9141,-2.5625 -0.8793,-0.3025 -1.6432,-0.5754 -2.1562,-0.8223 -0.513,-0.2469 -0.6609,-0.4995 -0.627,-0.3809 -0.052,-0.1832 -0.1893,-0.9905 -0.3144,-1.9687 -0.1252,-0.9782 -0.2592,-2.1826 -0.3867,-3.3887 -0.255,-2.4122 -0.4809,-4.8051 -0.5684,-5.541 a 0.83613503,0.83613503 0 0 0 -0.9277,-0.7324 0.83613503,0.83613503 0 0 0 -0.7324,0.9297 c 0.076,0.6412 0.3081,3.0947 0.5644,5.5195 0.1282,1.2124 0.2627,2.4237 0.3906,3.4238 0.128,1.0002 0.2287,1.7339 0.3672,2.2188 0.2248,0.7868 0.8521,1.1121 1.5078,1.4277 0.6558,0.3156 1.4533,0.5903 2.3379,0.8945 1.7693,0.6086 3.8784,1.3256 5.5645,2.3946 2.0308,1.2875 4.1494,1.2489 5.6426,0.4961 0.7465,-0.3764 1.3497,-0.927 1.707,-1.6094 0.3573,-0.6824 0.4421,-1.5298 0.1074,-2.2891 -0.5784,-1.3123 -1.7641,-2.1694 -3.1641,-2.9843 -1.3999,-0.8149 -3.0716,-1.602 -4.8378,-2.6485 -1.4674,-0.8693 -2.5422,-3.0474 -3.1485,-5.0625 -0.6063,-2.015 -0.7812,-3.7754 -0.7812,-3.7754 a 0.83613503,0.83613503 0 0 0 -0.9141,-0.75 z"
                id="path42584"
                stroke-width="0.5"
                stroke-linecap="round"
                stroke-linejoin="round"
                stroke="black" />
            <path
                d="m 1656.4063,3577.9082 a 0.83613503,0.83613503 0 0 0 -1.086,0.4648 c 0,0 -0.6359,1.5846 -1.2988,3.2813 -0.3315,0.8483 -0.6704,1.7247 -0.9414,2.4492 -0.271,0.7245 -0.4616,1.2313 -0.5508,1.5938 -0.1446,0.5876 -0.017,0.9875 0.098,1.5566 0.1147,0.5691 0.2811,1.211 0.455,1.8223 0.3478,1.2225 0.7227,2.3242 0.7227,2.3242 a 0.83621864,0.83621864 0 0 0 1.6133,-0.1133 l 1.6777,-8.9863 a 0.83613503,0.83613503 0 0 0 -0.6699,-0.9746 0.83613503,0.83613503 0 0 0 -0.5176,0.1093 c 0.4536,-1.1493 0.9648,-2.4394 0.9648,-2.4394 a 0.83613503,0.83613503 0 0 0 -0.4667,-1.0879 z m -1.1739,5.2578 -0.8144,4.3633 c -0.048,-0.2003 -0.1167,-0.4284 -0.1524,-0.6055 -0.1,-0.4957 -0.076,-0.9706 -0.1113,-0.8261 0.02,-0.081 0.2263,-0.6973 0.4922,-1.4082 0.1668,-0.4462 0.3826,-0.9974 0.5859,-1.5235 z"
                id="path42586"
                stroke-width="0.5"
                stroke-linecap="round"
                stroke-linejoin="round"
                stroke="black" />
            <path
                d="m 1696.0195,3577.9551 a 0.83621864,0.83621864 0 0 0 -0.7011,0.8105 c -0.01,0.5609 0.1006,1.3817 0.2558,2.4551 0.1552,1.0734 0.3636,2.3429 0.5723,3.5606 0.4174,2.4353 0.8379,4.666 0.8379,4.666 a 0.83621864,0.83621864 0 0 0 1.498,0.3359 l 1.4043,-1.9355 a 0.83621864,0.83621864 0 0 0 0.1113,-0.7715 l -3.0546,-8.5762 a 0.83621864,0.83621864 0 0 0 -0.9239,-0.5449 z"
                id="path42588"
                stroke-width="0.5"
                stroke-linecap="round"
                stroke-linejoin="round"
                stroke="black" />
            <path
                d="m 1657.3641,3575.1938 c 0.2999,1.3907 1.0634,1.4316 2.5087,4.2677 1.4454,2.8361 5.3995,-1.4726 5.3995,-1.4726 0,0 -1.0499,4.8541 -0.6408,6.2312 0.409,1.3771 4.8131,8.9855 4.8131,8.9855 0,0 -0.9571,0.037 -1.459,1.0363 -1.8384,3.661 -12.4598,-5.9301 -11.5487,-10.5262 l -1.6772,6.4902 c 0,0 -2.0043,-3.5178 -0.8998,-5.2631 1.1044,-1.7453 3.5042,-9.749 3.5042,-9.749 z"
                id="path42590"
                stroke="none"
                stroke-width="0.836135"
                stroke-linecap="round"
                stroke-linejoin="round" />
            <path
                d="m 1696.8098,3575.9846 c 0,0 1.6907,4.2132 3.3951,4.4586 1.7043,0.2455 2.6997,-1.7589 2.6997,-1.7589 l 8.7263,5.9722 0.5045,3.2451 c -1.5628,1.0431 -3.1316,2.063 -5.4403,0.1227 l -7.0083,-2.877 c 0,0 -1.8135,0.3818 -2.2498,-1.0226 -0.4363,-1.4044 -0.6272,-8.1401 -0.6272,-8.1401 z"
                id="path42592"
                stroke="none"
                stroke-width="0.836135"
                stroke-linecap="round"
                stroke-linejoin="round" />
            <path
                d="m 1838.7005,3369.2178 -4.8198,-9.5364 c -3.5745,-8.691 -3.5531,-15.7871 3.0251,-19.9752 1.5659,-5.5885 1.3424,-13.5918 9.7115,-9.9978 2.2927,-7.6977 6.5709,-11.2478 14.0799,-8.0495 4.3633,-3.7062 8.9284,-6.0577 14.9105,1.1074 4.9973,-4.2246 9.7947,-5.6108 13.762,4.799 4.2914,-1.3395 6.8448,6.796 2.6048,9.4851 -1.9778,1.2542 3.6457,-0.8019 3.9315,5.3172 0.1434,3.0691 -2.6865,8.6444 -3.7879,8.4028 5.2864,1.418 15.5768,17.066 -4.6558,26.3021 -5.3782,2.4551 -12.5212,-0.061 -12.5212,-0.061 0,0 12.4359,-9.1717 11.2804,-11.3104 -2.9348,-5.4322 -10.0261,4.434 -10.1729,6.5832 0,0 -0.8693,-7.4604 -3.0456,-10.3055 -3.298,-4.3112 -10.0908,-3.1787 -13.8646,-8.5418 -3.7737,-5.3628 -3.4867,-5.6192 -3.4867,-5.6192 0,0 -4.5428,8.716 -8.9524,8.3366 -4.4096,-0.3793 -5.6813,2.7892 -5.9992,4.6453 -0.3179,1.8559 -1.9996,8.4186 -1.9996,8.4186 z"
                id="path42594"
                stroke="none"
                stroke-width="0.87184"
                stroke-linecap="round"
                stroke-linejoin="round" />
            <path
                d="m 1838.3965,3361.7168 a 0.87184,0.87184 0 0 0 -0.9024,0.8379 c -0.4379,11.7126 1.3193,20.0768 4.3907,25.6797 3.0714,5.6029 7.528,8.4216 12.209,8.8066 9.3618,0.77 19.2701,-7.8237 21.9746,-20.6426 a 0.87184,0.87184 0 0 0 -0.6719,-1.0332 0.87184,0.87184 0 0 0 -1.0332,0.6739 c -2.5587,12.1277 -11.9451,19.9366 -20.127,19.2636 -4.0909,-0.3364 -7.9692,-2.7017 -10.8222,-7.9062 -2.853,-5.2045 -4.608,-13.271 -4.1778,-24.7774 a 0.87184,0.87184 0 0 0 -0.8398,-0.9023 z"
                id="path42596"
                stroke-width="0.5"
                stroke-linecap="round"
                stroke-linejoin="round"
                stroke="black" />
            <path
                d="m 1851.5527,3352.918 a 0.87184,0.87184 0 0 0 -0.6504,0.1504 0.87184,0.87184 0 0 0 -0.2011,1.2168 c 3.4518,4.823 3.5118,9.2302 2.1445,12.8203 -1.3673,3.59 -4.2777,6.3374 -6.709,7.4511 a 0.87184,0.87184 0 0 0 -0.4297,1.1543 0.87184,0.87184 0 0 0 1.1563,0.4297 c 2.9185,-1.3369 6.0619,-4.3457 7.6113,-8.414 1.5495,-4.0684 1.391,-9.2224 -2.3555,-14.4571 a 0.87184,0.87184 0 0 0 -0.5664,-0.3515 z"
                id="path42598"
                stroke-width="0.5"
                stroke-linecap="round"
                stroke-linejoin="round"
                stroke="black" />
            <path
                d="m 1844.2949,3362.2012 a 0.87184,0.87184 0 0 0 -0.6426,0.1758 0.87184,0.87184 0 0 0 -0.1523,1.2246 c 1.644,2.1097 3.3624,3.6663 5.3984,3.8847 1.018,0.1092 2.0716,-0.1716 3.0352,-0.8261 0.9636,-0.6546 1.8616,-1.6613 2.7441,-3.0567 a 0.87184,0.87184 0 0 0 -0.2714,-1.2031 0.87184,0.87184 0 0 0 -1.2032,0.2715 c -0.7977,1.2613 -1.5629,2.0815 -2.248,2.5469 -0.6851,0.4653 -1.2669,0.598 -1.8711,0.5332 -1.2084,-0.1297 -2.685,-1.267 -4.209,-3.2227 a 0.87184,0.87184 0 0 0 -0.5801,-0.3281 z"
                id="path42600"
                stroke-width="0.5"
                stroke-linecap="round"
                stroke-linejoin="round"
                stroke="black" />
            <path
                d="m 1860.8984,3364.4121 a 0.87184,0.87184 0 0 0 -0.3613,1.1797 c 1.7519,3.3018 3.8791,4.6157 6.0039,4.7187 2.1248,0.1031 4.0783,-0.8183 5.875,-1.3906 a 0.87184,0.87184 0 0 0 0.5664,-1.0957 0.87184,0.87184 0 0 0 -1.0957,-0.5664 c -1.9305,0.6149 -3.7305,1.3848 -5.2617,1.3106 -1.5312,-0.074 -2.9621,-0.8082 -4.5469,-3.795 a 0.87184,0.87184 0 0 0 -1.1797,-0.3613 z"
                id="path42602"
                stroke-width="0.5"
                stroke-linecap="round"
                stroke-linejoin="round"
                stroke="black" />
            <path
                d="m 1856.582,3381.7246 c -0.3145,-0.031 -0.6551,-0.021 -1.0566,0 -0.803,0.05 -1.8202,0.1728 -2.8535,0.3086 -1.0334,0.1358 -2.079,0.2852 -2.8926,0.3828 -0.4068,0.049 -0.757,0.084 -1.0039,0.1 -0.1235,0.01 -0.2224,0.011 -0.2754,0.01 -0.053,0 -0.084,-0.032 0.078,0.027 a 0.87184,0.87184 0 0 0 -1.1191,0.5176 0.87184,0.87184 0 0 0 0.5176,1.1192 c 0.2439,0.089 0.3506,0.075 0.4843,0.078 0.1338,0 0.27,0 0.4239,-0.012 0.3078,-0.02 0.6791,-0.059 1.1015,-0.1094 0.8449,-0.1014 1.8907,-0.2505 2.9121,-0.3848 1.0215,-0.1342 2.0221,-0.2528 2.7344,-0.2968 0.2,-0.012 0.2951,-0.01 0.4375,-0.01 0.034,0.2538 0.061,0.4147 0.094,0.8086 0.058,0.6926 0.085,1.5368 0,2.2637 -0.085,0.7269 -0.3133,1.2982 -0.5215,1.5058 -0.2083,0.2076 -0.3871,0.3248 -1.1973,0.01 -1.9508,-0.7584 -3.0912,-1.4263 -3.7226,-1.8789 -0.3158,-0.2263 -0.5046,-0.3978 -0.6055,-0.5 -0.1009,-0.1023 -0.082,-0.084 -0.082,-0.084 a 0.87184,0.87184 0 0 0 -1.2071,-0.252 0.87184,0.87184 0 0 0 -0.25,1.2071 c 0,0 0.1202,0.1745 0.2969,0.3535 0.1767,0.1789 0.4435,0.4129 0.832,0.6914 0.7772,0.557 2.0463,1.2874 4.1055,2.0879 1.1948,0.4645 2.3697,0.2902 3.0625,-0.4004 0.6928,-0.6906 0.9124,-1.6217 1.0195,-2.5371 0.1071,-0.9154 0.071,-1.853 0.01,-2.6133 -0.063,-0.7593 -0.1626,-1.3925 -0.1738,-1.4844 v 0 c -0.058,-0.4729 -0.4416,-0.7203 -0.6406,-0.8008 -0.1993,-0.081 -0.3486,-0.098 -0.5059,-0.1133 z m -0.5859,1.125 c 10e-5,7e-4 0,0 0,0 -2e-4,0 0,0 0,0 z"
                id="path42604"
                stroke-width="0.5"
                stroke-linecap="round"
                stroke-linejoin="round"
                stroke="black" />
            <path
                d="m 1872.5273,3389.4297 a 0.87184,0.87184 0 0 0 -1.1269,0.4961 0.87184,0.87184 0 0 0 0.4961,1.1289 c 0,0 3.6659,1.4095 8.4551,5.9746 4.7891,4.5651 10.625,12.2511 14.7148,24.7637 4.1976,12.8422 2.2675,27.6959 2.1777,28.375 -0.316,0.1871 -2.4475,1.4653 -5.5429,2.834 -3.3148,1.4656 -7.3643,2.7506 -9.8047,2.3886 -2.7598,-0.4094 -3.9073,-0.9864 -4.2442,-1.2636 -0.146,-0.1203 -0.1216,-0.1266 -0.1093,-0.096 a 0.87192718,0.87192718 0 0 0 0.01,-0.041 l 0.4629,-30.9316 a 0.87184,0.87184 0 0 0 -0.8574,-0.8848 0.87184,0.87184 0 0 0 -0.8848,0.8575 l -0.4649,30.873 c 0,0.016 -0.01,0.019 -0.01,0.035 -0.015,0.1305 -0.012,0.293 0.029,0.4707 0.082,0.3552 0.3195,0.737 0.7149,1.0625 0.7907,0.6508 2.1869,1.2107 5.0976,1.6425 3.2301,0.4791 7.3404,-1.0051 10.7657,-2.5195 3.4252,-1.5144 6.1269,-3.1348 6.1269,-3.1348 a 0.87192718,0.87192718 0 0 0 0.4141,-0.6269 c 0,0 2.2483,-15.8974 -2.2246,-29.582 -4.1766,-12.7782 -10.1825,-20.7322 -15.168,-25.4844 -4.9855,-4.7522 -9.0274,-6.3379 -9.0274,-6.3379 z m 5.002,64.666 c 10e-5,0.016 0,0.027 0,0.045 -0.01,0.049 -0.045,0.1621 -0.045,0.1621 a 0.87192718,0.87192718 0 0 0 0.043,-0.207 z"
                id="path42606"
                stroke-width="0.5"
                stroke-linecap="round"
                stroke-linejoin="round"
                stroke="black" />
            <path
                d="m 1842.8574,3394.0586 c -0.3075,-0.03 -0.4584,0.036 -0.625,0.096 -0.1665,0.06 -0.33,0.1367 -0.5078,0.2324 -0.3557,0.1914 -0.7682,0.4605 -1.2402,0.8106 -0.9441,0.7 -2.114,1.7265 -3.3438,3.0703 -2.4596,2.6876 -5.1548,6.6441 -6.5781,11.7226 -2.7592,9.8454 -4.1992,15.8828 -4.1992,15.8828 a 0.87184,0.87184 0 0 0 0.6445,1.0508 0.87184,0.87184 0 0 0 1.0508,-0.6465 c 0,0 1.4318,-5.9975 4.1836,-15.8164 1.3322,-4.7534 3.8719,-8.4916 6.1836,-11.0175 1.1558,-1.263 2.2561,-2.2217 3.0976,-2.8457 0.4208,-0.3121 0.7783,-0.5418 1.0274,-0.6758 0.1245,-0.067 0.2229,-0.1102 0.2695,-0.127 0.047,-0.017 0.062,0.017 -0.1328,0 a 0.87184,0.87184 0 0 0 0.9512,-0.7813 0.87184,0.87184 0 0 0 -0.7813,-0.9531 z"
                id="path42608"
                stroke-width="0.5"
                stroke-linecap="round"
                stroke-linejoin="round"
                stroke="black" />
            <path
                d="m 1838.7539,3415.2871 a 0.87184,0.87184 0 0 0 -1.0273,0.6817 c 0,0 -8.2852,40.7365 -10.0352,48.9941 -1.7551,8.2823 -2.1406,10.2344 -2.1406,10.2344 a 0.87184,0.87184 0 0 0 0.6855,1.0234 0.87184,0.87184 0 0 0 1.0254,-0.6855 c 0,0 0.3824,-1.9323 2.1367,-10.211 1.7598,-8.3034 10.0371,-49.0078 10.0371,-49.0078 a 0.87184,0.87184 0 0 0 -0.6816,-1.0293 z"
                id="path42610"
                stroke-width="0.5"
                stroke-linecap="round"
                stroke-linejoin="round"
                stroke="black" />
            <path
                d="m 1876.3223,3454.2246 c 0,0 -4.3991,3.1793 -9.3008,7.1973 -4.9017,4.018 -10.2854,8.7831 -12.4434,12.3926 -1.9969,3.34 -3.5694,6.0408 -4.8437,8.0019 -1.2744,1.9611 -2.3189,3.1675 -2.8965,3.4941 -0.2633,0.149 -1.1444,0.4633 -2.207,0.7579 -1.0627,0.2945 -2.3469,0.6051 -3.6172,0.9004 -1.2704,0.2952 -2.5276,0.5755 -3.5489,0.8144 -1.0213,0.2389 -1.7297,0.3962 -2.2168,0.5957 -0.9119,0.3737 -1.6212,1.1295 -2.041,2.0059 -0.2099,0.4381 -0.3729,0.952 -0.1797,1.5371 0.1933,0.585 0.8265,0.9943 1.4551,1.0742 0.9847,0.1251 2.5807,0.1257 3.9961,0.1094 0.7892,-0.01 0.9728,-0.019 1.457,-0.033 -0.1337,0.5777 -0.221,1.0195 -0.5625,2.2324 -0.5069,1.8009 -1.2305,3.9148 -1.8378,4.8926 -0.5716,0.9201 -2.5686,2.8795 -4.4336,4.7695 -0.9325,0.945 -1.8417,1.8953 -2.5664,2.7852 -0.7248,0.8898 -1.2951,1.6701 -1.4688,2.5742 -0.2334,1.215 0.1996,2.2722 0.9473,2.748 0.7476,0.4758 1.5671,0.4616 2.2363,0.2461 a 0.87192718,0.87192718 0 0 0 0.2148,-0.1035 c 4.1457,-2.761 7.5422,-6.194 9.836,-10.2988 a 0.87184,0.87184 0 0 0 -0.336,-1.1875 0.87184,0.87184 0 0 0 -1.1855,0.3359 c -2.1116,3.7789 -5.2603,6.9729 -9.1484,9.5899 -0.2173,0.042 -0.5409,0.037 -0.6817,-0.053 -0.1581,-0.1006 -0.3166,-0.1855 -0.1699,-0.9492 0.049,-0.2561 0.4526,-0.9944 1.1094,-1.8008 0.6567,-0.8064 1.5362,-1.7309 2.4551,-2.6621 1.8377,-1.8623 3.795,-3.6595 4.6738,-5.0742 0.8428,-1.357 1.5104,-3.4827 2.0332,-5.3399 0.5227,-1.8571 0.8613,-3.4179 0.8613,-3.4179 a 0.87192718,0.87192718 0 0 0 -0.8828,-1.0567 c 0,0 -1.1795,0.043 -2.5703,0.059 -1.3814,0.016 -2.9966,0 -3.7305,-0.096 0.01,-0.041 0,-0.015 0.051,-0.1269 0.2,-0.4176 0.8368,-1.0243 1.1289,-1.1446 0.1147,-0.047 0.9483,-0.2781 1.9551,-0.5136 1.0068,-0.2355 2.2646,-0.515 3.5449,-0.8125 1.2803,-0.2975 2.5826,-0.6131 3.6895,-0.92 1.1069,-0.3068 1.9782,-0.5684 2.5996,-0.9199 1.1916,-0.6738 2.1827,-2.0364 3.498,-4.0605 1.3153,-2.0241 2.8876,-4.726 4.8789,-8.0567 1.8302,-3.0613 7.1979,-7.9618 12.0528,-11.9414 4.8548,-3.9796 9.2167,-7.1308 9.2168,-7.1308 a 0.87184,0.87184 0 0 0 0.1953,-1.2168 0.87184,0.87184 0 0 0 -1.2168,-0.1973 z"
                id="path42612"
                stroke-width="0.5"
                stroke-linecap="round"
                stroke-linejoin="round"
                stroke="black" />
            <path
                d="m 1895.7695,3451.4785 a 0.87184,0.87184 0 0 0 -1.125,0.5059 c 0,0 -2.9564,7.7536 -9.334,14.2441 -3.146,3.2018 -10.5738,8.8662 -17.1542,13.6582 -6.5805,4.792 -12.3477,8.7559 -12.3477,8.7559 a 0.87184,0.87184 0 0 0 -0.2246,1.2109 0.87184,0.87184 0 0 0 1.2129,0.2246 c 0,0 5.7843,-3.9751 12.3867,-8.7832 6.6024,-4.808 13.9891,-10.4037 17.3691,-13.8437 6.6749,-6.7931 9.7227,-14.8477 9.7227,-14.8477 a 0.87184,0.87184 0 0 0 -0.5059,-1.125 z"
                id="path42614"
                stroke-width="0.5"
                stroke-linecap="round"
                stroke-linejoin="round"
                stroke="black" />
            <path
                d="m 1844.9688,3502.916 a 0.87184,0.87184 0 0 0 -0.5333,0.4024 c 0,0 -1.666,2.8146 -4.1035,5.9179 -2.2289,2.8379 -7.1328,4.8067 -7.1328,4.8067 a 0.87184,0.87184 0 0 0 -0.5019,1.125 0.87184,0.87184 0 0 0 1.125,0.5019 c 0,0 5.1567,-1.8871 7.8808,-5.3554 2.5157,-3.2029 4.2324,-6.1094 4.2324,-6.1094 a 0.87184,0.87184 0 0 0 -0.3066,-1.1934 0.87184,0.87184 0 0 0 -0.6601,-0.096 z"
                id="path42616"
                stroke-width="0.5"
                stroke-linecap="round"
                stroke-linejoin="round"
                stroke="black" />
            <path
                d="m 1849.082,3504.541 a 0.87184,0.87184 0 0 0 -1.0703,0.6094 c 0,0 -0.5984,2.1942 -2.4082,4.916 -0.7623,1.1465 -2.7117,2.5062 -4.4531,3.4688 -1.7414,0.9625 -3.252,1.58 -3.252,1.58 a 0.87184,0.87184 0 0 0 -0.4765,1.1368 0.87184,0.87184 0 0 0 1.1367,0.4785 c 0,0 1.5967,-0.6535 3.4355,-1.67 1.8388,-1.0164 3.9411,-2.3437 5.0606,-4.0273 1.9538,-2.9385 2.6387,-5.4219 2.6387,-5.4219 a 0.87184,0.87184 0 0 0 -0.6114,-1.0703 z"
                id="path42618"
                stroke-width="0.5"
                stroke-linecap="round"
                stroke-linejoin="round"
                stroke="black" />
            <path
                d="m 1856.3203,3488.8555 a 0.87184,0.87184 0 0 0 -1.0137,0.7011 c 0,0 -1.4602,8.0133 -2.3691,12.1309 -0.3968,1.7975 -2.0411,4.5847 -3.5977,6.8125 -1.5565,2.2278 -3,3.9434 -3,3.9434 a 0.87184,0.87184 0 0 0 0.1055,1.2285 0.87184,0.87184 0 0 0 1.2285,-0.1055 c 0,0 1.4881,-1.7702 3.0938,-4.0684 1.6057,-2.2981 3.352,-5.0749 3.873,-7.4355 0.9267,-4.1984 2.3809,-12.1934 2.3809,-12.1934 a 0.87184,0.87184 0 0 0 -0.7012,-1.0136 z"
                id="path42620"
                stroke-width="0.5"
                stroke-linecap="round"
                stroke-linejoin="round"
                stroke="black" />
            <path
                d="m 1879.8627,3472.4143 c 1.4546,6.3393 3.3108,20.7349 -1.1023,28.3322 -5.0384,7.9918 -15.0588,14.4612 -24.5041,14.2431 -4.5692,-0.1053 -7.2912,-1.1792 -7.2912,-1.1792 0,0 6.6503,-9.6288 6.9887,-11.7154 0.3384,-2.0868 2.133,-12.3616 2.2714,-12.7665 0.1385,-0.405 17.4641,-12.3614 18.1614,-12.8485 0.6974,-0.4872 5.4761,-4.0657 5.4761,-4.0657 z"
                id="path42622"
                stroke="none"
                stroke-width="0.87184"
                stroke-linecap="round"
                stroke-linejoin="round" />
            <path
                d="m 1853.7666,3475.9533 c -0.3179,0 -38.2187,-0.1726 -46.4801,10.5207 -7.7012,9.9683 -20.8162,74.268 -21.2007,77.7543 -0.3847,3.4866 -0.4205,6.0654 -0.4205,6.0654 1.4673,2.3545 3.9821,3.0618 6.6503,3.5276 0,0 11.816,-15.7582 15.3412,-22.2158 3.5101,-6.43 7.1426,-11.3053 7.1426,-11.3053 l 12.6698,13.4228 c 1.9043,-0.1759 3.7793,-0.4574 4.9736,-3.1788 1.025,-0.4981 -5.8447,-24.6462 -6.2298,-25.4048 -0.4248,-0.8367 4.8095,-7.8854 5.0505,-8.8903 0.241,-1.005 0.097,-3.6148 0.097,-3.6148 0,0 -0.9191,0.6365 -1.1703,-0.05 -0.2513,-0.687 -0.2205,-3.2454 -0.1488,-3.6352 0.072,-0.3895 8.1373,-7.4701 8.3475,-8.2032 0.2103,-0.7333 2.0151,-5.081 1.9998,-5.6911 -0.015,-0.6101 0.1538,-2.8814 0.1538,-2.8814 0,0 -4.466,0.077 -5.0608,0.046 -0.5948,-0.032 -2.1535,-0.3538 -2.133,-0.9688 0.02,-0.6154 1.7536,-2.6457 1.7536,-2.6457 0,0 11.1368,-1.4766 11.5931,-2.1021 0.4563,-0.6255 3.984,-4.1889 4.3839,-5.0757 0.4,-0.8871 2.6869,-5.4734 2.6869,-5.4734 z"
                id="path42624"
                stroke="none"
                stroke-width="0.87184"
                stroke-linecap="round"
                stroke-linejoin="round" />
            <path
                d="m 1794.8011,3517.1891 c 3.6534,-14.0465 3.5867,-26.2399 13.132,-33.8468 9.4319,-7.5163 21.3356,-7.0029 33.5082,-8.012 0,0 -15.489,-0.1706 -18.6939,0.1305 -5.708,0.5363 -28.9921,7.1219 -32.5146,17.2279 -5.1539,14.7862 4.5683,24.5004 4.5683,24.5004 z"
                id="path42626"
                stroke="none"
                stroke-width="0.87184"
                stroke-linecap="round"
                stroke-linejoin="round" />
            <path
                d="m 1809.1738,3544.4668 a 0.87184,0.87184 0 0 0 -1.0761,0.6016 c -0.089,0.3169 -0.1128,0.5704 -0.2071,1.1855 -0.094,0.6151 -0.2191,1.4656 -0.3691,2.5176 -0.3,2.1039 -0.7026,5.0167 -1.1738,8.4687 -0.9425,6.9042 -2.1556,15.9593 -3.3555,24.9629 -2.3998,18.0073 -4.7442,35.8145 -4.7442,35.8145 a 0.87184,0.87184 0 0 0 0.752,0.9765 0.87184,0.87184 0 0 0 0.9766,-0.75 c 0,0 2.3446,-17.8051 4.7441,-35.8105 1.1998,-9.0027 2.4135,-18.0565 3.3555,-24.957 0.4709,-3.4503 0.8728,-6.3616 1.1718,-8.459 0.1496,-1.0487 0.2747,-1.8941 0.3672,-2.4981 0.093,-0.604 0.1932,-1.0955 0.1602,-0.9785 a 0.87184,0.87184 0 0 0 -0.6016,-1.0742 z"
                id="path42628"
                stroke-width="0.5"
                stroke-linecap="round"
                stroke-linejoin="round"
                stroke="black" />
            <path
                d="m 1816.291,3539.3574 a 0.87184,0.87184 0 0 0 -0.9961,0.7266 l -12.1211,77.2129 a 0.87184,0.87184 0 0 0 0.7266,0.998 0.87184,0.87184 0 0 0 0.9961,-0.7265 l 12.1211,-77.2149 a 0.87184,0.87184 0 0 0 -0.7266,-0.9961 z"
                id="path42630"
                stroke-width="0.5"
                stroke-linecap="round"
                stroke-linejoin="round"
                stroke="black" />
            <path
                d="m 1885.5215,3482.2148 a 0.87184,0.87184 0 0 0 -0.5508,1.1016 c 1.0999,3.3088 0.5508,9.016 -1.3242,14.5879 -1.875,5.5719 -5.0433,11.0327 -8.7774,14.0762 -1.7363,1.4152 -5.2142,2.6478 -9.4726,3.5371 -4.2584,0.8893 -9.3051,1.4824 -14.2871,1.8594 -9.9641,0.7538 -19.7564,0.6357 -22.416,0.3984 a 0.87184,0.87184 0 0 0 -0.9454,0.791 0.87184,0.87184 0 0 0 0.7911,0.9453 c 2.9701,0.2651 12.6419,0.3647 22.7031,-0.3965 5.0306,-0.3806 10.1358,-0.9787 14.5117,-1.8925 4.3759,-0.9139 8.0153,-2.0963 10.2168,-3.8907 4.1418,-3.3757 7.3755,-9.0685 9.3281,-14.8711 1.9526,-5.8026 2.6567,-11.6928 1.3262,-15.6953 a 0.87184,0.87184 0 0 0 -1.1035,-0.5508 z"
                id="path42632"
                stroke-width="0.5"
                stroke-linecap="round"
                stroke-linejoin="round"
                stroke="black" />
            <path
                d="m 1875.4434,3512.5684 a 0.87184,0.87184 0 0 0 -0.6348,1.0566 c -0.019,-0.077 0.021,0.105 0.055,0.3105 0.034,0.2056 0.081,0.4966 0.1387,0.8633 0.1149,0.7335 0.2734,1.7746 0.4707,3.0762 0.3945,2.6033 0.9399,6.2518 1.5859,10.5938 1.292,8.6838 2.9842,20.1394 4.666,31.5546 3.3635,22.8306 6.6856,45.4981 6.6856,45.4981 a 0.87184,0.87184 0 0 0 0.9902,0.7363 0.87184,0.87184 0 0 0 0.7363,-0.9902 c 0,0 -3.3238,-22.6667 -6.6875,-45.4981 -1.6818,-11.4157 -3.3738,-22.8731 -4.666,-31.5586 -0.6461,-4.3427 -1.1909,-7.9913 -1.5859,-10.5976 -0.1976,-1.3032 -0.3569,-2.3451 -0.4727,-3.084 -0.058,-0.3695 -0.1051,-0.6625 -0.1406,-0.877 -0.035,-0.2145 -0.042,-0.2898 -0.082,-0.4492 a 0.87184,0.87184 0 0 0 -1.0586,-0.6347 z"
                id="path42634"
                stroke-width="0.5"
                stroke-linecap="round"
                stroke-linejoin="round"
                stroke="black" />
            <path
                d="m 1869.0117,3514.6348 a 0.87184,0.87184 0 0 0 -0.666,0.01 0.87184,0.87184 0 0 0 -0.4531,1.1465 c -0.042,-0.096 0.024,0.085 0.074,0.3028 0.05,0.2179 0.113,0.5251 0.1875,0.9082 0.1491,0.766 0.3441,1.8379 0.5742,3.166 0.4602,2.6561 1.0656,6.3384 1.7676,10.6972 1.404,8.7177 3.1886,20.1425 4.9434,31.4981 3.5094,22.7111 6.9023,45.1504 6.9023,45.1504 a 0.87184,0.87184 0 0 0 0.9922,0.7324 0.87184,0.87184 0 0 0 0.7305,-0.9922 c 0,0 -3.3924,-22.4433 -6.9024,-45.1582 -1.755,-11.3575 -3.5382,-22.783 -4.9433,-31.5078 -0.7026,-4.3624 -1.3111,-8.0478 -1.7735,-10.7168 -0.2312,-1.3345 -0.4248,-2.4135 -0.5781,-3.2012 -0.077,-0.3938 -0.1443,-0.7156 -0.2012,-0.9648 -0.057,-0.2492 -0.073,-0.3758 -0.1738,-0.6074 a 0.87184,0.87184 0 0 0 -0.4805,-0.4629 z"
                id="path42636"
                stroke-width="0.5"
                stroke-linecap="round"
                stroke-linejoin="round"
                stroke="black" />
            <path
                d="m 1831.6406,3548.5254 a 0.87184,0.87184 0 0 0 -0.664,0.061 0.87184,0.87184 0 0 0 -0.3692,1.1758 c 0,0 1.2964,2.4758 2.6856,6.1348 1.2874,3.3909 -0.1661,5.0676 -0.918,5.7656 0.037,-0.034 -0.3006,0.2214 -0.7383,0.4942 -0.4377,0.2727 -1.0286,0.6226 -1.7207,1.0175 -1.3842,0.7898 -3.1767,1.7592 -5.0097,2.6719 -1.8331,0.9127 -3.7111,1.7695 -5.2422,2.332 -0.7656,0.2813 -1.4471,0.4889 -1.9668,0.5938 -0.5198,0.1049 -0.8886,0.061 -0.8789,0.064 -0.5114,-0.1896 -0.7685,-0.3618 -0.8692,-0.4492 0.023,0.013 0.1959,-0.2416 0.416,-0.5527 0.1569,-0.082 1.3475,-0.7018 2.9512,-1.6719 1.7054,-1.0316 3.6759,-2.3202 4.8848,-3.5859 1.2473,-1.3059 2.3533,-3.4719 3.2285,-5.3633 0.8752,-1.8914 1.4746,-3.4961 1.4746,-3.4961 a 0.87184,0.87184 0 0 0 -0.5098,-1.123 0.87184,0.87184 0 0 0 -1.123,0.5117 c 0,0 -0.5806,1.5485 -1.4258,3.375 -0.8451,1.8265 -1.9979,3.9435 -2.9043,4.8925 -0.9448,0.9893 -2.8736,2.2965 -4.5273,3.2969 -1.6538,1.0004 -3.0411,1.7227 -3.0411,1.7227 a 0.87192718,0.87192718 0 0 0 -0.2949,0.25 c -0.2303,0.3071 -0.8243,0.7141 -0.914,1.6445 -0.045,0.4652 0.1839,1.0047 0.5507,1.3496 0.3669,0.3449 0.8408,0.5903 1.4981,0.834 0.6061,0.2247 1.1703,0.1429 1.8301,0.01 0.6598,-0.1332 1.4053,-0.3658 2.2226,-0.666 1.6347,-0.6006 3.5502,-1.4783 5.418,-2.4082 1.8678,-0.93 3.6821,-1.9103 5.0957,-2.7168 0.7068,-0.4033 1.3134,-0.7625 1.7793,-1.0528 0.4658,-0.2903 0.7387,-0.451 1.0039,-0.6972 1.0755,-0.9985 2.8855,-3.6427 1.3594,-7.6622 -1.4244,-3.7516 -2.7676,-6.3242 -2.7676,-6.3242 a 0.87184,0.87184 0 0 0 -0.5137,-0.4277 z"
                id="path42638"
                stroke-width="0.5"
                stroke-linecap="round"
                stroke-linejoin="round"
                stroke="black" />
            <path
                d="m 1768.625,3564.0996 c -0.4268,-0.096 -0.9429,0.1266 -1.1973,0.3926 -0.2544,0.266 -0.4032,0.557 -0.5644,0.9238 -0.6403,1.4571 -0.7716,2.9928 -0.6582,4.2754 0.057,0.6413 0.1753,1.2206 0.3398,1.7129 0.1645,0.4923 0.3369,0.8978 0.7129,1.2461 0.2586,0.2395 0.4878,0.3738 0.9688,0.7012 0.4809,0.3274 1.1248,0.7553 1.8847,1.2519 1.5199,0.9933 3.5,2.2597 5.5254,3.5176 2.0254,1.2579 4.0941,2.5066 5.8008,3.4707 0.8533,0.482 1.6156,0.8927 2.2461,1.2012 0.6305,0.3085 1.0673,0.5212 1.5625,0.6054 0.5847,0.099 1.0917,-0.1326 1.5,-0.4199 0.4083,-0.2872 0.767,-0.6639 1.123,-1.1015 0.7121,-0.8754 1.3974,-2.0067 2.0176,-3.1426 1.2404,-2.272 2.2031,-4.5664 2.2031,-4.5664 a 0.87184,0.87184 0 0 0 -0.4648,-1.1407 0.87184,0.87184 0 0 0 -1.1426,0.4649 c 0,0 -0.9397,2.2372 -2.125,4.4082 -0.5926,1.0855 -1.2508,2.1528 -1.8398,2.8769 -0.2946,0.3621 -0.5758,0.635 -0.7754,0.7754 -0.1996,0.1404 -0.2678,0.1163 -0.2051,0.127 -0.027,0 -0.5086,-0.1697 -1.0879,-0.4531 -0.5793,-0.2835 -1.3191,-0.6806 -2.1543,-1.1524 -1.6704,-0.9435 -3.7256,-2.1836 -5.7383,-3.4336 -2.0126,-1.25 -3.9849,-2.511 -5.4921,-3.4961 -0.7537,-0.4925 -1.391,-0.9168 -1.8575,-1.2343 -0.4664,-0.3176 -0.85,-0.6191 -0.7636,-0.5391 0.031,0.029 -0.132,-0.1837 -0.2442,-0.5195 -0.1122,-0.3359 -0.2101,-0.7966 -0.2558,-1.3145 -0.091,-1.0293 0.03,-2.2867 0.5136,-3.3984 0.07,0.088 0.1162,0.1377 0.2012,0.2519 0.7461,1.0027 2.0158,2.8495 4.3496,4.3457 4.835,3.1001 11.5942,1.2216 12.5527,0.9629 a 0.87184,0.87184 0 0 0 0.6153,-1.0683 0.87184,0.87184 0 0 0 -1.0703,-0.6153 c -0.8689,0.2345 -7.2607,1.7497 -11.1563,-0.748 -2.0315,-1.3025 -3.105,-2.8597 -3.8926,-3.918 -0.1968,-0.2646 -0.3742,-0.5005 -0.5761,-0.7129 -0.2019,-0.2123 -0.4287,-0.4414 -0.8555,-0.5371 z"
                id="path42640"
                stroke-width="0.5"
                stroke-linecap="round"
                stroke-linejoin="round"
                stroke="black" />
            <path
                d="m 1814.5684,3391.7227 c -0.4553,0.1344 -0.8467,0.3863 -1.2793,0.7226 -0.8653,0.6726 -1.8183,1.6639 -2.086,2.9668 -0.3725,1.8129 -0.7584,5.5959 -0.8535,6.5 -0.4132,0.014 -0.8047,0.034 -1.7871,0.033 -1.3829,0 -3.0423,-0.068 -3.9102,-0.2422 -0.07,-0.014 -0.5246,-0.3297 -1.0293,-1.0039 -0.5046,-0.6742 -1.0876,-1.6132 -1.7695,-2.5976 -1.3637,-1.9689 -3.1522,-4.1993 -5.8887,-4.8457 a 0.87184,0.87184 0 0 0 -1.0488,0.6484 0.87184,0.87184 0 0 0 0.6485,1.0488 c 2.0058,0.4739 3.5561,2.2647 4.8554,4.1407 0.6497,0.9379 1.229,1.876 1.8086,2.6503 0.5796,0.7744 1.1316,1.4792 2.0801,1.67 1.1698,0.2351 2.8268,0.2739 4.2519,0.2754 1.4252,0 2.5918,-0.049 2.5918,-0.049 a 0.87192718,0.87192718 0 0 0 0.8301,-0.7812 c 0,0 0.5773,-5.3824 0.9297,-7.0977 0.1119,-0.5447 0.7706,-1.3569 1.3887,-1.8633 0.01,0.3871 0.019,0.8012 0.041,1.3282 0.054,1.2957 0.1471,2.9613 0.2617,4.6972 0.2292,3.4719 0.5342,7.1739 0.8223,8.8555 0.6041,3.5268 3.84,9.0494 8.3887,14.6836 2.2571,2.7957 4.3963,5.3011 6.0761,7.375 1.6798,2.0739 2.9044,3.7725 3.2832,4.6816 a 0.87184,0.87184 0 0 0 1.1407,0.4688 0.87184,0.87184 0 0 0 0.4687,-1.1406 c -0.5638,-1.3533 -1.8342,-3.005 -3.5371,-5.1075 -1.703,-2.1025 -3.8355,-4.6001 -6.0742,-7.373 -4.443,-5.5032 -7.5583,-11.1448 -8.0274,-13.8828 -0.2485,-1.4507 -0.5731,-5.2268 -0.8007,-8.6758 -0.1139,-1.7245 -0.2063,-3.3791 -0.2598,-4.6543 -0.027,-0.6376 -0.043,-1.1811 -0.049,-1.584 -0.01,-0.4028 0.023,-0.7521 0.01,-0.6543 0.027,-0.155 0.04,-0.3483 -0.039,-0.5762 -0.08,-0.2278 -0.2852,-0.4605 -0.4981,-0.5683 -0.4257,-0.2157 -0.7079,-0.1161 -0.9355,-0.049 z"
                id="path42642"
                stroke-width="0.5"
                stroke-linecap="round"
                stroke-linejoin="round"
                stroke="black" />
            <path
                d="m 1789.2324,3394.7305 c -0.1,-0.01 -0.2368,-0.044 -0.5058,0.082 a 0.87184,0.87184 0 0 0 -0.42,1.1582 0.87184,0.87184 0 0 0 1.1602,0.4199 c -0.2473,0.116 -0.3494,0.08 -0.4043,0.074 -0.055,-0.01 -0.067,-0.01 -0.064,-0.01 0.01,0 0.07,0.023 0.1563,0.059 0.1719,0.072 0.4425,0.2025 0.7676,0.375 0.6501,0.3449 1.5257,0.8576 2.4414,1.4551 1.8314,1.1948 3.8481,2.8028 4.5703,3.875 0.8827,1.3105 1.3273,2.036 1.5391,2.4101 0.1059,0.187 0.1531,0.2871 0.166,0.3164 0.01,0.015 0,0.011 0,-0.014 -0.01,-0.025 -0.031,-0.1562 -0.031,-0.1562 a 0.87184,0.87184 0 0 0 0.957,0.7754 0.87184,0.87184 0 0 0 0.7754,-0.959 c 0,0 -0.024,-0.1414 -0.041,-0.1934 -0.017,-0.052 -0.036,-0.1007 -0.061,-0.1562 -0.049,-0.1111 -0.1194,-0.2523 -0.2442,-0.4727 -0.2495,-0.4407 -0.7137,-1.1929 -1.6113,-2.5254 -1.0579,-1.5706 -3.1459,-3.1088 -5.0625,-4.3593 -0.9583,-0.6253 -1.8687,-1.1588 -2.5781,-1.5352 -0.3547,-0.1882 -0.6548,-0.3368 -0.9082,-0.4433 -0.1267,-0.053 -0.239,-0.097 -0.3672,-0.1329 -0.064,-0.018 -0.1308,-0.033 -0.2305,-0.043 z"
                id="path42644"
                stroke-width="0.5"
                stroke-linecap="round"
                stroke-linejoin="round"
                stroke="black" />
            <path
                d="m 1783.877,3399.0859 a 0.87184,0.87184 0 0 0 -0.9825,0.7442 0.87184,0.87184 0 0 0 0.7442,0.9844 c 0.1472,0.02 0.1769,0.017 0.3379,0.033 0.161,0.016 0.3813,0.04 0.6504,0.078 0.5381,0.076 1.2709,0.2051 2.0918,0.4219 1.6416,0.4335 3.6281,1.2265 5.1542,2.5976 3.3463,3.0062 4.4024,4.1094 4.4024,4.1094 a 0.87184,0.87184 0 0 0 1.2324,0.025 0.87184,0.87184 0 0 0 0.027,-1.2324 c 0,0 -1.1274,-1.1728 -4.4961,-4.1993 -1.8312,-1.6451 -4.0688,-2.5093 -5.875,-2.9863 -0.9032,-0.2385 -1.7018,-0.3795 -2.293,-0.4629 -0.2956,-0.042 -0.5389,-0.068 -0.7168,-0.086 -0.1779,-0.018 -0.3629,-0.039 -0.2773,-0.027 z"
                id="path42646"
                stroke-width="0.5"
                stroke-linecap="round"
                stroke-linejoin="round"
                stroke="black" />
            <path
                d="m 1783.7441,3405.9453 a 0.87184,0.87184 0 0 0 -1.1152,0.5274 0.87184,0.87184 0 0 0 0.5274,1.1132 c 0.2292,0.082 0.2438,0.068 0.4199,0.1094 0.176,0.042 0.409,0.097 0.6914,0.1699 0.5648,0.146 1.3216,0.3594 2.1523,0.6524 1.6614,0.5859 3.6177,1.5063 4.9239,2.7539 1.4728,1.4069 2.2052,2.024 2.6464,2.3359 0.2206,0.156 0.3214,0.2551 0.6485,0.3203 0.1066,0.021 0.3181,-0.068 0.5078,-0.1289 l -0.08,0.1055 c 0,0 4.002,-0.9981 8.5059,-0.123 2.3088,0.4486 3.3441,0.8868 3.6816,1.0976 0.1177,0.073 0.078,0.041 0.062,0.019 0.023,0.1409 2.061,12.5917 11.8809,30.043 v 0 c 1.0521,1.8699 3.0029,3.9366 4.709,5.6016 1.7061,1.665 3.1719,2.9023 3.1719,2.9023 a 0.87184,0.87184 0 0 0 1.2285,-0.1055 0.87184,0.87184 0 0 0 -0.1035,-1.2285 c 0,0 -1.4205,-1.1987 -3.0782,-2.8164 -1.6576,-1.6177 -3.5474,-3.6808 -4.4062,-5.207 -9.7516,-17.3301 -11.7051,-29.5606 -11.7051,-29.5606 v 0.01 c -0.013,-0.1315 -0.041,-0.2691 -0.1035,-0.3965 -0.1452,-0.2961 -0.3862,-0.5233 -0.7305,-0.7383 -0.6885,-0.43 -1.8598,-0.8615 -4.2714,-1.3301 -4.641,-0.9017 -8.4578,-0.022 -8.9336,0.092 -0.2887,-0.2057 -0.9941,-0.7828 -2.4258,-2.1504 -1.6126,-1.5403 -3.7612,-2.5089 -5.5469,-3.1387 -0.8928,-0.3148 -1.6965,-0.5406 -2.2949,-0.6953 -0.2993,-0.077 -0.5476,-0.1372 -0.7266,-0.1797 -0.1789,-0.042 -0.3929,-0.1093 -0.2344,-0.053 z m 10.8028,6.3906 a 0.87192718,0.87192718 0 0 0 -0.5664,0.75 c 0,0 0.026,-0.4418 0.2968,-0.6757 0.1042,-0.09 0.1666,-0.045 0.2696,-0.074 z m 12.789,2.0235 a 0.87192718,0.87192718 0 0 0 -0.037,0.3594 c 0,-0.024 -0.013,-0.037 -0.014,-0.062 0,-0.1008 0.051,-0.2969 0.051,-0.2969 z"
                id="path42648"
                stroke-width="0.5"
                stroke-linecap="round"
                stroke-linejoin="round"
                stroke="black" />
            <path
                d="m 1804.7461,3406.1895 c -2.566,-0.2296 -5.2442,0.5587 -7.9063,2.664 a 0.87184,0.87184 0 0 0 -0.1445,1.2246 0.87184,0.87184 0 0 0 1.2246,0.1426 c 2.3909,-1.8908 4.5487,-2.4847 6.6699,-2.2949 2.1213,0.1898 4.2551,1.213 6.4102,2.7656 a 0.87184,0.87184 0 0 0 1.2168,-0.1973 0.87184,0.87184 0 0 0 -0.1973,-1.2187 c -2.3012,-1.6579 -4.7074,-2.8564 -7.2734,-3.0859 z"
                id="path42650"
                stroke-width="0.5"
                stroke-linecap="round"
                stroke-linejoin="round"
                stroke="black" />
            <path
                d="m 1849.3301,3395.68 c -0.7396,1.6966 -2.5524,1.7257 -1.1167,7.7873 1.4358,6.0616 3.1326,8.991 5.9171,9.9481 7.3732,0.1716 14.2779,-9.3639 13.3423,-15.9517 -0.4785,-2.5524 -1.3052,-5.1917 -1.3052,-5.1917 l 1.8563,-1.5226 c 10.4213,10.9318 3.317,31.8405 -14.9811,31.1205 -11.5855,-2.7087 -12.1681,-14.7627 -8.9481,-21.3899 2.0159,-3.8285 5.2354,-4.8 5.2354,-4.8 z"
                id="path42652"
                stroke="none"
                stroke-width="0.87184"
                stroke-linecap="round"
                stroke-linejoin="round" />
            <path
                d="m 1857.002,3395.5762 a 0.87184,0.87184 0 0 0 -0.6133,0.2676 0.87184,0.87184 0 0 0 0.022,1.2324 c 0,0 0.5679,0.5462 0.8593,1.5586 0.2914,1.0124 0.3286,2.4224 -1.0605,4.334 -1.5113,2.0795 -2.4889,3.2779 -3.0762,3.9433 -0.5873,0.6655 -0.707,0.7402 -0.707,0.7402 a 0.87184,0.87184 0 0 0 -0.1875,1.2188 0.87184,0.87184 0 0 0 1.2187,0.1855 c 0,0 0.3443,-0.2671 0.9825,-0.9902 0.6381,-0.7231 1.6473,-1.9609 3.1816,-4.0723 1.6564,-2.2793 1.7434,-4.3852 1.3242,-5.8418 -0.4192,-1.4565 -1.3242,-2.332 -1.3242,-2.332 a 0.87184,0.87184 0 0 0 -0.6191,-0.2441 z"
                id="path42654"
                stroke-width="0.5"
                stroke-linecap="round"
                stroke-linejoin="round"
                stroke="black" />
            <path
                d="m 1816.0527,3359.2988 a 0.87184,0.87184 0 0 0 -0.6015,0.2891 0.87184,0.87184 0 0 0 0.07,1.2305 l 7.5058,6.707 a 0.87184,0.87184 0 0 0 1.2305,-0.07 0.87184,0.87184 0 0 0 -0.068,-1.2305 l -7.5059,-6.707 a 0.87184,0.87184 0 0 0 -0.6309,-0.2188 z"
                id="path42656"
                stroke-width="0.5"
                stroke-linecap="round"
                stroke-linejoin="round"
                stroke="black" />
            <path
                d="m 1822.6758,3377.2051 -8.4512,2.8301 a 0.87184,0.87184 0 0 0 -0.5488,1.1035 0.87184,0.87184 0 0 0 1.1035,0.5488 l 8.4492,-2.8301 a 0.87184,0.87184 0 0 0 0.5508,-1.1035 0.87184,0.87184 0 0 0 -1.1035,-0.5488 z"
                id="path42658"
                stroke-width="0.5"
                stroke-linecap="round"
                stroke-linejoin="round"
                stroke="black" />
            <path
                d="m 1826.4492,3387.0762 a 0.87184,0.87184 0 0 0 -0.4922,0.4511 l -3.6113,7.7305 a 0.87184,0.87184 0 0 0 0.4219,1.1602 0.87184,0.87184 0 0 0 1.1582,-0.4219 l 3.6113,-7.7305 a 0.87184,0.87184 0 0 0 -0.4219,-1.1601 0.87184,0.87184 0 0 0 -0.666,-0.029 z"
                id="path42660"
                stroke-width="0.5"
                stroke-linecap="round"
                stroke-linejoin="round"
                stroke="black" />
            <path
                d="m 1690.3848,3365.9258 -9.2168,3.084 a 0.83613503,0.83613503 0 0 0 -0.5274,1.0586 0.83613503,0.83613503 0 0 0 1.0586,0.5273 l 9.2168,-3.0859 a 0.83613503,0.83613503 0 0 0 0.5274,-1.0567 0.83613503,0.83613503 0 0 0 -1.0586,-0.5273 z"
                id="path42662"
                stroke-width="0.5"
                stroke-linecap="round"
                stroke-linejoin="round"
                stroke="black" />
            <path
                d="m 1682.2813,3380.8008 a 0.83613503,0.83613503 0 0 0 -0.9747,0.668 0.83613503,0.83613503 0 0 0 0.6661,0.9765 l 9.7578,1.832 a 0.83613503,0.83613503 0 0 0 0.9765,-0.6679 0.83613503,0.83613503 0 0 0 -0.6679,-0.9766 z"
                id="path42664"
                stroke-width="0.5"
                stroke-linecap="round"
                stroke-linejoin="round"
                stroke="black" />
            <path
                d="m 1683.3223,3393.5039 a 0.83613503,0.83613503 0 0 0 -0.1328,1.1758 l 5.9589,7.4609 a 0.83613503,0.83613503 0 0 0 1.1758,0.1328 0.83613503,0.83613503 0 0 0 0.1309,-1.1757 l -5.9571,-7.4629 a 0.83613503,0.83613503 0 0 0 -1.1757,-0.1309 z"
                id="path42666"
                stroke-width="0.5"
                stroke-linecap="round"
                stroke-linejoin="round"
                stroke="black" />
            <g id="g42702"
                transform="matrix(-0.97058166,0.00259344,0.00259344,0.97058166,1121.5689,92.748405)"
                style="stroke-width:0.5">
                <path
                    d="m -652.89258,3272.7285 a 1.0583349,1.0583349 0 0 0 -1.05859,1.0586 v 72.3848 a 1.0583349,1.0583349 0 0 0 1.05859,1.0586 1.0583349,1.0583349 0 0 0 1.0586,-1.0586 v -72.3848 a 1.0583349,1.0583349 0 0 0 -1.0586,-1.0586 z"
                    id="path42668"
                    stroke-width="0.5"
                    stroke-linecap="round"
                    stroke-linejoin="round"
                    stroke="black" />
                <path
                    d="m -647.35742,3272.3418 a 1.0583349,1.0583349 0 0 0 -1.05664,1.0586 v 72.5898 a 1.0583349,1.0583349 0 0 0 1.05664,1.0586 1.0583349,1.0583349 0 0 0 1.05859,-1.0586 v -72.5898 a 1.0583349,1.0583349 0 0 0 -1.05859,-1.0586 z"
                    id="path42670"
                    stroke-width="0.5"
                    stroke-linecap="round"
                    stroke-linejoin="round"
                    stroke="black" />
                <g id="rect42672"
                    style="stroke-width:0.5">
                    <path
                        d="m -657.05107,3365.6406 h 13.78181 c 2.58153,0 4.6598,2.0783 4.6598,4.6598 v 2.7884 c 0,2.5815 -2.07827,4.6598 -4.6598,4.6598 h -13.78181 c -2.58153,0 -4.65981,-2.0783 -4.65981,-4.6598 v -2.7884 c 0,-2.5815 2.07828,-4.6598 4.65981,-4.6598 z"
                        id="path76597"
                        stroke-width="1.01034"
                        stroke="black" />
                    <path
                        d="m -657.05078,3364.6309 c -3.12379,0 -5.66992,2.5461 -5.66992,5.6699 v 2.7871 c 0,3.1238 2.54613,5.6719 5.66992,5.6719 h 13.78125 c 3.12379,0 5.66992,-2.5482 5.66992,-5.6719 v -2.7871 c 0,-3.1238 -2.54613,-5.6699 -5.66992,-5.6699 z m 0,2.0195 h 13.78125 c 2.03926,0 3.65039,1.6111 3.65039,3.6504 v 2.7871 c 0,2.0392 -1.61113,3.6504 -3.65039,3.6504 h -13.78125 c -2.03927,0 -3.65039,-1.6112 -3.65039,-3.6504 v -2.7871 c 0,-2.0393 1.61112,-3.6504 3.65039,-3.6504 z"
                        id="path76599"
                        stroke-width="0.5"
                        stroke="black" />
                </g>
                <path
                    d="m 3378.4199,643.40625 c -3.1238,0 -5.6699,2.54612 -5.6699,5.66992 v 2.78906 c 0,3.12379 2.5461,5.66993 5.6699,5.66993 h 13.7832 c 3.1238,0 5.6699,-2.54614 5.6699,-5.66993 v -2.78906 c 0,-3.1238 -2.5461,-5.66992 -5.6699,-5.66992 z m 0,2.02148 h 13.7832 c 2.0393,0 3.6485,1.60916 3.6485,3.64844 v 2.78906 c 0,2.03927 -1.6092,3.64844 -3.6485,3.64844 h -13.7832 c -2.0393,0 -3.6484,-1.60917 -3.6484,-3.64844 v -2.78906 c 0,-2.03928 1.6091,-3.64844 3.6484,-3.64844 z"
                    id="rect42674"
                    transform="rotate(90)"
                    stroke-width="0.5"
                    stroke="black" />
                <path id="circle42676"
                    d="m -649.52371,3381.6182 a 0.99618393,0.99618393 0 0 1 -0.99619,0.9961 0.99618393,0.99618393 0 0 1 -0.99618,-0.9961 0.99618393,0.99618393 0 0 1 0.99618,-0.9962 0.99618393,0.99618393 0 0 1 0.99619,0.9962 z"
                    stroke-width="0.091724"
                    stroke="black" />
                <path id="circle42678"
                    d="m -649.52371,3385.0146 a 0.99618393,0.99618393 0 0 1 -0.99619,0.9962 0.99618393,0.99618393 0 0 1 -0.99618,-0.9962 0.99618393,0.99618393 0 0 1 0.99618,-0.9961 0.99618393,0.99618393 0 0 1 0.99619,0.9961 z"
                    stroke-width="0.091724"
                    stroke="black" />
                <path id="circle42680"
                    d="m -649.52371,3388.4192 a 0.99618393,0.99618393 0 0 1 -0.99619,0.9962 0.99618393,0.99618393 0 0 1 -0.99618,-0.9962 0.99618393,0.99618393 0 0 1 0.99618,-0.9962 0.99618393,0.99618393 0 0 1 0.99619,0.9962 z"
                    stroke-width="0.091724"
                    stroke="black" />
                <path id="circle42682"
                    d="m -649.52371,3391.7212 a 0.99618393,0.99618393 0 0 1 -0.99619,0.9962 0.99618393,0.99618393 0 0 1 -0.99618,-0.9962 0.99618393,0.99618393 0 0 1 0.99618,-0.9962 0.99618393,0.99618393 0 0 1 0.99619,0.9962 z"
                    stroke-width="0.091724"
                    stroke="black" />
                <path id="circle42684"
                    d="m -652.62204,3391.7212 a 0.99618393,0.99618393 0 0 1 -0.99619,0.9962 0.99618393,0.99618393 0 0 1 -0.99618,-0.9962 0.99618393,0.99618393 0 0 1 0.99618,-0.9962 0.99618393,0.99618393 0 0 1 0.99619,0.9962 z"
                    stroke-width="0.091724"
                    stroke="black" />
                <path id="circle42686"
                    d="m -652.62204,3388.4504 a 0.99618393,0.99618393 0 0 1 -0.99619,0.9962 0.99618393,0.99618393 0 0 1 -0.99618,-0.9962 0.99618393,0.99618393 0 0 1 0.99618,-0.9961 0.99618393,0.99618393 0 0 1 0.99619,0.9961 z"
                    stroke-width="0.091724"
                    stroke="black" />
                <path id="circle42688"
                    d="m -652.62204,3384.6382 a 0.99618393,0.99618393 0 0 1 -0.99619,0.9962 0.99618393,0.99618393 0 0 1 -0.99618,-0.9962 0.99618393,0.99618393 0 0 1 0.99618,-0.9962 0.99618393,0.99618393 0 0 1 0.99619,0.9962 z"
                    stroke-width="0.091724"
                    stroke="black" />
                <path id="circle42690"
                    d="m -652.62204,3381.689 a 0.99618393,0.99618393 0 0 1 -0.99619,0.9961 0.99618393,0.99618393 0 0 1 -0.99618,-0.9961 0.99618393,0.99618393 0 0 1 0.99618,-0.9962 0.99618393,0.99618393 0 0 1 0.99619,0.9962 z"
                    stroke-width="0.091724"
                    stroke="black" />
                <path id="circle42692"
                    d="m -646.51169,3391.7212 a 0.99618393,0.99618393 0 0 1 -0.99618,0.9962 0.99618393,0.99618393 0 0 1 -0.99619,-0.9962 0.99618393,0.99618393 0 0 1 0.99619,-0.9962 0.99618393,0.99618393 0 0 1 0.99618,0.9962 z"
                    stroke-width="0.091724"
                    stroke="black" />
                <path id="circle42694"
                    d="m -646.51169,3388.4504 a 0.99618393,0.99618393 0 0 1 -0.99618,0.9962 0.99618393,0.99618393 0 0 1 -0.99619,-0.9962 0.99618393,0.99618393 0 0 1 0.99619,-0.9961 0.99618393,0.99618393 0 0 1 0.99618,0.9961 z"
                    stroke-width="0.091724"
                    stroke="black" />
                <path id="circle42696"
                    d="m -646.51169,3384.6382 a 0.99618393,0.99618393 0 0 1 -0.99618,0.9962 0.99618393,0.99618393 0 0 1 -0.99619,-0.9962 0.99618393,0.99618393 0 0 1 0.99619,-0.9962 0.99618393,0.99618393 0 0 1 0.99618,0.9962 z"
                    stroke-width="0.091724"
                    stroke="black" />
                <path id="circle42698"
                    d="m -646.51169,3381.689 a 0.99618393,0.99618393 0 0 1 -0.99618,0.9961 0.99618393,0.99618393 0 0 1 -0.99619,-0.9961 0.99618393,0.99618393 0 0 1 0.99619,-0.9962 0.99618393,0.99618393 0 0 1 0.99618,0.9962 z"
                    stroke-width="0.091724"
                    stroke="black" />
                <path
                    d="m -654.6875,3345.1016 c -2.39421,0 -4.35352,1.9612 -4.35352,4.3554 v 11.9688 c 0,2.3942 1.95935,4.3535 4.35352,4.3535 h 9.33789 c 2.39417,0 4.35352,-1.9593 4.35352,-4.3535 v -11.9688 c 0,-2.3942 -1.95931,-4.3554 -4.35352,-4.3554 z m 0,2.1172 h 9.33789 c 1.25818,0 2.23828,0.98 2.23828,2.2382 v 11.9688 c 0,1.2582 -0.98006,2.2363 -2.23828,2.2363 h -9.33789 c -1.25821,0 -2.23633,-0.9781 -2.23633,-2.2363 v -11.9688 c 0,-1.2582 0.97816,-2.2382 2.23633,-2.2382 z"
                    id="rect42700"
                    stroke-width="0.5"
                    stroke="black" />
            </g>
        </g>
    </g>
</svg>