<?xml version="1.0" encoding="UTF-8" standalone="no"?>
<!-- Created with Inkscape (http://www.inkscape.org/) -->

<svg width="100%" height="100%"
    viewBox="0 0 684.84621 660.22162"
    version="1.1" id="svg5"
    xml:space="preserve"
    xmlns="http://www.w3.org/2000/svg"
    xmlns:svg="http://www.w3.org/2000/svg">
    <defs id="defs2" />
    <g id="layer1"
        transform="translate(-1533.6033,-5176.2991)">
        <g id="notion-live-streaming-2"
            transform="matrix(2,0,0,2,-394.08685,-88.124184)"
            style="stroke-width:0.5">
            <title id="title94614">
                notion-live-streaming-2
            </title>
            <g id="g42420"
                transform="translate(4180.7379,2545.7675)"
                style="stroke-width:0.5">
                <g id="path42322"
                    style="stroke-width:0.5">
                    <path
                        d="m -3169.0496,240.36057 5.5381,-3.19741 v 22.26548 h 24.2681 V 234.4689 l 8.6614,2.32082 v 28.8208 h -39.0772 z"
                        id="path75953"
                        stroke-width="1.05833"
                        stroke-linecap="round"
                        stroke-linejoin="round"
                        stroke="black" />
                    <path
                        d="m -3138.9688,233.44727 a 1.0584408,1.0584408 0 0 0 -1.332,1.02148 v 23.90234 h -22.1523 v -21.20703 a 1.0584408,1.0584408 0 0 0 -1.5879,-0.91797 l -5.5371,3.19727 a 1.0584408,1.0584408 0 0 0 -0.5293,0.89258 l -0.6094,25.25 a 1.0584408,1.0584408 0 0 0 1.0566,1.08203 h 39.0782 a 1.0584408,1.0584408 0 0 0 1.0586,-1.05664 v -28.82227 a 1.0584408,1.0584408 0 0 0 -0.7852,-1.02148 z m 0.7833,2.40039 6.5449,1.7539 v 26.95117 h -36.9356 l 0.5703,-23.57226 3.4356,-1.98438 v 20.43164 a 1.0584408,1.0584408 0 0 0 1.0586,1.0586 h 24.2676 a 1.0584408,1.0584408 0 0 0 1.0586,-1.0586 z"
                        id="path75955"
                        stroke-width="0.5"
                        stroke-linecap="round"
                        stroke-linejoin="round"
                        stroke="black" />
                </g>
                <path
                    d="m -3153.9277,263.71094 a 1.0583349,1.0583349 0 0 0 -1.0586,1.05859 l -0.029,98.99414 -21.8477,46.7793 a 1.0583349,1.0583349 0 0 0 0.5117,1.40625 1.0583349,1.0583349 0 0 0 1.4063,-0.50977 l 21.9473,-46.99414 a 1.0584408,1.0584408 0 0 0 0.098,-0.44726 l 0.029,-99.22852 a 1.0583349,1.0583349 0 0 0 -1.0566,-1.05859 z"
                    id="path42324"
                    stroke-width="0.5"
                    stroke-linecap="round"
                    stroke-linejoin="round"
                    stroke="black" />
                <path
                    d="m -3146.3359,265.38281 a 1.0583349,1.0583349 0 0 0 -1.2129,0.87696 c -0.039,0.24095 -0.031,0.32533 -0.039,0.56835 -0.01,0.24303 -0.015,0.56418 -0.021,0.96485 -0.014,0.80134 -0.024,1.91597 -0.033,3.30273 -0.018,2.77353 -0.029,6.63258 -0.033,11.21289 -0.01,9.16063 0.01,21.2044 0.033,33.19141 0.051,23.97401 0.1387,47.72266 0.1387,47.72266 a 1.0584408,1.0584408 0 0 0 0.1309,0.50781 l 25.4238,46.05859 a 1.0583349,1.0583349 0 0 0 1.4375,0.41602 1.0583349,1.0583349 0 0 0 0.416,-1.4375 l -25.293,-45.82422 c 0,-0.26791 -0.086,-23.6118 -0.1367,-47.44727 -0.025,-11.98592 -0.041,-24.02908 -0.033,-33.18554 0,-4.57823 0.013,-8.4354 0.031,-11.20118 0.01,-1.38288 0.02,-2.49341 0.033,-3.28125 0.01,-0.39391 0.014,-0.7077 0.021,-0.92968 0.01,-0.22199 0.034,-0.43123 0.014,-0.30274 a 1.0583349,1.0583349 0 0 0 -0.8769,-1.21289 z"
                    id="path42326"
                    stroke-width="0.5"
                    stroke-linecap="round"
                    stroke-linejoin="round"
                    stroke="black" />
                <path
                    d="m -3149.2617,368.86523 a 1.0584408,1.0584408 0 0 0 -0.9434,0.64063 l -18.8066,43.79492 a 1.0583349,1.0583349 0 0 0 0.5547,1.39063 1.0583349,1.0583349 0 0 0 1.3906,-0.55469 l 17.9023,-41.68945 20.6914,41.77148 a 1.0583349,1.0583349 0 0 0 1.418,0.47852 1.0583349,1.0583349 0 0 0 0.4785,-1.41993 l -21.707,-43.82422 a 1.0584408,1.0584408 0 0 0 -0.9785,-0.58789 z"
                    id="path42328"
                    stroke-width="0.5"
                    stroke-linecap="round"
                    stroke-linejoin="round"
                    stroke="black" />
                <path
                    d="m -3149.9297,362.42187 c -1.3883,0 -2.6608,0.40035 -3.6328,1.10743 -0.972,0.70707 -1.6621,1.77562 -1.6621,2.99804 0,1.22243 0.6901,2.29098 1.6621,2.99805 0.972,0.70707 2.2445,1.10742 3.6328,1.10742 1.3884,0 2.6628,-0.40035 3.6348,-1.10742 0.972,-0.70707 1.6621,-1.77562 1.6621,-2.99805 0,-1.22242 -0.6901,-2.29097 -1.6621,-2.99804 -0.972,-0.70708 -2.2464,-1.10743 -3.6348,-1.10743 z m 0,1.85938 c 1.0228,0 1.933,0.30963 2.541,0.75195 0.6081,0.44233 0.8946,0.96265 0.8946,1.49414 0,0.5315 -0.2865,1.05182 -0.8946,1.49414 -0.608,0.44233 -1.5182,0.75196 -2.541,0.75196 -1.0227,0 -1.931,-0.30963 -2.5391,-0.75196 -0.608,-0.44232 -0.8964,-0.96264 -0.8964,-1.49414 0,-0.53149 0.2884,-1.05181 0.8964,-1.49414 0.6081,-0.44232 1.5164,-0.75195 2.5391,-0.75195 z"
                    id="ellipse42330"
                    stroke-width="0.5"
                    stroke="black" />
                <path
                    d="m -2991.7891,259.94922 a 1.0583349,1.0583349 0 0 0 -1.3593,0.62695 c -14.6022,39.55916 -28.7845,93.46488 -29.3926,140.05469 a 1.0583349,1.0583349 0 0 0 1.0449,1.07226 1.0583349,1.0583349 0 0 0 1.0723,-1.04492 c 0.6027,-46.1808 14.7219,-99.95937 29.2617,-139.34961 a 1.0583349,1.0583349 0 0 0 -0.627,-1.35937 z"
                    id="path42332"
                    stroke-width="0.5"
                    stroke-linecap="round"
                    stroke-linejoin="round"
                    stroke="black" />
                <path
                    d="m -2915.6895,263.06055 a 1.0583349,1.0583349 0 0 0 -0.6601,1.34375 c -0.064,-0.18857 -0.039,-0.1619 -0.039,-0.16016 2e-4,0.002 0,0.0273 0.01,0.0625 0.01,0.0705 0.014,0.18822 0.021,0.33984 0.015,0.30326 0.032,0.74825 0.051,1.32032 0.038,1.14413 0.083,2.79571 0.1328,4.8789 0.099,4.16638 0.2198,10.05982 0.3535,17.09961 0.2673,14.07959 0.5851,32.74754 0.8926,51.37891 0.6149,37.26273 1.1816,74.38281 1.1816,74.38281 a 1.0583349,1.0583349 0 0 0 1.0742,1.04102 1.0583349,1.0583349 0 0 0 1.043,-1.07422 c 0,0 -0.5667,-37.12027 -1.1817,-74.38477 -0.3074,-18.63225 -0.6271,-37.29974 -0.8945,-51.38281 -0.1337,-7.04153 -0.254,-12.93821 -0.3535,-17.11133 -0.05,-2.08656 -0.095,-3.74161 -0.1328,-4.89844 -0.019,-0.57841 -0.036,-1.03155 -0.053,-1.35742 -0.01,-0.16293 -0.015,-0.29342 -0.023,-0.40039 0,-0.0535 -0.01,-0.0985 -0.016,-0.15039 -0.01,-0.0519 0.012,-0.0611 -0.059,-0.26758 a 1.0583349,1.0583349 0 0 0 -1.3438,-0.66015 z"
                    id="path42334"
                    stroke-width="0.5"
                    stroke-linecap="round"
                    stroke-linejoin="round"
                    stroke="black" />
                <path
                    d="m -2931.4023,225.9707 a 1.0583349,1.0583349 0 0 0 -1.1758,0.92774 1.0583349,1.0583349 0 0 0 0.9277,1.17383 c 17.3394,2.05173 30.3301,11.11996 39.4649,27.11718 9.0691,15.88233 14.2145,38.67361 15.5507,67.94532 -9.8353,7.01574 -21.3787,11.33944 -36.5918,10.46875 a 1.0583349,1.0583349 0 0 0 -1.1172,0.99609 1.0583349,1.0583349 0 0 0 0.9961,1.11719 c 15.9208,0.91119 28.1981,-3.7336 38.4414,-11.16993 a 1.0584408,1.0584408 0 0 0 0.4356,-0.90234 c -1.2988,-29.77607 -6.4812,-53.05155 -15.877,-69.50586 -9.3957,-16.4543 -23.1083,-26.04441 -41.0546,-28.16797 z"
                    id="path42336"
                    stroke-width="0.5"
                    stroke-linecap="round"
                    stroke-linejoin="round"
                    stroke="black" />
                <path
                    d="m -2886.3828,329.75781 a 1.0583349,1.0583349 0 0 0 -1.3027,0.74024 c -8.0583,29.21493 -9.9514,57.12599 -11.7325,84.93164 a 1.0583349,1.0583349 0 0 0 0.9883,1.12304 1.0583349,1.0583349 0 0 0 1.125,-0.98828 c 1.7807,-27.80013 3.6712,-55.5403 11.6602,-84.5039 a 1.0583349,1.0583349 0 0 0 -0.7383,-1.30274 z"
                    id="path42338"
                    stroke-width="0.5"
                    stroke-linecap="round"
                    stroke-linejoin="round"
                    stroke="black" />
                <path
                    d="m -2935.8867,225.58008 a 1.0584408,1.0584408 0 0 0 -1.0449,0.98633 c -1.4748,22.22961 -18.0389,35.87782 -29.045,55.21289 a 1.0584408,1.0584408 0 0 0 -0.045,0.0859 c -1.4422,3.17445 -2.0653,9.21929 -2.5156,14.83789 -0.2252,2.80931 -0.3841,5.48214 -0.5098,7.5293 -0.063,1.02358 -0.1175,1.89227 -0.1679,2.53516 -0.05,0.64289 -0.1471,1.18439 -0.1094,1.05469 a 1.0583349,1.0583349 0 0 0 0.7207,1.3125 1.0583349,1.0583349 0 0 0 1.3125,-0.72071 c 0.1356,-0.4671 0.1329,-0.81122 0.1855,-1.48242 0.053,-0.6712 0.1089,-1.5446 0.1719,-2.57031 0.126,-2.05142 0.283,-4.70704 0.5059,-7.48828 0.4449,-5.55224 1.2483,-11.7183 2.3281,-14.11133 9.4324,-16.53816 23.6324,-29.34377 28.0351,-47.86133 0.9727,8.58866 1.9165,16.22698 1.0469,22.49414 -1.0817,7.79607 -5.0034,14.29291 -15.0703,20.88672 0,-0.44559 0.106,-0.44233 0.021,-0.96875 -0.2866,-1.78623 -1.33,-4.01077 -3.918,-5.13672 a 1.0583349,1.0583349 0 0 0 -1.3926,0.54688 1.0583349,1.0583349 0 0 0 0.5489,1.39257 c 1.8814,0.81858 2.4559,2.19947 2.6699,3.53321 0.214,1.33374 -0.043,2.46875 -0.043,2.46875 a 1.0584408,1.0584408 0 0 0 1.5821,1.14453 c 11.8191,-7.21022 16.4762,-14.77569 17.6972,-23.57617 1.2211,-8.80048 -0.8161,-18.70718 -1.8984,-31.14063 a 1.0584408,1.0584408 0 0 0 -1.0664,-0.96484 z"
                    id="path42340"
                    stroke-width="0.5"
                    stroke-linecap="round"
                    stroke-linejoin="round"
                    stroke="black" />
                <path
                    d="m -2980.25,240.97461 a 1.0583349,1.0583349 0 0 0 -1.0293,1.08594 c -0.011,-0.40182 -0.01,-0.0728 -0.1602,0.24804 -0.1542,0.32087 -0.3943,0.78054 -0.6816,1.34766 -0.5746,1.13425 -1.3347,2.70682 -2.0293,4.66797 -1.3891,3.9223 -2.5169,9.41725 -1.4551,16.16211 1.0399,6.60572 2.3111,10.91925 3.3399,13.60547 1.0288,2.68622 1.8847,3.83789 1.8847,3.83789 a 1.0584408,1.0584408 0 0 0 1.8418,-0.29688 c 0,0 0.7834,-2.26383 1.9961,-4.60351 0.6064,-1.16984 1.3215,-2.351 2.0567,-3.24219 0.7351,-0.8912 1.4895,-1.43871 2.0078,-1.55274 1.5378,-0.33831 2.0438,0.0596 2.3906,0.44727 0.3468,0.38771 0.4297,0.83203 0.4297,0.83203 a 1.0583349,1.0583349 0 0 0 1.2109,0.88086 1.0583349,1.0583349 0 0 0 0.8789,-1.21094 c 0,0 -0.1491,-1.02839 -0.9414,-1.91406 -0.7923,-0.88567 -2.3318,-1.56136 -4.4218,-1.10156 -1.2957,0.28505 -2.301,1.19683 -3.1875,2.27148 -0.8865,1.07466 -1.6539,2.36543 -2.3028,3.61719 -0.7208,1.39055 -0.8103,1.78481 -1.1777,2.71289 -0.2673,-0.51842 -0.2704,-0.34132 -0.6895,-1.43555 -0.9664,-2.52338 -2.2059,-6.69218 -3.2265,-13.17578 -0.9988,-6.34449 0.057,-11.44887 1.3593,-15.12695 0.6514,-1.83904 1.3657,-3.31609 1.9239,-4.41797 0.2791,-0.55094 0.5174,-1.00646 0.7011,-1.38867 0.1838,-0.38221 0.3852,-0.5468 0.3672,-1.2207 a 1.0583349,1.0583349 0 0 0 -1.0859,-1.0293 z"
                    id="path42342"
                    stroke-width="0.5"
                    stroke-linecap="round"
                    stroke-linejoin="round"
                    stroke="black" />
                <path
                    d="m -2974.1348,246.99609 a 1.0583349,1.0583349 0 0 0 -1.0644,1.05274 c -0.078,11.93781 0.5933,28.64066 7.5996,38.11133 a 1.0583349,1.0583349 0 0 0 1.4805,0.22265 1.0583349,1.0583349 0 0 0 0.2207,-1.48047 c -6.3159,-8.53737 -7.2632,-25.01117 -7.1856,-36.83984 a 1.0583349,1.0583349 0 0 0 -1.0508,-1.06641 z"
                    id="path42344"
                    stroke-width="0.5"
                    stroke-linecap="round"
                    stroke-linejoin="round"
                    stroke="black" />
                <path
                    d="m -2973.8867,237.1543 a 1.0583349,1.0583349 0 0 0 -0.1426,1.49023 c 7.1179,8.6158 4.8398,21.71485 4.8398,21.71484 a 1.0583349,1.0583349 0 0 0 0.8516,1.23243 1.0583349,1.0583349 0 0 0 1.2305,-0.85352 c 0,0 2.6266,-13.86183 -5.2891,-23.44336 a 1.0583349,1.0583349 0 0 0 -1.4902,-0.14062 z"
                    id="path42346"
                    stroke-width="0.5"
                    stroke-linecap="round"
                    stroke-linejoin="round"
                    stroke="black" />
                <path
                    d="m -2985.4922,237.2168 c -8.7549,-0.10234 -19.2333,7.85634 -27.7812,15.66797 -8.5479,7.81162 -15.0547,15.63671 -15.0547,15.63671 a 1.0583349,1.0583349 0 0 0 0.1367,1.49024 1.0583349,1.0583349 0 0 0 1.4902,-0.13672 c 0,0 6.4325,-7.73024 14.8555,-15.42773 8.423,-7.6975 18.9484,-15.20153 26.3301,-15.11524 a 1.0583349,1.0583349 0 0 0 1.0703,-1.04492 1.0583349,1.0583349 0 0 0 -1.0469,-1.07031 z"
                    id="path42348"
                    stroke-width="0.5"
                    stroke-linecap="round"
                    stroke-linejoin="round"
                    stroke="black" />
                <path
                    d="m -2974.7012,128.41602 a 1.0583349,1.0583349 0 0 0 -0.7695,0.25781 c 0,0 -7.8859,6.81887 -11.8926,16.36133 -9.8795,23.52982 -12.5481,43.4673 -10.5117,58.83007 2.0364,15.36278 8.8013,26.19403 17.8477,31.25 9.0463,5.05597 20.2903,4.18238 30.748,-3.42968 10.4577,-7.61207 20.2181,-21.88377 26.834,-43.74219 a 1.0583349,1.0583349 0 0 0 -0.707,-1.31836 1.0583349,1.0583349 0 0 0 -1.3184,0.70508 c -6.5224,21.54963 -16.1104,35.40617 -26.0547,42.64453 -9.9443,7.23836 -20.1559,7.93901 -28.4687,3.29297 -8.3129,-4.64604 -14.8099,-14.79322 -16.7832,-29.67969 -1.9734,-14.88647 0.5983,-34.47096 10.3652,-57.73242 3.7603,-8.95583 11.332,-15.58399 11.332,-15.58399 a 1.0583349,1.0583349 0 0 0 0.1035,-1.49414 1.0583349,1.0583349 0 0 0 -0.7246,-0.36132 z"
                    id="path42350"
                    stroke-width="0.5"
                    stroke-linecap="round"
                    stroke-linejoin="round"
                    stroke="black" />
                <path
                    d="m -2975.6023,123.40698 c 0,0 3.8227,7.58697 6.5338,10.80745 9.7917,11.63166 29.1849,22.67472 34.4386,29.90883 5.2536,7.23413 9.8301,17.98783 9.8301,17.98783 0,0 1.847,-0.32835 1.5494,-1.68283 -0.2976,-1.35448 -2.1651,-10.95891 3.2527,-15.33017 5.4179,-4.37126 8.9271,-6.208 10.8152,-2.8013 1.888,3.40669 4.0121,19.13707 -4.2994,22.02045 -8.3114,2.88337 -10.025,3.68377 -10.025,3.68377 l -3.4375,13.01115 c 0,0 23.7441,9.25557 34.7747,-9.99437 11.0306,-19.24995 16.8589,-36.50922 15.7918,-46.01107 1.2526,-75.493235 -82.6335,-64.219035 -115.7306,-41.86931 -6.5956,4.45384 -10.9178,-12.49808 -23.6723,-3.10912 -15.8469,14.90286 3.2086,43.64941 23.0668,60.68452 0,0 11.5745,-25.28351 14.345,-27.35625 2.7705,-2.07277 4.9561,-3.653 4.9561,-3.653 z"
                    id="path42352"
                    stroke-width="1.05833"
                    stroke-linecap="round"
                    stroke-linejoin="round"
                    stroke="black" />
                <path
                    d="m -2984.2344,150.48242 c -1.2562,0.0427 -2.5853,0.21665 -3.9804,0.5332 a 1.0583349,1.0583349 0 0 0 -0.7969,1.26563 1.0583349,1.0583349 0 0 0 1.2656,0.79883 c 5.1136,-1.16024 8.8285,-0.22807 11.4277,1.87695 2.5993,2.10502 4.1335,5.48974 4.5059,9.45508 0.7448,7.93069 -3.2608,17.97838 -12.0273,23.43164 a 1.0583349,1.0583349 0 0 0 -0.3399,1.45703 1.0583349,1.0583349 0 0 0 1.459,0.33984 c 9.5034,-5.91161 13.8409,-16.63751 13.0156,-25.42578 -0.4126,-4.39413 -2.1395,-8.35799 -5.2812,-10.90234 -2.3563,-1.90827 -5.4795,-2.95829 -9.2481,-2.83008 z"
                    id="path42354"
                    stroke-width="0.5"
                    stroke-linecap="round"
                    stroke-linejoin="round"
                    stroke="black" />
                <path
                    d="m -2956.1777,201.77344 a 1.0583349,1.0583349 0 0 0 -1.4903,0.15039 c -2.8383,3.47627 -5.9219,5.47838 -9.2871,6.24609 -3.3651,0.76771 -7.0687,0.30424 -11.1601,-1.38281 a 1.0583349,1.0583349 0 0 0 -1.3828,0.57422 1.0583349,1.0583349 0 0 0 0.5761,1.38281 c 4.3838,1.80756 8.5617,2.37445 12.4375,1.49023 3.8759,-0.88421 7.392,-3.21685 10.4571,-6.9707 a 1.0583349,1.0583349 0 0 0 -0.1504,-1.49023 z"
                    id="path42356"
                    stroke-width="0.5"
                    stroke-linecap="round"
                    stroke-linejoin="round"
                    stroke="black" />
                <path
                    d="m -2981.0845,162.80127 c -0.2052,1.7649 -2.7911,5.4179 -0.3284,6.73132 2.4627,1.31341 5.4179,-2.25745 5.1921,-4.55597 -0.2257,-2.29849 -4.8637,-2.17535 -4.8637,-2.17535 z"
                    id="path42358"
                    stroke-width="1.05833"
                    stroke-linecap="round"
                    stroke-linejoin="round"
                    stroke="black" />
                <path
                    d="m -2952.4682,168.35191 c -0.2052,1.7649 -2.7911,5.4179 -0.3284,6.73132 2.4627,1.31341 5.4179,-2.25745 5.1921,-4.55597 -0.2257,-2.29849 -4.8637,-2.17535 -4.8637,-2.17535 z"
                    id="path42360"
                    stroke-width="1.05833"
                    stroke-linecap="round"
                    stroke-linejoin="round"
                    stroke="black" />
                <path
                    d="m -3029.5801,152.23828 c -1.5407,-0.25388 -3.5107,0.1782 -5.0234,1.91992 -0.6054,0.69705 -0.8461,1.56083 -1.1621,2.76563 -0.3161,1.2048 -0.6097,2.71037 -0.8887,4.42383 -0.5581,3.4269 -1.0539,7.6798 -1.4687,11.83789 -0.6282,6.29634 -0.8318,9.72362 -1.0098,12.30468 l -3.1152,-6.57617 a 1.0584408,1.0584408 0 0 0 -1.1758,-0.58203 c 0,0 -0.3784,0.0929 -0.793,0.31445 -0.4146,0.22156 -0.9532,0.59046 -1.543,1.1875 -1.1794,1.1941 -2.5556,3.28889 -3.6504,6.94532 -1.1837,3.95343 0.248,7.97767 1.9512,11.12695 0.8516,1.57464 1.7854,2.94452 2.5488,3.99805 0.7635,1.05352 1.4183,1.91544 1.4571,1.98242 a 1.0583349,1.0583349 0 0 0 1.4453,0.38672 1.0583349,1.0583349 0 0 0 0.3867,-1.44532 c -0.3204,-0.55382 -0.8414,-1.1548 -1.5742,-2.16601 -0.7328,-1.01121 -1.6148,-2.30743 -2.4024,-3.76367 -1.5751,-2.91249 -2.7152,-6.40547 -1.7851,-9.51172 1.019,-3.40323 2.2407,-5.16527 3.1289,-6.06445 0.2521,-0.25529 0.3979,-0.32305 0.5879,-0.45899 l 4.3086,9.09375 a 1.0584408,1.0584408 0 0 0 2.0117,-0.38476 c 0,0 0.5051,-7.90738 1.3301,-16.17579 0.4124,-4.1342 0.9059,-8.36065 1.4511,-11.70898 0.2727,-1.67417 0.5583,-3.1309 0.8457,-4.22656 0.2875,-1.09566 0.6745,-1.86975 0.7129,-1.91407 1.0629,-1.22374 2.13,-1.3753 3.0801,-1.21875 0.4751,0.0783 0.9098,0.25872 1.211,0.44727 0.3012,0.18856 0.4416,0.44578 0.3867,0.30273 -0.081,-0.21056 -0.012,-0.0313 0.01,0.1504 0.02,0.18171 0.042,0.44652 0.062,0.77343 0.042,0.65383 0.081,1.55684 0.1172,2.625 0.071,2.13633 0.1262,4.93898 0.1621,7.82032 0.072,5.76266 0.052,11.94752 -0.068,13.55859 -0.1427,1.91014 0.104,3.12748 0.4805,3.92969 0.1882,0.4011 0.4102,0.69403 0.6152,0.89257 0.2051,0.19855 0.4903,0.34766 0.4903,0.34766 a 1.0584408,1.0584408 0 0 0 1.3359,-0.41211 c 0,0 3.8081,-6.19773 7.9121,-12.55859 2.052,-3.18043 4.1773,-6.40141 5.9297,-8.89649 0.8762,-1.24753 1.6606,-2.31452 2.2832,-3.09179 0.6226,-0.77727 1.2359,-1.30446 1.1387,-1.25 0.3902,-0.21848 0.6417,-0.22482 0.9336,-0.1543 0.2919,0.0705 0.6308,0.2674 0.955,0.5625 0.6131,0.55799 1.0855,1.45398 1.2032,1.73633 0,0.0469 0.01,0.0801 -0.01,0.15039 -0.053,0.22829 -0.1609,0.57587 -0.3106,0.98242 -0.2994,0.8131 -0.766,1.87815 -1.3066,2.99023 -1.0813,2.22418 -2.5104,4.68303 -3.4063,5.74219 -1.2875,1.52226 -2.7726,4.6836 -4.2637,8.14844 -1.491,3.46484 -2.8697,7.11466 -3.5253,9.29492 -1.3096,4.35462 -3.4512,15.04688 -3.4512,15.04688 a 1.0583349,1.0583349 0 0 0 0.8281,1.24609 1.0583349,1.0583349 0 0 0 1.2461,-0.82812 c 0,0 2.1897,-10.81646 3.4043,-14.85547 0.6064,-2.01656 1.9772,-5.66592 3.4414,-9.06836 1.4642,-3.40244 3.1401,-6.67677 3.9356,-7.61719 1.1871,-1.4035 2.5679,-3.86464 3.6953,-6.18359 0.5637,-1.15948 1.0515,-2.26996 1.3886,-3.18555 0.1686,-0.4578 0.2991,-0.86496 0.3848,-1.23242 0.086,-0.36746 0.224,-0.62646 0.02,-1.22071 -0.2549,-0.74117 -0.8428,-1.79275 -1.8515,-2.71093 -0.5044,-0.4591 -1.1236,-0.87125 -1.8828,-1.05469 -0.7593,-0.18344 -1.6526,-0.0884 -2.4629,0.36523 -0.6976,0.39051 -1.087,0.93404 -1.7578,1.77149 -0.6709,0.83745 -1.4704,1.93069 -2.3614,3.19922 -1.7819,2.53705 -3.9184,5.77182 -5.9785,8.96484 -3.5199,5.45553 -5.8929,9.32652 -6.7793,10.76367 -0.087,-0.47994 -0.2356,-0.69888 -0.164,-1.65625 0.1464,-1.95979 0.1461,-7.96044 0.074,-13.74414 -0.036,-2.89185 -0.092,-5.70243 -0.1641,-7.86328 -0.036,-1.08042 -0.077,-1.99742 -0.1211,-2.68945 -0.022,-0.34602 -0.044,-0.63478 -0.07,-0.8711 -0.026,-0.23631 -0.01,-0.33823 -0.1348,-0.67578 -0.2498,-0.65096 -0.6952,-0.99867 -1.2402,-1.33984 -0.545,-0.34117 -1.2179,-0.61525 -1.9883,-0.74219 z"
                    id="path42362"
                    stroke-width="0.5"
                    stroke-linecap="round"
                    stroke-linejoin="round"
                    stroke="black" />
                <path
                    d="m -3040.4902,193.70117 c -0.5578,0.0355 -1.0023,0.47201 -1.1758,0.80469 -0.347,0.66536 -0.3191,1.24384 -0.3047,1.91016 0.029,1.33264 0.2487,2.73372 0.5918,3.61132 0.2776,0.71023 0.8587,1.78993 1.75,2.89453 0.8912,1.10461 2.0867,2.22584 3.6445,2.75977 1.6435,0.56331 3.7295,0.40592 5.5215,0.20313 1.792,-0.2028 3.2539,-0.51758 3.2539,-0.51758 a 1.0583349,1.0583349 0 0 0 0.8106,-1.25782 1.0583349,1.0583349 0 0 0 -1.2579,-0.8125 c 0,0 -1.3687,0.29469 -3.0449,0.48438 -1.6762,0.18969 -3.6964,0.20733 -4.5976,-0.10156 -0.987,-0.33827 -1.9459,-1.17166 -2.6836,-2.08594 -0.7377,-0.91428 -1.2603,-1.91745 -1.4239,-2.33594 -0.098,-0.25111 -0.4266,-1.84133 -0.4492,-2.88672 0,-0.10364 0.01,-0.0811 0.014,-0.17578 0.4773,0.2781 0.911,0.56624 1.5586,0.80469 0.9745,0.35886 2.1283,0.69039 3.3496,0.96289 2.4426,0.54501 5.1152,0.87586 7.1875,0.58398 3.2151,-0.45283 5.0936,1.1119 6.0098,3.4336 0.9587,2.42999 1.1874,6.13093 0.914,7.4043 -1.1721,5.46073 -6.1721,11.74721 -9.7129,14.7207 -1.585,1.33114 -3.6404,1.67741 -5.4687,1.62305 -1.8284,-0.0544 -3.4112,-0.52862 -3.7285,-0.64063 a 1.0583349,1.0583349 0 0 0 -1.3496,0.64648 1.0583349,1.0583349 0 0 0 0.6445,1.34961 c 0.5548,0.19584 2.231,0.69614 4.3711,0.75977 2.1401,0.0636 4.7632,-0.32894 6.8926,-2.11719 3.8882,-3.26526 9.0679,-9.5999 10.4199,-15.89844 0.4503,-2.09762 0.1408,-5.69865 -1.0137,-8.625 -1.1974,-3.03457 -4.2053,-5.32521 -8.2754,-4.75195 -1.5704,0.22119 -4.147,-0.0454 -6.4297,-0.55469 -1.1413,-0.25466 -2.2178,-0.56604 -3.0781,-0.88281 -0.8602,-0.31677 -1.5235,-0.68057 -1.7031,-0.83398 -0.3011,-0.25721 -0.6785,-0.51401 -1.2363,-0.47852 z"
                    id="path42364"
                    stroke-width="0.5"
                    stroke-linecap="round"
                    stroke-linejoin="round"
                    stroke="black" />
                <path
                    d="m -3028.7773,204.62109 c -0.4157,0.0369 -0.8126,0.15585 -1.2247,0.32422 -0.824,0.33674 -1.7071,0.88844 -2.5683,1.61133 -1.7225,1.44578 -3.3929,3.58517 -3.5938,6.1582 a 1.0583349,1.0583349 0 0 0 0.9746,1.13868 1.0583349,1.0583349 0 0 0 1.1368,-0.97266 c 0.1334,-1.70953 1.4142,-3.50321 2.8437,-4.70313 0.7148,-0.59995 1.4578,-1.04866 2.0078,-1.27343 0.275,-0.11239 0.5038,-0.16624 0.6114,-0.17578 0.1076,-0.01 0.04,0.037 -0.1231,-0.0879 a 1.0583349,1.0583349 0 0 0 1.4844,-0.19726 1.0583349,1.0583349 0 0 0 -0.1973,-1.48438 c -0.4471,-0.34218 -0.9359,-0.37475 -1.3515,-0.33789 z"
                    id="path42366"
                    stroke-width="0.5"
                    stroke-linecap="round"
                    stroke-linejoin="round"
                    stroke="black" />
                <path
                    d="m -3052.1094,188.84961 c -0.7685,0.08 -1.6113,0.28254 -2.3476,0.82617 -0.7363,0.54364 -1.2907,1.4758 -1.377,2.61133 -0.1463,1.92442 0.1308,4.17605 0.5391,6.13476 0.2041,0.97936 0.443,1.87957 0.6914,2.62891 0.2484,0.74934 0.4565,1.31336 0.8262,1.80469 0.4984,0.66252 1.8804,2.24806 3.3203,3.86328 0.7199,0.80761 1.4408,1.60369 2.041,2.25 0.6002,0.64631 1.029,1.10416 1.3633,1.39062 0.246,0.21092 0.6011,0.32373 0.8847,0.32227 0.2837,-10e-4 0.5005,-0.0784 0.6817,-0.16211 0.3624,-0.16748 0.6202,-0.38693 0.8886,-0.63867 0.5369,-0.50347 1.0698,-1.1625 1.5782,-1.83984 1.0166,-1.35468 1.9043,-2.7793 1.9043,-2.7793 a 1.0583349,1.0583349 0 0 0 -0.3379,-1.45703 1.0583349,1.0583349 0 0 0 -1.459,0.33593 c 0,0 -0.8576,1.37212 -1.8008,2.62891 -0.4716,0.62839 -0.9723,1.22911 -1.332,1.56641 -0.011,0.0101 -0.01,0.006 -0.02,0.0156 -0.2217,-0.2217 -0.4069,-0.39819 -0.8007,-0.82226 -0.5853,-0.63025 -1.299,-1.42116 -2.0118,-2.22071 -1.4255,-1.59909 -2.8968,-3.31167 -3.2089,-3.72656 -0.036,-0.0474 -0.2942,-0.54692 -0.5098,-1.19726 -0.2156,-0.65035 -0.4373,-1.48651 -0.627,-2.39649 -0.3793,-1.81995 -0.6204,-3.95612 -0.5,-5.54101 0.047,-0.61914 0.2285,-0.85203 0.5215,-1.06836 0.293,-0.21633 0.7734,-0.3679 1.3106,-0.42383 1.0743,-0.11187 2.2226,0.14453 2.2226,0.14453 a 1.0583349,1.0583349 0 0 0 1.2754,-0.78516 1.0583349,1.0583349 0 0 0 -0.7851,-1.27539 c 0,0 -1.3946,-0.3495 -2.9317,-0.18945 z"
                    id="path42368"
                    stroke-width="0.5"
                    stroke-linecap="round"
                    stroke-linejoin="round"
                    stroke="black" />
                <path
                    d="m -3054.3184,201.05273 a 1.0583349,1.0583349 0 0 0 -1.1543,0.95118 c -0.018,0.18521 -0.1371,0.96666 -0.2656,1.98046 -0.1284,1.01381 -0.2701,2.31526 -0.3437,3.75391 -0.1474,2.8773 -0.051,6.30189 1.0312,9.19531 1.0144,2.71192 1.9745,4.47225 2.7031,5.57422 0.7287,1.10197 1.3086,1.61524 1.3086,1.61524 a 1.0583349,1.0583349 0 0 0 1.4922,-0.125 1.0583349,1.0583349 0 0 0 -0.125,-1.49024 c 0,0 -0.2818,-0.21575 -0.9101,-1.16601 -0.6284,-0.95026 -1.5203,-2.56559 -2.4864,-5.14844 -0.8981,-2.40133 -1.0384,-5.61467 -0.8984,-8.34766 0.07,-1.36649 0.2039,-2.61532 0.3281,-3.5957 0.1243,-0.98038 0.2347,-1.63817 0.2735,-2.04297 a 1.0583349,1.0583349 0 0 0 -0.9532,-1.1543 z"
                    id="path42370"
                    stroke-width="0.5"
                    stroke-linecap="round"
                    stroke-linejoin="round"
                    stroke="black" />
                <path
                    d="m -3050.6641,221.98828 a 1.0583349,1.0583349 0 0 0 -1.0742,1.04297 c 0,-0.0988 -0.029,0.41081 -0.084,1.06055 -0.055,0.64973 -0.1334,1.56282 -0.2343,2.70312 -0.202,2.28062 -0.4886,5.46722 -0.8243,9.26563 -0.6713,7.59682 -1.5443,17.64405 -2.3554,27.8164 -0.8112,10.17235 -1.5598,20.46732 -1.9844,28.56836 -0.2123,4.05053 -0.3448,7.55231 -0.3613,10.22852 -0.01,1.3381 0.013,2.46844 0.068,3.37304 0.055,0.90461 0.1124,1.53917 0.3242,2.11915 2.0896,5.72168 7.0391,9.84776 12.5176,10.98437 3.5639,0.73938 8.0644,-0.83354 11.8242,-2.45703 3.7599,-1.62349 6.7364,-3.40625 6.7364,-3.40625 a 1.0583349,1.0583349 0 0 0 0.3652,-1.45117 1.0583349,1.0583349 0 0 0 -1.4531,-0.36524 c 0,0 -2.8709,1.71818 -6.4863,3.2793 -3.6155,1.56112 -8.0159,2.85525 -10.5567,2.32812 -4.7208,-0.9794 -9.1307,-4.62722 -10.9609,-9.63867 -0.033,-0.0908 -0.1466,-0.69434 -0.1973,-1.52148 -0.051,-0.82715 -0.073,-1.92337 -0.064,-3.23242 0.016,-2.61811 0.146,-6.0966 0.3574,-10.12891 0.4227,-8.06462 1.1721,-18.34726 1.9824,-28.50977 0.8103,-10.1625 1.6824,-20.20674 2.3535,-27.80078 0.3356,-3.79701 0.6202,-6.98107 0.8223,-9.26367 0.101,-1.14129 0.1808,-2.05735 0.2363,-2.71289 0.055,-0.65553 0.088,-0.9268 0.092,-1.20898 a 1.0583349,1.0583349 0 0 0 -1.043,-1.07227 z"
                    id="path42372"
                    stroke-width="0.5"
                    stroke-linecap="round"
                    stroke-linejoin="round"
                    stroke="black" />
                <path
                    d="m -3032.0371,225.72852 a 1.0583349,1.0583349 0 0 0 -0.9336,1.16992 c 0,0 1.0924,9.74997 2.2148,19.64648 0.5613,4.94826 1.1311,9.93263 1.5743,13.75391 0.2216,1.91064 0.4122,3.53041 0.5546,4.71094 0.071,0.59026 0.1302,1.07141 0.1758,1.42578 0.046,0.35436 0.063,0.51864 0.1035,0.71875 -0.05,-0.24806 0,0.0708 0,0.36718 0,0.29641 -0.012,0.71507 -0.029,1.23047 -0.034,1.03082 -0.096,2.4525 -0.1796,4.12891 -0.1679,3.35281 -0.4212,7.72824 -0.7012,12.08984 -0.28,4.36161 -0.5871,8.70936 -0.8633,12.00586 -0.1381,1.64825 -0.269,3.03564 -0.3828,4.01758 -0.057,0.49097 -0.1104,0.88314 -0.1543,1.13867 -0.022,0.12777 -0.043,0.22296 -0.053,0.25977 -0.01,0.0368 -0.1227,0.0741 0.1543,-0.25196 a 1.0583349,1.0583349 0 0 0 0.121,1.49219 1.0583349,1.0583349 0 0 0 1.4922,-0.12304 c 0.3167,-0.37289 0.2459,-0.44627 0.2813,-0.58204 0.035,-0.13577 0.062,-0.27499 0.09,-0.4375 0.056,-0.325 0.1126,-0.73997 0.1719,-1.25195 0.1187,-1.02395 0.2496,-2.42366 0.3887,-4.08398 0.2782,-3.32066 0.5866,-7.6782 0.8672,-12.04883 0.2805,-4.37063 0.5326,-8.75219 0.7011,-12.11914 0.084,-1.68348 0.1468,-3.11203 0.1817,-4.16406 0.017,-0.52602 0.029,-0.95809 0.031,-1.28711 0,-0.32903 0.041,-0.4117 -0.039,-0.80469 0.011,0.0552 -0.034,-0.2201 -0.078,-0.56445 -0.044,-0.34436 -0.1049,-0.82102 -0.1757,-1.40821 -0.1418,-1.17437 -0.3314,-2.79225 -0.5528,-4.70117 -0.4428,-3.81783 -1.0111,-8.80265 -1.5722,-13.75 -1.1223,-9.89469 -2.2149,-19.64453 -2.2149,-19.64453 a 1.0583349,1.0583349 0 0 0 -1.1699,-0.93359 z"
                    id="path42374"
                    stroke-width="0.5"
                    stroke-linecap="round"
                    stroke-linejoin="round"
                    stroke="black" />
                <path
                    d="m -3003.3301,293.74023 a 1.0583349,1.0583349 0 0 0 -0.7324,1.30469 c -0.097,-0.3464 0,-0.49465 0.018,-0.54297 0.02,-0.0483 0.013,-0.0229 -0.022,0.0254 -0.068,0.0965 -0.2318,0.29219 -0.459,0.52735 -0.4544,0.47032 -1.1657,1.12143 -2.0351,1.85937 -1.7389,1.47589 -4.1191,3.31281 -6.5118,4.98438 -2.3927,1.67156 -4.8162,3.18357 -6.5683,3.99609 -0.8365,0.38793 -1.4996,0.57285 -1.8223,0.60742 -0.5204,-3.95872 -2.875,-8.05664 -2.875,-8.05664 a 1.0583349,1.0583349 0 0 0 -1.4434,-0.39844 1.0583349,1.0583349 0 0 0 -0.3984,1.44141 c 0,0 2.333,4.24925 2.6797,7.5625 0.05,0.47613 0.3315,1.0196 0.7695,1.30078 0.438,0.28118 0.8971,0.31908 1.3145,0.29297 0.8347,-0.0522 1.6775,-0.37166 2.666,-0.83008 1.977,-0.91684 4.4414,-2.46864 6.8906,-4.17968 2.4492,-1.71104 4.8641,-3.57639 6.668,-5.10743 0.9019,-0.76552 1.6476,-1.44314 2.1875,-2.00195 0.2699,-0.2794 0.4879,-0.52348 0.666,-0.77539 0.089,-0.12595 0.1704,-0.25073 0.2441,-0.42578 0.074,-0.17506 0.1864,-0.42791 0.068,-0.84961 a 1.0583349,1.0583349 0 0 0 -1.3047,-0.73438 z"
                    id="path42376"
                    stroke-width="0.5"
                    stroke-linecap="round"
                    stroke-linejoin="round"
                    stroke="black" />
                <path
                    d="m -3164.9316,194.22461 a 1.0584408,1.0584408 0 0 0 -1.0586,1.05859 v 43.03516 a 1.0583349,1.0583349 0 0 0 1.0586,1.05859 1.0583349,1.0583349 0 0 0 1.0586,-1.05859 V 196.3418 h 23.7539 l -0.2188,39.19922 a 1.0583349,1.0583349 0 0 0 1.0527,1.06445 1.0583349,1.0583349 0 0 0 1.0645,-1.05078 l 0.2246,-40.26563 a 1.0584408,1.0584408 0 0 0 -1.0586,-1.06445 z"
                    id="path42378"
                    stroke-width="0.5"
                    stroke-linecap="round"
                    stroke-linejoin="round"
                    stroke="black" />
                <path
                    d="m -3137.5371,194.43164 a 1.0583349,1.0583349 0 0 0 -1.4863,0.17578 1.0583349,1.0583349 0 0 0 0.1757,1.48633 l 3.5137,2.76758 v 44.68945 a 1.0583349,1.0583349 0 0 0 1.0586,1.05859 1.0583349,1.0583349 0 0 0 1.0586,-1.05859 v -45.20312 a 1.0584408,1.0584408 0 0 0 -0.4023,-0.83008 z"
                    id="path42380"
                    stroke-width="0.5"
                    stroke-linecap="round"
                    stroke-linejoin="round"
                    stroke="black" />
                <path
                    d="m -3151.5234,202.54297 c -1.6375,5e-5 -2.9825,1.34501 -2.9825,2.98242 0,1.63741 1.3451,2.98237 2.9825,2.98242 1.6374,3e-5 2.9824,-1.34496 2.9824,-2.98242 0,-1.63747 -1.345,-2.98245 -2.9824,-2.98242 z m 0,1.62695 c 0.7582,-1e-5 1.3554,0.59725 1.3554,1.35547 0,0.75822 -0.5972,1.35548 -1.3554,1.35547 -0.7582,-2e-5 -1.3555,-0.59727 -1.3555,-1.35547 0,-0.7582 0.5973,-1.35545 1.3555,-1.35547 z"
                    id="circle42382"
                    stroke-width="0.5"
                    stroke="black" />
                <path
                    d="m -3158.5625,199.41211 c -1.6375,-3e-5 -2.9824,1.34496 -2.9824,2.98242 0,1.63747 1.3449,2.98245 2.9824,2.98242 1.6374,-5e-5 2.9824,-1.34501 2.9824,-2.98242 0,-1.63741 -1.345,-2.98237 -2.9824,-2.98242 z m 0,1.62695 c 0.7582,3e-5 1.3555,0.59727 1.3555,1.35547 0,0.7582 -0.5973,1.35545 -1.3555,1.35547 -0.7582,1e-5 -1.3555,-0.59724 -1.3555,-1.35547 0,-0.75822 0.5973,-1.35548 1.3555,-1.35547 z"
                    id="circle42384"
                    stroke-width="0.5"
                    stroke="black" />
                <path
                    d="m -3158.5625,207.94922 c -1.6375,-3e-5 -2.9824,1.34496 -2.9824,2.98242 0,1.63747 1.3449,2.98245 2.9824,2.98242 1.6374,-5e-5 2.9824,-1.34501 2.9824,-2.98242 0,-1.63741 -1.345,-2.98237 -2.9824,-2.98242 z m 0,1.62695 c 0.7582,2e-5 1.3555,0.59727 1.3555,1.35547 0,0.7582 -0.5973,1.35545 -1.3555,1.35547 -0.7582,10e-6 -1.3555,-0.59724 -1.3555,-1.35547 0,-0.75822 0.5973,-1.35548 1.3555,-1.35547 z"
                    id="circle42386"
                    stroke-width="0.5"
                    stroke="black" />
                <path
                    d="m -3148.291,140.0918 c -11.0329,-0.83904 -22.9213,4.30242 -32.7852,19.49609 -14.048,21.63849 -11.3421,42.80013 -5.1211,58.38672 6.221,15.58659 15.9551,25.76953 15.9551,25.76953 a 1.0583349,1.0583349 0 0 0 1.4981,0.0352 1.0583349,1.0583349 0 0 0 0.033,-1.4961 c 0,0 -9.4645,-9.91791 -15.5215,-25.09375 -6.0571,-15.17583 -8.7076,-35.4384 4.9316,-56.44726 10.9323,-16.83927 23.7127,-20.51255 35.2031,-17.87305 11.4905,2.6395 21.7311,11.87624 26.8028,21.23828 5.3078,9.79797 9.3221,25.69432 8.1758,41.87305 -1.1464,16.17872 -7.383,32.60456 -22.461,43.88086 a 1.0583349,1.0583349 0 0 0 -0.2129,1.48242 1.0583349,1.0583349 0 0 0 1.4805,0.21289 c 15.6446,-11.70006 22.127,-28.80541 23.3047,-45.42578 1.1776,-16.62037 -2.8769,-32.79012 -8.4258,-43.0332 -5.3581,-9.89086 -15.9268,-19.47414 -28.1894,-22.29102 -1.5329,-0.35211 -3.0919,-0.59498 -4.668,-0.71484 z"
                    id="path42388"
                    stroke-width="0.5"
                    stroke-linecap="round"
                    stroke-linejoin="round"
                    stroke="black" />
                <path
                    d="m -3143.1309,123.68164 c -10.4002,-0.83705 -21.7557,1.993 -32.5859,10.875 -19.692,16.14965 -29.0217,45.39851 -21.6289,80.44531 2.053,9.73268 8.799,19.98246 15.0059,27.87696 6.2068,7.89449 11.9199,13.42187 11.9199,13.42187 a 1.0583349,1.0583349 0 0 0 1.4961,-0.0254 1.0583349,1.0583349 0 0 0 -0.023,-1.49609 c 0,0 -5.6148,-5.43298 -11.7285,-13.20899 -6.1137,-7.776 -12.68,-17.90597 -14.5996,-27.00586 -7.2698,-34.46351 1.9237,-62.80809 20.9004,-78.37109 10.4424,-8.5639 21.1727,-11.19926 31.0742,-10.40234 9.9016,0.79691 18.9845,5.0723 25.9082,10.44335 15.9153,12.34629 24.5093,36.68809 23.127,61.28321 -1.3824,24.59512 -12.6587,49.32251 -36.127,62.64844 a 1.0583349,1.0583349 0 0 0 -0.3965,1.44335 1.0583349,1.0583349 0 0 0 1.4434,0.39649 c 24.1929,-13.73737 35.7792,-39.20836 37.1934,-64.36914 1.4141,-25.16078 -7.2612,-50.13299 -23.9434,-63.07422 -7.2011,-5.58621 -16.6349,-10.04381 -27.0352,-10.88086 z"
                    id="path42390"
                    stroke-width="0.5"
                    stroke-linecap="round"
                    stroke-linejoin="round"
                    stroke="black" />
                <path
                    d="m -3167.2441,109.29688 a 1.0583349,1.0583349 0 0 0 -1.2051,0.88671 l -1.9903,13.04102 a 1.0583349,1.0583349 0 0 0 0.8868,1.20508 1.0583349,1.0583349 0 0 0 1.205,-0.88477 l 1.9903,-13.04297 a 1.0583349,1.0583349 0 0 0 -0.8867,-1.20507 z"
                    id="path42392"
                    stroke-width="0.5"
                    stroke-linecap="round"
                    stroke-linejoin="round"
                    stroke="black" />
                <path
                    d="m -3128.5293,100.79883 a 1.0583349,1.0583349 0 0 0 -0.7305,0.34961 l -13.9746,15.53515 a 1.0583349,1.0583349 0 0 0 0.078,1.4961 1.0583349,1.0583349 0 0 0 1.4942,-0.0801 l 13.9766,-15.53516 a 1.0583349,1.0583349 0 0 0 -0.08,-1.49414 1.0583349,1.0583349 0 0 0 -0.7637,-0.27148 z"
                    id="path42394"
                    stroke-width="0.5"
                    stroke-linecap="round"
                    stroke-linejoin="round"
                    stroke="black" />
                <path
                    d="m -3095.8047,117.8125 a 1.0583349,1.0583349 0 0 0 -0.8066,0.0898 c 0,0 -3.6948,2.03898 -7.4746,4.14649 -1.89,1.05375 -3.7997,2.1244 -5.2832,2.9668 -0.7418,0.42119 -1.3781,0.78589 -1.8536,1.06445 -0.2377,0.13928 -0.434,0.2558 -0.5898,0.35156 -0.1558,0.0958 -0.2336,0.13614 -0.3906,0.26172 a 1.0583349,1.0583349 0 0 0 -0.166,1.48828 1.0583349,1.0583349 0 0 0 1.4882,0.16406 c -0.074,0.0589 0.042,-0.027 0.1758,-0.10937 0.134,-0.0824 0.3226,-0.19523 0.5528,-0.33008 0.4603,-0.26969 1.0908,-0.63021 1.8281,-1.04883 1.4745,-0.83722 3.3821,-1.90663 5.2695,-2.95898 3.7748,-2.10471 7.4668,-4.14258 7.4668,-4.14258 a 1.0583349,1.0583349 0 0 0 0.416,-1.43945 1.0583349,1.0583349 0 0 0 -0.6328,-0.50391 z"
                    id="path42396"
                    stroke-width="0.5"
                    stroke-linecap="round"
                    stroke-linejoin="round"
                    stroke="black" />
                <path
                    d="m -3074.1777,150.65039 -13.7403,4.58594 a 1.0583349,1.0583349 0 0 0 -0.6679,1.33984 1.0583349,1.0583349 0 0 0 1.3379,0.66797 l 13.7402,-4.58594 a 1.0583349,1.0583349 0 0 0 0.668,-1.33984 1.0583349,1.0583349 0 0 0 -1.3379,-0.66797 z"
                    id="path42398"
                    stroke-width="0.5"
                    stroke-linecap="round"
                    stroke-linejoin="round"
                    stroke="black" />
                <path
                    d="m -3065.75,191.82617 c 0,0 -3.6134,0.14878 -7.3223,0.29883 -1.8544,0.075 -3.732,0.14982 -5.1933,0.20703 -1.4613,0.0572 -2.5747,0.0963 -2.6719,0.0977 a 1.0583349,1.0583349 0 0 0 -1.043,1.07422 1.0583349,1.0583349 0 0 0 1.0723,1.04296 c 0.2825,-0.004 1.2615,-0.0423 2.7246,-0.0996 1.4631,-0.0573 3.3424,-0.13199 5.1973,-0.20704 3.7098,-0.15008 7.3242,-0.29882 7.3242,-0.29882 a 1.0583349,1.0583349 0 0 0 1.0137,-1.10157 1.0583349,1.0583349 0 0 0 -1.1016,-1.01367 z"
                    id="path42400"
                    stroke-width="0.5"
                    stroke-linecap="round"
                    stroke-linejoin="round"
                    stroke="black" />
                <path
                    d="m -3208.8008,149.95508 a 1.0583349,1.0583349 0 0 0 -0.7773,0.22461 1.0583349,1.0583349 0 0 0 -0.168,1.48828 l 5.5293,6.93555 a 1.0583349,1.0583349 0 0 0 1.4883,0.16796 1.0583349,1.0583349 0 0 0 0.168,-1.48632 l -5.5313,-6.9375 a 1.0583349,1.0583349 0 0 0 -0.709,-0.39258 z"
                    id="path42402"
                    stroke-width="0.5"
                    stroke-linecap="round"
                    stroke-linejoin="round"
                    stroke="black" />
                <path
                    d="m -3189.9199,128.62695 a 1.0583349,1.0583349 0 0 0 -0.7266,1.3086 l 2.5156,8.76367 a 1.0583349,1.0583349 0 0 0 1.3086,0.72461 1.0583349,1.0583349 0 0 0 0.7246,-1.3086 l -2.5136,-8.76367 a 1.0583349,1.0583349 0 0 0 -1.3086,-0.72461 z"
                    id="path42404"
                    stroke-width="0.5"
                    stroke-linecap="round"
                    stroke-linejoin="round"
                    stroke="black" />
                <path
                    d="m -3215.6523,184.77148 a 1.0583349,1.0583349 0 0 0 -1.2247,0.85938 1.0583349,1.0583349 0 0 0 0.8594,1.22461 l 7.5625,1.32422 a 1.0583349,1.0583349 0 0 0 1.2246,-0.85938 1.0583349,1.0583349 0 0 0 -0.8593,-1.22656 z"
                    id="path42406"
                    stroke-width="0.5"
                    stroke-linecap="round"
                    stroke-linejoin="round"
                    stroke="black" />
                <path
                    d="m -3203.0645,212.12109 a 1.0583349,1.0583349 0 0 0 -0.8105,0.041 l -4.6992,2.23828 a 1.0583349,1.0583349 0 0 0 -0.5,1.41016 1.0583349,1.0583349 0 0 0 1.4101,0.5 l 4.6993,-2.23633 a 1.0583349,1.0583349 0 0 0 0.5019,-1.41016 1.0583349,1.0583349 0 0 0 -0.6016,-0.54297 z"
                    id="path42408"
                    stroke-width="0.5"
                    stroke-linecap="round"
                    stroke-linejoin="round"
                    stroke="black" />
                <path
                    d="m -3187.041,246.41016 a 1.0583349,1.0583349 0 0 0 -0.584,0.56054 l -4.041,9.2461 a 1.0583349,1.0583349 0 0 0 0.5449,1.39257 1.0583349,1.0583349 0 0 0 1.3926,-0.54492 l 4.043,-9.24609 a 1.0583349,1.0583349 0 0 0 -0.545,-1.39258 1.0583349,1.0583349 0 0 0 -0.8105,-0.0156 z"
                    id="path42410"
                    stroke-width="0.5"
                    stroke-linecap="round"
                    stroke-linejoin="round"
                    stroke="black" />
                <path
                    d="m -3165.4551,276.32031 a 1.0583349,1.0583349 0 0 0 -1.0586,1.0586 c 0,0.26239 -0.1243,3.25302 -0.25,5.98242 -0.1256,2.72939 -0.2519,5.3457 -0.2519,5.3457 a 1.0583349,1.0583349 0 0 0 1.0078,1.10742 1.0583349,1.0583349 0 0 0 1.1074,-1.00586 c 0,0 0.1262,-2.6175 0.252,-5.34961 0.1257,-2.7321 0.2519,-5.42923 0.2519,-6.08007 a 1.0583349,1.0583349 0 0 0 -1.0586,-1.0586 z"
                    id="path42412"
                    stroke-width="0.5"
                    stroke-linecap="round"
                    stroke-linejoin="round"
                    stroke="black" />
                <path
                    d="m -3130.1563,276.00781 a 1.0583349,1.0583349 0 0 0 -0.746,1.29688 l 3.3261,12.31445 a 1.0583349,1.0583349 0 0 0 1.2969,0.74609 1.0583349,1.0583349 0 0 0 0.7461,-1.29882 l -3.3242,-12.3125 a 1.0583349,1.0583349 0 0 0 -1.2989,-0.7461 z"
                    id="path42414"
                    stroke-width="0.5"
                    stroke-linecap="round"
                    stroke-linejoin="round"
                    stroke="black" />
                <path
                    d="m -3107.7656,258.11523 a 1.0583349,1.0583349 0 0 0 -0.3828,1.44727 c 0.1472,0.25358 0.1981,0.27525 0.3125,0.4043 0.1143,0.12904 0.2562,0.28339 0.4296,0.46679 0.347,0.3668 0.8122,0.84495 1.3594,1.40039 1.0945,1.11089 2.5146,2.52809 3.9219,3.92383 2.8146,2.79148 5.582,5.50196 5.582,5.50196 a 1.0583349,1.0583349 0 0 0 1.4961,-0.0156 1.0583349,1.0583349 0 0 0 -0.016,-1.49609 c 0,0 -2.7638,-2.70868 -5.5723,-5.49414 -1.4042,-1.39274 -2.8188,-2.80455 -3.9023,-3.9043 -0.5417,-0.54988 -1.0014,-1.02159 -1.3301,-1.36914 -0.1643,-0.17378 -0.2965,-0.3184 -0.3848,-0.41797 -0.088,-0.0996 -0.1674,-0.23656 -0.066,-0.0625 a 1.0583349,1.0583349 0 0 0 -1.4472,-0.38477 z"
                    id="path42416"
                    stroke-width="0.5"
                    stroke-linecap="round"
                    stroke-linejoin="round"
                    stroke="black" />
                <path
                    d="m -3086.5449,229.74023 a 1.0583349,1.0583349 0 0 0 -1.3223,0.70118 1.0583349,1.0583349 0 0 0 0.7012,1.32226 l 13.668,4.18555 a 1.0583349,1.0583349 0 0 0 1.3222,-0.70117 1.0583349,1.0583349 0 0 0 -0.7012,-1.32227 z"
                    id="path42418"
                    stroke-width="0.5"
                    stroke-linecap="round"
                    stroke-linejoin="round"
                    stroke="black" />
            </g>
        </g>
    </g>
</svg>