<?xml version="1.0" encoding="UTF-8" standalone="no"?>
<!-- Created with Inkscape (http://www.inkscape.org/) -->

<svg width="100%" height="100%"
    viewBox="0 0 725.27651 594.37482"
    version="1.1" id="svg5"
    xml:space="preserve"
    xmlns="http://www.w3.org/2000/svg"
    xmlns:svg="http://www.w3.org/2000/svg">
    <defs id="defs2" />
    <g id="layer1"
        transform="translate(-226.832,-2640.6678)">
        <g id="notion-digital-painting"
            transform="matrix(2,0,0,2,4419.9128,-88.124184)"
            style="stroke-width:0.5">
            <title id="title94600">
                notion-digital-painting
            </title>
            <path
                d="m -1868.9961,1452.6309 a 1.0583349,1.0583349 0 0 0 -0.1055,1.4921 c 1.2215,1.4076 2.7562,2.3766 3.9356,4.6094 1.1794,2.2329 2.0472,5.7759 1.4551,12.1778 -0.6279,6.788 -2.3654,10.5745 -3.6211,13.0253 -0.6279,1.2254 -1.1678,2.0813 -1.3946,3.0567 -0.1133,0.4877 -0.1191,1.0611 0.1075,1.5801 0.2265,0.5189 0.6302,0.911 1.1054,1.2285 1.0416,0.6958 2.3072,0.8411 3.5938,0.8008 1.2866,-0.04 2.6268,-0.2923 3.8594,-0.6016 1.8818,-0.4722 2.7814,-0.8698 3.455,-1.1367 0.3859,1.206 1.3713,4.1308 3.3926,7.748 2.4953,4.4656 6.2712,9.2889 11.6484,9.8633 2.9596,0.3162 6.4179,-1.4689 10.2344,-4.1738 3.8165,-2.7049 7.9369,-6.4393 11.7676,-10.4278 3.8307,-3.9884 7.3644,-8.2264 9.9844,-11.9472 1.31,-1.8604 2.3908,-3.5897 3.1699,-5.1153 0.7791,-1.5255 1.2802,-2.8191 1.3359,-4.0058 a 1.0583349,1.0583349 0 0 0 -1.0058,-1.1074 1.0583349,1.0583349 0 0 0 -1.1074,1.0078 c -0.028,0.5915 -0.3952,1.7478 -1.1075,3.1426 -0.7123,1.3947 -1.746,3.0564 -3.0156,4.8593 -2.5391,3.606 -6.0191,7.7822 -9.7812,11.6993 -3.7622,3.917 -7.8133,7.5799 -11.4649,10.1679 -3.6516,2.5881 -6.9596,3.9899 -8.7851,3.7949 -4.193,-0.4479 -7.6659,-4.5685 -10.0254,-8.791 -2.3595,-4.2224 -3.5664,-8.3398 -3.5664,-8.3398 a 1.0584408,1.0584408 0 0 0 -1.4258,-0.6778 c 0,0 -1.9395,0.8148 -4.2188,1.3868 -1.1396,0.2859 -2.359,0.5061 -3.4101,0.539 -1.0511,0.033 -1.9036,-0.1461 -2.3516,-0.4453 -0.2695,-0.1801 -0.3293,-0.2878 -0.3418,-0.3164 -0.013,-0.029 -0.031,-0.05 0.016,-0.2519 0.094,-0.4033 0.5657,-1.3015 1.2168,-2.5723 1.3023,-2.5416 3.1891,-6.7168 3.8438,-13.7949 0.6164,-6.6641 -0.2754,-10.6843 -1.6895,-13.3614 -1.414,-2.677 -3.3058,-3.9648 -4.2109,-5.0078 a 1.0583349,1.0583349 0 0 0 -1.4922,-0.1054 z"
                id="path41731"
                stroke-width="0.5"
                stroke-linecap="round"
                stroke-linejoin="round"
                stroke="black" />
            <path
                d="m -1857.4121,1443.5059 c -4.2356,-0.5606 -7.7707,0.851 -10.4609,3.748 a 1.0583349,1.0583349 0 0 0 0.055,1.4961 1.0583349,1.0583349 0 0 0 1.4961,-0.057 c 3.101,-3.3393 6.8661,-4.34 12.5684,-1.9942 a 1.0583349,1.0583349 0 0 0 1.3809,-0.5762 1.0583349,1.0583349 0 0 0 -0.5762,-1.3808 c -1.5624,-0.6428 -3.0511,-1.0495 -4.4629,-1.2363 z"
                id="path41733"
                stroke-width="0.5"
                stroke-linecap="round"
                stroke-linejoin="round"
                stroke="black" />
            <path
                d="m -1839.5996,1482.6602 a 1.0583349,1.0583349 0 0 0 -1.4629,0.3164 l -5.498,8.5195 a 1.0583349,1.0583349 0 0 0 0.3164,1.4629 1.0583349,1.0583349 0 0 0 1.4628,-0.3145 l 5.4981,-8.5215 a 1.0583349,1.0583349 0 0 0 -0.3164,-1.4628 z"
                id="path41735"
                stroke-width="0.5"
                stroke-linecap="round"
                stroke-linejoin="round"
                stroke="black" />
            <path
                d="m -1859.7969,1475.3359 a 1.0583349,1.0583349 0 0 0 -0.6328,1.3575 l 3.8906,10.6894 a 1.0583349,1.0583349 0 0 0 1.3555,0.6328 1.0583349,1.0583349 0 0 0 0.6328,-1.3574 l -3.8906,-10.6894 a 1.0583349,1.0583349 0 0 0 -1.3555,-0.6329 z"
                id="path41737"
                stroke-width="0.5"
                stroke-linecap="round"
                stroke-linejoin="round"
                stroke="black" />
            <path id="ellipse41739"
                transform="matrix(0.92677287,-0.37562221,0.37558036,0.92678983,0,0)"
                d="m -2268.9315,655.16809 a 2.1549158,3.7078433 0 0 1 -2.1549,3.70784 2.1549158,3.7078433 0 0 1 -2.1549,-3.70784 2.1549158,3.7078433 0 0 1 2.1549,-3.70784 2.1549158,3.7078433 0 0 1 2.1549,3.70784 z"
                stroke-width="0.132291"
                stroke="black" />
            <path
                d="m -1854.6895,1455.6406 c -2.5317,-0.1524 -3.7728,0.495 -5.3007,0.6856 a 1.0583349,1.0583349 0 0 0 -0.918,1.1797 1.0583349,1.0583349 0 0 0 1.1797,0.9199 c 2.5628,-0.3197 3.1871,-1.2751 7.584,-0.2578 a 1.0583349,1.0583349 0 0 0 1.2695,-0.793 1.0583349,1.0583349 0 0 0 -0.793,-1.2695 c -1.189,-0.2751 -2.1775,-0.4141 -3.0215,-0.4649 z"
                id="path41741"
                stroke-width="0.5"
                stroke-linecap="round"
                stroke-linejoin="round"
                stroke="black" />
            <g id="path41743"
                style="stroke-width:0.5">
                <path
                    d="m -1867.365,1432.2802 c 1.1752,1.2298 19.8428,9.6689 28.2616,5.7206 l 8.4187,-3.9483 5.0689,9.3493 c 0,0 2.2399,3.1286 0.8846,-1.6574 -1.3552,-4.786 -3.5389,-7.2167 -3.5298,-8.4902 0.01,-1.2736 1.7564,-18.63 13.2043,-15.2137 11.448,3.4164 1.9821,29.7902 1.9821,29.7902 l -6.5953,2.2972 3.0815,0.1373 c 0,0 -1.0365,6.8997 10.1253,11.2594 11.1614,4.3597 25.4462,-6.1216 25.4462,-6.1216 35.5828,-24.3487 8.3929,-32.9389 10.9634,-55.3689 0.8772,-7.6534 -6.9419,-19.8534 -11.9503,-22.4897 -5.6396,-2.9687 -14.5187,5.5893 -19.068,1.403 -9.0885,-9.0975 -15.6646,-17.8792 -27.7044,-11.1584 -12.0397,6.7208 -15.2557,8.0886 -15.2557,8.0886 0,0 -21.2293,-6.3434 -26.8685,8.1378 -5.6393,14.4813 -7.484,17.3521 -7.484,17.3521 0,0 -22.6797,5.5729 -21.4223,21.5666 1.2575,15.9938 10.3633,24.0027 10.3633,24.0027 0,0 -6.249,5.2416 0.7871,11.64 7.036,6.3983 18.3479,8.5404 20.4069,3.9816 2.0591,-4.5588 2.337,-6.3143 2.337,-6.3143 0,0 -6.3484,-1.6319 -4.9094,-10.7258 1.4389,-9.0939 3.4568,-13.2381 3.4568,-13.2381 z"
                    id="path74657"
                    stroke-width="1.05833"
                    stroke-linecap="round"
                    stroke-linejoin="round"
                    stroke="black" />
                <path
                    d="m -1820.6348,1364.3965 c -2.6541,-0.023 -5.5268,0.7207 -8.6582,2.4687 -11.8105,6.5929 -14.7742,7.8492 -14.8847,7.8965 -0.636,-0.1832 -5.3913,-1.5199 -11.2129,-1.3027 -3.1106,0.116 -6.4444,0.695 -9.4199,2.2363 -2.9756,1.5414 -5.5755,4.0817 -7.0762,7.9356 -5.3606,13.7655 -7.0744,16.5982 -7.2383,16.8632 -0.7061,0.1814 -5.7012,1.4995 -10.9961,4.7579 -5.6784,3.4944 -11.4086,9.2635 -10.7402,17.7656 1.1235,14.2899 8.1193,22.08 9.9609,23.9238 -0.5903,0.6535 -1.3159,1.6092 -1.7949,3.0899 -0.7888,2.4379 -0.4137,5.9272 3.3262,9.3281 3.6833,3.3495 8.4067,5.5493 12.582,6.3554 2.0877,0.4031 4.0429,0.463 5.7109,0.074 1.6681,-0.3888 3.1139,-1.2956 3.791,-2.795 2.0864,-4.6191 2.418,-6.5839 2.418,-6.5839 a 1.0584408,1.0584408 0 0 0 -0.7812,-1.1914 c 0,0 -1.2737,-0.3202 -2.4766,-1.6407 -1.2029,-1.3204 -2.3328,-3.5945 -1.6523,-7.8945 1.1657,-7.3678 2.4406,-10.6223 2.9492,-11.8203 0.071,0.037 0.094,0.07 0.1718,0.1113 0.6716,0.3579 1.5491,0.7825 2.5918,1.2422 2.0856,0.9195 4.827,1.9793 7.8086,2.8789 5.9633,1.7993 12.8575,3.0882 17.6016,0.8633 l 7.5156,-3.5235 4.5918,8.4708 a 1.0584408,1.0584408 0 0 0 0.07,0.1113 c 0,0 0.1649,0.2312 0.3887,0.4902 0.2238,0.259 0.4306,0.5631 0.9727,0.8184 0.271,0.1276 0.8752,0.2485 1.3476,-0.1172 0.4724,-0.3657 0.5106,-0.8042 0.5274,-1.1328 0.034,-0.6569 -0.1218,-1.3799 -0.4727,-2.6192 v 0 c -0.7053,-2.4901 -1.6323,-4.3777 -2.3574,-5.7637 -0.7253,-1.3864 -1.133,-2.4026 -1.1328,-2.4297 7e-4,-0.095 0.1046,-1.5029 0.4375,-3.1992 0.3329,-1.6963 0.8956,-3.8073 1.7793,-5.7324 0.8837,-1.9252 2.0865,-3.6404 3.6191,-4.6485 1.5326,-1.008 3.3882,-1.4087 6.0078,-0.6269 2.4662,0.736 3.7449,2.5989 4.4141,5.334 0.6691,2.7351 0.5811,6.25 0.123,9.6875 -0.8643,6.4869 -2.8663,12.2558 -3.1035,12.9316 l -6.0918,2.1211 a 1.0584408,1.0584408 0 0 0 0.3008,2.0566 l 2.0957,0.094 c 0.053,0.8539 0.2416,2.0139 0.9629,3.4551 1.261,2.5194 4.0431,5.5226 9.8105,7.7754 5.991,2.3401 12.609,0.6924 17.7012,-1.4356 5.0908,-2.1274 8.7519,-4.8168 8.7539,-4.8183 v 0 c 8.9512,-6.1293 14.0496,-11.3125 16.666,-16.1153 2.6196,-4.8086 2.6525,-9.2366 1.5957,-13.4023 -2.1137,-8.3314 -8.1085,-15.8036 -6.8731,-26.584 0.4864,-4.2433 -1.3627,-9.3167 -3.9003,-13.7695 -2.5377,-4.4529 -5.7107,-8.2515 -8.6094,-9.7774 -1.6967,-0.8931 -3.5813,-0.8905 -5.4063,-0.5469 -1.8249,0.3437 -3.6468,1.0251 -5.3847,1.6446 -1.738,0.6194 -3.3934,1.1722 -4.7754,1.3203 -1.3795,0.1478 -2.3937,-0.051 -3.2715,-0.8555 -4.5018,-4.5088 -8.4272,-9.026 -12.9356,-11.6484 -2.259,-1.3141 -4.6955,-2.1024 -7.3496,-2.125 z m -0.023,2.043 c 2.2491,0.018 4.2826,0.7336 6.3086,1.9121 4.052,2.3569 7.9549,6.7648 12.5293,11.3437 a 1.0584408,1.0584408 0 0 0 0.031,0.031 c 1.3958,1.2844 3.1971,1.5886 4.9356,1.4023 1.7385,-0.1863 3.5063,-0.804 5.2617,-1.4297 1.7554,-0.6257 3.4963,-1.2633 5.0645,-1.5586 1.5681,-0.2952 2.9081,-0.2514 4.0312,0.3399 2.1096,1.1104 5.3512,4.7316 7.7559,8.9511 2.4047,4.2196 4.0256,9.0724 3.6347,12.4825 -1.335,11.6495 4.9809,19.6873 6.9239,27.3457 0.9714,3.8291 0.9679,7.5161 -1.4024,11.8672 -2.3703,4.351 -7.2113,9.367 -16.0312,15.4023 a 1.0584408,1.0584408 0 0 0 -0.027,0.02 c 0,0 -3.4798,2.5515 -8.3203,4.5742 -4.8405,2.0228 -10.9448,3.4357 -16.1152,1.4161 -5.3943,-2.107 -7.6763,-4.7316 -8.6875,-6.752 -1.0112,-2.0204 -0.7754,-3.3652 -0.7754,-3.3652 a 1.0584408,1.0584408 0 0 0 -0.08,-0.584 l 2.8945,-1.0078 a 1.0584408,1.0584408 0 0 0 0.6485,-0.6426 c 0,0 2.4006,-6.6639 3.3554,-13.8301 0.4775,-3.583 0.6098,-7.3018 -0.166,-10.4726 -0.7757,-3.1709 -2.6074,-5.8872 -5.8652,-6.8594 -3.1043,-0.9264 -5.7605,-0.4385 -7.7754,0.8867 -2.0149,1.3252 -3.3957,3.389 -4.3809,5.5352 -0.9851,2.1461 -1.5765,4.3995 -1.9316,6.209 -0.3551,1.8094 -0.4723,3.0484 -0.4766,3.5898 -0.01,1.2464 0.67,2.0819 1.3731,3.4258 0.1139,0.2178 0.2356,0.6306 0.3555,0.8691 l -2.1641,-3.9922 a 1.0584408,1.0584408 0 0 0 -1.3809,-0.455 l -8.4179,3.9492 c -3.6747,1.7233 -10.3228,0.766 -16.0918,-0.9746 -2.8845,-0.8704 -5.5582,-1.9037 -7.5664,-2.7891 -1.0041,-0.4427 -1.8421,-0.8483 -2.4493,-1.1719 -0.6071,-0.3236 -1.0671,-0.6922 -0.9394,-0.5586 a 1.0584408,1.0584408 0 0 0 -1.7168,0.2676 c 0,0 -2.0958,4.3414 -3.5508,13.5371 -0.7586,4.7939 0.5662,7.8814 2.1777,9.6504 0.8671,0.9518 1.7556,1.4963 2.4493,1.832 -0.071,0.3584 -0.1975,1.3527 -1.9746,5.2871 -0.3524,0.7801 -1.0899,1.3137 -2.3418,1.6055 -1.2519,0.2918 -2.9529,0.2706 -4.8301,-0.092 -3.7544,-0.7248 -8.204,-2.795 -11.5567,-5.8437 -3.2962,-2.9975 -3.3149,-5.327 -2.7382,-7.1094 0.5766,-1.7824 1.9179,-2.9356 1.9179,-2.9356 a 1.0584408,1.0584408 0 0 0 0.02,-1.6054 c 0,0 -8.7795,-7.6677 -10.0079,-23.291 -0.5889,-7.4917 4.3932,-12.5065 9.7403,-15.7969 5.347,-3.2905 10.8789,-4.6602 10.8789,-4.6602 a 1.0584408,1.0584408 0 0 0 0.6387,-0.455 c 0,0 1.9296,-3.0292 7.58,-17.5391 1.3189,-3.3867 3.4872,-5.4841 6.0782,-6.8262 2.5909,-1.3421 5.6217,-1.8917 8.5234,-2 5.8033,-0.2165 10.9785,1.3184 10.9785,1.3184 a 1.0584408,1.0584408 0 0 0 0.7168,-0.041 c 0,0 3.3011,-1.4086 15.3574,-8.1387 2.8885,-1.6124 5.3525,-2.2914 7.6016,-2.2734 z"
                    id="path74659"
                    stroke-width="0.5"
                    stroke-linecap="round"
                    stroke-linejoin="round"
                    stroke="black" />
            </g>
            <path
                d="m -1824.0957,1528.7363 a 1.0583349,1.0583349 0 0 0 -1.1816,0.918 c 0.013,-0.1043 -0.039,0.1243 -0.2266,0.416 -0.1874,0.2917 -0.4846,0.6814 -0.8672,1.125 -0.7653,0.8871 -1.8771,2.0004 -3.2187,3.2012 -2.6833,2.4016 -6.2928,5.1582 -9.9903,7.3301 -2.9335,1.7231 -6.0718,2.9033 -8.6914,3.9746 -2.6196,1.0713 -4.8191,1.8754 -5.7715,3.7226 -1.3223,2.5649 -0.8528,5.9253 0.3008,9.5469 1.1536,3.6216 3.078,7.5534 5.1309,11.2129 4.1057,7.319 8.7461,13.5527 8.7461,13.5527 a 1.0583349,1.0583349 0 0 0 1.4804,0.2168 1.0583349,1.0583349 0 0 0 0.2188,-1.4804 c 0,0 -4.576,-6.1517 -8.5996,-13.3243 -2.0118,-3.5862 -3.8804,-7.4279 -4.961,-10.8203 -1.0805,-3.3923 -1.2849,-6.2861 -0.4355,-7.9336 0.3264,-0.633 2.1209,-1.6823 4.6933,-2.7343 2.5725,-1.0521 5.8249,-2.2654 8.961,-4.1075 3.852,-2.2625 7.5446,-5.0851 10.3301,-7.5781 1.3927,-1.2465 2.5569,-2.4093 3.4101,-3.3984 0.4266,-0.4946 0.7745,-0.9435 1.043,-1.3614 0.2684,-0.4178 0.4831,-0.7707 0.5488,-1.2988 a 1.0583349,1.0583349 0 0 0 -0.9199,-1.1797 z"
                id="path41745"
                stroke-width="0.5"
                stroke-linecap="round"
                stroke-linejoin="round"
                stroke="black" />
            <path
                d="m -1774.6191,1488.9609 c -1.7209,-0.026 -3.5118,0.08 -5.3868,0.293 -9.1981,1.0472 -15.9873,7.5204 -21.414,15.543 -5.4268,8.0225 -9.5855,17.6868 -13.5449,25.5176 -9.4531,18.6958 -16.6879,48.9189 -21.6153,74.5371 -4.9273,25.6182 -7.5136,46.6113 -7.5137,46.6113 a 1.0583349,1.0583349 0 0 0 0.92,1.1797 1.0583349,1.0583349 0 0 0 1.1797,-0.9219 c 0,0 2.5813,-20.9281 7.4941,-46.4707 4.9128,-25.5426 12.1907,-55.7196 21.4238,-73.9805 4.0056,-7.922 8.1454,-17.504 13.4102,-25.2871 5.2648,-7.7831 11.5587,-13.6755 19.8984,-14.625 7.2207,-0.822 12.6338,-0.04 17.9004,3.752 5.2666,3.7919 10.4206,10.7418 16.6016,22.3652 a 1.0583349,1.0583349 0 0 0 1.4316,0.4375 1.0583349,1.0583349 0 0 0 0.4375,-1.4297 c -6.2446,-11.7431 -11.5078,-18.9682 -17.2324,-23.0898 -4.2934,-3.0913 -8.8276,-4.3539 -13.9902,-4.4317 z"
                id="path41747"
                stroke-width="0.5"
                stroke-linecap="round"
                stroke-linejoin="round"
                stroke="black" />
            <path
                d="m -1750.584,1512.7227 a 1.0583349,1.0583349 0 0 0 -0.8105,0.014 1.0583349,1.0583349 0 0 0 -0.5508,1.3907 c 12.3835,28.645 15.4831,54.2379 15.8984,79.0507 -16.7041,10.4457 -35.4942,6.0025 -54.9804,-1.0195 3.1381,-25.7221 6.0254,-51.473 6.8418,-77.2832 a 1.0583349,1.0583349 0 0 0 -1.0235,-1.0898 1.0583349,1.0583349 0 0 0 -1.0918,1.0234 c -0.822,25.9874 -3.7462,51.9664 -6.9238,77.9648 a 1.0584408,1.0584408 0 0 0 0.6894,1.1231 c 20.0994,7.3053 40.2491,12.3379 58.1485,0.791 a 1.0584408,1.0584408 0 0 0 0.4844,-0.9062 c -0.3756,-25.161 -3.4792,-51.3013 -16.0997,-80.4942 a 1.0583349,1.0583349 0 0 0 -0.582,-0.5644 z"
                id="path41749"
                stroke-width="0.5"
                stroke-linecap="round"
                stroke-linejoin="round"
                stroke="black" />
            <path
                d="m -1783.2012,1595.9883 a 1.0583349,1.0583349 0 0 0 -1.0449,1.0742 c -8e-4,-0.059 -0.01,0.2937 -0.021,0.75 -0.016,0.4563 -0.038,1.0971 -0.068,1.8945 -0.06,1.5949 -0.1461,3.8166 -0.25,6.4532 -0.208,5.2731 -0.4865,12.2044 -0.7657,19.1035 -0.5583,13.798 -1.1191,27.4648 -1.1191,27.4648 a 1.0583349,1.0583349 0 0 0 1.0137,1.0996 1.0583349,1.0583349 0 0 0 1.1015,-1.0136 c 0,0 0.5608,-13.6661 1.1192,-27.4649 0.2791,-6.8994 0.5576,-13.8309 0.7656,-19.1055 0.104,-2.6372 0.1901,-4.8614 0.25,-6.4589 0.03,-0.7988 0.053,-1.4395 0.068,-1.9004 0.016,-0.461 0.026,-0.6601 0.023,-0.8516 a 1.0583349,1.0583349 0 0 0 -1.0723,-1.0449 z"
                id="path41751"
                stroke-width="0.5"
                stroke-linecap="round"
                stroke-linejoin="round"
                stroke="black" />
            <path
                d="m -1745.4473,1598.7773 a 1.0583349,1.0583349 0 0 0 -1.1445,0.9649 c -2.099,24.6754 -9.5368,41.8911 -15.9492,60.4375 a 1.0583349,1.0583349 0 0 0 0.6543,1.3457 1.0583349,1.0583349 0 0 0 1.3457,-0.6543 c 6.3791,-18.45 13.9308,-35.9357 16.0586,-60.9492 a 1.0583349,1.0583349 0 0 0 -0.9649,-1.1446 z"
                id="path41753"
                stroke-width="0.5"
                stroke-linecap="round"
                stroke-linejoin="round"
                stroke="black" />
            <path
                d="m -1818.3281,1491.7305 c -2.3999,-0.044 -4.2422,1.0918 -4.2422,1.0918 a 1.0583349,1.0583349 0 0 0 -0.3613,1.4531 1.0583349,1.0583349 0 0 0 1.4531,0.3594 c 0,0 1.4043,-0.8207 3.1113,-0.7891 1.707,0.032 3.6988,0.7229 5.3027,4.5137 1.8932,4.4743 0.4723,11.642 -1.6093,17.6152 -1.0408,2.9866 -2.218,5.6785 -3.1348,7.6152 -0.4584,0.9684 -0.8507,1.7473 -1.1289,2.2813 -0.1391,0.267 -0.2505,0.4732 -0.3242,0.6074 -0.037,0.067 -0.065,0.1174 -0.08,0.1426 -0.01,0.013 -0.012,0.021 -0.01,0.012 0,0 0.01,-0.012 0.029,-0.043 0.011,-0.016 0.022,-0.036 0.07,-0.09 0.048,-0.054 1.0236,-0.3261 1.0234,-0.3262 a 1.0583349,1.0583349 0 0 0 -1.2656,0.7969 1.0583349,1.0583349 0 0 0 0.7968,1.2676 c 2e-4,0 0.9762,-0.2729 1.0254,-0.3281 0.049,-0.055 0.061,-0.076 0.074,-0.094 0.026,-0.036 0.034,-0.05 0.043,-0.064 0.017,-0.028 0.029,-0.046 0.043,-0.07 0.028,-0.048 0.06,-0.1075 0.1015,-0.1836 0.084,-0.1521 0.2005,-0.3695 0.3458,-0.6484 0.2905,-0.5578 0.6953,-1.3612 1.166,-2.3555 0.9413,-1.9886 2.1449,-4.7408 3.2187,-7.8222 2.1478,-6.1629 3.8908,-13.6295 1.5606,-19.1367 -1.8376,-4.343 -4.8131,-5.7603 -7.2129,-5.8047 z"
                id="path41755"
                stroke-width="0.5"
                stroke-linecap="round"
                stroke-linejoin="round"
                stroke="black" />
            <path
                d="m -1793.6758,1461.0254 a 1.0583349,1.0583349 0 0 0 -1.0332,1.084 c 0.022,0.9102 0.3592,1.9384 0.9141,3.2011 0.5548,1.2628 1.3482,2.6976 2.3574,4.1133 2.0183,2.8315 4.9022,5.6303 8.5664,6.5059 a 1.0583349,1.0583349 0 0 0 1.2754,-0.7832 1.0583349,1.0583349 0 0 0 -0.7852,-1.2754 c -2.8939,-0.6915 -5.4938,-3.0944 -7.3339,-5.6758 -0.9201,-1.2907 -1.6497,-2.6146 -2.1426,-3.7363 -0.4929,-1.1218 -0.7274,-2.1036 -0.7344,-2.4004 a 1.0583349,1.0583349 0 0 0 -1.084,-1.0332 z"
                id="path41757"
                stroke-width="0.5"
                stroke-linecap="round"
                stroke-linejoin="round"
                stroke="black" />
            <path
                d="m -1931.6445,1543.6406 c 0,0 -2.8933,-0.071 -5.9258,0.2032 -1.5163,0.1369 -3.0677,0.3542 -4.375,0.7402 -0.6537,0.193 -1.2498,0.4253 -1.7695,0.7539 -0.5198,0.3286 -1.0022,0.7834 -1.2129,1.4453 -0.4926,1.5469 -0.461,3.1112 0.3144,4.3379 0.7754,1.2267 2.2804,1.9196 4.082,1.8496 0.8394,-0.033 1.4613,-0.1415 1.8672,-0.2012 0.4059,-0.06 0.5104,-0.035 0.4844,-0.045 -0.026,-0.01 0.07,0.018 0.3301,0.4238 0.2597,0.4059 0.6293,1.1147 1.1523,2.1758 1.1221,2.2762 2.4956,3.7861 3.6016,4.7266 1.106,0.9404 2.0195,1.3496 2.0195,1.3496 a 1.0583349,1.0583349 0 0 0 1.3926,-0.5488 1.0583349,1.0583349 0 0 0 -0.5488,-1.3926 c 0,0 -0.5778,-0.242 -1.4922,-1.0195 -0.9144,-0.7776 -2.09,-2.0543 -3.0742,-4.0508 -0.5301,-1.0753 -0.906,-1.8157 -1.2676,-2.3809 -0.3616,-0.5652 -0.7633,-1.0291 -1.3477,-1.2558 -0.5843,-0.2268 -1.0984,-0.1436 -1.5566,-0.076 -0.4582,0.067 -0.9432,0.1525 -1.6426,0.1797 -1.2756,0.05 -1.8697,-0.3254 -2.2109,-0.8653 -0.3413,-0.5398 -0.4449,-1.4392 -0.086,-2.5664 0,-0.01 0.062,-0.1283 0.3282,-0.2968 0.2666,-0.1686 0.7016,-0.3539 1.2363,-0.5118 1.0693,-0.3157 2.5251,-0.534 3.9648,-0.664 2.5698,-0.2322 4.5639,-0.1822 5.0743,-0.1739 0.1623,0.4655 0.2889,1.0055 1.1406,2.3594 1.1384,1.8098 3.0547,4.1643 6.168,6.4004 0.6644,0.4772 1.4468,0.6411 2.3945,0.7481 0.9477,0.1069 2.071,0.1192 3.3652,0.07 2.5885,-0.098 5.8604,-0.4487 9.5664,-0.9004 7.412,-0.9035 16.5504,-2.2122 25.1133,-2.7324 15.7758,-0.9584 29.668,1.2812 29.668,1.2812 a 1.0583349,1.0583349 0 0 0 1.2148,-0.8769 1.0583349,1.0583349 0 0 0 -0.8769,-1.2129 c 0,0 -14.0829,-2.2798 -30.1328,-1.3047 -8.6859,0.5277 -17.8686,1.845 -25.2442,2.7441 -3.6878,0.4496 -6.9256,0.7937 -9.3887,0.8867 -1.2315,0.047 -2.2702,0.029 -3.0468,-0.059 -0.7767,-0.088 -1.282,-0.2829 -1.3965,-0.3652 -2.8771,-2.0664 -4.6043,-4.2027 -5.6133,-5.8066 -1.009,-1.604 -1.2754,-2.5957 -1.2754,-2.5957 a 1.0584408,1.0584408 0 0 0 -0.9941,-0.7735 z"
                id="path41759"
                stroke-width="0.5"
                stroke-linecap="round"
                stroke-linejoin="round"
                stroke="black" />
            <path
                d="m -1942.1719,1555.5391 a 1.0583349,1.0583349 0 0 0 -0.8066,0.062 1.0583349,1.0583349 0 0 0 -0.4649,1.4218 c 0,0 1.2355,2.4365 2.8282,5.043 0.7963,1.3032 1.6823,2.6518 2.5703,3.7852 0.8879,1.1333 1.7078,2.0671 2.7519,2.5468 0.286,0.1315 0.4567,0.1539 0.7305,0.209 0.2738,0.055 0.6086,0.1102 1.0117,0.1699 0.8063,0.1195 1.8846,0.2535 3.2051,0.4024 2.641,0.2977 6.249,0.6537 10.5019,1.0469 8.506,0.7863 19.5894,1.7242 30.6172,2.6523 11.0278,0.9281 21.9987,1.8457 30.2696,2.5899 4.1354,0.372 7.5967,0.7008 10.0449,0.9648 1.2241,0.132 2.1973,0.2488 2.8613,0.3437 0.332,0.048 0.5883,0.09 0.7422,0.1211 0.077,0.016 0.1301,0.03 0.1328,0.031 0,8e-4 -0.01,0.095 -0.3125,-0.1973 a 1.0583349,1.0583349 0 0 0 1.4961,-0.035 1.0583349,1.0583349 0 0 0 -0.035,-1.4961 c -0.3375,-0.3221 -0.4173,-0.2612 -0.5274,-0.2949 -0.1101,-0.034 -0.2107,-0.056 -0.3262,-0.08 -0.2308,-0.047 -0.5158,-0.094 -0.8711,-0.1446 -0.7104,-0.1016 -1.6969,-0.2182 -2.9335,-0.3515 -2.4734,-0.2667 -5.9408,-0.5962 -10.0821,-0.9688 -8.2825,-0.7451 -19.2541,-1.6637 -30.2812,-2.5918 -11.0271,-0.9281 -22.1098,-1.8653 -30.6016,-2.6504 -4.2459,-0.3925 -7.8451,-0.7483 -10.459,-1.0429 -1.3069,-0.1473 -2.3682,-0.2796 -3.1308,-0.3926 -0.3813,-0.057 -0.6892,-0.109 -0.9043,-0.1523 -0.2152,-0.043 -0.3789,-0.1087 -0.2657,-0.057 -0.3376,-0.1552 -1.1635,-0.9019 -1.9687,-1.9297 -0.8052,-1.0277 -1.6593,-2.3213 -2.4297,-3.582 -1.5407,-2.5215 -2.748,-4.8965 -2.748,-4.8965 a 1.0583349,1.0583349 0 0 0 -0.6153,-0.5273 z"
                id="path41761"
                stroke-width="0.5"
                stroke-linecap="round"
                stroke-linejoin="round"
                stroke="black" />
            <path
                d="m -1928.959,1525.1152 c -0.4543,0.1601 -0.5552,0.332 -0.7461,0.5235 -0.1909,0.1915 -0.3891,0.4184 -0.6094,0.6894 -0.4406,0.5421 -0.9682,1.2577 -1.5644,2.1016 -1.1925,1.6879 -2.65,3.8835 -4.0879,6.0957 -1.4379,2.2122 -2.8552,4.4386 -3.9551,6.1758 -1.0999,1.7371 -1.9278,3.0503 -2.0351,3.209 a 1.0583349,1.0583349 0 0 0 0.2832,1.4707 1.0583349,1.0583349 0 0 0 1.4687,-0.2832 c 0.2363,-0.3494 0.9744,-1.5298 2.0723,-3.2637 1.0979,-1.734 2.5111,-3.9557 3.9414,-6.1563 1.4303,-2.2005 2.8788,-4.3823 4.041,-6.0273 0.5811,-0.8225 1.0921,-1.5129 1.4785,-1.9883 0.1932,-0.2377 0.3576,-0.4217 0.4649,-0.5293 0.1072,-0.1076 0.2411,-0.1236 -0.049,-0.022 -0.058,0.02 0.076,-0.014 0.3555,0.1133 0.2797,0.1277 0.6504,0.3805 0.9961,0.6836 0.3457,0.3031 0.6731,0.6565 0.9043,0.9609 0.1634,0.2151 0.1916,0.2966 0.2344,0.377 -0.044,0.092 -0.08,0.1727 -0.1582,0.3144 -0.2333,0.4208 -0.6016,1.0162 -1.0528,1.7071 -0.9022,1.3817 -2.1398,3.1588 -3.3847,4.9062 -2.4899,3.495 -5.0098,6.875 -5.0098,6.875 a 1.0583349,1.0583349 0 0 0 0.2148,1.4825 1.0583349,1.0583349 0 0 0 1.4825,-0.2168 c 0,0 2.5281,-3.393 5.0351,-6.9122 1.2536,-1.7595 2.5013,-3.5507 3.4336,-4.9785 0.4662,-0.7139 0.8538,-1.3326 1.1328,-1.8359 0.1395,-0.2517 0.2507,-0.4728 0.3399,-0.6895 0.089,-0.2166 0.2687,-0.3278 0.1328,-0.9492 -0.1233,-0.5637 -0.3868,-0.9295 -0.7149,-1.3613 -0.328,-0.4318 -0.7361,-0.8706 -1.1933,-1.2715 -0.4572,-0.4009 -0.9578,-0.7638 -1.5137,-1.0176 -0.5559,-0.2537 -1.2224,-0.4355 -1.9375,-0.1836 z"
                id="path41763"
                stroke-width="0.5"
                stroke-linecap="round"
                stroke-linejoin="round"
                stroke="black" />
            <path
                d="m -1944.2227,1548.9746 a 1.0583349,1.0583349 0 0 0 -1.4843,0.1797 c 0,0 -2.1936,2.7902 -4.4532,5.8457 -1.1297,1.5278 -2.2763,3.1223 -3.1836,4.4805 -0.4536,0.679 -0.8473,1.2985 -1.1542,1.834 -0.307,0.5354 -0.531,0.939 -0.6524,1.4316 -0.4868,1.9759 -2.1074,7.4512 -2.1074,7.4512 a 1.0584408,1.0584408 0 0 0 1.7715,1.041 l 7.6777,-7.8574 a 1.0584408,1.0584408 0 0 0 0.1016,-0.1211 l 7.455,-10.3379 a 1.0583349,1.0583349 0 0 0 -0.2402,-1.4785 1.0583349,1.0583349 0 0 0 -1.4766,0.2402 l -7.4082,10.2734 -4.7168,4.8262 c 0.4442,-1.5427 0.7525,-2.5264 1,-3.5312 0.01,-0.023 0.1655,-0.417 0.4336,-0.8848 0.2682,-0.4678 0.6391,-1.0567 1.0762,-1.7109 0.8742,-1.3086 2.0085,-2.8841 3.127,-4.3965 2.2369,-3.0249 4.414,-5.7989 4.414,-5.7989 a 1.0583349,1.0583349 0 0 0 -0.1797,-1.4863 z"
                id="path41765"
                stroke-width="0.5"
                stroke-linecap="round"
                stroke-linejoin="round"
                stroke="black" />
            <path
                d="m -1903.2109,1505.3828 c -8.9741,-0.1002 -17.4873,6.7057 -19.5977,15.4629 a 1.0583349,1.0583349 0 0 0 0.7793,1.2773 1.0583349,1.0583349 0 0 0 1.2773,-0.7812 c 2.1254,-8.819 11.9064,-15.5778 20.8731,-13.4258 2.4831,0.7532 4.3162,2.8493 5.3555,5.2695 -3.2693,-0.8725 -7.0225,0.4175 -8.9239,3.3536 -0.883,1.313 -1.5316,2.9809 -1.6211,4.7031 -0.09,1.7267 0.4589,3.5815 2.0215,4.8008 a 1.0584408,1.0584408 0 0 0 0.068,0.049 c 1.699,1.1207 3.7051,1.0911 5.3945,0.4434 1.6713,-0.6408 3.1074,-1.8486 4.043,-3.2872 1.3099,-1.646 1.9282,-3.5754 2.0605,-5.5429 2.1275,2.3485 2.8722,5.9044 3.7325,9.3437 a 1.0584408,1.0584408 0 0 0 0.01,0.031 c 0.9377,3.3051 3.5015,5.8622 6.6093,7.0957 2.5729,1.2132 5.6099,1.6109 8.4512,1.0625 2.8486,-0.5499 5.528,-2.0891 7.1426,-4.7598 v -0.01 c 0.4094,-0.6635 0.7425,-1.3775 0.9786,-2.1289 a 1.0583349,1.0583349 0 0 0 -0.6934,-1.3282 1.0583349,1.0583349 0 0 0 -1.3262,0.6934 c -0.1813,0.5774 -0.4395,1.1348 -0.7617,1.6562 a 1.0584408,1.0584408 0 0 0 -0.01,0.01 c -1.2668,2.101 -3.3569,3.3255 -5.7382,3.7852 -2.3813,0.4596 -5.0257,0.1133 -7.1739,-0.9063 a 1.0584408,1.0584408 0 0 0 -0.066,-0.029 c -2.555,-1.0041 -4.6401,-3.112 -5.3808,-5.7226 l 0.01,0.033 c -0.9905,-3.9602 -1.7311,-9.1424 -5.9863,-11.8926 -0.01,-0.01 -0.023,-0.01 -0.033,-0.018 0,-0.01 0,-0.012 0,-0.018 -0.012,-0.01 -0.017,-0.02 -0.029,-0.027 l 0.029,0.022 c -0.8309,-3.9408 -3.5892,-7.532 -7.58,-8.7246 a 1.0584408,1.0584408 0 0 0 -0.055,-0.014 c -1.2834,-0.3107 -2.5754,-0.4662 -3.8574,-0.4805 z m 5.5976,9.7695 c 1.2956,-0.2203 2.5871,0.073 3.7188,0.6856 0.29,2.1772 0.08,4.3889 -1.3243,6.1309 a 1.0584408,1.0584408 0 0 0 -0.068,0.094 c -0.6746,1.0532 -1.8372,2.0293 -3.0547,2.4961 -1.202,0.4608 -2.3745,0.4543 -3.4277,-0.2207 -0.9275,-0.7439 -1.2494,-1.7566 -1.1856,-2.9863 0.065,-1.2462 0.5907,-2.6342 1.2696,-3.6407 a 1.0584408,1.0584408 0 0 0 0.012,-0.017 c 0.8871,-1.3734 2.4277,-2.2633 4.0605,-2.5411 z"
                id="path41767"
                stroke-width="0.5"
                stroke-linecap="round"
                stroke-linejoin="round"
                stroke="black" />
            <path
                d="m -2042.6406,1615.6582 a 1.0583349,1.0583349 0 0 0 -1.0567,1.0586 1.0583349,1.0583349 0 0 0 1.0567,1.0586 h 204.5254 a 1.0583349,1.0583349 0 0 0 1.0566,-1.0586 1.0583349,1.0583349 0 0 0 -1.0566,-1.0586 z"
                id="path41769"
                stroke-width="0.5"
                stroke-linecap="round"
                stroke-linejoin="round"
                stroke="black" />
            <path
                d="m -2044.541,1624.0254 a 1.0583349,1.0583349 0 0 0 -1.0586,1.0586 1.0583349,1.0583349 0 0 0 1.0586,1.0566 h 204.4805 a 1.0583349,1.0583349 0 0 0 1.0585,-1.0566 1.0583349,1.0583349 0 0 0 -1.0585,-1.0586 z"
                id="path41771"
                stroke-width="0.5"
                stroke-linecap="round"
                stroke-linejoin="round"
                stroke="black" />
            <path
                d="m -1999.7734,1587.7168 a 1.0583349,1.0583349 0 0 0 -1.3692,0.6055 c 0,0 -2.413,6.2352 -4.9551,12.748 -1.271,3.2564 -2.5737,6.5826 -3.623,9.2305 -1.0494,2.6478 -1.8782,4.6861 -2.082,5.123 a 1.0583349,1.0583349 0 0 0 0.5097,1.4063 1.0583349,1.0583349 0 0 0 1.4082,-0.5117 c 0.3138,-0.6723 1.0791,-2.5842 2.1309,-5.2383 1.0518,-2.6541 2.3552,-5.982 3.6269,-9.2403 2.5435,-6.5165 4.959,-12.7539 4.959,-12.7539 a 1.0583349,1.0583349 0 0 0 -0.6054,-1.3691 z"
                id="path41773"
                stroke-width="0.5"
                stroke-linecap="round"
                stroke-linejoin="round"
                stroke="black" />
            <path
                d="m -2006.9297,1574.8398 a 1.0583349,1.0583349 0 0 0 -1.3594,0.629 l -14.6406,39.8691 a 1.0583349,1.0583349 0 0 0 0.6289,1.3574 1.0583349,1.0583349 0 0 0 1.3574,-0.6269 l 14.6426,-39.8692 a 1.0583349,1.0583349 0 0 0 -0.6289,-1.3594 z"
                id="path41775"
                stroke-width="0.5"
                stroke-linecap="round"
                stroke-linejoin="round"
                stroke="black" />
            <path
                d="m -2010.3105,1569.9063 a 1.0583349,1.0583349 0 0 0 -1.3458,0.6562 l -15.3359,44.5215 a 1.0583349,1.0583349 0 0 0 0.6563,1.3437 1.0583349,1.0583349 0 0 0 1.3437,-0.6543 l 15.3379,-44.5214 a 1.0583349,1.0583349 0 0 0 -0.6562,-1.3457 z"
                id="path41777"
                stroke-width="0.5"
                stroke-linecap="round"
                stroke-linejoin="round"
                stroke="black" />
            <path
                d="m -2018.6523,1540.0039 a 1.0583349,1.0583349 0 0 0 -0.6329,0.5039 l -2.6152,4.7031 c -1.5437,2.7777 -1.4572,6.1788 0.2246,8.875 l 38.5586,61.8184 a 1.0583349,1.0583349 0 0 0 1.459,0.3379 1.0583349,1.0583349 0 0 0 0.3379,-1.459 l -38.5586,-61.8164 c -1.2764,-2.0464 -1.3415,-4.6204 -0.1699,-6.7285 l 2.6133,-4.7012 a 1.0583349,1.0583349 0 0 0 -0.4122,-1.4394 1.0583349,1.0583349 0 0 0 -0.8046,-0.094 z"
                id="path41779"
                stroke-width="0.5"
                stroke-linecap="round"
                stroke-linejoin="round"
                stroke="black" />
            <path
                d="m -1877.3887,1609.0059 a 1.0583349,1.0583349 0 0 0 -1.3261,0.6953 l -1.9043,6.1093 a 1.0583349,1.0583349 0 0 0 0.6953,1.3243 1.0583349,1.0583349 0 0 0 1.3261,-0.6953 l 1.9043,-6.1094 a 1.0583349,1.0583349 0 0 0 -0.6953,-1.3242 z"
                id="path41781"
                stroke-width="0.5"
                stroke-linecap="round"
                stroke-linejoin="round"
                stroke="black" />
            <path
                d="m -1923.8105,1536.7539 -91.7911,1.5371 c -3.5181,0.059 -5.6951,4.024 -3.8554,7.0235 l 37.7285,61.5136 c 2.2141,3.6101 6.148,5.8125 10.3828,5.8125 h 90.2012 c 3.5308,0 5.7947,-3.9206 4.0293,-6.9785 l -20.3711,-35.2871 a 1.0583349,1.0583349 0 0 0 -1.4453,-0.3867 1.0583349,1.0583349 0 0 0 -0.3868,1.4453 l 20.3711,35.2871 c 1.0016,1.7349 -0.1941,3.8027 -2.1972,3.8027 h -90.2012 c -3.5016,0 -6.7473,-1.8156 -8.5781,-4.8007 l -37.7285,-61.5157 c -1.0374,-1.6913 0.1022,-3.7676 2.0859,-3.8007 l 91.791,-1.5352 c 3.4594,-0.058 6.6744,1.7613 8.4043,4.7578 l 5.6113,9.7188 a 1.0583349,1.0583349 0 0 0 1.4453,0.3867 1.0583349,1.0583349 0 0 0 0.3868,-1.4453 l -5.6114,-9.7188 c -2.1125,-3.6592 -6.0469,-5.8871 -10.2714,-5.8164 z"
                id="path41783"
                stroke-width="0.5"
                stroke-linecap="round"
                stroke-linejoin="round"
                stroke="black" />
            <path
                d="m -1927.2129,1540.9023 -80.2578,1.3418 c -3.5171,0.059 -5.691,4.0244 -3.8496,7.0215 l 32.8262,53.4278 c 2.217,3.6084 6.1517,5.8105 10.3867,5.8105 h 78.8437 c 3.53,0 5.7906,-3.9227 4.0235,-6.9785 l -18.0274,-31.1719 a 1.0583349,1.0583349 0 0 0 -1.4453,-0.3867 1.0583349,1.0583349 0 0 0 -0.3867,1.4453 l 18.0273,31.1738 c 1.0023,1.7332 -0.1895,3.8008 -2.1914,3.8008 h -78.8437 c -3.5024,0 -6.7505,-1.8165 -8.584,-4.8008 l -32.8242,-53.4277 c -1.0379,-1.6892 0.098,-3.7637 2.0801,-3.7969 l 80.2578,-1.3418 c 3.4602,-0.058 6.6756,1.7619 8.4082,4.7578 l 3.1445,5.4336 a 1.0583349,1.0583349 0 0 0 1.4453,0.3868 1.0583349,1.0583349 0 0 0 0.3867,-1.4473 l -3.1425,-5.4336 c -2.1154,-3.6579 -6.0526,-5.885 -10.2774,-5.8145 z"
                id="path41785"
                stroke-width="0.5"
                stroke-linecap="round"
                stroke-linejoin="round"
                stroke="black" />
            <path
                d="m -1971.5508,1564.4531 c -2.6726,0.1864 -4.7346,1.0086 -6.2422,2.3555 -3.015,2.6937 -3.4101,7.1446 -2.3359,11.6191 1.0742,4.4746 3.6174,9.1395 6.9258,12.7325 3.3047,3.589 7.4161,6.1606 11.7187,6.0546 8.5459,-0.039 15.6183,-5.4976 21.1309,-11.0859 l -0.025,0.025 c 8.1956,-7.7712 22.4981,-7.3054 30.5742,0.4258 0.9862,0.9924 1.9922,2.0878 2.6231,3.2148 0.632,1.1293 0.9026,2.22 0.5664,3.4571 a 1.0584408,1.0584408 0 0 0 -0.02,0.082 c -0.3934,2.105 -1.9959,4.0882 -4.0586,4.3848 a 1.0583349,1.0583349 0 0 0 -0.8984,1.1972 1.0583349,1.0583349 0 0 0 1.1992,0.8965 c 3.1434,-0.4519 5.268,-3.1815 5.8223,-6.0352 0.4902,-1.841 0.04,-3.5801 -0.7637,-5.0156 -0.8079,-1.4433 -1.9519,-2.6509 -2.9746,-3.6797 a 1.0584408,1.0584408 0 0 0 -0.018,-0.018 c -8.9338,-8.5681 -24.3995,-9.0838 -33.5097,-0.4454 a 1.0584408,1.0584408 0 0 0 -0.025,0.024 c -5.36,5.4336 -11.9962,10.4259 -19.6407,10.457 a 1.0584408,1.0584408 0 0 0 -0.023,0 c -3.4075,0.088 -7.0674,-2.0608 -10.1191,-5.375 -3.0518,-3.3143 -5.4524,-7.7384 -6.4258,-11.793 -0.9734,-4.0546 -0.5194,-7.5752 1.6875,-9.5469 2.2069,-1.9717 6.5676,-2.7374 14.1211,-0.4472 a 1.0583349,1.0583349 0 0 0 1.3203,-0.7051 1.0583349,1.0583349 0 0 0 -0.7051,-1.3203 c -3.9477,-1.197 -7.2317,-1.6473 -9.9043,-1.461 z"
                id="path41787"
                stroke-width="0.5"
                stroke-linecap="round"
                stroke-linejoin="round"
                stroke="black" />
            <path
                d="m -2003.0762,1548.502 a 1.0583349,1.0583349 0 0 0 -1.0586,1.0585 1.0583349,1.0583349 0 0 0 1.0586,1.0567 h 5.4297 a 1.0583349,1.0583349 0 0 0 1.0567,-1.0567 1.0583349,1.0583349 0 0 0 -1.0567,-1.0585 z"
                id="path41789"
                stroke-width="0.5"
                stroke-linecap="round"
                stroke-linejoin="round"
                stroke="black" />
            <path
                d="m -1992.3242,1548.502 a 1.0583349,1.0583349 0 0 0 -1.0567,1.0585 1.0583349,1.0583349 0 0 0 1.0567,1.0567 h 5.4297 a 1.0583349,1.0583349 0 0 0 1.0586,-1.0567 1.0583349,1.0583349 0 0 0 -1.0586,-1.0585 z"
                id="path41791"
                stroke-width="0.5"
                stroke-linecap="round"
                stroke-linejoin="round"
                stroke="black" />
            <path
                d="m -1981.3066,1548.502 a 1.0583349,1.0583349 0 0 0 -1.0586,1.0585 1.0583349,1.0583349 0 0 0 1.0586,1.0567 h 5.4296 a 1.0583349,1.0583349 0 0 0 1.0586,-1.0567 1.0583349,1.0583349 0 0 0 -1.0586,-1.0585 z"
                id="path41793"
                stroke-width="0.5"
                stroke-linecap="round"
                stroke-linejoin="round"
                stroke="black" />
            <path
                d="m -1970.4902,1548.502 a 1.0583349,1.0583349 0 0 0 -1.0567,1.0585 1.0583349,1.0583349 0 0 0 1.0567,1.0567 h 5.4297 a 1.0583349,1.0583349 0 0 0 1.0585,-1.0567 1.0583349,1.0583349 0 0 0 -1.0585,-1.0585 z"
                id="path41795"
                stroke-width="0.5"
                stroke-linecap="round"
                stroke-linejoin="round"
                stroke="black" />
            <path
                d="m -2018.6045,1544.4996 39.2241,63.4151 3.178,2.9894 9.7806,1.0448 86.2697,-0.5224 2.2203,0.5224 -1.0594,4.3244 -102.8851,0.5514 -26.3961,-42.446 -13.6116,-24.1616 0.8706,-4.6873 z"
                id="path41797"
                stroke-width="1.05833"
                stroke-linecap="round"
                stroke-linejoin="round"
                stroke="black" />
            <path
                d="m -2060.6738,1418.3965 v 1.0566 78.5332 h 113.6953 v -79.5898 z m 2.1172,2.1152 h 109.4609 v 75.3594 h -109.4609 z"
                id="rect41799"
                stroke-width="0.5"
                stroke="black" />
            <path
                d="m -2027.9023,1429.748 a 1.0584408,1.0584408 0 0 0 -0.8575,0.6583 l -17.0918,42.6347 a 1.0584408,1.0584408 0 0 0 0.9825,1.4531 h 83.3652 a 1.0584408,1.0584408 0 0 0 0.8672,-1.666 l -26.1328,-37.416 a 1.0584408,1.0584408 0 0 0 -1.791,0.088 l -15.2793,27.2129 -23.0743,-32.5254 a 1.0584408,1.0584408 0 0 0 -0.9882,-0.4395 z m 0.3847,3.2481 22.918,32.3047 a 1.0584408,1.0584408 0 0 0 1.7871,-0.094 l 15.2715,-27.1992 24.0058,34.3692 h -79.7695 z"
                id="path41801"
                stroke-width="0.5"
                stroke-linecap="round"
                stroke-linejoin="round"
                stroke="black" />
            <path
                d="m -2037.5586,1466.5879 a 1.0583349,1.0583349 0 0 0 -1.0586,1.0586 1.0583349,1.0583349 0 0 0 1.0586,1.0586 h 72.125 a 1.0583349,1.0583349 0 0 0 1.0586,-1.0586 1.0583349,1.0583349 0 0 0 -1.0586,-1.0586 z"
                id="path41803"
                stroke-width="0.5"
                stroke-linecap="round"
                stroke-linejoin="round"
                stroke="black" />
            <path
                d="m -1972.1465,1458.877 c 0,0 -13.7979,0.1891 -28.4707,0.3418 a 1.0583349,1.0583349 0 0 0 -1.0469,1.0703 1.0583349,1.0583349 0 0 0 1.0703,1.0468 c 14.6774,-0.1527 28.4766,-0.3437 28.4766,-0.3437 a 1.0583349,1.0583349 0 0 0 1.0449,-1.0723 1.0583349,1.0583349 0 0 0 -1.0742,-1.0429 z m -35.8144,0.414 c -6.8498,0.063 -13.4182,0.1097 -18.3692,0.1153 -2.4755,0 -4.5481,-0.01 -6.0429,-0.025 -0.7475,-0.01 -1.3505,-0.023 -1.7813,-0.039 -0.4308,-0.016 -0.8407,-0.09 -0.6133,-0.033 a 1.0583349,1.0583349 0 0 0 -1.2832,0.7715 1.0583349,1.0583349 0 0 0 0.7695,1.2832 c 0.4251,0.1063 0.583,0.076 1.045,0.094 0.462,0.018 1.0787,0.031 1.8359,0.041 1.5144,0.021 3.5913,0.028 6.0723,0.025 4.9619,-0.01 11.534,-0.052 18.3867,-0.1152 a 1.0583349,1.0583349 0 0 0 1.0488,-1.0684 1.0583349,1.0583349 0 0 0 -1.0683,-1.0488 z"
                id="path41805"
                stroke-width="0.5"
                stroke-linecap="round"
                stroke-linejoin="round"
                stroke="black" />
            <path
                d="m -1975.7637,1452.623 c 0,0 -11.012,0.2122 -21.4804,0.2442 a 1.0583349,1.0583349 0 0 0 -1.0567,1.0605 1.0583349,1.0583349 0 0 0 1.0625,1.0547 c 10.4924,-0.032 21.5156,-0.2422 21.5156,-0.2422 a 1.0583349,1.0583349 0 0 0 1.0372,-1.08 1.0583349,1.0583349 0 0 0 -1.0782,-1.0372 z m -36.709,0.1094 c -5.2316,0 -11.1071,0.05 -15.75,0.08 -2.3214,0.015 -4.3352,0.026 -5.8027,0.027 -0.7337,9e-4 -1.3307,-10e-4 -1.7578,-0.01 -0.2136,0 -0.385,0 -0.5039,-0.01 -0.1189,0 -0.2412,-0.023 -0.1211,0 a 1.0583349,1.0583349 0 0 0 -1.2148,0.8769 1.0583349,1.0583349 0 0 0 0.875,1.2129 c 0.1964,0.032 0.2482,0.025 0.3925,0.029 0.1443,0 0.325,0.01 0.5469,0.01 0.4439,0.01 1.0469,0.01 1.7852,0.01 1.4764,0 3.4922,-0.012 5.8144,-0.027 4.6445,-0.03 10.5169,-0.075 15.7383,-0.08 a 1.0583349,1.0583349 0 0 0 1.0566,-1.0586 1.0583349,1.0583349 0 0 0 -1.0586,-1.0586 z"
                id="path41807"
                stroke-width="0.5"
                stroke-linecap="round"
                stroke-linejoin="round"
                stroke="black" />
            <path
                d="m -2033.3262,1445.3477 a 1.0583349,1.0583349 0 0 0 -1.0664,1.0527 1.0583349,1.0583349 0 0 0 1.0508,1.0644 l 16.5898,0.1114 a 1.0583349,1.0583349 0 0 0 1.0665,-1.0508 1.0583349,1.0583349 0 0 0 -1.0508,-1.0645 z m 40.0996,0.2011 a 1.0583349,1.0583349 0 0 0 -1.0703,1.0469 1.0583349,1.0583349 0 0 0 1.0469,1.0703 l 13.0215,0.1387 a 1.0583349,1.0583349 0 0 0 1.0703,-1.0469 1.0583349,1.0583349 0 0 0 -1.0469,-1.0703 z"
                id="path41809"
                stroke-width="0.5"
                stroke-linecap="round"
                stroke-linejoin="round"
                stroke="black" />
            <path id="ellipse41811"
                d="m -2002.984,1438.2336 a 4.3149514,4.3151722 0 0 1 -4.315,4.3152 4.3149514,4.3151722 0 0 1 -4.3149,-4.3152 4.3149514,4.3151722 0 0 1 4.3149,-4.3151 4.3149514,4.3151722 0 0 1 4.315,4.3151 z"
                stroke-width="1.05833"
                stroke="black" />
            <path
                d="m -2059.0918,1385.5781 a 1.0583349,1.0583349 0 0 0 -1.0547,1.0606 l 0.029,10.9765 a 1.0583349,1.0583349 0 0 0 1.0625,1.0547 1.0583349,1.0583349 0 0 0 1.0547,-1.0605 l -0.029,-10.9766 a 1.0583349,1.0583349 0 0 0 -1.0625,-1.0547 z"
                id="path41813"
                stroke-width="0.5"
                stroke-linecap="round"
                stroke-linejoin="round"
                stroke="black" />
            <path
                d="m -2085.8633,1395.9004 a 1.0583349,1.0583349 0 0 0 -1.4863,0.166 1.0583349,1.0583349 0 0 0 0.1641,1.4863 l 11.6308,9.3008 a 1.0583349,1.0583349 0 0 0 1.4883,-0.164 1.0583349,1.0583349 0 0 0 -0.166,-1.4883 z"
                id="path41815"
                stroke-width="0.5"
                stroke-linecap="round"
                stroke-linejoin="round"
                stroke="black" />
            <path
                d="m -2082.5664,1421.8535 -12.9688,0.6582 a 1.0583349,1.0583349 0 0 0 -1.0039,1.1094 1.0583349,1.0583349 0 0 0 1.1114,1.0039 l 12.9687,-0.6562 a 1.0583349,1.0583349 0 0 0 1.0039,-1.1114 1.0583349,1.0583349 0 0 0 -1.1113,-1.0039 z"
                id="path41817"
                stroke-width="0.5"
                stroke-linecap="round"
                stroke-linejoin="round"
                stroke="black" />
            <path
                d="m -2007.5794,1576.7221 -14.0278,39.2359 c 0,0 10.8233,0.7416 11.022,0 0.1987,-0.7416 10.722,-28.6973 10.722,-28.6973 z"
                id="path41819"
                stroke-width="1.05833"
                stroke-linecap="round"
                stroke-linejoin="round"
                stroke="black" />
        </g>
    </g>
</svg>