<?xml version="1.0" encoding="UTF-8" standalone="no"?>
<!-- Created with Inkscape (http://www.inkscape.org/) -->

<svg width="100%" height="100%"
    viewBox="0 0 702.15218 847.45685"
    version="1.1" id="svg5"
    xml:space="preserve"
    xmlns="http://www.w3.org/2000/svg"
    xmlns:svg="http://www.w3.org/2000/svg">
    <defs id="defs2" />
    <g id="layer1"
        transform="translate(-321.65606,-1280.5131)">
        <g id="notion-selfie-together-content-creator"
            transform="matrix(2,0,0,2,-2008.9903,1153.0266)"
            style="stroke-width:0.5">
            <title id="title88221">
                notion-selfie-together-content-creator
            </title>
            <path
                d="m 1193.4592,117.24699 c -4.6835,-2.79624 -3.2225,-18.071785 4.4636,-17.17719 -5.1902,-13.17134 7.8737,-25.618795 17.5977,-17.577365 10.5624,-26.108249 37.5977,-10.580701 32.4715,8.700709 10.832,3.66586 17.3952,11.342426 10.1426,28.377996 0,0 -1.3544,7.42396 -1.4879,6.68515 -0.1334,-0.73881 -1.187,-9.44267 -3.0937,-13.26255 -1.9067,-3.81988 -9.1517,-4.91176 -14.4527,-4.94075 -6.8738,11.07302 -16.6813,17.27543 -27.7253,21.4253 -0.8173,0.66174 -0.6424,1.2028 -0.472,1.7444 l 1.3544,5.40763 c 0,0 -5.2819,-9.26054 -8.0446,-7.12125 -2.7627,2.13929 -5.1888,14.3489 9.984,14.67348 1.7378,1.80432 2.2609,3.70033 2.5652,5.61285 -17.9596,8.65781 -37.8527,-19.40071 -23.3028,-32.54841 z"
                id="path41019"
                stroke-width="1.05833"
                stroke-linecap="round"
                stroke-linejoin="round"
                stroke="black" />
            <g id="path41021"
                style="stroke-width:0.5">
                <path
                    d="m 1235.42,118.65101 c -6.0073,-0.44843 -8.3745,0.52245 -10.6766,1.51866"
                    id="path73299"
                    stroke-width="1.05833"
                    stroke-linecap="round"
                    stroke-linejoin="round"
                    stroke="black" />
                <path
                    d="m 1231.4883,117.51172 c -3.4642,0.15154 -5.43,0.93623 -7.166,1.6875 a 1.0583349,1.0583349 0 0 0 -0.5508,1.39062 1.0583349,1.0583349 0 0 0 1.3926,0.55079 c 2.2894,-0.99073 4.3041,-1.87205 10.1777,-1.4336 a 1.0583349,1.0583349 0 0 0 1.1328,-0.97656 1.0583349,1.0583349 0 0 0 -0.9766,-1.13477 c -1.5352,-0.1146 -2.855,-0.1345 -4.0097,-0.084 z"
                    id="path73301"
                    stroke-width="0.5"
                    stroke-linecap="round"
                    stroke-linejoin="round"
                    stroke="black" />
            </g>
            <path
                d="m 1252.377,116.65039 c -2.8027,0.2047 -4.9888,1.23853 -6.5235,2.81445 -2.0462,2.10124 -2.9034,5.03334 -2.9551,7.97266 -0.052,2.93932 0.6893,5.92335 2.0118,8.31055 1.3224,2.38719 3.2848,4.26127 5.7636,4.53906 a 1.0583349,1.0583349 0 0 0 1.17,-0.93359 1.0583349,1.0583349 0 0 0 -0.9356,-1.16993 c -1.5255,-0.17096 -3.0287,-1.44325 -4.1465,-3.46093 -1.1178,-2.01768 -1.7909,-4.69788 -1.7461,-7.24805 0.045,-2.55017 0.7941,-4.93183 2.3535,-6.5332 1.5595,-1.60137 3.9572,-2.55556 7.7657,-2.10547 a 1.0583349,1.0583349 0 0 0 1.1757,-0.92774 1.0583349,1.0583349 0 0 0 -0.9257,-1.17578 c -1.0698,-0.12642 -2.0736,-0.15026 -3.0078,-0.082 z"
                id="path41023"
                stroke-width="0.5"
                stroke-linecap="round"
                stroke-linejoin="round"
                stroke="black" />
            <path
                d="m 1255.8848,117.52734 a 1.0583349,1.0583349 0 0 0 -0.8614,1.22461 c 3.0071,17.36259 -1.5217,32.12006 -9.2168,38.70899 -3.8475,3.29446 -8.4101,4.61592 -13.4726,3.39453 -5.0625,-1.2214 -10.6794,-5.07595 -16.2969,-12.42578 a 1.0583349,1.0583349 0 0 0 -1.4844,-0.19922 1.0583349,1.0583349 0 0 0 -0.1972,1.48437 c 5.8134,7.60616 11.7841,11.82442 17.4824,13.19922 5.6983,1.37481 11.07,-0.1846 15.3457,-3.8457 8.5514,-7.3222 13.0252,-22.77031 9.9238,-40.67773 a 1.0583349,1.0583349 0 0 0 -1.2226,-0.86329 z"
                id="path41025"
                stroke-width="0.5"
                stroke-linecap="round"
                stroke-linejoin="round"
                stroke="black" />
            <path id="ellipse41027"
                d="m 1233.2792,130.29431 a 2.2446055,3.6504099 0 0 1 -2.2447,3.65041 2.2446055,3.6504099 0 0 1 -2.2446,-3.65041 2.2446055,3.6504099 0 0 1 2.2446,-3.65041 2.2446055,3.6504099 0 0 1 2.2447,3.65041 z"
                stroke-width="0.132291"
                stroke="black" />
            <path id="ellipse41029"
                d="m 1252.1903,127.56228 a 2.2446055,3.0680888 0 0 1 -2.2446,3.06809 2.2446055,3.0680888 0 0 1 -2.2446,-3.06809 2.2446055,3.0680888 0 0 1 2.2446,-3.06809 2.2446055,3.0680888 0 0 1 2.2446,3.06809 z"
                stroke-width="0.132291"
                stroke="black" />
            <path
                d="m 1233.9277,145.67187 a 1.0583349,1.0583349 0 0 0 -0.3007,1.4668 c 1.3915,2.10824 3.202,3.41144 5.2011,3.98242 1.9992,0.57098 4.1421,0.43466 6.3028,-0.10742 a 1.0583349,1.0583349 0 0 0 0.7695,-1.2832 1.0583349,1.0583349 0 0 0 -1.2832,-0.76953 c -1.919,0.48144 -3.6834,0.56072 -5.209,0.125 -1.5256,-0.43573 -2.8565,-1.36011 -4.0137,-3.11328 a 1.0583349,1.0583349 0 0 0 -1.4668,-0.30079 z"
                id="path41031"
                stroke-width="0.5"
                stroke-linecap="round"
                stroke-linejoin="round"
                stroke="black" />
            <g id="g41055"
                style="stroke-width:0.5">
                <path id="path41033"
                    d="m 1280.5112,63.74342 c -0.5895,0.0025 -1.1778,0.03393 -1.7632,0.09457 -6.4278,0.665901 -12.4175,4.754943 -16.2615,11.74967 -1.2969,2.359998 -0.9912,4.528668 -0.541,6.234762 0.4502,1.706092 0.9124,2.973001 0.541,4.209045 -0.297,0.988506 -1.3714,2.664908 -2.3714,3.978052 -0.9999,1.313142 -1.9043,2.31252 -1.9043,2.31252 -0.2937,0.323966 -0.358,0.795203 -0.1617,1.185974 2.8043,5.593083 4.4487,9.031827 4.8612,12.669507 0.4124,3.6377 -0.3703,7.6577 -2.6681,14.48077 -2.4702,7.33482 0.2238,15.6712 4.7578,20.66799 2.267,2.4984 5.0486,4.20447 8.0114,4.35529 2.9628,0.15082 5.9675,-1.37024 8.3442,-4.79506 0.3022,-0.43511 0.2362,-1.02663 -0.1545,-1.38441 -4.1084,-3.76138 -6.7222,-8.13995 -6.9706,-13.91439 -0.023,-0.54214 -0.4526,-0.97892 -0.9943,-1.01131 l -3.7868,-0.22686 c -1.7466,-1.10908 -2.6453,-2.01106 -2.9301,-3.28714 -0.2698,-1.20893 0.098,-3.14753 1.1312,-5.95312 l 2.5621,0.26975 c 0.5607,0.0591 1.0694,-0.33179 1.1566,-0.88884 l 0.6718,-4.29276 c 7.8622,-2.0584 14.9613,-5.79282 20.4494,-12.484505 5.7456,4.957965 12.2621,9.052715 21.1015,9.021665 1.9523,5.06571 1.6566,10.08149 1.3534,15.31018 -0.039,0.66272 0.5349,1.19722 1.1932,1.11156 2.0529,-0.26649 4.3689,-1.56334 6.5764,-3.51193 2.2076,-1.94859 4.2679,-4.57853 5.5076,-7.64036 1.2396,-3.06184 1.6392,-6.58388 0.4398,-10.1446 -1.1639,-3.455402 -3.8479,-6.886039 -8.4553,-10.013858 0.5234,-6.961359 -0.1497,-12.3101 -7.5783,-17.99425 -4.1424,-3.169648 -9.3917,-3.94952 -15.7769,-2.062406 -4.8042,-5.377337 -10.6413,-8.069368 -16.3406,-8.045504 z"
                    stroke-width="1.05833"
                    stroke-linecap="round"
                    stroke-linejoin="round"
                    stroke="black" />
                <path
                    d="m 1277.8223,149.89062 -16.1621,14.41016 a 1.0583349,1.0583349 0 0 0 -0.086,1.49414 1.0583349,1.0583349 0 0 0 1.4942,0.0859 l 16.1621,-14.41016 a 1.0583349,1.0583349 0 0 0 0.086,-1.49414 1.0583349,1.0583349 0 0 0 -1.4941,-0.0859 z"
                    id="path41035"
                    stroke-width="0.5"
                    stroke-linecap="round"
                    stroke-linejoin="round"
                    stroke="black" />
                <path
                    d="m 1300.0215,143.08203 a 1.0584408,1.0584408 0 0 0 -0.2442,1.42969 c 0.9119,1.36634 1.5487,3.02677 1.8028,4.56055 0.2541,1.53377 0.1002,2.92441 -0.3379,3.74023 -1.8257,3.39948 -5.0442,5.46336 -8.7227,4.9043 -3.6784,-0.55906 -8.1048,-3.86058 -11.9922,-11.97852 a 1.0584408,1.0584408 0 0 0 -2.0097,0.39258 c -0.8038,12.96918 5.4498,19.89104 12.4668,21.79883 7.017,1.90779 14.8301,-0.95018 16.8965,-7.12305 1.0667,-3.18658 0.3851,-6.49071 -0.9942,-9.49805 -1.3611,-2.96781 -3.4136,-5.69748 -5.3476,-7.9707 -0.026,-0.0303 -0.051,-0.0695 -0.076,-0.0996 a 1.0584408,1.0584408 0 0 0 -1.4414,-0.15625 z m 3.709,6.98828 c 0.4201,0.7076 0.9004,1.39725 1.2324,2.1211 1.2455,2.71567 1.7504,5.43314 0.9101,7.94336 -1.6034,4.79002 -8.2236,7.41269 -14.332,5.75195 -5.4173,-1.47288 -10.3814,-6.14545 -10.9101,-15.73633 3.6157,5.96712 7.6647,9.06464 11.5703,9.6582 4.6383,0.70494 8.7467,-1.97314 10.9062,-5.99414 0.5817,-1.08308 0.6903,-2.39102 0.6231,-3.74414 z"
                    id="path41037"
                    opacity="0.98"
                    stroke-width="0.5"
                    stroke-linecap="round"
                    stroke-linejoin="round"
                    stroke="black" />
                <path
                    d="m 1280.2227,160.11523 c -2.5572,0.13197 -4.7633,0.97865 -6.6387,2.34961 -2.5006,1.82795 -4.4368,4.51845 -6.2129,7.625 a 1.0583349,1.0583349 0 0 0 0.3945,1.44336 1.0583349,1.0583349 0 0 0 1.4434,-0.39258 c 1.7061,-2.98403 3.5092,-5.42016 5.625,-6.96679 2.1157,-1.54664 4.5236,-2.27308 7.789,-1.84571 a 1.0583349,1.0583349 0 0 0 1.1856,-0.9121 1.0583349,1.0583349 0 0 0 -0.9121,-1.1875 c -0.9316,-0.12193 -1.8215,-0.15727 -2.6738,-0.11329 z"
                    id="path41039"
                    stroke-width="0.5"
                    stroke-linecap="round"
                    stroke-linejoin="round"
                    stroke="black" />
                <path
                    d="m 1321.1738,156.44336 a 1.0583349,1.0583349 0 0 0 -0.7402,0.32422 c 0,0 -2.1295,2.21764 -4.9453,4.73242 -2.8159,2.51478 -6.3654,5.3185 -8.8887,6.41016 -2.6771,1.1582 -5.866,1.13897 -9.1992,1.13086 -3.3332,-0.008 -6.8212,-0.004 -9.9785,1.59375 -2.5603,1.29545 -5.1964,4.0667 -7.3184,6.5332 -2.1219,2.4665 -3.6719,4.64453 -3.6719,4.64453 a 1.0583349,1.0583349 0 0 0 0.25,1.47461 1.0583349,1.0583349 0 0 0 1.4747,-0.24805 c 0,0 1.4982,-2.10442 3.5507,-4.49023 2.0526,-2.38581 4.7185,-5.038 6.67,-6.02539 2.5863,-1.30863 5.7048,-1.3733 9.0195,-1.36524 3.3146,0.008 6.8142,0.091 10.0449,-1.30664 3.038,-1.3143 6.5754,-4.1999 9.457,-6.77344 2.8817,-2.57353 5.0606,-4.84374 5.0606,-4.84375 a 1.0583349,1.0583349 0 0 0 -0.029,-1.49609 1.0583349,1.0583349 0 0 0 -0.7559,-0.29492 z"
                    id="path41041"
                    opacity="0.98"
                    stroke-width="0.5"
                    stroke-linecap="round"
                    stroke-linejoin="round"
                    stroke="black" />
                <path
                    d="m 1370.0605,147.35937 c -3.3254,0.15458 -7.2038,0.55777 -9.7871,2.03125 -3.0023,1.71256 -4.5791,4.7664 -6.0722,7.625 -1.4931,2.85861 -2.9111,5.5298 -5.1817,6.95704 -2.9769,1.87121 -6.8065,2.09163 -10.8496,2.26953 -4.043,0.1779 -8.2973,0.31347 -11.9101,2.52734 -3.2274,1.97766 -4.9571,5.39794 -6.666,8.5332 -1.709,3.13527 -3.3748,5.96369 -6.0528,7.28321 -2.2337,1.10061 -5.0394,0.69423 -8.1015,0.17187 -3.0622,-0.52236 -6.3723,-1.16183 -9.42,0.23633 -2.9102,1.33509 -5.6851,4.5251 -7.8906,7.38477 -2.2055,2.85966 -3.7656,5.42187 -3.7656,5.42187 a 1.0583349,1.0583349 0 0 0 0.3535,1.45508 1.0583349,1.0583349 0 0 0 1.4531,-0.35352 c 0,0 1.508,-2.47276 3.6348,-5.23047 2.1268,-2.7577 4.9475,-5.7675 7.0976,-6.7539 2.2699,-1.04133 5.1101,-0.59784 8.1797,-0.0742 3.0696,0.52362 6.3803,1.12586 9.3946,-0.35938 3.418,-1.68415 5.2552,-5.0119 6.9765,-8.16992 1.7214,-3.15802 3.3471,-6.16721 5.9141,-7.74023 3.0009,-1.83888 6.8481,-2.0407 10.8945,-2.21875 4.0464,-0.17805 8.2946,-0.33317 11.8848,-2.58985 2.9162,-1.83303 4.4442,-4.92373 5.9316,-7.77148 1.4875,-2.84775 2.925,-5.44274 5.2442,-6.76562 1.8738,-1.06887 5.6363,-1.60518 8.8359,-1.75391 3.1996,-0.14873 5.8535,0.0137 5.8535,0.0137 a 1.0583349,1.0583349 0 0 0 1.1211,-0.99219 1.0583349,1.0583349 0 0 0 -0.9902,-1.12109 c 0,0 -2.7566,-0.1702 -6.0821,-0.0156 z"
                    id="path41043"
                    opacity="0.98"
                    stroke-width="0.5"
                    stroke-linecap="round"
                    stroke-linejoin="round"
                    stroke="black" />
                <path
                    d="m 1334.5059,189.76172 c -1.2911,-0.0614 -2.7959,-0.10345 -4.0391,0.63867 -2.9645,1.76958 -3.9392,5.19373 -4.9141,8.24609 -0.9748,3.05237 -1.9301,5.70828 -4.0566,6.8086 -2.4576,1.27165 -5.5636,0.39907 -9.0078,-0.69141 -3.4442,-1.09047 -7.1935,-2.40134 -10.6914,-0.85351 -2.8972,1.28201 -5.318,4.5713 -7.2051,7.52343 -1.8871,2.95214 -3.1465,5.625 -3.1465,5.625 a 1.0583349,1.0583349 0 0 0 0.5039,1.40821 1.0583349,1.0583349 0 0 0 1.4082,-0.50391 c 0,0 1.2122,-2.56432 3.0176,-5.38867 1.8054,-2.82435 4.2985,-5.85202 6.2793,-6.72852 2.5423,-1.12494 5.7375,-0.15924 9.1953,0.93555 3.4578,1.09479 7.2105,2.31647 10.6192,0.55273 3.0776,-1.59248 4.1203,-4.97704 5.0996,-8.04296 0.9792,-3.06593 1.9155,-5.83848 3.9824,-7.07227 0.3824,-0.22825 1.714,-0.396 2.8535,-0.3418 1.1395,0.0542 2.0937,0.22071 2.0937,0.22071 a 1.0583349,1.0583349 0 0 0 1.2266,-0.85743 1.0583349,1.0583349 0 0 0 -0.8574,-1.22656 c 0,0 -1.0703,-0.19054 -2.3613,-0.25195 z"
                    id="path41045"
                    opacity="0.98"
                    stroke-width="0.5"
                    stroke-linecap="round"
                    stroke-linejoin="round"
                    stroke="black" />
                <path
                    d="m 1342.4082,204.98437 c -1.1772,-0.0157 -2.5443,-0.0139 -3.6914,0.67383 -2.916,1.74841 -4.0533,4.99604 -5.1484,7.94922 -1.0952,2.95318 -2.1479,5.61244 -4.2481,6.875 -2.8304,1.70152 -6.4567,1.41789 -10.3887,0.9707 -3.932,-0.44718 -8.1339,-1.06462 -11.8925,0.69727 -2.4623,1.15421 -4.8963,3.75155 -6.8536,6.07031 -1.9572,2.31877 -3.373,4.38282 -3.373,4.38282 a 1.0583349,1.0583349 0 0 0 0.2754,1.4707 1.0583349,1.0583349 0 0 0 1.4707,-0.27344 c 0,0 1.3618,-1.98488 3.2441,-4.21484 1.8824,-2.22996 4.3507,-4.68124 6.1348,-5.51758 3.0149,-1.41325 6.7959,-0.96209 10.7559,-0.51172 3.9599,0.45037 8.1357,0.89303 11.7168,-1.25977 2.9136,-1.7516 4.0494,-5.00022 5.1445,-7.95312 1.095,-2.9529 2.1485,-5.60912 4.25,-6.86914 0.3318,-0.19898 1.5437,-0.38874 2.5762,-0.375 1.0325,0.0137 1.8964,0.13086 1.8964,0.13086 a 1.0583349,1.0583349 0 0 0 1.1915,-0.90625 1.0583349,1.0583349 0 0 0 -0.9063,-1.19141 c 0,0 -0.9771,-0.13277 -2.1543,-0.14844 z"
                    id="path41047"
                    opacity="0.98"
                    stroke-width="0.5"
                    stroke-linecap="round"
                    stroke-linejoin="round"
                    stroke="black" />
                <path
                    d="m 1353.2246,224.16797 c 0,0 -1.3305,0.008 -2.9258,0.1875 -1.5953,0.17952 -3.4421,0.45549 -4.7968,1.33203 -2.9297,1.89546 -4.2892,5.13354 -5.6172,8.10352 -1.3281,2.96997 -2.6156,5.66119 -4.8965,7.00976 -2.6484,1.56588 -5.9761,1.49596 -9.584,1.26953 -3.6079,-0.22642 -7.4582,-0.61539 -10.9805,0.86524 -3.6769,1.54561 -5.7636,4.97764 -8.3925,6.87109 -1.5021,1.08188 -4.9786,3.10742 -4.9786,3.10742 a 1.0583349,1.0583349 0 0 0 -0.3847,1.44531 1.0583349,1.0583349 0 0 0 1.4472,0.38477 c 0,0 3.4243,-1.97602 5.1524,-3.2207 3.1118,-2.24123 5.1315,-5.44082 7.9765,-6.63672 2.8722,-1.20736 6.3801,-0.93203 10.0274,-0.70313 3.6473,0.2289 7.4705,0.40388 10.793,-1.56054 3.0128,-1.78134 4.4193,-4.98864 5.7519,-7.96875 1.3326,-2.98011 2.6003,-5.74426 4.834,-7.18946 0.6827,-0.44172 2.4124,-0.84016 3.8848,-1.00586 1.4723,-0.16569 2.7011,-0.17382 2.7011,-0.17382 a 1.0583349,1.0583349 0 0 0 1.0528,-1.06446 1.0583349,1.0583349 0 0 0 -1.0645,-1.05273 z"
                    id="path41049"
                    opacity="0.98"
                    stroke-width="0.5"
                    stroke-linecap="round"
                    stroke-linejoin="round"
                    stroke="black" />
                <path
                    d="m 1362.7832,241.52344 c 0,0 -1.2858,0.14186 -2.8301,0.45703 -1.5442,0.31516 -3.3314,0.74488 -4.6133,1.59961 -3.1993,2.13327 -4.9321,5.59883 -6.6425,8.80859 -1.7105,3.20976 -3.3841,6.14835 -6.0821,7.67188 -2.6261,1.48294 -5.9285,1.3955 -9.4785,1.20312 -3.55,-0.19237 -7.3297,-0.49314 -10.7304,1.12891 -2.6537,1.2657 -4.3883,3.56464 -6.0274,5.72265 -1.6391,2.15802 -3.189,4.17998 -5.2207,5.25196 -0.3619,0.19096 -1.3738,0.43557 -2.2148,0.55468 -0.841,0.11912 -1.5332,0.16016 -1.5332,0.16016 a 1.0583349,1.0583349 0 0 0 -0.9942,1.11914 1.0583349,1.0583349 0 0 0 1.1192,0.99414 c 0,0 0.7705,-0.0454 1.705,-0.17773 0.9346,-0.13236 2.0118,-0.30538 2.9063,-0.77735 2.5895,-1.36626 4.2863,-3.69754 5.918,-5.8457 1.6316,-2.14816 3.1915,-4.10814 5.2539,-5.0918 2.7398,-1.30678 6.1351,-1.11728 9.705,-0.92382 3.57,0.19345 7.333,0.38769 10.6309,-1.47461 3.3667,-1.90116 5.1916,-5.2908 6.9121,-8.51953 1.7205,-3.22874 3.3518,-6.31234 5.9473,-8.04297 0.7214,-0.48105 2.4201,-0.99297 3.8613,-1.28711 1.4412,-0.29414 2.6406,-0.42774 2.6406,-0.42774 a 1.0583349,1.0583349 0 0 0 0.9356,-1.16992 1.0583349,1.0583349 0 0 0 -1.168,-0.93359 z"
                    id="path41051"
                    opacity="0.98"
                    stroke-width="0.5"
                    stroke-linecap="round"
                    stroke-linejoin="round"
                    stroke="black" />
                <path
                    d="m 1368.7539,130.16406 c -0.4968,0.07 -1.017,0.24451 -1.9883,0.53711 -0.9712,0.29261 -2.2512,0.69161 -3.7363,1.16211 -2.9702,0.941 -6.7591,2.16336 -10.4922,3.35156 -3.7331,1.18821 -7.4124,2.34274 -10.1484,3.14844 -1.368,0.40285 -2.503,0.71984 -3.2696,0.9043 -0.3832,0.0922 -0.6818,0.15104 -0.8242,0.16992 -0.071,0.009 -0.1138,8.7e-4 -0.025,0.008 0.044,0.003 0.1248,-0.001 0.3106,0.0879 0.1857,0.0892 0.539,0.43527 0.5722,0.83789 a 1.0583349,1.0583349 0 0 0 -1.1425,-0.96875 1.0583349,1.0583349 0 0 0 -0.9668,1.14258 c 0.035,0.4271 0.4055,0.793 0.6211,0.89649 0.2155,0.10348 0.3385,0.1073 0.4394,0.11523 0.2019,0.0159 0.3258,-0.002 0.4707,-0.0215 0.2899,-0.0384 0.6226,-0.11025 1.041,-0.21094 0.8369,-0.20139 1.9887,-0.52202 3.3731,-0.92969 2.7687,-0.81534 6.4533,-1.97427 10.1914,-3.16406 3.7381,-1.1898 7.5267,-2.41133 10.4883,-3.34961 1.4808,-0.46914 2.7566,-0.86738 3.709,-1.1543 0.7898,-0.23796 1.2127,-0.34018 1.3867,-0.38672 0.092,0.0879 0.1944,0.18416 0.3496,0.375 0.4041,0.49692 0.9476,1.28965 1.5527,2.25586 1.2102,1.93243 2.6896,4.57646 4.1309,7.24219 1.4412,2.66573 2.8462,5.35571 3.9258,7.40625 0.5397,1.02527 0.9968,1.88971 1.3418,2.51953 0.03,0.0543 0.046,0.0821 0.074,0.13281 -17.0106,8.459 -32.1701,19.93262 -45.543,34.27344 a 1.0584408,1.0584408 0 0 0 -0.1699,1.19727 l 32.0058,63.57226 c -6.4584,13.25947 -15.4416,19.67487 -25.6718,23.38477 -10.3505,3.75349 -21.9835,4.66752 -33.2598,6.83398 a 1.0583349,1.0583349 0 0 0 -0.8398,1.23828 1.0583349,1.0583349 0 0 0 1.2382,0.83985 c 11.1164,-2.13573 22.8607,-3.03388 33.5821,-6.92188 10.7213,-3.88799 20.4026,-10.86516 27.0976,-24.9082 a 1.0584408,1.0584408 0 0 0 -0.01,-0.92969 L 1336.662,187.4787 c 13.3607,-14.20935 28.4414,-25.57988 45.4199,-33.86133 a 1.0584408,1.0584408 0 0 0 0.1407,-1.81836 c 0.312,0.21735 0.2028,0.19323 0.1894,0.17383 -0.013,-0.0194 -0.05,-0.0752 -0.096,-0.15235 -0.092,-0.15428 -0.2286,-0.39628 -0.3945,-0.69922 -0.3319,-0.60587 -0.7878,-1.46568 -1.3262,-2.48828 -1.0767,-2.0452 -2.4866,-4.7423 -3.9375,-7.42578 -1.4509,-2.68348 -2.9405,-5.35142 -4.1992,-7.36133 -0.6294,-1.00495 -1.196,-1.84112 -1.7031,-2.46484 -0.2536,-0.31186 -0.4865,-0.57152 -0.7539,-0.79102 -0.2675,-0.21949 -0.5864,-0.519 -1.2481,-0.42578 z"
                    id="path41053"
                    opacity="0.98"
                    stroke-width="0.5"
                    stroke-linecap="round"
                    stroke-linejoin="round"
                    stroke="black" />
            </g>
            <path
                d="m 1269.5157,114.95351 c 0,0 1.5527,7.75638 1.618,7.29202 0.023,-0.16366 0.7446,0.60947 0.8006,-1.34149 0.1167,-4.06726 0.1462,-11.2436 0.1462,-11.2436 z"
                id="path41057"
                stroke-width="1.05833"
                stroke-linecap="round"
                stroke-linejoin="round"
                stroke="black" />
            <path
                d="m 1286.1504,106.89258 c -1.233,-0.099 -2.3973,0.0183 -3.4922,0.33203 -2.1898,0.62743 -4.0549,1.99314 -5.7598,3.73633 a 1.0583349,1.0583349 0 0 0 0.016,1.49804 1.0583349,1.0583349 0 0 0 1.498,-0.0176 c 1.5513,-1.58613 3.1164,-2.69121 4.8281,-3.18164 1.7118,-0.49044 3.616,-0.40909 6.0176,0.56445 a 1.0583349,1.0583349 0 0 0 1.3789,-0.58399 1.0583349,1.0583349 0 0 0 -0.584,-1.3789 c -1.3687,-0.55486 -2.6693,-0.86981 -3.9023,-0.96875 z"
                id="path41059"
                stroke-width="0.5"
                stroke-linecap="round"
                stroke-linejoin="round"
                stroke="black" />
            <path
                d="m 1307.7461,107.53711 c -1.2615,-0.27195 -2.557,-0.22452 -3.7813,0.0996 -2.4485,0.64826 -4.6512,2.33649 -6.0742,4.66016 -2.846,4.64733 -2.3382,11.89615 5.4942,18.07812 a 1.0583349,1.0583349 0 0 0 1.4863,-0.17578 1.0583349,1.0583349 0 0 0 -0.1758,-1.48633 c -7.2609,-5.73087 -7.2989,-11.55345 -4.998,-15.31055 1.1504,-1.87854 2.9447,-3.22527 4.8086,-3.71875 1.8639,-0.49347 3.7595,-0.19636 5.4199,1.26368 a 1.0583349,1.0583349 0 0 0 1.4941,-0.0957 1.0583349,1.0583349 0 0 0 -0.096,-1.49414 c -1.0885,-0.95716 -2.3166,-1.54836 -3.5781,-1.82031 z"
                id="path41061"
                stroke-width="0.5"
                stroke-linecap="round"
                stroke-linejoin="round"
                stroke="black" />
            <path
                d="m 1286.627,112.04102 c -1.8191,-0.24423 -3.7766,0.2838 -5.2286,1.74218 -1.4519,1.45838 -2.3482,3.77275 -2.3418,6.91993 a 1.0583349,1.0583349 0 0 0 1.0606,1.05664 1.0583349,1.0583349 0 0 0 1.0547,-1.06055 c -0.01,-2.74904 0.7548,-4.44583 1.7265,-5.42188 0.9718,-0.97604 2.2056,-1.30538 3.4473,-1.13867 2.4834,0.33343 4.8393,2.58978 3.9121,6.30664 a 1.0583349,1.0583349 0 0 0 0.7695,1.28321 1.0583349,1.0583349 0 0 0 1.2832,-0.77149 c 1.1944,-4.78803 -2.0455,-8.42756 -5.6835,-8.91601 z"
                id="path41063"
                stroke-width="0.5"
                stroke-linecap="round"
                stroke-linejoin="round"
                stroke="black" />
            <path
                d="m 1301.8945,112.26758 c -1.0304,0.0136 -2.0984,0.22678 -3.164,0.52539 a 1.0583349,1.0583349 0 0 0 -0.7344,1.30469 1.0583349,1.0583349 0 0 0 1.3047,0.73242 c 1.9115,-0.53566 3.4652,-0.60771 4.5097,-0.0332 1.0446,0.5745 1.9364,1.90064 2.2872,4.97851 a 1.0583349,1.0583349 0 0 0 1.1718,0.93164 1.0583349,1.0583349 0 0 0 0.9317,-1.16992 c -0.3907,-3.42843 -1.5449,-5.59132 -3.3711,-6.5957 -0.9131,-0.5022 -1.9051,-0.6874 -2.9356,-0.67383 z"
                id="path41065"
                stroke-width="0.5"
                stroke-linecap="round"
                stroke-linejoin="round"
                stroke="black" />
            <path
                d="m 1316.0273,121.43164 a 1.0583349,1.0583349 0 0 0 -1.2128,0.875 c -1.4676,9.01973 -6.2719,15.81081 -12.459,19.08398 -6.1871,3.27318 -13.7686,3.12391 -21.1953,-1.99218 a 1.0583349,1.0583349 0 0 0 -1.4707,0.27148 1.0583349,1.0583349 0 0 0 0.2695,1.4707 c 7.9749,5.49375 16.5317,5.74762 23.3867,2.1211 6.855,-3.62653 11.9984,-11.03825 13.5566,-20.61524 a 1.0583349,1.0583349 0 0 0 -0.875,-1.21484 z"
                id="path41067"
                stroke-width="0.5"
                stroke-linecap="round"
                stroke-linejoin="round"
                stroke="black" />
            <path
                d="m 1299.7207,132.14844 a 1.0583349,1.0583349 0 0 0 -1.3633,0.61523 c -0.2455,0.65098 -1.5381,1.72117 -3.0488,2.06641 -1.5107,0.34524 -3.0388,0.11725 -4.0938,-1.15235 a 1.0583349,1.0583349 0 0 0 -1.4902,-0.13867 1.0583349,1.0583349 0 0 0 -0.1387,1.49024 c 1.6361,1.96895 4.1295,2.33492 6.1934,1.86328 2.0638,-0.47165 3.898,-1.62894 4.5586,-3.38086 a 1.0583349,1.0583349 0 0 0 -0.6172,-1.36328 z"
                id="path41069"
                stroke-width="0.5"
                stroke-linecap="round"
                stroke-linejoin="round"
                stroke="black" />
            <path
                d="m 1247.2793,162.42187 a 1.0584408,1.0584408 0 0 0 -1.3262,1.61329 c 3.5286,4.02579 4.5521,7.94428 4.5196,12.01562 -0.033,4.07135 -1.1946,8.28403 -2.1524,12.59766 a 1.0584408,1.0584408 0 0 0 0.8887,1.27734 c 2.7279,0.37551 5.2244,1.69949 7.5683,4.26563 a 1.0584408,1.0584408 0 0 0 1.8321,-0.58204 c 0.7471,-5.97346 1.0996,-11.87928 -0.336,-17.2832 -1.4355,-5.40392 -4.7308,-10.26952 -10.9941,-13.9043 z m 3.4922,5.28711 c 2.8329,2.69912 4.5511,5.75741 5.4551,9.16016 1.1653,4.38678 0.9766,9.37124 0.4257,14.53516 -1.8805,-1.61097 -3.8992,-2.71401 -6.0625,-3.20703 0.9053,-3.95334 1.9669,-7.98848 2,-12.12891 0.022,-2.76485 -0.5419,-5.57342 -1.8183,-8.35938 z"
                id="path41071"
                stroke-width="0.5"
                stroke-linecap="round"
                stroke-linejoin="round"
                stroke="black" />
            <path
                d="m 1227.6309,163.98437 a 1.0584408,1.0584408 0 0 0 -1.1114,0.71094 c -1.9106,5.6129 -2.6961,12.28211 -0.9648,18.49805 1.7313,6.21594 6.0572,11.93812 14.0723,15.37891 a 1.0584408,1.0584408 0 0 0 1.373,-0.51758 c 1.5747,-3.30157 3.5162,-6.01527 6.4355,-7.63477 a 1.0584408,1.0584408 0 0 0 -0.2578,-1.95312 c -5.7159,-1.4178 -9.9308,-4.15651 -12.9609,-8.09766 -3.0301,-3.94115 -4.876,-9.1281 -5.6445,-15.46094 a 1.0584408,1.0584408 0 0 0 -0.9414,-0.92383 z m -0.3086,6.04493 c 1.043,4.50443 2.7458,8.41699 5.2168,11.63086 2.9236,3.80272 6.9796,6.53264 12.0527,8.18164 -2.1265,1.67413 -3.6526,3.91283 -4.918,6.34765 -6.9178,-3.23257 -10.5624,-8.11349 -12.08,-13.5625 -1.1381,-4.08594 -1.0606,-8.47798 -0.2715,-12.59765 z"
                id="path41073"
                stroke-width="0.5"
                stroke-linecap="round"
                stroke-linejoin="round"
                stroke="black" />
            <path
                d="m 1247.3359,188.65039 a 1.0583349,1.0583349 0 0 0 -0.8515,1.23047 l 3.4668,19.03125 a 1.0583349,1.0583349 0 0 0 1.2324,0.85156 1.0583349,1.0583349 0 0 0 0.8516,-1.23047 l -3.4688,-19.03125 a 1.0583349,1.0583349 0 0 0 -1.2305,-0.85156 z"
                id="path41075"
                stroke-width="0.5"
                stroke-linecap="round"
                stroke-linejoin="round"
                stroke="black" />
            <path id="ellipse41077"
                d="m 1255.1289,197.36011 a 1.8139457,1.8719798 0 0 1 -1.814,1.87198 1.8139457,1.8719798 0 0 1 -1.8139,-1.87198 1.8139457,1.8719798 0 0 1 1.8139,-1.87198 1.8139457,1.8719798 0 0 1 1.814,1.87198 z"
                stroke-width="0.529165"
                stroke="black" />
            <path
                d="m 1242.0137,160.07031 a 1.0583349,1.0583349 0 0 0 -0.9473,1.15821 c 0.5267,5.26475 2.8499,8.15897 5.2383,10.42968 a 1.0583349,1.0583349 0 0 0 1.4961,-0.0371 1.0583349,1.0583349 0 0 0 -0.037,-1.49609 c -2.2584,-2.14715 -4.1161,-4.35193 -4.5918,-9.10742 a 1.0583349,1.0583349 0 0 0 -1.1582,-0.94727 z"
                id="path41079"
                stroke-width="0.5"
                stroke-linecap="round"
                stroke-linejoin="round"
                stroke="black" />
            <path
                d="m 1251.957,165.01367 a 1.0583349,1.0583349 0 0 0 -1.207,0.88281 1.0583349,1.0583349 0 0 0 0.8828,1.20899 c 5.7098,0.88336 10.9939,5.55612 15.8418,13.03515 4.8479,7.47904 9.2124,17.67317 13.166,29.19727 7.7992,22.73345 14.0127,50.56456 19.7032,73.30859 -30.6677,8.92064 -58.3043,9.17055 -86.8086,5.41797 a 1.0583349,1.0583349 0 0 0 -1.1875,0.91211 1.0583349,1.0583349 0 0 0 0.9101,1.1875 c 28.9984,3.81762 57.2801,3.55444 88.6641,-5.74609 a 1.0584408,1.0584408 0 0 0 0.7246,-1.27344 c -5.7425,-22.86512 -12.0357,-51.26818 -20.0039,-74.49414 -3.9841,-11.61298 -8.3815,-21.93234 -13.3906,-29.66016 -5.0092,-7.72781 -10.6787,-12.95295 -17.295,-13.97656 z"
                id="path41081"
                stroke-width="0.5"
                stroke-linecap="round"
                stroke-linejoin="round"
                stroke="black" />
            <path
                d="m 1214.1426,206.26367 a 1.0583349,1.0583349 0 0 0 -1.1563,0.95117 l -5.0488,51.76758 a 1.0583349,1.0583349 0 0 0 0.9512,1.1543 1.0583349,1.0583349 0 0 0 1.1562,-0.94922 l 5.0489,-51.76758 a 1.0583349,1.0583349 0 0 0 -0.9512,-1.15625 z"
                id="path41083"
                stroke-width="0.5"
                stroke-linecap="round"
                stroke-linejoin="round"
                stroke="black" />
            <path
                d="m 1212.4668,221.29297 a 1.0583349,1.0583349 0 0 0 -0.7227,0.36914 c -6.9588,8.14458 -14.5603,15.07651 -22.9804,20.49219 a 1.0584408,1.0584408 0 0 0 0.014,1.79101 c 8.7616,5.43288 17.1469,12.64812 22.0411,20.42969 4.8252,7.672 6.285,15.71591 1.7382,23.58398 -4.7009,1.15522 -8.7773,3.31797 -11.2363,7.37891 -0.4215,0.34416 -0.7633,0.48235 -1.0566,0.48828 -0.1261,0.003 -0.3231,-0.15995 -0.4707,-0.20898 0.4508,-1.39395 0.8249,-2.76473 1.5254,-3.88672 0.8556,-1.37062 2.1291,-2.56901 4.7324,-3.53906 a 1.0584408,1.0584408 0 0 0 0.6719,-1.17969 c -0.5268,-2.92371 0.5909,-5.22297 2.8808,-7.47266 a 1.0583349,1.0583349 0 0 0 0.014,-1.49609 1.0583349,1.0583349 0 0 0 -1.4961,-0.0137 c -2.3923,2.35019 -3.8221,5.24095 -3.5117,8.5625 -2.4535,1.07157 -4.112,2.45624 -5.0879,4.01953 -1.0818,1.73281 -1.5116,3.54537 -2.0703,5.18359 a 1.0584408,1.0584408 0 0 0 0.3222,1.15235 c 0.763,0.63941 1.6407,1.01412 2.5332,0.99609 0.8925,-0.018 1.7129,-0.41436 2.4082,-0.99805 a 1.0584408,1.0584408 0 0 0 0.2364,-0.28515 c 2.1564,-3.76678 5.8587,-5.70948 10.5801,-6.78711 a 1.0584408,1.0584408 0 0 0 0.6718,-0.48828 c 5.2216,-8.69886 3.564,-17.93602 -1.5937,-26.13672 -4.9039,-7.79699 -12.9392,-14.77174 -21.416,-20.21875 8.1007,-5.41154 15.4523,-12.14138 22.1601,-19.99219 a 1.0583349,1.0583349 0 0 0 -0.1172,-1.49219 1.0583349,1.0583349 0 0 0 -0.7695,-0.25195 z"
                id="path41085"
                stroke-width="0.5"
                stroke-linecap="round"
                stroke-linejoin="round"
                stroke="black" />
            <path
                d="m 1197.4023,197.10156 a 1.0583349,1.0583349 0 0 0 -1.4843,0.19336 c -10.6532,13.83768 -20.3158,28.32288 -30.4141,43.29883 a 1.0584408,1.0584408 0 0 0 0.6582,1.62695 l 3.8692,0.82032 c 1.8281,12.86842 7.9265,18.50222 14.8828,21.83984 6.2122,2.98064 12.8866,4.5246 18.2148,8.19726 -3.0098,0.47747 -5.8014,1.7363 -8.1973,4 -0.2478,-0.22641 -0.5247,-0.47481 -0.8828,-0.92968 -0.9384,-1.19211 -1.9767,-3.00353 -2.3008,-4.67969 a 1.0583349,1.0583349 0 0 0 -1.2382,-0.83789 1.0583349,1.0583349 0 0 0 -0.8399,1.24023 c 0.4238,2.1921 1.6185,4.19069 2.7168,5.58594 0.5492,0.69763 1.0582,1.23356 1.543,1.59961 0.2424,0.18303 0.4185,0.36776 0.9297,0.43164 0.2556,0.0319 0.7203,-0.0396 1.0195,-0.35937 0.05,-0.0535 0.019,-0.094 0.055,-0.14844 2.8353,-2.92679 6.2355,-4.00219 10.1914,-4.04688 a 1.0584408,1.0584408 0 0 0 0.6973,-1.84375 c -6.1499,-5.54477 -14.2656,-6.8888 -20.9942,-10.11718 -6.7286,-3.22839 -12.2159,-8.05418 -13.832,-20.94922 a 1.0584408,1.0584408 0 0 0 -0.8301,-0.9043 l -3.0254,-0.64258 c 9.7793,-14.50951 19.1721,-28.53383 29.4551,-41.89062 a 1.0583349,1.0583349 0 0 0 -0.1934,-1.48438 z"
                id="path41087"
                stroke-width="0.5"
                stroke-linecap="round"
                stroke-linejoin="round"
                stroke="black" />
            <path
                d="m 1184.4297,269.86523 a 1.0583349,1.0583349 0 0 0 -0.6406,1.35352 c 1.3453,3.76857 3.1254,7.64301 7.4023,10.10547 a 1.0583349,1.0583349 0 0 0 1.4453,-0.38867 1.0583349,1.0583349 0 0 0 -0.3906,-1.44532 c -3.6751,-2.11591 -5.1592,-5.33229 -6.4629,-8.98437 a 1.0583349,1.0583349 0 0 0 -1.3535,-0.64063 z"
                id="path41089"
                stroke-width="0.5"
                stroke-linecap="round"
                stroke-linejoin="round"
                stroke="black" />
            <path
                d="m 1179.5566,274.0918 a 1.0583349,1.0583349 0 0 0 -0.2949,1.46679 c 3.1925,4.80172 7.147,8.86784 12.7481,10.83985 a 1.0583349,1.0583349 0 0 0 1.3496,-0.64844 1.0583349,1.0583349 0 0 0 -0.6465,-1.34961 c -5.0385,-1.77392 -8.6368,-5.4222 -11.6895,-10.01367 a 1.0583349,1.0583349 0 0 0 -1.4668,-0.29492 z"
                id="path41091"
                stroke-width="0.5"
                stroke-linecap="round"
                stroke-linejoin="round"
                stroke="black" />
            <path
                d="m 1181.4141,284.45117 a 1.0583349,1.0583349 0 0 0 -0.2735,1.4707 c 1.7934,2.61735 5.1077,4.3162 8.709,5.22657 3.6013,0.91036 7.5207,1.01744 10.6934,0.0801 a 1.0583349,1.0583349 0 0 0 0.7148,-1.31446 1.0583349,1.0583349 0 0 0 -1.3144,-0.71484 c -2.66,0.78589 -6.2983,0.72461 -9.5743,-0.10352 -3.276,-0.82813 -6.1582,-2.43649 -7.4824,-4.36914 a 1.0583349,1.0583349 0 0 0 -1.4726,-0.27539 z"
                id="path41093"
                stroke-width="0.5"
                stroke-linecap="round"
                stroke-linejoin="round"
                stroke="black" />
            <path
                d="m 1171.3574,241.22266 a 1.0583349,1.0583349 0 0 0 -1.2754,0.7832 1.0583349,1.0583349 0 0 0 0.7832,1.27539 c 6.4578,1.54202 12.6893,2.30338 18.3067,1.0332 a 1.0583349,1.0583349 0 0 0 0.7988,-1.26562 1.0583349,1.0583349 0 0 0 -1.2656,-0.79883 c -5.106,1.15456 -11.0392,0.47903 -17.3477,-1.02734 z"
                id="path41095"
                stroke-width="0.5"
                stroke-linecap="round"
                stroke-linejoin="round"
                stroke="black" />
            <path
                d="m 1208.2773,170.97266 c -0.7667,-0.0182 -1.5459,0.11486 -2.2793,0.31054 -0.7333,0.19568 -1.4129,0.45499 -1.9667,0.73242 -0.277,0.13872 -0.5216,0.27855 -0.7442,0.44532 -0.2226,0.16676 -0.4757,0.28854 -0.6426,0.83008 0.01,-0.0285 -0.1115,0.25767 -0.3105,0.58203 -0.199,0.32435 -0.4806,0.73552 -0.832,1.17382 -0.7029,0.87662 -1.6837,1.86629 -2.8184,2.60157 -1.6828,1.09042 -2.68,3.17604 -3.4434,4.99609 -0.661,1.57612 -0.9383,2.61431 -1.0371,2.96484 -0.224,0.12816 -0.5185,0.30239 -1.1074,0.67579 -0.6792,0.43072 -0.9772,1.08066 -1.1953,1.75781 -0.2181,0.67714 -0.3295,1.42996 -0.3633,2.20117 -0.068,1.54241 0.066,3.10803 0.9082,4.26758 a 1.0584408,1.0584408 0 0 0 0,0.002 c 2.8646,3.94517 6.0179,5.80783 9.875,8.25195 0.8191,0.51905 1.729,0.70631 2.543,0.51954 0.814,-0.18677 1.4837,-0.73691 1.8672,-1.44336 0.217,-0.39982 0.1402,-0.90523 0.1797,-1.375 0.1824,0.15515 0.3949,0.37464 0.5703,0.51757 0.5894,0.48027 1.1312,0.88615 1.6308,1.19141 0.4997,0.30526 0.8875,0.59297 1.627,0.54492 0.9182,-0.0597 1.7001,-0.32076 2.2793,-0.81445 0.5792,-0.49369 0.8856,-1.1831 0.9902,-1.83594 0.084,-0.52588 0.02,-1.0354 -0.051,-1.53711 0.1378,0.0979 0.296,0.25361 0.4297,0.33789 0.5879,0.37062 1.1148,0.73285 1.9649,0.5586 0.6559,-0.13446 1.0432,-0.10368 1.6211,-0.40625 0.5778,-0.30258 0.8956,-0.7496 1.455,-1.50391 0.9159,-1.23577 0.9291,-2.93548 -0.01,-4.19726 -0.3067,-0.4122 -0.2496,-0.3527 -0.5371,-0.74024 1.4263,0.10449 2.699,-0.67939 3.1953,-1.83398 0.5238,-1.21858 0.444,-2.68679 -0.1367,-4.09375 -0.3322,-0.80473 -1.0324,-1.76099 -2.0293,-3.12696 -0.9969,-1.36596 -2.2524,-3.00247 -3.5254,-4.61914 -1.2731,-1.61666 -2.5627,-3.21175 -3.6211,-4.49218 -1.0584,-1.28044 -1.8382,-2.2014 -2.2754,-2.63868 -0.6279,-0.62793 -1.4481,-0.78646 -2.2149,-0.80468 z m -0.051,2.11523 c 0.4688,0.0111 0.7226,0.1387 0.7695,0.18555 0.2375,0.2375 1.0949,1.22522 2.1406,2.49023 1.0457,1.26502 2.3255,2.85198 3.5879,4.45508 1.2624,1.6031 2.5085,3.22487 3.4805,4.55664 0.9719,1.33177 1.7091,2.51286 1.7812,2.6875 0.3979,0.9638 0.3763,1.91906 0.1485,2.44922 -0.2279,0.53015 -0.4239,0.72544 -1.1602,0.61719 0.173,0.0254 -0.155,-0.0728 -0.5195,-0.36524 -0.3645,-0.29243 -0.8341,-0.73544 -1.3477,-1.26758 -1.0272,-1.06427 -2.2431,-2.48957 -3.3886,-3.90039 -1.1456,-1.41081 -2.2248,-2.80912 -3,-3.83789 -0.3877,-0.51438 -0.7,-0.93703 -0.9043,-1.21875 -0.1022,-0.14085 -0.1778,-0.24807 -0.2168,-0.30468 -0.02,-0.0283 -0.034,-0.0536 -0.016,-0.0234 0,0.008 0.01,0.0184 0.025,0.0469 0.01,0.0142 0.017,0.0335 0.031,0.0664 -0.047,-0.0542 -0.1631,-0.27252 -0.2285,-0.33594 -0.015,-0.0146 -0.034,-0.0341 -0.068,-0.0625 -0.035,-0.0284 -0.2164,-0.13653 -0.2168,-0.13672 -4e-4,-1.9e-4 -1.2362,0.24008 -1.2363,0.24024 -2e-4,1.5e-4 -0.2521,0.94872 -0.252,0.94922 10e-5,5e-4 0.047,0.15676 0.062,0.1914 0.015,0.0346 0.026,0.0557 0.035,0.0723 0.017,0.0332 0.028,0.0495 0.037,0.0644 0.036,0.0597 0.055,0.0865 0.084,0.12891 0.058,0.0848 0.1384,0.19727 0.2461,0.3457 0.028,0.0381 0.088,0.1178 0.1191,0.16016 0.013,0.0661 0.019,0.10564 0.9902,1.51757 1.2483,1.81548 3.6697,5.21706 8.5118,11.72461 0.3011,0.40474 0.2861,1.30288 0.01,1.67579 -0.5386,0.72623 -0.7259,0.88323 -0.7363,0.88867 -0.01,0.005 -0.2931,0.0485 -1.0664,0.20703 0.2956,-0.0606 0.01,-0.0116 -0.4102,-0.27344 -0.4152,-0.26181 -0.9792,-0.70972 -1.6054,-1.27148 -1.0176,-0.91272 -2.2383,-2.21698 -3.4258,-3.5 -0.6601,-0.80138 -1.297,-1.58989 -2.0059,-2.41211 -2.1949,-2.54588 -4.2708,-4.82526 -4.3125,-4.8711 -4e-4,-4.5e-4 -0.043,-0.0488 -0.043,-0.0488 a 1.0584408,1.0584408 0 0 0 -1.6075,1.375 c 0,0 0.043,0.0504 0.043,0.0508 0,0 0.012,0.0117 0.012,0.0117 0.05,0.0627 2.6325,3.27587 5.5528,6.50585 0.2619,0.28974 0.5124,0.50615 0.7773,0.79297 0.3431,0.4173 0.7552,0.88796 1.0508,1.26368 0.4325,0.54976 0.8036,1.0443 1.0722,1.43554 0.2687,0.39124 0.4362,0.73012 0.4317,0.7168 0.3241,0.94955 0.5563,2.02071 0.4629,2.60351 -0.047,0.29141 -0.1249,0.43391 -0.2735,0.56055 -0.1485,0.12664 -0.4389,0.27509 -1.0449,0.31445 0.283,-0.0184 -0.023,-0.0189 -0.3847,-0.24023 -0.3623,-0.22134 -0.8508,-0.58067 -1.3965,-1.02539 -1.0916,-0.88944 -2.422,-2.12091 -3.6953,-3.35742 -2.5436,-2.47007 -4.8637,-4.95696 -4.8692,-4.96289 0,0 0,-0.002 0,-0.002 0,0 0,-0.004 0,-0.004 a 1.0586789,1.0586789 0 0 0 -1.5528,1.43945 v 0.004 l 5.3887,5.83398 a 1.0584408,1.0584408 0 0 0 0.018,0.0195 c 1.0672,1.10229 1.0133,2.0613 0.7656,2.51758 -0.1238,0.22814 -0.2806,0.34237 -0.4824,0.38867 -0.2018,0.0463 -0.4969,0.0338 -0.9356,-0.24414 -3.8875,-2.46337 -6.6765,-4.09931 -9.2968,-7.70898 -10e-5,-2e-4 2e-4,-0.002 0,-0.002 -0.2268,-0.31363 -0.5602,-1.68905 -0.5059,-2.92773 0.027,-0.61974 0.1238,-1.21801 0.2618,-1.64648 0.1379,-0.42848 0.3443,-0.6381 0.3144,-0.61914 0.6403,-0.40597 0.9799,-0.60831 1.1387,-0.69727 0.079,-0.0445 0.1145,-0.0598 0.1035,-0.0547 -0.01,0.003 -0.021,0.01 -0.061,0.0234 -0.039,0.0138 -0.2364,0.0527 -0.2364,0.0527 a 1.0584408,1.0584408 0 0 0 0.9141,-0.77539 c 0,0 0.4012,-1.48372 1.1035,-3.1582 0.7023,-1.67448 1.8004,-3.49137 2.6426,-4.03711 1.3903,-0.90089 2.5057,-2.04313 3.3183,-3.05664 0.4064,-0.50675 0.7361,-0.98065 0.9864,-1.38867 0.2503,-0.40802 0.4171,-0.70232 0.5293,-1.06641 -0.1152,0.37374 -0.1814,0.29464 -0.1114,0.24219 0.07,-0.0524 0.2239,-0.14885 0.4219,-0.24805 0.3961,-0.19839 0.9724,-0.42158 1.5664,-0.58008 0.594,-0.15849 1.2128,-0.25137 1.6817,-0.24023 z"
                id="path41097"
                stroke-width="0.5"
                stroke-linecap="round"
                stroke-linejoin="round"
                stroke="black" />
            <path
                d="m 1218.9316,169.78125 c -0.9429,-0.27864 -1.9318,-0.20741 -2.8789,0.0527 -1.8941,0.52029 -3.6955,1.7874 -4.916,3.33594 a 1.0583349,1.0583349 0 0 0 0.1758,1.48633 1.0583349,1.0583349 0 0 0 1.4863,-0.17773 c 0.92,-1.16732 2.4728,-2.23499 3.8145,-2.60352 0.6708,-0.18426 1.2696,-0.19521 1.7187,-0.0625 0.4452,0.13154 0.7751,0.36962 1.0703,0.90625 0.5825,1.1535 0.3372,2.31207 -1.1191,3.39453 -1.5617,1.16091 -2.9434,1.35352 -2.9434,1.35352 a 1.0583349,1.0583349 0 0 0 -0.8964,1.19922 1.0583349,1.0583349 0 0 0 1.1972,0.89648 c 0,0 1.9346,-0.28433 3.9063,-1.75 2.0707,-1.53921 2.7814,-4.03297 1.7383,-6.07227 a 1.0584408,1.0584408 0 0 0 -0.012,-0.0234 c -0.5359,-0.98623 -1.3988,-1.65691 -2.3418,-1.93555 z"
                id="path41099"
                stroke-width="0.5"
                stroke-linecap="round"
                stroke-linejoin="round"
                stroke="black" />
            <path
                d="m 1226.0879,169.62109 c -1.9644,-0.12919 -3.9309,0.12647 -5.9375,2.12696 a 1.0583349,1.0583349 0 0 0 0,1.49804 1.0583349,1.0583349 0 0 0 1.4961,0.002 c 1.6566,-1.65149 2.4977,-1.63447 4.3047,-1.51563 a 1.0583349,1.0583349 0 0 0 1.125,-0.98633 1.0583349,1.0583349 0 0 0 -0.9863,-1.125 z"
                id="path41101"
                stroke-width="0.5"
                stroke-linecap="round"
                stroke-linejoin="round"
                stroke="black" />
            <path
                d="m 1314.9336,137.02344 c 0,0 -1.4468,1.01478 -2.5313,2.60351 -0.5422,0.79437 -1.0172,1.75767 -1.123,2.86914 -0.1058,1.11147 0.2158,2.35597 1.1035,3.45313 0.8218,1.01577 1.7901,1.58163 2.7656,1.59961 0.6245,0.0115 1.1383,-0.21143 1.5996,-0.49219 -0.059,1.65849 0.061,3.60496 0.8282,5.35742 0.8336,1.90455 2.1849,2.76325 3.3769,2.80274 0,1.20698 0.3733,2.82881 1.8965,3.69531 0.9334,0.53095 2.0393,0.31803 2.8067,-0.14258 0.7673,-0.46061 1.3759,-1.12785 1.9023,-1.80664 0.1386,-0.17878 0.1066,-0.19376 0.2324,-0.37305 0.1931,0.27049 0.445,0.51884 0.8106,0.66993 0.7697,0.31812 1.6113,0.0956 2.4531,-0.39649 2.901,-1.69586 3.5768,-4.72144 3.7539,-5.66211 0.2804,-0.0617 0.3744,-0.0468 0.7969,-0.21875 0.7984,-0.32497 1.8195,-0.91382 2.3008,-2.08594 0.2477,-0.60345 0.3574,-1.29862 0.4687,-2.14062 0.1113,-0.84201 0.194,-1.78942 0.2578,-2.68555 0.1276,-1.79226 0.1738,-3.38281 0.1738,-3.38281 a 1.0583349,1.0583349 0 0 0 -1.0273,-1.08984 1.0583349,1.0583349 0 0 0 -1.0879,1.02734 c 0,0 -0.046,1.55479 -0.1699,3.29492 -0.062,0.87007 -0.1439,1.78543 -0.2461,2.5586 -0.1022,0.77316 -0.2559,1.44397 -0.3262,1.61523 -0.1549,0.37732 -0.6154,0.714 -1.1406,0.92773 -0.5252,0.21374 -0.9824,0.27539 -0.9824,0.27539 a 1.0584408,1.0584408 0 0 0 -0.9082,0.87891 c 0,0 -0.7246,3.56922 -2.9317,4.85938 -0.5537,0.32366 -0.6802,0.22457 -0.5761,0.26757 0.104,0.043 0.068,0.0862 0.014,-0.13476 -0.1082,-0.4419 -0.014,-1.33203 -0.014,-1.33203 a 1.0584408,1.0584408 0 0 0 -1.9981,-0.63086 c 0,0 -0.6524,1.33274 -1.5273,2.46094 -0.4375,0.56409 -0.9347,1.05798 -1.3164,1.2871 -0.3818,0.22913 -0.4689,0.23465 -0.6719,0.11915 -0.6989,-0.39759 -0.866,-1.13712 -0.8496,-1.94336 0.01,-0.40313 0.079,-0.7856 0.1367,-0.99414 0.029,-0.10427 0.073,-0.18718 0.027,-0.10157 -0.01,0.0169 -0.032,0.0539 -0.064,0.0977 0.1289,-0.17436 0.2929,-0.31873 0.248,-0.73242 -0.01,-0.094 0,-0.21848 -0.164,-0.47852 -0.041,-0.065 -0.098,-0.13866 -0.1778,-0.21289 -0.08,-0.0742 -0.3074,-0.20069 -0.3086,-0.20117 0,-4.8e-4 -0.2678,-0.0833 -0.3984,-0.0859 -0.1306,-0.003 -0.2466,0.0188 -0.3418,0.0488 -0.3809,0.11996 -0.4581,0.27698 -0.5273,0.36328 -0.069,0.0863 -0.1011,0.14364 -0.1289,0.19531 0,0.005 0,0.008 -0.01,0.0137 -0.085,0.0358 -0.1814,0.0802 -0.3105,0.0781 -0.3378,-0.005 -0.882,-0.10689 -1.5157,-1.55469 -1.245,-2.84461 -0.2734,-7.65429 -0.2734,-7.65429 a 1.0584408,1.0584408 0 0 0 -2,-0.66016 c 0,0 -0.5347,1.12934 -1.2031,1.74805 -0.3343,0.30935 -0.626,0.43775 -0.8516,0.43359 -0.2256,-0.004 -0.5831,-0.10117 -1.1602,-0.81445 -0.5796,-0.7165 -0.6992,-1.30415 -0.6406,-1.91992 0.059,-0.61577 0.3529,-1.27516 0.7637,-1.87696 0.8215,-1.20358 2.0137,-2.07422 2.0137,-2.07422 a 1.0583349,1.0583349 0 0 0 0.2461,-1.47656 1.0583349,1.0583349 0 0 0 -1.4766,-0.24609 z"
                id="path41103"
                stroke-width="0.5"
                stroke-linecap="round"
                stroke-linejoin="round"
                stroke="black" />
            <path
                d="m 1322.9023,139.05859 a 1.0583349,1.0583349 0 0 0 -0.9453,1.16016 c 0.2239,2.19559 0.5374,4.93006 0.5606,7.37109 0.023,2.44103 -0.3554,4.57072 -0.9883,5.37891 a 1.0583349,1.0583349 0 0 0 0.1816,1.48437 1.0583349,1.0583349 0 0 0 1.4844,-0.17968 c 1.2968,-1.65606 1.4642,-4.09932 1.4395,-6.70508 -0.025,-2.60576 -0.351,-5.39384 -0.5723,-7.56445 a 1.0583349,1.0583349 0 0 0 -1.1602,-0.94532 z"
                id="path41105"
                stroke-width="0.5"
                stroke-linecap="round"
                stroke-linejoin="round"
                stroke="black" />
            <path
                d="m 1329.1484,140.18945 c -0.3178,-0.1878 -0.9653,-0.10779 -1.2031,0.0781 a 1.0583349,1.0583349 0 0 0 -0.2129,1.38476 c -0.01,-0.0156 -0.052,-0.0521 -0.059,-0.0645 -0.082,-0.16449 -0.066,-0.17826 -0.066,-0.18164 0,-0.007 0.014,0.0948 0.025,0.23047 0.023,0.27125 0.045,0.7159 0.061,1.26172 0.031,1.09162 0.039,2.59929 0.019,4.14843 -0.019,1.54915 -0.068,3.14549 -0.1484,4.40821 -0.04,0.63136 -0.088,1.17994 -0.1426,1.58398 -0.054,0.40404 -0.1826,0.73367 -0.098,0.57031 a 1.0583349,1.0583349 0 0 0 0.4512,1.42774 1.0583349,1.0583349 0 0 0 1.4258,-0.45117 c 0.2434,-0.46841 0.2534,-0.78113 0.3183,-1.26563 0.065,-0.4845 0.116,-1.06934 0.1582,-1.73047 0.085,-1.32226 0.1328,-2.94125 0.1524,-4.51562 0.02,-1.57437 0.01,-3.10028 -0.021,-4.23438 -0.016,-0.56704 -0.037,-1.03301 -0.066,-1.38086 -0.015,-0.17392 -0.027,-0.30953 -0.059,-0.46875 -0.016,-0.0796 -0.017,-0.14847 -0.1152,-0.3457 -0.049,-0.0986 -0.1021,-0.26727 -0.42,-0.45508 z m -1.2441,1.64453 a 1.0583349,1.0583349 0 0 0 0.2988,0.16993 c -0.042,-0.0142 -0.098,0.0284 -0.1328,0.008 -0.1296,-0.0766 -0.1098,-0.11359 -0.166,-0.17774 z"
                id="path41107"
                stroke-width="0.5"
                stroke-linecap="round"
                stroke-linejoin="round"
                stroke="black" />
            <path
                d="m 1333.6133,141.5918 a 1.0583349,1.0583349 0 0 0 -0.9102,1.18945 c 0.1263,0.94667 0.2702,2.56007 0.334,4.12695 0.064,1.56689 0.027,3.15044 -0.1074,3.82227 a 1.0583349,1.0583349 0 0 0 0.832,1.24414 1.0583349,1.0583349 0 0 0 1.2442,-0.83008 c 0.2233,-1.11976 0.213,-2.68775 0.1464,-4.32226 -0.066,-1.63452 -0.2116,-3.27194 -0.3515,-4.32032 a 1.0583349,1.0583349 0 0 0 -1.1875,-0.91015 z"
                id="path41109"
                stroke-width="0.5"
                stroke-linecap="round"
                stroke-linejoin="round"
                stroke="black" />
            <path
                d="m 1321.2969,132.00781 c -1.6372,0.14594 -3.2123,0.47332 -4.6094,1.01172 a 1.0583349,1.0583349 0 0 0 -0.6074,1.36719 1.0583349,1.0583349 0 0 0 1.3691,0.60742 c 2.3197,-0.89393 5.5756,-1.1498 8.5918,-0.80664 3.0163,0.34316 5.7983,1.32125 7.1602,2.49805 3.1479,2.72013 3.4781,4.40833 3.334,6.01953 a 1.0583349,1.0583349 0 0 0 0.9609,1.14844 1.0583349,1.0583349 0 0 0 1.1484,-0.95899 c 0.1941,-2.16852 -0.5985,-4.82077 -4.0586,-7.81055 -1.9421,-1.67814 -5.0144,-2.62544 -8.3066,-3 -1.6461,-0.18727 -3.3453,-0.2221 -4.9824,-0.0762 z"
                id="path41111"
                stroke-width="0.5"
                stroke-linecap="round"
                stroke-linejoin="round"
                stroke="black" />
            <path
                d="m 1311.7949,143.14453 c -3.6432,1.71272 -4.9597,5.49428 -6.5761,8.41992 a 1.0583349,1.0583349 0 0 0 0.414,1.4375 1.0583349,1.0583349 0 0 0 1.4395,-0.41406 c 1.7291,-3.12951 2.9244,-6.25872 5.623,-7.52734 a 1.0583349,1.0583349 0 0 0 0.5078,-1.40821 1.0583349,1.0583349 0 0 0 -1.4082,-0.50781 z"
                id="path41113"
                stroke-width="0.5"
                stroke-linecap="round"
                stroke-linejoin="round"
                stroke="black" />
            <path
                d="m 1364.334,131.52344 c -4.9735,1.88756 -8.2406,4.77811 -10.9668,7.93554 -2.7262,3.15744 -4.9462,6.56606 -7.9356,9.68946 -0.9827,1.02684 -3.8086,1.7321 -6.3613,1.9375 -2.5526,0.20539 -4.7773,0.0586 -4.7773,0.0586 a 1.0583349,1.0583349 0 0 0 -1.127,0.98438 1.0583349,1.0583349 0 0 0 0.9844,1.12695 c 0,0 2.3579,0.16122 5.0898,-0.0586 2.7319,-0.21982 5.8923,-0.67361 7.7207,-2.58399 3.156,-3.29753 5.4065,-6.7567 8.0079,-9.76953 2.6013,-3.01283 5.5184,-5.59524 10.1152,-7.33984 a 1.0583349,1.0583349 0 0 0 0.6152,-1.36524 1.0583349,1.0583349 0 0 0 -1.3652,-0.61523 z"
                id="path41115"
                stroke-width="0.5"
                stroke-linecap="round"
                stroke-linejoin="round"
                stroke="black" />
            <path
                d="m 1314.6543,137.3418 c -2.368,0.22475 -4.8308,0.0703 -8.6074,1.90234 a 1.0583349,1.0583349 0 0 0 -0.4903,1.41406 1.0583349,1.0583349 0 0 0 1.4141,0.49024 c 3.4248,-1.66141 5.2974,-1.45384 7.8828,-1.69922 a 1.0583349,1.0583349 0 0 0 0.9551,-1.15235 1.0583349,1.0583349 0 0 0 -1.1543,-0.95507 z"
                id="path41117"
                stroke-width="0.5"
                stroke-linecap="round"
                stroke-linejoin="round"
                stroke="black" />
            <path
                d="m 1411.8594,84.476562 c -0.4511,0.02899 -0.8156,0.316609 -1.0313,0.603516 -0.4312,0.573815 -0.6812,1.342886 -1.0019,3.033203 -0.2547,1.342345 -1.1404,2.811458 -2.0469,4.027344 -0.4532,0.607943 -0.9047,1.154596 -1.2773,1.619141 -0.3727,0.464544 -0.6597,0.718663 -0.875,1.318359 -0.1416,0.394312 -0.1206,0.60005 -0.127,0.910156 -0.01,0.310106 0,0.666073 0.023,1.0625 0.04,0.792855 0.1212,1.741817 0.211,2.66211 0.1489,1.526229 0.2727,2.508889 0.3281,2.958989 l -36.6816,28.06445 a 1.0583349,1.0583349 0 0 0 -0.1973,1.48242 1.0583349,1.0583349 0 0 0 1.4844,0.19727 l 37.1562,-28.42774 a 1.0584408,1.0584408 0 0 0 0.4063,-0.97265 c 0,0 -0.2147,-1.70422 -0.3907,-3.507818 -0.088,-0.9018 -0.1645,-1.829611 -0.2011,-2.5625 -0.018,-0.366444 -0.026,-0.684356 -0.022,-0.912109 0,-0.227753 0.067,-0.422316 0,-0.240234 -0.063,0.175235 0.1778,-0.265882 0.5332,-0.708985 0.3555,-0.443102 0.8315,-1.016831 1.3243,-1.677734 0.9854,-1.321805 2.0676,-2.990215 2.4297,-4.898438 0.048,-0.25164 0.052,-0.14422 0.1,-0.347656 0.3306,0.867012 0.6614,1.852632 0.6679,2.439453 a 1.0583349,1.0583349 0 0 0 1.0703,1.046875 1.0583349,1.0583349 0 0 0 1.0469,-1.070312 c -0.014,-1.280319 -0.4987,-2.582165 -0.9472,-3.648438 -0.4486,-1.066272 -0.8965,-1.878906 -0.8965,-1.878906 a 1.0584408,1.0584408 0 0 0 -0.2051,-0.261719 c 0,0 -0.4318,-0.339539 -0.8828,-0.310547 z"
                id="path41119"
                stroke-width="0.5"
                stroke-linecap="round"
                stroke-linejoin="round"
                stroke="black" />
            <path
                d="m 1414.4453,90.769531 c -2.1862,1.507218 -3.9295,3.659925 -4.9355,6.585938 a 1.0583349,1.0583349 0 0 0 0.6582,1.345703 1.0583349,1.0583349 0 0 0 1.3437,-0.658203 c 0.7491,-2.178664 1.9717,-3.682406 3.4629,-4.896485 1.6534,2.121169 3.5239,4.182243 5.5137,6.203125 -0.2767,0.448613 -0.7526,1.231101 -1.6758,2.638671 -1.1531,1.75793 -2.5741,3.77773 -3.2871,4.51758 -0.5446,0.56504 -1.2192,0.57137 -1.9668,0.40234 -0.7476,-0.16903 -1.3457,-0.52148 -1.3457,-0.52148 a 1.0584408,1.0584408 0 0 0 -1.3926,0.26562 c -10.1005,13.3483 -19.7596,26.88859 -33.041,37.5293 a 1.0583349,1.0583349 0 0 0 -0.1641,1.48633 1.0583349,1.0583349 0 0 0 1.4883,0.16406 c 13.36,-10.70367 23.0132,-24.15938 32.9219,-37.27734 0.3559,0.16893 0.4564,0.28005 1.0664,0.41797 1.1298,0.25542 2.7674,0.23635 3.957,-0.99805 1.0211,-1.05957 2.3591,-3.03605 3.5332,-4.82617 1.1742,-1.79013 2.1289,-3.351565 2.1289,-3.351565 a 1.0584408,1.0584408 0 0 0 -0.1523,-1.298828 c -2.4689,-2.484223 -4.8087,-4.966532 -6.6602,-7.484375 a 1.0584408,1.0584408 0 0 0 -1.4531,-0.244141 z"
                id="path41121"
                stroke-width="0.5"
                stroke-linecap="round"
                stroke-linejoin="round"
                stroke="black" />
            <path
                d="m 1406.8027,68.935547 c -0.1007,0.02136 -0.1616,0.04371 -0.2148,0.06445 -0.1065,0.04149 -0.1811,0.08007 -0.2617,0.123047 -0.1612,0.08595 -0.3308,0.18986 -0.5254,0.3125 -0.3894,0.245279 -0.8638,0.564343 -1.3301,0.884765 -0.9325,0.640846 -1.8301,1.285157 -1.8301,1.285157 a 1.0584408,1.0584408 0 0 0 -0.289,1.40625 c 0,0 1.9504,3.244896 3.9218,6.53125 0.9858,1.643177 1.976,3.296356 2.7305,4.558593 0.3772,0.631119 0.6955,1.164264 0.9238,1.548829 0.1142,0.192282 0.2069,0.348855 0.2715,0.458984 0.065,0.110129 0.1326,0.239663 0.086,0.148437 a 1.0583349,1.0583349 0 0 0 1.4238,0.460938 1.0583349,1.0583349 0 0 0 0.4609,-1.423828 c -0.067,-0.132039 -0.078,-0.141873 -0.1465,-0.257813 -0.068,-0.115939 -0.1602,-0.272796 -0.2754,-0.466797 -0.2303,-0.388 -0.5499,-0.922629 -0.9277,-1.554687 -0.7556,-1.264116 -1.7464,-2.916878 -2.7324,-4.560547 -1.7168,-2.861865 -3.0025,-5.004638 -3.4141,-5.689453 0.3429,-0.243181 0.4917,-0.354515 0.9961,-0.701172 0.3909,-0.268594 0.7625,-0.513746 1.084,-0.720703 0.1079,0.151405 0.1849,0.259102 0.3242,0.457031 0.5383,0.764931 1.3003,1.85998 2.2071,3.171875 1.8134,2.623791 4.2118,6.118874 6.6035,9.611328 4.5579,6.655718 8.6727,12.690847 9.0898,13.302735 l -1.3281,1.597656 -1.8945,-1.654297 a 1.0583349,1.0583349 0 0 0 -1.4922,0.101563 1.0583349,1.0583349 0 0 0 0.1015,1.49414 l 2.711,2.367192 a 1.0584408,1.0584408 0 0 0 1.5097,-0.12109 l 2.5313,-3.046883 a 1.0584408,1.0584408 0 0 0 0.059,-1.271484 c 0,0 -4.7559,-6.979368 -9.541,-13.966797 -2.3926,-3.493715 -4.7925,-6.988427 -6.6094,-9.617188 -0.9085,-1.31438 -1.6697,-2.412897 -2.2149,-3.1875 -0.2725,-0.387301 -0.49,-0.692793 -0.6484,-0.910156 -0.079,-0.108682 -0.1438,-0.194356 -0.1992,-0.265625 -0.028,-0.03563 -0.05,-0.06628 -0.086,-0.107422 -0.018,-0.02057 -0.037,-0.04185 -0.078,-0.08203 -0.021,-0.02009 -0.047,-0.04512 -0.098,-0.08398 -0.051,-0.03887 -0.337,-0.173558 -0.3379,-0.173828 -0.3206,-0.09824 -0.4599,-0.04479 -0.5606,-0.02344 z"
                id="path41123"
                stroke-width="0.5"
                stroke-linecap="round"
                stroke-linejoin="round"
                stroke="black" />
            <path
                d="m 1401.3691,85.488281 a 1.0583349,1.0583349 0 0 0 -0.5722,0.572266 l -3.2871,7.935547 a 1.0583349,1.0583349 0 0 0 0.5742,1.382812 1.0583349,1.0583349 0 0 0 1.3828,-0.574219 l 3.2852,-7.933593 a 1.0583349,1.0583349 0 0 0 -0.5723,-1.382813 1.0583349,1.0583349 0 0 0 -0.8106,0 z"
                id="path41125"
                stroke-width="0.5"
                stroke-linecap="round"
                stroke-linejoin="round"
                stroke="black" />
            <path
                d="m 1397.9824,81.146484 a 1.0583349,1.0583349 0 0 0 -0.7812,0.212891 l -5.5879,4.335937 a 1.0583349,1.0583349 0 0 0 -0.1875,1.484375 1.0583349,1.0583349 0 0 0 1.4863,0.1875 l 5.5859,-4.333984 a 1.0583349,1.0583349 0 0 0 0.1875,-1.486328 1.0583349,1.0583349 0 0 0 -0.7031,-0.400391 z"
                id="path41127"
                stroke-width="0.5"
                stroke-linecap="round"
                stroke-linejoin="round"
                stroke="black" />
            <path
                d="m 1394.168,75.330078 -8.459,1.894531 a 1.0583349,1.0583349 0 0 0 -0.8027,1.263672 1.0583349,1.0583349 0 0 0 1.2636,0.800781 l 8.461,-1.892578 a 1.0583349,1.0583349 0 0 0 0.8007,-1.265625 1.0583349,1.0583349 0 0 0 -1.2636,-0.800781 z"
                id="path41129"
                stroke-width="0.5"
                stroke-linecap="round"
                stroke-linejoin="round"
                stroke="black" />
            <path
                d="m 1416.1914,75.076172 c -1.0764,-0.06468 -2.2387,0.341197 -3.4941,1.210937 a 1.0583349,1.0583349 0 0 0 -0.2676,1.472657 1.0583349,1.0583349 0 0 0 1.4726,0.267578 c 1.0027,-0.694627 1.7254,-0.864135 2.1622,-0.837891 0.4367,0.02624 0.675,0.189655 0.914,0.529297 0.478,0.679284 0.5396,2.190975 0.098,2.994141 a 1.0584408,1.0584408 0 0 0 0.791,1.558593 c 0.9627,0.124187 1.4824,0.06876 1.6133,0.175782 a 1.0584408,1.0584408 0 0 0 0.074,0.05469 c 0.1032,0.0703 0.1357,0.12913 0.1523,0.302734 0.017,0.173605 -0.039,0.431469 -0.1425,0.613282 a 1.0584408,1.0584408 0 0 0 -0.074,0.160156 c -0.1502,0.408863 -0.2511,0.715884 -0.3066,1.025391 -0.028,0.154753 -0.048,0.312803 -0.027,0.521484 0.02,0.208681 0.098,0.511714 0.3496,0.765625 0.2515,0.253911 0.6075,0.347791 0.832,0.353516 0.2244,0.0057 0.3677,-0.03436 0.4883,-0.07031 0.2412,-0.07191 0.4033,-0.152774 0.5703,-0.226562 0.3339,-0.147578 0.6489,-0.252757 0.8125,-0.257813 0.1593,-0.0049 0.1736,-0.03744 0.3672,0.224609 0.3926,0.571156 0.1046,1.721489 -0.5215,2.009766 a 1.0584408,1.0584408 0 0 0 -0.4981,0.478516 c -0.098,0.191682 -0.1993,0.43114 -0.1738,0.779297 0.025,0.348156 0.2751,0.745384 0.5274,0.919921 0.5045,0.349075 0.7944,0.263849 1.041,0.259766 0.2465,-0.0041 0.4571,-0.02727 0.6035,-0.03516 0.1464,-0.0079 0.2643,0.06313 0,-0.04297 a 1.0584408,1.0584408 0 0 0 0.3243,0.07422 c 0.2743,0.0171 0.622,0.247539 0.8027,0.566406 0.1741,0.307297 0.1737,0.549308 0.025,0.777344 -0.2792,0.322171 -0.643,0.514745 -0.8985,0.476562 a 1.0583349,1.0583349 0 0 0 -1.2031,0.890625 1.0583349,1.0583349 0 0 0 0.8887,1.203125 c 1.2355,0.184673 2.2695,-0.480885 2.9004,-1.263672 a 1.0584408,1.0584408 0 0 0 0.039,-0.05078 c 0.6904,-0.973008 0.5878,-2.197335 0.09,-3.076172 -0.4303,-0.759416 -1.1955,-1.297643 -2.1074,-1.496093 0.6326,-1.132183 0.6904,-2.563981 -0.1094,-3.699219 a 1.0584408,1.0584408 0 0 0 -0.01,-0.01367 c -0.5543,-0.758682 -1.4413,-1.119575 -2.1504,-1.097656 -0.2565,0.0079 -0.3687,0.104302 -0.58,0.158203 0.1104,-0.371642 0.2889,-0.722825 0.25,-1.128906 -0.063,-0.653048 -0.4023,-1.356919 -1.0293,-1.808594 -0.5053,-0.400085 -1.0326,-0.535972 -1.4942,-0.585938 0.2486,-1.28325 0.1872,-2.618535 -0.5801,-3.708984 -0.5385,-0.765377 -1.4431,-1.359148 -2.5195,-1.423828 z m 7.8184,13.167969 0.3261,0.07422 c -0.088,-0.03518 -0.098,-5.7e-4 -0.1699,-0.01953 -0.058,-0.007 -0.097,-0.05102 -0.1562,-0.05469 z"
                id="path41131"
                stroke-width="0.5"
                stroke-linecap="round"
                stroke-linejoin="round"
                stroke="black" />
            <path
                d="m 1409.293,77.980469 a 0.52916503,0.52916503 0 0 0 -0.1426,0.734375 l 2.8262,4.18164 a 0.52916503,0.52916503 0 0 0 0.7363,0.142578 0.52916503,0.52916503 0 0 0 0.1406,-0.736328 l -2.8262,-4.18164 a 0.52916503,0.52916503 0 0 0 -0.7343,-0.140625 z"
                id="path41133"
                stroke-width="0.5"
                stroke-linecap="round"
                stroke-linejoin="round"
                stroke="black" />
            <path
                d="m 1211.1643,287.76069 c 0,0 -28.9791,91.48036 -25.598,133.75226 2.5656,32.07595 14.9467,50.48543 14.9467,50.48543 l 6.267,-0.11975 c 26.8899,-39.29684 38.8713,-92.65044 51.7782,-141.80248 -3.4104,1.053 25.7001,134.35704 35.93,138.64264 8.6575,3.62689 18.6201,-3.02539 20.4319,-6.2109 21.8979,-38.50071 -6.1536,-178.98511 -13.7897,-178.99584 l -19.3871,5.10804 -21.0559,2.62658 h -25.9317 l -18.8067,-1.62528 z"
                id="path41135"
                stroke-width="0.529165"
                stroke-linecap="round"
                stroke-linejoin="round"
                stroke="black" />
            <path
                d="m 1307.7586,281.83338 c 3.1807,13.64989 8.561,27.08852 11.0568,45.00543 7.7196,55.41727 3.6858,114.06568 38.008,143.82777 0.013,0.33921 3.7639,0.81891 8.255,-0.30157 14.2112,-3.54554 -0.057,-123.31481 -6.1464,-127.7333 44.046,23.8932 87.1509,55.38671 136.7521,34.4174 l 0.5962,-6.12841 c -48.7531,-33.42697 -100.102,-78.12749 -146.2361,-100.18042 -11.1925,8.43192 -26.5769,10.02694 -42.2856,11.0931 z"
                id="path41137"
                stroke-width="0.529165"
                stroke-linecap="round"
                stroke-linejoin="round"
                stroke="black" />
            <path
                d="m 1362.0898,468.04492 a 1.0583349,1.0583349 0 0 0 -0.8886,1.20508 c 0,0 0.2745,1.82189 0.6308,3.85937 0.3564,2.03749 0.7299,4.16253 1.17,5.29688 0.2974,0.76685 0.9015,1.23782 1.5214,1.59766 0.62,0.35984 1.3091,0.6229 1.9942,0.85742 1.3702,0.46903 2.8115,0.92508 3.1113,1.13476 0.3278,0.22925 0.4537,0.54232 0.4004,1.07032 -0.053,0.52799 -0.3616,1.19827 -0.918,1.73242 0.081,-0.078 -0.7189,0.30946 -1.7675,0.43359 -1.0487,0.12413 -2.3819,0.15498 -3.6836,0.084 -1.3018,-0.071 -2.5831,-0.24604 -3.5098,-0.49219 -0.4634,-0.12308 -0.8369,-0.26769 -1.0547,-0.38867 -0.2178,-0.12098 -0.2231,-0.21196 -0.1719,-0.0723 -0.017,-0.046 -0.1779,-1.26231 -0.1855,-2.64648 -0.01,-1.38418 0.046,-3.08393 0.1211,-4.72657 0.1505,-3.28527 0.3886,-6.34375 0.3886,-6.34375 a 1.0583349,1.0583349 0 0 0 -0.9746,-1.13671 1.0583349,1.0583349 0 0 0 -1.1367,0.9746 c 0,0 -0.2382,3.08169 -0.3906,6.40821 -0.076,1.66326 -0.1311,3.38833 -0.1231,4.83594 0.01,1.4476 -0.013,2.46968 0.3145,3.36328 0.2236,0.6095 0.6746,0.94104 1.1289,1.19336 0.4543,0.25232 0.9685,0.43386 1.541,0.58593 1.1451,0.30415 2.5284,0.48175 3.9375,0.5586 1.4091,0.0768 2.8334,0.0499 4.0469,-0.0937 1.2135,-0.14365 2.1795,-0.2352 2.9863,-1.00977 0.8947,-0.85896 1.4449,-1.94065 1.5567,-3.04883 0.1118,-1.10817 -0.291,-2.31616 -1.291,-3.01562 -1.0281,-0.71906 -2.3825,-0.97361 -3.6407,-1.4043 -0.6291,-0.21534 -1.2121,-0.44846 -1.6172,-0.68359 -0.4051,-0.23513 -0.5803,-0.45839 -0.6093,-0.53321 -0.213,-0.54897 -0.7095,-2.88889 -1.0606,-4.89648 -0.3511,-2.00759 -0.6211,-3.80859 -0.6211,-3.80859 a 1.0583349,1.0583349 0 0 0 -1.2051,-0.89063 z"
                id="path41139"
                stroke-width="0.5"
                stroke-linecap="round"
                stroke-linejoin="round"
                stroke="black" />
            <path
                d="m 1511.5117,351.48828 c -0.6205,-0.004 -0.9847,0.37463 -1.1914,0.64649 -0.207,0.27219 -0.3377,0.54978 -0.4629,0.85546 -0.2504,0.61136 -0.451,1.33956 -0.6308,2.09571 -0.3598,1.5123 -0.6286,3.16895 -0.7168,3.59765 -1.2253,5.95085 -3.5645,9.55265 -5.125,11.70899 -0.1622,0.22405 -0.6072,0.4871 -1.334,0.63672 -0.7269,0.14961 -1.6695,0.18626 -2.6094,0.15429 -0.9399,-0.032 -1.8781,-0.12749 -2.6465,-0.20898 -0.3842,-0.0408 -0.7249,-0.0772 -1.0156,-0.10156 -0.2907,-0.0243 -0.4748,-0.058 -0.8223,-0.006 a 1.0583349,1.0583349 0 0 0 -0.8886,1.20312 1.0583349,1.0583349 0 0 0 1.2031,0.88867 c -0.1298,0.0195 0.086,0.003 0.332,0.0234 0.2464,0.0206 0.5811,0.0566 0.9688,0.0977 0.7752,0.0822 1.7632,0.1836 2.7968,0.21875 1.0336,0.0351 2.1112,0.0102 3.1094,-0.19531 0.9982,-0.20547 1.9851,-0.59189 2.6211,-1.47071 1.6321,-2.25516 4.1829,-6.21212 5.4824,-12.52344 0.125,-0.60685 0.3709,-2.12819 0.7051,-3.5332 0.1671,-0.7025 0.3587,-1.3686 0.5293,-1.78515 0.018,-0.0446 0.023,-0.0418 0.041,-0.0801 0.1172,0.0297 0.1255,0.0229 0.2793,0.082 0.3528,0.13561 0.7719,0.33518 1.1465,0.55859 0.3746,0.22342 0.708,0.47838 0.8828,0.66211 0.1749,0.18374 0.086,0.23172 0.1211,-0.0156 v -0.008 c -1.1069,7.44858 -0.9469,14.70541 -2.459,18.875 -0.7561,2.0848 -1.7652,3.31135 -3.5586,3.81641 -1.7934,0.50507 -4.6043,0.21349 -8.7774,-1.44141 a 1.0584408,1.0584408 0 0 0 -0.1816,-0.0547 c -2.5741,-0.51484 -5.9434,-0.0332 -5.9434,-0.0332 a 1.0583349,1.0583349 0 0 0 -0.916,1.1836 1.0583349,1.0583349 0 0 0 1.1836,0.91601 c 0,0 3.3355,-0.37509 5.2598,0.01 l -0.1817,-0.0547 c 4.3882,1.74019 7.616,2.21996 10.1309,1.51172 2.5149,-0.70824 4.0855,-2.67906 4.9746,-5.13086 1.7783,-4.9036 1.4915,-12.07994 2.5625,-19.28711 a 1.0584408,1.0584408 0 0 0 0,-0.008 c 0.1111,-0.78789 -0.2995,-1.33472 -0.6836,-1.73828 -0.384,-0.40357 -0.8459,-0.72957 -1.332,-1.01953 -0.4862,-0.28997 -0.9943,-0.53559 -1.4707,-0.71875 -0.4758,-0.18292 -0.8694,-0.32389 -1.3828,-0.32813 z"
                id="path41141"
                stroke-width="0.5"
                stroke-linecap="round"
                stroke-linejoin="round"
                stroke="black" />
            <path
                d="m 1206.0605,469.94336 a 1.0583349,1.0583349 0 0 0 -1.0273,1.08789 c 0.099,3.37728 0.726,6.36075 -0.2812,9.37695 -0.6569,0.0291 -3.7028,0.16391 -7.4512,0.32617 -2.0663,0.0894 -4.1438,0.17855 -5.7305,0.24415 -0.7933,0.0328 -1.4644,0.0599 -1.9473,0.0781 -0.2143,0.008 -0.3761,0.0132 -0.5097,0.0176 -0.034,-0.0428 -0.068,-0.0752 -0.1,-0.14258 -0.06,-0.12521 0,-0.31111 0.014,-0.4707 3.5125,-1.16498 6.4371,-1.89215 8.7032,-2.91016 2.4201,-1.08721 4.2585,-2.71595 5.207,-5.51172 a 1.0583349,1.0583349 0 0 0 -0.6621,-1.34179 1.0583349,1.0583349 0 0 0 -1.3418,0.6621 c -0.7795,2.2974 -1.9545,3.31122 -4.0703,4.26172 -2.1159,0.9505 -5.1564,1.68098 -9.1113,3.03321 a 1.0584408,1.0584408 0 0 0 -0.6016,0.52343 c -0.4854,0.95903 -0.3783,1.96795 -0.047,2.66407 0.1657,0.34806 0.3762,0.63304 0.6231,0.86328 0.2468,0.23023 0.4765,0.47 1.0605,0.49219 0.1712,0.007 0.1822,-10e-4 0.3281,-0.006 0.146,-0.005 0.344,-0.0103 0.5879,-0.0195 0.4878,-0.0184 1.1585,-0.0472 1.9532,-0.0801 1.5893,-0.0657 3.6693,-0.15466 5.7363,-0.24414 4.134,-0.17896 8.2168,-0.35938 8.2168,-0.35938 a 1.0584408,1.0584408 0 0 0 0.9316,-0.65234 c 1.6259,-3.93113 0.7058,-7.56384 0.6094,-10.86524 a 1.0583349,1.0583349 0 0 0 -1.0899,-1.02734 z"
                id="path41143"
                stroke-width="0.5"
                stroke-linecap="round"
                stroke-linejoin="round"
                stroke="black" />
            <path
                d="m 1306.4043,465.92187 a 1.0583349,1.0583349 0 0 0 -1.2227,0.86329 c 0,0 -0.5569,3.23268 -0.3418,7.94726 0.1173,2.56915 1.2592,4.17405 2.3868,5.1836 0.7313,0.65478 1.0651,0.97709 1.5,1.37304 -0.031,0.006 -0.033,0.0118 -0.064,0.0176 -1.0299,0.18765 -2.5488,0.33722 -4.1035,0.42578 -1.5547,0.0886 -3.1562,0.12001 -4.3887,0.0899 -0.6162,-0.0151 -1.1435,-0.0465 -1.5019,-0.0879 -0.1039,-0.012 -0.1508,-0.0231 -0.2207,-0.0351 -0.059,-0.0775 -0.1384,-0.17906 -0.1133,-0.51953 0.03,-0.40801 0.2229,-1.00339 0.6562,-1.64649 v -0.002 c 0.5318,-0.78901 0.5671,-1.62156 0.6231,-2.63281 0.056,-1.01194 0.026,-2.1602 -0.039,-3.26172 -0.066,-1.10153 -0.168,-2.15305 -0.2597,-2.95117 -0.046,-0.39907 -0.089,-0.73376 -0.125,-0.98438 -0.018,-0.12531 -0.035,-0.22889 -0.051,-0.3164 -0.01,-0.0438 -0.014,-0.0827 -0.024,-0.12696 -0.01,-0.0443 0.01,-0.0507 -0.072,-0.23242 a 1.0583349,1.0583349 0 0 0 -1.3907,-0.55469 1.0583349,1.0583349 0 0 0 -0.5546,1.38867 c -0.072,-0.16745 -0.051,-0.14498 -0.051,-0.14648 -4e-4,-0.002 0,0.0152 0.01,0.041 0.01,0.0516 0.023,0.14098 0.039,0.25195 0.032,0.22193 0.075,0.53998 0.1191,0.92187 0.088,0.76379 0.1854,1.78387 0.248,2.83594 0.063,1.05207 0.088,2.1402 0.039,3.01758 -0.049,0.87738 -0.2794,1.58679 -0.2656,1.56641 -0.6032,0.89434 -0.9475,1.80356 -1.0117,2.67578 -0.064,0.87222 0.1753,1.76819 0.8418,2.36133 0.3398,0.30245 0.5225,0.29712 0.7226,0.3457 0.2001,0.0486 0.4057,0.0805 0.6387,0.10742 0.4659,0.0538 1.0356,0.0836 1.6914,0.0996 1.3117,0.0321 2.954,-1.7e-4 4.5625,-0.0918 1.6085,-0.0916 3.1712,-0.23823 4.3613,-0.45508 0.5951,-0.10842 1.0866,-0.22184 1.5293,-0.41601 0.2214,-0.0971 0.4441,-0.19869 0.6856,-0.47656 0.2414,-0.27788 0.3972,-0.94209 0.2011,-1.36133 -0.6662,-1.42479 -1.928,-1.99974 -2.8183,-2.79688 -0.8904,-0.79713 -1.5904,-1.66128 -1.6836,-3.70312 -0.2057,-4.50747 0.3125,-7.49219 0.3125,-7.49219 a 1.0583349,1.0583349 0 0 0 -0.8633,-1.22266 z"
                id="path41145"
                stroke-width="0.5"
                stroke-linecap="round"
                stroke-linejoin="round"
                stroke="black" />
        </g>
    </g>
</svg>